<svg xmlns="http://www.w3.org/2000/svg" viewBox="0 0 1437.24 640.15"><defs><style>.cls-1{fill:#e8eff6;}.cls-11,.cls-12,.cls-13,.cls-14,.cls-15,.cls-17,.cls-18,.cls-19,.cls-2,.cls-21,.cls-23,.cls-24,.cls-25,.cls-26,.cls-28,.cls-29,.cls-3,.cls-4,.cls-5,.cls-6,.cls-7,.cls-8,.cls-9{fill:none;}.cls-2,.cls-3,.cls-4,.cls-5,.cls-6,.cls-7,.cls-8{stroke:#f15a24;}.cls-11,.cls-12,.cls-13,.cls-14,.cls-15,.cls-17,.cls-18,.cls-19,.cls-2,.cls-24,.cls-25,.cls-26,.cls-29,.cls-3,.cls-4,.cls-5,.cls-6,.cls-7,.cls-8{stroke-linecap:round;}.cls-10,.cls-11,.cls-12,.cls-13,.cls-14,.cls-15,.cls-17,.cls-18,.cls-19,.cls-2,.cls-20,.cls-21,.cls-23,.cls-24,.cls-25,.cls-26,.cls-28,.cls-3,.cls-4,.cls-5,.cls-6,.cls-7,.cls-8,.cls-9{stroke-miterlimit:10;}.cls-10,.cls-11,.cls-12,.cls-13,.cls-14,.cls-15,.cls-17,.cls-18,.cls-19,.cls-2,.cls-24,.cls-26,.cls-3,.cls-4,.cls-5,.cls-6,.cls-7,.cls-8,.cls-9{stroke-width:3px;}.cls-3{stroke-dasharray:4.76 11.43;}.cls-4{stroke-dasharray:5.22 12.52;}.cls-5{stroke-dasharray:4.91 11.79;}.cls-6{stroke-dasharray:4.92 11.81;}.cls-7{stroke-dasharray:5.28 12.68;}.cls-8{stroke-dasharray:5.39 12.93;}.cls-21,.cls-23,.cls-25,.cls-9{stroke:#252939;}.cls-10,.cls-20{fill:#f15a24;}.cls-10,.cls-20,.cls-29{stroke:#fff;}.cls-11,.cls-12,.cls-13,.cls-18,.cls-24,.cls-26{stroke:#329afc;}.cls-12{stroke-dasharray:4.64 11.14;}.cls-13{stroke-dasharray:5.04 12.1;}.cls-14,.cls-15,.cls-17,.cls-19{stroke:#999;}.cls-15{stroke-dasharray:4.13 9.91;}.cls-16{fill:#fff;}.cls-17{stroke-dasharray:5 12;}.cls-18{stroke-dasharray:5.18 12.44;}.cls-19{stroke-dasharray:4.96 11.9;}.cls-20,.cls-23,.cls-28,.cls-29{stroke-width:2px;}.cls-21{stroke-width:1.75px;}.cls-22{fill:#252939;}.cls-24{stroke-dasharray:4.91 11.79;}.cls-25{stroke-width:0.5px;}.cls-26{stroke-dasharray:4.4 10.55;}.cls-27{fill:#28c1bc;}.cls-28{stroke:#e1f0ff;}.cls-29{stroke-linejoin:round;}</style></defs><g id="Clouds"><path class="cls-1" d="M1126.37,836c49.87,0,90.3-38.55,90.3-86.1s-40.43-86.1-90.3-86.1c-2.74,0-5.45.13-8.13.36a36.11,36.11,0,0,0,3.23-14.92c0-20.82-17.69-37.69-39.52-37.69a40.84,40.84,0,0,0-19.53,4.94c-17.19-40.29-58.63-68.7-107.06-68.7-63.82,0-115.56,49.33-115.56,110.19,0,.62,0,1.23.05,1.84-1.24,0-2.47-.09-3.72-.09-51.67,0-93.55,39.94-93.55,89.21s41.88,89.59,93.55,89.21Zm-89-100.34" transform="translate(-221.34 -198)"/><path class="cls-1" d="M1125.18,485.81c49.8,0,90.17-38.5,90.17-86s-40.37-86-90.17-86c-2.74,0-5.44.14-8.12.37a36,36,0,0,0,3.23-14.9c0-20.79-17.67-37.64-39.47-37.64a40.72,40.72,0,0,0-19.5,4.94c-17.16-40.23-58.55-68.61-106.9-68.61C890.68,198,839,247.27,839,308c0,.62,0,1.22.05,1.84-1.24-.05-2.47-.09-3.72-.09-51.59,0-93.41,39.88-93.41,89.08s41.82,89.46,93.41,89.08ZM1036.26,385.6" transform="translate(-221.34 -198)"/></g><g id="Orange_Lines" data-name="Orange Lines"><line class="cls-2" x1="1095.29" y1="176.1" x2="1092.79" y2="176.1"/><line class="cls-3" x1="1081.36" y1="176.1" x2="1038.51" y2="176.1"/><line class="cls-2" x1="1032.79" y1="176.1" x2="1030.29" y2="176.1"/><line class="cls-2" x1="418.29" y1="182.1" x2="420.79" y2="182.1"/><line class="cls-4" x1="433.31" y1="182.1" x2="462.53" y2="182.1"/><line class="cls-2" x1="468.79" y1="182.1" x2="471.29" y2="182.1"/><line class="cls-2" x1="183.29" y1="280.6" x2="185.79" y2="280.6"/><line class="cls-5" x1="197.59" y1="280.6" x2="408.89" y2="280.6"/><line class="cls-2" x1="414.79" y1="280.6" x2="417.29" y2="280.6"/><line class="cls-2" x1="417.29" y1="435" x2="417.29" y2="432.5"/><line class="cls-6" x1="417.29" y1="420.69" x2="417.29" y2="125.5"/><line class="cls-2" x1="417.29" y1="119.6" x2="417.29" y2="117.1"/><line class="cls-2" x1="309.79" y1="117.6" x2="312.29" y2="117.6"/><line class="cls-7" x1="324.97" y1="117.6" x2="408.45" y2="117.6"/><line class="cls-2" x1="414.79" y1="117.6" x2="417.29" y2="117.6"/><line class="cls-2" x1="305.79" y1="434.6" x2="308.29" y2="434.6"/><line class="cls-8" x1="321.22" y1="434.6" x2="406.33" y2="434.6"/><line class="cls-2" x1="412.79" y1="434.6" x2="415.29" y2="434.6"/></g><g id="Layer_1" data-name="Layer 1"><line class="cls-9" x1="267.66" y1="472" x2="267.66" y2="484"/><line class="cls-9" x1="281.66" y1="156" x2="281.66" y2="168"/><line class="cls-9" x1="141.66" y1="317" x2="141.66" y2="329"/><circle class="cls-10" cx="1186.08" cy="133.12" r="36.53"/><circle class="cls-10" cx="1186.13" cy="220.35" r="36.53"/><line class="cls-11" x1="323.66" y1="522" x2="326.16" y2="522"/><line class="cls-12" x1="337.31" y1="522" x2="379.09" y2="522"/><line class="cls-11" x1="384.66" y1="522" x2="387.16" y2="522"/><line class="cls-11" x1="359.66" y1="204" x2="362.16" y2="204"/><line class="cls-11" x1="376.16" y1="204" x2="378.66" y2="204"/><circle class="cls-10" cx="1132.2" cy="176.28" r="36.53"/><line class="cls-11" x1="213.66" y1="364.84" x2="216.16" y2="364.84"/><line class="cls-13" x1="228.26" y1="364.84" x2="1182.11" y2="364.84"/><line class="cls-11" x1="1188.16" y1="364.84" x2="1190.66" y2="364.84"/><line class="cls-14" x1="1224.66" y1="356" x2="1224.66" y2="353.5"/><line class="cls-15" x1="1224.66" y1="343.59" x2="1224.66" y2="320.46"/><line class="cls-14" x1="1224.66" y1="315.5" x2="1224.66" y2="313"/><rect class="cls-16" x="73.91" y="331.76" width="135.26" height="64.8" rx="4"/><rect class="cls-9" x="73.91" y="331.76" width="135.26" height="64.8" rx="4"/><line class="cls-17" x1="816.66" y1="178" x2="905.16" y2="178"/><line class="cls-17" x1="619.66" y1="177.5" x2="698.66" y2="177.5"/><line class="cls-11" x1="537.66" y1="402.5" x2="540.16" y2="402.5"/><line class="cls-18" x1="552.6" y1="402.5" x2="704.94" y2="402.5"/><line class="cls-11" x1="711.16" y1="402.5" x2="713.66" y2="402.5"/><line class="cls-17" x1="752.16" y1="246" x2="752.16" y2="405"/><line class="cls-14" x1="752.66" y1="312.5" x2="755.16" y2="312.5"/><line class="cls-19" x1="767.06" y1="312.5" x2="1216.21" y2="312.5"/><line class="cls-14" x1="1222.16" y1="312.5" x2="1224.66" y2="312.5"/><circle class="cls-20" cx="141.54" cy="279.17" r="38.88"/><rect class="cls-21" x="164.28" y="342" width="22.3" height="44" rx="2"/><rect class="cls-22" x="879.14" y="126" width="151.83" height="109" rx="4"/><rect class="cls-16" x="884.07" y="129.91" width="142.16" height="17.13" rx="2"/><circle class="cls-22" cx="894.45" cy="138.36" r="4.21"/><circle class="cls-22" cx="906.16" cy="138.36" r="4.21"/><rect class="cls-16" x="471.91" y="128.61" width="148.08" height="106.31" rx="4"/><rect class="cls-23" x="471.91" y="128.61" width="148.08" height="106.31" rx="4"/><rect class="cls-22" x="477.04" y="132.42" width="138.65" height="16.7" rx="2"/><circle class="cls-16" cx="487.16" cy="140.67" r="4.1"/><circle class="cls-16" cx="498.58" cy="140.67" r="4.1"/><rect class="cls-9" x="1083.88" y="414.75" width="283.05" height="124.25" rx="4"/><rect class="cls-9" x="218.16" y="487.2" width="99.98" height="64.8" rx="4"/><circle class="cls-20" cx="267.26" cy="434.71" r="38.88"/><rect class="cls-16" x="238.42" y="535.97" width="57.47" height="6.03" rx="1"/><rect class="cls-21" x="238.42" y="535.97" width="57.47" height="6.03" rx="1"/><rect class="cls-16" x="243.55" y="498.02" width="47.2" height="35.52" rx="1"/><rect class="cls-21" x="243.55" y="498.02" width="47.2" height="35.52" rx="1"/><rect class="cls-16" x="207.16" y="170.96" width="148.76" height="64.8" rx="4"/><rect class="cls-9" x="207.16" y="170.96" width="148.76" height="64.8" rx="4"/><circle class="cls-20" cx="281.64" cy="118.29" r="38.88"/><line class="cls-11" x1="388.66" y1="521.5" x2="388.66" y2="519"/><line class="cls-24" x1="388.66" y1="507.21" x2="388.66" y2="212.4"/><line class="cls-11" x1="388.66" y1="206.5" x2="388.66" y2="204"/><line class="cls-9" x1="752.16" y1="404.5" x2="752.16" y2="440.5"/><line class="cls-9" x1="1225.16" y1="369.5" x2="1225.16" y2="411.5"/><path d="M913.35,256.52h2l2.42,9.38,2.49-9.38h2l2.5,9.35,2.41-9.35h2l-3.27,11.92h-2.13l-2.49-9.13-2.5,9.13h-2.11Z" transform="translate(-221.34 -198)"/><path d="M930.36,256.52h1.81v2.08h-1.81Zm0,3.27h1.81v8.65h-1.81Z" transform="translate(-221.34 -198)"/><path d="M934.28,259.79H936v1.1a2,2,0,0,1,.92-.93,3.18,3.18,0,0,1,1.38-.29h.53v1.65h-.75a2,2,0,0,0-1.45.55,2.14,2.14,0,0,0-.55,1.58v5h-1.81Z" transform="translate(-221.34 -198)"/><path d="M941.85,268a4.29,4.29,0,0,1-1.56-1.63,4.71,4.71,0,0,1-.57-2.31,4.76,4.76,0,0,1,.56-2.31,4.17,4.17,0,0,1,3.71-2.19,4,4,0,0,1,2.23.59,3.84,3.84,0,0,1,1.41,1.53,4.46,4.46,0,0,1,.49,2.08c0,.13,0,.28,0,.43a2.37,2.37,0,0,1-.06.41h-6.43a2.46,2.46,0,0,0,2.54,2.4,2.42,2.42,0,0,0,1.34-.36,2.77,2.77,0,0,0,.87-.9l1.47.72a3.44,3.44,0,0,1-1.38,1.54,4.38,4.38,0,0,1-2.32.6A4.31,4.31,0,0,1,941.85,268Zm.6-6.37a2.43,2.43,0,0,0-.81,1.53h4.56a2.1,2.1,0,0,0-.67-1.5,2.21,2.21,0,0,0-1.54-.58A2.31,2.31,0,0,0,942.45,261.66Z" transform="translate(-221.34 -198)"/><path d="M949,259.79h1.92l1.93,5.88,2-5.88h1.65l2,5.88,2-5.88h1.92l-3,8.65H957.7l-2-6.16-2,6.16H952Z" transform="translate(-221.34 -198)"/><path d="M963.56,256.52h1.81v2.08h-1.81Zm0,3.27h1.81v8.65h-1.81Z" transform="translate(-221.34 -198)"/><path d="M968.35,268a3.51,3.51,0,0,1-1.4-1.76l1.39-.66a3,3,0,0,0,1,1.17,2.32,2.32,0,0,0,1.37.43,1.71,1.71,0,0,0,1-.29.92.92,0,0,0,.4-.78.77.77,0,0,0-.37-.7,3,3,0,0,0-.78-.34l-1.36-.38a3.49,3.49,0,0,1-1.68-1,2.31,2.31,0,0,1-.55-1.52,2.35,2.35,0,0,1,.4-1.36,2.71,2.71,0,0,1,1.11-.91,3.66,3.66,0,0,1,1.58-.33,3.87,3.87,0,0,1,2.11.59,3.13,3.13,0,0,1,1.31,1.62l-1.39.66a2.08,2.08,0,0,0-.81-1,2.13,2.13,0,0,0-1.24-.37,1.5,1.5,0,0,0-.94.27.9.9,0,0,0-.35.74.76.76,0,0,0,.35.67,3.42,3.42,0,0,0,.75.35l1.41.42a3.42,3.42,0,0,1,1.65.95,2.24,2.24,0,0,1,.57,1.54,2.31,2.31,0,0,1-.4,1.35,2.63,2.63,0,0,1-1.12.92,4.24,4.24,0,0,1-1.69.32A4.13,4.13,0,0,1,968.35,268Z" transform="translate(-221.34 -198)"/><path d="M977.45,268a4.14,4.14,0,0,1-1.56-1.63,4.71,4.71,0,0,1-.57-2.31,4.65,4.65,0,0,1,.56-2.31,4.17,4.17,0,0,1,3.71-2.19,4.07,4.07,0,0,1,2.23.59,3.91,3.91,0,0,1,1.41,1.53,4.58,4.58,0,0,1,.49,2.08c0,.13,0,.28,0,.43a2.37,2.37,0,0,1-.06.41h-6.43a2.46,2.46,0,0,0,2.54,2.4,2.42,2.42,0,0,0,1.34-.36,2.87,2.87,0,0,0,.87-.9l1.47.72a3.44,3.44,0,0,1-1.38,1.54,4.38,4.38,0,0,1-2.32.6A4.31,4.31,0,0,1,977.45,268Zm.6-6.37a2.39,2.39,0,0,0-.81,1.53h4.56a2.1,2.1,0,0,0-.67-1.5,2.21,2.21,0,0,0-1.54-.58A2.31,2.31,0,0,0,978.05,261.66Z" transform="translate(-221.34 -198)"/><path d="M991.66,268.18a5.73,5.73,0,0,1-1.88-1.29,6,6,0,0,1-1.24-2,7.07,7.07,0,0,1,0-4.91,5.84,5.84,0,0,1,1.23-1.95,5.56,5.56,0,0,1,1.88-1.28,5.88,5.88,0,0,1,2.36-.46,5.61,5.61,0,0,1,2.25.43,5.43,5.43,0,0,1,1.7,1.13,4.2,4.2,0,0,1,1,1.51l-1.7.8A3.36,3.36,0,0,0,994,258a3.91,3.91,0,0,0-2.09.56,3.87,3.87,0,0,0-1.42,1.55,5.55,5.55,0,0,0,0,4.65,3.68,3.68,0,0,0,1.42,1.55,3.91,3.91,0,0,0,2.09.56,3.4,3.4,0,0,0,2-.6,3.33,3.33,0,0,0,1.22-1.55l1.7.8a4.38,4.38,0,0,1-1,1.51,5.43,5.43,0,0,1-1.7,1.13,5.61,5.61,0,0,1-2.25.43A6,6,0,0,1,991.66,268.18Z" transform="translate(-221.34 -198)"/><path d="M1000.71,256.33h1.81v12.11h-1.81Z" transform="translate(-221.34 -198)"/><path d="M1006.53,268a4.47,4.47,0,0,1-1.65-1.61,4.8,4.8,0,0,1,0-4.65,4.32,4.32,0,0,1,1.63-1.6,4.57,4.57,0,0,1,2.29-.59,4.51,4.51,0,0,1,2.29.59,4.32,4.32,0,0,1,1.63,1.6,4.51,4.51,0,0,1-3.92,6.85A4.39,4.39,0,0,1,1006.53,268Zm3.63-1.45a2.64,2.64,0,0,0,.94-1,3.22,3.22,0,0,0,0-2.92,2.54,2.54,0,0,0-2.3-1.38,2.58,2.58,0,0,0-1.35.37,2.61,2.61,0,0,0-.94,1,3.3,3.3,0,0,0,0,2.92,2.64,2.64,0,0,0,.94,1,2.73,2.73,0,0,0,2.71,0Z" transform="translate(-221.34 -198)"/><path d="M1016.45,268.19a3,3,0,0,1-1.14-1.23,4,4,0,0,1-.41-1.83v-5.34h1.81V265a2,2,0,0,0,.54,1.44,1.82,1.82,0,0,0,1.36.54,1.85,1.85,0,0,0,1.4-.56,2.06,2.06,0,0,0,.54-1.5v-5.1h1.79v8.65h-1.71v-1.07a2.54,2.54,0,0,1-1,.94,3.52,3.52,0,0,1-3.17-.12Z" transform="translate(-221.34 -198)"/><path d="M1026.22,268a4.38,4.38,0,0,1-1.55-1.62,4.95,4.95,0,0,1,0-4.61,4.28,4.28,0,0,1,1.55-1.61,4.2,4.2,0,0,1,2.22-.6,4,4,0,0,1,1.62.32,3.41,3.41,0,0,1,1.21.88v-4.46h1.79v12.11h-1.71v-1.12a3.08,3.08,0,0,1-1.24,1,4.13,4.13,0,0,1-1.66.33A4.21,4.21,0,0,1,1026.22,268Zm3.76-1.44a2.67,2.67,0,0,0,1-1,3.3,3.3,0,0,0,0-2.92,2.64,2.64,0,0,0-1-1,2.65,2.65,0,0,0-2.7,0,2.64,2.64,0,0,0-1,1,3.3,3.3,0,0,0,0,2.92,2.55,2.55,0,0,0,.93,1,2.62,2.62,0,0,0,1.37.36A2.57,2.57,0,0,0,1030,266.59Z" transform="translate(-221.34 -198)"/><path d="M943.78,287.41a4.85,4.85,0,0,1-1.62-1.16,4.61,4.61,0,0,1-1-1.7l1.6-.67a3.49,3.49,0,0,0,1.25,1.7,3.31,3.31,0,0,0,1.93.59,2.54,2.54,0,0,0,1.55-.44,1.42,1.42,0,0,0,.58-1.18,1.45,1.45,0,0,0-.38-1,2.64,2.64,0,0,0-1.08-.6l-2.24-.71a4.22,4.22,0,0,1-2-1.27,3.11,3.11,0,0,1-.7-2,3.19,3.19,0,0,1,.5-1.77A3.4,3.4,0,0,1,943.5,276a4.38,4.38,0,0,1,2-.43,5,5,0,0,1,2,.38,4.45,4.45,0,0,1,1.51,1,4,4,0,0,1,.92,1.52l-1.57.69a2.87,2.87,0,0,0-2.81-2,2.21,2.21,0,0,0-1.44.45,1.46,1.46,0,0,0-.55,1.2,1.6,1.6,0,0,0,.37,1,2.24,2.24,0,0,0,1.12.67l2.08.66c1.91.59,2.87,1.68,2.87,3.25a3.11,3.11,0,0,1-.52,1.76A3.41,3.41,0,0,1,948,287.4a4.9,4.9,0,0,1-2.12.43A5.13,5.13,0,0,1,943.78,287.41Z" transform="translate(-221.34 -198)"/><path d="M953.65,287.23a4.14,4.14,0,0,1-1.56-1.63,4.71,4.71,0,0,1-.57-2.31,4.76,4.76,0,0,1,.56-2.31,4.17,4.17,0,0,1,3.71-2.19,4,4,0,0,1,2.23.59,3.91,3.91,0,0,1,1.41,1.53,4.46,4.46,0,0,1,.49,2.08c0,.13,0,.28,0,.43a2.37,2.37,0,0,1-.06.41h-6.43a2.46,2.46,0,0,0,2.54,2.4,2.42,2.42,0,0,0,1.34-.36,2.87,2.87,0,0,0,.87-.9l1.47.72a3.44,3.44,0,0,1-1.38,1.54,4.38,4.38,0,0,1-2.32.6A4.31,4.31,0,0,1,953.65,287.23Zm.6-6.37a2.39,2.39,0,0,0-.81,1.53H958a2.1,2.1,0,0,0-.67-1.5,2.21,2.21,0,0,0-1.54-.58A2.36,2.36,0,0,0,954.25,280.86Z" transform="translate(-221.34 -198)"/><path d="M961.68,279h1.73v1.1a2,2,0,0,1,.92-.93,3.18,3.18,0,0,1,1.38-.29h.53v1.65h-.75a2,2,0,0,0-1.45.55,2.14,2.14,0,0,0-.55,1.58v5h-1.81Z" transform="translate(-221.34 -198)"/><path d="M966.59,279h2l2.25,6.08,2.24-6.08h2l-3.41,8.65H970Z" transform="translate(-221.34 -198)"/><path d="M976.27,275.72h1.81v2.08h-1.81Zm0,3.27h1.81v8.65h-1.81Z" transform="translate(-221.34 -198)"/><path d="M982,287.23a4.41,4.41,0,0,1-1.59-1.62,5,5,0,0,1,0-4.63,4.28,4.28,0,0,1,1.59-1.6,4.68,4.68,0,0,1,4-.28,4.14,4.14,0,0,1,1.34.85,3.75,3.75,0,0,1,.84,1.28l-1.59.73a2.35,2.35,0,0,0-.86-1.08,2.41,2.41,0,0,0-1.38-.41,2.47,2.47,0,0,0-1.32.37,2.69,2.69,0,0,0-.92,1,3.12,3.12,0,0,0-.33,1.47,3.17,3.17,0,0,0,.33,1.46,2.67,2.67,0,0,0,.92,1,2.47,2.47,0,0,0,1.32.36,2.35,2.35,0,0,0,1.37-.4,2.49,2.49,0,0,0,.87-1.1l1.59.75a3.35,3.35,0,0,1-.83,1.24,4.14,4.14,0,0,1-1.33.87,4.21,4.21,0,0,1-1.67.32A4.41,4.41,0,0,1,982,287.23Z" transform="translate(-221.34 -198)"/><path d="M991.66,287.23a4.29,4.29,0,0,1-1.56-1.63,4.71,4.71,0,0,1-.57-2.31,4.76,4.76,0,0,1,.56-2.31,4.28,4.28,0,0,1,1.53-1.6,4.15,4.15,0,0,1,2.19-.59,4.1,4.1,0,0,1,2.23.59,4,4,0,0,1,1.41,1.53,4.58,4.58,0,0,1,.48,2.08c0,.13,0,.28,0,.43a1.67,1.67,0,0,1-.07.41h-6.43a2.46,2.46,0,0,0,2.55,2.4,2.38,2.38,0,0,0,1.33-.36,2.67,2.67,0,0,0,.87-.9l1.48.72a3.41,3.41,0,0,1-1.39,1.54,4.71,4.71,0,0,1-4.6,0Zm.61-6.37a2.4,2.4,0,0,0-.82,1.53H996a2.07,2.07,0,0,0-.67-1.5,2.19,2.19,0,0,0-1.53-.58A2.36,2.36,0,0,0,992.27,280.86Z" transform="translate(-221.34 -198)"/><path d="M1000.57,287.18a3.46,3.46,0,0,1-1.4-1.76l1.39-.66a2.94,2.94,0,0,0,1,1.17,2.29,2.29,0,0,0,1.36.43,1.67,1.67,0,0,0,1-.29.9.9,0,0,0,.4-.78.78.78,0,0,0-.36-.7,2.91,2.91,0,0,0-.79-.34l-1.36-.38a3.45,3.45,0,0,1-1.67-1A2.44,2.44,0,0,1,1000,280a2.61,2.61,0,0,1,1.1-.91,3.71,3.71,0,0,1,1.59-.33,3.9,3.9,0,0,1,2.11.59,3.18,3.18,0,0,1,1.31,1.62l-1.39.66a2.08,2.08,0,0,0-.81-1,2.15,2.15,0,0,0-1.24-.37,1.5,1.5,0,0,0-.94.27.88.88,0,0,0-.36.74.75.75,0,0,0,.36.67,3.22,3.22,0,0,0,.75.35l1.41.42a3.34,3.34,0,0,1,1.64.95,2.2,2.2,0,0,1,.58,1.54,2.31,2.31,0,0,1-.4,1.35,2.66,2.66,0,0,1-1.13.92,4.21,4.21,0,0,1-1.69.32A4.09,4.09,0,0,1,1000.57,287.18Z" transform="translate(-221.34 -198)"/><path d="M922.06,802.67a5.73,5.73,0,0,1-1.88-1.29,5.79,5.79,0,0,1-1.24-2,7.07,7.07,0,0,1,0-4.91,5.73,5.73,0,0,1,1.23-2,5.66,5.66,0,0,1,1.87-1.28,6.09,6.09,0,0,1,2.36-.45,5.69,5.69,0,0,1,2.26.43,5.22,5.22,0,0,1,1.69,1.13,4.2,4.2,0,0,1,1,1.51l-1.69.8a3.5,3.5,0,0,0-1.23-1.56,3.38,3.38,0,0,0-2-.6,3.91,3.91,0,0,0-2.09.56,3.85,3.85,0,0,0-1.41,1.55,5.46,5.46,0,0,0,0,4.65,3.79,3.79,0,0,0,1.41,1.55,3.91,3.91,0,0,0,2.09.55,3.37,3.37,0,0,0,2-.59,3.42,3.42,0,0,0,1.23-1.55l1.69.8a4.35,4.35,0,0,1-1,1.5,5.24,5.24,0,0,1-1.69,1.14,5.69,5.69,0,0,1-2.26.43A6,6,0,0,1,922.06,802.67Z" transform="translate(-221.34 -198)"/><path d="M931.1,790.82h1.81v12.11H931.1Z" transform="translate(-221.34 -198)"/><path d="M936.92,802.53a4.32,4.32,0,0,1-1.64-1.62,4.39,4.39,0,0,1-.61-2.32,4.46,4.46,0,0,1,.6-2.32,4.32,4.32,0,0,1,1.63-1.6,4.76,4.76,0,0,1,4.59,0,4.36,4.36,0,0,1,1.62,1.6,4.51,4.51,0,0,1-3.91,6.85A4.56,4.56,0,0,1,936.92,802.53Zm3.63-1.46a2.48,2.48,0,0,0,.94-1,3.07,3.07,0,0,0,.35-1.47,3,3,0,0,0-.35-1.45,2.54,2.54,0,0,0-.94-1,2.65,2.65,0,0,0-2.7,0,2.64,2.64,0,0,0-1,1,3,3,0,0,0-.34,1.45,3.07,3.07,0,0,0,.34,1.47,2.57,2.57,0,0,0,1,1,2.65,2.65,0,0,0,2.7,0Z" transform="translate(-221.34 -198)"/><path d="M946.85,802.68a3,3,0,0,1-1.15-1.23,4,4,0,0,1-.41-1.83v-5.35h1.81v5.19a2,2,0,0,0,.54,1.44,2,2,0,0,0,2.76,0,2.06,2.06,0,0,0,.54-1.5v-5.11h1.79v8.66H951v-1.07a2.42,2.42,0,0,1-1,.93,3.17,3.17,0,0,1-1.46.33A3.2,3.2,0,0,1,946.85,802.68Z" transform="translate(-221.34 -198)"/><path d="M956.62,802.52a4.33,4.33,0,0,1-1.56-1.62,5,5,0,0,1,0-4.61,4.33,4.33,0,0,1,1.56-1.62,4.22,4.22,0,0,1,2.21-.59,4.09,4.09,0,0,1,1.63.32,3.46,3.46,0,0,1,1.2.88v-4.46h1.8v12.11h-1.72v-1.12a3.08,3.08,0,0,1-1.24,1,4.09,4.09,0,0,1-1.65.33A4.18,4.18,0,0,1,956.62,802.52Zm3.76-1.45a2.62,2.62,0,0,0,.94-1,3.07,3.07,0,0,0,.34-1.47,3,3,0,0,0-.34-1.45,2.69,2.69,0,0,0-.94-1,2.53,2.53,0,0,0-1.36-.37,2.49,2.49,0,0,0-1.35.37,2.61,2.61,0,0,0-.94,1,3,3,0,0,0-.35,1.45,3.19,3.19,0,0,0,.34,1.47,2.46,2.46,0,0,0,.93,1,2.56,2.56,0,0,0,1.37.37A2.53,2.53,0,0,0,960.38,801.07Z" transform="translate(-221.34 -198)"/><path d="M970.63,802.7a4.85,4.85,0,0,1-1.62-1.16,4.78,4.78,0,0,1-1-1.7l1.61-.67a3.49,3.49,0,0,0,1.25,1.7,3.29,3.29,0,0,0,1.93.59,2.51,2.51,0,0,0,1.54-.44,1.53,1.53,0,0,0,.21-2.22,2.64,2.64,0,0,0-1.08-.61l-2.24-.7a4.17,4.17,0,0,1-2.05-1.27,3.06,3.06,0,0,1-.7-2,3.18,3.18,0,0,1,.49-1.77,3.46,3.46,0,0,1,1.37-1.19,4.41,4.41,0,0,1,2-.43,5,5,0,0,1,2,.37,4.73,4.73,0,0,1,1.51,1,3.89,3.89,0,0,1,.92,1.52l-1.57.68a2.88,2.88,0,0,0-2.82-2,2.26,2.26,0,0,0-1.43.44,1.49,1.49,0,0,0-.55,1.2,1.55,1.55,0,0,0,.37,1,2.2,2.2,0,0,0,1.12.67l2.08.66c1.91.59,2.86,1.68,2.86,3.24a3.14,3.14,0,0,1-.51,1.77,3.41,3.41,0,0,1-1.43,1.21,4.93,4.93,0,0,1-2.12.43A5.13,5.13,0,0,1,970.63,802.7Z" transform="translate(-221.34 -198)"/><path d="M980.49,802.52a4.29,4.29,0,0,1-1.56-1.63,4.7,4.7,0,0,1-.56-2.31,4.6,4.6,0,0,1,.56-2.31,4.14,4.14,0,0,1,3.71-2.19,4.07,4.07,0,0,1,2.23.59,4,4,0,0,1,1.41,1.53,4.57,4.57,0,0,1,.49,2.07c0,.14,0,.29,0,.44a2.52,2.52,0,0,1-.06.41h-6.44a2.47,2.47,0,0,0,2.55,2.4,2.36,2.36,0,0,0,1.33-.36,2.8,2.8,0,0,0,.88-.9l1.47.72a3.34,3.34,0,0,1-1.39,1.53,4.24,4.24,0,0,1-2.31.61A4.37,4.37,0,0,1,980.49,802.52Zm.61-6.37a2.34,2.34,0,0,0-.81,1.53h4.56a2.15,2.15,0,0,0-2.21-2.08A2.31,2.31,0,0,0,981.1,796.15Z" transform="translate(-221.34 -198)"/><path d="M988.53,794.27h1.72v1.11a2.09,2.09,0,0,1,.93-.93,3.18,3.18,0,0,1,1.38-.29h.53v1.65h-.76a1.93,1.93,0,0,0-1.44.55,2.14,2.14,0,0,0-.56,1.58v5h-1.8Z" transform="translate(-221.34 -198)"/><path d="M993.44,794.27h2l2.25,6.08,2.24-6.08h2l-3.41,8.66h-1.65Z" transform="translate(-221.34 -198)"/><path d="M1003.12,791h1.81v2.08h-1.81Zm0,3.26h1.81v8.66h-1.81Z" transform="translate(-221.34 -198)"/><path d="M1008.85,802.52a4.34,4.34,0,0,1-1.59-1.62,4.69,4.69,0,0,1-.57-2.32,4.6,4.6,0,0,1,.57-2.31,4.21,4.21,0,0,1,1.59-1.6,4.5,4.5,0,0,1,2.3-.59,4.29,4.29,0,0,1,1.65.31,3.93,3.93,0,0,1,1.33.85,3.44,3.44,0,0,1,.84,1.27l-1.58.74a2.35,2.35,0,0,0-.86-1.08,2.53,2.53,0,0,0-2.7,0,2.61,2.61,0,0,0-.92,1,3.11,3.11,0,0,0-.34,1.46,3.19,3.19,0,0,0,.34,1.47,2.5,2.5,0,0,0,.92,1,2.39,2.39,0,0,0,1.32.37,2.29,2.29,0,0,0,1.37-.41,2.41,2.41,0,0,0,.87-1.09l1.58.75a3.32,3.32,0,0,1-.82,1.24,4.08,4.08,0,0,1-1.34.87,4.13,4.13,0,0,1-1.66.32A4.41,4.41,0,0,1,1008.85,802.52Z" transform="translate(-221.34 -198)"/><path d="M1018.51,802.52a4.29,4.29,0,0,1-1.56-1.63,5,5,0,0,1,0-4.62,4.17,4.17,0,0,1,3.71-2.19,4,4,0,0,1,2.23.59,3.84,3.84,0,0,1,1.41,1.53,4.45,4.45,0,0,1,.49,2.07c0,.14,0,.29,0,.44s0,.28-.07.41h-6.43a2.47,2.47,0,0,0,2.54,2.4,2.39,2.39,0,0,0,1.34-.36,2.67,2.67,0,0,0,.87-.9l1.47.72a3.26,3.26,0,0,1-1.38,1.53,4.67,4.67,0,0,1-4.6,0Zm.61-6.37a2.4,2.4,0,0,0-.82,1.53h4.56a2.07,2.07,0,0,0-.67-1.5,2.17,2.17,0,0,0-1.54-.58A2.28,2.28,0,0,0,1019.12,796.15Z" transform="translate(-221.34 -198)"/><path d="M1027.41,802.47a3.56,3.56,0,0,1-1.4-1.76l1.4-.66a2.92,2.92,0,0,0,1,1.17,2.32,2.32,0,0,0,1.37.43,1.75,1.75,0,0,0,1-.29.9.9,0,0,0,.4-.78.77.77,0,0,0-.37-.7,2.72,2.72,0,0,0-.78-.34l-1.36-.39a3.3,3.3,0,0,1-1.67-1,2.22,2.22,0,0,1-.55-1.52,2.32,2.32,0,0,1,.4-1.36,2.67,2.67,0,0,1,1.1-.9,3.69,3.69,0,0,1,1.58-.33,3.91,3.91,0,0,1,2.12.59,3.23,3.23,0,0,1,1.31,1.62l-1.39.66a2.28,2.28,0,0,0-.81-1,2.22,2.22,0,0,0-1.24-.36,1.53,1.53,0,0,0-1,.27.89.89,0,0,0-.35.73.76.76,0,0,0,.35.68,3.49,3.49,0,0,0,.76.35l1.4.41a3.34,3.34,0,0,1,1.65,1,2.2,2.2,0,0,1,.58,1.54,2.38,2.38,0,0,1-.4,1.35,2.63,2.63,0,0,1-1.13.91,4.08,4.08,0,0,1-1.69.33A4.23,4.23,0,0,1,1027.41,802.47Z" transform="translate(-221.34 -198)"/><path d="M907.07,817.44a10.64,10.64,0,0,1,2.66-7.23h1.52a12.5,12.5,0,0,0,0,14.48h-1.52A10.73,10.73,0,0,1,907.07,817.44Z" transform="translate(-221.34 -198)"/><path d="M916.11,810.21h2.34l4.19,11.92h-2l-.91-2.67h-4.85l-.92,2.67h-2Zm3,7.57-1.86-5.47-1.87,5.47Z" transform="translate(-221.34 -198)"/><path d="M922.35,810.21h2l2.42,9.38,2.49-9.38h2l2.5,9.34,2.41-9.34h2l-3.27,11.92h-2.13L930.24,813l-2.5,9.14h-2.11Z" transform="translate(-221.34 -198)"/><path d="M941.46,821.9a4.85,4.85,0,0,1-1.62-1.16,4.61,4.61,0,0,1-1-1.7l1.6-.67a3.49,3.49,0,0,0,1.25,1.7,3.31,3.31,0,0,0,1.93.59,2.54,2.54,0,0,0,1.55-.44,1.42,1.42,0,0,0,.58-1.18,1.45,1.45,0,0,0-.38-1,2.64,2.64,0,0,0-1.08-.61l-2.24-.7a4.14,4.14,0,0,1-2-1.27,3.07,3.07,0,0,1-.71-2,3.19,3.19,0,0,1,.5-1.77,3.4,3.4,0,0,1,1.37-1.19,4.38,4.38,0,0,1,2-.43,5,5,0,0,1,2,.37,4.48,4.48,0,0,1,1.51,1,3.89,3.89,0,0,1,.92,1.52l-1.57.68a2.92,2.92,0,0,0-1.08-1.45,3,3,0,0,0-1.73-.51,2.27,2.27,0,0,0-1.44.44,1.49,1.49,0,0,0-.55,1.2,1.61,1.61,0,0,0,.37,1,2.24,2.24,0,0,0,1.12.67l2.08.66c1.91.59,2.87,1.68,2.87,3.24a3.12,3.12,0,0,1-.52,1.77,3.41,3.41,0,0,1-1.43,1.21,4.9,4.9,0,0,1-2.12.43A5.13,5.13,0,0,1,941.46,821.9Z" transform="translate(-221.34 -198)"/><path d="M950,823.6a1.48,1.48,0,0,0,1.16-1.47h-.85v-2.08h1.85v1.36c0,1.74-.72,2.76-2.16,3.07Z" transform="translate(-221.34 -198)"/><path d="M960.91,810.21h2.34l4.19,11.92h-2l-.91-2.67h-4.85l-.93,2.67h-2Zm3,7.57-1.86-5.47-1.87,5.47Z" transform="translate(-221.34 -198)"/><path d="M967.89,820.64l4.57-5.53h-4.33v-1.64h6.73V815l-4.49,5.53h4.51v1.65h-7Z" transform="translate(-221.34 -198)"/><path d="M977.58,821.88a3,3,0,0,1-1.14-1.23,4,4,0,0,1-.41-1.83v-5.35h1.81v5.19a2,2,0,0,0,.54,1.44,2,2,0,0,0,2.75,0,2,2,0,0,0,.55-1.5v-5.11h1.79v8.66h-1.71v-1.07a2.45,2.45,0,0,1-1,.93,3.14,3.14,0,0,1-1.46.33A3.2,3.2,0,0,1,977.58,821.88Z" transform="translate(-221.34 -198)"/><path d="M985.58,813.47h1.73v1.11a2,2,0,0,1,.93-.93,3.1,3.1,0,0,1,1.37-.29h.53V815h-.75a2,2,0,0,0-1.45.55,2.14,2.14,0,0,0-.55,1.58v5h-1.81Z" transform="translate(-221.34 -198)"/><path d="M993.15,821.72a4.29,4.29,0,0,1-1.56-1.63,5,5,0,0,1,0-4.62,4.2,4.2,0,0,1,1.53-1.6,4.43,4.43,0,0,1,4.42,0,3.88,3.88,0,0,1,1.4,1.53,4.45,4.45,0,0,1,.49,2.07c0,.14,0,.29,0,.44a1.76,1.76,0,0,1-.07.41h-6.43a2.47,2.47,0,0,0,2.55,2.4,2.38,2.38,0,0,0,1.33-.36,2.67,2.67,0,0,0,.87-.9l1.47.72a3.26,3.26,0,0,1-1.38,1.53,4.67,4.67,0,0,1-4.6,0Zm.61-6.37a2.4,2.4,0,0,0-.82,1.53h4.56a2.07,2.07,0,0,0-.67-1.5,2.17,2.17,0,0,0-1.54-.58A2.3,2.3,0,0,0,993.76,815.35Z" transform="translate(-221.34 -198)"/><path d="M1001.65,823.6a1.48,1.48,0,0,0,1.16-1.47H1002v-2.08h1.84v1.36c0,1.74-.72,2.76-2.16,3.07Z" transform="translate(-221.34 -198)"/><path d="M1011,821.72a4.14,4.14,0,0,1-1.56-1.63,4.71,4.71,0,0,1-.57-2.31,4.6,4.6,0,0,1,.56-2.31,4.17,4.17,0,0,1,3.71-2.19,4.07,4.07,0,0,1,2.23.59,3.91,3.91,0,0,1,1.41,1.53,4.45,4.45,0,0,1,.49,2.07c0,.14,0,.29,0,.44a2.52,2.52,0,0,1-.06.41h-6.43a2.47,2.47,0,0,0,2.54,2.4,2.42,2.42,0,0,0,1.34-.36,2.87,2.87,0,0,0,.87-.9l1.47.72a3.37,3.37,0,0,1-1.38,1.53,4.67,4.67,0,0,1-4.6,0Zm.6-6.37a2.39,2.39,0,0,0-.81,1.53h4.56a2.1,2.1,0,0,0-.67-1.5,2.17,2.17,0,0,0-1.54-.58A2.31,2.31,0,0,0,1011.61,815.35Z" transform="translate(-221.34 -198)"/><path d="M1020.67,821.46a3,3,0,0,1-.75-2.16v-4.19h-1.52v-1.64h.24a1.22,1.22,0,0,0,.94-.35,1.3,1.3,0,0,0,.34-1v-.67h1.81v2h2v1.64h-2v4.11a1.5,1.5,0,0,0,.32,1,1.43,1.43,0,0,0,1.12.38,4.15,4.15,0,0,0,.59,0v1.55l-.48.06a3,3,0,0,1-.5,0A2.83,2.83,0,0,1,1020.67,821.46Z" transform="translate(-221.34 -198)"/><path d="M1027.17,821.72a4.34,4.34,0,0,1-1.59-1.62,4.69,4.69,0,0,1-.57-2.32,4.6,4.6,0,0,1,.57-2.31,4.21,4.21,0,0,1,1.59-1.6,4.5,4.5,0,0,1,2.3-.59,4.29,4.29,0,0,1,1.65.31,3.84,3.84,0,0,1,1.33.85,3.44,3.44,0,0,1,.84,1.27l-1.58.74a2.35,2.35,0,0,0-.86-1.08,2.53,2.53,0,0,0-2.7,0,2.61,2.61,0,0,0-.92,1,3.11,3.11,0,0,0-.34,1.46,3.19,3.19,0,0,0,.34,1.47,2.5,2.5,0,0,0,.92,1,2.39,2.39,0,0,0,1.32.37,2.29,2.29,0,0,0,1.37-.41,2.41,2.41,0,0,0,.87-1.09l1.58.75a3.32,3.32,0,0,1-.82,1.24,4.08,4.08,0,0,1-1.34.87,4.13,4.13,0,0,1-1.66.32A4.41,4.41,0,0,1,1027.17,821.72Z" transform="translate(-221.34 -198)"/><path d="M1035.85,820.05h1.84v2.08h-1.84Z" transform="translate(-221.34 -198)"/><path d="M1042.35,817.44a12.52,12.52,0,0,0-2.31-7.23h1.52a10.57,10.57,0,0,1,2.68,7.23,10.69,10.69,0,0,1-2.68,7.25H1040A12.65,12.65,0,0,0,1042.35,817.44Z" transform="translate(-221.34 -198)"/><path d="M1139.2,280.26h2l2.42,9.38,2.49-9.38h2l2.49,9.35,2.42-9.35h2l-3.26,11.92h-2.13l-2.49-9.13-2.5,9.13h-2.11Z" transform="translate(-221.34 -198)"/><path d="M1156.21,280.26h1.8v2.08h-1.8Zm0,3.27h1.8v8.65h-1.8Z" transform="translate(-221.34 -198)"/><path d="M1160.13,283.53h1.73v1.1a2.12,2.12,0,0,1,.92-.93,3.18,3.18,0,0,1,1.38-.28h.53v1.64h-.76a2,2,0,0,0-1.44.56,2.1,2.1,0,0,0-.56,1.57v5h-1.8Z" transform="translate(-221.34 -198)"/><path d="M1167.7,291.78a4.27,4.27,0,0,1-1.57-1.64,4.76,4.76,0,0,1-.56-2.31,4.65,4.65,0,0,1,.56-2.31,4.1,4.1,0,0,1,3.71-2.18,4.07,4.07,0,0,1,2.23.58,3.94,3.94,0,0,1,1.41,1.54,4.51,4.51,0,0,1,.49,2.07c0,.14,0,.28,0,.43a2.65,2.65,0,0,1-.06.42h-6.43a2.52,2.52,0,0,0,.79,1.75,2.55,2.55,0,0,0,1.75.65,2.36,2.36,0,0,0,1.33-.36,2.73,2.73,0,0,0,.88-.91l1.47.72a3.41,3.41,0,0,1-1.39,1.54,4.66,4.66,0,0,1-4.59,0Zm.6-6.38a2.41,2.41,0,0,0-.81,1.54h4.56a2.12,2.12,0,0,0-2.21-2.08A2.35,2.35,0,0,0,1168.3,285.4Z" transform="translate(-221.34 -198)"/><path d="M1174.85,283.53h1.92l1.93,5.89,2-5.89h1.64l2,5.89,2-5.89h1.92l-3,8.65h-1.63l-2-6.16-2,6.16h-1.65Z" transform="translate(-221.34 -198)"/><path d="M1189.41,280.26h1.8v2.08h-1.8Zm0,3.27h1.8v8.65h-1.8Z" transform="translate(-221.34 -198)"/><path d="M1194.2,291.72a3.42,3.42,0,0,1-1.4-1.76l1.39-.66a2.87,2.87,0,0,0,1,1.17,2.32,2.32,0,0,0,1.37.43,1.77,1.77,0,0,0,1-.28,1,1,0,0,0,.4-.79.77.77,0,0,0-.37-.69,2.93,2.93,0,0,0-.79-.35l-1.35-.38a3.34,3.34,0,0,1-1.68-1,2.24,2.24,0,0,1-.55-1.52,2.3,2.3,0,0,1,.4-1.36,2.74,2.74,0,0,1,1.1-.91,4.12,4.12,0,0,1,3.7.26,3.13,3.13,0,0,1,1.31,1.62l-1.39.66a2.08,2.08,0,0,0-.81-1,2.15,2.15,0,0,0-1.24-.37,1.5,1.5,0,0,0-.94.27.87.87,0,0,0-.35.74.73.73,0,0,0,.35.67,2.86,2.86,0,0,0,.75.35l1.41.42a3.42,3.42,0,0,1,1.65.95,2.26,2.26,0,0,1,.57,1.54,2.32,2.32,0,0,1-.4,1.36,2.58,2.58,0,0,1-1.13.91,4,4,0,0,1-1.68.33A4.13,4.13,0,0,1,1194.2,291.72Z" transform="translate(-221.34 -198)"/><path d="M1203.29,291.78a4.32,4.32,0,0,1-1.56-1.64,4.76,4.76,0,0,1-.56-2.31,4.65,4.65,0,0,1,.56-2.31,4.1,4.1,0,0,1,3.71-2.18,4.07,4.07,0,0,1,2.23.58,3.94,3.94,0,0,1,1.41,1.54,4.51,4.51,0,0,1,.49,2.07c0,.14,0,.28,0,.43a2.65,2.65,0,0,1-.06.42h-6.44a2.47,2.47,0,0,0,2.55,2.4,2.36,2.36,0,0,0,1.33-.36,2.73,2.73,0,0,0,.88-.91l1.47.72a3.41,3.41,0,0,1-1.39,1.54,4.32,4.32,0,0,1-2.31.61A4.37,4.37,0,0,1,1203.29,291.78Zm.61-6.38a2.37,2.37,0,0,0-.81,1.54h4.56a2.13,2.13,0,0,0-2.21-2.08A2.35,2.35,0,0,0,1203.9,285.4Z" transform="translate(-221.34 -198)"/><path d="M1137.68,299.46H1140l4.19,11.92h-2l-.91-2.67h-4.85l-.93,2.67h-2Zm3,7.57-1.85-5.47L1137,307Z" transform="translate(-221.34 -198)"/><path d="M1146.89,311a4.29,4.29,0,0,1-1.56-1.63,4.75,4.75,0,0,1-.56-2.3,4.81,4.81,0,0,1,.56-2.31,4.23,4.23,0,0,1,1.56-1.61,4.13,4.13,0,0,1,2.21-.59,3.92,3.92,0,0,1,1.63.32,3.26,3.26,0,0,1,1.21.88v-4.47h1.79v12.11H1152v-1.12a3.06,3.06,0,0,1-1.24,1,4.14,4.14,0,0,1-1.66.34A4.18,4.18,0,0,1,1146.89,311Zm3.76-1.45a2.64,2.64,0,0,0,.94-1,3.22,3.22,0,0,0,0-2.92,2.69,2.69,0,0,0-.94-1,2.73,2.73,0,0,0-2.71,0,2.69,2.69,0,0,0-.94,1,3,3,0,0,0-.35,1.46,3.17,3.17,0,0,0,.34,1.46,2.62,2.62,0,0,0,3.66,1Z" transform="translate(-221.34 -198)"/><path d="M1155.84,302.73h1.73v1.07a2.2,2.2,0,0,1,1-.94,3.06,3.06,0,0,1,1.42-.32,3.19,3.19,0,0,1,1.6.4,1.12,1.12,0,0,0,2.24,0,3.39,3.39,0,0,1,1.57-.36,3.33,3.33,0,0,1,1.64.41,3,3,0,0,1,1.15,1.15,3.28,3.28,0,0,1,.43,1.68v5.6h-1.81v-5.1a2.14,2.14,0,0,0-.51-1.51,1.68,1.68,0,0,0-1.32-.55,1.74,1.74,0,0,0-1.33.55,2.1,2.1,0,0,0-.52,1.51v5.1h-1.79v-5.1a2.1,2.1,0,0,0-.52-1.51,1.87,1.87,0,0,0-2.65,0,2.14,2.14,0,0,0-.51,1.51v5.1h-1.81Z" transform="translate(-221.34 -198)"/><path d="M1170.54,299.46h1.81v2.08h-1.81Zm0,3.27h1.81v8.65h-1.81Z" transform="translate(-221.34 -198)"/><path d="M1174.46,302.73h1.73v1a2.43,2.43,0,0,1,1-.92,3.08,3.08,0,0,1,1.44-.32,3.43,3.43,0,0,1,1.68.41,3.05,3.05,0,0,1,1.16,1.15,3.27,3.27,0,0,1,.42,1.68v5.6h-1.79v-5.1a2.07,2.07,0,0,0-.54-1.51,1.81,1.81,0,0,0-1.38-.55,1.87,1.87,0,0,0-1.38.55,2.07,2.07,0,0,0-.54,1.51v5.1h-1.81Z" transform="translate(-221.34 -198)"/><path d="M1188.9,311.15a4.85,4.85,0,0,1-1.62-1.16,4.57,4.57,0,0,1-1-1.69l1.6-.68a3.44,3.44,0,0,0,1.25,1.7,3.24,3.24,0,0,0,1.93.59,2.5,2.5,0,0,0,1.55-.44,1.53,1.53,0,0,0,.2-2.21,2.54,2.54,0,0,0-1.08-.61l-2.24-.71a4.07,4.07,0,0,1-2-1.27,3,3,0,0,1-.71-2,3.13,3.13,0,0,1,.5-1.76,3.34,3.34,0,0,1,1.37-1.2,4.51,4.51,0,0,1,2-.43,5,5,0,0,1,2,.38,4.55,4.55,0,0,1,1.51,1,4,4,0,0,1,.92,1.52l-1.57.69a2.87,2.87,0,0,0-2.81-2,2.21,2.21,0,0,0-1.44.45,1.49,1.49,0,0,0-.55,1.2,1.6,1.6,0,0,0,.37,1,2.18,2.18,0,0,0,1.12.67l2.08.66q2.86.9,2.86,3.25a3.16,3.16,0,0,1-.51,1.77,3.39,3.39,0,0,1-1.43,1.2,4.9,4.9,0,0,1-2.12.44A5,5,0,0,1,1188.9,311.15Z" transform="translate(-221.34 -198)"/><path d="M1197,299.46h1.81v2.08H1197Zm0,3.27h1.81v8.65H1197Z" transform="translate(-221.34 -198)"/><path d="M1202.54,310.71a3,3,0,0,1-.75-2.16v-4.19h-1.52v-1.63h.24a1.24,1.24,0,0,0,.94-.35,1.33,1.33,0,0,0,.34-1v-.68h1.81v2h2v1.63h-2v4.11a1.5,1.5,0,0,0,.33,1,1.37,1.37,0,0,0,1.11.38,4,4,0,0,0,.59-.05v1.55l-.48.07-.5,0A2.83,2.83,0,0,1,1202.54,310.71Z" transform="translate(-221.34 -198)"/><path d="M1209,311a4.17,4.17,0,0,1-1.56-1.64,5,5,0,0,1,0-4.62,4.13,4.13,0,0,1,3.71-2.18,4.07,4.07,0,0,1,2.23.58,3.87,3.87,0,0,1,1.41,1.54,4.39,4.39,0,0,1,.49,2.07c0,.14,0,.28,0,.43a2.65,2.65,0,0,1-.06.42h-6.43a2.49,2.49,0,0,0,.8,1.75,2.52,2.52,0,0,0,1.74.65,2.42,2.42,0,0,0,1.34-.36,2.8,2.8,0,0,0,.87-.91l1.47.72a3.44,3.44,0,0,1-1.38,1.54,4.38,4.38,0,0,1-2.32.61A4.31,4.31,0,0,1,1209,311Zm.6-6.38a2.41,2.41,0,0,0-.81,1.54h4.56a2.15,2.15,0,0,0-.67-1.51,2.21,2.21,0,0,0-1.54-.57A2.35,2.35,0,0,0,1209.61,304.6Z" transform="translate(-221.34 -198)"/><path d="M734.2,282.74h2l2.41,9.38,2.5-9.38h2l2.49,9.34,2.42-9.34h2l-3.27,11.92h-2.13l-2.49-9.14-2.5,9.14h-2.11Z" transform="translate(-221.34 -198)"/><path d="M751.21,282.74H753v2.08h-1.8Zm0,3.26H753v8.66h-1.8Z" transform="translate(-221.34 -198)"/><path d="M755.13,286h1.72v1.11a2.09,2.09,0,0,1,.93-.93,3.18,3.18,0,0,1,1.38-.29h.53v1.65h-.76a1.93,1.93,0,0,0-1.44.55,2.13,2.13,0,0,0-.56,1.58v5h-1.8Z" transform="translate(-221.34 -198)"/><path d="M762.69,294.25a4.29,4.29,0,0,1-1.56-1.63,4.81,4.81,0,0,1-.56-2.31,4.6,4.6,0,0,1,.56-2.31,4.11,4.11,0,0,1,1.52-1.6,4.18,4.18,0,0,1,2.19-.59,4.07,4.07,0,0,1,2.23.59,3.92,3.92,0,0,1,1.41,1.53A4.57,4.57,0,0,1,769,290c0,.14,0,.29,0,.44a2.7,2.7,0,0,1-.06.41h-6.44a2.47,2.47,0,0,0,2.55,2.4,2.36,2.36,0,0,0,1.33-.36,2.8,2.8,0,0,0,.88-.9l1.47.72a3.34,3.34,0,0,1-1.39,1.53,4.24,4.24,0,0,1-2.31.61A4.37,4.37,0,0,1,762.69,294.25Zm.61-6.37a2.39,2.39,0,0,0-.81,1.53h4.56a2.14,2.14,0,0,0-.67-1.5,2.17,2.17,0,0,0-1.54-.58A2.31,2.31,0,0,0,763.3,287.88Z" transform="translate(-221.34 -198)"/><path d="M769.85,286h1.92l1.93,5.89,2-5.89h1.64l2,5.89,2-5.89h1.92l-3,8.66h-1.63l-2-6.16-2,6.16h-1.65Z" transform="translate(-221.34 -198)"/><path d="M784.41,282.74h1.8v2.08h-1.8Zm0,3.26h1.8v8.66h-1.8Z" transform="translate(-221.34 -198)"/><path d="M789.2,294.2a3.46,3.46,0,0,1-1.4-1.76l1.39-.66a2.94,2.94,0,0,0,1,1.17,2.3,2.3,0,0,0,1.37.43,1.77,1.77,0,0,0,1-.29.92.92,0,0,0,.4-.78.79.79,0,0,0-.37-.7,2.91,2.91,0,0,0-.79-.34l-1.36-.39a3.35,3.35,0,0,1-1.67-1,2.22,2.22,0,0,1-.55-1.52,2.32,2.32,0,0,1,.4-1.36,2.8,2.8,0,0,1,1.1-.9,3.71,3.71,0,0,1,1.59-.33,3.87,3.87,0,0,1,2.11.59,3.09,3.09,0,0,1,1.31,1.62l-1.39.66a2.15,2.15,0,0,0-.81-1,2.23,2.23,0,0,0-1.24-.37,1.5,1.5,0,0,0-.94.28.85.85,0,0,0-.35.73.74.74,0,0,0,.35.68,3.68,3.68,0,0,0,.75.35l1.41.41a3.43,3.43,0,0,1,1.65,1,2.24,2.24,0,0,1,.57,1.54,2.31,2.31,0,0,1-.4,1.35,2.58,2.58,0,0,1-1.13.91,4,4,0,0,1-1.68.33A4.21,4.21,0,0,1,789.2,294.2Z" transform="translate(-221.34 -198)"/><path d="M798.29,294.25a4.29,4.29,0,0,1-1.56-1.63,4.81,4.81,0,0,1-.56-2.31,4.6,4.6,0,0,1,.56-2.31,4.11,4.11,0,0,1,1.52-1.6,4.18,4.18,0,0,1,2.19-.59,4.07,4.07,0,0,1,2.23.59,3.92,3.92,0,0,1,1.41,1.53,4.57,4.57,0,0,1,.49,2.07c0,.14,0,.29,0,.44a2.7,2.7,0,0,1-.06.41h-6.44a2.47,2.47,0,0,0,2.55,2.4,2.36,2.36,0,0,0,1.33-.36,2.8,2.8,0,0,0,.88-.9l1.47.72a3.34,3.34,0,0,1-1.39,1.53,4.24,4.24,0,0,1-2.31.61A4.37,4.37,0,0,1,798.29,294.25Zm.61-6.37a2.34,2.34,0,0,0-.81,1.53h4.56a2.15,2.15,0,0,0-2.21-2.08A2.31,2.31,0,0,0,798.9,287.88Z" transform="translate(-221.34 -198)"/><path d="M738.79,313.49a4,4,0,0,1-1.61-1.53,4.29,4.29,0,0,1-.59-2.23v-7.79h1.89v7.71a2.75,2.75,0,0,0,.34,1.39,2.52,2.52,0,0,0,.95.94,2.72,2.72,0,0,0,1.38.34,2.77,2.77,0,0,0,1.4-.34,2.52,2.52,0,0,0,1-.94,2.86,2.86,0,0,0,.34-1.39v-7.71h1.87v7.79a4.38,4.38,0,0,1-.57,2.23,4.16,4.16,0,0,1-1.61,1.53,5.3,5.3,0,0,1-4.74,0Z" transform="translate(-221.34 -198)"/><path d="M748.77,313.4a3.56,3.56,0,0,1-1.4-1.76l1.4-.66a2.92,2.92,0,0,0,1,1.17,2.34,2.34,0,0,0,1.37.43,1.73,1.73,0,0,0,1-.29.9.9,0,0,0,.4-.78.77.77,0,0,0-.37-.7,2.72,2.72,0,0,0-.78-.34l-1.36-.39a3.3,3.3,0,0,1-1.67-1,2.22,2.22,0,0,1-.55-1.52,2.32,2.32,0,0,1,.4-1.36,2.67,2.67,0,0,1,1.1-.9,3.69,3.69,0,0,1,1.58-.33,3.91,3.91,0,0,1,2.12.59,3.19,3.19,0,0,1,1.31,1.62l-1.39.66a2.15,2.15,0,0,0-.81-1,2.22,2.22,0,0,0-1.24-.36,1.53,1.53,0,0,0-1,.27.88.88,0,0,0-.35.73.76.76,0,0,0,.35.68,4,4,0,0,0,.76.35l1.4.41a3.34,3.34,0,0,1,1.65,1,2.2,2.2,0,0,1,.58,1.54,2.31,2.31,0,0,1-.4,1.35,2.64,2.64,0,0,1-1.13.91,4,4,0,0,1-1.69.33A4.23,4.23,0,0,1,748.77,313.4Z" transform="translate(-221.34 -198)"/><path d="M757.87,313.45a4.29,4.29,0,0,1-1.56-1.63,5,5,0,0,1,0-4.62,4.21,4.21,0,0,1,1.53-1.6,4.43,4.43,0,0,1,4.42,0,3.82,3.82,0,0,1,1.4,1.53,4.45,4.45,0,0,1,.49,2.07c0,.14,0,.29,0,.44a2.7,2.7,0,0,1-.07.41h-6.43a2.47,2.47,0,0,0,2.54,2.4,2.39,2.39,0,0,0,1.34-.36,2.67,2.67,0,0,0,.87-.9l1.47.72a3.26,3.26,0,0,1-1.38,1.53,4.67,4.67,0,0,1-4.6,0Zm.61-6.37a2.4,2.4,0,0,0-.82,1.53h4.56a2.07,2.07,0,0,0-.67-1.5,2.17,2.17,0,0,0-1.54-.58A2.3,2.3,0,0,0,758.48,307.08Z" transform="translate(-221.34 -198)"/><path d="M765.9,305.2h1.73v1.11a2,2,0,0,1,.93-.93,3.1,3.1,0,0,1,1.37-.29h.53v1.65h-.75a2,2,0,0,0-1.45.55,2.14,2.14,0,0,0-.55,1.58v5H765.9Z" transform="translate(-221.34 -198)"/><path d="M776.76,313.63a4.7,4.7,0,0,1-2.62-2.86l1.6-.67a3.57,3.57,0,0,0,1.26,1.7,3.29,3.29,0,0,0,1.93.59,2.51,2.51,0,0,0,1.54-.44,1.41,1.41,0,0,0,.58-1.18,1.42,1.42,0,0,0-.37-1,2.64,2.64,0,0,0-1.08-.61l-2.24-.7a4.17,4.17,0,0,1-2.05-1.27,3.06,3.06,0,0,1-.7-2,3.18,3.18,0,0,1,.49-1.77,3.39,3.39,0,0,1,1.37-1.19,4.41,4.41,0,0,1,2-.43,4.88,4.88,0,0,1,1.95.37,4.62,4.62,0,0,1,1.52,1,4,4,0,0,1,.92,1.52l-1.57.68a3,3,0,0,0-1.09-1.45,3,3,0,0,0-1.73-.51,2.2,2.2,0,0,0-1.43.44,1.46,1.46,0,0,0-.55,1.2,1.55,1.55,0,0,0,.37,1,2.16,2.16,0,0,0,1.12.67l2.08.66c1.91.59,2.86,1.68,2.86,3.24a3.16,3.16,0,0,1-.51,1.77,3.41,3.41,0,0,1-1.43,1.21,4.93,4.93,0,0,1-2.12.43A5.1,5.1,0,0,1,776.76,313.63Z" transform="translate(-221.34 -198)"/><path d="M784.85,301.94h1.8V304h-1.8Zm0,3.26h1.8v8.66h-1.8Z" transform="translate(-221.34 -198)"/><path d="M790.4,313.19a3,3,0,0,1-.75-2.16v-4.19h-1.52V305.2h.24a1.22,1.22,0,0,0,.94-.35,1.34,1.34,0,0,0,.34-1v-.67h1.8v2h2v1.64h-2V311a1.52,1.52,0,0,0,.33,1,1.42,1.42,0,0,0,1.11.38,4.16,4.16,0,0,0,.6-.05v1.55l-.48.06a5,5,0,0,1-.5,0A2.82,2.82,0,0,1,790.4,313.19Z" transform="translate(-221.34 -198)"/><path d="M796.86,313.45a4.29,4.29,0,0,1-1.56-1.63,5,5,0,0,1,0-4.62A4.17,4.17,0,0,1,799,305a4.1,4.1,0,0,1,2.23.59,3.92,3.92,0,0,1,1.41,1.53,4.56,4.56,0,0,1,.48,2.07c0,.14,0,.29,0,.44a1.85,1.85,0,0,1-.07.41h-6.43a2.51,2.51,0,0,0,.8,1.75,2.48,2.48,0,0,0,1.75.65,2.38,2.38,0,0,0,1.33-.36,2.67,2.67,0,0,0,.87-.9l1.48.72a3.34,3.34,0,0,1-1.39,1.53,4.24,4.24,0,0,1-2.31.61A4.35,4.35,0,0,1,796.86,313.45Zm.61-6.37a2.4,2.4,0,0,0-.82,1.53h4.56a2.07,2.07,0,0,0-.67-1.5,2.15,2.15,0,0,0-1.53-.58A2.31,2.31,0,0,0,797.47,307.08Z" transform="translate(-221.34 -198)"/><path d="M221.34,370.27h2l2.41,9.38,2.5-9.38h2l2.49,9.34,2.42-9.34h2l-3.26,11.92h-2.13l-2.49-9.14-2.5,9.14h-2.11Z" transform="translate(-221.34 -198)"/><path d="M238.35,370.27h1.8v2.08h-1.8Zm0,3.26h1.8v8.66h-1.8Z" transform="translate(-221.34 -198)"/><path d="M242.27,373.53H244v1.11a2.09,2.09,0,0,1,.93-.93,3.15,3.15,0,0,1,1.38-.29h.53v1.65h-.76a2,2,0,0,0-1.45.55,2.17,2.17,0,0,0-.55,1.58v5h-1.8Z" transform="translate(-221.34 -198)"/><path d="M249.83,381.78a4.29,4.29,0,0,1-1.56-1.63,5.07,5.07,0,0,1,0-4.63,4.1,4.1,0,0,1,3.71-2.18,4.16,4.16,0,0,1,2.23.58,4,4,0,0,1,1.41,1.54,4.56,4.56,0,0,1,.48,2.07c0,.14,0,.29,0,.43a1.84,1.84,0,0,1-.07.42h-6.43a2.47,2.47,0,0,0,2.55,2.4,2.38,2.38,0,0,0,1.33-.36,2.8,2.8,0,0,0,.88-.9l1.47.72a3.34,3.34,0,0,1-1.39,1.53,4.24,4.24,0,0,1-2.31.61A4.35,4.35,0,0,1,249.83,381.78Zm.61-6.38a2.45,2.45,0,0,0-.82,1.54h4.57a2.11,2.11,0,0,0-.68-1.5,2.15,2.15,0,0,0-1.53-.58A2.35,2.35,0,0,0,250.44,375.4Z" transform="translate(-221.34 -198)"/><path d="M257,373.53h1.92l1.94,5.89,2-5.89h1.65l2,5.89,1.95-5.89h1.92l-3,8.66h-1.63l-2-6.16-2.05,6.16H260Z" transform="translate(-221.34 -198)"/><path d="M271.54,370.27h1.81v2.08h-1.81Zm0,3.26h1.81v8.66h-1.81Z" transform="translate(-221.34 -198)"/><path d="M276.34,381.73a3.44,3.44,0,0,1-1.4-1.77l1.39-.65a2.94,2.94,0,0,0,1,1.17,2.29,2.29,0,0,0,1.36.43,1.73,1.73,0,0,0,1-.29.9.9,0,0,0,.4-.78.78.78,0,0,0-.36-.7,2.91,2.91,0,0,0-.79-.34l-1.36-.39a3.35,3.35,0,0,1-1.67-1,2.22,2.22,0,0,1-.55-1.52,2.32,2.32,0,0,1,.4-1.36,2.67,2.67,0,0,1,1.1-.9,3.71,3.71,0,0,1,1.59-.33,4,4,0,0,1,2.11.58,3.2,3.2,0,0,1,1.31,1.63l-1.39.66a2.15,2.15,0,0,0-.81-1,2.23,2.23,0,0,0-1.24-.37,1.5,1.5,0,0,0-.94.28.86.86,0,0,0-.36.73.72.72,0,0,0,.36.67,3.24,3.24,0,0,0,.75.36l1.41.41a3.35,3.35,0,0,1,1.64,1,2.2,2.2,0,0,1,.58,1.54,2.31,2.31,0,0,1-.4,1.35,2.64,2.64,0,0,1-1.13.91,4,4,0,0,1-1.69.33A4.17,4.17,0,0,1,276.34,381.73Z" transform="translate(-221.34 -198)"/><path d="M285.43,381.78a4.29,4.29,0,0,1-1.56-1.63,4.71,4.71,0,0,1-.57-2.31,4.77,4.77,0,0,1,.56-2.32,4.35,4.35,0,0,1,1.53-1.6,4.27,4.27,0,0,1,2.19-.58,4.18,4.18,0,0,1,2.23.58,4,4,0,0,1,1.41,1.54,4.56,4.56,0,0,1,.48,2.07c0,.14,0,.29,0,.43a1.84,1.84,0,0,1-.07.42h-6.43a2.47,2.47,0,0,0,2.55,2.4,2.38,2.38,0,0,0,1.33-.36,2.67,2.67,0,0,0,.87-.9l1.48.72a3.34,3.34,0,0,1-1.39,1.53,4.24,4.24,0,0,1-2.31.61A4.35,4.35,0,0,1,285.43,381.78Zm.61-6.38a2.45,2.45,0,0,0-.82,1.54h4.56a2.07,2.07,0,0,0-.67-1.5,2.15,2.15,0,0,0-1.53-.58A2.35,2.35,0,0,0,286,375.4Z" transform="translate(-221.34 -198)"/><path d="M298.54,381.82a4.16,4.16,0,0,1-1.61-1.53,4.29,4.29,0,0,1-.59-2.23v-7.79h1.89V378a2.72,2.72,0,0,0,.35,1.38,2.45,2.45,0,0,0,.94.95,3,3,0,0,0,2.78,0,2.48,2.48,0,0,0,.95-.95,2.72,2.72,0,0,0,.34-1.38v-7.71h1.87v7.79a4.38,4.38,0,0,1-.57,2.23,4.09,4.09,0,0,1-1.61,1.53,5.3,5.3,0,0,1-4.74,0Z" transform="translate(-221.34 -198)"/><path d="M308.53,381.73a3.44,3.44,0,0,1-1.4-1.77l1.39-.65a2.94,2.94,0,0,0,1,1.17,2.3,2.3,0,0,0,1.37.43,1.77,1.77,0,0,0,1-.29.92.92,0,0,0,.4-.78.79.79,0,0,0-.37-.7,2.91,2.91,0,0,0-.79-.34l-1.36-.39a3.35,3.35,0,0,1-1.67-1,2.22,2.22,0,0,1-.55-1.52,2.32,2.32,0,0,1,.4-1.36,2.73,2.73,0,0,1,1.1-.9,3.71,3.71,0,0,1,1.59-.33,4,4,0,0,1,2.11.58,3.15,3.15,0,0,1,1.31,1.63l-1.39.66a2.15,2.15,0,0,0-.81-1,2.23,2.23,0,0,0-1.24-.37,1.5,1.5,0,0,0-.94.28.85.85,0,0,0-.35.73.72.72,0,0,0,.35.67,3.24,3.24,0,0,0,.75.36l1.41.41a3.43,3.43,0,0,1,1.65,1,2.24,2.24,0,0,1,.57,1.54,2.31,2.31,0,0,1-.4,1.35,2.64,2.64,0,0,1-1.13.91,4,4,0,0,1-1.68.33A4.18,4.18,0,0,1,308.53,381.73Z" transform="translate(-221.34 -198)"/><path d="M317.62,381.78a4.29,4.29,0,0,1-1.56-1.63,5.07,5.07,0,0,1,0-4.63,4.1,4.1,0,0,1,3.71-2.18,4.16,4.16,0,0,1,2.23.58,4,4,0,0,1,1.41,1.54,4.57,4.57,0,0,1,.49,2.07c0,.14,0,.29,0,.43a2.65,2.65,0,0,1-.06.42h-6.44a2.47,2.47,0,0,0,2.55,2.4,2.36,2.36,0,0,0,1.33-.36,2.8,2.8,0,0,0,.88-.9l1.47.72a3.34,3.34,0,0,1-1.39,1.53,4.24,4.24,0,0,1-2.31.61A4.35,4.35,0,0,1,317.62,381.78Zm.61-6.38a2.39,2.39,0,0,0-.81,1.54H322a2.15,2.15,0,0,0-2.21-2.08A2.35,2.35,0,0,0,318.23,375.4Z" transform="translate(-221.34 -198)"/><path d="M325.66,373.53h1.72v1.11a2.09,2.09,0,0,1,.93-.93,3.18,3.18,0,0,1,1.38-.29h.53v1.65h-.76a1.93,1.93,0,0,0-1.44.55,2.13,2.13,0,0,0-.56,1.58v5h-1.8Z" transform="translate(-221.34 -198)"/><path d="M332.32,381.73a3.49,3.49,0,0,1-1.4-1.77l1.39-.65a3,3,0,0,0,1,1.17,2.32,2.32,0,0,0,1.37.43,1.77,1.77,0,0,0,1-.29.92.92,0,0,0,.4-.78.79.79,0,0,0-.37-.7,3,3,0,0,0-.78-.34l-1.36-.39a3.34,3.34,0,0,1-1.68-1,2.27,2.27,0,0,1-.55-1.52,2.32,2.32,0,0,1,.4-1.36,2.76,2.76,0,0,1,1.11-.9,3.63,3.63,0,0,1,1.58-.33,4,4,0,0,1,2.11.58,3.15,3.15,0,0,1,1.31,1.63l-1.39.66a2.15,2.15,0,0,0-.81-1,2.21,2.21,0,0,0-1.24-.37,1.5,1.5,0,0,0-.94.28.85.85,0,0,0-.35.73.72.72,0,0,0,.35.67,3.24,3.24,0,0,0,.75.36l1.41.41a3.43,3.43,0,0,1,1.65,1,2.24,2.24,0,0,1,.57,1.54,2.31,2.31,0,0,1-.4,1.35,2.61,2.61,0,0,1-1.12.91,4.08,4.08,0,0,1-1.69.33A4.21,4.21,0,0,1,332.32,381.73Z" transform="translate(-221.34 -198)"/><path d="M341.56,373.53h1.92l1.94,5.89,2-5.89h1.65l2,5.89,2-5.89h1.92l-3,8.66h-1.64l-2-6.16-2.05,6.16h-1.64Z" transform="translate(-221.34 -198)"/><path d="M356.12,370.27h1.81v2.08h-1.81Zm0,3.26h1.81v8.66h-1.81Z" transform="translate(-221.34 -198)"/><path d="M361.67,381.52a3,3,0,0,1-.75-2.16v-4.19H359.4v-1.64h.24a1.22,1.22,0,0,0,.94-.35,1.3,1.3,0,0,0,.34-1v-.67h1.81v2h2v1.64h-2v4.11a1.52,1.52,0,0,0,.33,1,1.39,1.39,0,0,0,1.11.38,4,4,0,0,0,.59-.05v1.55l-.48.06a4.77,4.77,0,0,1-.5,0A2.83,2.83,0,0,1,361.67,381.52Z" transform="translate(-221.34 -198)"/><path d="M366.52,370.08h1.81v4.38a2.43,2.43,0,0,1,1-.83,3.18,3.18,0,0,1,1.38-.29,3.38,3.38,0,0,1,1.68.42,3.1,3.1,0,0,1,1.16,1.14,3.34,3.34,0,0,1,.42,1.69v5.6h-1.79v-5.11a2.07,2.07,0,0,0-.54-1.51,2,2,0,0,0-2.76,0,2.07,2.07,0,0,0-.54,1.51v5.11h-1.81Z" transform="translate(-221.34 -198)"/><path d="M235.17,389.47H243v1.68h-6v3.42h5.65v1.68h-5.65v3.46h6v1.68h-7.85Z" transform="translate(-221.34 -198)"/><path d="M244.61,392.73h1.73v1.06a2.36,2.36,0,0,1,1-.93,3.24,3.24,0,0,1,1.44-.32,3.33,3.33,0,0,1,1.68.42,3,3,0,0,1,1.16,1.14,3.24,3.24,0,0,1,.43,1.69v5.6h-1.79v-5.1a2.09,2.09,0,0,0-.54-1.52,2,2,0,0,0-2.76,0,2.09,2.09,0,0,0-.54,1.52v5.1h-1.81Z" transform="translate(-221.34 -198)"/><path d="M254.45,400.9a2.2,2.2,0,0,1-.82-1.8,2.47,2.47,0,0,1,.71-1.77,4,4,0,0,1,2.22-1l2.75-.45v-.34a1.29,1.29,0,0,0-.47-1,1.85,1.85,0,0,0-1.26-.41,2.12,2.12,0,0,0-1.25.37,2.15,2.15,0,0,0-.79,1L254,394.7a3,3,0,0,1,.79-1.12,4.13,4.13,0,0,1,1.27-.76,4.17,4.17,0,0,1,1.54-.28,4,4,0,0,1,1.81.39,3,3,0,0,1,1.23,1.06,2.78,2.78,0,0,1,.45,1.57v5.83h-1.73v-1a3.15,3.15,0,0,1-1.2.89,4,4,0,0,1-1.61.31A3.22,3.22,0,0,1,254.45,400.9Zm1.45-1a1.49,1.49,0,0,0,1,.31,2.61,2.61,0,0,0,1.28-.31A2.29,2.29,0,0,0,259,399a2.33,2.33,0,0,0,.31-1.2v-.46l-2.4.41a1.9,1.9,0,0,0-1.05.45,1.13,1.13,0,0,0-.34.85A1,1,0,0,0,255.9,399.85Z" transform="translate(-221.34 -198)"/><path d="M266.2,401.25a3.22,3.22,0,0,1-1.24-1v1.1h-1.73V389.28H265v4.45a3.23,3.23,0,0,1,1.2-.88,4.18,4.18,0,0,1,1.62-.31,4.2,4.2,0,0,1,3.76,2.21,4.95,4.95,0,0,1,0,4.61,4.28,4.28,0,0,1-1.54,1.62,4.38,4.38,0,0,1-3.88.27Zm2.84-1.72a2.55,2.55,0,0,0,.94-1,3.09,3.09,0,0,0,.34-1.47,3,3,0,0,0-.34-1.45,2.55,2.55,0,0,0-.94-1,2.67,2.67,0,0,0-2.71,0,2.57,2.57,0,0,0-.95,1,3.1,3.1,0,0,0-.34,1.45,3.22,3.22,0,0,0,.34,1.47,2.57,2.57,0,0,0,.95,1,2.67,2.67,0,0,0,2.71,0Z" transform="translate(-221.34 -198)"/><path d="M274,389.28h1.81v12.11H274Z" transform="translate(-221.34 -198)"/><path d="M279.65,401a4.29,4.29,0,0,1-1.56-1.63,5,5,0,0,1,0-4.62,4.16,4.16,0,0,1,1.53-1.61,4.2,4.2,0,0,1,2.18-.58,4.13,4.13,0,0,1,2.23.58,3.86,3.86,0,0,1,1.41,1.54,4.45,4.45,0,0,1,.49,2.07,3.31,3.31,0,0,1,0,.44,2.7,2.7,0,0,1-.06.41h-6.43A2.47,2.47,0,0,0,282,400a2.39,2.39,0,0,0,1.34-.36,2.67,2.67,0,0,0,.87-.9l1.47.72a3.32,3.32,0,0,1-1.38,1.53,4.67,4.67,0,0,1-4.6,0Zm.61-6.38a2.45,2.45,0,0,0-.82,1.54H284a2.1,2.1,0,0,0-.67-1.5,2.17,2.17,0,0,0-1.54-.58A2.33,2.33,0,0,0,280.26,394.6Z" transform="translate(-221.34 -198)"/><path d="M289.45,401a4.23,4.23,0,0,1-1.55-1.62,4.95,4.95,0,0,1,0-4.61,4.2,4.2,0,0,1,3.76-2.21,4.09,4.09,0,0,1,1.63.32,3.38,3.38,0,0,1,1.21.88v-4.46h1.79v12.11h-1.71v-1.12a3.15,3.15,0,0,1-1.24,1,4.13,4.13,0,0,1-1.66.33A4.18,4.18,0,0,1,289.45,401Zm3.76-1.45a2.55,2.55,0,0,0,.94-1,3.1,3.1,0,0,0,.35-1.47,3,3,0,0,0-.35-1.45,2.55,2.55,0,0,0-.94-1,2.67,2.67,0,0,0-2.71,0,2.55,2.55,0,0,0-.94,1,3,3,0,0,0-.34,1.45,3.21,3.21,0,0,0,.33,1.47,2.55,2.55,0,0,0,.94,1,2.68,2.68,0,0,0,2.72,0Z" transform="translate(-221.34 -198)"/><path d="M301.38,389.47h3.9a6.69,6.69,0,0,1,3.22.74,5.27,5.27,0,0,1,2.12,2.09,6.76,6.76,0,0,1,0,6.23,5.25,5.25,0,0,1-2.12,2.11,6.58,6.58,0,0,1-3.22.75h-3.9Zm3.93,10.24a4.42,4.42,0,0,0,2.2-.53,3.59,3.59,0,0,0,1.45-1.49,5.31,5.31,0,0,0,0-4.54,3.57,3.57,0,0,0-1.45-1.48,4.42,4.42,0,0,0-2.2-.52h-2.05v8.56Z" transform="translate(-221.34 -198)"/><path d="M314.83,401a4.29,4.29,0,0,1-1.56-1.63,5,5,0,0,1,0-4.62,4.31,4.31,0,0,1,1.53-1.61,4.24,4.24,0,0,1,2.19-.58,4.18,4.18,0,0,1,2.23.58,4,4,0,0,1,1.41,1.54,4.56,4.56,0,0,1,.48,2.07c0,.14,0,.29,0,.44a1.85,1.85,0,0,1-.07.41h-6.43a2.47,2.47,0,0,0,2.55,2.4,2.38,2.38,0,0,0,1.33-.36,2.67,2.67,0,0,0,.87-.9l1.48.72a3.34,3.34,0,0,1-1.39,1.53,4.26,4.26,0,0,1-2.31.61A4.35,4.35,0,0,1,314.83,401Zm.61-6.38a2.45,2.45,0,0,0-.82,1.54h4.56a2.07,2.07,0,0,0-.67-1.5,2.15,2.15,0,0,0-1.53-.58A2.35,2.35,0,0,0,315.44,394.6Z" transform="translate(-221.34 -198)"/><path d="M321.82,392.73h2l2.26,6.08,2.24-6.08h2l-3.41,8.66h-1.64Z" transform="translate(-221.34 -198)"/><path d="M331.5,389.47h1.81v2.08H331.5Zm0,3.26h1.81v8.66H331.5Z" transform="translate(-221.34 -198)"/><path d="M337.23,401a4.31,4.31,0,0,1-1.58-1.62,4.62,4.62,0,0,1-.58-2.32,4.5,4.5,0,0,1,.58-2.31,4.21,4.21,0,0,1,1.58-1.61,4.61,4.61,0,0,1,2.31-.58,4.27,4.27,0,0,1,1.64.31,3.88,3.88,0,0,1,1.34.85,3.44,3.44,0,0,1,.84,1.27l-1.58.74a2.38,2.38,0,0,0-2.24-1.49,2.34,2.34,0,0,0-1.32.37,2.54,2.54,0,0,0-.92,1,3,3,0,0,0-.34,1.46,3.09,3.09,0,0,0,.34,1.47,2.5,2.5,0,0,0,.92,1,2.34,2.34,0,0,0,1.32.37,2.26,2.26,0,0,0,1.36-.41,2.5,2.5,0,0,0,.88-1.09l1.58.75a3.44,3.44,0,0,1-.82,1.24,4.19,4.19,0,0,1-1.34.87,4.34,4.34,0,0,1-1.66.32A4.42,4.42,0,0,1,337.23,401Z" transform="translate(-221.34 -198)"/><path d="M346.9,401a4.14,4.14,0,0,1-1.56-1.63,4.71,4.71,0,0,1-.57-2.31,4.6,4.6,0,0,1,.56-2.31,4.16,4.16,0,0,1,1.53-1.61,4.2,4.2,0,0,1,2.18-.58,4.16,4.16,0,0,1,2.23.58,4,4,0,0,1,1.41,1.54,4.57,4.57,0,0,1,.49,2.07c0,.14,0,.29,0,.44a2.7,2.7,0,0,1-.06.41h-6.43a2.47,2.47,0,0,0,2.54,2.4,2.42,2.42,0,0,0,1.34-.36,2.87,2.87,0,0,0,.87-.9l1.47.72A3.37,3.37,0,0,1,351.5,401a4.67,4.67,0,0,1-4.6,0Zm.6-6.38a2.44,2.44,0,0,0-.81,1.54h4.56a2.1,2.1,0,0,0-.67-1.5,2.17,2.17,0,0,0-1.54-.58A2.35,2.35,0,0,0,347.5,394.6Z" transform="translate(-221.34 -198)"/><path d="M355.8,400.93a3.51,3.51,0,0,1-1.4-1.76l1.39-.66a3,3,0,0,0,1,1.17,2.32,2.32,0,0,0,1.37.43,1.77,1.77,0,0,0,1-.29.92.92,0,0,0,.4-.78.79.79,0,0,0-.37-.7,3,3,0,0,0-.78-.34l-1.36-.39a3.34,3.34,0,0,1-1.68-1,2.27,2.27,0,0,1-.55-1.52,2.32,2.32,0,0,1,.4-1.36,2.8,2.8,0,0,1,1.1-.9,3.71,3.71,0,0,1,1.59-.33,4,4,0,0,1,2.11.58,3.15,3.15,0,0,1,1.31,1.63l-1.39.66a2.15,2.15,0,0,0-.81-1,2.23,2.23,0,0,0-1.24-.37,1.5,1.5,0,0,0-.94.28.85.85,0,0,0-.35.73.74.74,0,0,0,.35.68,3.68,3.68,0,0,0,.75.35l1.41.41a3.43,3.43,0,0,1,1.65,1,2.24,2.24,0,0,1,.57,1.54,2.31,2.31,0,0,1-.4,1.35,2.58,2.58,0,0,1-1.13.91,4,4,0,0,1-1.68.33A4.21,4.21,0,0,1,355.8,400.93Z" transform="translate(-221.34 -198)"/><path d="M1459.2,363.24h2l2.42,9.37,2.49-9.37h2l2.49,9.34,2.42-9.34h2l-3.26,11.92h-2.13l-2.49-9.14-2.5,9.14h-2.11Z" transform="translate(-221.34 -198)"/><path d="M1476.21,363.24h1.8v2.08h-1.8Zm0,3.26h1.8v8.66h-1.8Z" transform="translate(-221.34 -198)"/><path d="M1480.13,366.5h1.73v1.11a2,2,0,0,1,.92-.93,3.18,3.18,0,0,1,1.38-.29h.53V368h-.76a1.94,1.94,0,0,0-1.44.55,2.13,2.13,0,0,0-.56,1.58v5h-1.8Z" transform="translate(-221.34 -198)"/><path d="M1487.7,374.75a4.24,4.24,0,0,1-1.57-1.63,4.81,4.81,0,0,1-.56-2.31,4.66,4.66,0,0,1,.56-2.32,4.25,4.25,0,0,1,1.52-1.6,4.17,4.17,0,0,1,2.19-.58,4.07,4.07,0,0,1,2.23.58,4,4,0,0,1,1.41,1.54,4.54,4.54,0,0,1,.49,2.07c0,.14,0,.28,0,.43a2.65,2.65,0,0,1-.06.42h-6.43a2.5,2.5,0,0,0,.79,1.75,2.55,2.55,0,0,0,1.75.65,2.36,2.36,0,0,0,1.33-.36,2.8,2.8,0,0,0,.88-.9l1.47.72a3.39,3.39,0,0,1-1.39,1.53,4.24,4.24,0,0,1-2.31.61A4.31,4.31,0,0,1,1487.7,374.75Zm.6-6.38a2.44,2.44,0,0,0-.81,1.54h4.56a2.14,2.14,0,0,0-.67-1.5,2.17,2.17,0,0,0-1.54-.58A2.35,2.35,0,0,0,1488.3,368.37Z" transform="translate(-221.34 -198)"/><path d="M1494.85,366.5h1.92l1.93,5.89,2-5.89h1.64l2,5.89,2-5.89h1.92l-3,8.66h-1.63l-2-6.16-2,6.16h-1.65Z" transform="translate(-221.34 -198)"/><path d="M1509.41,363.24h1.8v2.08h-1.8Zm0,3.26h1.8v8.66h-1.8Z" transform="translate(-221.34 -198)"/><path d="M1514.2,374.69a3.38,3.38,0,0,1-1.4-1.76l1.39-.65a2.94,2.94,0,0,0,1,1.17,2.39,2.39,0,0,0,1.37.43,1.77,1.77,0,0,0,1-.29.92.92,0,0,0,.4-.78.78.78,0,0,0-.37-.7,2.91,2.91,0,0,0-.79-.34l-1.35-.39a3.34,3.34,0,0,1-1.68-1,2.22,2.22,0,0,1-.55-1.52,2.32,2.32,0,0,1,.4-1.36,2.8,2.8,0,0,1,1.1-.9,3.71,3.71,0,0,1,1.59-.33,3.87,3.87,0,0,1,2.11.58,3.11,3.11,0,0,1,1.31,1.63l-1.39.65a2.18,2.18,0,0,0-.81-1,2.23,2.23,0,0,0-1.24-.37,1.44,1.44,0,0,0-.94.28.85.85,0,0,0-.35.73.73.73,0,0,0,.35.67,3.24,3.24,0,0,0,.75.36l1.41.41a3.42,3.42,0,0,1,1.65.95,2.28,2.28,0,0,1,.57,1.55,2.31,2.31,0,0,1-.4,1.35,2.58,2.58,0,0,1-1.13.91,4,4,0,0,1-1.68.33A4.13,4.13,0,0,1,1514.2,374.69Z" transform="translate(-221.34 -198)"/><path d="M1523.29,374.75a4.29,4.29,0,0,1-1.56-1.63,4.81,4.81,0,0,1-.56-2.31,4.66,4.66,0,0,1,.56-2.32,4.25,4.25,0,0,1,1.52-1.6,4.17,4.17,0,0,1,2.19-.58,4.07,4.07,0,0,1,2.23.58,4,4,0,0,1,1.41,1.54,4.54,4.54,0,0,1,.49,2.07c0,.14,0,.28,0,.43a2.65,2.65,0,0,1-.06.42h-6.44a2.47,2.47,0,0,0,2.55,2.4,2.36,2.36,0,0,0,1.33-.36,2.8,2.8,0,0,0,.88-.9l1.47.72a3.39,3.39,0,0,1-1.39,1.53,4.24,4.24,0,0,1-2.31.61A4.37,4.37,0,0,1,1523.29,374.75Zm.61-6.38a2.39,2.39,0,0,0-.81,1.54h4.56a2.15,2.15,0,0,0-2.21-2.08A2.35,2.35,0,0,0,1523.9,368.37Z" transform="translate(-221.34 -198)"/><path d="M1470.18,382.44h2.34l4.19,11.92h-2l-.91-2.67h-4.85l-.92,2.67h-2Zm3,7.57-1.86-5.48-1.87,5.48Z" transform="translate(-221.34 -198)"/><path d="M1479.39,394a4.31,4.31,0,0,1-1.55-1.62,4.95,4.95,0,0,1,0-4.61,4.2,4.2,0,0,1,3.77-2.21,4,4,0,0,1,1.62.32,3.29,3.29,0,0,1,1.21.88v-4.46h1.79v12.11h-1.71v-1.12a3.06,3.06,0,0,1-1.24,1,4,4,0,0,1-1.66.34A4.21,4.21,0,0,1,1479.39,394Zm3.76-1.45a2.48,2.48,0,0,0,.94-1,3.1,3.1,0,0,0,.35-1.47,3,3,0,0,0-.35-1.45,2.61,2.61,0,0,0-3.64-1,2.57,2.57,0,0,0-1,1,3,3,0,0,0-.34,1.45,3.21,3.21,0,0,0,.33,1.47,2.54,2.54,0,0,0,2.31,1.38A2.49,2.49,0,0,0,1483.15,392.5Z" transform="translate(-221.34 -198)"/><path d="M1488.34,385.7h1.73v1.07a2.3,2.3,0,0,1,1-.94,3.38,3.38,0,0,1,3,.08,2.83,2.83,0,0,1,1.1,1.07,2.8,2.8,0,0,1,1.14-1.1,3.46,3.46,0,0,1,3.21.05,3.07,3.07,0,0,1,1.15,1.14,3.34,3.34,0,0,1,.42,1.69v5.6h-1.81v-5.11a2.18,2.18,0,0,0-.5-1.51,1.71,1.71,0,0,0-1.32-.55,1.75,1.75,0,0,0-1.34.55,2.14,2.14,0,0,0-.52,1.51v5.11h-1.79v-5.11a2.14,2.14,0,0,0-.51-1.51,1.88,1.88,0,0,0-2.66,0,2.14,2.14,0,0,0-.51,1.51v5.11h-1.81Z" transform="translate(-221.34 -198)"/><path d="M1503.05,382.44h1.8v2.08h-1.8Zm0,3.26h1.8v8.66h-1.8Z" transform="translate(-221.34 -198)"/><path d="M1507,385.7h1.73v1.06a2.36,2.36,0,0,1,1-.93,3.24,3.24,0,0,1,1.44-.32,3.33,3.33,0,0,1,1.68.42,3,3,0,0,1,1.16,1.14,3.24,3.24,0,0,1,.43,1.69v5.6h-1.79v-5.11a2.07,2.07,0,0,0-.54-1.51,2,2,0,0,0-2.76,0,2.07,2.07,0,0,0-.55,1.51v5.11H1507Z" transform="translate(-221.34 -198)"/><path d="M1517.21,393.89a3.48,3.48,0,0,1-1.4-1.76l1.4-.65a2.92,2.92,0,0,0,1,1.17,2.39,2.39,0,0,0,1.37.43,1.73,1.73,0,0,0,1-.29.9.9,0,0,0,.4-.78.77.77,0,0,0-.36-.7,2.91,2.91,0,0,0-.79-.34l-1.36-.39a3.3,3.3,0,0,1-1.67-1,2.22,2.22,0,0,1-.55-1.52,2.32,2.32,0,0,1,.4-1.36,2.67,2.67,0,0,1,1.1-.9,3.69,3.69,0,0,1,1.58-.33,3.9,3.9,0,0,1,2.12.58,3.21,3.21,0,0,1,1.31,1.63l-1.39.65a2.18,2.18,0,0,0-.81-1,2.23,2.23,0,0,0-1.24-.37,1.42,1.42,0,0,0-.94.28.86.86,0,0,0-.36.73.74.74,0,0,0,.36.67,3.24,3.24,0,0,0,.75.36l1.41.41a3.34,3.34,0,0,1,1.64,1,2.25,2.25,0,0,1,.58,1.55,2.38,2.38,0,0,1-.4,1.35,2.64,2.64,0,0,1-1.13.91,4,4,0,0,1-1.69.33A4.16,4.16,0,0,1,1517.21,393.89Z" transform="translate(-221.34 -198)"/><path d="M1030.53,583.34h1.88v5.25h5.52v-5.25h1.87v11.92h-1.87v-5h-5.52v5h-1.88Z" transform="translate(-221.34 -198)"/><path d="M1044,594.86a4.37,4.37,0,0,1-1.64-1.61,4.44,4.44,0,0,1-.61-2.32,4.49,4.49,0,0,1,.6-2.33A4.39,4.39,0,0,1,1044,587a4.6,4.6,0,0,1,2.3-.59,4.54,4.54,0,0,1,2.29.59,4.36,4.36,0,0,1,1.62,1.6,4.49,4.49,0,0,1,.6,2.33,4.44,4.44,0,0,1-2.24,3.94,4.72,4.72,0,0,1-4.55,0Zm3.63-1.45a2.57,2.57,0,0,0,.94-1,3.22,3.22,0,0,0,0-2.92,2.54,2.54,0,0,0-.94-1,2.65,2.65,0,0,0-2.7,0,2.64,2.64,0,0,0-1,1,3.3,3.3,0,0,0,0,2.92,2.67,2.67,0,0,0,1,1,2.71,2.71,0,0,0,2.7,0Z" transform="translate(-221.34 -198)"/><path d="M1053.41,594.8A3.56,3.56,0,0,1,1052,593l1.4-.66a2.92,2.92,0,0,0,1,1.17,2.32,2.32,0,0,0,1.37.43,1.75,1.75,0,0,0,1-.29.9.9,0,0,0,.4-.78.77.77,0,0,0-.37-.7,2.72,2.72,0,0,0-.78-.34l-1.36-.38a3.45,3.45,0,0,1-1.67-1,2.26,2.26,0,0,1-.55-1.52,2.33,2.33,0,0,1,.4-1.37,2.67,2.67,0,0,1,1.1-.9,3.69,3.69,0,0,1,1.58-.33,3.91,3.91,0,0,1,2.12.59,3.23,3.23,0,0,1,1.31,1.62l-1.39.66a2.2,2.2,0,0,0-.81-1,2.15,2.15,0,0,0-1.24-.37,1.53,1.53,0,0,0-1,.27.9.9,0,0,0-.35.74.76.76,0,0,0,.35.67,3.49,3.49,0,0,0,.76.35l1.4.42a3.26,3.26,0,0,1,1.65,1,2.2,2.2,0,0,1,.58,1.54,2.38,2.38,0,0,1-.4,1.35,2.63,2.63,0,0,1-1.13.91,4.08,4.08,0,0,1-1.69.33A4.23,4.23,0,0,1,1053.41,594.8Z" transform="translate(-221.34 -198)"/><path d="M1062.37,594.59a2.92,2.92,0,0,1-.76-2.16v-4.19h-1.52v-1.63h.24a1.24,1.24,0,0,0,1-.36,1.33,1.33,0,0,0,.33-1v-.67h1.81v2h2v1.63h-2v4.11a1.5,1.5,0,0,0,.33,1,1.42,1.42,0,0,0,1.11.38,4,4,0,0,0,.59,0v1.55l-.48.07-.49,0A2.82,2.82,0,0,1,1062.37,594.59Z" transform="translate(-221.34 -198)"/><path d="M1070.19,583.34H1072l4,5.6,4-5.6h1.76v11.92h-1.87v-8.54l-3.8,5.18h-.19l-3.77-5.28v8.64h-1.89Z" transform="translate(-221.34 -198)"/><path d="M1084.46,594.77a2.23,2.23,0,0,1-.82-1.8,2.4,2.4,0,0,1,.72-1.76,3.89,3.89,0,0,1,2.21-1l2.75-.45v-.33a1.3,1.3,0,0,0-.47-1.05,1.84,1.84,0,0,0-1.25-.41,2.15,2.15,0,0,0-1.26.37,2.12,2.12,0,0,0-.79,1l-1.51-.76a3,3,0,0,1,.8-1.12,4.08,4.08,0,0,1,1.26-.76,4.42,4.42,0,0,1,1.54-.28,4,4,0,0,1,1.81.39,3,3,0,0,1,1.24,1.06,2.86,2.86,0,0,1,.44,1.58v5.82h-1.73v-1a3.11,3.11,0,0,1-1.19.89,4,4,0,0,1-1.62.31A3.17,3.17,0,0,1,1084.46,594.77Zm1.45-1a1.45,1.45,0,0,0,1,.31,2.53,2.53,0,0,0,1.28-.31,2.35,2.35,0,0,0,1.16-2.06v-.46l-2.4.41a1.93,1.93,0,0,0-1.05.45,1.15,1.15,0,0,0-.34.85A1,1,0,0,0,1085.91,593.72Z" transform="translate(-221.34 -198)"/><path d="M1095.05,594.85a4.31,4.31,0,0,1-1.58-1.62,4.59,4.59,0,0,1-.58-2.32,4.53,4.53,0,0,1,.58-2.31,4.19,4.19,0,0,1,1.58-1.6,4.51,4.51,0,0,1,2.31-.59,4.27,4.27,0,0,1,1.64.31,4,4,0,0,1,1.34.85,3.48,3.48,0,0,1,.84,1.28l-1.58.73a2.31,2.31,0,0,0-.87-1.08,2.36,2.36,0,0,0-1.37-.41,2.47,2.47,0,0,0-1.32.37,2.61,2.61,0,0,0-.92,1,3,3,0,0,0-.34,1.47,3.05,3.05,0,0,0,.34,1.46,2.59,2.59,0,0,0,.92,1,2.47,2.47,0,0,0,1.32.36,2.32,2.32,0,0,0,1.36-.4,2.58,2.58,0,0,0,.88-1.1l1.58.75a3.44,3.44,0,0,1-.82,1.24,4.29,4.29,0,0,1-3,1.19A4.42,4.42,0,0,1,1095.05,594.85Z" transform="translate(-221.34 -198)"/><path d="M1102.94,583.15h1.81v4.38a2.43,2.43,0,0,1,1-.83,3.21,3.21,0,0,1,1.38-.29,3.33,3.33,0,0,1,1.68.42A3.17,3.17,0,0,1,1110,588a3.34,3.34,0,0,1,.42,1.69v5.6h-1.79v-5.1a2.09,2.09,0,0,0-.54-1.52,2,2,0,0,0-2.76,0,2.09,2.09,0,0,0-.54,1.52v5.1h-1.81Z" transform="translate(-221.34 -198)"/><path d="M1112.32,583.34h1.8v2.08h-1.8Zm0,3.27h1.8v8.65h-1.8Z" transform="translate(-221.34 -198)"/><path d="M1116.24,586.61H1118v1a2.52,2.52,0,0,1,1-.93,3.24,3.24,0,0,1,1.44-.32,3.33,3.33,0,0,1,1.68.42,3.1,3.1,0,0,1,1.16,1.14,3.24,3.24,0,0,1,.43,1.69v5.6h-1.8v-5.1a2.09,2.09,0,0,0-.53-1.52,2,2,0,0,0-2.76,0,2.1,2.1,0,0,0-.55,1.52v5.1h-1.8Z" transform="translate(-221.34 -198)"/><path d="M1127.39,594.85a4.29,4.29,0,0,1-1.56-1.63,5,5,0,0,1,0-4.62,4.17,4.17,0,0,1,3.71-2.19,4,4,0,0,1,2.23.59,3.84,3.84,0,0,1,1.41,1.53,4.46,4.46,0,0,1,.49,2.08c0,.13,0,.28,0,.43a2.37,2.37,0,0,1-.06.41h-6.43a2.46,2.46,0,0,0,2.54,2.4,2.42,2.42,0,0,0,1.34-.36,2.67,2.67,0,0,0,.87-.9l1.47.72a3.39,3.39,0,0,1-1.38,1.54,4.37,4.37,0,0,1-2.31.6A4.32,4.32,0,0,1,1127.39,594.85Zm.61-6.37a2.4,2.4,0,0,0-.82,1.53h4.56a2.1,2.1,0,0,0-.67-1.5,2.17,2.17,0,0,0-1.54-.58A2.33,2.33,0,0,0,1128,588.48Z" transform="translate(-221.34 -198)"/><path d="M1030.24,609.77a10.64,10.64,0,0,1,2.65-7.23h1.52a12.55,12.55,0,0,0,0,14.48h-1.52A10.72,10.72,0,0,1,1030.24,609.77Z" transform="translate(-221.34 -198)"/><path d="M1035.08,602.54h2l2.42,9.38,2.5-9.38h2l2.5,9.34,2.42-9.34h2l-3.26,11.92h-2.13l-2.5-9.13-2.49,9.13h-2.11Z" transform="translate(-221.34 -198)"/><path d="M1052.09,602.54h1.81v2.08h-1.81Zm0,3.27h1.81v8.65h-1.81Z" transform="translate(-221.34 -198)"/><path d="M1056,605.81h1.73v1.1a2,2,0,0,1,.93-.93,3.1,3.1,0,0,1,1.37-.29h.53v1.65h-.75a2,2,0,0,0-1.45.55,2.14,2.14,0,0,0-.55,1.58v5H1056Z" transform="translate(-221.34 -198)"/><path d="M1063.58,614.05a4.29,4.29,0,0,1-1.56-1.63,5,5,0,0,1,0-4.62,4.28,4.28,0,0,1,1.53-1.6,4.43,4.43,0,0,1,4.42,0,4,4,0,0,1,1.41,1.53,4.58,4.58,0,0,1,.48,2.08c0,.13,0,.28,0,.43a2.33,2.33,0,0,1-.07.41h-6.43a2.46,2.46,0,0,0,2.54,2.4,2.39,2.39,0,0,0,1.34-.36,2.67,2.67,0,0,0,.87-.9l1.47.72a3.26,3.26,0,0,1-1.38,1.53,4.26,4.26,0,0,1-2.31.61A4.32,4.32,0,0,1,1063.58,614.05Zm.61-6.37a2.4,2.4,0,0,0-.82,1.53h4.56a2.07,2.07,0,0,0-.67-1.5,2.2,2.2,0,0,0-1.54-.58A2.3,2.3,0,0,0,1064.19,607.68Z" transform="translate(-221.34 -198)"/><path d="M1070.73,605.81h1.92l1.94,5.88,2-5.88h1.65l2,5.88,2-5.88h1.92l-3,8.65h-1.63l-2-6.16-2,6.16h-1.65Z" transform="translate(-221.34 -198)"/><path d="M1085.29,602.54h1.81v2.08h-1.81Zm0,3.27h1.81v8.65h-1.81Z" transform="translate(-221.34 -198)"/><path d="M1090.08,614a3.56,3.56,0,0,1-1.4-1.76l1.4-.66a2.92,2.92,0,0,0,1,1.17,2.34,2.34,0,0,0,1.37.43,1.67,1.67,0,0,0,1-.29.9.9,0,0,0,.4-.78.77.77,0,0,0-.37-.7,2.72,2.72,0,0,0-.78-.34l-1.36-.38a3.45,3.45,0,0,1-1.67-1,2.44,2.44,0,0,1-.15-2.88,2.61,2.61,0,0,1,1.1-.91,3.69,3.69,0,0,1,1.58-.33,3.91,3.91,0,0,1,2.12.59,3.23,3.23,0,0,1,1.31,1.62l-1.39.66a2.08,2.08,0,0,0-.81-1,2.15,2.15,0,0,0-1.24-.37,1.53,1.53,0,0,0-1,.27.89.89,0,0,0-.35.73.76.76,0,0,0,.35.68,3.49,3.49,0,0,0,.76.35l1.4.42a3.33,3.33,0,0,1,1.65.95,2.2,2.2,0,0,1,.58,1.54,2.38,2.38,0,0,1-.4,1.35,2.66,2.66,0,0,1-1.13.92,4.21,4.21,0,0,1-1.69.32A4.15,4.15,0,0,1,1090.08,614Z" transform="translate(-221.34 -198)"/><path d="M1099.18,614.05a4.29,4.29,0,0,1-1.56-1.63,5,5,0,0,1,0-4.62,4.2,4.2,0,0,1,1.53-1.6,4.43,4.43,0,0,1,4.42,0,3.88,3.88,0,0,1,1.4,1.53,4.46,4.46,0,0,1,.49,2.08c0,.13,0,.28,0,.43a2.33,2.33,0,0,1-.07.41h-6.43a2.46,2.46,0,0,0,2.54,2.4,2.39,2.39,0,0,0,1.34-.36,2.67,2.67,0,0,0,.87-.9l1.47.72a3.26,3.26,0,0,1-1.38,1.53,4.67,4.67,0,0,1-4.6,0Zm.61-6.37a2.4,2.4,0,0,0-.82,1.53h4.56a2.07,2.07,0,0,0-.67-1.5,2.21,2.21,0,0,0-1.54-.58A2.3,2.3,0,0,0,1099.79,607.68Z" transform="translate(-221.34 -198)"/><path d="M1113.42,614.2a5.77,5.77,0,0,1-1.89-1.29,6,6,0,0,1-1.25-2,6.77,6.77,0,0,1-.44-2.46,6.55,6.55,0,0,1,.44-2.45,5.68,5.68,0,0,1,1.23-1.95,5.52,5.52,0,0,1,1.87-1.28,5.91,5.91,0,0,1,2.36-.46,5.69,5.69,0,0,1,2.26.43,5.38,5.38,0,0,1,1.69,1.13,4.2,4.2,0,0,1,1,1.51l-1.68.82a3.31,3.31,0,0,0-1.21-1.59,3.54,3.54,0,0,0-2-.59,3.78,3.78,0,0,0-3.5,2.11,4.9,4.9,0,0,0-.52,2.32,5.06,5.06,0,0,0,.52,2.33,3.79,3.79,0,0,0,1.44,1.55,3.91,3.91,0,0,0,2.09.56,4.09,4.09,0,0,0,1.82-.41,3.35,3.35,0,0,0,1.32-1.15,3.08,3.08,0,0,0,.49-1.74v0h-3.66V608h5.54v1.12a5.83,5.83,0,0,1-.45,2.35,5.25,5.25,0,0,1-3,2.84,5.93,5.93,0,0,1-2.07.36A6.11,6.11,0,0,1,1113.42,614.2Z" transform="translate(-221.34 -198)"/><path d="M1123.48,614a2.22,2.22,0,0,1-.81-1.8,2.43,2.43,0,0,1,.71-1.76,3.9,3.9,0,0,1,2.22-1l2.75-.45v-.33a1.33,1.33,0,0,0-.47-1,1.89,1.89,0,0,0-1.26-.41,2.15,2.15,0,0,0-1.26.37,2.19,2.19,0,0,0-.79,1l-1.5-.76a3,3,0,0,1,.79-1.12,4.2,4.2,0,0,1,1.26-.76,4.44,4.44,0,0,1,1.55-.28,4,4,0,0,1,1.81.39,3,3,0,0,1,1.23,1.06,2.81,2.81,0,0,1,.45,1.58v5.82h-1.73v-1a3.15,3.15,0,0,1-1.2.89,4,4,0,0,1-1.62.31A3.2,3.2,0,0,1,1123.48,614Zm1.45-1.05a1.5,1.5,0,0,0,1,.31,2.61,2.61,0,0,0,1.28-.31,2.36,2.36,0,0,0,.86-.86,2.44,2.44,0,0,0,.31-1.2v-.46l-2.4.41a2,2,0,0,0-1.06.45,1.18,1.18,0,0,0-.33.85A1,1,0,0,0,1124.93,612.92Z" transform="translate(-221.34 -198)"/><path d="M1133.74,613.79a3,3,0,0,1-.75-2.16v-4.19h-1.52v-1.63h.24a1.22,1.22,0,0,0,.94-.36,1.3,1.3,0,0,0,.34-1v-.67h1.81v2h2v1.63h-2v4.11a1.5,1.5,0,0,0,.32,1,1.43,1.43,0,0,0,1.12.38,4.15,4.15,0,0,0,.59-.05v1.55l-.48.07-.5,0A2.83,2.83,0,0,1,1133.74,613.79Z" transform="translate(-221.34 -198)"/><path d="M1140.2,614.05a4.29,4.29,0,0,1-1.56-1.63,4.81,4.81,0,0,1-.56-2.31,4.62,4.62,0,0,1,.56-2.31,4.14,4.14,0,0,1,3.71-2.19,4.07,4.07,0,0,1,2.23.59,4,4,0,0,1,1.41,1.53,4.58,4.58,0,0,1,.49,2.08c0,.13,0,.28,0,.43a2.37,2.37,0,0,1-.06.41H1140a2.46,2.46,0,0,0,2.55,2.4,2.36,2.36,0,0,0,1.33-.36,2.8,2.8,0,0,0,.88-.9l1.47.72a3.34,3.34,0,0,1-1.39,1.53,4.24,4.24,0,0,1-2.31.61A4.37,4.37,0,0,1,1140.2,614.05Zm.61-6.37a2.39,2.39,0,0,0-.81,1.53h4.56a2.11,2.11,0,0,0-.68-1.5,2.17,2.17,0,0,0-1.53-.58A2.31,2.31,0,0,0,1140.81,607.68Z" transform="translate(-221.34 -198)"/><path d="M1147.36,605.81h1.92l1.93,5.88,2-5.88h1.64l2,5.88,2-5.88h1.92l-3,8.65h-1.63l-2-6.16-2,6.16h-1.65Z" transform="translate(-221.34 -198)"/><path d="M1162.06,614a2.23,2.23,0,0,1-.82-1.8,2.4,2.4,0,0,1,.72-1.76,3.89,3.89,0,0,1,2.21-1l2.75-.45v-.33a1.3,1.3,0,0,0-.47-1,1.84,1.84,0,0,0-1.25-.41,2.15,2.15,0,0,0-1.26.37,2.12,2.12,0,0,0-.79,1l-1.51-.76a3,3,0,0,1,.8-1.12,4,4,0,0,1,1.26-.76,4.42,4.42,0,0,1,1.54-.28,4,4,0,0,1,1.81.39,3,3,0,0,1,1.23,1.06,2.81,2.81,0,0,1,.45,1.58v5.82H1167v-1a3.15,3.15,0,0,1-1.2.89,4,4,0,0,1-1.61.31A3.17,3.17,0,0,1,1162.06,614Zm1.45-1.05a1.5,1.5,0,0,0,1,.31,2.63,2.63,0,0,0,1.28-.31,2.35,2.35,0,0,0,1.16-2.06v-.46l-2.4.41a1.9,1.9,0,0,0-1,.45,1.15,1.15,0,0,0-.34.85A1,1,0,0,0,1163.51,612.92Z" transform="translate(-221.34 -198)"/><path d="M1171,617.94a2.7,2.7,0,0,1-.59-.17v-1.55l.47.09a3.12,3.12,0,0,0,.52,0,1.61,1.61,0,0,0,1.12-.33,2.88,2.88,0,0,0,.64-1l.24-.55-3.44-8.65h1.94l2.43,6.35,2.43-6.35h2l-3.83,9.6a5.12,5.12,0,0,1-1.25,1.88,3,3,0,0,1-2,.71A3.15,3.15,0,0,1,1171,617.94Z" transform="translate(-221.34 -198)"/><path d="M1181.69,609.77a12.58,12.58,0,0,0-2.3-7.23h1.52a10.6,10.6,0,0,1,2.67,7.23,10.73,10.73,0,0,1-2.67,7.25h-1.52A12.71,12.71,0,0,0,1181.69,609.77Z" transform="translate(-221.34 -198)"/><path d="M1505.53,545.77h1.88V551h5.52v-5.25h1.87v11.92h-1.87v-5h-5.52v5h-1.88Z" transform="translate(-221.34 -198)"/><path d="M1519,557.29a4.37,4.37,0,0,1-1.64-1.61,4.44,4.44,0,0,1-.61-2.32,4.49,4.49,0,0,1,.6-2.33,4.39,4.39,0,0,1,1.63-1.6,4.6,4.6,0,0,1,2.3-.59,4.54,4.54,0,0,1,2.29.59,4.36,4.36,0,0,1,1.62,1.6,4.49,4.49,0,0,1,.6,2.33,4.43,4.43,0,0,1-.61,2.33,4.34,4.34,0,0,1-1.63,1.61,4.72,4.72,0,0,1-4.55,0Zm3.63-1.45a2.57,2.57,0,0,0,.94-1,3.22,3.22,0,0,0,0-2.92,2.54,2.54,0,0,0-.94-1,2.65,2.65,0,0,0-2.7,0,2.64,2.64,0,0,0-1,1,3.3,3.3,0,0,0,0,2.92,2.67,2.67,0,0,0,1,1,2.71,2.71,0,0,0,2.7,0Z" transform="translate(-221.34 -198)"/><path d="M1528.41,557.23a3.56,3.56,0,0,1-1.4-1.76l1.4-.66a2.92,2.92,0,0,0,1,1.17,2.32,2.32,0,0,0,1.37.43,1.69,1.69,0,0,0,1-.29.9.9,0,0,0,.4-.78.77.77,0,0,0-.37-.7,3,3,0,0,0-.78-.34l-1.36-.38a3.45,3.45,0,0,1-1.67-1,2.44,2.44,0,0,1-.15-2.88,2.61,2.61,0,0,1,1.1-.91,3.69,3.69,0,0,1,1.58-.33,3.91,3.91,0,0,1,2.12.59,3.23,3.23,0,0,1,1.31,1.62l-1.39.66a2.2,2.2,0,0,0-.81-1,2.15,2.15,0,0,0-1.24-.37,1.53,1.53,0,0,0-1,.27.9.9,0,0,0-.35.74.76.76,0,0,0,.35.67,3.49,3.49,0,0,0,.76.35l1.4.42a3.33,3.33,0,0,1,1.65,1,2.22,2.22,0,0,1,.58,1.54,2.38,2.38,0,0,1-.4,1.35,2.72,2.72,0,0,1-1.13.92,4.24,4.24,0,0,1-1.69.32A4.15,4.15,0,0,1,1528.41,557.23Z" transform="translate(-221.34 -198)"/><path d="M1537.37,557a2.92,2.92,0,0,1-.76-2.16v-4.19h-1.52V549h.24a1.24,1.24,0,0,0,1-.36,1.33,1.33,0,0,0,.33-1v-.67h1.81v2h2v1.63h-2v4.11a1.5,1.5,0,0,0,.33,1,1.42,1.42,0,0,0,1.11.38,4,4,0,0,0,.59-.05v1.55l-.48.07-.49,0A2.82,2.82,0,0,1,1537.37,557Z" transform="translate(-221.34 -198)"/><path d="M1545.19,545.77H1547l4,5.6,4-5.6h1.76v11.92h-1.87v-8.54l-3.8,5.18h-.19l-3.77-5.28v8.64h-1.89Z" transform="translate(-221.34 -198)"/><path d="M1559.46,557.2a2.23,2.23,0,0,1-.82-1.8,2.4,2.4,0,0,1,.72-1.76,3.89,3.89,0,0,1,2.21-1l2.75-.45v-.33a1.3,1.3,0,0,0-.47-1,1.84,1.84,0,0,0-1.25-.41,2.22,2.22,0,0,0-1.26.37,2.17,2.17,0,0,0-.79,1L1559,551a3,3,0,0,1,.8-1.12,4.08,4.08,0,0,1,1.26-.76,4.42,4.42,0,0,1,1.54-.28,4,4,0,0,1,1.81.39,3,3,0,0,1,1.24,1.06,2.89,2.89,0,0,1,.44,1.58v5.82h-1.73v-1a3.11,3.11,0,0,1-1.19.89,4,4,0,0,1-1.62.31A3.17,3.17,0,0,1,1559.46,557.2Zm1.45-1.05a1.45,1.45,0,0,0,1,.31,2.53,2.53,0,0,0,1.28-.31,2.35,2.35,0,0,0,1.16-2.06v-.46l-2.4.41a1.93,1.93,0,0,0-1.05.45,1.15,1.15,0,0,0-.34.85A1,1,0,0,0,1560.91,556.15Z" transform="translate(-221.34 -198)"/><path d="M1570.05,557.28a4.31,4.31,0,0,1-1.58-1.62,4.91,4.91,0,0,1,0-4.63,4.19,4.19,0,0,1,1.58-1.6,4.68,4.68,0,0,1,4-.28,4,4,0,0,1,1.34.85,3.48,3.48,0,0,1,.84,1.28l-1.58.73a2.31,2.31,0,0,0-.87-1.08,2.36,2.36,0,0,0-1.37-.41,2.47,2.47,0,0,0-1.32.37,2.61,2.61,0,0,0-.92,1,3,3,0,0,0-.34,1.47,3.05,3.05,0,0,0,.34,1.46,2.59,2.59,0,0,0,.92,1,2.47,2.47,0,0,0,1.32.36,2.32,2.32,0,0,0,1.36-.4,2.58,2.58,0,0,0,.88-1.1l1.58.75a3.44,3.44,0,0,1-.82,1.24,4.29,4.29,0,0,1-3,1.19A4.42,4.42,0,0,1,1570.05,557.28Z" transform="translate(-221.34 -198)"/><path d="M1577.94,545.58h1.81V550a2.43,2.43,0,0,1,1-.83,3.21,3.21,0,0,1,1.38-.29,3.33,3.33,0,0,1,1.68.42,3.17,3.17,0,0,1,1.16,1.14,3.34,3.34,0,0,1,.42,1.69v5.6h-1.79v-5.1a2.05,2.05,0,0,0-.54-1.51,2,2,0,0,0-2.76,0,2.05,2.05,0,0,0-.54,1.51v5.1h-1.81Z" transform="translate(-221.34 -198)"/><path d="M1587.32,545.77h1.8v2.08h-1.8Zm0,3.27h1.8v8.65h-1.8Z" transform="translate(-221.34 -198)"/><path d="M1591.24,549H1593v1.05a2.52,2.52,0,0,1,1-.93,3.24,3.24,0,0,1,1.44-.32,3.33,3.33,0,0,1,1.68.42,3.1,3.1,0,0,1,1.16,1.14,3.24,3.24,0,0,1,.43,1.69v5.6h-1.8v-5.1a2,2,0,0,0-.53-1.51,2,2,0,0,0-2.76,0,2.06,2.06,0,0,0-.55,1.51v5.1h-1.8Z" transform="translate(-221.34 -198)"/><path d="M1602.39,557.28a4.29,4.29,0,0,1-1.56-1.63,4.71,4.71,0,0,1-.57-2.31,4.76,4.76,0,0,1,.56-2.31,4.17,4.17,0,0,1,3.71-2.19,4,4,0,0,1,2.23.59,3.84,3.84,0,0,1,1.41,1.53,4.46,4.46,0,0,1,.49,2.08c0,.13,0,.28,0,.43a2.37,2.37,0,0,1-.06.41h-6.43a2.46,2.46,0,0,0,2.54,2.4,2.42,2.42,0,0,0,1.34-.36,2.67,2.67,0,0,0,.87-.9l1.47.72a3.39,3.39,0,0,1-1.38,1.54,4.37,4.37,0,0,1-2.31.6A4.32,4.32,0,0,1,1602.39,557.28Zm.61-6.37a2.4,2.4,0,0,0-.82,1.53h4.56a2.12,2.12,0,0,0-.67-1.5,2.21,2.21,0,0,0-1.54-.58A2.28,2.28,0,0,0,1603,550.91Z" transform="translate(-221.34 -198)"/><path d="M1505.24,572.2a10.64,10.64,0,0,1,2.65-7.23h1.52a12.55,12.55,0,0,0,0,14.48h-1.52A10.72,10.72,0,0,1,1505.24,572.2Z" transform="translate(-221.34 -198)"/><path d="M1510.08,565h2l2.42,9.38L1517,565h2l2.5,9.35,2.42-9.35h2l-3.26,11.92h-2.13l-2.5-9.13-2.49,9.13h-2.11Z" transform="translate(-221.34 -198)"/><path d="M1527.09,565h1.81v2.08h-1.81Zm0,3.27h1.81v8.65h-1.81Z" transform="translate(-221.34 -198)"/><path d="M1531,568.24h1.73v1.1a2,2,0,0,1,.93-.93,3.1,3.1,0,0,1,1.37-.29h.53v1.65h-.75a2,2,0,0,0-1.45.55,2.14,2.14,0,0,0-.55,1.58v5H1531Z" transform="translate(-221.34 -198)"/><path d="M1538.58,576.48a4.29,4.29,0,0,1-1.56-1.63,4.71,4.71,0,0,1-.57-2.31,4.76,4.76,0,0,1,.56-2.31,4.28,4.28,0,0,1,1.53-1.6,4.43,4.43,0,0,1,4.42,0,4,4,0,0,1,1.41,1.53,4.58,4.58,0,0,1,.48,2.08c0,.14,0,.28,0,.43a2.33,2.33,0,0,1-.07.41h-6.43a2.46,2.46,0,0,0,2.54,2.4,2.39,2.39,0,0,0,1.34-.36,2.67,2.67,0,0,0,.87-.9l1.47.72a3.33,3.33,0,0,1-1.38,1.54,4.71,4.71,0,0,1-4.6,0Zm.61-6.37a2.4,2.4,0,0,0-.82,1.53h4.56a2.08,2.08,0,0,0-.67-1.5,2.2,2.2,0,0,0-1.54-.58A2.35,2.35,0,0,0,1539.19,570.11Z" transform="translate(-221.34 -198)"/><path d="M1545.73,568.24h1.92l1.94,5.88,2-5.88h1.65l2,5.88,2-5.88h1.92l-3,8.65h-1.63l-2-6.16-2,6.16h-1.65Z" transform="translate(-221.34 -198)"/><path d="M1560.29,565h1.81v2.08h-1.81Zm0,3.27h1.81v8.65h-1.81Z" transform="translate(-221.34 -198)"/><path d="M1565.08,576.43a3.56,3.56,0,0,1-1.4-1.76l1.4-.66a2.92,2.92,0,0,0,1,1.17,2.34,2.34,0,0,0,1.37.43,1.67,1.67,0,0,0,1-.29.9.9,0,0,0,.4-.78.77.77,0,0,0-.37-.7,2.72,2.72,0,0,0-.78-.34l-1.36-.38a3.45,3.45,0,0,1-1.67-1,2.44,2.44,0,0,1-.15-2.88,2.61,2.61,0,0,1,1.1-.91,3.69,3.69,0,0,1,1.58-.33,3.91,3.91,0,0,1,2.12.59,3.23,3.23,0,0,1,1.31,1.62l-1.39.66a2.08,2.08,0,0,0-.81-1,2.15,2.15,0,0,0-1.24-.37,1.53,1.53,0,0,0-1,.27.9.9,0,0,0-.35.74.75.75,0,0,0,.35.67,3.49,3.49,0,0,0,.76.35l1.4.42a3.33,3.33,0,0,1,1.65,1,2.2,2.2,0,0,1,.58,1.54,2.36,2.36,0,0,1-.4,1.35,2.66,2.66,0,0,1-1.13.92,4.21,4.21,0,0,1-1.69.32A4.15,4.15,0,0,1,1565.08,576.43Z" transform="translate(-221.34 -198)"/><path d="M1574.18,576.48a4.29,4.29,0,0,1-1.56-1.63,4.71,4.71,0,0,1-.57-2.31,4.76,4.76,0,0,1,.56-2.31,4.2,4.2,0,0,1,1.53-1.6,4.43,4.43,0,0,1,4.42,0,3.88,3.88,0,0,1,1.4,1.53,4.46,4.46,0,0,1,.49,2.08c0,.14,0,.28,0,.43a2.33,2.33,0,0,1-.07.41h-6.43a2.46,2.46,0,0,0,2.54,2.4,2.39,2.39,0,0,0,1.34-.36,2.67,2.67,0,0,0,.87-.9l1.47.72a3.33,3.33,0,0,1-1.38,1.54,4.37,4.37,0,0,1-2.31.6A4.32,4.32,0,0,1,1574.18,576.48Zm.61-6.37a2.4,2.4,0,0,0-.82,1.53h4.56a2.08,2.08,0,0,0-.67-1.5,2.21,2.21,0,0,0-1.54-.58A2.35,2.35,0,0,0,1574.79,570.11Z" transform="translate(-221.34 -198)"/><path d="M1588.42,576.63a5.77,5.77,0,0,1-1.89-1.29,6,6,0,0,1-1.25-2,6.77,6.77,0,0,1-.44-2.46,6.55,6.55,0,0,1,.44-2.45,5.78,5.78,0,0,1,1.23-2,5.52,5.52,0,0,1,1.87-1.28,5.91,5.91,0,0,1,2.36-.46,5.69,5.69,0,0,1,2.26.43,5.38,5.38,0,0,1,1.69,1.13,4.2,4.2,0,0,1,1,1.51l-1.68.82a3.31,3.31,0,0,0-1.21-1.59,3.54,3.54,0,0,0-2-.59,3.78,3.78,0,0,0-3.5,2.11,4.93,4.93,0,0,0-.52,2.32,5,5,0,0,0,.52,2.33,3.79,3.79,0,0,0,1.44,1.55,3.91,3.91,0,0,0,2.09.56,4.09,4.09,0,0,0,1.82-.41,3.35,3.35,0,0,0,1.32-1.15,3.08,3.08,0,0,0,.49-1.74v0h-3.66v-1.6h5.54v1.12a5.83,5.83,0,0,1-.45,2.35,5.25,5.25,0,0,1-3,2.84,5.93,5.93,0,0,1-2.07.36A6.11,6.11,0,0,1,1588.42,576.63Z" transform="translate(-221.34 -198)"/><path d="M1598.48,576.4a2.22,2.22,0,0,1-.81-1.8,2.43,2.43,0,0,1,.71-1.76,3.9,3.9,0,0,1,2.22-1l2.75-.45v-.33a1.33,1.33,0,0,0-.47-1.05,1.89,1.89,0,0,0-1.26-.41,2.15,2.15,0,0,0-1.26.37,2.24,2.24,0,0,0-.79,1l-1.5-.76a3,3,0,0,1,.79-1.12,4.2,4.2,0,0,1,1.26-.76,4.44,4.44,0,0,1,1.55-.28,4,4,0,0,1,1.81.39,3,3,0,0,1,1.23,1.06,2.81,2.81,0,0,1,.45,1.58v5.82h-1.73v-1a3.15,3.15,0,0,1-1.2.89,4,4,0,0,1-1.62.31A3.2,3.2,0,0,1,1598.48,576.4Zm1.45-1a1.45,1.45,0,0,0,1,.31,2.5,2.5,0,0,0,1.28-.31,2.29,2.29,0,0,0,.86-.86,2.44,2.44,0,0,0,.31-1.2v-.46l-2.4.41a2,2,0,0,0-1.06.45,1.18,1.18,0,0,0-.33.85A1,1,0,0,0,1599.93,575.35Z" transform="translate(-221.34 -198)"/><path d="M1608.74,576.22a3,3,0,0,1-.75-2.16v-4.19h-1.52v-1.63h.24a1.22,1.22,0,0,0,.94-.36,1.3,1.3,0,0,0,.34-1v-.67h1.81v2h2v1.63h-2V574a1.5,1.5,0,0,0,.32,1,1.43,1.43,0,0,0,1.12.38,4.15,4.15,0,0,0,.59,0v1.55l-.48.07-.5,0A2.83,2.83,0,0,1,1608.74,576.22Z" transform="translate(-221.34 -198)"/><path d="M1615.2,576.48a4.29,4.29,0,0,1-1.56-1.63,4.81,4.81,0,0,1-.56-2.31,4.65,4.65,0,0,1,.56-2.31,4.14,4.14,0,0,1,3.71-2.19,4.07,4.07,0,0,1,2.23.59,4,4,0,0,1,1.41,1.53,4.58,4.58,0,0,1,.49,2.08c0,.14,0,.28,0,.43a2.37,2.37,0,0,1-.06.41H1615a2.46,2.46,0,0,0,2.55,2.4,2.36,2.36,0,0,0,1.33-.36,2.8,2.8,0,0,0,.88-.9l1.47.72a3.41,3.41,0,0,1-1.39,1.54,4.32,4.32,0,0,1-2.31.6A4.37,4.37,0,0,1,1615.2,576.48Zm.61-6.37a2.39,2.39,0,0,0-.81,1.53h4.56a2.13,2.13,0,0,0-.68-1.5,2.17,2.17,0,0,0-1.53-.58A2.36,2.36,0,0,0,1615.81,570.11Z" transform="translate(-221.34 -198)"/><path d="M1622.36,568.24h1.92l1.93,5.88,2-5.88h1.64l2,5.88,2-5.88h1.92l-3,8.65h-1.63l-2-6.16-2,6.16h-1.65Z" transform="translate(-221.34 -198)"/><path d="M1637.06,576.4a2.23,2.23,0,0,1-.82-1.8,2.4,2.4,0,0,1,.72-1.76,3.89,3.89,0,0,1,2.21-1l2.75-.45v-.33a1.3,1.3,0,0,0-.47-1.05,1.84,1.84,0,0,0-1.25-.41,2.15,2.15,0,0,0-1.26.37,2.17,2.17,0,0,0-.79,1l-1.51-.76a3,3,0,0,1,.8-1.12,4,4,0,0,1,1.26-.76,4.42,4.42,0,0,1,1.54-.28,4,4,0,0,1,1.81.39,3,3,0,0,1,1.23,1.06,2.81,2.81,0,0,1,.45,1.58v5.82H1642v-1a3.15,3.15,0,0,1-1.2.89,4,4,0,0,1-1.61.31A3.17,3.17,0,0,1,1637.06,576.4Zm1.45-1a1.45,1.45,0,0,0,1,.31,2.53,2.53,0,0,0,1.28-.31,2.26,2.26,0,0,0,.85-.86,2.33,2.33,0,0,0,.31-1.2v-.46l-2.4.41a1.9,1.9,0,0,0-1,.45,1.15,1.15,0,0,0-.34.85A1,1,0,0,0,1638.51,575.35Z" transform="translate(-221.34 -198)"/><path d="M1646,580.37a2.7,2.7,0,0,1-.59-.17v-1.55l.47.09a3.12,3.12,0,0,0,.52,0,1.61,1.61,0,0,0,1.12-.33,2.88,2.88,0,0,0,.64-1l.24-.55-3.44-8.65h1.94l2.43,6.35,2.43-6.35h2l-3.83,9.6a5,5,0,0,1-1.25,1.88,3,3,0,0,1-2,.71A3.15,3.15,0,0,1,1646,580.37Z" transform="translate(-221.34 -198)"/><path d="M1656.69,572.2a12.58,12.58,0,0,0-2.3-7.23h1.52a10.6,10.6,0,0,1,2.67,7.23,10.73,10.73,0,0,1-2.67,7.25h-1.52A12.69,12.69,0,0,0,1656.69,572.2Z" transform="translate(-221.34 -198)"/><path d="M1378.37,765.85a5.58,5.58,0,0,1-1.88-1.29,5.85,5.85,0,0,1-1.24-2,7.07,7.07,0,0,1,0-4.91,5.94,5.94,0,0,1,1.23-2,5.52,5.52,0,0,1,1.87-1.28,5.91,5.91,0,0,1,2.36-.46,5.62,5.62,0,0,1,2.26.43,5.43,5.43,0,0,1,1.7,1.13,4.34,4.34,0,0,1,1,1.51l-1.7.8a3.36,3.36,0,0,0-3.25-2.16,3.81,3.81,0,0,0-3.5,2.11,5.55,5.55,0,0,0,0,4.65,3.68,3.68,0,0,0,1.42,1.55,3.9,3.9,0,0,0,2.08.56,3.41,3.41,0,0,0,2-.6,3.33,3.33,0,0,0,1.22-1.55l1.7.8a4.43,4.43,0,0,1-1,1.51,5.26,5.26,0,0,1-1.7,1.13,5.62,5.62,0,0,1-2.26.43A6,6,0,0,1,1378.37,765.85Z" transform="translate(-221.34 -198)"/><path d="M1389.15,765.71a4.39,4.39,0,0,1-2.24-3.93,4.47,4.47,0,0,1,.6-2.33,4.32,4.32,0,0,1,1.63-1.6,4.57,4.57,0,0,1,2.29-.59,4.51,4.51,0,0,1,2.29.59,4.39,4.39,0,0,1,1.63,1.6,4.47,4.47,0,0,1,.6,2.33,4.44,4.44,0,0,1-4.52,4.52A4.46,4.46,0,0,1,1389.15,765.71Zm3.64-1.45a2.64,2.64,0,0,0,.94-1,3.3,3.3,0,0,0,0-2.92,2.54,2.54,0,0,0-2.3-1.38,2.58,2.58,0,0,0-1.35.37,2.61,2.61,0,0,0-.94,1,3.22,3.22,0,0,0,0,2.92,2.64,2.64,0,0,0,.94,1,2.73,2.73,0,0,0,2.71,0Z" transform="translate(-221.34 -198)"/><path d="M1397.71,757.46h1.72v1.1a2.09,2.09,0,0,1,.93-.93,3.18,3.18,0,0,1,1.38-.29h.53V759h-.76a2,2,0,0,0-1.44.55,2.14,2.14,0,0,0-.56,1.58v5h-1.8Z" transform="translate(-221.34 -198)"/><path d="M1403.5,757.46h1.73v1.08a3.26,3.26,0,0,1,1.22-.94,4.08,4.08,0,0,1,1.67-.34,4.2,4.2,0,0,1,2.22.6,4.28,4.28,0,0,1,1.55,1.61,4.95,4.95,0,0,1,0,4.61,4.36,4.36,0,0,1-1.54,1.62,4.16,4.16,0,0,1-2.23.6,4,4,0,0,1-1.6-.31,3.11,3.11,0,0,1-1.21-.89v4.21h-1.81Zm5.81,6.8a2.7,2.7,0,0,0,.93-1,3.22,3.22,0,0,0,0-2.92,2.67,2.67,0,0,0-.93-1,2.59,2.59,0,0,0-3.66,1,3.3,3.3,0,0,0,0,2.92,2.64,2.64,0,0,0,.94,1,2.75,2.75,0,0,0,2.72,0Z" transform="translate(-221.34 -198)"/><path d="M1416.11,765.71a4.39,4.39,0,0,1-2.24-3.93,4.47,4.47,0,0,1,.6-2.33,4.32,4.32,0,0,1,1.63-1.6,4.57,4.57,0,0,1,2.29-.59,4.51,4.51,0,0,1,2.29.59,4.32,4.32,0,0,1,1.63,1.6,4.47,4.47,0,0,1,.6,2.33,4.44,4.44,0,0,1-4.52,4.52A4.46,4.46,0,0,1,1416.11,765.71Zm3.64-1.45a2.64,2.64,0,0,0,.94-1,3.3,3.3,0,0,0,0-2.92,2.54,2.54,0,0,0-2.3-1.38,2.58,2.58,0,0,0-1.35.37,2.61,2.61,0,0,0-.94,1,3.22,3.22,0,0,0,0,2.92,2.64,2.64,0,0,0,.94,1,2.73,2.73,0,0,0,2.71,0Z" transform="translate(-221.34 -198)"/><path d="M1424.67,757.46h1.72v1.1a2.09,2.09,0,0,1,.93-.93,3.18,3.18,0,0,1,1.38-.29h.53V759h-.76a2,2,0,0,0-1.44.55,2.14,2.14,0,0,0-.56,1.58v5h-1.8Z" transform="translate(-221.34 -198)"/><path d="M1430.92,765.62a2.22,2.22,0,0,1-.81-1.8,2.39,2.39,0,0,1,.71-1.76,3.89,3.89,0,0,1,2.21-1l2.76-.45v-.33a1.31,1.31,0,0,0-.48-1,1.84,1.84,0,0,0-1.25-.41,2.15,2.15,0,0,0-2,1.35l-1.5-.76a3,3,0,0,1,.79-1.12,4.2,4.2,0,0,1,1.26-.76,4.44,4.44,0,0,1,1.55-.28,4,4,0,0,1,1.8.39,3,3,0,0,1,1.24,1.06,2.81,2.81,0,0,1,.44,1.58v5.82h-1.72v-1a3.15,3.15,0,0,1-1.2.89,4,4,0,0,1-1.62.31A3.2,3.2,0,0,1,1430.92,765.62Zm1.45-1a1.45,1.45,0,0,0,1,.31,2.5,2.5,0,0,0,1.28-.31,2.26,2.26,0,0,0,.85-.86,2.34,2.34,0,0,0,.32-1.2v-.46l-2.4.41a1.93,1.93,0,0,0-1.06.45,1.19,1.19,0,0,0-.34.85A1,1,0,0,0,1432.37,764.57Z" transform="translate(-221.34 -198)"/><path d="M1441.18,765.44a3,3,0,0,1-.75-2.16v-4.19h-1.52v-1.63h.24a1.22,1.22,0,0,0,.94-.36,1.34,1.34,0,0,0,.34-1v-.67h1.8v2h2v1.63h-2v4.11a1.5,1.5,0,0,0,.33,1,1.42,1.42,0,0,0,1.11.38,4.16,4.16,0,0,0,.6-.05v1.55l-.48.07-.5,0A2.82,2.82,0,0,1,1441.18,765.44Z" transform="translate(-221.34 -198)"/><path d="M1447.64,765.7a4.29,4.29,0,0,1-1.56-1.63,5,5,0,0,1,0-4.62,4.28,4.28,0,0,1,1.53-1.6,4.18,4.18,0,0,1,2.19-.59,4.07,4.07,0,0,1,2.23.59,4,4,0,0,1,1.41,1.53,4.58,4.58,0,0,1,.48,2.08c0,.13,0,.28,0,.43a1.67,1.67,0,0,1-.07.41h-6.43a2.55,2.55,0,0,0,.8,1.76,2.52,2.52,0,0,0,1.75.64,2.38,2.38,0,0,0,1.33-.36,2.67,2.67,0,0,0,.87-.9l1.48.72a3.41,3.41,0,0,1-1.39,1.54,4.71,4.71,0,0,1-4.6,0Zm.61-6.37a2.4,2.4,0,0,0-.82,1.53H1452a2.08,2.08,0,0,0-.67-1.5,2.19,2.19,0,0,0-1.53-.58A2.31,2.31,0,0,0,1448.25,759.33Z" transform="translate(-221.34 -198)"/><path d="M1458.65,754.19h1.52l6,8.24v-8.24H1468v11.92h-1.52l-6-8.33v8.33h-1.89Z" transform="translate(-221.34 -198)"/><path d="M1472.08,765.7a4.14,4.14,0,0,1-1.56-1.63,4.71,4.71,0,0,1-.57-2.31,4.62,4.62,0,0,1,.56-2.31,4.17,4.17,0,0,1,3.71-2.19,4.07,4.07,0,0,1,2.23.59,4,4,0,0,1,1.41,1.53,4.58,4.58,0,0,1,.49,2.08c0,.13,0,.28,0,.43a2.37,2.37,0,0,1-.06.41h-6.44a2.59,2.59,0,0,0,.8,1.76,2.55,2.55,0,0,0,1.75.64,2.36,2.36,0,0,0,1.33-.36,2.8,2.8,0,0,0,.88-.9l1.47.72a3.44,3.44,0,0,1-1.38,1.54,4.38,4.38,0,0,1-2.32.6A4.31,4.31,0,0,1,1472.08,765.7Zm.6-6.37a2.39,2.39,0,0,0-.81,1.53h4.56a2.16,2.16,0,0,0-.67-1.5,2.21,2.21,0,0,0-1.54-.58A2.31,2.31,0,0,0,1472.68,759.33Z" transform="translate(-221.34 -198)"/><path d="M1481.74,765.44a3,3,0,0,1-.75-2.16v-4.19h-1.52v-1.63h.24a1.22,1.22,0,0,0,.94-.36,1.3,1.3,0,0,0,.34-1v-.67h1.8v2h2v1.63h-2v4.11a1.5,1.5,0,0,0,.33,1,1.42,1.42,0,0,0,1.11.38,4.16,4.16,0,0,0,.6-.05v1.55l-.48.07-.5,0A2.82,2.82,0,0,1,1481.74,765.44Z" transform="translate(-221.34 -198)"/><path d="M1485.71,757.46h1.92l1.93,5.88,2-5.88h1.64l2,5.88,1.95-5.88H1499l-3,8.65h-1.63l-2-6.16-2.05,6.16h-1.65Z" transform="translate(-221.34 -198)"/><path d="M1502,765.71a4.44,4.44,0,0,1-1.64-1.61,4.54,4.54,0,0,1-.61-2.32,4.47,4.47,0,0,1,.61-2.33,4.25,4.25,0,0,1,1.63-1.6,4.74,4.74,0,0,1,4.58,0,4.46,4.46,0,0,1,1.63,1.6,4.86,4.86,0,0,1,0,4.66,4.62,4.62,0,0,1-6.19,1.6Zm3.63-1.45a2.59,2.59,0,0,0,.95-1,3.3,3.3,0,0,0,0-2.92,2.62,2.62,0,0,0-3.65-1,2.61,2.61,0,0,0-.94,1,3.22,3.22,0,0,0,0,2.92,2.64,2.64,0,0,0,.94,1,2.71,2.71,0,0,0,2.7,0Z" transform="translate(-221.34 -198)"/><path d="M1510.55,757.46h1.73v1.1a2.09,2.09,0,0,1,.93-.93,3.15,3.15,0,0,1,1.38-.29h.53V759h-.76a2,2,0,0,0-1.44.55,2.14,2.14,0,0,0-.56,1.58v5h-1.81Z" transform="translate(-221.34 -198)"/><path d="M1516.35,754h1.8v7.22l3.64-3.76H1524l-3.26,3.47,3.41,5.18h-2.08l-2.66-4-1.3,1.38v2.62h-1.8Z" transform="translate(-221.34 -198)"/><circle class="cls-22" cx="175.26" cy="381.6" r="1.89"/><line class="cls-25" x1="171.49" y1="344.51" x2="179.04" y2="344.51"/><rect class="cls-21" x="300.25" y="181" width="34.51" height="44" rx="2"/><circle class="cls-22" cx="317.52" cy="220.6" r="1.89"/><line class="cls-11" x1="536.8" y1="402.5" x2="536.8" y2="400"/><line class="cls-26" x1="536.8" y1="389.45" x2="536.8" y2="379.78"/><line class="cls-11" x1="536.8" y1="374.5" x2="536.8" y2="372"/><rect class="cls-22" x="1098.49" y="433.99" width="76.46" height="25.84" rx="6"/><rect class="cls-22" x="1098.47" y="463.8" width="76.46" height="25.84" rx="6"/><rect class="cls-22" x="1098.47" y="493.71" width="76.46" height="25.84" rx="6"/><circle class="cls-16" cx="1109.72" cy="447.12" r="6.07"/><circle class="cls-16" cx="1109.72" cy="476.55" r="6.07"/><circle class="cls-16" cx="1109.72" cy="507.12" r="6.07"/><rect class="cls-22" x="1186.23" y="434.05" width="76.46" height="25.84" rx="6"/><rect class="cls-22" x="1186.21" y="463.86" width="76.46" height="25.84" rx="6"/><rect class="cls-22" x="1186.21" y="493.77" width="76.46" height="25.84" rx="6"/><circle class="cls-16" cx="1197.46" cy="447.18" r="6.07"/><circle class="cls-16" cx="1197.46" cy="476.61" r="6.07"/><circle class="cls-16" cx="1197.46" cy="507.18" r="6.07"/><rect class="cls-22" x="1273.97" y="434.1" width="76.46" height="25.84" rx="6"/><rect class="cls-22" x="1273.95" y="463.92" width="76.46" height="25.84" rx="6"/><rect class="cls-22" x="1273.95" y="493.83" width="76.46" height="25.84" rx="6"/><circle class="cls-16" cx="1285.2" cy="447.24" r="6.07"/><circle class="cls-16" cx="1285.2" cy="476.67" r="6.07"/><circle class="cls-16" cx="1285.2" cy="507.24" r="6.07"/><rect class="cls-22" x="686.95" y="442.49" width="131.34" height="40.95" rx="6"/><rect class="cls-22" x="686.92" y="489.7" width="131.34" height="40.95" rx="6"/><rect class="cls-22" x="686.92" y="537.05" width="131.34" height="40.95" rx="6"/><circle class="cls-16" cx="704.75" cy="463.3" r="9.62"/><circle class="cls-16" cx="704.75" cy="509.9" r="9.62"/><circle class="cls-16" cx="704.75" cy="558.3" r="9.62"/><rect class="cls-16" x="686.09" y="105" width="131.01" height="40.85" rx="6"/><rect class="cls-23" x="686.09" y="105" width="131.01" height="40.85" rx="6"/><rect class="cls-16" x="686.06" y="153.18" width="131.01" height="40.85" rx="6"/><rect class="cls-23" x="686.06" y="153.18" width="131.01" height="40.85" rx="6"/><rect class="cls-16" x="686.06" y="201.5" width="131.01" height="40.85" rx="6"/><rect class="cls-23" x="686.06" y="201.5" width="131.01" height="40.85" rx="6"/><circle class="cls-22" cx="703.84" cy="125.76" r="9.6"/><circle class="cls-22" cx="703.84" cy="173.33" r="9.6"/><circle class="cls-22" cx="703.84" cy="222.7" r="9.6"/><path class="cls-10" d="M473.56,649a15.09,15.09,0,0,1,30.17,0" transform="translate(-221.34 -198)"/><circle class="cls-10" cx="267.31" cy="425.89" r="8.12"/><path class="cls-10" d="M347.56,493a15.09,15.09,0,0,1,30.17,0" transform="translate(-221.34 -198)"/><circle class="cls-10" cx="141.31" cy="269.89" r="8.12"/><path class="cls-10" d="M487.56,331a15.09,15.09,0,0,1,30.17,0" transform="translate(-221.34 -198)"/><circle class="cls-10" cx="281.31" cy="107.89" r="8.12"/><path class="cls-10" d="M1338.54,390a14.63,14.63,0,0,1,29.25,0" transform="translate(-221.34 -198)"/><circle class="cls-10" cx="1131.82" cy="167.65" r="7.87"/><path class="cls-10" d="M1392.83,346.36a14.63,14.63,0,0,1,29.25,0" transform="translate(-221.34 -198)"/><circle class="cls-10" cx="1186.11" cy="124.02" r="7.87"/><path class="cls-10" d="M1392.83,433.61a14.63,14.63,0,0,1,29.25,0" transform="translate(-221.34 -198)"/><circle class="cls-10" cx="1186.11" cy="211.27" r="7.87"/><rect class="cls-16" x="90.42" y="379.97" width="57.47" height="6.03" rx="1"/><rect class="cls-21" x="90.42" y="379.97" width="57.47" height="6.03" rx="1"/><rect class="cls-16" x="95.55" y="342.02" width="47.2" height="35.52" rx="1"/><rect class="cls-21" x="95.55" y="342.02" width="47.2" height="35.52" rx="1"/><rect class="cls-16" x="226.42" y="219.47" width="57.47" height="6.03" rx="1"/><rect class="cls-21" x="226.42" y="219.47" width="57.47" height="6.03" rx="1"/><rect class="cls-16" x="231.55" y="181.52" width="47.2" height="35.52" rx="1"/><rect class="cls-21" x="231.55" y="181.52" width="47.2" height="35.52" rx="1"/></g><g id="Gateway_Icons" data-name="Gateway Icons"><rect class="cls-27" x="704.79" y="387.47" width="93.74" height="29.85" rx="4"/><rect class="cls-28" x="704.79" y="387.47" width="93.74" height="29.85" rx="4"/><circle class="cls-16" cx="718.11" cy="402" r="6.5"/><rect class="cls-27" x="1178.05" y="350.37" width="93.74" height="29.85" rx="4"/><rect class="cls-29" x="1178.05" y="350.37" width="93.74" height="29.85" rx="4"/><circle class="cls-16" cx="1192.61" cy="364.9" r="6.5"/></g></svg>