<svg id="Layer_1" data-name="Layer 1" xmlns="http://www.w3.org/2000/svg" viewBox="0 0 611.32 335.96"><defs><style>.cls-1{fill:#fff;}.cls-2{fill:#e6e6e6;}.cls-3,.cls-9{font-size:22px;font-family:PlusJakartaSans-Bold, Plus Jakarta Sans;font-weight:700;}.cls-3{fill:#1ac1bc;}.cls-4{font-size:18px;fill:#666;font-family:PlusJakartaSans-Regular, Plus Jakarta Sans;}.cls-5{letter-spacing:-0.02em;}.cls-6{letter-spacing:-0.01em;}.cls-7{letter-spacing:-0.01em;}.cls-8{fill:#329afc;}.cls-9{fill:#ec5463;}.cls-10{letter-spacing:-0.01em;}.cls-11{letter-spacing:0em;}.cls-12{fill:#999;}</style></defs><rect class="cls-1" x="0.5" y="0.5" width="609.68" height="156.01" rx="15.5"/><path class="cls-2" d="M1196.36,353a15,15,0,0,1,15,15v125a15,15,0,0,1-15,15H617.68a15,15,0,0,1-15-15V368a15,15,0,0,1,15-15h578.68m0-1H617.68a16,16,0,0,0-16,16v125a16,16,0,0,0,16,16h578.68a16,16,0,0,0,16-16V368a16,16,0,0,0-16-16Z" transform="translate(-601.68 -352.04)"/><text class="cls-3" transform="translate(147.04 48.09)">Wirewise logins are enabled</text><text class="cls-4" transform="translate(147.04 80.24)">Users will be able <tspan class="cls-5" x="147.6" y="0">t</tspan><tspan x="154.22" y="0">o authenti</tspan><tspan class="cls-6" x="239.47" y="0">ca</tspan><tspan class="cls-5" x="260.2" y="0">t</tspan><tspan x="266.83" y="0">e with their </tspan><tspan x="0" y="21.6">Wirewise accounts, as </tspan><tspan class="cls-6" x="191.64" y="21.6">w</tspan><tspan x="205.81" y="21.6">ell as a</tspan><tspan class="cls-7" x="261" y="21.6">n</tspan><tspan x="271.13" y="21.6">y configured </tspan><tspan x="0" y="43.2">third party pr</tspan><tspan class="cls-6" x="108.74" y="43.2">o</tspan><tspan x="120.35" y="43.2">viders.</tspan></text><path class="cls-2" d="M700.5,408h-39a19.5,19.5,0,0,0,0,39h39a19.5,19.5,0,0,0,0-39Z" transform="translate(-601.68 -352.04)"/><circle class="cls-8" cx="97.26" cy="75.46" r="16.38"/><rect class="cls-1" x="0.82" y="175.43" width="610" height="156.03" rx="15.5"/><path class="cls-2" d="M1197,528a15,15,0,0,1,15,15V668a15,15,0,0,1-15,15H618a15,15,0,0,1-15-15V543a15,15,0,0,1,15-15h579m0-1H618a16,16,0,0,0-16,16V668a16,16,0,0,0,16,16h579a16,16,0,0,0,16-16V543a16,16,0,0,0-16-16Z" transform="translate(-601.68 -352.04)"/><text class="cls-9" transform="translate(147.04 235.09)"><tspan class="cls-10">A</tspan><tspan x="15.44" y="0">u</tspan><tspan class="cls-11" x="28.49" y="0">t</tspan><tspan x="37.47" y="0">o-Join is Disabled</tspan></text><text class="cls-4" transform="translate(147.04 264.24)">Users will be unable <tspan class="cls-5" x="168.23" y="0">t</tspan><tspan x="174.85" y="0">o join the </tspan><tspan class="cls-5" x="254.53" y="0">t</tspan><tspan x="261.16" y="0">enant and log </tspan><tspan x="0" y="21.6">in until i</tspan><tspan class="cls-6" x="60.53" y="21.6">n</tspan><tspan x="70.67" y="21.6">vi</tspan><tspan class="cls-5" x="84.09" y="21.6">t</tspan><tspan x="90.72" y="21.6">ed.</tspan></text><path class="cls-2" d="M700.5,587h-39a19.5,19.5,0,0,0,0,39h39a19.5,19.5,0,0,0,0-39Z" transform="translate(-601.68 -352.04)"/><circle class="cls-12" cx="62.26" cy="254.46" r="16.38"/></svg>