<svg id="Layer_1" data-name="Layer 1" xmlns="http://www.w3.org/2000/svg" viewBox="0 0 548.19 506.98"><defs><style>.cls-1,.cls-18{fill:#fff;}.cls-2{fill:#ccc;}.cls-3{font-size:25px;}.cls-10,.cls-25,.cls-3{font-family:PlusJakartaSans-SemiBold, Plus Jakarta Sans;font-weight:600;}.cls-4{letter-spacing:-0.01em;}.cls-5{letter-spacing:-0.01em;}.cls-6{font-size:21px;}.cls-13,.cls-6{fill:#666;font-family:PlusJakartaSans-Regular, Plus Jakarta Sans;}.cls-7{letter-spacing:-0.02em;}.cls-8{letter-spacing:-0.01em;}.cls-9{letter-spacing:-0.02em;}.cls-10,.cls-13,.cls-18{font-size:20px;}.cls-10{fill:#4d4d4d;}.cls-11{letter-spacing:-0.02em;}.cls-12{letter-spacing:-0.01em;}.cls-14{letter-spacing:-0.01em;}.cls-15,.cls-19{fill:none;stroke-miterlimit:10;}.cls-15{stroke:#e6e6e6;}.cls-16{fill:#f2f2f2;}.cls-17{fill:#3399fe;}.cls-18{font-family:PlusJakartaDisplay-Medium, Plus Jakarta Display;font-weight:500;}.cls-19{stroke:#fff;stroke-linecap:square;stroke-width:2px;}.cls-20,.cls-22{fill:#1ac1bc;}.cls-21{fill:#e6e6e6;}.cls-22,.cls-24{opacity:0.3;}.cls-23{fill:#ec5463;}.cls-25{font-size:50px;fill:#b3b3b3;}.cls-26{letter-spacing:-0.01em;}</style></defs><rect class="cls-1" x="0.5" y="0.5" width="547.19" height="505.98" rx="15.5"/><path class="cls-2" d="M1138,198a15,15,0,0,1,15,15V688a15,15,0,0,1-15,15H621.81a15,15,0,0,1-15-15V213a15,15,0,0,1,15-15H1138m0-1H621.81a16,16,0,0,0-16,16V688a16,16,0,0,0,16,16H1138a16,16,0,0,0,16-16V213a16,16,0,0,0-16-16Z" transform="translate(-605.81 -197.02)"/><text class="cls-3" transform="translate(196.64 58.84)">Al<tspan class="cls-4" x="23.42" y="0">e</tspan><tspan x="38.5" y="0">x Sl</tspan><tspan class="cls-5" x="78.55" y="0">at</tspan><tspan x="102.62" y="0">e</tspan></text><text class="cls-6" transform="translate(196.64 89.2)">Wirewise</text><text class="cls-6" transform="translate(197.64 122.2)"><tspan class="cls-7">A</tspan><tspan x="13.27" y="0">dministr</tspan><tspan class="cls-8" x="93.93" y="0">a</tspan><tspan class="cls-9" x="105.73" y="0">t</tspan><tspan x="113.46" y="0">or</tspan></text><text class="cls-10" transform="translate(130.64 243.95)"><tspan class="cls-11">A</tspan><tspan x="13.44" y="0">dmin Si</tspan><tspan class="cls-12" x="83.18" y="0">t</tspan><tspan x="91.08" y="0">e</tspan></text><text class="cls-13" transform="translate(130.64 271.83)">Manage <tspan class="cls-12" x="80" y="0">y</tspan><tspan x="90.52" y="0">our </tspan><tspan class="cls-14" x="125.24" y="0">w</tspan><tspan x="140.98" y="0">orkspace</tspan></text><text class="cls-10" transform="translate(130.64 341.95)">User Si<tspan class="cls-12" x="65.32" y="0">t</tspan><tspan x="73.22" y="0">e</tspan></text><text class="cls-13" transform="translate(130.64 367.83)">Manage <tspan class="cls-12" x="80" y="0">y</tspan><tspan x="90.52" y="0">our d</tspan><tspan class="cls-14" x="138.58" y="0">e</tspan><tspan x="150.68" y="0">vices</tspan></text><text class="cls-13" transform="translate(233.64 155.04)">al<tspan class="cls-12" x="16.02" y="0">e</tspan><tspan x="28.12" y="0">x.sl</tspan><tspan class="cls-14" x="58.34" y="0">a</tspan><tspan class="cls-11" x="69.58" y="0">t</tspan><tspan x="76.94" y="0">e@wirewise.com</tspan></text><line class="cls-15" x1="26.27" y1="190.49" x2="492.69" y2="190.48"/><rect class="cls-16" x="26.56" y="26.93" width="144.63" height="144.1" rx="10"/><rect class="cls-16" x="26.27" y="207.98" width="84.61" height="84.3" rx="10"/><rect class="cls-16" x="26.27" y="303.67" width="84.61" height="84.3" rx="10"/><rect class="cls-17" x="28.39" y="418.08" width="150.8" height="60.37" rx="8"/><text class="cls-18" transform="translate(62.06 455.38) scale(1.02 1)">Sign Out</text><rect class="cls-17" x="197.12" y="138.89" width="29.77" height="20.08" rx="1"/><line class="cls-19" x1="211.76" y1="149.3" x2="197.07" y2="138.87"/><line class="cls-19" x1="212.2" y1="149.3" x2="226.89" y2="138.87"/><path class="cls-20" d="M682.9,430.4H665.46c-4.82,0-8.72,3.56-8.72,8s3.9,8,8.72,8H682.9c4.81,0,8.71-3.57,8.71-8S687.71,430.4,682.9,430.4Z" transform="translate(-605.81 -197.02)"/><circle class="cls-21" cx="77.2" cy="241.34" r="6.69"/><path class="cls-22" d="M682.9,449.6H665.46c-4.82,0-8.72,3.57-8.72,8s3.9,8,8.72,8H682.9c4.81,0,8.71-3.57,8.71-8S687.71,449.6,682.9,449.6Z" transform="translate(-605.81 -197.02)"/><circle class="cls-21" cx="58.91" cy="260.54" r="6.69"/><rect class="cls-23" x="49.8" y="326.1" width="33.83" height="43" rx="4"/><g class="cls-24"><rect class="cls-23" x="53.68" y="326.1" width="33.83" height="43" rx="4"/></g><path class="cls-21" d="M663.93,554.54c0-5.19,3.93-9.4,8.77-9.4s8.78,4.21,8.78,9.4" transform="translate(-605.81 -197.02)"/><circle class="cls-21" cx="66.89" cy="342.08" r="4.73"/><text class="cls-25" transform="translate(65.19 120.68)"><tspan class="cls-26">A</tspan><tspan x="34.1" y="0">S</tspan></text></svg>