<svg id="Layer_1" data-name="Layer 1" xmlns="http://www.w3.org/2000/svg" viewBox="0 0 729.77 644.99"><defs><style>.cls-1,.cls-32{fill:#fff;}.cls-2{fill:#ccc;}.cls-28,.cls-3,.cls-7{font-size:18px;font-family:PlusJakartaSans-Medium, Plus Jakarta Sans;font-weight:500;}.cls-23,.cls-3{fill:#666;}.cls-4{letter-spacing:-0.01em;}.cls-5{letter-spacing:-0.02em;}.cls-6{letter-spacing:-0.02em;}.cls-19,.cls-24,.cls-25,.cls-26,.cls-7{fill:#329afc;}.cls-8{letter-spacing:-0.01em;}.cls-9{letter-spacing:-0.01em;}.cls-10,.cls-33,.cls-34,.cls-35,.cls-36{fill:none;}.cls-10{stroke:#e6e6e6;}.cls-10,.cls-24,.cls-25,.cls-26,.cls-32,.cls-33,.cls-34,.cls-36{stroke-miterlimit:10;}.cls-11{letter-spacing:-0.02em;}.cls-12{letter-spacing:-0.02em;}.cls-13{letter-spacing:-0.03em;}.cls-14{letter-spacing:-0.05em;}.cls-15{letter-spacing:-0.02em;}.cls-16{letter-spacing:-0.01em;}.cls-17{letter-spacing:0em;}.cls-18{letter-spacing:-0.03em;}.cls-19,.cls-23{font-size:19px;}.cls-19,.cls-21,.cls-23{font-family:PlusJakartaSans-Bold, Plus Jakarta Sans;font-weight:700;}.cls-20{letter-spacing:0em;}.cls-21{font-size:30px;}.cls-22{letter-spacing:-0.01em;}.cls-24,.cls-25,.cls-26,.cls-34,.cls-35,.cls-36{stroke:#329afc;}.cls-24,.cls-26,.cls-32,.cls-33{stroke-linecap:round;}.cls-24,.cls-32,.cls-33{stroke-width:2px;}.cls-26{stroke-width:3.5px;}.cls-27{fill:#e6e6e6;}.cls-28{fill:#b3b3b3;}.cls-29{letter-spacing:-0.01em;}.cls-30{letter-spacing:-0.01em;}.cls-31{letter-spacing:-0.01em;}.cls-32,.cls-33{stroke:#b3b3b3;}.cls-34,.cls-35,.cls-36{stroke-width:1.5px;}.cls-34{opacity:0.3;}.cls-35{stroke-linejoin:bevel;}.cls-36{stroke-linecap:square;}</style></defs><rect class="cls-1" x="0.5" y="0.5" width="728.77" height="643.99" rx="9.5"/><path class="cls-2" d="M1323,120a9,9,0,0,1,9,9V754a9,9,0,0,1-9,9H613.23a9,9,0,0,1-9-9V129a9,9,0,0,1,9-9H1323m0-1H613.23a10,10,0,0,0-10,10V754a10,10,0,0,0,10,10H1323a10,10,0,0,0,10-10V129a10,10,0,0,0-10-10Z" transform="translate(-603.23 -119.01)"/><text class="cls-3" transform="translate(48.64 298.24)">2/8/2022 11:56 AM</text><text class="cls-3" transform="translate(239.43 298.09)">CloudApi</text><text class="cls-3" transform="translate(353.05 285.94)">G<tspan class="cls-4" x="14.71" y="0">a</tspan><tspan class="cls-5" x="24.88" y="0">t</tspan><tspan x="31.73" y="0">e</tspan><tspan class="cls-6" x="42.79" y="0">w</tspan><tspan x="57.29" y="0">ay reques</tspan><tspan class="cls-5" x="140.79" y="0">t</tspan><tspan x="147.65" y="0">ed its encry</tspan><tspan class="cls-4" x="246.16" y="0">p</tspan><tspan x="258.03" y="0">tion </tspan><tspan class="cls-4" x="294.75" y="0">k</tspan><tspan x="304.61" y="0">ey</tspan></text><text class="cls-7" transform="translate(353.05 310.18)">g<tspan class="cls-4" x="11.86" y="0">a</tspan><tspan class="cls-5" x="22.03" y="0">t</tspan><tspan x="28.89" y="0">e</tspan><tspan class="cls-6" x="39.94" y="0">w</tspan><tspan x="54.45" y="0">ay: w</tspan><tspan class="cls-4" x="98.44" y="0">w</tspan><tspan x="113.13" y="0">g</tspan><tspan class="cls-8" x="124.99" y="0">a</tspan><tspan class="cls-9" x="135.16" y="0">t</tspan><tspan x="142.02" y="0">e</tspan><tspan class="cls-6" x="153.07" y="0">w</tspan><tspan x="167.58" y="0">ay</tspan></text><line class="cls-10" x1="46.6" y1="327.26" x2="678.77" y2="327.26"/><text class="cls-3" transform="translate(48.64 383.24)">2/8/2022 11:20 AM</text><text class="cls-3" transform="translate(239.43 383.09)">G<tspan class="cls-4" x="14.71" y="0">a</tspan><tspan class="cls-11" x="24.88" y="0">t</tspan><tspan x="31.73" y="0">e</tspan><tspan class="cls-12" x="42.79" y="0">w</tspan><tspan x="57.29" y="0">ay</tspan></text><text class="cls-3" transform="translate(353.05 370.94)">G<tspan class="cls-13" x="14.71" y="0">O</tspan><tspan x="29.97" y="0">T CONFIGUR</tspan><tspan class="cls-14" x="139.91" y="0">A</tspan><tspan x="151.11" y="0">TION FROM C</tspan><tspan class="cls-15" x="267.95" y="0">L</tspan><tspan x="277.22" y="0">OUD</tspan></text><text class="cls-7" transform="translate(353.05 395.18)">g<tspan class="cls-4" x="11.86" y="0">a</tspan><tspan class="cls-5" x="22.03" y="0">t</tspan><tspan x="28.89" y="0">e</tspan><tspan class="cls-6" x="39.94" y="0">w</tspan><tspan x="54.45" y="0">ay: w</tspan><tspan class="cls-4" x="98.44" y="0">w</tspan><tspan x="113.13" y="0">g</tspan><tspan class="cls-8" x="124.99" y="0">a</tspan><tspan class="cls-9" x="135.16" y="0">t</tspan><tspan x="142.02" y="0">e</tspan><tspan class="cls-6" x="153.07" y="0">w</tspan><tspan x="167.58" y="0">ay</tspan></text><line class="cls-10" x1="46.6" y1="412.26" x2="678.77" y2="412.26"/><text class="cls-3" transform="translate(48.64 470.24)">2/8/2022 10:43 AM</text><text class="cls-3" transform="translate(239.43 470.09)">CloudApi</text><text class="cls-3" transform="translate(353.05 457.94)">G<tspan class="cls-4" x="14.71" y="0">a</tspan><tspan class="cls-5" x="24.88" y="0">t</tspan><tspan x="31.73" y="0">e</tspan><tspan class="cls-6" x="42.79" y="0">w</tspan><tspan x="57.29" y="0">ay sent h</tspan><tspan class="cls-16" x="132.08" y="0">e</tspan><tspan x="142.99" y="0">alth</tspan></text><text class="cls-7" transform="translate(353.05 482.18)">g<tspan class="cls-4" x="11.86" y="0">a</tspan><tspan class="cls-5" x="22.03" y="0">t</tspan><tspan x="28.89" y="0">e</tspan><tspan class="cls-6" x="39.94" y="0">w</tspan><tspan x="54.45" y="0">ay: w</tspan><tspan class="cls-4" x="98.44" y="0">w</tspan><tspan x="113.13" y="0">g</tspan><tspan class="cls-8" x="124.99" y="0">a</tspan><tspan class="cls-9" x="135.16" y="0">t</tspan><tspan x="142.02" y="0">e</tspan><tspan class="cls-6" x="153.07" y="0">w</tspan><tspan x="167.58" y="0">ay</tspan></text><line class="cls-10" x1="46.6" y1="499.26" x2="678.77" y2="499.26"/><text class="cls-3" transform="translate(48.64 558.24)">2/8/2022 10:18 AM</text><text class="cls-3" transform="translate(239.43 558.09)">CloudApi</text><text class="cls-3" transform="translate(353.05 545.94)">G<tspan class="cls-4" x="14.71" y="0">a</tspan><tspan class="cls-5" x="24.88" y="0">t</tspan><tspan x="31.73" y="0">e</tspan><tspan class="cls-6" x="42.79" y="0">w</tspan><tspan x="57.29" y="0">ay repo</tspan><tspan class="cls-17" x="121.88" y="0">r</tspan><tspan class="cls-5" x="128.27" y="0">t</tspan><tspan x="135.12" y="0">ed lo</tspan><tspan class="cls-16" x="177.37" y="0">c</tspan><tspan x="188.08" y="0">al in</tspan><tspan class="cls-18" x="220.51" y="0">f</tspan><tspan x="227.21" y="0">orm</tspan><tspan class="cls-4" x="261.71" y="0">a</tspan><tspan x="271.88" y="0">tion</tspan></text><text class="cls-7" transform="translate(353.05 570.18)">g<tspan class="cls-4" x="11.86" y="0">a</tspan><tspan class="cls-5" x="22.03" y="0">t</tspan><tspan x="28.89" y="0">e</tspan><tspan class="cls-6" x="39.94" y="0">w</tspan><tspan x="54.45" y="0">ay: w</tspan><tspan class="cls-4" x="98.44" y="0">w</tspan><tspan x="113.13" y="0">g</tspan><tspan class="cls-8" x="124.99" y="0">a</tspan><tspan class="cls-9" x="135.16" y="0">t</tspan><tspan x="142.02" y="0">e</tspan><tspan class="cls-6" x="153.07" y="0">w</tspan><tspan x="167.58" y="0">ay</tspan></text><line class="cls-10" x1="46.6" y1="241.26" x2="678.77" y2="241.26"/><text class="cls-19" transform="translate(46.91 223.42)">Times<tspan class="cls-20" x="54.04" y="0">t</tspan><tspan x="61.83" y="0">amp</tspan></text><line class="cls-10" x1="47.27" y1="93.49" x2="680.27" y2="93.49"/><text class="cls-21" transform="translate(95.91 65.34)">E<tspan class="cls-22" x="17.85" y="0">v</tspan><tspan x="34.53" y="0">ents</tspan></text><text class="cls-23" transform="translate(239.91 223.42)">Source</text><text class="cls-23" transform="translate(354.91 223.42)">Message</text><line class="cls-24" x1="46.82" y1="54.69" x2="48.76" y2="56.44"/><line class="cls-24" x1="51.28" y1="52.95" x2="48.76" y2="56.44"/><line class="cls-24" x1="46.82" y1="45.49" x2="48.76" y2="47.24"/><line class="cls-24" x1="51.28" y1="43.74" x2="48.76" y2="47.24"/><circle class="cls-25" cx="48.8" cy="64.64" r="2.48"/><line class="cls-26" x1="57.09" y1="45.79" x2="81.55" y2="45.79"/><line class="cls-26" x1="57.09" y1="64.97" x2="81.55" y2="64.97"/><line class="cls-26" x1="57.09" y1="55.1" x2="81.55" y2="55.1"/><rect class="cls-1" x="47.06" y="121.56" width="294.23" height="47.93" rx="3.5"/><path class="cls-27" d="M941,241.07a3,3,0,0,1,3,3V285a3,3,0,0,1-3,3H653.79a3,3,0,0,1-3-3V244.07a3,3,0,0,1,3-3H941m0-1H653.79a4,4,0,0,0-4,4V285a4,4,0,0,0,4,4H941a4,4,0,0,0,4-4V244.07a4,4,0,0,0-4-4Z" transform="translate(-603.23 -119.01)"/><rect class="cls-1" x="382.04" y="121.56" width="294.23" height="47.93" rx="3.5"/><path class="cls-27" d="M1276,241.07a3,3,0,0,1,3,3V285a3,3,0,0,1-3,3H988.77a3,3,0,0,1-3-3V244.07a3,3,0,0,1,3-3H1276m0-1H988.77a4,4,0,0,0-4,4V285a4,4,0,0,0,4,4H1276a4,4,0,0,0,4-4V244.07a4,4,0,0,0-4-4Z" transform="translate(-603.23 -119.01)"/><text class="cls-28" transform="translate(82.32 152.7) scale(1.02 1)">s<tspan class="cls-29" x="9.2" y="0">e</tspan><tspan x="20.11" y="0">arch </tspan><tspan class="cls-30" x="61.16" y="0">t</tspan><tspan class="cls-31" x="68.02" y="0">e</tspan><tspan x="78.89" y="0">xt</tspan></text><text class="cls-28" transform="translate(395.32 152.7) scale(1.02 1)">time<tspan class="cls-29" x="38.88" y="0">f</tspan><tspan x="45.88" y="0">rame</tspan></text><circle class="cls-32" cx="65.22" cy="145.49" r="6.45"/><line class="cls-33" x1="73.3" y1="154.47" x2="69.42" y2="150.59"/><line class="cls-34" x1="163.79" y1="223.14" x2="163.79" y2="210.08"/><line class="cls-35" x1="169.89" y1="217.48" x2="163.79" y2="223.58"/><line class="cls-36" x1="163.79" y1="223.58" x2="157.7" y2="217.48"/></svg>