<svg width="128" height="38" viewBox="0 0 128 38" fill="none" xmlns="http://www.w3.org/2000/svg">
<path d="M41.3301 31H44.4801L46.3101 25.75H55.8501L57.6801 31H60.8301L52.8201 8.65004H49.3401L41.3301 31ZM47.2401 23.05L51.0801 11.98L54.9201 23.05H47.2401Z" fill="black" fill-opacity="0.75"/>
<path d="M68.7534 31.36C69.7534 31.36 70.6534 31.16 71.4534 30.76C72.2534 30.34 72.8934 29.76 73.3734 29.02V31H76.1034V14.83H73.2834V24.4C73.2834 25.72 72.9134 26.76 72.1734 27.52C71.4534 28.28 70.5234 28.66 69.3834 28.66C68.2234 28.66 67.2834 28.3 66.5634 27.58C65.8434 26.84 65.4834 25.86 65.4834 24.64V14.83H62.6934V24.94C62.6934 26.2 62.9534 27.32 63.4734 28.3C63.9934 29.26 64.7034 30.01 65.6034 30.55C66.5234 31.09 67.5734 31.36 68.7534 31.36Z" fill="black" fill-opacity="0.75"/>
<path d="M86.9957 31.18C87.2157 31.18 87.4857 31.16 87.8057 31.12C88.1257 31.1 88.4157 31.06 88.6757 31V28.54C88.4957 28.56 88.3057 28.58 88.1057 28.6C87.9057 28.62 87.7257 28.63 87.5657 28.63C86.5857 28.63 85.8857 28.39 85.4657 27.91C85.0657 27.41 84.8657 26.75 84.8657 25.93V17.5H88.4957V14.83H84.8657V11.11H82.0757V12.43C82.0757 13.17 81.8657 13.76 81.4457 14.2C81.0257 14.62 80.4557 14.83 79.7357 14.83H79.1357V17.5H82.0757V26.02C82.0757 27.66 82.4957 28.93 83.3357 29.83C84.1957 30.73 85.4157 31.18 86.9957 31.18Z" fill="black" fill-opacity="0.75"/>
<path d="M92.3202 31H95.1102V21.43C95.1102 20.11 95.4802 19.07 96.2202 18.31C96.9802 17.55 97.9202 17.17 99.0402 17.17C100.16 17.17 101.08 17.55 101.8 18.31C102.54 19.05 102.91 20.09 102.91 21.43V31H105.73V20.53C105.73 19.37 105.46 18.34 104.92 17.44C104.4 16.52 103.68 15.8 102.76 15.28C101.86 14.74 100.83 14.47 99.6702 14.47C98.6902 14.47 97.8002 14.67 97.0002 15.07C96.2202 15.45 95.5902 16 95.1102 16.72V8.29004H92.3202V31Z" fill="black" fill-opacity="0.75"/>
<path d="M118.453 31.36C120.233 31.36 121.783 30.88 123.103 29.92C124.423 28.96 125.453 27.61 126.193 25.87C126.933 24.13 127.303 22.11 127.303 19.81C127.303 17.51 126.933 15.5 126.193 13.78C125.453 12.04 124.413 10.69 123.073 9.73004C121.753 8.77004 120.203 8.29004 118.423 8.29004C116.663 8.29004 115.113 8.77004 113.773 9.73004C112.453 10.69 111.423 12.04 110.683 13.78C109.943 15.5 109.573 17.51 109.573 19.81C109.573 22.11 109.943 24.13 110.683 25.87C111.423 27.59 112.463 28.94 113.803 29.92C115.143 30.88 116.693 31.36 118.453 31.36ZM118.453 28.63C117.253 28.63 116.203 28.27 115.303 27.55C114.423 26.81 113.733 25.78 113.233 24.46C112.753 23.12 112.513 21.57 112.513 19.81C112.513 18.03 112.753 16.49 113.233 15.19C113.733 13.87 114.423 12.85 115.303 12.13C116.203 11.39 117.243 11.02 118.423 11.02C119.623 11.02 120.663 11.39 121.543 12.13C122.443 12.85 123.133 13.87 123.613 15.19C124.113 16.49 124.363 18.03 124.363 19.81C124.363 21.59 124.113 23.14 123.613 24.46C123.133 25.78 122.453 26.81 121.573 27.55C120.693 28.27 119.653 28.63 118.453 28.63Z" fill="black" fill-opacity="0.75"/>
<path d="M26.1998 30.7412L22.4964 19L32.1914 11.7452H20.2031L16.5009 0H28.4892L32.194 11.7439C33.2702 15.1574 33.2696 18.8342 32.1924 22.2473C31.1151 25.6605 29.0165 28.6348 26.1973 30.7439L26.1998 30.7412ZM6.80589 30.7412L16.5009 38L26.1998 30.7412L16.5009 23.4851L6.80589 30.7412ZM0.811744 11.7412C-0.265179 15.1545 -0.265378 18.8313 0.811176 22.2447C1.88773 25.6581 3.98577 28.6328 6.8046 30.7426L10.5094 19.0027L0.815612 11.7439H12.7974L16.5009 0H4.51264L0.811744 11.7412Z" fill="black" fill-opacity="0.75"/>
</svg>
