<svg width="180" height="46" viewBox="0 0 180 46" fill="none" xmlns="http://www.w3.org/2000/svg">
<path d="M53.3301 36.0004H56.4801L58.3101 30.7504H67.8501L69.6801 36.0004H72.8301L64.8201 13.6504H61.3401L53.3301 36.0004ZM59.2401 28.0504L63.0801 16.9804L66.9201 28.0504H59.2401Z" fill="black" fill-opacity="0.75"/>
<path d="M73.7263 36.0004H86.3863V33.3304H77.5963L86.3263 22.2004V19.8304H74.2063V22.5004H82.5463L73.7263 33.6304V36.0004Z" fill="black" fill-opacity="0.75"/>
<path d="M94.8452 36.3604C95.8452 36.3604 96.7452 36.1604 97.5452 35.7604C98.3452 35.3404 98.9852 34.7604 99.4652 34.0204V36.0004H102.195V19.8304H99.3752V29.4004C99.3752 30.7204 99.0052 31.7604 98.2652 32.5204C97.5452 33.2804 96.6152 33.6604 95.4752 33.6604C94.3152 33.6604 93.3752 33.3004 92.6552 32.5804C91.9352 31.8404 91.5752 30.8604 91.5752 29.6404V19.8304H88.7852V29.9404C88.7852 31.2004 89.0452 32.3204 89.5652 33.3004C90.0852 34.2604 90.7952 35.0104 91.6952 35.5504C92.6152 36.0904 93.6652 36.3604 94.8452 36.3604Z" fill="black" fill-opacity="0.75"/>
<path d="M106.517 36.0004H109.307V26.3704C109.307 25.0704 109.657 24.0704 110.357 23.3704C111.057 22.6504 111.978 22.2904 113.118 22.2904H114.528V19.6504H113.537C112.537 19.6504 111.678 19.8304 110.958 20.1904C110.238 20.5304 109.667 21.0504 109.247 21.7504V19.8304H106.517V36.0004Z" fill="black" fill-opacity="0.75"/>
<path d="M124.446 36.3604C126.106 36.3604 127.546 35.9704 128.766 35.1904C129.986 34.4104 130.846 33.4604 131.346 32.3404L129.006 31.1404C128.546 31.9204 127.946 32.5604 127.206 33.0604C126.466 33.5604 125.556 33.8104 124.476 33.8104C123.576 33.8104 122.736 33.6104 121.956 33.2104C121.196 32.7904 120.566 32.2004 120.066 31.4404C119.586 30.6804 119.326 29.7804 119.286 28.7404H131.646C131.746 28.2004 131.796 27.7004 131.796 27.2404C131.796 25.9004 131.496 24.6404 130.896 23.4604C130.296 22.2804 129.426 21.3204 128.286 20.5804C127.166 19.8404 125.806 19.4704 124.206 19.4704C122.706 19.4704 121.366 19.8304 120.186 20.5504C119.006 21.2704 118.066 22.2704 117.366 23.5504C116.686 24.8104 116.346 26.2504 116.346 27.8704C116.346 29.4904 116.696 30.9404 117.396 32.2204C118.096 33.5004 119.056 34.5104 120.276 35.2504C121.496 35.9904 122.886 36.3604 124.446 36.3604ZM124.206 21.9604C125.026 21.9604 125.776 22.1504 126.456 22.5304C127.136 22.8904 127.686 23.4004 128.106 24.0604C128.526 24.7204 128.746 25.4804 128.766 26.3404H119.346C119.546 24.9804 120.106 23.9104 121.026 23.1304C121.946 22.3504 123.006 21.9604 124.206 21.9604Z" fill="black" fill-opacity="0.75"/>
<path d="M138.789 36.0004H141.939L143.769 30.7504H153.309L155.139 36.0004H158.289L150.279 13.6504H146.799L138.789 36.0004ZM144.699 28.0504L148.539 16.9804L152.379 28.0504H144.699Z" fill="black" fill-opacity="0.75"/>
<path d="M161.105 36.0004H168.425C170.685 36.0004 172.655 35.5304 174.335 34.5904C176.015 33.6504 177.315 32.3404 178.235 30.6604C179.155 28.9804 179.615 27.0304 179.615 24.8104C179.615 22.5704 179.155 20.6204 178.235 18.9604C177.315 17.2804 176.015 15.9804 174.335 15.0604C172.655 14.1204 170.685 13.6504 168.425 13.6504H161.105V36.0004ZM164.045 33.3004V16.3504H168.455C170.095 16.3504 171.515 16.7004 172.715 17.4004C173.935 18.0804 174.875 19.0504 175.535 20.3104C176.215 21.5704 176.555 23.0704 176.555 24.8104C176.555 26.5304 176.225 28.0304 175.565 29.3104C174.905 30.5904 173.965 31.5804 172.745 32.2804C171.545 32.9604 170.115 33.3004 168.455 33.3004H164.045Z" fill="black" fill-opacity="0.75"/>
<g clip-path="url(#clip0_735_1831)">
<path d="M22.4744 -0.000976562C22.5218 -0.000976562 22.5707 0.0602175 22.6425 0.169481C22.7143 0.278745 27.7631 6.42373 33.8921 13.8478C40.0211 21.2719 45.0226 27.379 44.9981 27.4154C44.9737 27.4519 40.1059 31.5121 34.1564 36.4246C28.207 41.3371 23.1466 45.5197 22.9183 45.7149C22.5218 46.0442 22.4974 46.0558 22.3538 45.9101C22.2705 45.8242 17.1972 41.6183 11.0797 36.5586C4.96223 31.499 -0.0262821 27.3309 -0.00186386 27.2698C0.0225544 27.2086 5.04554 21.1262 11.1889 13.7386C17.3322 6.35089 22.3538 0.242317 22.3782 0.144708C22.4026 0.0470994 22.44 -0.000976562 22.4744 -0.000976562Z" fill="black" fill-opacity="0.75"/>
<path d="M21.6452 38.6812C20.9485 38.4262 20.1068 37.6949 19.7592 37.0116C19.3283 36.171 19.3628 34.854 19.8425 33.8066C20.216 33.0272 20.216 33.0024 19.9747 32.8188C19.8425 32.7212 18.251 31.8194 16.4412 30.8317L12.9551 28.9188C12.8115 28.8329 12.5716 28.9188 12.1378 29.1986C10.7316 30.1003 9.2651 30.0027 8.116 28.9188C7.28722 28.138 7.0459 27.5887 7.0459 26.4684C7.0459 25.3816 7.26279 24.8222 7.94794 24.1273C8.87296 23.189 10.1111 22.8715 11.3004 23.2735C11.9497 23.4935 11.9626 23.4935 12.3705 23.1759C12.8517 22.8103 16.7098 19.2424 18.5728 17.4461L19.8655 16.2034L19.4806 15.3862C18.6992 13.7414 19.0956 11.9116 20.4659 10.8146C21.2114 10.2173 21.7586 10.0352 22.8345 10.0352C25.3337 10.0352 27.0761 12.6924 26.1381 15.07C25.8853 15.7285 25.8853 15.7402 26.1252 16.1423C26.3306 16.4963 29.8037 20.7503 31.6423 22.921C31.9669 23.2983 32.3274 23.6028 32.4481 23.6028C32.7613 23.5476 33.0677 23.4577 33.3616 23.3347C35.1528 22.6151 37.0387 23.4207 37.7842 25.2286C38.2654 26.3868 37.8445 27.9471 36.8233 28.8868C36.1051 29.5438 35.5722 29.7507 34.6113 29.7507C33.939 29.7507 33.6862 29.6779 32.9767 29.2874C32.4481 28.996 32.0387 28.8504 31.8707 28.897C31.5834 28.9713 27.1465 32.0554 26.1611 32.8596C25.5593 33.3593 25.5119 33.5429 25.825 34.2859C26.1381 35.0288 26.0893 36.1623 25.7517 36.882C25.3797 37.6745 24.459 38.467 23.6489 38.7118C22.8388 38.9565 22.3389 38.9434 21.6523 38.687L21.6452 38.6812ZM21.8506 25.2476V18.2984L21.4656 17.7623C21.3365 17.5646 21.183 17.3844 21.0088 17.2262C20.8523 17.2262 13.0873 24.3822 13.0873 24.5279C13.1621 24.7964 13.2503 25.061 13.3516 25.3204C13.5014 25.7413 13.5829 26.1842 13.5929 26.6316C13.5799 26.9608 13.5814 27.3265 13.5814 27.4474C13.5929 27.7286 16.1884 29.4112 20.0838 31.6898C21.1539 32.3235 21.5202 32.4823 21.6638 32.373C21.819 32.239 21.8563 30.8856 21.8563 25.2534L21.8506 25.2476ZM25.1427 31.3911C30.2878 28.1117 31.2487 27.4576 31.309 27.2099C31.3707 26.782 31.4029 26.3502 31.4053 25.9177L31.4412 24.8979L28.8212 21.7409C26.0088 18.364 24.9747 17.2247 24.7348 17.2247C24.65 17.2247 24.2306 17.468 23.7968 17.7608L23.0039 18.2969L23.0399 25.2345C23.0758 31.4523 23.1246 32.4998 23.353 32.4998C23.3774 32.5129 24.1933 32.0132 25.1441 31.4028L25.1427 31.3911Z" fill="white" stroke="white" stroke-linecap="round" stroke-linejoin="round"/>
</g>
<defs>
<clipPath id="clip0_735_1831">
<rect width="45" height="46" fill="white"/>
</clipPath>
</defs>
</svg>
