<svg width="113" height="28" viewBox="0 0 113 28" fill="none" xmlns="http://www.w3.org/2000/svg">
<g clip-path="url(#clip0_635_2887)">
<path d="M20.7701 7.92753C19.9516 7.07587 18.9876 6.37704 17.9235 5.86389C16.9095 5.38662 15.6294 5.15707 14.1584 5.15707C13.0084 5.15318 11.8684 5.36999 10.8002 5.79571C9.77472 6.20068 8.83968 6.80473 8.04909 7.57298C7.23217 8.36157 6.58801 9.31117 6.15742 10.3616C5.68673 11.5153 5.4547 12.7523 5.47532 13.998C5.45464 15.2437 5.68667 16.4807 6.15742 17.6343C6.58828 18.6793 7.23257 19.6229 8.04909 20.4048C8.85606 21.1755 9.80297 21.7849 10.8388 22.2003C11.9249 22.6265 13.0826 22.8402 14.2493 22.8298C15.3902 22.8457 16.5246 22.6563 17.5984 22.2707C18.5029 21.9332 19.3382 21.4333 20.063 20.7957C20.551 20.3439 20.9693 19.8223 21.3044 19.248C21.6807 18.5956 21.971 17.8974 22.1684 17.1707H14.0833V12.5866H27.2705C27.3571 12.9612 27.4209 13.3407 27.4614 13.723C27.515 14.1603 27.5408 14.6006 27.5387 15.0412C27.5578 16.7302 27.2863 18.41 26.7361 20.0071C26.2077 21.4886 25.3822 22.8466 24.3102 23.998C23.0958 25.2776 21.6233 26.2847 19.9902 26.9525C18.3032 27.6571 16.3752 28.0003 14.2107 28.0003C12.3253 28.0156 10.4555 27.6588 8.70844 26.9503C7.03043 26.2679 5.49561 25.2765 4.1839 24.0275C2.89273 22.7657 1.85544 21.2682 1.12812 19.6162C0.354646 17.8461 -0.0328877 15.9317 -0.00869917 14.0003C-0.0219188 12.0699 0.365158 10.1577 1.12812 8.38434C1.83746 6.71695 2.87689 5.21022 4.1839 3.9548C5.49029 2.70145 7.02871 1.71484 8.71299 1.05025C10.4597 0.345804 12.3272 -0.0108717 14.2107 0.000252403C16.4275 0.000252403 18.3964 0.382071 20.0971 1.13662C21.7662 1.8784 23.2675 2.95076 24.5103 4.28889L20.7701 7.92753Z" fill="black" fill-opacity="0.75"/>
<path d="M54.6471 20.228C54.6471 22.5764 53.7869 24.4704 52.0665 25.9098C50.3295 27.303 48.2014 28.0098 45.7003 28.0098C43.5749 28.0409 41.501 27.3547 39.8139 26.0621C38.1155 24.7621 36.9491 22.9871 36.2988 20.753L39.5865 19.3893C39.7959 20.1547 40.1104 20.8875 40.521 21.5666C40.8977 22.1891 41.3686 22.7495 41.917 23.228C42.447 23.6832 43.0465 24.0507 43.6927 24.3166C44.3476 24.5856 45.0492 24.7224 45.7572 24.7189C47.3237 24.7189 48.6243 24.3166 49.6224 23.4961C50.1058 23.1116 50.4923 22.6191 50.7509 22.0583C51.0095 21.4974 51.1331 20.8838 51.1116 20.2666C51.1157 19.7268 51.0075 19.1921 50.7937 18.6964C50.58 18.2007 50.2655 17.7548 49.8702 17.3871C49.1063 16.6234 47.6534 15.8598 45.5321 15.1348C43.3926 14.3711 42.0557 13.8348 41.5191 13.5689C38.6725 12.1098 37.2583 9.98933 37.2583 7.15978C37.2583 5.19009 38.042 3.50978 39.6093 2.11887C41.2144 0.72342 43.163 0.0166016 45.4934 0.0166016C47.5397 0.0166016 49.3154 0.532511 50.8069 1.58478C52.2985 2.63706 53.308 3.89387 53.8059 5.44842L50.6228 6.7666C50.3167 5.76707 49.6924 4.89481 48.8448 4.28251C47.8629 3.61307 46.6967 3.26624 45.5084 3.29027C44.3201 3.3143 43.1688 3.70801 42.2148 4.4166C41.7837 4.72383 41.4342 5.13158 41.1964 5.60447C40.9587 6.07736 40.84 6.6011 40.8507 7.13024C40.85 7.58286 40.947 8.03032 41.1349 8.44212C41.3228 8.85392 41.5973 9.2204 41.9397 9.5166C42.7423 10.1848 44.4817 10.9871 47.1373 11.9052C49.8497 12.8143 51.7983 13.9666 52.9646 15.3143C54.0742 16.6371 54.6471 18.278 54.6471 20.228Z" fill="black" fill-opacity="0.75"/>
<path d="M73.7345 27.3868H70.4491V24.8482H70.2967C69.7095 25.8008 68.8782 26.5792 67.8889 27.1027C66.8562 27.6868 65.6922 27.9996 64.5058 28.0118C62.2526 28.0118 60.5314 27.3618 59.3287 26.0823C58.1259 24.8027 57.5098 22.9686 57.5098 20.6005V9.05273H60.9498V20.3595C61.0271 23.3595 62.5413 24.8482 65.4789 24.8482C66.1415 24.8562 66.7969 24.7104 67.3934 24.4221C67.99 24.1338 68.5114 23.7109 68.9166 23.1868C69.8384 22.0674 70.3281 20.6546 70.2967 19.205V9.05273H73.7345V27.3868Z" fill="black" fill-opacity="0.75"/>
<path d="M81.5888 2.73168C81.5949 3.0512 81.5353 3.36858 81.4136 3.66413C81.292 3.95968 81.1109 4.22711 80.8817 4.44986C80.4244 4.90287 79.8066 5.15702 79.1628 5.15702C78.519 5.15702 77.9012 4.90287 77.4439 4.44986C77.2142 4.22745 77.0329 3.96007 76.9112 3.66444C76.7896 3.36881 76.7302 3.05128 76.7368 2.73168C76.7319 2.41366 76.792 2.09798 76.9136 1.80406C77.0352 1.51014 77.2157 1.2442 77.4439 1.02259C77.9012 0.569583 78.519 0.31543 79.1628 0.31543C79.8066 0.31543 80.4244 0.569583 80.8817 1.02259C81.1095 1.24453 81.2897 1.51053 81.4112 1.80437C81.5328 2.09821 81.5932 2.41373 81.5888 2.73168ZM80.8817 9.05214V27.3862H77.4439V9.05214H80.8817Z" fill="black" fill-opacity="0.75"/>
<path d="M91.4491 27.693C89.9576 27.693 88.7155 27.2385 87.7226 26.3294C86.7291 25.4203 86.2311 24.1158 86.2129 22.4658V12.2044H82.9844V9.05211H86.1925V3.43848H89.6325V9.05211H94.1229V12.2044H89.6325V21.3339C89.6325 22.5567 89.8598 23.3794 90.3396 23.818C90.7702 24.2342 91.3459 24.4665 91.9448 24.4658C92.2149 24.4621 92.4839 24.4301 92.7474 24.3703C92.9965 24.3111 93.2394 24.2282 93.4727 24.1226L94.5617 27.1976C93.5621 27.5472 92.5079 27.715 91.4491 27.693Z" fill="black" fill-opacity="0.75"/>
<path d="M104.327 27.9824C101.633 27.9824 99.4158 27.0733 97.6583 25.2119C95.9008 23.3505 95.0391 21.0233 95.0391 18.221C95.0391 15.4187 95.8803 13.1028 97.581 11.2506C99.2817 9.39828 101.446 8.46191 104.097 8.46191C106.81 8.46191 108.988 9.33919 110.593 11.0983C112.198 12.8574 113.001 15.3187 113.001 18.4892L112.962 18.871H98.5632C98.62 20.6665 99.2112 22.1187 100.359 23.2074C100.904 23.7378 101.547 24.1557 102.254 24.4373C102.96 24.7189 103.714 24.8585 104.475 24.8483C106.671 24.8483 108.392 23.7596 109.634 21.5642L112.71 23.0528C111.929 24.5556 110.749 25.8139 109.299 26.6892C107.79 27.561 106.074 28.0101 104.331 27.9892L104.327 27.9824ZM98.8224 16.0051H109.352C109.319 15.3982 109.166 14.8039 108.9 14.2574C108.634 13.7109 108.261 13.2232 107.803 12.8233C106.867 11.9846 105.607 11.5642 104.04 11.5642C102.815 11.5381 101.624 11.9664 100.696 12.7665C99.7316 13.6103 99.073 14.7488 98.8224 16.0051Z" fill="black" fill-opacity="0.75"/>
</g>
<defs>
<clipPath id="clip0_635_2887">
<rect width="113" height="28" fill="white"/>
</clipPath>
</defs>
</svg>
