<svg width="106" height="35" viewBox="0 0 106 35" fill="none" xmlns="http://www.w3.org/2000/svg">
<g clip-path="url(#clip0_635_2895)">
<path d="M13.3295 8.78223C10.6932 8.78223 8.11606 9.54876 5.92403 10.9849C3.73201 12.421 2.02353 14.4622 1.01465 16.8504C0.00577549 19.2386 -0.258193 21.8665 0.256129 24.4018C0.77045 26.9371 2.03996 29.2659 3.90413 31.0937C5.76829 32.9216 8.14338 34.1664 10.729 34.6707C13.3147 35.175 15.9948 34.9161 18.4305 33.9269C20.8661 32.9377 22.9479 31.2625 24.4126 29.1132C25.8772 26.9639 26.659 24.437 26.659 21.852C26.66 20.1354 26.316 18.4354 25.6465 16.8492C24.977 15.2631 23.9952 13.8218 22.7572 12.608C21.5192 11.3941 20.0494 10.4315 18.4317 9.77502C16.814 9.11856 15.0803 8.7812 13.3295 8.78223ZM13.3295 28.3999C12.0087 28.3999 10.7176 28.0159 9.61941 27.2964C8.52121 26.5769 7.66528 25.5542 7.15984 24.3578C6.6544 23.1613 6.52215 21.8447 6.77982 20.5746C7.03749 19.3044 7.67351 18.1377 8.60744 17.222C9.54138 16.3062 10.7313 15.6826 12.0267 15.4299C13.3221 15.1773 14.6648 15.307 15.8851 15.8026C17.1053 16.2982 18.1483 17.1374 18.8821 18.2142C19.6158 19.291 20.0075 20.557 20.0075 21.852C20.0061 23.5882 19.3021 25.2529 18.05 26.4805C16.7979 27.7082 15.1002 28.3985 13.3295 28.3999Z" fill="black" fill-opacity="0.75"/>
<path d="M36.7547 26.2435C36.7544 26.0145 36.8238 25.7907 36.9539 25.6006C37.084 25.4105 37.2691 25.2627 37.4853 25.1763C37.7015 25.0898 37.9391 25.0685 38.1677 25.1151C38.3963 25.1617 38.6056 25.2742 38.7687 25.438C42.1077 28.7639 47.6197 34.4803 47.6462 34.5063C47.7682 34.6564 47.935 34.7654 48.1232 34.8181C48.3134 34.8663 48.5103 34.8838 48.7062 34.8701H54.7217C55.8082 34.8701 56.1262 33.6488 55.6227 33.0252L45.6587 23.0215L45.1287 22.5019C43.9892 21.1767 44.1217 20.657 45.4202 19.3059L53.3172 10.6533C53.449 10.4851 53.5299 10.2839 53.5506 10.0727C53.5713 9.86154 53.5309 9.64892 53.4342 9.45918C53.3374 9.26943 53.1881 9.11022 53.0034 8.99974C52.8187 8.88926 52.606 8.83198 52.3897 8.83445H46.9307C46.7523 8.82325 46.5733 8.8408 46.4007 8.88641C46.1949 8.93281 46.0093 9.04197 45.8707 9.19822C45.8442 9.2242 41.4717 13.8493 38.7687 16.6815C38.6045 16.8532 38.3915 16.9724 38.1572 17.0237C37.923 17.075 37.6785 17.0559 37.4554 16.969C37.2324 16.8821 37.0412 16.7313 36.9068 16.5364C36.7724 16.3415 36.7009 16.1113 36.7017 15.876V1.03935C36.7017 0.28582 36.0657 0 35.5622 0H31.1102C30.3417 0 29.9707 0.49369 29.9707 0.935412V33.8307C29.9707 34.5843 30.6067 34.7921 31.1367 34.7921H35.5887C35.8733 34.8092 36.1532 34.7148 36.3668 34.5297C36.5805 34.3445 36.7105 34.0838 36.7282 33.8048V26.2435H36.7547Z" fill="black" fill-opacity="0.75"/>
<path d="M73.1131 33.6744L72.6361 29.3091C72.6203 29.1671 72.5747 29.0298 72.5024 28.9057C72.43 28.7817 72.3323 28.6737 72.2154 28.5883C72.0985 28.503 71.965 28.4422 71.823 28.4097C71.6811 28.3773 71.5339 28.3739 71.3906 28.3997C71.0486 28.4515 70.7031 28.4775 70.3571 28.4777C68.653 28.4736 67.0149 27.8309 65.7783 26.6813C64.5418 25.5316 63.8002 23.9619 63.7056 22.2935V16.5771C63.6999 16.4128 63.7278 16.249 63.7878 16.0955C63.8477 15.9419 63.9384 15.8016 64.0544 15.683C64.1705 15.5643 64.3097 15.4696 64.4637 15.4045C64.6176 15.3394 64.7834 15.3052 64.9511 15.3039H70.9136C71.2041 15.2904 71.4777 15.166 71.6758 14.9571C71.874 14.7483 71.9808 14.4718 71.9736 14.1866V10.0552C71.9736 9.24975 71.4436 8.83401 70.9666 8.83401H64.9511C64.6248 8.84245 64.3083 8.72442 64.0701 8.50554C63.832 8.28665 63.6915 7.98455 63.6791 7.66474V1.03891C63.6772 0.896281 63.6458 0.755512 63.5868 0.625112C63.5279 0.494712 63.4426 0.37739 63.3361 0.280237C63.2295 0.183085 63.104 0.108122 62.9671 0.0598796C62.8302 0.0116371 62.6848 -0.00888242 62.5396 -0.000438452H58.1141C57.9733 -0.0102221 57.832 0.00888019 57.6992 0.0556487C57.5664 0.102417 57.445 0.175824 57.3428 0.271183C57.2405 0.366542 57.1597 0.481757 57.1054 0.609472C57.0511 0.737187 57.0246 0.874596 57.0276 1.01292V22.2935C57.1209 25.6975 58.5667 28.9311 61.0568 31.3047C63.5469 33.6783 66.8842 35.0042 70.3571 34.9996C70.9512 34.996 71.5445 34.9526 72.1326 34.8696C72.2781 34.8572 72.4196 34.8159 72.5486 34.7485C72.6775 34.681 72.7912 34.5887 72.8827 34.477C72.9743 34.3654 73.042 34.2367 73.0815 34.0988C73.1211 33.9608 73.1318 33.8165 73.1131 33.6744Z" fill="black" fill-opacity="0.75"/>
<path d="M105.231 28.1926C101.468 28.1926 100.885 26.8675 100.885 21.9046V9.92611C100.885 9.77727 100.854 9.62999 100.795 9.49288C100.736 9.35576 100.65 9.23156 100.541 9.12753C100.433 9.0235 100.304 8.94174 100.163 8.88701C100.022 8.83229 99.871 8.80571 99.7192 8.80881H95.2672C94.9627 8.8094 94.6704 8.92649 94.4527 9.13517C94.2349 9.34385 94.1088 9.62764 94.1012 9.92611V10.4718C92.1016 9.3454 89.8353 8.75401 87.5292 8.75685C85.3803 8.75585 83.263 9.26427 81.3578 10.2388C79.4526 11.2133 77.8159 12.625 76.5872 14.3536C75.3585 16.0823 74.5743 18.0765 74.3013 20.1665C74.0284 22.2564 74.2748 24.3801 75.0196 26.3565C75.7643 28.3329 76.9854 30.1035 78.5787 31.5173C80.172 32.9311 82.0903 33.9462 84.1701 34.4762C86.2499 35.0062 88.4295 35.0353 90.5232 34.561C92.617 34.0867 94.5627 33.1232 96.1947 31.7524C97.4402 33.6232 99.4542 34.8704 102.608 34.8964C103.138 34.8964 106 35.0004 106 33.6752V29.0241C106.002 28.8159 105.925 28.6145 105.782 28.4602C105.64 28.306 105.443 28.2103 105.231 28.1926ZM87.5557 28.4005C86.2349 28.4005 84.9438 28.0165 83.8456 27.297C82.7474 26.5775 81.8915 25.5549 81.386 24.3584C80.8806 23.1619 80.7483 21.8454 81.006 20.5752C81.2637 19.305 81.8997 18.1383 82.8336 17.2226C83.7676 16.3068 84.9575 15.6832 86.2529 15.4305C87.5483 15.1779 88.891 15.3076 90.1112 15.8032C91.3315 16.2988 92.3745 17.138 93.1082 18.2148C93.842 19.2916 94.2337 20.5576 94.2337 21.8526C94.2323 23.5888 93.5283 25.2535 92.2762 26.4812C91.0241 27.7088 89.3264 28.3991 87.5557 28.4005Z" fill="black" fill-opacity="0.75"/>
</g>
<defs>
<clipPath id="clip0_635_2895">
<rect width="106" height="35" fill="white"/>
</clipPath>
</defs>
</svg>
