<svg width="79" height="92" viewBox="0 0 79 92" fill="none" xmlns="http://www.w3.org/2000/svg">
<path d="M11.85 35.4489V59.2398C11.85 62.4019 9.3615 64.9295 6.19163 64.9295C3.04479 64.9295 0 62.3821 0 59.2398V35.4489C0 32.3461 3.04479 29.7987 6.19163 29.7987C9.29896 29.7987 11.85 32.3461 11.85 35.4489V35.4489ZM14.0719 67.7037C14.0719 71.0728 16.7875 73.7846 20.1615 73.7846H24.2563L24.3188 86.3374C24.3188 93.9171 35.6751 93.8579 35.6751 86.3374V73.7846H43.3282V86.3374C43.3282 93.8776 54.747 93.8974 54.747 86.3374V73.7846H58.9011C59.698 73.782 60.4867 73.6226 61.2219 73.3156C61.9572 73.0085 62.6246 72.5599 63.1862 71.9952C63.7477 71.4305 64.1923 70.7608 64.4946 70.0245C64.7969 69.2881 64.9509 68.4995 64.9479 67.7037V30.8505H14.0719V67.7037ZM65.0927 28.8553H13.8448C13.8448 20.0628 19.1114 12.4206 26.9291 8.43684L22.9989 1.18584C22.4228 0.180033 23.8843 -0.457635 24.3781 0.403545L28.3676 7.71699C35.5467 4.53195 43.7989 4.69629 50.6489 7.71699L54.6186 0.423266C55.1321 -0.460921 56.5739 0.196467 55.9978 1.20556L52.0676 8.43684C59.8228 12.4206 65.0894 20.066 65.0894 28.8553H65.0927ZM29.9739 17.4529C29.9739 16.8811 29.7464 16.3326 29.3415 15.9282C28.9365 15.5239 28.3873 15.2967 27.8146 15.2967C26.6427 15.2967 25.7178 16.2828 25.7178 17.4529C25.7178 18.6231 26.6658 19.6092 27.8146 19.6092C29.0292 19.6092 29.9739 18.6231 29.9739 17.4529ZM53.3053 17.4529C53.308 16.8904 53.0895 16.3493 52.6967 15.946C52.304 15.5428 51.7684 15.3096 51.2052 15.2967C50.6325 15.2967 50.0832 15.5239 49.6783 15.9282C49.2733 16.3326 49.0458 16.8811 49.0458 17.4529C49.0458 18.0248 49.2733 18.5732 49.6783 18.9776C50.0832 19.382 50.6325 19.6092 51.2052 19.6092C52.3573 19.6092 53.3053 18.6231 53.3053 17.4529V17.4529ZM72.8084 29.802C69.701 29.802 67.15 32.2869 67.15 35.4522V59.2431C67.15 62.4052 69.701 64.9328 72.8084 64.9328C75.9783 64.9328 79 62.3854 79 59.2431V35.4522C79 32.2902 75.9552 29.802 72.8084 29.802Z" fill="#252939"/>
</svg>
