<svg width="111" height="92" viewBox="0 0 111 92" fill="none" xmlns="http://www.w3.org/2000/svg">
<path d="M0 58.2801H4.25317V47.234C4.25317 45.0546 5.69047 43.474 7.73796 43.474C9.72217 43.474 10.947 44.7168 10.947 46.7252V58.2801H15.0827V47.126C15.0827 44.9645 16.4838 43.4695 18.5358 43.4695C20.615 43.4695 21.7811 44.7303 21.7811 46.9368V58.2756H26.0297V45.9011C26.0297 42.2942 23.693 39.894 20.1223 39.894C17.5098 39.894 15.3584 41.29 14.4861 43.519H14.3821C13.7177 41.2044 11.8872 39.894 9.32894 39.894C6.86563 39.894 4.95374 41.272 4.16729 43.3659H4.08141V40.2363H0V58.2756V58.2801ZM35.3451 55.3711C33.501 55.3711 32.2716 54.4345 32.2716 52.9529C32.2716 51.521 33.4468 50.6023 35.4988 50.4672L39.6842 50.2106V51.593C39.6842 53.768 37.7542 55.3711 35.3451 55.3711V55.3711ZM34.0615 58.5683C36.3847 58.5683 38.6582 57.3615 39.7022 55.4026H39.7836V58.2801H43.8876V45.8516C43.8876 42.2311 40.9633 39.8625 36.4751 39.8625C31.8603 39.8625 28.9722 42.2807 28.7868 45.649H32.7327C33.0038 44.1539 34.2875 43.1813 36.3033 43.1813C38.4005 43.1813 39.6842 44.271 39.6842 46.1623V47.4547L34.9022 47.7249C30.4908 47.9996 28.0139 49.9224 28.0139 53.1241C28.0139 56.3708 30.5631 58.5683 34.0615 58.5683V58.5683ZM62.5591 46.6712C62.2653 42.8751 59.3093 39.8625 54.5273 39.8625C49.2662 39.8625 45.8492 43.4875 45.8492 49.2604C45.8492 55.1144 49.2662 58.6358 54.5635 58.6358C59.1059 58.6358 62.2336 55.979 62.5726 51.9488H58.559C58.1658 53.9887 56.7646 55.2135 54.6132 55.2135C51.9148 55.2135 50.1747 53.0385 50.1747 49.2604C50.1747 45.5499 51.8968 43.3029 54.5815 43.3029C56.8505 43.3029 58.1974 44.7483 58.5409 46.6712H62.5591V46.6712ZM75.6937 33.3105C68.5026 33.3105 63.9918 38.1964 63.9918 46.0092C63.9918 53.822 68.5026 58.6899 75.6982 58.6899C82.8667 58.6899 87.3775 53.822 87.3775 46.0092C87.3775 38.1964 82.8712 33.3105 75.6937 33.3105V33.3105ZM75.6937 37.0571C80.0825 37.0571 82.8848 40.5245 82.8848 46.0092C82.8848 51.4714 80.0825 54.9433 75.6982 54.9433C71.2869 54.9433 68.5026 51.4759 68.5026 46.0092C68.5026 40.529 71.2869 37.0571 75.6937 37.0571ZM89.1719 51.3679C89.3617 55.898 93.086 58.6899 98.7539 58.6899C104.72 58.6899 108.476 55.7629 108.476 51.0977C108.476 47.4367 106.356 45.3788 101.353 44.2395L98.5189 43.5911C95.4906 42.8796 94.2476 41.9249 94.2476 40.2903C94.2476 38.2504 96.1234 36.886 98.9121 36.886C101.728 36.886 103.658 38.2639 103.866 40.565H108.069C107.965 36.242 104.377 33.315 98.9437 33.315C93.5787 33.315 89.7685 36.2556 89.7685 40.61C89.7685 44.1224 91.9244 46.2974 96.4669 47.3376L99.6624 48.0851C102.772 48.8191 104.033 49.8413 104.033 51.6065C104.033 53.6509 101.968 55.1144 98.9935 55.1144C95.9878 55.1144 93.7188 53.6329 93.4431 51.3679H89.1719V51.3679Z" fill="#252939"/>
<path d="M0.236892 24.9713H4.45118V6.96483H0.236892V24.9713ZM2.33568 4.60352C3.6557 4.60352 4.68807 3.58431 4.68807 2.31035C4.68807 1.01901 3.6557 0 2.33568 0C1.03237 0 0 1.01921 0 2.31035C0 3.58431 1.03237 4.60352 2.33568 4.60352V4.60352ZM18.4822 0.0507506C11.3571 0.0507506 6.88878 4.92621 6.88878 12.7236C6.88878 20.5208 11.3567 25.3793 18.4824 25.3793C25.5905 25.3793 30.0588 20.5208 30.0588 12.7236C30.0588 4.92621 25.5909 0.0507506 18.4824 0.0507506H18.4822ZM18.4822 3.78811C22.8318 3.78811 25.6074 7.25354 25.6074 12.7234C25.6074 18.1763 22.8318 21.6419 18.4824 21.6419C14.1158 21.6419 11.3571 18.1765 11.3571 12.7234C11.3571 7.25354 14.116 3.78811 18.4824 3.78811H18.4822ZM31.8367 18.0744C32.0228 22.5932 35.7124 25.3789 41.3313 25.3789C47.2381 25.3789 50.9617 22.4572 50.9617 17.8025C50.9617 14.1502 48.8631 12.0948 43.9041 10.9567L41.0946 10.3114C38.0988 9.59786 36.8634 8.64659 36.8634 7.01577C36.8634 4.97716 38.7251 3.61828 41.4838 3.61828C44.2763 3.61828 46.1888 4.99434 46.392 7.28751H50.5554C50.4538 2.97271 46.8996 0.0507506 41.5176 0.0507506C36.2033 0.0507506 32.4291 2.98949 32.4291 7.33846C32.4291 10.8379 34.5616 13.0121 39.0633 14.0485L42.2283 14.7958C45.3085 15.5265 46.561 16.5457 46.561 18.3124C46.561 20.3508 44.513 21.8118 41.5684 21.8118C38.5897 21.8118 36.3388 20.3338 36.0681 18.0744H31.8367V18.0744Z" fill="#252939"/>
<path d="M2.02725 66.6614C2.58485 66.5656 3.17979 66.637 3.67757 66.9141C4.40365 67.2975 4.91961 68.0609 4.98519 68.8817C5.02491 69.3383 4.9378 69.8074 4.7229 70.2133C4.34909 70.9475 3.59381 71.4869 2.76769 71.5573C2.25891 71.609 1.73098 71.5161 1.28537 71.2601C0.516689 70.8408 -0.0045395 69.9917 0.000725437 69.1124C-0.0294283 67.9489 0.884278 66.8571 2.02725 66.6614Z" fill="#252939"/>
<path d="M76.3112 67.4778C78.3741 67.3246 80.4954 67.5477 82.4156 68.3494C83.7836 68.9084 85.0328 69.7671 86.0106 70.878C86.9808 71.9482 87.6954 73.2329 88.1721 74.5931C88.7699 76.2545 88.9896 78.0311 88.9868 79.7901C88.9777 81.3629 88.7877 82.9448 88.3057 84.4457C87.9261 85.6126 87.3848 86.7307 86.6678 87.7287C86.0173 88.6433 85.196 89.4302 84.2746 90.0697C83.0359 90.9283 81.602 91.4854 80.124 91.765C78.432 92.0718 76.685 92.0794 74.9911 91.7832C73.2996 91.4807 71.6598 90.8115 70.2981 89.7547C68.9216 88.6874 67.86 87.2414 67.177 85.6447C66.3025 83.678 66.0043 81.4998 66.0445 79.3608C66.0761 77.2897 66.4633 75.1976 67.3881 73.3319C68.1381 71.7893 69.2452 70.4056 70.6542 69.4177C72.3026 68.2412 74.3057 67.6358 76.3112 67.4778ZM76.6472 71.6419C76.3528 71.6768 76.0609 71.7309 75.7751 71.8085C74.2751 72.199 73.0239 73.2951 72.2758 74.6333C71.3794 76.2219 71.0874 78.0804 71.1037 79.8844C71.1161 81.2049 71.3023 82.5365 71.7742 83.7752C72.2677 85.0407 73.101 86.2004 74.2435 86.9542C75.6291 87.8474 77.3804 88.0436 78.9733 87.7081C80.5116 87.3821 81.847 86.3359 82.6406 84.9923C83.5476 83.4756 83.8822 81.6816 83.8793 79.9323C83.8898 78.2144 83.6491 76.4459 82.845 74.9071C82.2026 73.6799 81.2018 72.5934 79.9057 72.0559C78.8833 71.6218 77.7437 71.5184 76.6472 71.6419Z" fill="#252939"/>
<path d="M98.0698 67.7312C99.6177 67.3862 101.225 67.3589 102.796 67.5446C104.549 67.7561 106.286 68.3865 107.645 69.5371C108.716 70.4379 109.5 71.6804 109.821 73.0455C109.953 73.5854 110.015 74.1411 110.026 74.6963C108.459 74.6958 106.892 74.6968 105.325 74.6958C105.275 73.8146 104.828 72.9761 104.143 72.4242C103.424 71.8389 102.494 71.5866 101.587 71.4914C100.768 71.4215 99.9297 71.4536 99.1357 71.6785C98.4651 71.88 97.8103 72.2146 97.3528 72.7569C96.8047 73.403 96.6176 74.3454 96.911 75.1443C97.1446 75.7703 97.6883 76.2236 98.2746 76.5103C99.3649 77.0487 100.576 77.2483 101.756 77.4944C102.825 77.7251 103.907 77.9041 104.957 78.2128C105.828 78.4669 106.684 78.7895 107.476 79.2356C108.158 79.6214 108.794 80.1072 109.285 80.7227C109.794 81.355 110.139 82.1122 110.309 82.9048C110.491 83.7639 110.489 84.6547 110.38 85.5239C110.252 86.4797 109.928 87.4101 109.42 88.2305C108.597 89.5396 107.309 90.5064 105.899 91.1095C104.002 91.8844 101.916 92.0758 99.8847 91.9725C98.0501 91.8882 96.1969 91.467 94.6073 90.5208C93.3586 89.7688 92.308 88.6445 91.7557 87.2862C91.4393 86.5051 91.2876 85.6641 91.2617 84.8241C92.8288 84.8241 94.3963 84.8241 95.9633 84.8241C96.0744 85.4631 96.3563 86.0786 96.8105 86.5462C97.4724 87.2713 98.4177 87.6595 99.3621 87.8562C100.343 88.0534 101.365 88.0754 102.351 87.894C103.307 87.704 104.258 87.28 104.901 86.5256C105.543 85.7881 105.635 84.6451 105.169 83.7946C104.841 83.2063 104.237 82.8483 103.636 82.5922C102.623 82.1653 101.541 81.9494 100.467 81.7427C99.3592 81.5153 98.2382 81.3363 97.1584 80.9927C95.9346 80.6059 94.7361 80.0584 93.7635 79.2064C93.1959 78.7091 92.7177 78.1051 92.3894 77.4245C92.0443 76.7166 91.8638 75.9359 91.8169 75.1519C91.7614 74.2296 91.8638 73.2901 92.1783 72.4185C92.622 71.1984 93.4529 70.1383 94.4762 69.3485C95.5244 68.5334 96.7803 68.0203 98.0698 67.7312Z" fill="#252939"/>
<path d="M8.52734 67.8362C11.7605 67.8362 14.9932 67.8353 18.2263 67.8367C19.656 67.8382 21.1 68.1359 22.3732 68.7993C23.8622 69.5785 25.0798 70.8689 25.7494 72.4129C26.1658 73.3663 26.3664 74.404 26.4219 75.4398C26.476 76.5483 26.3707 77.6726 26.0361 78.7337C25.5752 80.1634 24.6744 81.4495 23.4946 82.3785C22.2229 83.3774 20.6353 83.9173 19.0366 84.0714C18.3867 84.1394 17.7333 84.1236 17.0814 84.1255C15.8872 84.1255 14.6935 84.125 13.4998 84.126C13.4998 86.623 13.5003 89.12 13.4994 91.6175C11.8423 91.618 10.1848 91.618 8.52782 91.6175C8.52734 83.6904 8.52734 75.7633 8.52734 67.8362ZM13.4998 71.7964C13.4998 74.6156 13.4994 77.4352 13.4998 80.2548C14.3901 80.2548 15.2803 80.2548 16.1706 80.2548C16.6827 80.2524 17.1977 80.2711 17.707 80.205C18.4958 80.1117 19.2812 79.8561 19.9183 79.3713C20.5893 78.8701 21.0431 78.1115 21.2321 77.3012C21.4207 76.4837 21.4193 75.6231 21.2517 74.8027C21.0995 74.08 20.7492 73.3879 20.1964 72.8906C19.6072 72.3354 18.8289 72.0185 18.0382 71.8883C17.359 71.7658 16.6665 71.8007 15.9801 71.796C15.153 71.796 14.3264 71.7955 13.4998 71.7964Z" fill="#252939"/>
<path d="M58.3896 67.8589C59.9944 67.8584 61.5993 67.8589 63.2036 67.8584C63.2056 75.7706 63.2041 83.6829 63.2046 91.5951C61.6218 91.5956 60.0394 91.5956 58.4571 91.5951C58.4551 90.578 58.4609 89.561 58.4542 88.5439C58.3321 88.5472 58.3159 88.6812 58.2666 88.7655C57.6534 90.0329 56.498 90.994 55.188 91.4798C54.2164 91.8632 53.1505 91.9421 52.1171 91.8555C51.0981 91.7717 50.0911 91.4654 49.2262 90.9145C48.065 90.1865 47.1738 89.0761 46.6186 87.8307C45.7925 86.0086 45.5939 83.9696 45.6719 81.99C45.747 80.2391 46.1261 78.4663 47.0211 76.9428C47.7621 75.6697 48.918 74.6195 50.305 74.1007C51.3226 73.7178 52.4306 73.6044 53.5104 73.6934C55.0597 73.8264 56.5732 74.5702 57.5481 75.7941C57.8411 76.1598 58.0823 76.5652 58.2766 76.9916C58.3039 76.9931 58.3585 76.9959 58.3857 76.9974C58.3944 73.9509 58.3867 70.9049 58.3896 67.8589ZM53.8656 77.5765C52.9648 77.6971 52.1387 78.2112 51.6021 78.9397C50.956 79.8069 50.6645 80.8877 50.5731 81.9522C50.5013 82.8764 50.5324 83.816 50.7406 84.722C50.9464 85.5993 51.3341 86.4618 51.9893 87.0965C52.4613 87.5622 53.0792 87.8738 53.7335 87.98C54.5778 88.1174 55.4862 88.0279 56.2357 87.5943C56.9867 87.1587 57.5443 86.4384 57.8712 85.6419C58.2211 84.8402 58.3609 83.9624 58.3838 83.0927C58.414 82.0565 58.2872 81.003 57.9033 80.0352C57.5783 79.2498 57.0628 78.5175 56.3343 78.0599C55.6097 77.5942 54.7103 77.453 53.8656 77.5765Z" fill="#252939"/>
<path d="M32.5813 73.9789C33.7314 73.6462 34.9376 73.5462 36.1313 73.5821C37.3073 73.6204 38.4909 73.8214 39.5765 74.2881C40.2892 74.5944 40.9698 74.9974 41.5307 75.5383C42.5559 76.5271 43.1514 77.9348 43.1542 79.3592C43.159 83.4529 43.1557 87.5466 43.1562 91.6404C41.604 91.6399 40.0518 91.6408 38.4996 91.6399C38.4986 90.7401 38.5 89.8398 38.4986 88.9394C38.4761 88.9404 38.4302 88.9423 38.4077 88.9433C37.9932 89.6823 37.4102 90.3299 36.6999 90.7941C36.1844 91.144 35.6172 91.4149 35.0228 91.5992C34.0095 91.9323 32.9173 91.9811 31.8672 91.8232C31.0339 91.6954 30.2212 91.4092 29.5066 90.9593C28.7604 90.495 28.1386 89.835 27.7155 89.0658C27.323 88.3526 27.1359 87.5385 27.1182 86.7282C27.0923 85.881 27.2335 85.0137 27.6294 84.2575C27.9687 83.5989 28.4923 83.048 29.0969 82.6263C29.8828 82.0735 30.797 81.7289 31.7284 81.5125C32.6062 81.3072 33.507 81.2196 34.4063 81.1761C35.7479 81.0932 37.0895 81.0124 38.4316 80.9305C38.4086 80.2533 38.5039 79.5573 38.31 78.8968C38.0975 78.1411 37.4423 77.572 36.7052 77.348C36.026 77.1402 35.2966 77.1331 34.5992 77.246C33.8583 77.3662 33.1509 77.7582 32.7139 78.377C32.5057 78.6666 32.376 79.0059 32.3109 79.3553C30.841 79.3558 29.3716 79.3553 27.9017 79.3553C27.9558 78.3129 28.2971 77.2867 28.8977 76.4314C29.7799 75.2027 31.1478 74.3991 32.5813 73.9789ZM35.5565 84.0541C34.9974 84.0914 34.4317 84.0991 33.8841 84.2307C33.1959 84.3867 32.4908 84.7323 32.1314 85.3684C31.7226 86.1375 31.8691 87.2015 32.5468 87.774C33.0494 88.2024 33.7118 88.4 34.3623 88.4364C35.42 88.4977 36.5156 88.188 37.335 87.5045C37.8673 87.0646 38.2598 86.4482 38.3928 85.768C38.5096 85.1449 38.4708 84.5092 38.4766 83.8789C37.503 83.9363 36.5295 83.9957 35.5565 84.0541Z" fill="#252939"/>
<path d="M0.11364 73.9564C1.71849 73.9559 3.32334 73.9559 4.92819 73.9564C4.92867 79.8431 4.92867 85.7303 4.92819 91.6174C3.32334 91.6179 1.71849 91.6174 0.11364 91.6174C0.113162 85.7303 0.113162 79.8431 0.11364 73.9564Z" fill="#252939"/>
</svg>
