<svg width="34" height="42" viewBox="0 0 34 42" fill="none" xmlns="http://www.w3.org/2000/svg">
<path d="M32.9182 14.3168C32.6759 14.5058 28.3988 16.9292 28.3988 22.3178C28.3988 28.5506 33.8413 30.7556 34.0042 30.8102C33.9791 30.9446 33.1396 33.83 31.1346 36.77C29.3469 39.3572 27.4799 41.9402 24.6396 41.9402C21.7993 41.9402 21.0683 40.2812 17.7894 40.2812C14.5941 40.2812 13.458 41.9948 10.86 41.9948C8.26192 41.9948 6.44914 39.6008 4.36486 36.6608C1.95061 33.2084 0 27.845 0 22.7546C0 14.5898 5.27961 10.2596 10.4757 10.2596C13.2366 10.2596 15.5381 12.0824 17.2715 12.0824C18.9214 12.0824 21.4943 10.1504 24.6354 10.1504C25.8258 10.1504 30.1029 10.2596 32.9182 14.3168ZM23.1442 6.69382C24.4432 5.14402 25.3622 2.99362 25.3622 0.843224C25.3622 0.545024 25.3371 0.242623 25.2828 -0.000976562C23.1693 0.0788234 20.6548 1.41442 19.1386 3.18262C17.9482 4.54342 16.8371 6.69382 16.8371 8.87362C16.8371 9.20122 16.8914 9.52882 16.9165 9.63382C17.0501 9.65902 17.2673 9.68842 17.4845 9.68842C19.3808 9.68842 21.7658 8.41162 23.1442 6.69382Z" fill="black"/>
</svg>
