<svg width="75" height="92" viewBox="0 0 75 92" fill="none" xmlns="http://www.w3.org/2000/svg">
<path d="M39.4173 0C38.8255 0 38.2195 0.0316207 37.5935 0.0776145C21.5608 1.36257 25.8144 18.5067 25.5754 24.2243C25.2795 28.4012 24.4373 31.7098 21.5921 35.8004C18.2262 39.8277 13.5145 46.3416 11.2782 53.1199C10.2283 56.3079 9.72188 59.5907 10.197 62.6751C10.0181 62.8091 9.87125 62.982 9.7674 63.1811C8.78865 64.2159 8.06028 65.4894 7.26077 66.4006C6.50679 67.1624 5.42562 67.4211 4.23632 67.9299C3.05271 68.4502 1.73254 68.9619 0.961488 70.5487C0.620063 71.2702 0.440816 72.0464 0.457887 72.857C0.457887 73.6044 0.563159 74.3834 0.665587 74.9066C0.890358 76.433 1.10944 77.6921 0.813538 78.6206C-0.133916 81.2221 -0.236344 83.0044 0.415209 84.3095C1.07814 85.5973 2.44384 86.1061 3.96887 86.6178C7.05307 87.3795 11.2156 87.1381 14.5075 88.906C18.0157 90.7026 21.5892 91.4816 24.4344 90.7198C25.4158 90.4975 26.3359 90.0571 27.1278 89.4305C27.9196 88.804 28.5634 88.0072 29.0124 87.0978C31.2345 87.0835 33.6785 86.063 37.5793 85.81C40.231 85.5829 43.5514 86.842 47.3583 86.5718C47.4607 87.0978 47.5944 87.3335 47.8021 87.8596V87.874C49.2816 90.8521 52.0244 92.2003 54.9607 91.976C57.877 91.7375 60.9896 89.9264 63.5077 86.9627C65.909 84.0421 69.8951 82.8118 72.5326 81.2135C73.8528 80.446 74.9198 79.4169 74.9937 77.9336C75.082 76.4072 74.2398 74.8204 72.2965 72.6644V72.2878L72.2823 72.2735C71.6307 71.5117 71.3348 70.2239 70.9934 68.7291C70.6662 67.1854 70.3105 65.7194 69.1269 64.7161C68.8879 64.5063 68.6518 64.4603 68.4014 64.2073C68.1912 64.0577 67.9439 63.9701 67.6873 63.9543C69.3176 59.056 68.6802 54.1922 67.0186 49.8026C65.0042 44.3984 61.4619 39.684 58.7789 36.4501C55.7545 32.601 52.7926 28.9502 52.8524 23.5459C52.9548 15.2929 53.7543 0.0402445 39.4116 0.00862383L39.4173 0ZM41.4175 13.0536H41.4772C42.2767 13.0536 42.971 13.2951 43.6851 13.8039C44.4106 14.3242 44.9455 15.0773 45.3439 15.8535C45.745 16.8423 45.9556 17.6041 45.9812 18.6217C45.9812 18.5499 45.9954 18.4722 45.9954 18.4004V18.8028C45.9954 18.7712 45.9812 18.7453 45.9812 18.7137L45.967 18.6217C45.967 19.5531 45.7763 20.4816 45.4065 21.3325C45.2307 21.8169 44.9519 22.2565 44.5899 22.6203C44.4874 22.5628 44.3822 22.5025 44.2627 22.4565C43.8643 22.2754 43.5087 22.2179 43.1815 21.9505C42.9123 21.8416 42.6343 21.756 42.3507 21.6947C42.5299 21.4733 42.8998 21.1859 43.0478 20.9329C43.2412 20.4529 43.3437 19.9297 43.375 19.3921V19.3145C43.383 18.7956 43.3022 18.2792 43.136 17.7881C42.9738 17.2793 42.7689 17.0206 42.456 16.5146C42.1288 16.2588 41.8186 16.0058 41.4317 16.0058H41.3748C41.0191 16.0058 40.7062 16.1093 40.3818 16.5146C40.0258 16.8692 39.7611 17.3064 39.6108 17.7881C39.4041 18.271 39.2883 18.7887 39.2693 19.3145V19.3921C39.2693 19.7342 39.3006 20.0792 39.3405 20.4241C38.6007 20.1711 37.6817 19.8981 37.0302 19.6451C36.9947 19.3927 36.9748 19.1382 36.9704 18.8833V18.8057C36.9416 17.7934 37.135 16.7871 37.5366 15.8592C37.8467 15.0198 38.4101 14.2983 39.1669 13.8211C39.8156 13.3296 40.6009 13.0594 41.4175 13.0594V13.0536ZM30.1846 13.2807H30.3183C30.8532 13.2807 31.3426 13.4618 31.832 13.7895C32.3925 14.2839 32.842 14.8962 33.1379 15.5689C33.4793 16.3364 33.67 17.1126 33.7297 18.1302V18.1445C33.744 18.6533 33.744 18.9264 33.7155 19.165V19.4784L33.4054 19.5675C32.8278 19.7773 32.3697 20.0763 31.9059 20.335C31.9515 19.99 31.9515 19.6451 31.9202 19.3145V19.2541C31.8775 18.7482 31.7722 18.4924 31.61 17.9807C31.4886 17.5872 31.2691 17.2319 30.9727 16.9487C30.7864 16.7808 30.542 16.6941 30.2927 16.7072H30.2017C29.9371 16.7216 29.7123 16.8567 29.5074 17.216C29.2566 17.5075 29.0972 17.8677 29.0494 18.2509C28.9441 18.6533 28.9128 19.0874 28.9583 19.5244V19.5675C29.0038 20.0935 29.092 20.3494 29.2684 20.8553C29.3829 21.2453 29.598 21.5975 29.8915 21.8758C29.9371 21.9218 29.9684 21.9534 30.0253 21.9649C29.7607 22.192 29.5814 22.238 29.3623 22.491C29.2115 22.5973 29.0522 22.7324 28.8587 22.764C28.4641 22.2845 28.1164 21.7675 27.8202 21.2204C27.4572 20.4146 27.2561 19.544 27.2284 18.6591C27.171 17.7942 27.2713 16.9261 27.5243 16.0978C27.7491 15.3504 28.1048 14.6461 28.6055 14.0482C29.0949 13.5394 29.5843 13.2865 30.1903 13.2865L30.1846 13.2807ZM35.3856 19.8233C36.6461 19.8233 38.1597 20.0619 39.9949 21.3497C41.1073 22.1173 41.9837 22.3846 43.9981 23.132C44.9768 23.658 45.5373 24.1669 45.819 24.6757V24.1669C45.9541 24.4445 46.0293 24.748 46.0396 25.0572C46.0499 25.3665 45.9951 25.6744 45.8788 25.9606C45.4036 27.1593 43.9213 28.4328 41.8357 29.1945V29.2089C40.8257 29.7177 39.938 30.4824 38.8995 30.9912C37.8496 31.5 36.6603 32.1151 35.0613 32.0117C34.4822 32.0373 33.9037 31.9505 33.357 31.7558C32.9355 31.5298 32.5297 31.2753 32.1421 30.9941C31.4023 30.4852 30.765 29.7206 29.8176 29.2118V29.1974H29.8033C28.2755 28.2545 27.4617 27.2341 27.1943 26.4723C26.9439 25.4403 27.1801 24.6785 27.9369 24.1697C28.7791 23.6609 29.3709 23.1349 29.7578 22.8819C30.1561 22.5973 30.3069 22.491 30.4264 22.3875H30.4407V22.3731C31.078 21.5941 32.0824 20.5765 33.6273 20.0648C34.1423 19.9297 34.7398 19.8262 35.3885 19.8262L35.3856 19.8233ZM45.9954 28.0246C47.3611 33.4605 50.5477 41.3513 52.5934 45.1688C53.6746 47.2184 55.837 51.5303 56.7702 56.7592C57.362 56.7448 58.0136 56.8311 58.7135 57.0122C61.1717 50.6046 56.6536 43.7171 54.5936 41.7997C53.7486 41.0379 53.7059 40.5263 54.1185 40.5263C56.3577 42.5615 59.2882 46.5486 60.3552 51.0818C60.8445 53.1314 60.9669 55.3219 60.4462 57.4893C60.6966 57.5928 60.9498 57.7279 61.2173 57.7423C65.1294 59.7977 66.5805 61.3384 65.8834 63.641V63.4772C65.6643 63.4657 65.4253 63.4772 65.2034 63.4772H65.1436C65.7241 61.6834 64.4494 60.3036 61.1006 58.7772C57.6323 57.2507 54.8611 57.4893 54.3859 60.5594C54.3524 60.7328 54.3333 60.9088 54.329 61.0855C54.0587 61.1746 53.7941 61.2781 53.5295 61.3241C51.8992 62.3589 51.0229 63.8997 50.5221 65.8775C50.0328 67.927 49.8848 70.3072 49.7511 73.0496C49.66 74.3374 49.0995 76.2663 48.5333 78.2268C42.8429 82.3432 34.9446 84.1255 28.2499 79.5146C27.8174 78.7672 27.3138 78.0773 26.722 77.465C26.4379 76.9893 26.0839 76.5599 25.6721 76.1916C26.3663 76.1916 26.961 76.0737 27.4361 75.9357C27.9788 75.6716 28.4055 75.2139 28.634 74.6508C29.0351 73.6303 28.634 71.9831 27.3138 70.1865C26.0135 68.4071 23.7886 66.3834 20.5422 64.3654C18.1437 62.839 16.7951 61.028 16.172 59.0186C15.5489 56.969 15.6371 54.8562 16.1122 52.7175C17.0454 48.6154 19.4326 44.6197 20.9604 42.1159C21.3588 41.8773 21.0942 42.642 19.4041 45.8615C17.9047 48.7362 15.0766 55.4282 18.9403 60.6227C19.0889 56.829 19.923 53.0947 21.4014 49.6043C23.5325 44.7088 28.0109 36.177 28.3665 29.4101C28.5458 29.5596 29.1831 29.9362 29.4619 30.1892C30.2785 30.698 30.8987 31.4626 31.7011 31.9714C32.5006 32.7332 33.5078 33.2592 35.0214 33.2592C35.1694 33.2736 35.3031 33.2736 35.434 33.2736C36.9903 33.2736 38.2081 32.7648 39.2124 32.2531C40.3078 31.7271 41.2012 30.9653 42.0263 30.7123H42.0406C43.8046 30.2035 45.213 29.1687 45.9983 28.0303L45.9954 28.0246ZM54.2949 62.3589C54.4428 64.6615 55.6008 67.1337 57.6437 67.6396C59.8658 68.1484 63.0809 66.3661 64.4295 64.7075L65.229 64.6759C66.4268 64.6442 67.4227 64.7075 68.4412 65.6964L68.4555 65.7107C69.2407 66.4725 69.6135 67.7459 69.9378 69.0654C70.265 70.6062 70.5154 72.0579 71.4941 73.1502C73.3293 75.1711 73.9382 76.6227 73.9097 77.5225C73.85 78.5229 73.1956 79.0317 72.012 79.7963C69.6248 81.34 65.3883 82.5214 62.6911 85.8186C60.3466 88.6472 57.49 90.188 54.9663 90.3835C52.4483 90.5934 50.2689 89.6217 48.9943 86.9426L48.98 86.9282C48.1805 85.3989 48.522 83.0044 49.1877 80.4575C49.8564 77.8962 50.818 75.2947 50.9518 73.1818C51.0855 70.4423 51.2334 68.0622 51.6773 66.2167C52.1354 64.4344 52.8495 63.1609 54.1242 62.4595L54.2863 62.3676L54.2949 62.3589ZM13.2613 62.5515H13.3068C13.5145 62.5515 13.708 62.5659 13.8986 62.6119C15.3212 62.8217 16.5817 63.8853 17.7823 65.4865L21.2336 71.8653L21.2478 71.8796C22.1668 73.9149 24.1072 75.9501 25.7518 78.1549C27.3991 80.4431 28.6738 82.4927 28.5258 84.1715V84.2031C28.3011 87.0461 26.7021 88.5869 24.258 89.1589C21.8112 89.6677 18.4908 89.1589 15.1733 87.3767C11.5001 85.3271 7.12705 85.58 4.32737 85.0684C2.93606 84.8154 2.01706 84.2893 1.58459 83.5276C1.17203 82.7658 1.15496 81.2193 2.05974 78.8103V78.7988C2.50359 77.511 2.18208 75.9098 1.95731 74.5013C1.74961 72.972 1.64718 71.7877 2.11949 70.9051C2.72552 69.6173 3.63029 69.3787 4.73992 68.8555C5.8524 68.3467 7.17257 68.0938 8.20823 67.0589H8.22245V67.0445C9.18698 66.0298 9.91535 64.7564 10.7575 63.8394C11.4717 63.0603 12.1944 62.5515 13.2613 62.5515V62.5515ZM40.4273 27.7716C38.78 28.5334 36.8395 29.8212 34.7796 29.8212C32.7197 29.8212 31.1036 28.8065 29.9342 28.039C29.3424 27.5186 28.8673 27.007 28.5116 26.7511C27.8885 26.2452 27.9625 25.4662 28.2299 25.4662C28.6425 25.5237 28.7193 25.9865 28.9839 26.2452C29.3566 26.4982 29.8005 27.007 30.3468 27.5186C31.4593 28.2804 32.9416 29.3124 34.7768 29.3124C36.6176 29.3124 38.78 28.2804 40.0831 27.5186C40.8228 27.0098 41.7703 26.2452 42.5413 25.7364C43.1331 25.2103 43.1075 24.7015 43.5912 24.7015C44.0806 24.7619 43.7278 25.2103 43.0449 25.975C42.3479 26.501 41.2809 27.2628 40.4245 27.7716H40.4273ZM36.3217 21.6947V21.6228C36.3075 21.5452 36.3644 21.459 36.4384 21.4273C36.703 21.2635 37.1184 21.321 37.4171 21.4417C37.6533 21.4417 38.0231 21.6947 37.9947 21.962C37.9634 22.1431 37.6675 22.2179 37.474 22.2179C37.2692 22.2179 37.1184 22.054 36.942 21.9505C36.7485 21.8902 36.3758 21.9189 36.3189 21.6947H36.3217ZM34.2305 21.6947C34.1537 21.9218 33.798 21.8902 33.6074 21.9505C33.4281 22.054 33.2802 22.2179 33.0725 22.2179C32.879 22.2179 32.5689 22.1403 32.5518 21.9505C32.5262 21.6947 32.879 21.4417 33.118 21.4417C33.4281 21.3181 33.8122 21.2606 34.1081 21.4273C34.1679 21.459 34.2447 21.5452 34.2134 21.6228V21.6947H34.2305Z" fill="#252939"/>
</svg>
