<svg width="1920" height="1080" viewBox="0 0 1920 1080" fill="none" xmlns="http://www.w3.org/2000/svg">
<rect width="1920" height="1080" rx="10" fill="url(#paint0_radial_905_139)"/>
<g style="mix-blend-mode:overlay">
<rect width="1920" height="1080" rx="10" fill="url(#paint1_linear_905_139)"/>
</g>
<g style="mix-blend-mode:overlay">
<path d="M1079.72 462.244L1004.52 387.273C1002.42 385.184 999.556 384 996.586 384H848.182C841.997 384 837 388.979 837 395.143V684.857C837 691.021 841.997 696 848.182 696H1071.82C1078 696 1083 691.021 1083 684.857V470.113C1083 467.154 1081.81 464.333 1079.72 462.244ZM920.864 501.696C928.586 501.696 934.841 507.929 934.841 515.625C934.841 523.321 928.586 529.554 920.864 529.554C913.141 529.554 906.886 523.321 906.886 515.625C906.886 507.929 913.141 501.696 920.864 501.696ZM1024.3 604.071H895.705C893.363 604.071 892.07 601.39 893.503 599.579L928.376 555.287C928.638 554.954 928.972 554.684 929.353 554.499C929.735 554.314 930.154 554.218 930.578 554.218C931.002 554.218 931.421 554.314 931.802 554.499C932.184 554.684 932.518 554.954 932.779 555.287L947.141 573.533L974.327 538.99C974.588 538.657 974.922 538.388 975.304 538.203C975.685 538.018 976.104 537.921 976.528 537.921C976.952 537.921 977.371 538.018 977.753 538.203C978.134 538.388 978.468 538.657 978.73 538.99L1026.43 599.579C1027.93 601.39 1026.6 604.071 1024.3 604.071V604.071ZM991.449 475.232V409.698L1057.21 475.232H991.449Z" fill="#101010"/>
</g>
<defs>
<radialGradient id="paint0_radial_905_139" cx="0" cy="0" r="1" gradientUnits="userSpaceOnUse" gradientTransform="translate(18.9999 992.5) rotate(-24.9189) scale(2436.31 4331.21)">
<stop stop-color="#EC5563"/>
<stop offset="0.630208" stop-color="#339BFC"/>
<stop offset="1" stop-color="#151779"/>
</radialGradient>
<linearGradient id="paint1_linear_905_139" x1="1752.5" y1="-165" x2="847" y2="1184" gradientUnits="userSpaceOnUse">
<stop stop-color="#ED1C24"/>
<stop offset="1" stop-color="#88E4C3"/>
</linearGradient>
</defs>
</svg>
