<svg xmlns="http://www.w3.org/2000/svg" xmlns:xlink="http://www.w3.org/1999/xlink" width="721.32" height="438.96" viewBox="0 0 721.32 438.96">
  <defs>
    <filter id="Rectangle_406" x="0" y="0" width="720.68" height="267.01" filterUnits="userSpaceOnUse">
      <feOffset dx="-15" dy="3" input="SourceAlpha"/>
      <feGaussianBlur stdDeviation="18.5" result="blur"/>
      <feFlood flood-opacity="0.09"/>
      <feComposite operator="in" in2="blur"/>
      <feComposite in="SourceGraphic"/>
    </filter>
    <filter id="Rectangle_407" x="0.32" y="171.93" width="721" height="267.03" filterUnits="userSpaceOnUse">
      <feOffset dx="-15" input="SourceAlpha"/>
      <feGaussianBlur stdDeviation="18.5" result="blur-2"/>
      <feFlood flood-opacity="0.09"/>
      <feComposite operator="in" in2="blur-2"/>
      <feComposite in="SourceGraphic"/>
    </filter>
  </defs>
  <g id="_WW_Website_Graphic_Features-Hero-1" transform="translate(70 52)">
    <g transform="matrix(1, 0, 0, 1, -70, -52)" filter="url(#Rectangle_406)">
      <rect id="Rectangle_406-2" data-name="Rectangle 406" width="609.68" height="156.01" rx="15.5" transform="translate(70.5 52.5)" fill="#fff"/>
    </g>
    <path id="Path_528" data-name="Path 528" d="M1196.36,353a15,15,0,0,1,15,15V493a15,15,0,0,1-15,15H617.68a15,15,0,0,1-15-15V368a15,15,0,0,1,15-15h578.68m0-1H617.68a16,16,0,0,0-16,16V493a16,16,0,0,0,16,16h578.68a16,16,0,0,0,16-16V368A16,16,0,0,0,1196.36,352Z" transform="translate(-601.68 -352.04)" fill="#e6e6e6"/>
    <path id="Path_653" data-name="Path 653" d="M4.642,0H8.074L11.22-11.792,14.366,0H17.8l4.4-16.39H18.986L15.95-4.07,12.782-16.39H9.68L6.49-4.07,3.454-16.39H.242Zm19.14-13.31h2.882v-3.08H23.782Zm0,13.31h2.882V-11.968H23.782Zm5.544,0h2.882V-6.666a2.87,2.87,0,0,1,.759-2.123,2.664,2.664,0,0,1,1.969-.759H35.97V-12.1h-.7a4.475,4.475,0,0,0-1.936.4,2.723,2.723,0,0,0-1.3,1.43v-1.694H29.326Zm13.9.264a6.1,6.1,0,0,0,3.2-.825,4.555,4.555,0,0,0,1.925-2.1L46.024-3.806A3.158,3.158,0,0,1,44.935-2.7a3.137,3.137,0,0,1-1.683.429,3.136,3.136,0,0,1-2.178-.792A3.148,3.148,0,0,1,40.062-5.17h8.624a2.354,2.354,0,0,0,.121-.561,6.3,6.3,0,0,0,.033-.649,6.279,6.279,0,0,0-.682-2.926,5.347,5.347,0,0,0-1.98-2.123,5.91,5.91,0,0,0-3.168-.8,5.754,5.754,0,0,0-3.025.814,5.885,5.885,0,0,0-2.134,2.211,6.448,6.448,0,0,0-.781,3.2,6.574,6.574,0,0,0,.77,3.168A5.823,5.823,0,0,0,40-.572,6.139,6.139,0,0,0,43.23.264Zm-.22-10.12a2.715,2.715,0,0,1,1.9.693A2.615,2.615,0,0,1,45.76-7.37H40.128a3.1,3.1,0,0,1,1.023-1.837A2.816,2.816,0,0,1,43.01-9.856ZM54.032,0h2.552L59.4-8.074,62.172,0h2.574L68.86-11.968H65.824L63.316-4.444l-2.64-7.524H58.124L55.462-4.422l-2.508-7.546H49.918ZM70.444-13.31h2.882v-3.08H70.444Zm0,13.31h2.882V-11.968H70.444Zm10.1.264A5.676,5.676,0,0,0,82.918-.2,3.792,3.792,0,0,0,84.5-1.485a3.258,3.258,0,0,0,.572-1.9,3.158,3.158,0,0,0-.792-2.156,4.6,4.6,0,0,0-2.288-1.32L80.08-7.436A3.241,3.241,0,0,1,79.068-7.9a.923.923,0,0,1-.4-.792,1.043,1.043,0,0,1,.418-.858,1.8,1.8,0,0,1,1.144-.33,2.922,2.922,0,0,1,1.639.484A2.515,2.515,0,0,1,82.9-8.1L85.1-9.13a4.528,4.528,0,0,0-1.848-2.277,5.457,5.457,0,0,0-2.992-.825,5.43,5.43,0,0,0-2.3.462A3.725,3.725,0,0,0,76.4-10.483a3.34,3.34,0,0,0-.561,1.925,3.155,3.155,0,0,0,.781,2.134,4.669,4.669,0,0,0,2.3,1.342l1.958.55a2.94,2.94,0,0,1,.979.451.943.943,0,0,1,.407.8,1.091,1.091,0,0,1-.473.935A2.079,2.079,0,0,1,80.542-2a3.1,3.1,0,0,1-1.826-.572,3.989,3.989,0,0,1-1.3-1.584L75.262-3.124A4.7,4.7,0,0,0,77.209-.66,5.97,5.97,0,0,0,80.542.264Zm12.43,0a6.1,6.1,0,0,0,3.2-.825,4.555,4.555,0,0,0,1.925-2.1L95.766-3.806A3.158,3.158,0,0,1,94.677-2.7a3.137,3.137,0,0,1-1.683.429,3.136,3.136,0,0,1-2.178-.792A3.148,3.148,0,0,1,89.8-5.17h8.624a2.355,2.355,0,0,0,.121-.561,6.3,6.3,0,0,0,.033-.649A6.279,6.279,0,0,0,97.9-9.306a5.347,5.347,0,0,0-1.98-2.123,5.91,5.91,0,0,0-3.168-.8,5.754,5.754,0,0,0-3.025.814,5.885,5.885,0,0,0-2.134,2.211,6.448,6.448,0,0,0-.781,3.2,6.574,6.574,0,0,0,.77,3.168A5.823,5.823,0,0,0,89.738-.572,6.139,6.139,0,0,0,92.972.264Zm-.22-10.12a2.715,2.715,0,0,1,1.9.693A2.615,2.615,0,0,1,95.5-7.37H89.87a3.1,3.1,0,0,1,1.023-1.837A2.816,2.816,0,0,1,92.752-9.856ZM104.676,0h2.882V-16.654h-2.882Zm11.4.264a6.358,6.358,0,0,0,3.168-.8,6.157,6.157,0,0,0,2.288-2.222,6.105,6.105,0,0,0,.858-3.223,6.108,6.108,0,0,0-.847-3.212,6.185,6.185,0,0,0-2.277-2.222,6.334,6.334,0,0,0-3.19-.814,6.377,6.377,0,0,0-3.212.814A6.185,6.185,0,0,0,110.583-9.2a6.108,6.108,0,0,0-.847,3.212,6.108,6.108,0,0,0,.847,3.212A6.16,6.16,0,0,0,112.871-.55,6.394,6.394,0,0,0,116.072.264Zm0-2.64a3.255,3.255,0,0,1-1.727-.462,3.2,3.2,0,0,1-1.188-1.287,3.969,3.969,0,0,1-.429-1.859,3.9,3.9,0,0,1,.429-1.848,3.3,3.3,0,0,1,1.188-1.287,3.2,3.2,0,0,1,1.727-.473,3.087,3.087,0,0,1,1.705.473,3.355,3.355,0,0,1,1.166,1.287,3.9,3.9,0,0,1,.429,1.848,3.969,3.969,0,0,1-.429,1.859,3.253,3.253,0,0,1-1.166,1.287A3.142,3.142,0,0,1,116.072-2.376Zm14.3,7.216a6.353,6.353,0,0,0,3.036-.7A5.265,5.265,0,0,0,135.476,2.2a5.276,5.276,0,0,0,.748-2.794V-11.968H133.5v1.386a4.52,4.52,0,0,0-3.674-1.65,5.731,5.731,0,0,0-2.948.759,5.514,5.514,0,0,0-2.046,2.079,6.006,6.006,0,0,0-.748,3.014,6.084,6.084,0,0,0,.748,3.014A5.5,5.5,0,0,0,126.9-1.254a5.827,5.827,0,0,0,2.992.77,4.43,4.43,0,0,0,3.454-1.408v1.3a2.6,2.6,0,0,1-.836,2.057,3.108,3.108,0,0,1-2.134.737,3.412,3.412,0,0,1-1.925-.517A2.494,2.494,0,0,1,127.4.33l-2.684,1.012a4.921,4.921,0,0,0,2.1,2.541A6.556,6.556,0,0,0,130.372,4.84Zm-.132-7.986a3.044,3.044,0,0,1-2.277-.913,3.158,3.158,0,0,1-.891-2.3,3.378,3.378,0,0,1,.407-1.661,2.958,2.958,0,0,1,1.133-1.155,3.2,3.2,0,0,1,1.628-.418,2.946,2.946,0,0,1,2.233.913,3.231,3.231,0,0,1,.869,2.321,3.192,3.192,0,0,1-.869,2.31A2.964,2.964,0,0,1,130.24-3.146Zm8.668-10.164h2.882v-3.08h-2.882Zm0,13.31h2.882V-11.968h-2.882Zm5.544,0h2.882V-7.018a2.6,2.6,0,0,1,.671-1.87,2.306,2.306,0,0,1,1.749-.7A2.325,2.325,0,0,1,151.5-8.9a2.589,2.589,0,0,1,.671,1.881V0h2.882V-7.7a4.765,4.765,0,0,0-.572-2.365,4.068,4.068,0,0,0-1.6-1.6,4.719,4.719,0,0,0-2.343-.572,4.486,4.486,0,0,0-2.013.44,3.137,3.137,0,0,0-1.375,1.3v-1.474h-2.706Zm17.6.264A5.676,5.676,0,0,0,164.428-.2a3.792,3.792,0,0,0,1.584-1.287,3.258,3.258,0,0,0,.572-1.9,3.158,3.158,0,0,0-.792-2.156,4.6,4.6,0,0,0-2.288-1.32l-1.914-.572a3.241,3.241,0,0,1-1.012-.462.923.923,0,0,1-.4-.792,1.043,1.043,0,0,1,.418-.858,1.8,1.8,0,0,1,1.144-.33,2.922,2.922,0,0,1,1.639.484,2.515,2.515,0,0,1,1.023,1.3l2.2-1.034a4.528,4.528,0,0,0-1.848-2.277,5.457,5.457,0,0,0-2.992-.825,5.43,5.43,0,0,0-2.3.462,3.725,3.725,0,0,0-1.562,1.287,3.34,3.34,0,0,0-.561,1.925,3.155,3.155,0,0,0,.781,2.134,4.669,4.669,0,0,0,2.3,1.342l1.958.55a2.94,2.94,0,0,1,.979.451.943.943,0,0,1,.407.8,1.091,1.091,0,0,1-.473.935A2.079,2.079,0,0,1,162.052-2a3.1,3.1,0,0,1-1.826-.572,3.989,3.989,0,0,1-1.3-1.584l-2.156,1.034A4.7,4.7,0,0,0,158.719-.66,5.97,5.97,0,0,0,162.052.264Zm14.3,0a4.824,4.824,0,0,0,3.74-1.54V0h2.728V-7.964a3.945,3.945,0,0,0-.638-2.222,4.283,4.283,0,0,0-1.749-1.507,5.857,5.857,0,0,0-2.585-.539,6.048,6.048,0,0,0-3.212.858A4.453,4.453,0,0,0,172.7-9.108l2.354,1.144a2.894,2.894,0,0,1,1.034-1.309,2.8,2.8,0,0,1,1.65-.495,2.371,2.371,0,0,1,1.6.517,1.625,1.625,0,0,1,.6,1.287v.4L176.374-7a5.725,5.725,0,0,0-3.124,1.342,3.333,3.333,0,0,0-1.012,2.486A3.077,3.077,0,0,0,173.36-.66,4.56,4.56,0,0,0,176.352.264ZM175.23-3.278q0-1.254,1.694-1.584l3.014-.506v.484a2.863,2.863,0,0,1-.847,2.09,2.97,2.97,0,0,1-2.211.858,1.866,1.866,0,0,1-1.188-.363A1.18,1.18,0,0,1,175.23-3.278ZM185.482,0h2.882V-6.666a2.87,2.87,0,0,1,.759-2.123,2.664,2.664,0,0,1,1.969-.759h1.034V-12.1h-.7a4.475,4.475,0,0,0-1.936.4,2.723,2.723,0,0,0-1.3,1.43v-1.694h-2.706Zm13.9.264a6.1,6.1,0,0,0,3.2-.825,4.554,4.554,0,0,0,1.925-2.1L202.18-3.806A3.158,3.158,0,0,1,201.091-2.7a3.137,3.137,0,0,1-1.683.429,3.136,3.136,0,0,1-2.178-.792,3.148,3.148,0,0,1-1.012-2.112h8.624a2.354,2.354,0,0,0,.121-.561A6.3,6.3,0,0,0,205-6.38a6.279,6.279,0,0,0-.682-2.926,5.347,5.347,0,0,0-1.98-2.123,5.91,5.91,0,0,0-3.168-.8,5.754,5.754,0,0,0-3.025.814,5.885,5.885,0,0,0-2.134,2.211,6.448,6.448,0,0,0-.781,3.2A6.574,6.574,0,0,0,194-2.838a5.823,5.823,0,0,0,2.156,2.266A6.139,6.139,0,0,0,199.386.264Zm-.22-10.12a2.715,2.715,0,0,1,1.9.693,2.616,2.616,0,0,1,.847,1.793h-5.632a3.1,3.1,0,0,1,1.023-1.837A2.816,2.816,0,0,1,199.166-9.856Zm17.6,10.12a6.1,6.1,0,0,0,3.2-.825,4.554,4.554,0,0,0,1.925-2.1L219.56-3.806A3.158,3.158,0,0,1,218.471-2.7a3.137,3.137,0,0,1-1.683.429,3.136,3.136,0,0,1-2.178-.792A3.148,3.148,0,0,1,213.6-5.17h8.624a2.354,2.354,0,0,0,.121-.561,6.3,6.3,0,0,0,.033-.649,6.279,6.279,0,0,0-.682-2.926,5.347,5.347,0,0,0-1.98-2.123,5.91,5.91,0,0,0-3.168-.8,5.754,5.754,0,0,0-3.025.814,5.885,5.885,0,0,0-2.134,2.211,6.448,6.448,0,0,0-.781,3.2,6.574,6.574,0,0,0,.77,3.168,5.823,5.823,0,0,0,2.156,2.266A6.139,6.139,0,0,0,216.766.264Zm-.22-10.12a2.715,2.715,0,0,1,1.9.693A2.616,2.616,0,0,1,219.3-7.37h-5.632a3.1,3.1,0,0,1,1.023-1.837A2.816,2.816,0,0,1,216.546-9.856ZM224.554,0h2.882V-7.018a2.6,2.6,0,0,1,.671-1.87,2.306,2.306,0,0,1,1.749-.7,2.325,2.325,0,0,1,1.749.693,2.589,2.589,0,0,1,.671,1.881V0h2.882V-7.7a4.765,4.765,0,0,0-.572-2.365,4.068,4.068,0,0,0-1.595-1.6,4.719,4.719,0,0,0-2.343-.572,4.486,4.486,0,0,0-2.013.44,3.137,3.137,0,0,0-1.375,1.3v-1.474h-2.706ZM241.23.264a4.824,4.824,0,0,0,3.74-1.54V0H247.7V-7.964a3.945,3.945,0,0,0-.638-2.222,4.283,4.283,0,0,0-1.749-1.507,5.857,5.857,0,0,0-2.585-.539,6.048,6.048,0,0,0-3.212.858,4.453,4.453,0,0,0-1.936,2.266l2.354,1.144a2.894,2.894,0,0,1,1.034-1.309,2.8,2.8,0,0,1,1.65-.495,2.371,2.371,0,0,1,1.6.517,1.625,1.625,0,0,1,.6,1.287v.4L241.252-7a5.725,5.725,0,0,0-3.124,1.342,3.333,3.333,0,0,0-1.012,2.486A3.077,3.077,0,0,0,238.238-.66,4.56,4.56,0,0,0,241.23.264Zm-1.122-3.542q0-1.254,1.694-1.584l3.014-.506v.484a2.863,2.863,0,0,1-.847,2.09,2.97,2.97,0,0,1-2.211.858A1.866,1.866,0,0,1,240.57-2.3,1.18,1.18,0,0,1,240.108-3.278ZM256.894.264A5.875,5.875,0,0,0,260-.561a5.979,5.979,0,0,0,2.156-2.244,6.41,6.41,0,0,0,.792-3.179,6.41,6.41,0,0,0-.792-3.179A5.979,5.979,0,0,0,260-11.407a5.834,5.834,0,0,0-3.08-.825,4.72,4.72,0,0,0-3.674,1.474v-5.9H250.36V0h2.706V-1.342a4.361,4.361,0,0,0,1.661,1.188A5.567,5.567,0,0,0,256.894.264Zm-.33-2.64a3.214,3.214,0,0,1-1.7-.462,3.217,3.217,0,0,1-1.188-1.276,3.951,3.951,0,0,1-.429-1.87,3.951,3.951,0,0,1,.429-1.87,3.217,3.217,0,0,1,1.188-1.276,3.214,3.214,0,0,1,1.7-.462,3.238,3.238,0,0,1,1.749.473,3.378,3.378,0,0,1,1.2,1.287,3.824,3.824,0,0,1,.44,1.848,3.888,3.888,0,0,1-.44,1.859,3.276,3.276,0,0,1-1.2,1.287A3.3,3.3,0,0,1,256.564-2.376ZM265.144,0h2.882V-16.654h-2.882Zm11.22.264a6.1,6.1,0,0,0,3.2-.825,4.555,4.555,0,0,0,1.925-2.1l-2.332-1.144A3.158,3.158,0,0,1,278.069-2.7a3.137,3.137,0,0,1-1.683.429,3.136,3.136,0,0,1-2.178-.792A3.148,3.148,0,0,1,273.2-5.17h8.624a2.353,2.353,0,0,0,.121-.561,6.3,6.3,0,0,0,.033-.649,6.279,6.279,0,0,0-.682-2.926,5.347,5.347,0,0,0-1.98-2.123,5.91,5.91,0,0,0-3.168-.8,5.754,5.754,0,0,0-3.025.814,5.885,5.885,0,0,0-2.134,2.211,6.448,6.448,0,0,0-.781,3.2,6.574,6.574,0,0,0,.77,3.168A5.823,5.823,0,0,0,273.13-.572,6.139,6.139,0,0,0,276.364.264Zm-.22-10.12a2.715,2.715,0,0,1,1.9.693,2.616,2.616,0,0,1,.847,1.793h-5.632a3.1,3.1,0,0,1,1.023-1.837A2.816,2.816,0,0,1,276.144-9.856ZM289.718.264a5.616,5.616,0,0,0,2.156-.407,4.276,4.276,0,0,0,1.65-1.177V0h2.728V-16.654H293.37v5.9a4.72,4.72,0,0,0-3.674-1.474,5.85,5.85,0,0,0-3.069.825,5.952,5.952,0,0,0-2.167,2.244,6.41,6.41,0,0,0-.792,3.179,6.41,6.41,0,0,0,.792,3.179,5.979,5.979,0,0,0,2.156,2.244A5.875,5.875,0,0,0,289.718.264Zm.308-2.64a3.312,3.312,0,0,1-1.738-.462,3.175,3.175,0,0,1-1.2-1.287,3.969,3.969,0,0,1-.429-1.859,3.9,3.9,0,0,1,.429-1.848,3.27,3.27,0,0,1,1.2-1.287,3.253,3.253,0,0,1,1.738-.473,3.255,3.255,0,0,1,1.727.462,3.217,3.217,0,0,1,1.188,1.276,3.951,3.951,0,0,1,.429,1.87,3.951,3.951,0,0,1-.429,1.87,3.217,3.217,0,0,1-1.188,1.276A3.255,3.255,0,0,1,290.026-2.376Z" transform="translate(147.04 48.09)" fill="#1ac1bc"/>
    <path id="Path_652" data-name="Path 652" d="M6.3.216A5.1,5.1,0,0,0,8.811-.378a4.262,4.262,0,0,0,1.665-1.629,4.67,4.67,0,0,0,.594-2.367V-13.41H9.63v9.036a3.125,3.125,0,0,1-.918,2.349A3.316,3.316,0,0,1,6.3-1.134a3.324,3.324,0,0,1-2.4-.891A3.109,3.109,0,0,1,2.97-4.374V-13.41H1.53v9.036a4.67,4.67,0,0,0,.594,2.367A4.246,4.246,0,0,0,3.8-.378,5.108,5.108,0,0,0,6.3.216Zm11.034,0a4.274,4.274,0,0,0,1.782-.351,2.912,2.912,0,0,0,1.215-.981,2.421,2.421,0,0,0,.441-1.422,2.429,2.429,0,0,0-.657-1.692,3.879,3.879,0,0,0-1.827-1.062l-1.6-.468a4.9,4.9,0,0,1-.585-.216,1.633,1.633,0,0,1-.585-.432,1.134,1.134,0,0,1-.252-.774,1.313,1.313,0,0,1,.486-1.044,1.931,1.931,0,0,1,1.3-.414,2.613,2.613,0,0,1,1.5.459,2.934,2.934,0,0,1,1.035,1.269l1.152-.54a3.451,3.451,0,0,0-1.413-1.773A4.04,4.04,0,0,0,17.1-9.864a3.849,3.849,0,0,0-1.638.342,2.825,2.825,0,0,0-1.17.972,2.546,2.546,0,0,0-.432,1.476,2.343,2.343,0,0,0,.594,1.584A3.9,3.9,0,0,0,16.38-4.428l1.386.4a4.5,4.5,0,0,1,.666.234,2.037,2.037,0,0,1,.666.459,1.1,1.1,0,0,1,.288.8,1.3,1.3,0,0,1-.594,1.107,2.449,2.449,0,0,1-1.458.423,2.812,2.812,0,0,1-1.647-.522,3.474,3.474,0,0,1-1.161-1.4l-1.134.54A3.972,3.972,0,0,0,14.9-.486,4.251,4.251,0,0,0,17.334.216Zm10.206,0a4.76,4.76,0,0,0,1.809-.333A4.623,4.623,0,0,0,30.762-1a3.657,3.657,0,0,0,.882-1.2l-1.152-.612a4.049,4.049,0,0,1-1.17,1.26,3.031,3.031,0,0,1-1.782.5,3.321,3.321,0,0,1-1.62-.414,3.361,3.361,0,0,1-1.233-1.161,3.488,3.488,0,0,1-.513-1.791h7.6q.036-.234.054-.459t.018-.405a4.772,4.772,0,0,0-.306-1.683,4.734,4.734,0,0,0-.882-1.476,4.241,4.241,0,0,0-1.4-1.044A4.31,4.31,0,0,0,27.4-9.864a4.425,4.425,0,0,0-2.367.648,4.645,4.645,0,0,0-1.665,1.773,5.319,5.319,0,0,0-.612,2.583,5.35,5.35,0,0,0,.63,2.61A4.706,4.706,0,0,0,25.1-.441,4.629,4.629,0,0,0,27.54.216ZM27.4-8.6a2.987,2.987,0,0,1,1.485.378,2.93,2.93,0,0,1,1.08,1.035,2.96,2.96,0,0,1,.423,1.521H24.21a3.373,3.373,0,0,1,.567-1.557A3.2,3.2,0,0,1,25.92-8.244,3.122,3.122,0,0,1,27.4-8.6ZM34.218,0h1.35V-5.94a2.525,2.525,0,0,1,.63-1.836,2.228,2.228,0,0,1,1.674-.648h.846v-1.35h-.612a3.492,3.492,0,0,0-1.521.306,2.511,2.511,0,0,0-1.017.864V-9.648h-1.35ZM43.65.216a4.274,4.274,0,0,0,1.782-.351,2.912,2.912,0,0,0,1.215-.981,2.421,2.421,0,0,0,.441-1.422,2.429,2.429,0,0,0-.657-1.692A3.879,3.879,0,0,0,44.6-5.292L43-5.76a4.9,4.9,0,0,1-.585-.216,1.633,1.633,0,0,1-.585-.432,1.134,1.134,0,0,1-.252-.774,1.313,1.313,0,0,1,.486-1.044,1.931,1.931,0,0,1,1.3-.414,2.613,2.613,0,0,1,1.5.459A2.934,2.934,0,0,1,45.9-6.912l1.152-.54a3.451,3.451,0,0,0-1.413-1.773,4.04,4.04,0,0,0-2.223-.639,3.849,3.849,0,0,0-1.638.342,2.825,2.825,0,0,0-1.17.972,2.546,2.546,0,0,0-.432,1.476A2.343,2.343,0,0,0,40.77-5.49,3.9,3.9,0,0,0,42.7-4.428l1.386.4a4.5,4.5,0,0,1,.666.234,2.037,2.037,0,0,1,.666.459,1.1,1.1,0,0,1,.288.8,1.3,1.3,0,0,1-.594,1.107,2.449,2.449,0,0,1-1.458.423A2.812,2.812,0,0,1,42-1.53a3.474,3.474,0,0,1-1.161-1.4l-1.134.54A3.972,3.972,0,0,0,41.22-.486,4.251,4.251,0,0,0,43.65.216Zm11-.216H56L58.32-7.632,60.624,0h1.35l3.312-9.648H63.774L61.308-2.07,58.986-9.648h-1.35l-2.3,7.578L52.866-9.648h-1.53ZM66.87-11.43h1.35v-1.98H66.87ZM66.87,0h1.35V-9.648H66.87Zm4.122,0h1.35V-13.626h-1.35Zm4.122,0h1.35V-13.626h-1.35Zm12.06.216a4.57,4.57,0,0,0,2.439-.657,4.7,4.7,0,0,0,1.692-1.8,5.322,5.322,0,0,0,.621-2.583,5.308,5.308,0,0,0-.621-2.592,4.718,4.718,0,0,0-1.692-1.791,4.57,4.57,0,0,0-2.439-.657,4.486,4.486,0,0,0-2.034.45A4.251,4.251,0,0,0,83.646-8.19v-5.436H82.3V0h1.35V-1.566A3.646,3.646,0,0,0,85.122-.252,4.523,4.523,0,0,0,87.174.216ZM87.1-1.134a3.26,3.26,0,0,1-1.755-.486,3.515,3.515,0,0,1-1.242-1.323,3.847,3.847,0,0,1-.459-1.881,3.847,3.847,0,0,1,.459-1.881,3.515,3.515,0,0,1,1.242-1.323A3.26,3.26,0,0,1,87.1-8.514a3.17,3.17,0,0,1,1.737.486,3.443,3.443,0,0,1,1.206,1.314,3.958,3.958,0,0,1,.441,1.89,3.973,3.973,0,0,1-.441,1.881A3.426,3.426,0,0,1,88.839-1.62,3.17,3.17,0,0,1,87.1-1.134ZM98.694.216A4.76,4.76,0,0,0,100.5-.117,4.623,4.623,0,0,0,101.916-1a3.657,3.657,0,0,0,.882-1.2l-1.152-.612a4.049,4.049,0,0,1-1.17,1.26,3.031,3.031,0,0,1-1.782.5,3.321,3.321,0,0,1-1.62-.414,3.361,3.361,0,0,1-1.233-1.161,3.488,3.488,0,0,1-.513-1.791h7.6q.036-.234.054-.459T103-5.274a4.772,4.772,0,0,0-.306-1.683,4.734,4.734,0,0,0-.882-1.476,4.241,4.241,0,0,0-1.395-1.044,4.31,4.31,0,0,0-1.863-.387,4.425,4.425,0,0,0-2.367.648,4.645,4.645,0,0,0-1.665,1.773,5.319,5.319,0,0,0-.612,2.583,5.35,5.35,0,0,0,.63,2.61A4.706,4.706,0,0,0,96.255-.441,4.629,4.629,0,0,0,98.694.216ZM98.55-8.6a2.987,2.987,0,0,1,1.485.378,2.93,2.93,0,0,1,1.08,1.035,2.96,2.96,0,0,1,.423,1.521H95.364a3.373,3.373,0,0,1,.567-1.557,3.2,3.2,0,0,1,1.143-1.017A3.122,3.122,0,0,1,98.55-8.6ZM111.222.216a4.445,4.445,0,0,0,2.016-.45,3.447,3.447,0,0,0,1.368-1.152V0h1.35V-6.624a3.091,3.091,0,0,0-.459-1.683,3.154,3.154,0,0,0-1.278-1.143,4.114,4.114,0,0,0-1.881-.414,4.246,4.246,0,0,0-1.566.3,4.629,4.629,0,0,0-1.341.8,3.165,3.165,0,0,0-.855,1.116l1.224.666a2.716,2.716,0,0,1,.99-1.143,2.739,2.739,0,0,1,1.548-.441,2.429,2.429,0,0,1,1.638.54,1.762,1.762,0,0,1,.63,1.4v.5l-3.492.576a3.9,3.9,0,0,0-2.34,1.1,2.828,2.828,0,0,0-.738,1.944,2.446,2.446,0,0,0,.414,1.4,2.836,2.836,0,0,0,1.134.963A3.691,3.691,0,0,0,111.222.216Zm-1.746-2.772a1.621,1.621,0,0,1,.459-1.152,2.641,2.641,0,0,1,1.5-.666l3.168-.522v.72a3.156,3.156,0,0,1-.414,1.6,3.054,3.054,0,0,1-1.152,1.143,3.415,3.415,0,0,1-1.728.423,1.933,1.933,0,0,1-1.323-.45A1.407,1.407,0,0,1,109.476-2.556ZM123.606.216a4.57,4.57,0,0,0,2.439-.657,4.7,4.7,0,0,0,1.692-1.8,5.322,5.322,0,0,0,.621-2.583,5.308,5.308,0,0,0-.621-2.592,4.718,4.718,0,0,0-1.692-1.791,4.57,4.57,0,0,0-2.439-.657,4.486,4.486,0,0,0-2.034.45,4.251,4.251,0,0,0-1.494,1.224v-5.436h-1.35V0h1.35V-1.566a3.646,3.646,0,0,0,1.476,1.314A4.523,4.523,0,0,0,123.606.216Zm-.072-1.35a3.26,3.26,0,0,1-1.755-.486,3.515,3.515,0,0,1-1.242-1.323,3.847,3.847,0,0,1-.459-1.881,3.847,3.847,0,0,1,.459-1.881,3.515,3.515,0,0,1,1.242-1.323,3.26,3.26,0,0,1,1.755-.486,3.17,3.17,0,0,1,1.737.486,3.443,3.443,0,0,1,1.206,1.314,3.958,3.958,0,0,1,.441,1.89,3.973,3.973,0,0,1-.441,1.881,3.426,3.426,0,0,1-1.206,1.323A3.17,3.17,0,0,1,123.534-1.134ZM130.734,0h1.35V-13.626h-1.35Zm8.514.216a4.76,4.76,0,0,0,1.809-.333A4.623,4.623,0,0,0,142.47-1a3.657,3.657,0,0,0,.882-1.2L142.2-2.808a4.049,4.049,0,0,1-1.17,1.26,3.031,3.031,0,0,1-1.782.5,3.321,3.321,0,0,1-1.62-.414,3.361,3.361,0,0,1-1.233-1.161,3.488,3.488,0,0,1-.513-1.791h7.6q.036-.234.054-.459t.018-.405a4.772,4.772,0,0,0-.306-1.683,4.734,4.734,0,0,0-.882-1.476,4.241,4.241,0,0,0-1.4-1.044,4.31,4.31,0,0,0-1.863-.387,4.425,4.425,0,0,0-2.367.648,4.645,4.645,0,0,0-1.665,1.773,5.319,5.319,0,0,0-.612,2.583,5.35,5.35,0,0,0,.63,2.61,4.706,4.706,0,0,0,1.719,1.809A4.629,4.629,0,0,0,139.248.216ZM139.1-8.6a2.987,2.987,0,0,1,1.485.378,2.93,2.93,0,0,1,1.08,1.035,2.96,2.96,0,0,1,.423,1.521h-6.174a3.373,3.373,0,0,1,.567-1.557,3.2,3.2,0,0,1,1.143-1.017A3.122,3.122,0,0,1,139.1-8.6ZM152.676.108q.162,0,.432-.027A3.414,3.414,0,0,0,153.594,0V-1.206q-.144.018-.342.036t-.342.018a1.445,1.445,0,0,1-1.242-.468,1.962,1.962,0,0,1-.342-1.188V-8.3h2.124v-1.35h-2.124V-11.88h-1.35v.81a1.474,1.474,0,0,1-.36,1.017,1.235,1.235,0,0,1-.972.405h-.45V-8.3h1.782v5.49a3.059,3.059,0,0,0,.7,2.16A2.592,2.592,0,0,0,152.676.108Zm7.092.108a4.774,4.774,0,0,0,2.457-.648A4.882,4.882,0,0,0,164-2.223a5.106,5.106,0,0,0,.666-2.619,5.188,5.188,0,0,0-.639-2.592,4.7,4.7,0,0,0-1.746-1.782,4.877,4.877,0,0,0-2.511-.648,4.825,4.825,0,0,0-2.511.657A4.834,4.834,0,0,0,155.5-7.416a5.1,5.1,0,0,0-.648,2.574,5.125,5.125,0,0,0,.657,2.6,4.861,4.861,0,0,0,1.773,1.8A4.8,4.8,0,0,0,159.768.216Zm0-1.35a3.26,3.26,0,0,1-1.755-.486,3.566,3.566,0,0,1-1.251-1.332,3.838,3.838,0,0,1-.468-1.89,3.737,3.737,0,0,1,.468-1.872,3.6,3.6,0,0,1,1.251-1.314,3.26,3.26,0,0,1,1.755-.486,3.26,3.26,0,0,1,1.755.486,3.534,3.534,0,0,1,1.242,1.314,3.8,3.8,0,0,1,.459,1.872,3.9,3.9,0,0,1-.459,1.89,3.5,3.5,0,0,1-1.242,1.332A3.26,3.26,0,0,1,159.768-1.134ZM172.89.216a4.445,4.445,0,0,0,2.016-.45,3.447,3.447,0,0,0,1.368-1.152V0h1.35V-6.624a3.091,3.091,0,0,0-.459-1.683,3.154,3.154,0,0,0-1.278-1.143,4.114,4.114,0,0,0-1.881-.414,4.246,4.246,0,0,0-1.566.3,4.629,4.629,0,0,0-1.341.8,3.165,3.165,0,0,0-.855,1.116l1.224.666a2.716,2.716,0,0,1,.99-1.143,2.739,2.739,0,0,1,1.548-.441,2.429,2.429,0,0,1,1.638.54,1.762,1.762,0,0,1,.63,1.4v.5l-3.492.576a3.9,3.9,0,0,0-2.34,1.1A2.828,2.828,0,0,0,169.7-2.5a2.446,2.446,0,0,0,.414,1.4,2.836,2.836,0,0,0,1.134.963A3.691,3.691,0,0,0,172.89.216Zm-1.746-2.772a1.621,1.621,0,0,1,.459-1.152,2.641,2.641,0,0,1,1.5-.666l3.168-.522v.72a3.156,3.156,0,0,1-.414,1.6,3.054,3.054,0,0,1-1.152,1.143,3.415,3.415,0,0,1-1.728.423,1.933,1.933,0,0,1-1.323-.45A1.407,1.407,0,0,1,171.144-2.556ZM183.816.216a3.432,3.432,0,0,0,1.62-.378,3.075,3.075,0,0,0,1.152-1.026V0h1.35V-9.648h-1.35v5.742a2.809,2.809,0,0,1-.711,2.034,2.425,2.425,0,0,1-1.827.738,2.421,2.421,0,0,1-1.8-.711,2.561,2.561,0,0,1-.7-1.881V-9.648H180.2v6.084a3.978,3.978,0,0,0,.477,1.971A3.439,3.439,0,0,0,181.98-.261,3.612,3.612,0,0,0,183.816.216ZM194.4.108q.162,0,.432-.027A3.414,3.414,0,0,0,195.318,0V-1.206q-.144.018-.342.036t-.342.018a1.445,1.445,0,0,1-1.242-.468,1.962,1.962,0,0,1-.342-1.188V-8.3h2.124v-1.35H193.05V-11.88H191.7v.81a1.474,1.474,0,0,1-.36,1.017,1.235,1.235,0,0,1-.972.405h-.45V-8.3H191.7v5.49a3.059,3.059,0,0,0,.7,2.16A2.592,2.592,0,0,0,194.4.108ZM197.694,0h1.35V-5.742a2.768,2.768,0,0,1,.729-2.034,2.441,2.441,0,0,1,1.809-.738,2.4,2.4,0,0,1,1.791.729,2.8,2.8,0,0,1,.711,2.043V0h1.35V-6.264a3.6,3.6,0,0,0-.477-1.845,3.465,3.465,0,0,0-1.3-1.287,3.652,3.652,0,0,0-1.845-.468,3.432,3.432,0,0,0-1.62.378,3.075,3.075,0,0,0-1.152,1.026v-5.166h-1.35ZM212.4.216a4.76,4.76,0,0,0,1.809-.333A4.623,4.623,0,0,0,215.622-1a3.657,3.657,0,0,0,.882-1.2l-1.152-.612a4.049,4.049,0,0,1-1.17,1.26,3.031,3.031,0,0,1-1.782.5,3.321,3.321,0,0,1-1.62-.414,3.361,3.361,0,0,1-1.233-1.161,3.488,3.488,0,0,1-.513-1.791h7.6q.036-.234.054-.459t.018-.405a4.772,4.772,0,0,0-.306-1.683,4.734,4.734,0,0,0-.882-1.476,4.241,4.241,0,0,0-1.4-1.044,4.31,4.31,0,0,0-1.863-.387,4.425,4.425,0,0,0-2.367.648,4.645,4.645,0,0,0-1.665,1.773,5.319,5.319,0,0,0-.612,2.583,5.35,5.35,0,0,0,.63,2.61,4.706,4.706,0,0,0,1.719,1.809A4.629,4.629,0,0,0,212.4.216Zm-.144-8.82a2.987,2.987,0,0,1,1.485.378,2.93,2.93,0,0,1,1.08,1.035,2.96,2.96,0,0,1,.423,1.521H209.07a3.373,3.373,0,0,1,.567-1.557,3.2,3.2,0,0,1,1.143-1.017A3.122,3.122,0,0,1,212.256-8.6ZM219.078,0h1.35V-5.742a2.789,2.789,0,0,1,.72-2.034,2.433,2.433,0,0,1,1.818-.738,2.382,2.382,0,0,1,1.809.729,2.847,2.847,0,0,1,.693,2.043V0h1.35V-6.264a3.6,3.6,0,0,0-.477-1.845,3.465,3.465,0,0,0-1.3-1.287,3.652,3.652,0,0,0-1.845-.468,3.432,3.432,0,0,0-1.62.378,3.075,3.075,0,0,0-1.152,1.026V-9.648h-1.35Zm14,.108q.162,0,.432-.027A3.414,3.414,0,0,0,234,0V-1.206q-.144.018-.342.036t-.342.018a1.445,1.445,0,0,1-1.242-.468,1.962,1.962,0,0,1-.342-1.188V-8.3h2.124v-1.35h-2.124V-11.88h-1.35v.81a1.474,1.474,0,0,1-.36,1.017,1.235,1.235,0,0,1-.972.405h-.45V-8.3h1.782v5.49a3.059,3.059,0,0,0,.7,2.16A2.592,2.592,0,0,0,233.082.108Zm3.294-11.538h1.35v-1.98h-1.35Zm0,11.43h1.35V-9.648h-1.35Zm8.532.216A4.425,4.425,0,0,0,246.6-.108,4.713,4.713,0,0,0,248-.99a3.7,3.7,0,0,0,.918-1.26L247.7-2.916a3.1,3.1,0,0,1-1.107,1.3,2.963,2.963,0,0,1-1.683.486,3.138,3.138,0,0,1-1.719-.486,3.426,3.426,0,0,1-1.206-1.323,3.973,3.973,0,0,1-.441-1.881,4.012,4.012,0,0,1,.441-1.9,3.359,3.359,0,0,1,1.206-1.314,3.182,3.182,0,0,1,1.719-.477,3.006,3.006,0,0,1,1.692.486,3,3,0,0,1,1.1,1.26l1.224-.63A3.566,3.566,0,0,0,248-8.667a4.812,4.812,0,0,0-1.4-.873,4.425,4.425,0,0,0-1.692-.324,4.718,4.718,0,0,0-2.5.657,4.629,4.629,0,0,0-1.692,1.791,5.333,5.333,0,0,0-.612,2.574,5.385,5.385,0,0,0,.612,2.583A4.678,4.678,0,0,0,242.406-.45,4.669,4.669,0,0,0,244.908.216Zm8.82,0a4.445,4.445,0,0,0,2.016-.45,3.447,3.447,0,0,0,1.368-1.152V0h1.35V-6.624A3.091,3.091,0,0,0,258-8.307a3.154,3.154,0,0,0-1.278-1.143,4.114,4.114,0,0,0-1.881-.414,4.246,4.246,0,0,0-1.566.3,4.629,4.629,0,0,0-1.341.8,3.165,3.165,0,0,0-.855,1.116l1.224.666a2.716,2.716,0,0,1,.99-1.143,2.739,2.739,0,0,1,1.548-.441,2.429,2.429,0,0,1,1.638.54,1.762,1.762,0,0,1,.63,1.4v.5l-3.492.576a3.9,3.9,0,0,0-2.34,1.1,2.828,2.828,0,0,0-.738,1.944,2.446,2.446,0,0,0,.414,1.4,2.836,2.836,0,0,0,1.134.963A3.691,3.691,0,0,0,253.728.216Zm-1.746-2.772a1.621,1.621,0,0,1,.459-1.152,2.641,2.641,0,0,1,1.5-.666l3.168-.522v.72a3.156,3.156,0,0,1-.414,1.6,3.054,3.054,0,0,1-1.152,1.143,3.415,3.415,0,0,1-1.728.423,1.933,1.933,0,0,1-1.323-.45A1.407,1.407,0,0,1,251.982-2.556ZM264.564.108q.162,0,.432-.027A3.413,3.413,0,0,0,265.482,0V-1.206q-.144.018-.342.036t-.342.018a1.445,1.445,0,0,1-1.242-.468,1.962,1.962,0,0,1-.342-1.188V-8.3h2.124v-1.35h-2.124V-11.88h-1.35v.81a1.474,1.474,0,0,1-.36,1.017,1.235,1.235,0,0,1-.972.405h-.45V-8.3h1.782v5.49a3.059,3.059,0,0,0,.7,2.16A2.592,2.592,0,0,0,264.564.108Zm6.966.108a4.76,4.76,0,0,0,1.809-.333A4.623,4.623,0,0,0,274.752-1a3.657,3.657,0,0,0,.882-1.2l-1.152-.612a4.049,4.049,0,0,1-1.17,1.26,3.031,3.031,0,0,1-1.782.5,3.321,3.321,0,0,1-1.62-.414,3.361,3.361,0,0,1-1.233-1.161,3.489,3.489,0,0,1-.513-1.791h7.6q.036-.234.054-.459t.018-.405a4.771,4.771,0,0,0-.306-1.683,4.734,4.734,0,0,0-.882-1.476,4.241,4.241,0,0,0-1.395-1.044,4.31,4.31,0,0,0-1.863-.387,4.425,4.425,0,0,0-2.367.648,4.645,4.645,0,0,0-1.665,1.773,5.319,5.319,0,0,0-.612,2.583,5.35,5.35,0,0,0,.63,2.61,4.706,4.706,0,0,0,1.719,1.809A4.629,4.629,0,0,0,271.53.216Zm-.144-8.82a2.987,2.987,0,0,1,1.485.378,2.93,2.93,0,0,1,1.08,1.035,2.961,2.961,0,0,1,.423,1.521H268.2a3.373,3.373,0,0,1,.567-1.557,3.2,3.2,0,0,1,1.143-1.017A3.122,3.122,0,0,1,271.386-8.6ZM283.392,0h1.35l2.322-7.632L289.368,0h1.35l3.312-9.648h-1.512L290.052-2.07,287.73-9.648h-1.35l-2.3,7.578L281.61-9.648h-1.53Zm12.222-11.43h1.35v-1.98h-1.35Zm0,11.43h1.35V-9.648h-1.35Zm7.812.108q.162,0,.432-.027A3.415,3.415,0,0,0,304.344,0V-1.206q-.144.018-.342.036t-.342.018a1.445,1.445,0,0,1-1.242-.468,1.962,1.962,0,0,1-.342-1.188V-8.3H304.2v-1.35h-2.124V-11.88h-1.35v.81a1.474,1.474,0,0,1-.36,1.017,1.235,1.235,0,0,1-.972.405h-.45V-8.3h1.782v5.49a3.059,3.059,0,0,0,.7,2.16A2.592,2.592,0,0,0,303.426.108ZM306.72,0h1.35V-5.742a2.768,2.768,0,0,1,.729-2.034,2.441,2.441,0,0,1,1.809-.738,2.4,2.4,0,0,1,1.791.729,2.8,2.8,0,0,1,.711,2.043V0h1.35V-6.264a3.6,3.6,0,0,0-.477-1.845,3.465,3.465,0,0,0-1.3-1.287,3.652,3.652,0,0,0-1.845-.468,3.432,3.432,0,0,0-1.62.378A3.075,3.075,0,0,0,308.07-8.46v-5.166h-1.35Zm17.064.108q.162,0,.432-.027A3.413,3.413,0,0,0,324.7,0V-1.206q-.144.018-.342.036t-.342.018a1.445,1.445,0,0,1-1.242-.468,1.962,1.962,0,0,1-.342-1.188V-8.3h2.124v-1.35h-2.124V-11.88h-1.35v.81a1.474,1.474,0,0,1-.36,1.017,1.235,1.235,0,0,1-.972.405h-.45V-8.3h1.782v5.49a3.059,3.059,0,0,0,.7,2.16A2.592,2.592,0,0,0,323.784.108ZM327.078,0h1.35V-5.742a2.768,2.768,0,0,1,.729-2.034,2.441,2.441,0,0,1,1.809-.738,2.4,2.4,0,0,1,1.791.729,2.8,2.8,0,0,1,.711,2.043V0h1.35V-6.264a3.6,3.6,0,0,0-.477-1.845,3.465,3.465,0,0,0-1.3-1.287,3.652,3.652,0,0,0-1.845-.468,3.432,3.432,0,0,0-1.62.378,3.075,3.075,0,0,0-1.152,1.026v-5.166h-1.35Zm14.706.216a4.76,4.76,0,0,0,1.809-.333A4.623,4.623,0,0,0,345.006-1a3.657,3.657,0,0,0,.882-1.2l-1.152-.612a4.049,4.049,0,0,1-1.17,1.26,3.031,3.031,0,0,1-1.782.5,3.321,3.321,0,0,1-1.62-.414,3.361,3.361,0,0,1-1.233-1.161,3.489,3.489,0,0,1-.513-1.791h7.6q.036-.234.054-.459t.018-.405a4.771,4.771,0,0,0-.306-1.683,4.734,4.734,0,0,0-.882-1.476A4.241,4.241,0,0,0,343.5-9.477a4.31,4.31,0,0,0-1.863-.387,4.425,4.425,0,0,0-2.367.648,4.645,4.645,0,0,0-1.665,1.773A5.319,5.319,0,0,0,337-4.86a5.35,5.35,0,0,0,.63,2.61,4.706,4.706,0,0,0,1.719,1.809A4.629,4.629,0,0,0,341.784.216ZM341.64-8.6a2.987,2.987,0,0,1,1.485.378,2.93,2.93,0,0,1,1.08,1.035,2.961,2.961,0,0,1,.423,1.521h-6.174a3.373,3.373,0,0,1,.567-1.557,3.2,3.2,0,0,1,1.143-1.017A3.122,3.122,0,0,1,341.64-8.6Zm6.822-2.826h1.35v-1.98h-1.35Zm0,11.43h1.35V-9.648h-1.35Zm4.122,0h1.35V-5.94a2.525,2.525,0,0,1,.63-1.836,2.228,2.228,0,0,1,1.674-.648h.846v-1.35h-.612a3.492,3.492,0,0,0-1.521.306,2.511,2.511,0,0,0-1.017.864V-9.648h-1.35ZM4.05,21.6H5.58L8.856,10.116,12.132,21.6h1.53L17.514,8.19H16.056L12.87,19.62,9.63,8.19H8.1L4.842,19.656,1.656,8.19H.2ZM19.1,10.17h1.35V8.19H19.1Zm0,11.43h1.35V11.952H19.1Zm4.122,0h1.35V15.66a2.525,2.525,0,0,1,.63-1.836,2.228,2.228,0,0,1,1.674-.648h.846v-1.35h-.612a3.492,3.492,0,0,0-1.521.306A2.511,2.511,0,0,0,24.57,13V11.952H23.22Zm10.476.216a4.76,4.76,0,0,0,1.809-.333,4.623,4.623,0,0,0,1.413-.882,3.657,3.657,0,0,0,.882-1.2l-1.152-.612a4.049,4.049,0,0,1-1.17,1.26,3.031,3.031,0,0,1-1.782.5,3.321,3.321,0,0,1-1.62-.414,3.361,3.361,0,0,1-1.233-1.161,3.488,3.488,0,0,1-.513-1.791h7.6q.036-.234.054-.459T38,16.326a4.806,4.806,0,0,0-1.188-3.159,4.241,4.241,0,0,0-1.395-1.044,4.31,4.31,0,0,0-1.863-.387,4.425,4.425,0,0,0-2.367.648,4.645,4.645,0,0,0-1.665,1.773,5.319,5.319,0,0,0-.612,2.583,5.35,5.35,0,0,0,.63,2.61,4.706,4.706,0,0,0,1.719,1.809A4.629,4.629,0,0,0,33.7,21.816ZM33.552,13a2.987,2.987,0,0,1,1.485.378,2.93,2.93,0,0,1,1.08,1.035,2.96,2.96,0,0,1,.423,1.521H30.366a3.373,3.373,0,0,1,.567-1.557,3.2,3.2,0,0,1,1.143-1.017A3.122,3.122,0,0,1,33.552,13ZM42.5,21.6h1.35l2.322-7.632,2.3,7.632h1.35l3.312-9.648H51.624L49.158,19.53l-2.322-7.578h-1.35l-2.3,7.578-2.466-7.578h-1.53ZM54.72,10.17h1.35V8.19H54.72Zm0,11.43h1.35V11.952H54.72Zm7.47.216a4.274,4.274,0,0,0,1.782-.351,2.912,2.912,0,0,0,1.215-.981,2.51,2.51,0,0,0-.216-3.114,3.879,3.879,0,0,0-1.827-1.062l-1.6-.468a4.9,4.9,0,0,1-.585-.216,1.633,1.633,0,0,1-.585-.432,1.134,1.134,0,0,1-.252-.774,1.313,1.313,0,0,1,.486-1.044,1.931,1.931,0,0,1,1.3-.414,2.613,2.613,0,0,1,1.5.459,2.934,2.934,0,0,1,1.035,1.269l1.152-.54a3.451,3.451,0,0,0-1.413-1.773,4.04,4.04,0,0,0-2.223-.639,3.849,3.849,0,0,0-1.638.342,2.825,2.825,0,0,0-1.17.972,2.546,2.546,0,0,0-.432,1.476,2.343,2.343,0,0,0,.594,1.584,3.9,3.9,0,0,0,1.926,1.062l1.386.4a4.5,4.5,0,0,1,.666.234,2.037,2.037,0,0,1,.666.459,1.1,1.1,0,0,1,.288.8,1.3,1.3,0,0,1-.594,1.107,2.449,2.449,0,0,1-1.458.423,2.812,2.812,0,0,1-1.647-.522,3.474,3.474,0,0,1-1.161-1.4l-1.134.54a3.972,3.972,0,0,0,1.512,1.908A4.251,4.251,0,0,0,62.19,21.816Zm10.206,0a4.76,4.76,0,0,0,1.809-.333,4.623,4.623,0,0,0,1.413-.882,3.657,3.657,0,0,0,.882-1.2l-1.152-.612a4.049,4.049,0,0,1-1.17,1.26,3.031,3.031,0,0,1-1.782.5,3.321,3.321,0,0,1-1.62-.414,3.361,3.361,0,0,1-1.233-1.161,3.488,3.488,0,0,1-.513-1.791h7.6q.036-.234.054-.459t.018-.405a4.806,4.806,0,0,0-1.188-3.159,4.241,4.241,0,0,0-1.395-1.044,4.31,4.31,0,0,0-1.863-.387,4.425,4.425,0,0,0-2.367.648,4.645,4.645,0,0,0-1.665,1.773,5.319,5.319,0,0,0-.612,2.583,5.35,5.35,0,0,0,.63,2.61,4.706,4.706,0,0,0,1.719,1.809A4.629,4.629,0,0,0,72.4,21.816ZM72.252,13a2.987,2.987,0,0,1,1.485.378,2.93,2.93,0,0,1,1.08,1.035,2.961,2.961,0,0,1,.423,1.521H69.066a3.373,3.373,0,0,1,.567-1.557,3.2,3.2,0,0,1,1.143-1.017A3.122,3.122,0,0,1,72.252,13Zm12.672,8.82a4.445,4.445,0,0,0,2.016-.45,3.447,3.447,0,0,0,1.368-1.152V21.6h1.35V14.976a3.091,3.091,0,0,0-.459-1.683,3.154,3.154,0,0,0-1.278-1.143,4.114,4.114,0,0,0-1.881-.414,4.246,4.246,0,0,0-1.566.3,4.629,4.629,0,0,0-1.341.8,3.165,3.165,0,0,0-.855,1.116l1.224.666a2.732,2.732,0,0,1,2.538-1.584,2.429,2.429,0,0,1,1.638.54,1.762,1.762,0,0,1,.63,1.4v.5l-3.492.576a3.9,3.9,0,0,0-2.34,1.1,2.828,2.828,0,0,0-.738,1.944,2.446,2.446,0,0,0,.414,1.4,2.836,2.836,0,0,0,1.134.963A3.691,3.691,0,0,0,84.924,21.816Zm-1.746-2.772a1.621,1.621,0,0,1,.459-1.152,2.641,2.641,0,0,1,1.5-.666l3.168-.522v.72a3.156,3.156,0,0,1-.414,1.6,3.054,3.054,0,0,1-1.152,1.143,3.415,3.415,0,0,1-1.728.423,1.933,1.933,0,0,1-1.323-.45A1.407,1.407,0,0,1,83.178,19.044ZM96.84,21.816a4.425,4.425,0,0,0,1.692-.324,4.713,4.713,0,0,0,1.4-.882,3.7,3.7,0,0,0,.918-1.26l-1.224-.666a3.1,3.1,0,0,1-1.107,1.3,2.963,2.963,0,0,1-1.683.486,3.138,3.138,0,0,1-1.719-.486,3.426,3.426,0,0,1-1.206-1.323,4.27,4.27,0,0,1,0-3.78,3.359,3.359,0,0,1,1.206-1.314,3.182,3.182,0,0,1,1.719-.477,3.029,3.029,0,0,1,2.79,1.746l1.224-.63a3.566,3.566,0,0,0-.918-1.269,4.812,4.812,0,0,0-1.4-.873,4.425,4.425,0,0,0-1.692-.324,4.718,4.718,0,0,0-2.5.657,4.629,4.629,0,0,0-1.692,1.791,5.333,5.333,0,0,0-.612,2.574,5.385,5.385,0,0,0,.612,2.583,4.594,4.594,0,0,0,4.194,2.475Zm10.8,0a4.425,4.425,0,0,0,1.692-.324,4.713,4.713,0,0,0,1.4-.882,3.7,3.7,0,0,0,.918-1.26l-1.224-.666a3.1,3.1,0,0,1-1.107,1.3,2.963,2.963,0,0,1-1.683.486,3.138,3.138,0,0,1-1.719-.486,3.426,3.426,0,0,1-1.206-1.323,4.27,4.27,0,0,1,0-3.78,3.359,3.359,0,0,1,1.206-1.314,3.182,3.182,0,0,1,1.719-.477,3.029,3.029,0,0,1,2.79,1.746l1.224-.63a3.566,3.566,0,0,0-.918-1.269,4.812,4.812,0,0,0-1.4-.873,4.425,4.425,0,0,0-1.692-.324,4.718,4.718,0,0,0-2.5.657,4.629,4.629,0,0,0-1.692,1.791,5.333,5.333,0,0,0-.612,2.574,5.385,5.385,0,0,0,.612,2.583,4.594,4.594,0,0,0,4.194,2.475Zm10.908,0A4.774,4.774,0,0,0,121,21.168a4.882,4.882,0,0,0,1.773-1.791,5.106,5.106,0,0,0,.666-2.619,5.188,5.188,0,0,0-.639-2.592,4.7,4.7,0,0,0-1.746-1.782,4.877,4.877,0,0,0-2.511-.648,4.786,4.786,0,0,0-4.266,2.448,5.1,5.1,0,0,0-.648,2.574,5.125,5.125,0,0,0,.657,2.6,4.861,4.861,0,0,0,1.773,1.8A4.8,4.8,0,0,0,118.548,21.816Zm0-1.35a3.26,3.26,0,0,1-1.755-.486,3.566,3.566,0,0,1-1.251-1.332,3.838,3.838,0,0,1-.468-1.89,3.737,3.737,0,0,1,.468-1.872,3.6,3.6,0,0,1,1.251-1.314,3.412,3.412,0,0,1,3.51,0,3.534,3.534,0,0,1,1.242,1.314A3.8,3.8,0,0,1,122,16.758a3.9,3.9,0,0,1-.459,1.89A3.5,3.5,0,0,1,120.3,19.98,3.26,3.26,0,0,1,118.548,20.466Zm10.692,1.35a3.432,3.432,0,0,0,1.62-.378,3.075,3.075,0,0,0,1.152-1.026V21.6h1.35V11.952h-1.35v5.742a2.809,2.809,0,0,1-.711,2.034,2.632,2.632,0,0,1-3.627.027,2.561,2.561,0,0,1-.7-1.881V11.952h-1.35v6.084a3.977,3.977,0,0,0,.477,1.971,3.439,3.439,0,0,0,1.305,1.332A3.612,3.612,0,0,0,129.24,21.816Zm6.894-.216h1.35V15.858a2.789,2.789,0,0,1,.72-2.034,2.433,2.433,0,0,1,1.818-.738,2.382,2.382,0,0,1,1.809.729,2.847,2.847,0,0,1,.693,2.043V21.6h1.35V15.336a3.6,3.6,0,0,0-.477-1.845,3.465,3.465,0,0,0-1.3-1.287,3.652,3.652,0,0,0-1.845-.468,3.432,3.432,0,0,0-1.62.378,3.075,3.075,0,0,0-1.152,1.026V11.952h-1.35Zm14,.108q.162,0,.432-.027a3.414,3.414,0,0,0,.486-.081V20.394q-.144.018-.342.036t-.342.018a1.445,1.445,0,0,1-1.242-.468,1.962,1.962,0,0,1-.342-1.188V13.3h2.124v-1.35h-2.124V9.72h-1.35v.81a1.474,1.474,0,0,1-.36,1.017,1.235,1.235,0,0,1-.972.405h-.45V13.3h1.782v5.49a3.059,3.059,0,0,0,.7,2.16A2.592,2.592,0,0,0,150.138,21.708Zm6.642.108a4.274,4.274,0,0,0,1.782-.351,2.912,2.912,0,0,0,1.215-.981,2.51,2.51,0,0,0-.216-3.114,3.879,3.879,0,0,0-1.827-1.062l-1.6-.468a4.9,4.9,0,0,1-.585-.216,1.633,1.633,0,0,1-.585-.432,1.134,1.134,0,0,1-.252-.774,1.313,1.313,0,0,1,.486-1.044,1.931,1.931,0,0,1,1.3-.414,2.613,2.613,0,0,1,1.5.459,2.934,2.934,0,0,1,1.035,1.269l1.152-.54a3.451,3.451,0,0,0-1.413-1.773,4.04,4.04,0,0,0-2.223-.639,3.849,3.849,0,0,0-1.638.342,2.825,2.825,0,0,0-1.17.972,2.546,2.546,0,0,0-.432,1.476,2.343,2.343,0,0,0,.594,1.584,3.9,3.9,0,0,0,1.926,1.062l1.386.4a4.5,4.5,0,0,1,.666.234,2.037,2.037,0,0,1,.666.459,1.1,1.1,0,0,1,.288.8,1.3,1.3,0,0,1-.594,1.107,2.449,2.449,0,0,1-1.458.423,2.812,2.812,0,0,1-1.647-.522,3.474,3.474,0,0,1-1.161-1.4l-1.134.54a3.972,3.972,0,0,0,1.512,1.908A4.251,4.251,0,0,0,156.78,21.816Zm5.868,2.124q1.8-.432,1.8-2.808V19.62h-1.44V21.6h.684q0,1.422-1.044,1.71ZM173.3,21.816a4.445,4.445,0,0,0,2.016-.45,3.447,3.447,0,0,0,1.368-1.152V21.6h1.35V14.976a3.091,3.091,0,0,0-.459-1.683A3.154,3.154,0,0,0,176.3,12.15a4.114,4.114,0,0,0-1.881-.414,4.246,4.246,0,0,0-1.566.3,4.629,4.629,0,0,0-1.341.8,3.165,3.165,0,0,0-.855,1.116l1.224.666a2.732,2.732,0,0,1,2.538-1.584,2.429,2.429,0,0,1,1.638.54,1.762,1.762,0,0,1,.63,1.4v.5l-3.492.576a3.9,3.9,0,0,0-2.34,1.1,2.828,2.828,0,0,0-.738,1.944,2.446,2.446,0,0,0,.414,1.4,2.836,2.836,0,0,0,1.134.963A3.691,3.691,0,0,0,173.3,21.816Zm-1.746-2.772a1.621,1.621,0,0,1,.459-1.152,2.641,2.641,0,0,1,1.5-.666l3.168-.522v.72a3.156,3.156,0,0,1-.414,1.6,3.054,3.054,0,0,1-1.152,1.143,3.415,3.415,0,0,1-1.728.423,1.933,1.933,0,0,1-1.323-.45A1.407,1.407,0,0,1,171.558,19.044Zm12.6,2.772a4.274,4.274,0,0,0,1.782-.351,2.912,2.912,0,0,0,1.215-.981,2.51,2.51,0,0,0-.216-3.114,3.879,3.879,0,0,0-1.827-1.062l-1.6-.468a4.9,4.9,0,0,1-.585-.216,1.633,1.633,0,0,1-.585-.432,1.134,1.134,0,0,1-.252-.774,1.313,1.313,0,0,1,.486-1.044,1.931,1.931,0,0,1,1.3-.414,2.613,2.613,0,0,1,1.5.459,2.934,2.934,0,0,1,1.035,1.269l1.152-.54a3.451,3.451,0,0,0-1.413-1.773,4.04,4.04,0,0,0-2.223-.639,3.849,3.849,0,0,0-1.638.342,2.825,2.825,0,0,0-1.17.972,2.546,2.546,0,0,0-.432,1.476,2.343,2.343,0,0,0,.594,1.584,3.9,3.9,0,0,0,1.926,1.062l1.386.4a4.5,4.5,0,0,1,.666.234,2.037,2.037,0,0,1,.666.459,1.1,1.1,0,0,1,.288.8,1.3,1.3,0,0,1-.594,1.107,2.449,2.449,0,0,1-1.458.423,2.812,2.812,0,0,1-1.647-.522,3.474,3.474,0,0,1-1.161-1.4l-1.134.54a3.972,3.972,0,0,0,1.512,1.908A4.251,4.251,0,0,0,184.158,21.816Zm11-.216h1.35l2.322-7.632,2.3,7.632h1.35l3.312-9.648h-1.512l-2.466,7.578-2.322-7.578h-1.35l-2.3,7.578-2.466-7.578h-1.53Zm16.254.216a4.76,4.76,0,0,0,1.809-.333,4.623,4.623,0,0,0,1.413-.882,3.657,3.657,0,0,0,.882-1.2l-1.152-.612a4.049,4.049,0,0,1-1.17,1.26,3.031,3.031,0,0,1-1.782.5,3.321,3.321,0,0,1-1.62-.414,3.361,3.361,0,0,1-1.233-1.161,3.488,3.488,0,0,1-.513-1.791h7.6q.036-.234.054-.459t.018-.405a4.806,4.806,0,0,0-1.188-3.159,4.241,4.241,0,0,0-1.4-1.044,4.31,4.31,0,0,0-1.863-.387,4.425,4.425,0,0,0-2.367.648,4.645,4.645,0,0,0-1.665,1.773,5.319,5.319,0,0,0-.612,2.583,5.35,5.35,0,0,0,.63,2.61,4.706,4.706,0,0,0,1.719,1.809A4.629,4.629,0,0,0,211.41,21.816ZM211.266,13a2.987,2.987,0,0,1,1.485.378,2.93,2.93,0,0,1,1.08,1.035,2.96,2.96,0,0,1,.423,1.521H208.08a3.373,3.373,0,0,1,.567-1.557,3.2,3.2,0,0,1,1.143-1.017A3.122,3.122,0,0,1,211.266,13Zm6.822,8.6h1.35V7.974h-1.35Zm4.122,0h1.35V7.974h-1.35Zm9.972.216a4.445,4.445,0,0,0,2.016-.45,3.447,3.447,0,0,0,1.368-1.152V21.6h1.35V14.976a3.091,3.091,0,0,0-.459-1.683,3.154,3.154,0,0,0-1.278-1.143,4.114,4.114,0,0,0-1.881-.414,4.246,4.246,0,0,0-1.566.3,4.629,4.629,0,0,0-1.341.8,3.165,3.165,0,0,0-.855,1.116l1.224.666a2.732,2.732,0,0,1,2.538-1.584,2.429,2.429,0,0,1,1.638.54,1.762,1.762,0,0,1,.63,1.4v.5l-3.492.576a3.9,3.9,0,0,0-2.34,1.1A2.828,2.828,0,0,0,229,19.1a2.446,2.446,0,0,0,.414,1.4,2.836,2.836,0,0,0,1.134.963A3.691,3.691,0,0,0,232.182,21.816Zm-1.746-2.772a1.621,1.621,0,0,1,.459-1.152,2.641,2.641,0,0,1,1.5-.666l3.168-.522v.72a3.156,3.156,0,0,1-.414,1.6A3.054,3.054,0,0,1,234,20.169a3.415,3.415,0,0,1-1.728.423,1.933,1.933,0,0,1-1.323-.45A1.407,1.407,0,0,1,230.436,19.044Zm12.6,2.772a4.274,4.274,0,0,0,1.782-.351,2.912,2.912,0,0,0,1.215-.981,2.51,2.51,0,0,0-.216-3.114,3.879,3.879,0,0,0-1.827-1.062l-1.6-.468a4.9,4.9,0,0,1-.585-.216,1.633,1.633,0,0,1-.585-.432,1.134,1.134,0,0,1-.252-.774,1.313,1.313,0,0,1,.486-1.044,1.931,1.931,0,0,1,1.3-.414,2.613,2.613,0,0,1,1.5.459,2.934,2.934,0,0,1,1.035,1.269l1.152-.54a3.451,3.451,0,0,0-1.413-1.773,4.04,4.04,0,0,0-2.223-.639,3.849,3.849,0,0,0-1.638.342,2.825,2.825,0,0,0-1.17.972,2.546,2.546,0,0,0-.432,1.476,2.343,2.343,0,0,0,.594,1.584,3.9,3.9,0,0,0,1.926,1.062l1.386.4a4.5,4.5,0,0,1,.666.234,2.037,2.037,0,0,1,.666.459,1.1,1.1,0,0,1,.288.8,1.3,1.3,0,0,1-.594,1.107,2.449,2.449,0,0,1-1.458.423,2.812,2.812,0,0,1-1.647-.522,3.474,3.474,0,0,1-1.161-1.4l-1.134.54a3.972,3.972,0,0,0,1.512,1.908A4.251,4.251,0,0,0,243.036,21.816Zm11.664,0a4.445,4.445,0,0,0,2.016-.45,3.447,3.447,0,0,0,1.368-1.152V21.6h1.35V14.976a3.091,3.091,0,0,0-.459-1.683A3.154,3.154,0,0,0,257.7,12.15a4.114,4.114,0,0,0-1.881-.414,4.246,4.246,0,0,0-1.566.3,4.629,4.629,0,0,0-1.341.8,3.165,3.165,0,0,0-.855,1.116l1.224.666a2.732,2.732,0,0,1,2.538-1.584,2.429,2.429,0,0,1,1.638.54,1.762,1.762,0,0,1,.63,1.4v.5l-3.492.576a3.9,3.9,0,0,0-2.34,1.1,2.828,2.828,0,0,0-.738,1.944,2.446,2.446,0,0,0,.414,1.4,2.836,2.836,0,0,0,1.134.963A3.691,3.691,0,0,0,254.7,21.816Zm-1.746-2.772a1.621,1.621,0,0,1,.459-1.152,2.641,2.641,0,0,1,1.5-.666l3.168-.522v.72a3.156,3.156,0,0,1-.414,1.6,3.054,3.054,0,0,1-1.152,1.143,3.415,3.415,0,0,1-1.728.423,1.933,1.933,0,0,1-1.323-.45A1.407,1.407,0,0,1,252.954,19.044Zm9.252,2.556h1.35V15.858a2.788,2.788,0,0,1,.72-2.034,2.433,2.433,0,0,1,1.818-.738,2.382,2.382,0,0,1,1.809.729,2.847,2.847,0,0,1,.693,2.043V21.6h1.35V15.336a3.6,3.6,0,0,0-.477-1.845,3.465,3.465,0,0,0-1.3-1.287,3.652,3.652,0,0,0-1.845-.468,3.432,3.432,0,0,0-1.62.378,3.075,3.075,0,0,0-1.152,1.026V11.952h-1.35Zm10.152,3.96a3.174,3.174,0,0,0,1.62-.387,3.453,3.453,0,0,0,1.107-1.017,6.85,6.85,0,0,0,.729-1.332l4.41-10.872H278.73l-3.15,7.956-3.15-7.956h-1.458l3.852,9.648-.342.828a3.658,3.658,0,0,1-.918,1.413,2.141,2.141,0,0,1-1.35.369,3.555,3.555,0,0,1-.567-.045q-.279-.045-.459-.063v1.26a2.9,2.9,0,0,0,.585.153A3.9,3.9,0,0,0,272.358,25.56Zm16.92-3.744a4.425,4.425,0,0,0,1.692-.324,4.713,4.713,0,0,0,1.4-.882,3.7,3.7,0,0,0,.918-1.26l-1.224-.666a3.1,3.1,0,0,1-1.107,1.3,2.963,2.963,0,0,1-1.683.486,3.138,3.138,0,0,1-1.719-.486,3.426,3.426,0,0,1-1.206-1.323,4.27,4.27,0,0,1,0-3.78,3.359,3.359,0,0,1,1.206-1.314,3.182,3.182,0,0,1,1.719-.477,3.029,3.029,0,0,1,2.79,1.746l1.224-.63a3.566,3.566,0,0,0-.918-1.269,4.812,4.812,0,0,0-1.4-.873,4.425,4.425,0,0,0-1.692-.324,4.718,4.718,0,0,0-2.5.657,4.629,4.629,0,0,0-1.692,1.791,5.333,5.333,0,0,0-.612,2.574,5.385,5.385,0,0,0,.612,2.583,4.594,4.594,0,0,0,4.194,2.475Zm10.908,0a4.774,4.774,0,0,0,2.457-.648,4.882,4.882,0,0,0,1.773-1.791,5.106,5.106,0,0,0,.666-2.619,5.188,5.188,0,0,0-.639-2.592,4.7,4.7,0,0,0-1.746-1.782,4.877,4.877,0,0,0-2.511-.648,4.786,4.786,0,0,0-4.266,2.448,5.1,5.1,0,0,0-.648,2.574,5.124,5.124,0,0,0,.657,2.6,4.861,4.861,0,0,0,1.773,1.8A4.8,4.8,0,0,0,300.186,21.816Zm0-1.35a3.26,3.26,0,0,1-1.755-.486,3.566,3.566,0,0,1-1.251-1.332,3.838,3.838,0,0,1-.468-1.89,3.737,3.737,0,0,1,.468-1.872,3.6,3.6,0,0,1,1.251-1.314,3.412,3.412,0,0,1,3.51,0,3.534,3.534,0,0,1,1.242,1.314,3.8,3.8,0,0,1,.459,1.872,3.9,3.9,0,0,1-.459,1.89,3.5,3.5,0,0,1-1.242,1.332A3.26,3.26,0,0,1,300.186,20.466Zm7.272,1.134h1.35V15.858a2.788,2.788,0,0,1,.72-2.034,2.433,2.433,0,0,1,1.818-.738,2.382,2.382,0,0,1,1.809.729,2.847,2.847,0,0,1,.693,2.043V21.6h1.35V15.336a3.6,3.6,0,0,0-.477-1.845,3.465,3.465,0,0,0-1.3-1.287,3.652,3.652,0,0,0-1.845-.468,3.432,3.432,0,0,0-1.62.378,3.075,3.075,0,0,0-1.152,1.026V11.952h-1.35Zm11.3,0h1.35V13.3H324.4v8.3h1.35V11.952h-5.634v-.864a1.655,1.655,0,0,1,.576-1.44,2.4,2.4,0,0,1,1.44-.414q.09,0,.306.009a1.526,1.526,0,0,1,.342.045V8.064A3.065,3.065,0,0,0,322.4,8a3.659,3.659,0,0,0-.414-.027,3.565,3.565,0,0,0-1.584.36,2.917,2.917,0,0,0-1.188,1.053,3.058,3.058,0,0,0-.45,1.7v.864h-1.926V13.3h1.926Zm14.058,3.96a4.846,4.846,0,0,0,2.367-.567,4.19,4.19,0,0,0,1.62-1.548,4.256,4.256,0,0,0,.585-2.223v-9.27h-1.35V13.41a4.086,4.086,0,0,0-1.476-1.224,4.325,4.325,0,0,0-1.962-.45,4.618,4.618,0,0,0-2.439.648,4.724,4.724,0,0,0-1.692,1.746,5.189,5.189,0,0,0,0,4.923,4.683,4.683,0,0,0,1.7,1.755,4.631,4.631,0,0,0,2.43.648,4.3,4.3,0,0,0,1.98-.468,3.674,3.674,0,0,0,1.458-1.314v1.548a2.759,2.759,0,0,1-1.638,2.646,3.806,3.806,0,0,1-1.62.342,3.282,3.282,0,0,1-1.89-.5,2.739,2.739,0,0,1-1.026-1.188l-1.242.666a3.921,3.921,0,0,0,1.593,1.71A4.949,4.949,0,0,0,332.82,25.56Zm-.144-5.454a3.215,3.215,0,0,1-1.737-.477,3.428,3.428,0,0,1-1.206-1.278,3.73,3.73,0,0,1,0-3.519,3.424,3.424,0,0,1,1.215-1.269,3.228,3.228,0,0,1,1.728-.477,3.105,3.105,0,0,1,1.692.477,3.6,3.6,0,0,1,1.215,1.278,3.585,3.585,0,0,1,0,3.51,3.6,3.6,0,0,1-1.215,1.278A3.105,3.105,0,0,1,332.676,20.106Zm10.908,1.71a3.432,3.432,0,0,0,1.62-.378,3.075,3.075,0,0,0,1.152-1.026V21.6h1.35V11.952h-1.35v5.742a2.809,2.809,0,0,1-.711,2.034,2.632,2.632,0,0,1-3.627.027,2.561,2.561,0,0,1-.7-1.881V11.952h-1.35v6.084a3.977,3.977,0,0,0,.477,1.971,3.438,3.438,0,0,0,1.3,1.332A3.612,3.612,0,0,0,343.584,21.816Zm6.894-.216h1.35V15.66a2.525,2.525,0,0,1,.63-1.836,2.228,2.228,0,0,1,1.674-.648h.846v-1.35h-.612a3.492,3.492,0,0,0-1.521.306,2.511,2.511,0,0,0-1.017.864V11.952h-1.35Zm10.476.216a4.76,4.76,0,0,0,1.809-.333,4.623,4.623,0,0,0,1.413-.882,3.657,3.657,0,0,0,.882-1.2l-1.152-.612a4.049,4.049,0,0,1-1.17,1.26,3.031,3.031,0,0,1-1.782.5,3.321,3.321,0,0,1-1.62-.414,3.361,3.361,0,0,1-1.233-1.161,3.489,3.489,0,0,1-.513-1.791h7.6q.036-.234.054-.459t.018-.405a4.806,4.806,0,0,0-1.188-3.159,4.241,4.241,0,0,0-1.395-1.044,4.31,4.31,0,0,0-1.863-.387,4.425,4.425,0,0,0-2.367.648,4.645,4.645,0,0,0-1.665,1.773,5.319,5.319,0,0,0-.612,2.583,5.35,5.35,0,0,0,.63,2.61,4.706,4.706,0,0,0,1.719,1.809A4.629,4.629,0,0,0,360.954,21.816ZM360.81,13a2.987,2.987,0,0,1,1.485.378,2.93,2.93,0,0,1,1.08,1.035,2.961,2.961,0,0,1,.423,1.521h-6.174a3.373,3.373,0,0,1,.567-1.557,3.2,3.2,0,0,1,1.143-1.017A3.122,3.122,0,0,1,360.81,13Zm11.178,8.82a4.523,4.523,0,0,0,2.052-.468,3.646,3.646,0,0,0,1.476-1.314V21.6h1.35V7.974h-1.35V13.41a4.251,4.251,0,0,0-1.494-1.224,4.486,4.486,0,0,0-2.034-.45,4.569,4.569,0,0,0-2.439.657,4.718,4.718,0,0,0-1.692,1.791,5.308,5.308,0,0,0-.621,2.592,5.322,5.322,0,0,0,.621,2.583,4.678,4.678,0,0,0,1.7,1.8A4.583,4.583,0,0,0,371.988,21.816Zm.072-1.35a3.17,3.17,0,0,1-1.737-.486,3.426,3.426,0,0,1-1.206-1.323,4.251,4.251,0,0,1,0-3.771,3.419,3.419,0,0,1,1.215-1.314,3.183,3.183,0,0,1,1.728-.486,3.26,3.26,0,0,1,1.755.486,3.515,3.515,0,0,1,1.242,1.323,4.084,4.084,0,0,1,0,3.762,3.515,3.515,0,0,1-1.242,1.323A3.26,3.26,0,0,1,372.06,20.466ZM5.076,43.308q.162,0,.432-.027a3.415,3.415,0,0,0,.486-.081V41.994q-.144.018-.342.036t-.342.018a1.445,1.445,0,0,1-1.242-.468,1.962,1.962,0,0,1-.342-1.188V34.9H5.85v-1.35H3.726V31.32H2.376v.81a1.474,1.474,0,0,1-.36,1.017,1.235,1.235,0,0,1-.972.405H.594V34.9H2.376v5.49a3.059,3.059,0,0,0,.7,2.16A2.592,2.592,0,0,0,5.076,43.308ZM8.37,43.2H9.72V37.458a2.768,2.768,0,0,1,.729-2.034,2.441,2.441,0,0,1,1.809-.738,2.4,2.4,0,0,1,1.791.729,2.8,2.8,0,0,1,.711,2.043V43.2h1.35V36.936a3.6,3.6,0,0,0-.477-1.845,3.465,3.465,0,0,0-1.3-1.287,3.652,3.652,0,0,0-1.845-.468,3.432,3.432,0,0,0-1.62.378A3.075,3.075,0,0,0,9.72,34.74V29.574H8.37ZM18.684,31.77h1.35V29.79h-1.35Zm0,11.43h1.35V33.552h-1.35Zm4.122,0h1.35V37.26a2.525,2.525,0,0,1,.63-1.836,2.228,2.228,0,0,1,1.674-.648h.846v-1.35h-.612a3.492,3.492,0,0,0-1.521.306,2.511,2.511,0,0,0-1.017.864V33.552h-1.35Zm10.44.216a4.523,4.523,0,0,0,2.052-.468,3.646,3.646,0,0,0,1.476-1.314V43.2h1.35V29.574h-1.35V35.01a4.251,4.251,0,0,0-1.494-1.224,4.486,4.486,0,0,0-2.034-.45,4.57,4.57,0,0,0-2.439.657,4.718,4.718,0,0,0-1.692,1.791,5.7,5.7,0,0,0,0,5.175,4.678,4.678,0,0,0,1.7,1.8A4.583,4.583,0,0,0,33.246,43.416Zm.072-1.35a3.17,3.17,0,0,1-1.737-.486,3.426,3.426,0,0,1-1.206-1.323,4.251,4.251,0,0,1,0-3.771,3.419,3.419,0,0,1,1.215-1.314,3.183,3.183,0,0,1,1.728-.486,3.26,3.26,0,0,1,1.755.486,3.515,3.515,0,0,1,1.242,1.323,4.084,4.084,0,0,1,0,3.762,3.515,3.515,0,0,1-1.242,1.323A3.26,3.26,0,0,1,33.318,42.066ZM43.956,46.8h1.35V41.634a3.646,3.646,0,0,0,1.476,1.314,4.523,4.523,0,0,0,2.052.468,4.57,4.57,0,0,0,2.439-.657,4.7,4.7,0,0,0,1.692-1.8,5.7,5.7,0,0,0,0-5.175,4.718,4.718,0,0,0-1.692-1.791,4.57,4.57,0,0,0-2.439-.657,4.486,4.486,0,0,0-2.034.45,4.251,4.251,0,0,0-1.494,1.224V33.552h-1.35Zm4.806-4.734a3.26,3.26,0,0,1-1.755-.486,3.515,3.515,0,0,1-1.242-1.323,4.084,4.084,0,0,1,0-3.762,3.515,3.515,0,0,1,1.242-1.323,3.26,3.26,0,0,1,1.755-.486,3.17,3.17,0,0,1,1.737.486,3.443,3.443,0,0,1,1.206,1.314,4.251,4.251,0,0,1,0,3.771A3.426,3.426,0,0,1,50.5,41.58,3.17,3.17,0,0,1,48.762,42.066Zm9.99,1.35a4.445,4.445,0,0,0,2.016-.45,3.447,3.447,0,0,0,1.368-1.152V43.2h1.35V36.576a3.091,3.091,0,0,0-.459-1.683,3.154,3.154,0,0,0-1.278-1.143,4.114,4.114,0,0,0-1.881-.414,4.246,4.246,0,0,0-1.566.3,4.629,4.629,0,0,0-1.341.8,3.165,3.165,0,0,0-.855,1.116l1.224.666a2.732,2.732,0,0,1,2.538-1.584,2.429,2.429,0,0,1,1.638.54,1.762,1.762,0,0,1,.63,1.4v.5l-3.492.576a3.9,3.9,0,0,0-2.34,1.1,2.828,2.828,0,0,0-.738,1.944,2.446,2.446,0,0,0,.414,1.4,2.836,2.836,0,0,0,1.134.963A3.691,3.691,0,0,0,58.752,43.416Zm-1.746-2.772a1.621,1.621,0,0,1,.459-1.152,2.641,2.641,0,0,1,1.5-.666l3.168-.522v.72a3.156,3.156,0,0,1-.414,1.6,3.054,3.054,0,0,1-1.152,1.143,3.415,3.415,0,0,1-1.728.423,1.933,1.933,0,0,1-1.323-.45A1.407,1.407,0,0,1,57.006,40.644ZM66.258,43.2h1.35V37.26a2.525,2.525,0,0,1,.63-1.836,2.228,2.228,0,0,1,1.674-.648h.846v-1.35h-.612a3.492,3.492,0,0,0-1.521.306,2.511,2.511,0,0,0-1.017.864V33.552h-1.35Zm9.774.108q.162,0,.432-.027a3.415,3.415,0,0,0,.486-.081V41.994q-.144.018-.342.036t-.342.018a1.445,1.445,0,0,1-1.242-.468,1.961,1.961,0,0,1-.342-1.188V34.9h2.124v-1.35H74.682V31.32h-1.35v.81a1.474,1.474,0,0,1-.36,1.017,1.235,1.235,0,0,1-.972.405h-.45V34.9h1.782v5.49a3.059,3.059,0,0,0,.7,2.16A2.592,2.592,0,0,0,76.032,43.308Zm3.492,3.852a3.174,3.174,0,0,0,1.62-.387,3.453,3.453,0,0,0,1.107-1.017,6.852,6.852,0,0,0,.729-1.332l4.41-10.872H85.9l-3.15,7.956L79.6,33.552H78.138L81.99,43.2l-.342.828a3.658,3.658,0,0,1-.918,1.413,2.141,2.141,0,0,1-1.35.369,3.555,3.555,0,0,1-.567-.045q-.279-.045-.459-.063v1.26a2.9,2.9,0,0,0,.585.153A3.9,3.9,0,0,0,79.524,47.16Zm12.51-.36h1.35V41.634a3.646,3.646,0,0,0,1.476,1.314,4.523,4.523,0,0,0,2.052.468,4.57,4.57,0,0,0,2.439-.657,4.7,4.7,0,0,0,1.692-1.8,5.7,5.7,0,0,0,0-5.175,4.718,4.718,0,0,0-1.692-1.791,4.57,4.57,0,0,0-2.439-.657,4.486,4.486,0,0,0-2.034.45,4.251,4.251,0,0,0-1.494,1.224V33.552h-1.35Zm4.806-4.734a3.26,3.26,0,0,1-1.755-.486,3.515,3.515,0,0,1-1.242-1.323,4.084,4.084,0,0,1,0-3.762,3.515,3.515,0,0,1,1.242-1.323,3.26,3.26,0,0,1,1.755-.486,3.17,3.17,0,0,1,1.737.486,3.443,3.443,0,0,1,1.206,1.314,4.251,4.251,0,0,1,0,3.771,3.426,3.426,0,0,1-1.206,1.323A3.17,3.17,0,0,1,96.84,42.066Zm7.2,1.134h1.35V37.26a2.525,2.525,0,0,1,.63-1.836,2.228,2.228,0,0,1,1.674-.648h.846v-1.35h-.612a3.492,3.492,0,0,0-1.521.306,2.511,2.511,0,0,0-1.017.864V33.552h-1.35Zm10.6.216a4.774,4.774,0,0,0,2.457-.648,4.882,4.882,0,0,0,1.773-1.791,5.106,5.106,0,0,0,.666-2.619,5.188,5.188,0,0,0-.639-2.592,4.7,4.7,0,0,0-1.746-1.782,4.877,4.877,0,0,0-2.511-.648,4.786,4.786,0,0,0-4.266,2.448,5.457,5.457,0,0,0,.009,5.175,4.861,4.861,0,0,0,1.773,1.8A4.8,4.8,0,0,0,114.642,43.416Zm0-1.35a3.26,3.26,0,0,1-1.755-.486,3.566,3.566,0,0,1-1.251-1.332,3.838,3.838,0,0,1-.468-1.89,3.737,3.737,0,0,1,.468-1.872,3.605,3.605,0,0,1,1.251-1.314,3.412,3.412,0,0,1,3.51,0,3.534,3.534,0,0,1,1.242,1.314,3.8,3.8,0,0,1,.459,1.872,3.9,3.9,0,0,1-.459,1.89A3.5,3.5,0,0,1,116.4,41.58,3.26,3.26,0,0,1,114.642,42.066Zm9.486,1.134h1.35l3.8-9.648h-1.53l-2.934,7.812-2.934-7.812h-1.512Zm6.732-11.43h1.35V29.79h-1.35Zm0,11.43h1.35V33.552h-1.35Zm8.478.216a4.523,4.523,0,0,0,2.052-.468,3.646,3.646,0,0,0,1.476-1.314V43.2h1.35V29.574h-1.35V35.01a4.251,4.251,0,0,0-1.494-1.224,4.486,4.486,0,0,0-2.034-.45,4.57,4.57,0,0,0-2.439.657,4.718,4.718,0,0,0-1.692,1.791,5.7,5.7,0,0,0,0,5.175,4.678,4.678,0,0,0,1.7,1.8A4.583,4.583,0,0,0,139.338,43.416Zm.072-1.35a3.17,3.17,0,0,1-1.737-.486,3.426,3.426,0,0,1-1.206-1.323,4.251,4.251,0,0,1,0-3.771,3.419,3.419,0,0,1,1.215-1.314,3.183,3.183,0,0,1,1.728-.486,3.26,3.26,0,0,1,1.755.486,3.515,3.515,0,0,1,1.242,1.323,4.084,4.084,0,0,1,0,3.762,3.515,3.515,0,0,1-1.242,1.323A3.26,3.26,0,0,1,139.41,42.066Zm11.97,1.35a4.76,4.76,0,0,0,1.809-.333A4.623,4.623,0,0,0,154.6,42.2a3.657,3.657,0,0,0,.882-1.2l-1.152-.612a4.049,4.049,0,0,1-1.17,1.26,3.031,3.031,0,0,1-1.782.5,3.321,3.321,0,0,1-1.62-.414,3.361,3.361,0,0,1-1.233-1.161,3.488,3.488,0,0,1-.513-1.791h7.6q.036-.234.054-.459t.018-.4a4.806,4.806,0,0,0-1.188-3.159,4.241,4.241,0,0,0-1.4-1.044,4.31,4.31,0,0,0-1.863-.387,4.425,4.425,0,0,0-2.367.648,4.645,4.645,0,0,0-1.665,1.773,5.739,5.739,0,0,0,.018,5.193,4.706,4.706,0,0,0,1.719,1.809A4.629,4.629,0,0,0,151.38,43.416Zm-.144-8.82a2.987,2.987,0,0,1,1.485.378,2.93,2.93,0,0,1,1.08,1.035,2.96,2.96,0,0,1,.423,1.521H148.05a3.373,3.373,0,0,1,.567-1.557,3.2,3.2,0,0,1,1.143-1.017A3.122,3.122,0,0,1,151.236,34.6Zm6.822,8.6h1.35V37.26a2.525,2.525,0,0,1,.63-1.836,2.228,2.228,0,0,1,1.674-.648h.846v-1.35h-.612a3.492,3.492,0,0,0-1.521.306,2.511,2.511,0,0,0-1.017.864V33.552h-1.35Zm9.432.216a4.274,4.274,0,0,0,1.782-.351,2.912,2.912,0,0,0,1.215-.981,2.51,2.51,0,0,0-.216-3.114,3.879,3.879,0,0,0-1.827-1.062l-1.6-.468a4.9,4.9,0,0,1-.585-.216,1.633,1.633,0,0,1-.585-.432,1.134,1.134,0,0,1-.252-.774,1.313,1.313,0,0,1,.486-1.044,1.931,1.931,0,0,1,1.3-.414,2.613,2.613,0,0,1,1.5.459,2.934,2.934,0,0,1,1.035,1.269l1.152-.54a3.451,3.451,0,0,0-1.413-1.773,4.04,4.04,0,0,0-2.223-.639,3.849,3.849,0,0,0-1.638.342,2.825,2.825,0,0,0-1.17.972,2.546,2.546,0,0,0-.432,1.476,2.343,2.343,0,0,0,.594,1.584,3.9,3.9,0,0,0,1.926,1.062l1.386.4a4.5,4.5,0,0,1,.666.234,2.037,2.037,0,0,1,.666.459,1.1,1.1,0,0,1,.288.8,1.3,1.3,0,0,1-.594,1.107,2.449,2.449,0,0,1-1.458.423,2.812,2.812,0,0,1-1.647-.522,3.474,3.474,0,0,1-1.161-1.4l-1.134.54a3.972,3.972,0,0,0,1.512,1.908A4.251,4.251,0,0,0,167.49,43.416Zm6.282-.216h1.44V41.22h-1.44Z" transform="translate(147.04 80.24)" fill="#666"/>
    <path id="Path_529" data-name="Path 529" d="M700.5,408h-39a19.5,19.5,0,0,0,0,39h39a19.5,19.5,0,0,0,0-39Z" transform="translate(-601.68 -352.04)" fill="#e6e6e6"/>
    <circle id="Ellipse_232" data-name="Ellipse 232" cx="16.38" cy="16.38" r="16.38" transform="translate(80.88 59.08)" fill="#329afc"/>
    <g transform="matrix(1, 0, 0, 1, -70, -52)" filter="url(#Rectangle_407)">
      <rect id="Rectangle_407-2" data-name="Rectangle 407" width="610" height="156.03" rx="15.5" transform="translate(70.82 227.43)" fill="#fff"/>
    </g>
    <path id="Path_530" data-name="Path 530" d="M1197,528a15,15,0,0,1,15,15V668a15,15,0,0,1-15,15H618a15,15,0,0,1-15-15V543a15,15,0,0,1,15-15h579m0-1H618a16,16,0,0,0-16,16V668a16,16,0,0,0,16,16h579a16,16,0,0,0,16-16V543A16,16,0,0,0,1197,527Z" transform="translate(-601.68 -352.04)" fill="#e6e6e6"/>
    <path id="Path_651" data-name="Path 651" d="M.242,0H3.476L4.664-3.52H11L12.166,0h3.256L9.768-16.39H5.9Zm5.28-6.16,2.31-6.908,2.31,6.908ZM21.054.264a4.441,4.441,0,0,0,1.991-.429A3.269,3.269,0,0,0,24.42-1.43V0h2.728V-11.968H24.266V-4.95a2.565,2.565,0,0,1-.682,1.881,2.334,2.334,0,0,1-1.738.693A2.345,2.345,0,0,1,20.1-3.058a2.49,2.49,0,0,1-.671-1.826v-7.084H16.544v7.326a5.159,5.159,0,0,0,1.2,3.553A4.2,4.2,0,0,0,21.054.264ZM35.288.132a6.615,6.615,0,0,0,.726-.044q.4-.044.7-.088V-2.464a4.964,4.964,0,0,1-.77.066,2.107,2.107,0,0,1-1.54-.484,1.876,1.876,0,0,1-.484-1.386V-9.394h2.75v-2.574h-2.75V-14.7H31.042v.924a1.769,1.769,0,0,1-.484,1.342,1.9,1.9,0,0,1-1.364.462h-.22v2.574h2.068v5.28A4.247,4.247,0,0,0,32.153-.99,4.215,4.215,0,0,0,35.288.132ZM44.66.264a6.358,6.358,0,0,0,3.168-.8,6.157,6.157,0,0,0,2.288-2.222,6.105,6.105,0,0,0,.858-3.223A6.108,6.108,0,0,0,50.127-9.2a6.185,6.185,0,0,0-2.277-2.222,6.334,6.334,0,0,0-3.19-.814,6.377,6.377,0,0,0-3.212.814A6.185,6.185,0,0,0,39.171-9.2a6.108,6.108,0,0,0-.847,3.212,6.108,6.108,0,0,0,.847,3.212A6.16,6.16,0,0,0,41.459-.55,6.394,6.394,0,0,0,44.66.264Zm0-2.64a3.255,3.255,0,0,1-1.727-.462,3.2,3.2,0,0,1-1.188-1.287,3.969,3.969,0,0,1-.429-1.859,3.9,3.9,0,0,1,.429-1.848,3.3,3.3,0,0,1,1.188-1.287,3.2,3.2,0,0,1,1.727-.473,3.087,3.087,0,0,1,1.705.473,3.355,3.355,0,0,1,1.166,1.287,3.9,3.9,0,0,1,.429,1.848,3.969,3.969,0,0,1-.429,1.859,3.253,3.253,0,0,1-1.166,1.287A3.142,3.142,0,0,1,44.66-2.376Zm9.086-2.332H63.1v-2.53h-9.35ZM65.868,0h.946a5.935,5.935,0,0,0,2.827-.638A4.51,4.51,0,0,0,71.489-2.42a5.3,5.3,0,0,0,.649-2.662V-16.39H69.124V-4.972A2.143,2.143,0,0,1,68.5-3.355a2.321,2.321,0,0,1-1.683.605h-.946ZM80.85.264a6.358,6.358,0,0,0,3.168-.8,6.157,6.157,0,0,0,2.288-2.222,6.106,6.106,0,0,0,.858-3.223A6.109,6.109,0,0,0,86.317-9.2a6.185,6.185,0,0,0-2.277-2.222,6.334,6.334,0,0,0-3.19-.814,6.377,6.377,0,0,0-3.212.814A6.185,6.185,0,0,0,75.361-9.2a6.108,6.108,0,0,0-.847,3.212,6.108,6.108,0,0,0,.847,3.212A6.16,6.16,0,0,0,77.649-.55,6.394,6.394,0,0,0,80.85.264Zm0-2.64a3.255,3.255,0,0,1-1.727-.462,3.2,3.2,0,0,1-1.188-1.287,3.969,3.969,0,0,1-.429-1.859,3.9,3.9,0,0,1,.429-1.848,3.3,3.3,0,0,1,1.188-1.287,3.2,3.2,0,0,1,1.727-.473,3.087,3.087,0,0,1,1.705.473,3.355,3.355,0,0,1,1.166,1.287,3.9,3.9,0,0,1,.429,1.848,3.969,3.969,0,0,1-.429,1.859,3.253,3.253,0,0,1-1.166,1.287A3.142,3.142,0,0,1,80.85-2.376ZM89.342-13.31h2.882v-3.08H89.342Zm0,13.31h2.882V-11.968H89.342Zm5.544,0h2.882V-7.018a2.6,2.6,0,0,1,.671-1.87,2.306,2.306,0,0,1,1.749-.7,2.325,2.325,0,0,1,1.749.693,2.589,2.589,0,0,1,.671,1.881V0h2.882V-7.7a4.765,4.765,0,0,0-.572-2.365,4.068,4.068,0,0,0-1.6-1.6,4.719,4.719,0,0,0-2.343-.572,4.486,4.486,0,0,0-2.013.44,3.137,3.137,0,0,0-1.375,1.3v-1.474H94.886Zm16.962-13.31h2.882v-3.08h-2.882Zm0,13.31h2.882V-11.968h-2.882Zm10.1.264A5.676,5.676,0,0,0,124.322-.2a3.792,3.792,0,0,0,1.584-1.287,3.258,3.258,0,0,0,.572-1.9,3.158,3.158,0,0,0-.792-2.156,4.6,4.6,0,0,0-2.288-1.32l-1.914-.572a3.241,3.241,0,0,1-1.012-.462.923.923,0,0,1-.4-.792,1.043,1.043,0,0,1,.418-.858,1.8,1.8,0,0,1,1.144-.33,2.922,2.922,0,0,1,1.639.484A2.515,2.515,0,0,1,124.3-8.1l2.2-1.034a4.528,4.528,0,0,0-1.848-2.277,5.457,5.457,0,0,0-2.992-.825,5.43,5.43,0,0,0-2.3.462,3.725,3.725,0,0,0-1.562,1.287,3.34,3.34,0,0,0-.561,1.925,3.155,3.155,0,0,0,.781,2.134,4.669,4.669,0,0,0,2.3,1.342l1.958.55a2.94,2.94,0,0,1,.979.451.943.943,0,0,1,.407.8,1.091,1.091,0,0,1-.473.935A2.079,2.079,0,0,1,121.946-2a3.1,3.1,0,0,1-1.826-.572,3.989,3.989,0,0,1-1.3-1.584l-2.156,1.034A4.7,4.7,0,0,0,118.613-.66,5.97,5.97,0,0,0,121.946.264ZM132.858,0H138.2a9.256,9.256,0,0,0,4.521-1.056,7.524,7.524,0,0,0,2.981-2.9,8.406,8.406,0,0,0,1.056-4.246,8.39,8.39,0,0,0-1.056-4.257,7.49,7.49,0,0,0-2.97-2.882A9.319,9.319,0,0,0,138.2-16.39h-5.346Zm2.992-2.64V-13.75h2.42a5.84,5.84,0,0,1,2.893.682,4.808,4.808,0,0,1,1.9,1.925,6.014,6.014,0,0,1,.682,2.937,6.16,6.16,0,0,1-.671,2.948,4.7,4.7,0,0,1-1.9,1.936,5.9,5.9,0,0,1-2.9.682ZM148.9-13.31h2.882v-3.08H148.9ZM148.9,0h2.882V-11.968H148.9Zm10.1.264A5.676,5.676,0,0,0,161.37-.2a3.792,3.792,0,0,0,1.584-1.287,3.258,3.258,0,0,0,.572-1.9,3.158,3.158,0,0,0-.792-2.156,4.6,4.6,0,0,0-2.288-1.32l-1.914-.572A3.241,3.241,0,0,1,157.52-7.9a.923.923,0,0,1-.4-.792,1.043,1.043,0,0,1,.418-.858,1.8,1.8,0,0,1,1.144-.33,2.922,2.922,0,0,1,1.639.484,2.515,2.515,0,0,1,1.023,1.3l2.2-1.034a4.528,4.528,0,0,0-1.848-2.277,5.457,5.457,0,0,0-2.992-.825,5.43,5.43,0,0,0-2.3.462,3.725,3.725,0,0,0-1.562,1.287,3.34,3.34,0,0,0-.561,1.925,3.155,3.155,0,0,0,.781,2.134,4.669,4.669,0,0,0,2.3,1.342l1.958.55a2.94,2.94,0,0,1,.979.451.943.943,0,0,1,.407.8,1.091,1.091,0,0,1-.473.935A2.079,2.079,0,0,1,158.994-2a3.1,3.1,0,0,1-1.826-.572,3.989,3.989,0,0,1-1.3-1.584l-2.156,1.034A4.7,4.7,0,0,0,155.661-.66,5.97,5.97,0,0,0,158.994.264Zm10.384,0a4.824,4.824,0,0,0,3.74-1.54V0h2.728V-7.964a3.945,3.945,0,0,0-.638-2.222,4.283,4.283,0,0,0-1.749-1.507,5.857,5.857,0,0,0-2.585-.539,6.048,6.048,0,0,0-3.212.858,4.453,4.453,0,0,0-1.936,2.266l2.354,1.144a2.894,2.894,0,0,1,1.034-1.309,2.8,2.8,0,0,1,1.65-.495,2.371,2.371,0,0,1,1.6.517,1.625,1.625,0,0,1,.6,1.287v.4L169.4-7a5.725,5.725,0,0,0-3.124,1.342,3.333,3.333,0,0,0-1.012,2.486A3.077,3.077,0,0,0,166.386-.66,4.56,4.56,0,0,0,169.378.264Zm-1.122-3.542q0-1.254,1.694-1.584l3.014-.506v.484a2.863,2.863,0,0,1-.847,2.09,2.97,2.97,0,0,1-2.211.858,1.866,1.866,0,0,1-1.188-.363A1.18,1.18,0,0,1,168.256-3.278ZM185.042.264a5.875,5.875,0,0,0,3.1-.825A5.979,5.979,0,0,0,190.3-2.805a6.41,6.41,0,0,0,.792-3.179,6.41,6.41,0,0,0-.792-3.179,5.979,5.979,0,0,0-2.156-2.244,5.834,5.834,0,0,0-3.08-.825,4.72,4.72,0,0,0-3.674,1.474v-5.9h-2.882V0h2.706V-1.342a4.361,4.361,0,0,0,1.661,1.188A5.567,5.567,0,0,0,185.042.264Zm-.33-2.64a3.214,3.214,0,0,1-1.705-.462,3.217,3.217,0,0,1-1.188-1.276,3.951,3.951,0,0,1-.429-1.87,3.951,3.951,0,0,1,.429-1.87,3.217,3.217,0,0,1,1.188-1.276,3.214,3.214,0,0,1,1.705-.462,3.238,3.238,0,0,1,1.749.473,3.379,3.379,0,0,1,1.2,1.287,3.824,3.824,0,0,1,.44,1.848,3.888,3.888,0,0,1-.44,1.859,3.277,3.277,0,0,1-1.2,1.287A3.3,3.3,0,0,1,184.712-2.376ZM193.292,0h2.882V-16.654h-2.882Zm11.22.264a6.1,6.1,0,0,0,3.2-.825,4.555,4.555,0,0,0,1.925-2.1l-2.332-1.144A3.158,3.158,0,0,1,206.217-2.7a3.137,3.137,0,0,1-1.683.429,3.136,3.136,0,0,1-2.178-.792,3.148,3.148,0,0,1-1.012-2.112h8.624a2.354,2.354,0,0,0,.121-.561,6.3,6.3,0,0,0,.033-.649,6.279,6.279,0,0,0-.682-2.926,5.347,5.347,0,0,0-1.98-2.123,5.91,5.91,0,0,0-3.168-.8,5.754,5.754,0,0,0-3.025.814,5.885,5.885,0,0,0-2.134,2.211,6.448,6.448,0,0,0-.781,3.2,6.574,6.574,0,0,0,.77,3.168,5.823,5.823,0,0,0,2.156,2.266A6.139,6.139,0,0,0,204.512.264Zm-.22-10.12a2.715,2.715,0,0,1,1.9.693,2.616,2.616,0,0,1,.847,1.793H201.41a3.1,3.1,0,0,1,1.023-1.837A2.816,2.816,0,0,1,204.292-9.856ZM217.866.264a5.616,5.616,0,0,0,2.156-.407,4.276,4.276,0,0,0,1.65-1.177V0H224.4V-16.654h-2.882v5.9a4.72,4.72,0,0,0-3.674-1.474,5.85,5.85,0,0,0-3.069.825,5.952,5.952,0,0,0-2.167,2.244,6.41,6.41,0,0,0-.792,3.179,6.41,6.41,0,0,0,.792,3.179,5.979,5.979,0,0,0,2.156,2.244A5.875,5.875,0,0,0,217.866.264Zm.308-2.64a3.312,3.312,0,0,1-1.738-.462,3.175,3.175,0,0,1-1.2-1.287,3.969,3.969,0,0,1-.429-1.859,3.9,3.9,0,0,1,.429-1.848,3.27,3.27,0,0,1,1.2-1.287,3.253,3.253,0,0,1,1.738-.473,3.255,3.255,0,0,1,1.727.462,3.217,3.217,0,0,1,1.188,1.276,3.951,3.951,0,0,1,.429,1.87,3.951,3.951,0,0,1-.429,1.87A3.217,3.217,0,0,1,219.9-2.838,3.255,3.255,0,0,1,218.174-2.376Z" transform="translate(147.04 235.09)" fill="#ec5463"/>
    <path id="Path_650" data-name="Path 650" d="M6.3.216A5.1,5.1,0,0,0,8.811-.378a4.262,4.262,0,0,0,1.665-1.629,4.67,4.67,0,0,0,.594-2.367V-13.41H9.63v9.036a3.125,3.125,0,0,1-.918,2.349A3.316,3.316,0,0,1,6.3-1.134a3.324,3.324,0,0,1-2.4-.891A3.109,3.109,0,0,1,2.97-4.374V-13.41H1.53v9.036a4.67,4.67,0,0,0,.594,2.367A4.246,4.246,0,0,0,3.8-.378,5.108,5.108,0,0,0,6.3.216Zm11.034,0a4.274,4.274,0,0,0,1.782-.351,2.912,2.912,0,0,0,1.215-.981,2.421,2.421,0,0,0,.441-1.422,2.429,2.429,0,0,0-.657-1.692,3.879,3.879,0,0,0-1.827-1.062l-1.6-.468a4.9,4.9,0,0,1-.585-.216,1.633,1.633,0,0,1-.585-.432,1.134,1.134,0,0,1-.252-.774,1.313,1.313,0,0,1,.486-1.044,1.931,1.931,0,0,1,1.3-.414,2.613,2.613,0,0,1,1.5.459,2.934,2.934,0,0,1,1.035,1.269l1.152-.54a3.451,3.451,0,0,0-1.413-1.773A4.04,4.04,0,0,0,17.1-9.864a3.849,3.849,0,0,0-1.638.342,2.825,2.825,0,0,0-1.17.972,2.546,2.546,0,0,0-.432,1.476,2.343,2.343,0,0,0,.594,1.584A3.9,3.9,0,0,0,16.38-4.428l1.386.4a4.5,4.5,0,0,1,.666.234,2.037,2.037,0,0,1,.666.459,1.1,1.1,0,0,1,.288.8,1.3,1.3,0,0,1-.594,1.107,2.449,2.449,0,0,1-1.458.423,2.812,2.812,0,0,1-1.647-.522,3.474,3.474,0,0,1-1.161-1.4l-1.134.54A3.972,3.972,0,0,0,14.9-.486,4.251,4.251,0,0,0,17.334.216Zm10.206,0a4.76,4.76,0,0,0,1.809-.333A4.623,4.623,0,0,0,30.762-1a3.657,3.657,0,0,0,.882-1.2l-1.152-.612a4.049,4.049,0,0,1-1.17,1.26,3.031,3.031,0,0,1-1.782.5,3.321,3.321,0,0,1-1.62-.414,3.361,3.361,0,0,1-1.233-1.161,3.488,3.488,0,0,1-.513-1.791h7.6q.036-.234.054-.459t.018-.405a4.772,4.772,0,0,0-.306-1.683,4.734,4.734,0,0,0-.882-1.476,4.241,4.241,0,0,0-1.4-1.044A4.31,4.31,0,0,0,27.4-9.864a4.425,4.425,0,0,0-2.367.648,4.645,4.645,0,0,0-1.665,1.773,5.319,5.319,0,0,0-.612,2.583,5.35,5.35,0,0,0,.63,2.61A4.706,4.706,0,0,0,25.1-.441,4.629,4.629,0,0,0,27.54.216ZM27.4-8.6a2.987,2.987,0,0,1,1.485.378,2.93,2.93,0,0,1,1.08,1.035,2.96,2.96,0,0,1,.423,1.521H24.21a3.373,3.373,0,0,1,.567-1.557A3.2,3.2,0,0,1,25.92-8.244,3.122,3.122,0,0,1,27.4-8.6ZM34.218,0h1.35V-5.94a2.525,2.525,0,0,1,.63-1.836,2.228,2.228,0,0,1,1.674-.648h.846v-1.35h-.612a3.492,3.492,0,0,0-1.521.306,2.511,2.511,0,0,0-1.017.864V-9.648h-1.35ZM43.65.216a4.274,4.274,0,0,0,1.782-.351,2.912,2.912,0,0,0,1.215-.981,2.421,2.421,0,0,0,.441-1.422,2.429,2.429,0,0,0-.657-1.692A3.879,3.879,0,0,0,44.6-5.292L43-5.76a4.9,4.9,0,0,1-.585-.216,1.633,1.633,0,0,1-.585-.432,1.134,1.134,0,0,1-.252-.774,1.313,1.313,0,0,1,.486-1.044,1.931,1.931,0,0,1,1.3-.414,2.613,2.613,0,0,1,1.5.459A2.934,2.934,0,0,1,45.9-6.912l1.152-.54a3.451,3.451,0,0,0-1.413-1.773,4.04,4.04,0,0,0-2.223-.639,3.849,3.849,0,0,0-1.638.342,2.825,2.825,0,0,0-1.17.972,2.546,2.546,0,0,0-.432,1.476A2.343,2.343,0,0,0,40.77-5.49,3.9,3.9,0,0,0,42.7-4.428l1.386.4a4.5,4.5,0,0,1,.666.234,2.037,2.037,0,0,1,.666.459,1.1,1.1,0,0,1,.288.8,1.3,1.3,0,0,1-.594,1.107,2.449,2.449,0,0,1-1.458.423A2.812,2.812,0,0,1,42-1.53a3.474,3.474,0,0,1-1.161-1.4l-1.134.54A3.972,3.972,0,0,0,41.22-.486,4.251,4.251,0,0,0,43.65.216Zm11-.216H56L58.32-7.632,60.624,0h1.35l3.312-9.648H63.774L61.308-2.07,58.986-9.648h-1.35l-2.3,7.578L52.866-9.648h-1.53ZM66.87-11.43h1.35v-1.98H66.87ZM66.87,0h1.35V-9.648H66.87Zm4.122,0h1.35V-13.626h-1.35Zm4.122,0h1.35V-13.626h-1.35Zm12.06.216a4.57,4.57,0,0,0,2.439-.657,4.7,4.7,0,0,0,1.692-1.8,5.322,5.322,0,0,0,.621-2.583,5.308,5.308,0,0,0-.621-2.592,4.718,4.718,0,0,0-1.692-1.791,4.57,4.57,0,0,0-2.439-.657,4.486,4.486,0,0,0-2.034.45A4.251,4.251,0,0,0,83.646-8.19v-5.436H82.3V0h1.35V-1.566A3.646,3.646,0,0,0,85.122-.252,4.523,4.523,0,0,0,87.174.216ZM87.1-1.134a3.26,3.26,0,0,1-1.755-.486,3.515,3.515,0,0,1-1.242-1.323,3.847,3.847,0,0,1-.459-1.881,3.847,3.847,0,0,1,.459-1.881,3.515,3.515,0,0,1,1.242-1.323A3.26,3.26,0,0,1,87.1-8.514a3.17,3.17,0,0,1,1.737.486,3.443,3.443,0,0,1,1.206,1.314,3.958,3.958,0,0,1,.441,1.89,3.973,3.973,0,0,1-.441,1.881A3.426,3.426,0,0,1,88.839-1.62,3.17,3.17,0,0,1,87.1-1.134ZM98.694.216A4.76,4.76,0,0,0,100.5-.117,4.623,4.623,0,0,0,101.916-1a3.657,3.657,0,0,0,.882-1.2l-1.152-.612a4.049,4.049,0,0,1-1.17,1.26,3.031,3.031,0,0,1-1.782.5,3.321,3.321,0,0,1-1.62-.414,3.361,3.361,0,0,1-1.233-1.161,3.488,3.488,0,0,1-.513-1.791h7.6q.036-.234.054-.459T103-5.274a4.772,4.772,0,0,0-.306-1.683,4.734,4.734,0,0,0-.882-1.476,4.241,4.241,0,0,0-1.395-1.044,4.31,4.31,0,0,0-1.863-.387,4.425,4.425,0,0,0-2.367.648,4.645,4.645,0,0,0-1.665,1.773,5.319,5.319,0,0,0-.612,2.583,5.35,5.35,0,0,0,.63,2.61A4.706,4.706,0,0,0,96.255-.441,4.629,4.629,0,0,0,98.694.216ZM98.55-8.6a2.987,2.987,0,0,1,1.485.378,2.93,2.93,0,0,1,1.08,1.035,2.96,2.96,0,0,1,.423,1.521H95.364a3.373,3.373,0,0,1,.567-1.557,3.2,3.2,0,0,1,1.143-1.017A3.122,3.122,0,0,1,98.55-8.6Zm13.3,8.82a3.432,3.432,0,0,0,1.62-.378,3.075,3.075,0,0,0,1.152-1.026V0h1.35V-9.648h-1.35v5.742a2.809,2.809,0,0,1-.711,2.034,2.425,2.425,0,0,1-1.827.738,2.421,2.421,0,0,1-1.8-.711,2.561,2.561,0,0,1-.7-1.881V-9.648h-1.35v6.084a3.977,3.977,0,0,0,.477,1.971,3.439,3.439,0,0,0,1.305,1.332A3.612,3.612,0,0,0,111.852.216ZM118.746,0h1.35V-5.742a2.789,2.789,0,0,1,.72-2.034,2.433,2.433,0,0,1,1.818-.738,2.382,2.382,0,0,1,1.809.729,2.847,2.847,0,0,1,.693,2.043V0h1.35V-6.264a3.6,3.6,0,0,0-.477-1.845,3.465,3.465,0,0,0-1.3-1.287,3.652,3.652,0,0,0-1.845-.468,3.432,3.432,0,0,0-1.62.378A3.075,3.075,0,0,0,120.1-8.46V-9.648h-1.35Zm13.1.216a4.445,4.445,0,0,0,2.016-.45,3.447,3.447,0,0,0,1.368-1.152V0h1.35V-6.624a3.091,3.091,0,0,0-.459-1.683,3.154,3.154,0,0,0-1.278-1.143,4.114,4.114,0,0,0-1.881-.414,4.246,4.246,0,0,0-1.566.3,4.629,4.629,0,0,0-1.341.8A3.165,3.165,0,0,0,129.2-7.65l1.224.666a2.716,2.716,0,0,1,.99-1.143,2.739,2.739,0,0,1,1.548-.441,2.429,2.429,0,0,1,1.638.54,1.762,1.762,0,0,1,.63,1.4v.5l-3.492.576a3.9,3.9,0,0,0-2.34,1.1,2.828,2.828,0,0,0-.738,1.944,2.446,2.446,0,0,0,.414,1.4,2.836,2.836,0,0,0,1.134.963A3.691,3.691,0,0,0,131.85.216ZM130.1-2.556a1.621,1.621,0,0,1,.459-1.152,2.641,2.641,0,0,1,1.5-.666l3.168-.522v.72a3.156,3.156,0,0,1-.414,1.6,3.054,3.054,0,0,1-1.152,1.143,3.415,3.415,0,0,1-1.728.423,1.933,1.933,0,0,1-1.323-.45A1.407,1.407,0,0,1,130.1-2.556ZM144.234.216a4.57,4.57,0,0,0,2.439-.657,4.7,4.7,0,0,0,1.692-1.8,5.322,5.322,0,0,0,.621-2.583,5.308,5.308,0,0,0-.621-2.592,4.718,4.718,0,0,0-1.692-1.791,4.57,4.57,0,0,0-2.439-.657,4.486,4.486,0,0,0-2.034.45,4.251,4.251,0,0,0-1.494,1.224v-5.436h-1.35V0h1.35V-1.566a3.646,3.646,0,0,0,1.476,1.314A4.523,4.523,0,0,0,144.234.216Zm-.072-1.35a3.26,3.26,0,0,1-1.755-.486,3.515,3.515,0,0,1-1.242-1.323,3.846,3.846,0,0,1-.459-1.881,3.846,3.846,0,0,1,.459-1.881,3.515,3.515,0,0,1,1.242-1.323,3.26,3.26,0,0,1,1.755-.486,3.17,3.17,0,0,1,1.737.486A3.443,3.443,0,0,1,147.1-6.714a3.958,3.958,0,0,1,.441,1.89,3.973,3.973,0,0,1-.441,1.881A3.426,3.426,0,0,1,145.9-1.62,3.17,3.17,0,0,1,144.162-1.134ZM151.362,0h1.35V-13.626h-1.35Zm8.514.216a4.76,4.76,0,0,0,1.809-.333A4.623,4.623,0,0,0,163.1-1a3.657,3.657,0,0,0,.882-1.2l-1.152-.612a4.049,4.049,0,0,1-1.17,1.26,3.031,3.031,0,0,1-1.782.5,3.321,3.321,0,0,1-1.62-.414,3.361,3.361,0,0,1-1.233-1.161,3.488,3.488,0,0,1-.513-1.791h7.6q.036-.234.054-.459t.018-.405a4.772,4.772,0,0,0-.306-1.683,4.734,4.734,0,0,0-.882-1.476,4.241,4.241,0,0,0-1.4-1.044,4.31,4.31,0,0,0-1.863-.387,4.425,4.425,0,0,0-2.367.648A4.645,4.645,0,0,0,155.7-7.443a5.319,5.319,0,0,0-.612,2.583,5.35,5.35,0,0,0,.63,2.61,4.706,4.706,0,0,0,1.719,1.809A4.629,4.629,0,0,0,159.876.216Zm-.144-8.82a2.987,2.987,0,0,1,1.485.378,2.93,2.93,0,0,1,1.08,1.035,2.96,2.96,0,0,1,.423,1.521h-6.174a3.373,3.373,0,0,1,.567-1.557,3.2,3.2,0,0,1,1.143-1.017A3.122,3.122,0,0,1,159.732-8.6ZM173.3.108q.162,0,.432-.027A3.414,3.414,0,0,0,174.222,0V-1.206q-.144.018-.342.036t-.342.018A1.445,1.445,0,0,1,172.3-1.62a1.962,1.962,0,0,1-.342-1.188V-8.3h2.124v-1.35h-2.124V-11.88H170.6v.81a1.474,1.474,0,0,1-.36,1.017,1.235,1.235,0,0,1-.972.405h-.45V-8.3H170.6v5.49a3.059,3.059,0,0,0,.7,2.16A2.592,2.592,0,0,0,173.3.108ZM180.4.216a4.774,4.774,0,0,0,2.457-.648,4.882,4.882,0,0,0,1.773-1.791,5.106,5.106,0,0,0,.666-2.619,5.188,5.188,0,0,0-.639-2.592,4.7,4.7,0,0,0-1.746-1.782,4.877,4.877,0,0,0-2.511-.648,4.825,4.825,0,0,0-2.511.657,4.834,4.834,0,0,0-1.755,1.791,5.1,5.1,0,0,0-.648,2.574,5.125,5.125,0,0,0,.657,2.6,4.861,4.861,0,0,0,1.773,1.8A4.8,4.8,0,0,0,180.4.216Zm0-1.35a3.26,3.26,0,0,1-1.755-.486,3.566,3.566,0,0,1-1.251-1.332,3.838,3.838,0,0,1-.468-1.89,3.737,3.737,0,0,1,.468-1.872,3.6,3.6,0,0,1,1.251-1.314,3.26,3.26,0,0,1,1.755-.486,3.26,3.26,0,0,1,1.755.486,3.534,3.534,0,0,1,1.242,1.314,3.8,3.8,0,0,1,.459,1.872,3.9,3.9,0,0,1-.459,1.89,3.5,3.5,0,0,1-1.242,1.332A3.26,3.26,0,0,1,180.4-1.134Zm10.332-10.3h1.35v-1.98h-1.35Zm-1.8,15.39a3.509,3.509,0,0,0,1.575-.351,2.793,2.793,0,0,0,1.143-1.035A3.074,3.074,0,0,0,192.078.9V-9.648h-1.35V.9a1.7,1.7,0,0,1-.513,1.35,1.831,1.831,0,0,1-1.251.45,5.339,5.339,0,0,1-.756-.054V3.888a2.332,2.332,0,0,0,.369.054Q188.8,3.96,188.928,3.96ZM199.368.216a4.774,4.774,0,0,0,2.457-.648A4.882,4.882,0,0,0,203.6-2.223a5.106,5.106,0,0,0,.666-2.619,5.188,5.188,0,0,0-.639-2.592,4.7,4.7,0,0,0-1.746-1.782,4.877,4.877,0,0,0-2.511-.648,4.825,4.825,0,0,0-2.511.657A4.834,4.834,0,0,0,195.1-7.416a5.1,5.1,0,0,0-.648,2.574,5.125,5.125,0,0,0,.657,2.6,4.861,4.861,0,0,0,1.773,1.8A4.8,4.8,0,0,0,199.368.216Zm0-1.35a3.26,3.26,0,0,1-1.755-.486,3.566,3.566,0,0,1-1.251-1.332,3.838,3.838,0,0,1-.468-1.89,3.737,3.737,0,0,1,.468-1.872,3.6,3.6,0,0,1,1.251-1.314,3.26,3.26,0,0,1,1.755-.486,3.26,3.26,0,0,1,1.755.486,3.534,3.534,0,0,1,1.242,1.314,3.8,3.8,0,0,1,.459,1.872,3.9,3.9,0,0,1-.459,1.89,3.5,3.5,0,0,1-1.242,1.332A3.26,3.26,0,0,1,199.368-1.134Zm7.272-10.3h1.35v-1.98h-1.35Zm0,11.43h1.35V-9.648h-1.35Zm4.122,0h1.35V-5.742a2.789,2.789,0,0,1,.72-2.034,2.433,2.433,0,0,1,1.818-.738,2.382,2.382,0,0,1,1.809.729,2.847,2.847,0,0,1,.693,2.043V0h1.35V-6.264a3.6,3.6,0,0,0-.477-1.845,3.465,3.465,0,0,0-1.3-1.287,3.652,3.652,0,0,0-1.845-.468,3.432,3.432,0,0,0-1.62.378,3.075,3.075,0,0,0-1.152,1.026V-9.648h-1.35Zm17.064.108q.162,0,.432-.027A3.414,3.414,0,0,0,228.744,0V-1.206q-.144.018-.342.036t-.342.018a1.445,1.445,0,0,1-1.242-.468,1.962,1.962,0,0,1-.342-1.188V-8.3H228.6v-1.35h-2.124V-11.88h-1.35v.81a1.474,1.474,0,0,1-.36,1.017,1.235,1.235,0,0,1-.972.405h-.45V-8.3h1.782v5.49a3.059,3.059,0,0,0,.7,2.16A2.592,2.592,0,0,0,227.826.108ZM231.12,0h1.35V-5.742a2.768,2.768,0,0,1,.729-2.034,2.441,2.441,0,0,1,1.809-.738,2.4,2.4,0,0,1,1.791.729,2.8,2.8,0,0,1,.711,2.043V0h1.35V-6.264a3.6,3.6,0,0,0-.477-1.845,3.465,3.465,0,0,0-1.3-1.287,3.652,3.652,0,0,0-1.845-.468,3.432,3.432,0,0,0-1.62.378A3.075,3.075,0,0,0,232.47-8.46v-5.166h-1.35Zm14.706.216a4.76,4.76,0,0,0,1.809-.333A4.623,4.623,0,0,0,249.048-1a3.657,3.657,0,0,0,.882-1.2l-1.152-.612a4.049,4.049,0,0,1-1.17,1.26,3.031,3.031,0,0,1-1.782.5,3.321,3.321,0,0,1-1.62-.414,3.361,3.361,0,0,1-1.233-1.161,3.488,3.488,0,0,1-.513-1.791h7.6q.036-.234.054-.459t.018-.405a4.772,4.772,0,0,0-.306-1.683,4.734,4.734,0,0,0-.882-1.476,4.241,4.241,0,0,0-1.4-1.044,4.31,4.31,0,0,0-1.863-.387,4.425,4.425,0,0,0-2.367.648,4.645,4.645,0,0,0-1.665,1.773,5.319,5.319,0,0,0-.612,2.583,5.35,5.35,0,0,0,.63,2.61,4.706,4.706,0,0,0,1.719,1.809A4.629,4.629,0,0,0,245.826.216Zm-.144-8.82a2.987,2.987,0,0,1,1.485.378,2.93,2.93,0,0,1,1.08,1.035,2.96,2.96,0,0,1,.423,1.521H242.5a3.373,3.373,0,0,1,.567-1.557,3.2,3.2,0,0,1,1.143-1.017A3.122,3.122,0,0,1,245.682-8.6ZM259.254.108q.162,0,.432-.027A3.413,3.413,0,0,0,260.172,0V-1.206q-.144.018-.342.036t-.342.018a1.445,1.445,0,0,1-1.242-.468,1.962,1.962,0,0,1-.342-1.188V-8.3h2.124v-1.35H257.9V-11.88h-1.35v.81a1.474,1.474,0,0,1-.36,1.017,1.235,1.235,0,0,1-.972.405h-.45V-8.3h1.782v5.49a3.059,3.059,0,0,0,.7,2.16A2.592,2.592,0,0,0,259.254.108Zm6.966.108a4.76,4.76,0,0,0,1.809-.333A4.623,4.623,0,0,0,269.442-1a3.657,3.657,0,0,0,.882-1.2l-1.152-.612A4.049,4.049,0,0,1,268-1.548a3.031,3.031,0,0,1-1.782.5,3.321,3.321,0,0,1-1.62-.414,3.361,3.361,0,0,1-1.233-1.161,3.489,3.489,0,0,1-.513-1.791h7.6q.036-.234.054-.459t.018-.405a4.771,4.771,0,0,0-.306-1.683,4.734,4.734,0,0,0-.882-1.476,4.241,4.241,0,0,0-1.395-1.044,4.31,4.31,0,0,0-1.863-.387,4.425,4.425,0,0,0-2.367.648,4.645,4.645,0,0,0-1.665,1.773,5.319,5.319,0,0,0-.612,2.583,5.35,5.35,0,0,0,.63,2.61,4.706,4.706,0,0,0,1.719,1.809A4.629,4.629,0,0,0,266.22.216Zm-.144-8.82a2.987,2.987,0,0,1,1.485.378,2.93,2.93,0,0,1,1.08,1.035,2.961,2.961,0,0,1,.423,1.521H262.89a3.373,3.373,0,0,1,.567-1.557A3.2,3.2,0,0,1,264.6-8.244,3.122,3.122,0,0,1,266.076-8.6ZM272.9,0h1.35V-5.742a2.788,2.788,0,0,1,.72-2.034,2.433,2.433,0,0,1,1.818-.738,2.382,2.382,0,0,1,1.809.729,2.847,2.847,0,0,1,.693,2.043V0h1.35V-6.264a3.6,3.6,0,0,0-.477-1.845,3.465,3.465,0,0,0-1.3-1.287,3.652,3.652,0,0,0-1.845-.468,3.432,3.432,0,0,0-1.62.378,3.075,3.075,0,0,0-1.152,1.026V-9.648H272.9ZM286,.216a4.445,4.445,0,0,0,2.016-.45,3.447,3.447,0,0,0,1.368-1.152V0h1.35V-6.624a3.091,3.091,0,0,0-.459-1.683A3.154,3.154,0,0,0,289-9.45a4.114,4.114,0,0,0-1.881-.414,4.246,4.246,0,0,0-1.566.3,4.629,4.629,0,0,0-1.341.8,3.165,3.165,0,0,0-.855,1.116l1.224.666a2.716,2.716,0,0,1,.99-1.143,2.739,2.739,0,0,1,1.548-.441,2.429,2.429,0,0,1,1.638.54,1.762,1.762,0,0,1,.63,1.4v.5l-3.492.576a3.9,3.9,0,0,0-2.34,1.1,2.828,2.828,0,0,0-.738,1.944,2.446,2.446,0,0,0,.414,1.4,2.836,2.836,0,0,0,1.134.963A3.691,3.691,0,0,0,286,.216Zm-1.746-2.772a1.621,1.621,0,0,1,.459-1.152,2.641,2.641,0,0,1,1.5-.666l3.168-.522v.72a3.156,3.156,0,0,1-.414,1.6,3.054,3.054,0,0,1-1.152,1.143,3.415,3.415,0,0,1-1.728.423,1.933,1.933,0,0,1-1.323-.45A1.407,1.407,0,0,1,284.256-2.556ZM293.508,0h1.35V-5.742a2.788,2.788,0,0,1,.72-2.034,2.433,2.433,0,0,1,1.818-.738,2.382,2.382,0,0,1,1.809.729,2.847,2.847,0,0,1,.693,2.043V0h1.35V-6.264a3.6,3.6,0,0,0-.477-1.845,3.465,3.465,0,0,0-1.3-1.287,3.652,3.652,0,0,0-1.845-.468,3.432,3.432,0,0,0-1.62.378,3.075,3.075,0,0,0-1.152,1.026V-9.648h-1.35Zm14,.108q.162,0,.432-.027A3.413,3.413,0,0,0,308.43,0V-1.206q-.144.018-.342.036t-.342.018A1.445,1.445,0,0,1,306.5-1.62a1.962,1.962,0,0,1-.342-1.188V-8.3h2.124v-1.35h-2.124V-11.88h-1.35v.81a1.474,1.474,0,0,1-.36,1.017,1.235,1.235,0,0,1-.972.405h-.45V-8.3h1.782v5.49a3.059,3.059,0,0,0,.7,2.16A2.592,2.592,0,0,0,307.512.108Zm9.144.108a4.445,4.445,0,0,0,2.016-.45,3.447,3.447,0,0,0,1.368-1.152V0h1.35V-6.624a3.091,3.091,0,0,0-.459-1.683,3.154,3.154,0,0,0-1.278-1.143,4.114,4.114,0,0,0-1.881-.414,4.246,4.246,0,0,0-1.566.3,4.629,4.629,0,0,0-1.341.8,3.165,3.165,0,0,0-.855,1.116l1.224.666a2.716,2.716,0,0,1,.99-1.143,2.739,2.739,0,0,1,1.548-.441,2.429,2.429,0,0,1,1.638.54,1.762,1.762,0,0,1,.63,1.4v.5l-3.492.576a3.9,3.9,0,0,0-2.34,1.1A2.828,2.828,0,0,0,313.47-2.5a2.446,2.446,0,0,0,.414,1.4,2.836,2.836,0,0,0,1.134.963A3.691,3.691,0,0,0,316.656.216ZM314.91-2.556a1.621,1.621,0,0,1,.459-1.152,2.641,2.641,0,0,1,1.5-.666L320.04-4.9v.72a3.156,3.156,0,0,1-.414,1.6,3.054,3.054,0,0,1-1.152,1.143,3.415,3.415,0,0,1-1.728.423,1.933,1.933,0,0,1-1.323-.45A1.407,1.407,0,0,1,314.91-2.556ZM324.162,0h1.35V-5.742a2.788,2.788,0,0,1,.72-2.034,2.433,2.433,0,0,1,1.818-.738,2.382,2.382,0,0,1,1.809.729,2.847,2.847,0,0,1,.693,2.043V0h1.35V-6.264a3.6,3.6,0,0,0-.477-1.845,3.465,3.465,0,0,0-1.3-1.287,3.652,3.652,0,0,0-1.845-.468,3.432,3.432,0,0,0-1.62.378,3.075,3.075,0,0,0-1.152,1.026V-9.648h-1.35Zm14.67.216a4.523,4.523,0,0,0,2.052-.468,3.646,3.646,0,0,0,1.476-1.314V0h1.35V-13.626h-1.35V-8.19a4.251,4.251,0,0,0-1.494-1.224,4.486,4.486,0,0,0-2.034-.45,4.569,4.569,0,0,0-2.439.657A4.718,4.718,0,0,0,334.7-7.416a5.308,5.308,0,0,0-.621,2.592,5.322,5.322,0,0,0,.621,2.583,4.678,4.678,0,0,0,1.7,1.8A4.583,4.583,0,0,0,338.832.216Zm.072-1.35a3.17,3.17,0,0,1-1.737-.486,3.426,3.426,0,0,1-1.206-1.323,3.973,3.973,0,0,1-.441-1.881,3.958,3.958,0,0,1,.441-1.89,3.419,3.419,0,0,1,1.215-1.314,3.183,3.183,0,0,1,1.728-.486,3.26,3.26,0,0,1,1.755.486A3.515,3.515,0,0,1,341.9-6.705a3.847,3.847,0,0,1,.459,1.881,3.847,3.847,0,0,1-.459,1.881,3.515,3.515,0,0,1-1.242,1.323A3.26,3.26,0,0,1,338.9-1.134ZM349.542,0h1.35V-13.626h-1.35Zm8.64.216a4.774,4.774,0,0,0,2.457-.648,4.882,4.882,0,0,0,1.773-1.791,5.106,5.106,0,0,0,.666-2.619,5.188,5.188,0,0,0-.639-2.592,4.7,4.7,0,0,0-1.746-1.782,4.877,4.877,0,0,0-2.511-.648,4.825,4.825,0,0,0-2.511.657,4.834,4.834,0,0,0-1.755,1.791,5.1,5.1,0,0,0-.648,2.574,5.124,5.124,0,0,0,.657,2.6,4.861,4.861,0,0,0,1.773,1.8A4.8,4.8,0,0,0,358.182.216Zm0-1.35a3.26,3.26,0,0,1-1.755-.486,3.566,3.566,0,0,1-1.251-1.332,3.838,3.838,0,0,1-.468-1.89,3.737,3.737,0,0,1,.468-1.872,3.6,3.6,0,0,1,1.251-1.314,3.26,3.26,0,0,1,1.755-.486,3.26,3.26,0,0,1,1.755.486,3.534,3.534,0,0,1,1.242,1.314,3.8,3.8,0,0,1,.459,1.872,3.9,3.9,0,0,1-.459,1.89,3.5,3.5,0,0,1-1.242,1.332A3.26,3.26,0,0,1,358.182-1.134ZM370.026,3.96a4.846,4.846,0,0,0,2.367-.567,4.19,4.19,0,0,0,1.62-1.548A4.256,4.256,0,0,0,374.6-.378v-9.27h-1.35V-8.19a4.086,4.086,0,0,0-1.476-1.224,4.325,4.325,0,0,0-1.962-.45,4.618,4.618,0,0,0-2.439.648,4.724,4.724,0,0,0-1.692,1.746A4.921,4.921,0,0,0,365.058-5a4.935,4.935,0,0,0,.621,2.457,4.683,4.683,0,0,0,1.7,1.755,4.631,4.631,0,0,0,2.43.648,4.3,4.3,0,0,0,1.98-.468,3.674,3.674,0,0,0,1.458-1.314V-.378a2.859,2.859,0,0,1-.45,1.638,2.855,2.855,0,0,1-1.188,1.008,3.806,3.806,0,0,1-1.62.342,3.282,3.282,0,0,1-1.89-.5A2.739,2.739,0,0,1,367.074.918l-1.242.666a3.921,3.921,0,0,0,1.593,1.71A4.949,4.949,0,0,0,370.026,3.96Zm-.144-5.454a3.215,3.215,0,0,1-1.737-.477,3.428,3.428,0,0,1-1.206-1.278A3.579,3.579,0,0,1,366.5-5a3.564,3.564,0,0,1,.441-1.764,3.424,3.424,0,0,1,1.215-1.269,3.228,3.228,0,0,1,1.728-.477,3.105,3.105,0,0,1,1.692.477,3.6,3.6,0,0,1,1.215,1.278A3.468,3.468,0,0,1,373.248-5a3.468,3.468,0,0,1-.459,1.755,3.6,3.6,0,0,1-1.215,1.278A3.105,3.105,0,0,1,369.882-1.494ZM1.386,10.17h1.35V8.19H1.386Zm0,11.43h1.35V11.952H1.386Zm4.122,0h1.35V15.858a2.789,2.789,0,0,1,.72-2.034A2.433,2.433,0,0,1,9.4,13.086a2.382,2.382,0,0,1,1.809.729,2.847,2.847,0,0,1,.693,2.043V21.6h1.35V15.336a3.6,3.6,0,0,0-.477-1.845,3.465,3.465,0,0,0-1.3-1.287,3.652,3.652,0,0,0-1.845-.468,3.432,3.432,0,0,0-1.62.378A3.075,3.075,0,0,0,6.858,13.14V11.952H5.508Zm16.794.216a3.432,3.432,0,0,0,1.62-.378,3.075,3.075,0,0,0,1.152-1.026V21.6h1.35V11.952h-1.35v5.742a2.809,2.809,0,0,1-.711,2.034,2.632,2.632,0,0,1-3.627.027,2.561,2.561,0,0,1-.7-1.881V11.952h-1.35v6.084a3.977,3.977,0,0,0,.477,1.971,3.439,3.439,0,0,0,1.3,1.332A3.612,3.612,0,0,0,22.3,21.816ZM29.2,21.6h1.35V15.858a2.789,2.789,0,0,1,.72-2.034,2.433,2.433,0,0,1,1.818-.738,2.382,2.382,0,0,1,1.809.729,2.847,2.847,0,0,1,.693,2.043V21.6h1.35V15.336a3.6,3.6,0,0,0-.477-1.845,3.465,3.465,0,0,0-1.3-1.287,3.652,3.652,0,0,0-1.845-.468,3.432,3.432,0,0,0-1.62.378,3.075,3.075,0,0,0-1.152,1.026V11.952H29.2Zm14,.108q.162,0,.432-.027a3.414,3.414,0,0,0,.486-.081V20.394q-.144.018-.342.036t-.342.018a1.445,1.445,0,0,1-1.242-.468,1.962,1.962,0,0,1-.342-1.188V13.3h2.124v-1.35H41.85V9.72H40.5v.81a1.474,1.474,0,0,1-.36,1.017,1.235,1.235,0,0,1-.972.405h-.45V13.3H40.5v5.49a3.059,3.059,0,0,0,.7,2.16A2.592,2.592,0,0,0,43.2,21.708ZM46.494,10.17h1.35V8.19h-1.35Zm0,11.43h1.35V11.952h-1.35Zm4.122,0h1.35V7.974h-1.35ZM57.8,10.17h1.35V8.19H57.8Zm0,11.43h1.35V11.952H57.8Zm4.122,0h1.35V15.858a2.789,2.789,0,0,1,.72-2.034,2.433,2.433,0,0,1,1.818-.738,2.382,2.382,0,0,1,1.809.729,2.847,2.847,0,0,1,.693,2.043V21.6h1.35V15.336a3.6,3.6,0,0,0-.477-1.845,3.465,3.465,0,0,0-1.3-1.287,3.652,3.652,0,0,0-1.845-.468,3.432,3.432,0,0,0-1.62.378A3.075,3.075,0,0,0,63.27,13.14V11.952H61.92Zm12.528,0H75.8l3.8-9.648h-1.53l-2.934,7.812L72.2,11.952H70.686ZM81.18,10.17h1.35V8.19H81.18Zm0,11.43h1.35V11.952H81.18Zm7.812.108q.162,0,.432-.027a3.414,3.414,0,0,0,.486-.081V20.394q-.144.018-.342.036t-.342.018a1.445,1.445,0,0,1-1.242-.468,1.961,1.961,0,0,1-.342-1.188V13.3h2.124v-1.35H87.642V9.72h-1.35v.81a1.474,1.474,0,0,1-.36,1.017,1.235,1.235,0,0,1-.972.405h-.45V13.3h1.782v5.49a3.059,3.059,0,0,0,.7,2.16A2.592,2.592,0,0,0,88.992,21.708Zm6.966.108a4.76,4.76,0,0,0,1.809-.333A4.623,4.623,0,0,0,99.18,20.6a3.657,3.657,0,0,0,.882-1.2l-1.152-.612a4.049,4.049,0,0,1-1.17,1.26,3.031,3.031,0,0,1-1.782.5,3.321,3.321,0,0,1-1.62-.414,3.361,3.361,0,0,1-1.233-1.161,3.488,3.488,0,0,1-.513-1.791h7.6q.036-.234.054-.459t.018-.405a4.806,4.806,0,0,0-1.188-3.159,4.241,4.241,0,0,0-1.395-1.044,4.31,4.31,0,0,0-1.863-.387,4.425,4.425,0,0,0-2.367.648,4.645,4.645,0,0,0-1.665,1.773,5.319,5.319,0,0,0-.612,2.583,5.35,5.35,0,0,0,.63,2.61,4.706,4.706,0,0,0,1.719,1.809A4.629,4.629,0,0,0,95.958,21.816ZM95.814,13a2.987,2.987,0,0,1,1.485.378,2.93,2.93,0,0,1,1.08,1.035A2.961,2.961,0,0,1,98.8,15.93H92.628a3.373,3.373,0,0,1,.567-1.557,3.2,3.2,0,0,1,1.143-1.017A3.122,3.122,0,0,1,95.814,13Zm11.178,8.82a4.523,4.523,0,0,0,2.052-.468,3.646,3.646,0,0,0,1.476-1.314V21.6h1.35V7.974h-1.35V13.41a4.251,4.251,0,0,0-1.494-1.224,4.486,4.486,0,0,0-2.034-.45,4.57,4.57,0,0,0-2.439.657,4.718,4.718,0,0,0-1.692,1.791,5.308,5.308,0,0,0-.621,2.592,5.322,5.322,0,0,0,.621,2.583,4.678,4.678,0,0,0,1.7,1.8A4.583,4.583,0,0,0,106.992,21.816Zm.072-1.35a3.17,3.17,0,0,1-1.737-.486,3.426,3.426,0,0,1-1.206-1.323,4.251,4.251,0,0,1,0-3.771,3.419,3.419,0,0,1,1.215-1.314,3.183,3.183,0,0,1,1.728-.486,3.26,3.26,0,0,1,1.755.486,3.515,3.515,0,0,1,1.242,1.323,4.084,4.084,0,0,1,0,3.762,3.515,3.515,0,0,1-1.242,1.323A3.26,3.26,0,0,1,107.064,20.466ZM115.11,21.6h1.44V19.62h-1.44Z" transform="translate(147.04 264.24)" fill="#666"/>
    <path id="Path_531" data-name="Path 531" d="M700.5,587h-39a19.5,19.5,0,0,0,0,39h39a19.5,19.5,0,1,0,0-39Z" transform="translate(-601.68 -352.04)" fill="#e6e6e6"/>
    <circle id="Ellipse_233" data-name="Ellipse 233" cx="16.38" cy="16.38" r="16.38" transform="translate(45.88 238.08)" fill="#999"/>
  </g>
</svg>
