<svg
  xmlns="http://www.w3.org/2000/svg"
  width="548.19"
  height="507"
  viewBox="0 0 548.19 507"
>
  <g id="_WW_Website_Graphic_Features-Hero-2" transform="translate(0 0.02)">
    <rect
      id="Rectangle_408"
      data-name="Rectangle 408"
      width="547.19"
      height="505.98"
      rx="15.5"
      transform="translate(0.5 0.5)"
      fill="#fff"
    />
    <path
      id="Path_532"
      data-name="Path 532"
      d="M1138,198a15,15,0,0,1,15,15V688a15,15,0,0,1-15,15H621.81a15,15,0,0,1-15-15V213a15,15,0,0,1,15-15H1138m0-1H621.81a16,16,0,0,0-16,16V688a16,16,0,0,0,16,16H1138a16,16,0,0,0,16-16V213A16,16,0,0,0,1138,197Z"
      transform="translate(-605.81 -197.02)"
      fill="#ccc"
    />
    <path
      id="Path_663"
      data-name="Path 663"
      d="M.275,0h3.15l1.45-4.175H12.45L13.875,0h3.15l-6.55-18.625H6.825Zm5.45-6.8L8.65-15.35l2.9,8.55ZM18.95,0h2.825V-18.925H18.95ZM31.425.3a6.733,6.733,0,0,0,3.612-.95A5.273,5.273,0,0,0,37.2-3.05L34.9-4.175a4.239,4.239,0,0,1-1.362,1.412A3.738,3.738,0,0,1,31.45-2.2a3.93,3.93,0,0,1-2.725-1.012,3.9,3.9,0,0,1-1.25-2.738h10.05a3.8,3.8,0,0,0,.1-.65q.025-.35.025-.675a6.993,6.993,0,0,0-.763-3.237,6.092,6.092,0,0,0-2.2-2.4,6.375,6.375,0,0,0-3.487-.913,6.476,6.476,0,0,0-3.412.913,6.56,6.56,0,0,0-2.388,2.5A7.359,7.359,0,0,0,24.525-6.8a7.366,7.366,0,0,0,.887,3.612A6.7,6.7,0,0,0,27.85-.638,6.771,6.771,0,0,0,31.425.3ZM31.2-11.45a3.407,3.407,0,0,1,2.4.9A3.3,3.3,0,0,1,34.65-8.2H27.525A3.765,3.765,0,0,1,28.8-10.6,3.645,3.645,0,0,1,31.2-11.45ZM38.55,0h3.325L44.95-4.525,48,0h3.325L46.6-6.775l4.75-6.75H48.025L44.95-9.05l-3.075-4.475H38.55l4.725,6.75Zm25.9.3a7.711,7.711,0,0,0,3.313-.675A5.313,5.313,0,0,0,70-2.263a4.9,4.9,0,0,0,.8-2.763q0-3.675-4.475-5.075l-3.25-1.025a3.475,3.475,0,0,1-1.75-1.05,2.45,2.45,0,0,1-.575-1.6,2.291,2.291,0,0,1,.862-1.875,3.438,3.438,0,0,1,2.237-.7,4.609,4.609,0,0,1,2.7.8,4.665,4.665,0,0,1,1.7,2.275L70.7-14.35a6.213,6.213,0,0,0-1.437-2.375A7.127,7.127,0,0,0,66.9-18.338a7.686,7.686,0,0,0-3.05-.587,6.921,6.921,0,0,0-3.112.675A5.3,5.3,0,0,0,58.6-16.388a4.94,4.94,0,0,0-.775,2.763,4.789,4.789,0,0,0,1.1,3.137,6.5,6.5,0,0,0,3.2,1.988l3.5,1.1a4.027,4.027,0,0,1,1.688.95A2.222,2.222,0,0,1,67.9-4.825a2.185,2.185,0,0,1-.912,1.838,3.909,3.909,0,0,1-2.413.688,5.1,5.1,0,0,1-3.012-.925A5.51,5.51,0,0,1,59.6-5.875l-2.5,1.05a7.315,7.315,0,0,0,1.55,2.65A7.549,7.549,0,0,0,61.188-.363,7.928,7.928,0,0,0,64.45.3ZM73.825,0H76.65V-18.925H73.825ZM84,.3a6.289,6.289,0,0,0,2.525-.488A4.973,4.973,0,0,0,88.4-1.575V0h2.7V-9.1a4.373,4.373,0,0,0-.7-2.463,4.752,4.752,0,0,0-1.925-1.663,6.345,6.345,0,0,0-2.825-.6,6.662,6.662,0,0,0-2.412.438A6.337,6.337,0,0,0,81.263-12.2a4.642,4.642,0,0,0-1.238,1.75l2.35,1.175A3.42,3.42,0,0,1,83.613-10.8a3.382,3.382,0,0,1,1.963-.575,2.9,2.9,0,0,1,1.963.637A2.066,2.066,0,0,1,88.275-9.1v.525l-4.3.7a6.178,6.178,0,0,0-3.463,1.537A3.8,3.8,0,0,0,79.4-3.575,3.479,3.479,0,0,0,80.675-.763,5.022,5.022,0,0,0,84,.3ZM82.35-3.675A1.8,1.8,0,0,1,82.875-5a2.919,2.919,0,0,1,1.65-.7l3.75-.65v.725a3.7,3.7,0,0,1-.487,1.875A3.554,3.554,0,0,1,86.45-2.413a3.951,3.951,0,0,1-2,.487,2.29,2.29,0,0,1-1.513-.487A1.564,1.564,0,0,1,82.35-3.675ZM99.75.15a6.68,6.68,0,0,0,.775-.05q.425-.05.75-.1V-2.425a5.928,5.928,0,0,1-.925.075,2.207,2.207,0,0,1-1.737-.588A2.37,2.37,0,0,1,98.1-4.55v-6.425h3.075v-2.55H98.1v-3.1H95.275v1.05a2.083,2.083,0,0,1-.525,1.5,1.942,1.942,0,0,1-1.475.55H92.9v2.55h2.375v6.55A4.62,4.62,0,0,0,96.45-1.05,4.408,4.408,0,0,0,99.75.15ZM109.875.3a6.733,6.733,0,0,0,3.613-.95,5.273,5.273,0,0,0,2.162-2.4l-2.3-1.125a4.239,4.239,0,0,1-1.362,1.412A3.738,3.738,0,0,1,109.9-2.2a3.93,3.93,0,0,1-2.725-1.012,3.9,3.9,0,0,1-1.25-2.738h10.05a3.8,3.8,0,0,0,.1-.65q.025-.35.025-.675a6.993,6.993,0,0,0-.762-3.237,6.092,6.092,0,0,0-2.2-2.4,6.375,6.375,0,0,0-3.487-.913,6.476,6.476,0,0,0-3.412.913,6.56,6.56,0,0,0-2.388,2.5,7.359,7.359,0,0,0-.875,3.613,7.366,7.366,0,0,0,.888,3.612A6.7,6.7,0,0,0,106.3-.638,6.771,6.771,0,0,0,109.875.3Zm-.225-11.75a3.407,3.407,0,0,1,2.4.9A3.3,3.3,0,0,1,113.1-8.2h-7.125a3.765,3.765,0,0,1,1.275-2.4A3.645,3.645,0,0,1,109.65-11.45Z"
      transform="translate(196.64 58.84)"
    />
    <path
      id="Path_662"
      data-name="Path 662"
      d="M4.725,0H6.51l3.822-13.4L14.154,0h1.785l4.494-15.645h-1.7L15.015-2.31l-3.78-13.335H9.45L5.649-2.268,1.932-15.645H.231ZM22.281-13.335h1.575v-2.31H22.281ZM22.281,0h1.575V-11.256H22.281ZM27.09,0h1.575V-6.93A2.946,2.946,0,0,1,29.4-9.072a2.6,2.6,0,0,1,1.953-.756h.987V-11.4h-.714a4.074,4.074,0,0,0-1.774.357,2.929,2.929,0,0,0-1.187,1.008v-1.218H27.09ZM39.312.252a5.554,5.554,0,0,0,2.111-.389,5.394,5.394,0,0,0,1.648-1.029,4.267,4.267,0,0,0,1.029-1.4l-1.344-.714a4.723,4.723,0,0,1-1.365,1.47,3.536,3.536,0,0,1-2.079.588,3.874,3.874,0,0,1-1.89-.483,3.921,3.921,0,0,1-1.439-1.355,4.07,4.07,0,0,1-.6-2.089h8.862q.042-.273.063-.536t.021-.473a5.567,5.567,0,0,0-.357-1.964,5.523,5.523,0,0,0-1.029-1.722,4.948,4.948,0,0,0-1.627-1.218,5.028,5.028,0,0,0-2.174-.451,5.163,5.163,0,0,0-2.762.756A5.419,5.419,0,0,0,34.44-8.684a6.205,6.205,0,0,0-.714,3.014,6.241,6.241,0,0,0,.735,3.045,5.49,5.49,0,0,0,2.006,2.11A5.4,5.4,0,0,0,39.312.252Zm-.168-10.29a3.485,3.485,0,0,1,1.732.441,3.419,3.419,0,0,1,1.26,1.207,3.454,3.454,0,0,1,.493,1.774h-7.2a3.935,3.935,0,0,1,.662-1.816,3.73,3.73,0,0,1,1.333-1.187A3.642,3.642,0,0,1,39.144-10.038ZM49.581,0h1.575l2.709-8.9L56.553,0h1.575l3.864-11.256H60.228L57.351-2.415l-2.709-8.841H53.067L50.379-2.415,47.5-11.256H45.717ZM63.84-13.335h1.575v-2.31H63.84ZM63.84,0h1.575V-11.256H63.84Zm8.715.252a4.986,4.986,0,0,0,2.079-.41A3.4,3.4,0,0,0,76.051-1.3a2.824,2.824,0,0,0,.514-1.659A2.834,2.834,0,0,0,75.8-4.935a4.526,4.526,0,0,0-2.132-1.239L71.8-6.72a5.713,5.713,0,0,1-.682-.252,1.905,1.905,0,0,1-.683-.5,1.323,1.323,0,0,1-.294-.9A1.532,1.532,0,0,1,70.707-9.6a2.253,2.253,0,0,1,1.512-.483,3.049,3.049,0,0,1,1.754.535A3.424,3.424,0,0,1,75.18-8.064l1.344-.63a4.026,4.026,0,0,0-1.649-2.069,4.713,4.713,0,0,0-2.593-.745,4.49,4.49,0,0,0-1.911.4,3.3,3.3,0,0,0-1.365,1.134,2.97,2.97,0,0,0-.5,1.722,2.734,2.734,0,0,0,.693,1.848,4.555,4.555,0,0,0,2.247,1.239l1.617.462a5.251,5.251,0,0,1,.777.273,2.376,2.376,0,0,1,.777.536,1.285,1.285,0,0,1,.336.935,1.517,1.517,0,0,1-.693,1.291,2.857,2.857,0,0,1-1.7.494,3.281,3.281,0,0,1-1.922-.609,4.053,4.053,0,0,1-1.354-1.638l-1.323.63A4.634,4.634,0,0,0,69.72-.567,4.96,4.96,0,0,0,72.555.252Zm11.907,0a5.554,5.554,0,0,0,2.111-.389,5.394,5.394,0,0,0,1.648-1.029,4.267,4.267,0,0,0,1.029-1.4l-1.344-.714a4.723,4.723,0,0,1-1.365,1.47,3.536,3.536,0,0,1-2.079.588,3.874,3.874,0,0,1-1.89-.483,3.921,3.921,0,0,1-1.438-1.355,4.07,4.07,0,0,1-.6-2.089H89.4q.042-.273.063-.536t.021-.473a5.567,5.567,0,0,0-.357-1.964A5.523,5.523,0,0,0,88.1-9.839a4.948,4.948,0,0,0-1.628-1.218,5.028,5.028,0,0,0-2.174-.451,5.163,5.163,0,0,0-2.761.756A5.419,5.419,0,0,0,79.59-8.684a6.205,6.205,0,0,0-.714,3.014,6.241,6.241,0,0,0,.735,3.045,5.49,5.49,0,0,0,2.006,2.11A5.4,5.4,0,0,0,84.462.252Zm-.168-10.29a3.485,3.485,0,0,1,1.733.441,3.419,3.419,0,0,1,1.26,1.207,3.454,3.454,0,0,1,.493,1.774h-7.2a3.935,3.935,0,0,1,.661-1.816,3.73,3.73,0,0,1,1.333-1.187A3.642,3.642,0,0,1,84.294-10.038Z"
      transform="translate(196.64 89.2)"
      fill="#666"
    />
    <path
      id="Path_661"
      data-name="Path 661"
      d="M.231,0H2L3.36-3.822h6.993L11.7,0h1.764L7.749-15.645H5.943ZM3.906-5.4l2.94-8.274L9.765-5.4ZM19.551.252a5.277,5.277,0,0,0,2.394-.546,4.254,4.254,0,0,0,1.722-1.533V0h1.575V-15.9H23.667v6.342a4.959,4.959,0,0,0-1.743-1.428,5.234,5.234,0,0,0-2.373-.525,5.331,5.331,0,0,0-2.845.767,5.5,5.5,0,0,0-1.974,2.089,6.193,6.193,0,0,0-.725,3.024,6.209,6.209,0,0,0,.725,3.014,5.458,5.458,0,0,0,1.984,2.1A5.346,5.346,0,0,0,19.551.252Zm.084-1.575a3.7,3.7,0,0,1-2.027-.567A4,4,0,0,1,16.2-3.434a4.635,4.635,0,0,1-.515-2.194A4.618,4.618,0,0,1,16.2-7.833a3.989,3.989,0,0,1,1.417-1.533,3.713,3.713,0,0,1,2.016-.567,3.8,3.8,0,0,1,2.047.567,4.1,4.1,0,0,1,1.449,1.543,4.488,4.488,0,0,1,.535,2.195,4.488,4.488,0,0,1-.535,2.194A4.1,4.1,0,0,1,21.682-1.89,3.8,3.8,0,0,1,19.635-1.323ZM28.476,0h1.575V-6.7a3.3,3.3,0,0,1,.819-2.373,2.7,2.7,0,0,1,2.037-.861,2.646,2.646,0,0,1,2.016.851,3.348,3.348,0,0,1,.8,2.384V0H37.3V-6.7a3.3,3.3,0,0,1,.819-2.373,2.7,2.7,0,0,1,2.037-.861,2.646,2.646,0,0,1,2.016.851,3.349,3.349,0,0,1,.8,2.384V0h1.575V-7.308a4.079,4.079,0,0,0-.577-2.153,4.2,4.2,0,0,0-1.533-1.5,4.139,4.139,0,0,0-2.09-.546,4.139,4.139,0,0,0-2.09.546,3.557,3.557,0,0,0-1.459,1.6A4.071,4.071,0,0,0,35.3-10.92a4,4,0,0,0-2.121-.588,3.84,3.84,0,0,0-1.8.431A3.464,3.464,0,0,0,30.051-9.87v-1.386H28.476ZM47.544-13.335h1.575v-2.31H47.544ZM47.544,0h1.575V-11.256H47.544Zm4.809,0h1.575V-6.7a3.253,3.253,0,0,1,.84-2.373,2.838,2.838,0,0,1,2.121-.861A2.779,2.779,0,0,1,59-9.083,3.322,3.322,0,0,1,59.808-6.7V0h1.575V-7.308a4.2,4.2,0,0,0-.556-2.153,4.042,4.042,0,0,0-1.512-1.5,4.26,4.26,0,0,0-2.152-.546,4,4,0,0,0-1.89.441,3.588,3.588,0,0,0-1.344,1.2v-1.386H52.353ZM64.386-13.335h1.575v-2.31H64.386ZM64.386,0h1.575V-11.256H64.386ZM73.1.252a4.986,4.986,0,0,0,2.079-.41A3.4,3.4,0,0,0,76.6-1.3a2.824,2.824,0,0,0,.514-1.659,2.834,2.834,0,0,0-.766-1.974,4.526,4.526,0,0,0-2.132-1.239L72.345-6.72a5.713,5.713,0,0,1-.682-.252,1.905,1.905,0,0,1-.683-.5,1.323,1.323,0,0,1-.294-.9A1.532,1.532,0,0,1,71.253-9.6a2.253,2.253,0,0,1,1.512-.483,3.049,3.049,0,0,1,1.754.535,3.424,3.424,0,0,1,1.208,1.481l1.344-.63a4.026,4.026,0,0,0-1.649-2.069,4.713,4.713,0,0,0-2.593-.745,4.49,4.49,0,0,0-1.911.4,3.3,3.3,0,0,0-1.365,1.134,2.97,2.97,0,0,0-.5,1.722,2.734,2.734,0,0,0,.693,1.848,4.555,4.555,0,0,0,2.247,1.239l1.617.462a5.251,5.251,0,0,1,.777.273,2.376,2.376,0,0,1,.777.536,1.285,1.285,0,0,1,.336.935A1.517,1.517,0,0,1,74.8-1.67a2.857,2.857,0,0,1-1.7.494,3.281,3.281,0,0,1-1.922-.609,4.053,4.053,0,0,1-1.354-1.638l-1.323.63A4.634,4.634,0,0,0,70.266-.567,4.96,4.96,0,0,0,73.1.252ZM84.189.126q.189,0,.5-.031A3.983,3.983,0,0,0,85.26,0V-1.407q-.168.021-.4.042t-.4.021a1.685,1.685,0,0,1-1.449-.546,2.288,2.288,0,0,1-.4-1.386V-9.681h2.478v-1.575H82.614v-2.6H81.039v.945a1.72,1.72,0,0,1-.42,1.186,1.441,1.441,0,0,1-1.134.473H78.96v1.575h2.079v6.405a3.569,3.569,0,0,0,.819,2.52A3.024,3.024,0,0,0,84.189.126ZM88.032,0h1.575V-6.93a2.946,2.946,0,0,1,.735-2.142A2.6,2.6,0,0,1,92.3-9.828h.987V-11.4h-.714a4.074,4.074,0,0,0-1.774.357,2.929,2.929,0,0,0-1.187,1.008v-1.218H88.032ZM98.385.252a5.186,5.186,0,0,0,2.352-.525,4.021,4.021,0,0,0,1.6-1.344V0h1.575V-7.728a3.607,3.607,0,0,0-.536-1.964,3.68,3.68,0,0,0-1.491-1.333,4.8,4.8,0,0,0-2.195-.483,4.954,4.954,0,0,0-1.827.346,5.4,5.4,0,0,0-1.564.935,3.693,3.693,0,0,0-1,1.3l1.428.777a3.169,3.169,0,0,1,1.155-1.333A3.2,3.2,0,0,1,99.687-10a2.833,2.833,0,0,1,1.911.63,2.056,2.056,0,0,1,.735,1.638v.588l-4.074.672a4.549,4.549,0,0,0-2.73,1.281,3.3,3.3,0,0,0-.861,2.268,2.854,2.854,0,0,0,.483,1.638A3.308,3.308,0,0,0,96.474-.157,4.306,4.306,0,0,0,98.385.252ZM96.348-2.982a1.891,1.891,0,0,1,.535-1.344A3.081,3.081,0,0,1,98.637-5.1l3.7-.609v.84A3.682,3.682,0,0,1,101.85-3a3.563,3.563,0,0,1-1.344,1.334,3.984,3.984,0,0,1-2.016.494A2.255,2.255,0,0,1,96.947-1.7,1.641,1.641,0,0,1,96.348-2.982ZM111.027.126q.189,0,.5-.031A3.983,3.983,0,0,0,112.1,0V-1.407q-.168.021-.4.042t-.4.021a1.685,1.685,0,0,1-1.449-.546,2.288,2.288,0,0,1-.4-1.386V-9.681h2.478v-1.575h-2.478v-2.6h-1.575v.945a1.72,1.72,0,0,1-.42,1.186,1.441,1.441,0,0,1-1.134.473H105.8v1.575h2.079v6.405a3.569,3.569,0,0,0,.819,2.52A3.024,3.024,0,0,0,111.027.126ZM119.3.252A5.57,5.57,0,0,0,122.168-.5a5.7,5.7,0,0,0,2.068-2.09,5.957,5.957,0,0,0,.777-3.056,6.053,6.053,0,0,0-.745-3.024,5.482,5.482,0,0,0-2.037-2.079,5.69,5.69,0,0,0-2.929-.756,5.63,5.63,0,0,0-2.929.767,5.64,5.64,0,0,0-2.048,2.089,5.944,5.944,0,0,0-.756,3,5.979,5.979,0,0,0,.767,3.035,5.671,5.671,0,0,0,2.068,2.1A5.606,5.606,0,0,0,119.3.252Zm0-1.575a3.8,3.8,0,0,1-2.048-.567,4.16,4.16,0,0,1-1.46-1.554,4.478,4.478,0,0,1-.546-2.205,4.36,4.36,0,0,1,.546-2.184,4.206,4.206,0,0,1,1.46-1.533,3.8,3.8,0,0,1,2.048-.567,3.8,3.8,0,0,1,2.048.567A4.123,4.123,0,0,1,122.8-7.833a4.428,4.428,0,0,1,.535,2.184,4.548,4.548,0,0,1-.535,2.205,4.08,4.08,0,0,1-1.449,1.554A3.8,3.8,0,0,1,119.3-1.323ZM127.785,0h1.575V-6.93a2.946,2.946,0,0,1,.735-2.142,2.6,2.6,0,0,1,1.953-.756h.987V-11.4h-.714a4.074,4.074,0,0,0-1.775.357,2.929,2.929,0,0,0-1.186,1.008v-1.218h-1.575Z"
      transform="translate(197.64 122.2)"
      fill="#666"
    />
    <path
      id="Path_660"
      data-name="Path 660"
      d="M.22,0H2.74L3.9-3.34H9.96L11.1,0h2.52L8.38-14.9H5.46ZM4.58-5.44l2.34-6.84L9.24-5.44ZM19.36.24a5.062,5.062,0,0,0,2.07-.42A3.841,3.841,0,0,0,22.98-1.4V0h2.14V-15.14H22.88v5.58a4.157,4.157,0,0,0-1.51-1.1,4.992,4.992,0,0,0-2.03-.4,5.268,5.268,0,0,0-2.77.74A5.329,5.329,0,0,0,14.63-8.3a5.836,5.836,0,0,0-.71,2.88,5.836,5.836,0,0,0,.71,2.88A5.4,5.4,0,0,0,16.57-.51,5.251,5.251,0,0,0,19.36.24Zm.22-2.1a3.2,3.2,0,0,1-1.71-.46A3.167,3.167,0,0,1,16.7-3.59a3.916,3.916,0,0,1-.42-1.83,3.783,3.783,0,0,1,.43-1.82A3.256,3.256,0,0,1,17.89-8.5a3.167,3.167,0,0,1,1.69-.46,3.167,3.167,0,0,1,1.69.46,3.256,3.256,0,0,1,1.18,1.26,3.783,3.783,0,0,1,.43,1.82,3.842,3.842,0,0,1-.43,1.83,3.238,3.238,0,0,1-1.18,1.27A3.167,3.167,0,0,1,19.58-1.86ZM27.76,0h2.26V-6.38a2.671,2.671,0,0,1,.64-1.89,2.16,2.16,0,0,1,1.66-.69,2.16,2.16,0,0,1,1.66.69,2.671,2.671,0,0,1,.64,1.89V0h2.24V-6.38a2.646,2.646,0,0,1,.65-1.89,2.192,2.192,0,0,1,1.67-.69,2.129,2.129,0,0,1,1.65.69,2.7,2.7,0,0,1,.63,1.89V0h2.26V-7a4.116,4.116,0,0,0-.53-2.11,3.85,3.85,0,0,0-1.44-1.43,4.058,4.058,0,0,0-2.05-.52,4.166,4.166,0,0,0-1.96.46,3.528,3.528,0,0,0-1.42,1.38,3.514,3.514,0,0,0-1.38-1.34,4.048,4.048,0,0,0-2-.5,3.924,3.924,0,0,0-1.78.4,2.864,2.864,0,0,0-1.24,1.18v-1.34H27.76ZM46.14-12.3H48.4v-2.6H46.14Zm0,12.3H48.4V-10.82H46.14Zm4.9,0H53.3V-6.38a2.575,2.575,0,0,1,.68-1.89,2.313,2.313,0,0,1,1.72-.69,2.3,2.3,0,0,1,1.73.69,2.6,2.6,0,0,1,.67,1.89V0h2.24V-7a4.116,4.116,0,0,0-.53-2.11,3.829,3.829,0,0,0-1.45-1.43,4.193,4.193,0,0,0-2.1-.52,3.969,3.969,0,0,0-1.8.4A3.024,3.024,0,0,0,53.2-9.5v-1.32H51.04ZM71.7.24A6.169,6.169,0,0,0,74.35-.3a4.25,4.25,0,0,0,1.79-1.51,3.922,3.922,0,0,0,.64-2.21q0-2.94-3.58-4.06L70.6-8.9a2.78,2.78,0,0,1-1.4-.84,1.96,1.96,0,0,1-.46-1.28,1.833,1.833,0,0,1,.69-1.5,2.751,2.751,0,0,1,1.79-.56,3.687,3.687,0,0,1,2.16.64,3.732,3.732,0,0,1,1.36,1.82l1.96-.86a4.971,4.971,0,0,0-1.15-1.9,5.7,5.7,0,0,0-1.89-1.29,6.149,6.149,0,0,0-2.44-.47,5.536,5.536,0,0,0-2.49.54,4.239,4.239,0,0,0-1.71,1.49,3.952,3.952,0,0,0-.62,2.21,3.831,3.831,0,0,0,.88,2.51A5.2,5.2,0,0,0,69.84-6.8l2.8.88a3.222,3.222,0,0,1,1.35.76,1.778,1.778,0,0,1,.47,1.3,1.748,1.748,0,0,1-.73,1.47,3.127,3.127,0,0,1-1.93.55,4.079,4.079,0,0,1-2.41-.74A4.408,4.408,0,0,1,67.82-4.7l-2,.84a5.852,5.852,0,0,0,1.24,2.12A6.039,6.039,0,0,0,69.09-.29,6.343,6.343,0,0,0,71.7.24ZM79.2-12.3h2.26v-2.6H79.2ZM79.2,0h2.26V-10.82H79.2Zm9.58.12A5.344,5.344,0,0,0,89.4.08Q89.74.04,90,0V-1.94a4.742,4.742,0,0,1-.74.06,1.766,1.766,0,0,1-1.39-.47,1.9,1.9,0,0,1-.41-1.29V-8.78h2.46v-2.04H87.46V-13.3H85.2v.84a1.666,1.666,0,0,1-.42,1.2,1.554,1.554,0,0,1-1.18.44h-.3v2.04h1.9v5.24a3.7,3.7,0,0,0,.94,2.7A3.526,3.526,0,0,0,88.78.12Zm8.1.12a5.386,5.386,0,0,0,2.89-.76,4.218,4.218,0,0,0,1.73-1.92l-1.84-.9a3.391,3.391,0,0,1-1.09,1.13,2.991,2.991,0,0,1-1.67.45,3.144,3.144,0,0,1-2.18-.81,3.121,3.121,0,0,1-1-2.19h8.04a3.037,3.037,0,0,0,.08-.52q.02-.28.02-.54a5.594,5.594,0,0,0-.61-2.59,4.873,4.873,0,0,0-1.76-1.92,5.1,5.1,0,0,0-2.79-.73,5.181,5.181,0,0,0-2.73.73,5.248,5.248,0,0,0-1.91,2,5.887,5.887,0,0,0-.7,2.89,5.893,5.893,0,0,0,.71,2.89A5.36,5.36,0,0,0,94.02-.51,5.417,5.417,0,0,0,96.88.24Zm-.18-9.4a2.725,2.725,0,0,1,1.92.72,2.636,2.636,0,0,1,.84,1.88h-5.7a3.012,3.012,0,0,1,1.02-1.92A2.916,2.916,0,0,1,96.7-9.16Z"
      transform="translate(130.64 243.95)"
      fill="#4d4d4d"
    />
    <path
      id="Path_659"
      data-name="Path 659"
      d="M1.76,0h1.6V-11.82L8.32-4.6H8.4l4.96-7.18V0h1.6V-14.9h-1.4L8.36-7.34,3.16-14.9H1.76Zm19.6.24a4.939,4.939,0,0,0,2.24-.5,3.83,3.83,0,0,0,1.52-1.28V0h1.5V-7.36a3.435,3.435,0,0,0-.51-1.87,3.5,3.5,0,0,0-1.42-1.27,4.571,4.571,0,0,0-2.09-.46,4.718,4.718,0,0,0-1.74.33,5.143,5.143,0,0,0-1.49.89,3.517,3.517,0,0,0-.95,1.24l1.36.74a3.018,3.018,0,0,1,1.1-1.27,3.043,3.043,0,0,1,1.72-.49,2.7,2.7,0,0,1,1.82.6,1.958,1.958,0,0,1,.7,1.56v.56l-3.88.64a4.332,4.332,0,0,0-2.6,1.22,3.142,3.142,0,0,0-.82,2.16,2.718,2.718,0,0,0,.46,1.56A3.151,3.151,0,0,0,19.54-.15,4.1,4.1,0,0,0,21.36.24ZM19.42-2.84a1.8,1.8,0,0,1,.51-1.28,2.934,2.934,0,0,1,1.67-.74l3.52-.58v.8a3.507,3.507,0,0,1-.46,1.78,3.393,3.393,0,0,1-1.28,1.27,3.794,3.794,0,0,1-1.92.47,2.148,2.148,0,0,1-1.47-.5A1.563,1.563,0,0,1,19.42-2.84ZM29.7,0h1.5V-6.38A3.1,3.1,0,0,1,32-8.64a2.7,2.7,0,0,1,2.02-.82,2.647,2.647,0,0,1,2.01.81,3.163,3.163,0,0,1,.77,2.27V0h1.5V-6.96a4,4,0,0,0-.53-2.05,3.85,3.85,0,0,0-1.44-1.43,4.058,4.058,0,0,0-2.05-.52,3.813,3.813,0,0,0-1.8.42A3.417,3.417,0,0,0,31.2-9.4v-1.32H29.7ZM44.26.24a4.939,4.939,0,0,0,2.24-.5,3.83,3.83,0,0,0,1.52-1.28V0h1.5V-7.36a3.435,3.435,0,0,0-.51-1.87,3.5,3.5,0,0,0-1.42-1.27,4.571,4.571,0,0,0-2.09-.46,4.718,4.718,0,0,0-1.74.33,5.143,5.143,0,0,0-1.49.89,3.517,3.517,0,0,0-.95,1.24l1.36.74a3.018,3.018,0,0,1,1.1-1.27,3.043,3.043,0,0,1,1.72-.49,2.7,2.7,0,0,1,1.82.6,1.958,1.958,0,0,1,.7,1.56v.56l-3.88.64a4.332,4.332,0,0,0-2.6,1.22,3.142,3.142,0,0,0-.82,2.16,2.718,2.718,0,0,0,.46,1.56A3.151,3.151,0,0,0,42.44-.15,4.1,4.1,0,0,0,44.26.24ZM42.32-2.84a1.8,1.8,0,0,1,.51-1.28,2.934,2.934,0,0,1,1.67-.74l3.52-.58v.8a3.507,3.507,0,0,1-.46,1.78,3.393,3.393,0,0,1-1.28,1.27,3.794,3.794,0,0,1-1.92.47,2.148,2.148,0,0,1-1.47-.5A1.563,1.563,0,0,1,42.32-2.84ZM57.68,4.4a5.384,5.384,0,0,0,2.63-.63,4.655,4.655,0,0,0,1.8-1.72,4.729,4.729,0,0,0,.65-2.47v-10.3h-1.5V-9.1a4.54,4.54,0,0,0-1.64-1.36,4.806,4.806,0,0,0-2.18-.5,5.131,5.131,0,0,0-2.71.72A5.249,5.249,0,0,0,52.85-8.3a5.468,5.468,0,0,0-.69,2.74,5.483,5.483,0,0,0,.69,2.73A5.2,5.2,0,0,0,54.74-.88a5.146,5.146,0,0,0,2.7.72,4.774,4.774,0,0,0,2.2-.52,4.083,4.083,0,0,0,1.62-1.46V-.42a3.176,3.176,0,0,1-.5,1.82,3.172,3.172,0,0,1-1.32,1.12,4.229,4.229,0,0,1-1.8.38,3.647,3.647,0,0,1-2.1-.56A3.044,3.044,0,0,1,54.4,1.02l-1.38.74a4.356,4.356,0,0,0,1.77,1.9A5.5,5.5,0,0,0,57.68,4.4Zm-.16-6.06a3.572,3.572,0,0,1-1.93-.53,3.809,3.809,0,0,1-1.34-1.42,3.976,3.976,0,0,1-.49-1.95,3.96,3.96,0,0,1,.49-1.96A3.8,3.8,0,0,1,55.6-8.93a3.586,3.586,0,0,1,1.92-.53,3.45,3.45,0,0,1,1.88.53,4,4,0,0,1,1.35,1.42,3.854,3.854,0,0,1,.51,1.95,3.854,3.854,0,0,1-.51,1.95A4,4,0,0,1,59.4-2.19,3.45,3.45,0,0,1,57.52-1.66ZM70.72.24a5.289,5.289,0,0,0,2.01-.37,5.137,5.137,0,0,0,1.57-.98,4.064,4.064,0,0,0,.98-1.33L74-3.12a4.5,4.5,0,0,1-1.3,1.4,3.368,3.368,0,0,1-1.98.56,3.69,3.69,0,0,1-1.8-.46,3.734,3.734,0,0,1-1.37-1.29,3.876,3.876,0,0,1-.57-1.99h8.44q.04-.26.06-.51t.02-.45a5.3,5.3,0,0,0-.34-1.87,5.26,5.26,0,0,0-.98-1.64,4.712,4.712,0,0,0-1.55-1.16,4.789,4.789,0,0,0-2.07-.43,4.917,4.917,0,0,0-2.63.72,5.161,5.161,0,0,0-1.85,1.97A5.91,5.91,0,0,0,65.4-5.4a5.944,5.944,0,0,0,.7,2.9A5.228,5.228,0,0,0,68.01-.49,5.144,5.144,0,0,0,70.72.24Zm-.16-9.8a3.319,3.319,0,0,1,1.65.42,3.256,3.256,0,0,1,1.2,1.15,3.289,3.289,0,0,1,.47,1.69H67.02a3.747,3.747,0,0,1,.63-1.73,3.552,3.552,0,0,1,1.27-1.13A3.468,3.468,0,0,1,70.56-9.56ZM81.76,4.4a3.527,3.527,0,0,0,1.8-.43,3.837,3.837,0,0,0,1.23-1.13,7.613,7.613,0,0,0,.81-1.48l4.9-12.08H88.84l-3.5,8.84-3.5-8.84H80.22L84.5,0l-.38.92A4.064,4.064,0,0,1,83.1,2.49a2.378,2.378,0,0,1-1.5.41,3.95,3.95,0,0,1-.63-.05q-.31-.05-.51-.07v1.4a3.221,3.221,0,0,0,.65.17A4.335,4.335,0,0,0,81.76,4.4ZM96.88.24a5.3,5.3,0,0,0,2.73-.72,5.424,5.424,0,0,0,1.97-1.99,5.673,5.673,0,0,0,.74-2.91,5.764,5.764,0,0,0-.71-2.88,5.221,5.221,0,0,0-1.94-1.98,5.419,5.419,0,0,0-2.79-.72,5.361,5.361,0,0,0-2.79.73,5.371,5.371,0,0,0-1.95,1.99,5.661,5.661,0,0,0-.72,2.86,5.694,5.694,0,0,0,.73,2.89,5.4,5.4,0,0,0,1.97,2A5.339,5.339,0,0,0,96.88.24Zm0-1.5a3.622,3.622,0,0,1-1.95-.54,3.962,3.962,0,0,1-1.39-1.48,4.265,4.265,0,0,1-.52-2.1,4.153,4.153,0,0,1,.52-2.08,4.006,4.006,0,0,1,1.39-1.46,3.622,3.622,0,0,1,1.95-.54,3.622,3.622,0,0,1,1.95.54,3.926,3.926,0,0,1,1.38,1.46,4.217,4.217,0,0,1,.51,2.08,4.331,4.331,0,0,1-.51,2.1A3.886,3.886,0,0,1,98.83-1.8,3.622,3.622,0,0,1,96.88-1.26ZM108.76.24a3.813,3.813,0,0,0,1.8-.42,3.417,3.417,0,0,0,1.28-1.14V0h1.5V-10.72h-1.5v6.38a3.122,3.122,0,0,1-.79,2.26,2.7,2.7,0,0,1-2.03.82,2.689,2.689,0,0,1-2-.79,2.845,2.845,0,0,1-.78-2.09v-6.58h-1.5v6.76a4.419,4.419,0,0,0,.53,2.19,3.821,3.821,0,0,0,1.45,1.48A4.013,4.013,0,0,0,108.76.24ZM116.42,0h1.5V-6.6a2.806,2.806,0,0,1,.7-2.04,2.476,2.476,0,0,1,1.86-.72h.94v-1.5h-.68a3.88,3.88,0,0,0-1.69.34,2.79,2.79,0,0,0-1.13.96v-1.16h-1.5Zm12.52,0h1.5l2.58-8.48L135.58,0h1.5l3.68-10.72h-1.68L136.34-2.3l-2.58-8.42h-1.5L129.7-2.3l-2.74-8.42h-1.7Zm18.2.24a5.3,5.3,0,0,0,2.73-.72,5.424,5.424,0,0,0,1.97-1.99,5.673,5.673,0,0,0,.74-2.91,5.764,5.764,0,0,0-.71-2.88,5.221,5.221,0,0,0-1.94-1.98,5.419,5.419,0,0,0-2.79-.72,5.361,5.361,0,0,0-2.79.73,5.371,5.371,0,0,0-1.95,1.99,5.661,5.661,0,0,0-.72,2.86,5.694,5.694,0,0,0,.73,2.89,5.4,5.4,0,0,0,1.97,2A5.339,5.339,0,0,0,147.14.24Zm0-1.5a3.622,3.622,0,0,1-1.95-.54,3.962,3.962,0,0,1-1.39-1.48,4.265,4.265,0,0,1-.52-2.1,4.153,4.153,0,0,1,.52-2.08,4.006,4.006,0,0,1,1.39-1.46,3.622,3.622,0,0,1,1.95-.54,3.622,3.622,0,0,1,1.95.54,3.926,3.926,0,0,1,1.38,1.46,4.217,4.217,0,0,1,.51,2.08,4.331,4.331,0,0,1-.51,2.1,3.886,3.886,0,0,1-1.38,1.48A3.622,3.622,0,0,1,147.14-1.26ZM155.22,0h1.5V-6.6a2.806,2.806,0,0,1,.7-2.04,2.476,2.476,0,0,1,1.86-.72h.94v-1.5h-.68a3.88,3.88,0,0,0-1.69.34,2.79,2.79,0,0,0-1.13.96v-1.16h-1.5Zm6.76,0h1.5V-3.22l2.04-2.1L169.38,0h1.8L166.6-6.42l4.2-4.3h-1.94l-5.38,5.44v-9.86h-1.5Zm14.68.24a4.749,4.749,0,0,0,1.98-.39,3.235,3.235,0,0,0,1.35-1.09,2.689,2.689,0,0,0,.49-1.58,2.7,2.7,0,0,0-.73-1.88,4.31,4.31,0,0,0-2.03-1.18l-1.78-.52a5.441,5.441,0,0,1-.65-.24,1.814,1.814,0,0,1-.65-.48,1.26,1.26,0,0,1-.28-.86,1.459,1.459,0,0,1,.54-1.16,2.146,2.146,0,0,1,1.44-.46,2.9,2.9,0,0,1,1.67.51,3.26,3.26,0,0,1,1.15,1.41l1.28-.6a3.834,3.834,0,0,0-1.57-1.97,4.489,4.489,0,0,0-2.47-.71,4.276,4.276,0,0,0-1.82.38,3.139,3.139,0,0,0-1.3,1.08,2.829,2.829,0,0,0-.48,1.64,2.6,2.6,0,0,0,.66,1.76,4.338,4.338,0,0,0,2.14,1.18l1.54.44a5,5,0,0,1,.74.26,2.263,2.263,0,0,1,.74.51,1.224,1.224,0,0,1,.32.89,1.445,1.445,0,0,1-.66,1.23,2.721,2.721,0,0,1-1.62.47,3.125,3.125,0,0,1-1.83-.58,3.86,3.86,0,0,1-1.29-1.56l-1.26.6a4.413,4.413,0,0,0,1.68,2.12A4.724,4.724,0,0,0,176.66.24ZM183.12,4h1.5V-1.74a4.051,4.051,0,0,0,1.64,1.46,5.026,5.026,0,0,0,2.28.52,5.077,5.077,0,0,0,2.71-.73,5.223,5.223,0,0,0,1.88-2,5.913,5.913,0,0,0,.69-2.87,5.9,5.9,0,0,0-.69-2.88,5.242,5.242,0,0,0-1.88-1.99,5.077,5.077,0,0,0-2.71-.73,4.984,4.984,0,0,0-2.26.5,4.723,4.723,0,0,0-1.66,1.36v-1.62h-1.5Zm5.34-5.26a3.622,3.622,0,0,1-1.95-.54,3.905,3.905,0,0,1-1.38-1.47,4.274,4.274,0,0,1-.51-2.09,4.274,4.274,0,0,1,.51-2.09,3.905,3.905,0,0,1,1.38-1.47,3.622,3.622,0,0,1,1.95-.54,3.522,3.522,0,0,1,1.93.54,3.826,3.826,0,0,1,1.34,1.46,4.4,4.4,0,0,1,.49,2.1,4.414,4.414,0,0,1-.49,2.09,3.807,3.807,0,0,1-1.34,1.47A3.522,3.522,0,0,1,188.46-1.26Zm11.1,1.5a4.939,4.939,0,0,0,2.24-.5,3.83,3.83,0,0,0,1.52-1.28V0h1.5V-7.36a3.435,3.435,0,0,0-.51-1.87,3.5,3.5,0,0,0-1.42-1.27,4.571,4.571,0,0,0-2.09-.46,4.718,4.718,0,0,0-1.74.33,5.143,5.143,0,0,0-1.49.89,3.517,3.517,0,0,0-.95,1.24l1.36.74a3.018,3.018,0,0,1,1.1-1.27,3.043,3.043,0,0,1,1.72-.49,2.7,2.7,0,0,1,1.82.6,1.958,1.958,0,0,1,.7,1.56v.56l-3.88.64a4.332,4.332,0,0,0-2.6,1.22,3.142,3.142,0,0,0-.82,2.16,2.718,2.718,0,0,0,.46,1.56,3.151,3.151,0,0,0,1.26,1.07A4.1,4.1,0,0,0,199.56.24Zm-1.94-3.08a1.8,1.8,0,0,1,.51-1.28,2.934,2.934,0,0,1,1.67-.74l3.52-.58v.8a3.507,3.507,0,0,1-.46,1.78,3.393,3.393,0,0,1-1.28,1.27,3.794,3.794,0,0,1-1.92.47,2.147,2.147,0,0,1-1.47-.5A1.563,1.563,0,0,1,197.62-2.84ZM212.8.24a4.917,4.917,0,0,0,1.88-.36,5.237,5.237,0,0,0,1.56-.98,4.11,4.11,0,0,0,1.02-1.4l-1.36-.74a3.447,3.447,0,0,1-1.23,1.44,3.292,3.292,0,0,1-1.87.54,3.487,3.487,0,0,1-1.91-.54,3.807,3.807,0,0,1-1.34-1.47,4.414,4.414,0,0,1-.49-2.09,4.457,4.457,0,0,1,.49-2.11,3.732,3.732,0,0,1,1.34-1.46,3.536,3.536,0,0,1,1.91-.53,3.34,3.34,0,0,1,1.88.54,3.338,3.338,0,0,1,1.22,1.4l1.36-.7a3.962,3.962,0,0,0-1.02-1.41,5.347,5.347,0,0,0-1.56-.97,4.917,4.917,0,0,0-1.88-.36,5.242,5.242,0,0,0-2.78.73,5.143,5.143,0,0,0-1.88,1.99,5.925,5.925,0,0,0-.68,2.86,5.984,5.984,0,0,0,.68,2.87A5.2,5.2,0,0,0,210.02-.5,5.188,5.188,0,0,0,212.8.24Zm11.98,0a5.289,5.289,0,0,0,2.01-.37,5.137,5.137,0,0,0,1.57-.98,4.064,4.064,0,0,0,.98-1.33l-1.28-.68a4.5,4.5,0,0,1-1.3,1.4,3.368,3.368,0,0,1-1.98.56,3.69,3.69,0,0,1-1.8-.46,3.734,3.734,0,0,1-1.37-1.29,3.876,3.876,0,0,1-.57-1.99h8.44q.04-.26.06-.51t.02-.45a5.3,5.3,0,0,0-.34-1.87,5.26,5.26,0,0,0-.98-1.64,4.712,4.712,0,0,0-1.55-1.16,4.789,4.789,0,0,0-2.07-.43,4.917,4.917,0,0,0-2.63.72,5.161,5.161,0,0,0-1.85,1.97,5.91,5.91,0,0,0-.68,2.87,5.944,5.944,0,0,0,.7,2.9,5.228,5.228,0,0,0,1.91,2.01A5.144,5.144,0,0,0,224.78.24Zm-.16-9.8a3.319,3.319,0,0,1,1.65.42,3.256,3.256,0,0,1,1.2,1.15,3.289,3.289,0,0,1,.47,1.69h-6.86a3.747,3.747,0,0,1,.63-1.73,3.552,3.552,0,0,1,1.27-1.13A3.468,3.468,0,0,1,224.62-9.56Z"
      transform="translate(130.64 271.83)"
      fill="#666"
    />
    <path
      id="Path_658"
      data-name="Path 658"
      d="M7.12.24a6.129,6.129,0,0,0,2.97-.7A5.115,5.115,0,0,0,12.1-2.38a5.366,5.366,0,0,0,.72-2.78V-14.9H10.48v9.64a3.416,3.416,0,0,1-.43,1.73A3.133,3.133,0,0,1,8.87-2.35a3.457,3.457,0,0,1-1.75.43,3.416,3.416,0,0,1-1.73-.43A3.133,3.133,0,0,1,4.21-3.53a3.416,3.416,0,0,1-.43-1.73V-14.9H1.42v9.74a5.309,5.309,0,0,0,.73,2.78A5.187,5.187,0,0,0,4.17-.46,6.086,6.086,0,0,0,7.12.24Zm12.44,0a5.092,5.092,0,0,0,2.11-.41,3.3,3.3,0,0,0,1.41-1.14A2.918,2.918,0,0,0,23.58-3a2.807,2.807,0,0,0-.72-1.93A4.214,4.214,0,0,0,20.8-6.12l-1.76-.52a4.033,4.033,0,0,1-.94-.44.93.93,0,0,1-.44-.84,1.1,1.1,0,0,1,.44-.92,1.88,1.88,0,0,1,1.18-.34,2.732,2.732,0,0,1,1.55.46,2.676,2.676,0,0,1,1.01,1.24l1.74-.82a3.949,3.949,0,0,0-1.64-2.03,4.852,4.852,0,0,0-2.64-.73,4.634,4.634,0,0,0-1.98.41,3.367,3.367,0,0,0-1.38,1.13,2.905,2.905,0,0,0-.5,1.7,2.814,2.814,0,0,0,.69,1.9,4.2,4.2,0,0,0,2.09,1.2l1.7.48a3.567,3.567,0,0,1,.98.43.961.961,0,0,1,.46.87,1.144,1.144,0,0,1-.5.98,2.174,2.174,0,0,1-1.3.36,2.911,2.911,0,0,1-1.71-.54A3.681,3.681,0,0,1,16.64-3.6l-1.74.82a4.34,4.34,0,0,0,1.75,2.2A5.184,5.184,0,0,0,19.56.24Zm11.32,0a5.386,5.386,0,0,0,2.89-.76A4.218,4.218,0,0,0,35.5-2.44l-1.84-.9a3.391,3.391,0,0,1-1.09,1.13,2.991,2.991,0,0,1-1.67.45,3.144,3.144,0,0,1-2.18-.81,3.121,3.121,0,0,1-1-2.19h8.04a3.037,3.037,0,0,0,.08-.52q.02-.28.02-.54a5.6,5.6,0,0,0-.61-2.59,4.873,4.873,0,0,0-1.76-1.92,5.1,5.1,0,0,0-2.79-.73,5.181,5.181,0,0,0-2.73.73,5.248,5.248,0,0,0-1.91,2,5.887,5.887,0,0,0-.7,2.89,5.893,5.893,0,0,0,.71,2.89A5.36,5.36,0,0,0,28.02-.51,5.417,5.417,0,0,0,30.88.24Zm-.18-9.4a2.725,2.725,0,0,1,1.92.72,2.636,2.636,0,0,1,.84,1.88h-5.7a3.012,3.012,0,0,1,1.02-1.92A2.916,2.916,0,0,1,30.7-9.16ZM38.06,0h2.26V-6.24a2.665,2.665,0,0,1,.69-1.97,2.448,2.448,0,0,1,1.81-.69h.94v-2.06H43.1a3.888,3.888,0,0,0-1.72.36,2.57,2.57,0,0,0-1.16,1.16v-1.38H38.06ZM54.24.24A6.169,6.169,0,0,0,56.89-.3a4.25,4.25,0,0,0,1.79-1.51,3.922,3.922,0,0,0,.64-2.21q0-2.94-3.58-4.06l-2.6-.82a2.78,2.78,0,0,1-1.4-.84,1.96,1.96,0,0,1-.46-1.28,1.833,1.833,0,0,1,.69-1.5,2.751,2.751,0,0,1,1.79-.56,3.687,3.687,0,0,1,2.16.64,3.732,3.732,0,0,1,1.36,1.82l1.96-.86a4.971,4.971,0,0,0-1.15-1.9,5.7,5.7,0,0,0-1.89-1.29,6.149,6.149,0,0,0-2.44-.47,5.537,5.537,0,0,0-2.49.54,4.239,4.239,0,0,0-1.71,1.49,3.952,3.952,0,0,0-.62,2.21,3.831,3.831,0,0,0,.88,2.51A5.2,5.2,0,0,0,52.38-6.8l2.8.88a3.222,3.222,0,0,1,1.35.76A1.778,1.778,0,0,1,57-3.86a1.748,1.748,0,0,1-.73,1.47,3.127,3.127,0,0,1-1.93.55,4.079,4.079,0,0,1-2.41-.74A4.408,4.408,0,0,1,50.36-4.7l-2,.84A5.852,5.852,0,0,0,49.6-1.74,6.039,6.039,0,0,0,51.63-.29,6.343,6.343,0,0,0,54.24.24Zm7.5-12.54H64v-2.6H61.74Zm0,12.3H64V-10.82H61.74Zm9.58.12a5.344,5.344,0,0,0,.62-.04q.34-.04.6-.08V-1.94a4.742,4.742,0,0,1-.74.06,1.766,1.766,0,0,1-1.39-.47A1.9,1.9,0,0,1,70-3.64V-8.78h2.46v-2.04H70V-13.3H67.74v.84a1.666,1.666,0,0,1-.42,1.2,1.554,1.554,0,0,1-1.18.44h-.3v2.04h1.9v5.24a3.7,3.7,0,0,0,.94,2.7A3.526,3.526,0,0,0,71.32.12Zm8.1.12a5.386,5.386,0,0,0,2.89-.76,4.219,4.219,0,0,0,1.73-1.92l-1.84-.9a3.391,3.391,0,0,1-1.09,1.13,2.991,2.991,0,0,1-1.67.45,3.144,3.144,0,0,1-2.18-.81,3.121,3.121,0,0,1-1-2.19H84.3a3.037,3.037,0,0,0,.08-.52q.02-.28.02-.54a5.6,5.6,0,0,0-.61-2.59,4.873,4.873,0,0,0-1.76-1.92,5.1,5.1,0,0,0-2.79-.73,5.181,5.181,0,0,0-2.73.73,5.248,5.248,0,0,0-1.91,2,5.887,5.887,0,0,0-.7,2.89,5.893,5.893,0,0,0,.71,2.89A5.36,5.36,0,0,0,76.56-.51,5.417,5.417,0,0,0,79.42.24Zm-.18-9.4a2.725,2.725,0,0,1,1.92.72A2.636,2.636,0,0,1,82-6.56H76.3a3.012,3.012,0,0,1,1.02-1.92A2.916,2.916,0,0,1,79.24-9.16Z"
      transform="translate(130.64 341.95)"
      fill="#4d4d4d"
    />
    <path
      id="Path_657"
      data-name="Path 657"
      d="M1.76,0h1.6V-11.82L8.32-4.6H8.4l4.96-7.18V0h1.6V-14.9h-1.4L8.36-7.34,3.16-14.9H1.76Zm19.6.24a4.939,4.939,0,0,0,2.24-.5,3.83,3.83,0,0,0,1.52-1.28V0h1.5V-7.36a3.435,3.435,0,0,0-.51-1.87,3.5,3.5,0,0,0-1.42-1.27,4.571,4.571,0,0,0-2.09-.46,4.718,4.718,0,0,0-1.74.33,5.143,5.143,0,0,0-1.49.89,3.517,3.517,0,0,0-.95,1.24l1.36.74a3.018,3.018,0,0,1,1.1-1.27,3.043,3.043,0,0,1,1.72-.49,2.7,2.7,0,0,1,1.82.6,1.958,1.958,0,0,1,.7,1.56v.56l-3.88.64a4.332,4.332,0,0,0-2.6,1.22,3.142,3.142,0,0,0-.82,2.16,2.718,2.718,0,0,0,.46,1.56A3.151,3.151,0,0,0,19.54-.15,4.1,4.1,0,0,0,21.36.24ZM19.42-2.84a1.8,1.8,0,0,1,.51-1.28,2.934,2.934,0,0,1,1.67-.74l3.52-.58v.8a3.507,3.507,0,0,1-.46,1.78,3.393,3.393,0,0,1-1.28,1.27,3.794,3.794,0,0,1-1.92.47,2.148,2.148,0,0,1-1.47-.5A1.563,1.563,0,0,1,19.42-2.84ZM29.7,0h1.5V-6.38A3.1,3.1,0,0,1,32-8.64a2.7,2.7,0,0,1,2.02-.82,2.647,2.647,0,0,1,2.01.81,3.163,3.163,0,0,1,.77,2.27V0h1.5V-6.96a4,4,0,0,0-.53-2.05,3.85,3.85,0,0,0-1.44-1.43,4.058,4.058,0,0,0-2.05-.52,3.813,3.813,0,0,0-1.8.42A3.417,3.417,0,0,0,31.2-9.4v-1.32H29.7ZM44.26.24a4.939,4.939,0,0,0,2.24-.5,3.83,3.83,0,0,0,1.52-1.28V0h1.5V-7.36a3.435,3.435,0,0,0-.51-1.87,3.5,3.5,0,0,0-1.42-1.27,4.571,4.571,0,0,0-2.09-.46,4.718,4.718,0,0,0-1.74.33,5.143,5.143,0,0,0-1.49.89,3.517,3.517,0,0,0-.95,1.24l1.36.74a3.018,3.018,0,0,1,1.1-1.27,3.043,3.043,0,0,1,1.72-.49,2.7,2.7,0,0,1,1.82.6,1.958,1.958,0,0,1,.7,1.56v.56l-3.88.64a4.332,4.332,0,0,0-2.6,1.22,3.142,3.142,0,0,0-.82,2.16,2.718,2.718,0,0,0,.46,1.56A3.151,3.151,0,0,0,42.44-.15,4.1,4.1,0,0,0,44.26.24ZM42.32-2.84a1.8,1.8,0,0,1,.51-1.28,2.934,2.934,0,0,1,1.67-.74l3.52-.58v.8a3.507,3.507,0,0,1-.46,1.78,3.393,3.393,0,0,1-1.28,1.27,3.794,3.794,0,0,1-1.92.47,2.148,2.148,0,0,1-1.47-.5A1.563,1.563,0,0,1,42.32-2.84ZM57.68,4.4a5.384,5.384,0,0,0,2.63-.63,4.655,4.655,0,0,0,1.8-1.72,4.729,4.729,0,0,0,.65-2.47v-10.3h-1.5V-9.1a4.54,4.54,0,0,0-1.64-1.36,4.806,4.806,0,0,0-2.18-.5,5.131,5.131,0,0,0-2.71.72A5.249,5.249,0,0,0,52.85-8.3a5.468,5.468,0,0,0-.69,2.74,5.483,5.483,0,0,0,.69,2.73A5.2,5.2,0,0,0,54.74-.88a5.146,5.146,0,0,0,2.7.72,4.774,4.774,0,0,0,2.2-.52,4.083,4.083,0,0,0,1.62-1.46V-.42a3.176,3.176,0,0,1-.5,1.82,3.172,3.172,0,0,1-1.32,1.12,4.229,4.229,0,0,1-1.8.38,3.647,3.647,0,0,1-2.1-.56A3.044,3.044,0,0,1,54.4,1.02l-1.38.74a4.356,4.356,0,0,0,1.77,1.9A5.5,5.5,0,0,0,57.68,4.4Zm-.16-6.06a3.572,3.572,0,0,1-1.93-.53,3.809,3.809,0,0,1-1.34-1.42,3.976,3.976,0,0,1-.49-1.95,3.96,3.96,0,0,1,.49-1.96A3.8,3.8,0,0,1,55.6-8.93a3.586,3.586,0,0,1,1.92-.53,3.45,3.45,0,0,1,1.88.53,4,4,0,0,1,1.35,1.42,3.854,3.854,0,0,1,.51,1.95,3.854,3.854,0,0,1-.51,1.95A4,4,0,0,1,59.4-2.19,3.45,3.45,0,0,1,57.52-1.66ZM70.72.24a5.289,5.289,0,0,0,2.01-.37,5.137,5.137,0,0,0,1.57-.98,4.064,4.064,0,0,0,.98-1.33L74-3.12a4.5,4.5,0,0,1-1.3,1.4,3.368,3.368,0,0,1-1.98.56,3.69,3.69,0,0,1-1.8-.46,3.734,3.734,0,0,1-1.37-1.29,3.876,3.876,0,0,1-.57-1.99h8.44q.04-.26.06-.51t.02-.45a5.3,5.3,0,0,0-.34-1.87,5.26,5.26,0,0,0-.98-1.64,4.712,4.712,0,0,0-1.55-1.16,4.789,4.789,0,0,0-2.07-.43,4.917,4.917,0,0,0-2.63.72,5.161,5.161,0,0,0-1.85,1.97A5.91,5.91,0,0,0,65.4-5.4a5.944,5.944,0,0,0,.7,2.9A5.228,5.228,0,0,0,68.01-.49,5.144,5.144,0,0,0,70.72.24Zm-.16-9.8a3.319,3.319,0,0,1,1.65.42,3.256,3.256,0,0,1,1.2,1.15,3.289,3.289,0,0,1,.47,1.69H67.02a3.747,3.747,0,0,1,.63-1.73,3.552,3.552,0,0,1,1.27-1.13A3.468,3.468,0,0,1,70.56-9.56ZM81.76,4.4a3.527,3.527,0,0,0,1.8-.43,3.837,3.837,0,0,0,1.23-1.13,7.613,7.613,0,0,0,.81-1.48l4.9-12.08H88.84l-3.5,8.84-3.5-8.84H80.22L84.5,0l-.38.92A4.064,4.064,0,0,1,83.1,2.49a2.378,2.378,0,0,1-1.5.41,3.95,3.95,0,0,1-.63-.05q-.31-.05-.51-.07v1.4a3.221,3.221,0,0,0,.65.17A4.335,4.335,0,0,0,81.76,4.4ZM96.88.24a5.3,5.3,0,0,0,2.73-.72,5.424,5.424,0,0,0,1.97-1.99,5.673,5.673,0,0,0,.74-2.91,5.764,5.764,0,0,0-.71-2.88,5.221,5.221,0,0,0-1.94-1.98,5.419,5.419,0,0,0-2.79-.72,5.361,5.361,0,0,0-2.79.73,5.371,5.371,0,0,0-1.95,1.99,5.661,5.661,0,0,0-.72,2.86,5.694,5.694,0,0,0,.73,2.89,5.4,5.4,0,0,0,1.97,2A5.339,5.339,0,0,0,96.88.24Zm0-1.5a3.622,3.622,0,0,1-1.95-.54,3.962,3.962,0,0,1-1.39-1.48,4.265,4.265,0,0,1-.52-2.1,4.153,4.153,0,0,1,.52-2.08,4.006,4.006,0,0,1,1.39-1.46,3.622,3.622,0,0,1,1.95-.54,3.622,3.622,0,0,1,1.95.54,3.926,3.926,0,0,1,1.38,1.46,4.217,4.217,0,0,1,.51,2.08,4.331,4.331,0,0,1-.51,2.1A3.886,3.886,0,0,1,98.83-1.8,3.622,3.622,0,0,1,96.88-1.26ZM108.76.24a3.813,3.813,0,0,0,1.8-.42,3.417,3.417,0,0,0,1.28-1.14V0h1.5V-10.72h-1.5v6.38a3.122,3.122,0,0,1-.79,2.26,2.7,2.7,0,0,1-2.03.82,2.689,2.689,0,0,1-2-.79,2.845,2.845,0,0,1-.78-2.09v-6.58h-1.5v6.76a4.419,4.419,0,0,0,.53,2.19,3.821,3.821,0,0,0,1.45,1.48A4.013,4.013,0,0,0,108.76.24ZM116.42,0h1.5V-6.6a2.806,2.806,0,0,1,.7-2.04,2.476,2.476,0,0,1,1.86-.72h.94v-1.5h-.68a3.88,3.88,0,0,0-1.69.34,2.79,2.79,0,0,0-1.13.96v-1.16h-1.5Zm15,.24a5.026,5.026,0,0,0,2.28-.52,4.051,4.051,0,0,0,1.64-1.46V0h1.5V-15.14h-1.5V-9.1a4.723,4.723,0,0,0-1.66-1.36,4.984,4.984,0,0,0-2.26-.5,5.077,5.077,0,0,0-2.71.73,5.242,5.242,0,0,0-1.88,1.99,5.9,5.9,0,0,0-.69,2.88,5.913,5.913,0,0,0,.69,2.87,5.2,5.2,0,0,0,1.89,2A5.092,5.092,0,0,0,131.42.24Zm.08-1.5a3.522,3.522,0,0,1-1.93-.54,3.807,3.807,0,0,1-1.34-1.47,4.414,4.414,0,0,1-.49-2.09,4.4,4.4,0,0,1,.49-2.1,3.8,3.8,0,0,1,1.35-1.46,3.537,3.537,0,0,1,1.92-.54,3.622,3.622,0,0,1,1.95.54,3.905,3.905,0,0,1,1.38,1.47,4.274,4.274,0,0,1,.51,2.09,4.274,4.274,0,0,1-.51,2.09,3.905,3.905,0,0,1-1.38,1.47A3.622,3.622,0,0,1,131.5-1.26ZM144.8.24a5.289,5.289,0,0,0,2.01-.37,5.137,5.137,0,0,0,1.57-.98,4.064,4.064,0,0,0,.98-1.33l-1.28-.68a4.5,4.5,0,0,1-1.3,1.4,3.368,3.368,0,0,1-1.98.56,3.69,3.69,0,0,1-1.8-.46,3.734,3.734,0,0,1-1.37-1.29,3.876,3.876,0,0,1-.57-1.99h8.44q.04-.26.06-.51t.02-.45a5.3,5.3,0,0,0-.34-1.87,5.26,5.26,0,0,0-.98-1.64,4.712,4.712,0,0,0-1.55-1.16,4.789,4.789,0,0,0-2.07-.43,4.917,4.917,0,0,0-2.63.72,5.161,5.161,0,0,0-1.85,1.97,5.91,5.91,0,0,0-.68,2.87,5.944,5.944,0,0,0,.7,2.9,5.228,5.228,0,0,0,1.91,2.01A5.144,5.144,0,0,0,144.8.24Zm-.16-9.8a3.319,3.319,0,0,1,1.65.42,3.256,3.256,0,0,1,1.2,1.15,3.289,3.289,0,0,1,.47,1.69H141.1a3.747,3.747,0,0,1,.63-1.73A3.552,3.552,0,0,1,143-9.16,3.468,3.468,0,0,1,144.64-9.56ZM154.68,0h1.5l4.22-10.72h-1.7l-3.26,8.68-3.26-8.68H150.5Zm7.48-12.7h1.5v-2.2h-1.5Zm0,12.7h1.5V-10.72h-1.5Zm9.48.24a4.917,4.917,0,0,0,1.88-.36,5.237,5.237,0,0,0,1.56-.98,4.11,4.11,0,0,0,1.02-1.4l-1.36-.74a3.447,3.447,0,0,1-1.23,1.44,3.292,3.292,0,0,1-1.87.54,3.487,3.487,0,0,1-1.91-.54,3.807,3.807,0,0,1-1.34-1.47,4.414,4.414,0,0,1-.49-2.09,4.457,4.457,0,0,1,.49-2.11,3.732,3.732,0,0,1,1.34-1.46,3.536,3.536,0,0,1,1.91-.53,3.34,3.34,0,0,1,1.88.54,3.338,3.338,0,0,1,1.22,1.4l1.36-.7a3.962,3.962,0,0,0-1.02-1.41,5.347,5.347,0,0,0-1.56-.97,4.917,4.917,0,0,0-1.88-.36,5.242,5.242,0,0,0-2.78.73,5.143,5.143,0,0,0-1.88,1.99,5.925,5.925,0,0,0-.68,2.86,5.984,5.984,0,0,0,.68,2.87A5.2,5.2,0,0,0,168.86-.5,5.188,5.188,0,0,0,171.64.24Zm11.98,0a5.289,5.289,0,0,0,2.01-.37,5.137,5.137,0,0,0,1.57-.98,4.064,4.064,0,0,0,.98-1.33l-1.28-.68a4.5,4.5,0,0,1-1.3,1.4,3.368,3.368,0,0,1-1.98.56,3.69,3.69,0,0,1-1.8-.46,3.734,3.734,0,0,1-1.37-1.29,3.876,3.876,0,0,1-.57-1.99h8.44q.04-.26.06-.51t.02-.45a5.3,5.3,0,0,0-.34-1.87,5.26,5.26,0,0,0-.98-1.64,4.712,4.712,0,0,0-1.55-1.16,4.789,4.789,0,0,0-2.07-.43,4.917,4.917,0,0,0-2.63.72,5.161,5.161,0,0,0-1.85,1.97,5.91,5.91,0,0,0-.68,2.87,5.944,5.944,0,0,0,.7,2.9,5.228,5.228,0,0,0,1.91,2.01A5.144,5.144,0,0,0,183.62.24Zm-.16-9.8a3.319,3.319,0,0,1,1.65.42,3.256,3.256,0,0,1,1.2,1.15,3.289,3.289,0,0,1,.47,1.69h-6.86a3.747,3.747,0,0,1,.63-1.73,3.552,3.552,0,0,1,1.27-1.13A3.468,3.468,0,0,1,183.46-9.56Zm11.3,9.8a4.749,4.749,0,0,0,1.98-.39,3.235,3.235,0,0,0,1.35-1.09,2.689,2.689,0,0,0,.49-1.58,2.7,2.7,0,0,0-.73-1.88,4.31,4.31,0,0,0-2.03-1.18l-1.78-.52a5.441,5.441,0,0,1-.65-.24,1.814,1.814,0,0,1-.65-.48,1.26,1.26,0,0,1-.28-.86A1.459,1.459,0,0,1,193-9.14a2.146,2.146,0,0,1,1.44-.46,2.9,2.9,0,0,1,1.67.51,3.26,3.26,0,0,1,1.15,1.41l1.28-.6a3.834,3.834,0,0,0-1.57-1.97,4.489,4.489,0,0,0-2.47-.71,4.277,4.277,0,0,0-1.82.38,3.139,3.139,0,0,0-1.3,1.08,2.829,2.829,0,0,0-.48,1.64,2.6,2.6,0,0,0,.66,1.76,4.338,4.338,0,0,0,2.14,1.18l1.54.44a5,5,0,0,1,.74.26,2.263,2.263,0,0,1,.74.51,1.224,1.224,0,0,1,.32.89,1.445,1.445,0,0,1-.66,1.23,2.721,2.721,0,0,1-1.62.47,3.125,3.125,0,0,1-1.83-.58,3.86,3.86,0,0,1-1.29-1.56l-1.26.6a4.413,4.413,0,0,0,1.68,2.12A4.724,4.724,0,0,0,194.76.24Z"
      transform="translate(130.64 367.83)"
      fill="#666"
    />
    <path
      id="Path_656"
      data-name="Path 656"
      d="M4.64.24a4.939,4.939,0,0,0,2.24-.5A3.83,3.83,0,0,0,8.4-1.54V0H9.9V-7.36a3.435,3.435,0,0,0-.51-1.87A3.5,3.5,0,0,0,7.97-10.5a4.571,4.571,0,0,0-2.09-.46,4.718,4.718,0,0,0-1.74.33,5.143,5.143,0,0,0-1.49.89A3.517,3.517,0,0,0,1.7-8.5l1.36.74a3.018,3.018,0,0,1,1.1-1.27,3.043,3.043,0,0,1,1.72-.49,2.7,2.7,0,0,1,1.82.6,1.958,1.958,0,0,1,.7,1.56v.56l-3.88.64a4.332,4.332,0,0,0-2.6,1.22A3.142,3.142,0,0,0,1.1-2.78a2.718,2.718,0,0,0,.46,1.56A3.151,3.151,0,0,0,2.82-.15,4.1,4.1,0,0,0,4.64.24ZM2.7-2.84a1.8,1.8,0,0,1,.51-1.28,2.934,2.934,0,0,1,1.67-.74L8.4-5.44v.8a3.507,3.507,0,0,1-.46,1.78A3.393,3.393,0,0,1,6.66-1.59a3.794,3.794,0,0,1-1.92.47,2.148,2.148,0,0,1-1.47-.5A1.563,1.563,0,0,1,2.7-2.84ZM12.98,0h1.5V-15.14h-1.5Zm9.46.24a5.289,5.289,0,0,0,2.01-.37,5.137,5.137,0,0,0,1.57-.98A4.064,4.064,0,0,0,27-2.44l-1.28-.68a4.5,4.5,0,0,1-1.3,1.4,3.368,3.368,0,0,1-1.98.56,3.69,3.69,0,0,1-1.8-.46,3.734,3.734,0,0,1-1.37-1.29A3.876,3.876,0,0,1,18.7-4.9h8.44q.04-.26.06-.51t.02-.45a5.3,5.3,0,0,0-.34-1.87,5.26,5.26,0,0,0-.98-1.64,4.712,4.712,0,0,0-1.55-1.16,4.789,4.789,0,0,0-2.07-.43,4.917,4.917,0,0,0-2.63.72A5.161,5.161,0,0,0,17.8-8.27a5.91,5.91,0,0,0-.68,2.87,5.944,5.944,0,0,0,.7,2.9A5.228,5.228,0,0,0,19.73-.49,5.144,5.144,0,0,0,22.44.24Zm-.16-9.8a3.319,3.319,0,0,1,1.65.42,3.256,3.256,0,0,1,1.2,1.15A3.289,3.289,0,0,1,25.6-6.3H18.74a3.747,3.747,0,0,1,.63-1.73,3.552,3.552,0,0,1,1.27-1.13A3.468,3.468,0,0,1,22.28-9.56ZM28.14,0H30l2.8-4.08L35.6,0h1.84L33.7-5.36l3.74-5.36H35.6L32.8-6.64,30-10.72H28.16L31.9-5.36ZM39.72,0h1.6V-2.2h-1.6Zm8.92.24a4.749,4.749,0,0,0,1.98-.39,3.235,3.235,0,0,0,1.35-1.09,2.69,2.69,0,0,0,.49-1.58,2.7,2.7,0,0,0-.73-1.88A4.31,4.31,0,0,0,49.7-5.88L47.92-6.4a5.441,5.441,0,0,1-.65-.24,1.814,1.814,0,0,1-.65-.48,1.26,1.26,0,0,1-.28-.86,1.459,1.459,0,0,1,.54-1.16,2.146,2.146,0,0,1,1.44-.46,2.9,2.9,0,0,1,1.67.51,3.26,3.26,0,0,1,1.15,1.41l1.28-.6a3.834,3.834,0,0,0-1.57-1.97,4.489,4.489,0,0,0-2.47-.71,4.277,4.277,0,0,0-1.82.38,3.139,3.139,0,0,0-1.3,1.08,2.829,2.829,0,0,0-.48,1.64,2.6,2.6,0,0,0,.66,1.76,4.338,4.338,0,0,0,2.14,1.18l1.54.44a5,5,0,0,1,.74.26,2.263,2.263,0,0,1,.74.51,1.224,1.224,0,0,1,.32.89,1.445,1.445,0,0,1-.66,1.23,2.721,2.721,0,0,1-1.62.47,3.125,3.125,0,0,1-1.83-.58,3.86,3.86,0,0,1-1.29-1.56l-1.26.6A4.413,4.413,0,0,0,45.94-.54,4.724,4.724,0,0,0,48.64.24ZM55.1,0h1.5V-15.14H55.1Zm7.68.24a4.939,4.939,0,0,0,2.24-.5,3.83,3.83,0,0,0,1.52-1.28V0h1.5V-7.36a3.435,3.435,0,0,0-.51-1.87,3.5,3.5,0,0,0-1.42-1.27,4.571,4.571,0,0,0-2.09-.46,4.718,4.718,0,0,0-1.74.33,5.143,5.143,0,0,0-1.49.89,3.517,3.517,0,0,0-.95,1.24l1.36.74a3.018,3.018,0,0,1,1.1-1.27,3.043,3.043,0,0,1,1.72-.49,2.7,2.7,0,0,1,1.82.6,1.958,1.958,0,0,1,.7,1.56v.56l-3.88.64a4.332,4.332,0,0,0-2.6,1.22,3.142,3.142,0,0,0-.82,2.16,2.718,2.718,0,0,0,.46,1.56A3.151,3.151,0,0,0,60.96-.15,4.1,4.1,0,0,0,62.78.24ZM60.84-2.84a1.8,1.8,0,0,1,.51-1.28,2.934,2.934,0,0,1,1.67-.74l3.52-.58v.8a3.507,3.507,0,0,1-.46,1.78A3.393,3.393,0,0,1,64.8-1.59a3.794,3.794,0,0,1-1.92.47,2.148,2.148,0,0,1-1.47-.5A1.563,1.563,0,0,1,60.84-2.84ZM74.82.12q.18,0,.48-.03A3.793,3.793,0,0,0,75.84,0V-1.34q-.16.02-.38.04t-.38.02A1.605,1.605,0,0,1,73.7-1.8a2.179,2.179,0,0,1-.38-1.32v-6.1h2.36v-1.5H73.32V-13.2h-1.5v.9a1.638,1.638,0,0,1-.4,1.13,1.372,1.372,0,0,1-1.08.45h-.5v1.5h1.98v6.1a3.4,3.4,0,0,0,.78,2.4A2.88,2.88,0,0,0,74.82.12Zm7.74.12a5.289,5.289,0,0,0,2.01-.37,5.137,5.137,0,0,0,1.57-.98,4.064,4.064,0,0,0,.98-1.33l-1.28-.68a4.5,4.5,0,0,1-1.3,1.4,3.368,3.368,0,0,1-1.98.56,3.69,3.69,0,0,1-1.8-.46,3.734,3.734,0,0,1-1.37-1.29,3.876,3.876,0,0,1-.57-1.99h8.44q.04-.26.06-.51t.02-.45A5.3,5.3,0,0,0,87-7.73a5.26,5.26,0,0,0-.98-1.64,4.712,4.712,0,0,0-1.55-1.16,4.789,4.789,0,0,0-2.07-.43,4.917,4.917,0,0,0-2.63.72,5.161,5.161,0,0,0-1.85,1.97,5.91,5.91,0,0,0-.68,2.87,5.944,5.944,0,0,0,.7,2.9A5.228,5.228,0,0,0,79.85-.49,5.144,5.144,0,0,0,82.56.24Zm-.16-9.8a3.319,3.319,0,0,1,1.65.42,3.256,3.256,0,0,1,1.2,1.15,3.289,3.289,0,0,1,.47,1.69H78.86a3.747,3.747,0,0,1,.63-1.73,3.552,3.552,0,0,1,1.27-1.13A3.468,3.468,0,0,1,82.4-9.56ZM98.08,4.14a7.876,7.876,0,0,0,3.94-.96l-.64-1.2a6.728,6.728,0,0,1-3.26.76,7.038,7.038,0,0,1-2.8-.54A6.529,6.529,0,0,1,93.15.71a6.661,6.661,0,0,1-1.4-2.2,7.3,7.3,0,0,1-.49-2.69,7.083,7.083,0,0,1,.51-2.72A6.535,6.535,0,0,1,93.2-9.06a6.51,6.51,0,0,1,2.17-1.43A7.105,7.105,0,0,1,98.08-11a7.017,7.017,0,0,1,2.74.52,6.441,6.441,0,0,1,2.14,1.44,6.563,6.563,0,0,1,1.4,2.16,7.1,7.1,0,0,1,.5,2.68,3.8,3.8,0,0,1-.47,2.1,1.492,1.492,0,0,1-1.31.7,1.183,1.183,0,0,1-.89-.34,1.506,1.506,0,0,1-.33-1.08V-8.34h-1.3v1.12a3.42,3.42,0,0,0-1.27-.97,3.988,3.988,0,0,0-1.67-.35,3.919,3.919,0,0,0-2.09.57,4.151,4.151,0,0,0-1.47,1.53,4.369,4.369,0,0,0-.54,2.18,4.369,4.369,0,0,0,.54,2.18A4.073,4.073,0,0,0,95.53-.56,3.972,3.972,0,0,0,97.62,0a3.941,3.941,0,0,0,1.69-.36,3.061,3.061,0,0,0,1.25-1.06,2.339,2.339,0,0,0,1.01,1.04,3.039,3.039,0,0,0,1.49.38,2.847,2.847,0,0,0,2.43-1.18,5.028,5.028,0,0,0,.87-3.06,7.859,7.859,0,0,0-.61-3.06,8.381,8.381,0,0,0-1.72-2.61,8.222,8.222,0,0,0-2.63-1.82,8.14,8.14,0,0,0-3.32-.67,8.429,8.429,0,0,0-3.26.63,8.161,8.161,0,0,0-2.65,1.75A8.156,8.156,0,0,0,90.4-7.4a8.169,8.169,0,0,0-.64,3.24,8.355,8.355,0,0,0,.63,3.25,8.144,8.144,0,0,0,1.77,2.65,8.143,8.143,0,0,0,2.65,1.77A8.407,8.407,0,0,0,98.08,4.14Zm-.4-5.54a2.488,2.488,0,0,1-1.36-.38,2.722,2.722,0,0,1-.95-1.03,3.009,3.009,0,0,1-.35-1.45,2.864,2.864,0,0,1,.75-2.04,2.5,2.5,0,0,1,1.91-.8,2.551,2.551,0,0,1,1.92.79,2.807,2.807,0,0,1,.76,2.03,3.051,3.051,0,0,1-.35,1.47,2.722,2.722,0,0,1-.95,1.03A2.524,2.524,0,0,1,97.68-1.4ZM110.92,0h1.5L115-8.48,117.56,0h1.5l3.68-10.72h-1.68L118.32-2.3l-2.58-8.42h-1.5L111.68-2.3l-2.74-8.42h-1.7ZM124.5-12.7H126v-2.2h-1.5Zm0,12.7H126V-10.72h-1.5Zm4.58,0h1.5V-6.6a2.806,2.806,0,0,1,.7-2.04,2.476,2.476,0,0,1,1.86-.72h.94v-1.5h-.68a3.88,3.88,0,0,0-1.69.34,2.79,2.79,0,0,0-1.13.96v-1.16h-1.5Zm11.64.24a5.289,5.289,0,0,0,2.01-.37,5.137,5.137,0,0,0,1.57-.98,4.064,4.064,0,0,0,.98-1.33L144-3.12a4.5,4.5,0,0,1-1.3,1.4,3.368,3.368,0,0,1-1.98.56,3.69,3.69,0,0,1-1.8-.46,3.734,3.734,0,0,1-1.37-1.29,3.876,3.876,0,0,1-.57-1.99h8.44q.04-.26.06-.51t.02-.45a5.3,5.3,0,0,0-.34-1.87,5.26,5.26,0,0,0-.98-1.64,4.712,4.712,0,0,0-1.55-1.16,4.789,4.789,0,0,0-2.07-.43,4.917,4.917,0,0,0-2.63.72,5.161,5.161,0,0,0-1.85,1.97,5.91,5.91,0,0,0-.68,2.87,5.944,5.944,0,0,0,.7,2.9,5.228,5.228,0,0,0,1.91,2.01A5.144,5.144,0,0,0,140.72.24Zm-.16-9.8a3.319,3.319,0,0,1,1.65.42,3.256,3.256,0,0,1,1.2,1.15,3.289,3.289,0,0,1,.47,1.69h-6.86a3.747,3.747,0,0,1,.63-1.73,3.552,3.552,0,0,1,1.27-1.13A3.468,3.468,0,0,1,140.56-9.56ZM150.5,0H152l2.58-8.48L157.14,0h1.5l3.68-10.72h-1.68L157.9-2.3l-2.58-8.42h-1.5L151.26-2.3l-2.74-8.42h-1.7Zm13.58-12.7h1.5v-2.2h-1.5Zm0,12.7h1.5V-10.72h-1.5Zm8.3.24a4.749,4.749,0,0,0,1.98-.39,3.235,3.235,0,0,0,1.35-1.09,2.689,2.689,0,0,0,.49-1.58,2.7,2.7,0,0,0-.73-1.88,4.31,4.31,0,0,0-2.03-1.18l-1.78-.52a5.441,5.441,0,0,1-.65-.24,1.814,1.814,0,0,1-.65-.48,1.26,1.26,0,0,1-.28-.86,1.459,1.459,0,0,1,.54-1.16,2.146,2.146,0,0,1,1.44-.46,2.9,2.9,0,0,1,1.67.51,3.26,3.26,0,0,1,1.15,1.41l1.28-.6a3.834,3.834,0,0,0-1.57-1.97,4.489,4.489,0,0,0-2.47-.71,4.276,4.276,0,0,0-1.82.38A3.139,3.139,0,0,0,169-9.5a2.829,2.829,0,0,0-.48,1.64,2.6,2.6,0,0,0,.66,1.76,4.338,4.338,0,0,0,2.14,1.18l1.54.44a5,5,0,0,1,.74.26,2.263,2.263,0,0,1,.74.51,1.224,1.224,0,0,1,.32.89A1.445,1.445,0,0,1,174-1.59a2.721,2.721,0,0,1-1.62.47,3.125,3.125,0,0,1-1.83-.58,3.86,3.86,0,0,1-1.29-1.56l-1.26.6a4.413,4.413,0,0,0,1.68,2.12A4.724,4.724,0,0,0,172.38.24Zm11.34,0a5.289,5.289,0,0,0,2.01-.37,5.137,5.137,0,0,0,1.57-.98,4.064,4.064,0,0,0,.98-1.33L187-3.12a4.5,4.5,0,0,1-1.3,1.4,3.368,3.368,0,0,1-1.98.56,3.69,3.69,0,0,1-1.8-.46,3.734,3.734,0,0,1-1.37-1.29,3.876,3.876,0,0,1-.57-1.99h8.44q.04-.26.06-.51t.02-.45a5.3,5.3,0,0,0-.34-1.87,5.26,5.26,0,0,0-.98-1.64,4.712,4.712,0,0,0-1.55-1.16,4.789,4.789,0,0,0-2.07-.43,4.917,4.917,0,0,0-2.63.72,5.161,5.161,0,0,0-1.85,1.97,5.91,5.91,0,0,0-.68,2.87,5.944,5.944,0,0,0,.7,2.9,5.228,5.228,0,0,0,1.91,2.01A5.144,5.144,0,0,0,183.72.24Zm-.16-9.8a3.319,3.319,0,0,1,1.65.42,3.256,3.256,0,0,1,1.2,1.15,3.289,3.289,0,0,1,.47,1.69h-6.86a3.747,3.747,0,0,1,.63-1.73,3.552,3.552,0,0,1,1.27-1.13A3.468,3.468,0,0,1,183.56-9.56ZM191.66,0h1.6V-2.2h-1.6Zm10.1.24a4.917,4.917,0,0,0,1.88-.36,5.237,5.237,0,0,0,1.56-.98,4.11,4.11,0,0,0,1.02-1.4l-1.36-.74a3.448,3.448,0,0,1-1.23,1.44,3.292,3.292,0,0,1-1.87.54,3.487,3.487,0,0,1-1.91-.54,3.807,3.807,0,0,1-1.34-1.47,4.414,4.414,0,0,1-.49-2.09,4.457,4.457,0,0,1,.49-2.11,3.732,3.732,0,0,1,1.34-1.46,3.536,3.536,0,0,1,1.91-.53,3.34,3.34,0,0,1,1.88.54,3.338,3.338,0,0,1,1.22,1.4l1.36-.7a3.962,3.962,0,0,0-1.02-1.41,5.347,5.347,0,0,0-1.56-.97,4.917,4.917,0,0,0-1.88-.36,5.242,5.242,0,0,0-2.78.73,5.143,5.143,0,0,0-1.88,1.99,5.925,5.925,0,0,0-.68,2.86,5.984,5.984,0,0,0,.68,2.87A5.2,5.2,0,0,0,198.98-.5,5.188,5.188,0,0,0,201.76.24Zm12.12,0a5.3,5.3,0,0,0,2.73-.72,5.424,5.424,0,0,0,1.97-1.99,5.673,5.673,0,0,0,.74-2.91,5.765,5.765,0,0,0-.71-2.88,5.221,5.221,0,0,0-1.94-1.98,5.419,5.419,0,0,0-2.79-.72,5.361,5.361,0,0,0-2.79.73,5.371,5.371,0,0,0-1.95,1.99,5.661,5.661,0,0,0-.72,2.86,5.694,5.694,0,0,0,.73,2.89,5.4,5.4,0,0,0,1.97,2A5.339,5.339,0,0,0,213.88.24Zm0-1.5a3.622,3.622,0,0,1-1.95-.54,3.962,3.962,0,0,1-1.39-1.48,4.265,4.265,0,0,1-.52-2.1,4.153,4.153,0,0,1,.52-2.08,4.006,4.006,0,0,1,1.39-1.46,3.622,3.622,0,0,1,1.95-.54,3.622,3.622,0,0,1,1.95.54,3.926,3.926,0,0,1,1.38,1.46,4.217,4.217,0,0,1,.51,2.08,4.331,4.331,0,0,1-.51,2.1,3.886,3.886,0,0,1-1.38,1.48A3.622,3.622,0,0,1,213.88-1.26ZM221.96,0h1.5V-6.38a3.146,3.146,0,0,1,.78-2.26,2.568,2.568,0,0,1,1.94-.82,2.52,2.52,0,0,1,1.92.81,3.189,3.189,0,0,1,.76,2.27V0h1.5V-6.38a3.146,3.146,0,0,1,.78-2.26,2.568,2.568,0,0,1,1.94-.82,2.52,2.52,0,0,1,1.92.81,3.189,3.189,0,0,1,.76,2.27V0h1.5V-6.96a3.885,3.885,0,0,0-.55-2.05,4,4,0,0,0-1.46-1.43,3.942,3.942,0,0,0-1.99-.52,3.941,3.941,0,0,0-1.99.52,3.387,3.387,0,0,0-1.39,1.52,3.877,3.877,0,0,0-1.42-1.48,3.811,3.811,0,0,0-2.02-.56,3.657,3.657,0,0,0-1.71.41,3.3,3.3,0,0,0-1.27,1.15v-1.32h-1.5Z"
      transform="translate(233.64 155.04)"
      fill="#666"
    />
    <line
      id="Line_198"
      data-name="Line 198"
      y1="0.01"
      x2="466.42"
      transform="translate(26.27 190.48)"
      fill="none"
      stroke="#e6e6e6"
      stroke-miterlimit="10"
      stroke-width="1"
    />
    <rect
      id="Rectangle_409"
      data-name="Rectangle 409"
      width="144.63"
      height="144.1"
      rx="10"
      transform="translate(26.56 26.93)"
      fill="#f2f2f2"
    />
    <rect
      id="Rectangle_410"
      data-name="Rectangle 410"
      width="84.61"
      height="84.3"
      rx="10"
      transform="translate(26.27 207.98)"
      fill="#f2f2f2"
    />
    <rect
      id="Rectangle_411"
      data-name="Rectangle 411"
      width="84.61"
      height="84.3"
      rx="10"
      transform="translate(26.27 303.67)"
      fill="#f2f2f2"
    />
    <rect
      id="Rectangle_412"
      data-name="Rectangle 412"
      width="150.8"
      height="60.37"
      rx="8"
      transform="translate(28.39 418.08)"
      fill="#3399fe"
    />
    <path
      id="Path_655"
      data-name="Path 655"
      d="M6.76.24A6.623,6.623,0,0,1,2.91-.91,5.609,5.609,0,0,1,.66-3.88l2.16-.98A4.511,4.511,0,0,0,4.4-2.74a3.956,3.956,0,0,0,2.36.76,3.381,3.381,0,0,0,2-.54A1.631,1.631,0,0,0,9.52-3.9q0-1.38-1.8-1.92L4.8-6.72A5.612,5.612,0,0,1,2.06-8.33a3.756,3.756,0,0,1-.92-2.53,3.842,3.842,0,0,1,1.42-3.09,5.567,5.567,0,0,1,3.7-1.19,6.278,6.278,0,0,1,3.6,1.04,5.338,5.338,0,0,1,2.12,2.66l-2.18,1a3.568,3.568,0,0,0-1.32-1.83,3.714,3.714,0,0,0-2.2-.65,3.053,3.053,0,0,0-1.88.54,1.673,1.673,0,0,0-.72,1.4q0,1.4,1.84,1.96l2.82.86q3.72,1.14,3.72,4.08A3.841,3.841,0,0,1,10.6-.95,5.888,5.888,0,0,1,6.76.24ZM13.88-12.2v-2.7h2.4v2.7Zm0,12.2V-10.78h2.4V0ZM26.64-10.78h2.28V-.52a4.535,4.535,0,0,1-1.56,3.56,5.588,5.588,0,0,1-3.84,1.38,5.626,5.626,0,0,1-3.07-.84A4.433,4.433,0,0,1,18.6,1.36L20.68.32A2.774,2.774,0,0,0,21.71,1.7a3.005,3.005,0,0,0,1.79.52,3.168,3.168,0,0,0,2.16-.75,2.51,2.51,0,0,0,.86-1.99V-1.86A4.211,4.211,0,0,1,23.24-.54a5.238,5.238,0,0,1-3.77-1.49A5.007,5.007,0,0,1,17.92-5.8a4.95,4.95,0,0,1,1.54-3.76,5.237,5.237,0,0,1,3.74-1.46,4.137,4.137,0,0,1,3.44,1.54ZM21.28-3.6a3.017,3.017,0,0,0,2.2.84,2.964,2.964,0,0,0,2.19-.85,2.939,2.939,0,0,0,.85-2.17,2.9,2.9,0,0,0-.87-2.17,3.007,3.007,0,0,0-2.19-.85,3,3,0,0,0-2.17.84,2.9,2.9,0,0,0-.87,2.18A2.912,2.912,0,0,0,21.28-3.6Zm15.26-7.42A3.983,3.983,0,0,1,39.47-9.9,3.905,3.905,0,0,1,40.6-7V0H38.2V-6.4a2.415,2.415,0,0,0-.63-1.74,2.177,2.177,0,0,0-1.65-.66,2.219,2.219,0,0,0-1.67.65,2.407,2.407,0,0,0-.63,1.75V0h-2.4V-10.78h2.26v1.3A3.281,3.281,0,0,1,36.54-11.02ZM53.66.24a7.5,7.5,0,0,1-5.5-2.2,7.427,7.427,0,0,1-2.22-5.5,7.412,7.412,0,0,1,2.21-5.49,7.514,7.514,0,0,1,5.51-2.19,7.547,7.547,0,0,1,5.52,2.19A7.394,7.394,0,0,1,61.4-7.46a7.427,7.427,0,0,1-2.22,5.5A7.529,7.529,0,0,1,53.66.24ZM49.94-3.61a4.959,4.959,0,0,0,3.72,1.53,4.959,4.959,0,0,0,3.72-1.53,5.314,5.314,0,0,0,1.48-3.85,5.289,5.289,0,0,0-1.48-3.83,4.959,4.959,0,0,0-3.72-1.53,4.959,4.959,0,0,0-3.72,1.53,5.289,5.289,0,0,0-1.48,3.83A5.314,5.314,0,0,0,49.94-3.61ZM70.2-10.78h2.4V0H70.32V-1.24A3.31,3.31,0,0,1,67.3.24,3.851,3.851,0,0,1,64.37-.98a4.339,4.339,0,0,1-1.15-3.1v-6.7h2.4v6.4a2.407,2.407,0,0,0,.63,1.75,2.219,2.219,0,0,0,1.67.65,2.177,2.177,0,0,0,1.65-.66,2.415,2.415,0,0,0,.63-1.74ZM79.78.12a3.789,3.789,0,0,1-2.8-.98A3.732,3.732,0,0,1,76-3.62v-5H74.04v-2.16h.32a1.659,1.659,0,0,0,1.21-.42A1.6,1.6,0,0,0,76-12.4v-1.72h2.4v3.34h2.56v2.16H78.4v5q0,1.78,1.9,1.78a4.625,4.625,0,0,0,.72-.06V.02A8.031,8.031,0,0,1,79.78.12Z"
      transform="translate(62.06 455.38)"
      fill="#fff"
    />
    <rect
      id="Rectangle_413"
      data-name="Rectangle 413"
      width="29.77"
      height="20.08"
      rx="1"
      transform="translate(197.12 138.89)"
      fill="#3399fe"
    />
    <line
      id="Line_199"
      data-name="Line 199"
      x1="14.69"
      y1="10.43"
      transform="translate(197.07 138.87)"
      fill="none"
      stroke="#fff"
      stroke-linecap="square"
      stroke-miterlimit="10"
      stroke-width="2"
    />
    <line
      id="Line_200"
      data-name="Line 200"
      y1="10.43"
      x2="14.69"
      transform="translate(212.2 138.87)"
      fill="none"
      stroke="#fff"
      stroke-linecap="square"
      stroke-miterlimit="10"
      stroke-width="2"
    />
    <path
      id="Path_533"
      data-name="Path 533"
      d="M682.9,430.4H665.46c-4.82,0-8.72,3.56-8.72,8s3.9,8,8.72,8H682.9c4.81,0,8.71-3.57,8.71-8S687.71,430.4,682.9,430.4Z"
      transform="translate(-605.81 -197.02)"
      fill="#1ac1bc"
    />
    <circle
      id="Ellipse_234"
      data-name="Ellipse 234"
      cx="6.69"
      cy="6.69"
      r="6.69"
      transform="translate(70.51 234.65)"
      fill="#e6e6e6"
    />
    <path
      id="Path_534"
      data-name="Path 534"
      d="M682.9,449.6H665.46c-4.82,0-8.72,3.57-8.72,8s3.9,8,8.72,8H682.9c4.81,0,8.71-3.57,8.71-8S687.71,449.6,682.9,449.6Z"
      transform="translate(-605.81 -197.02)"
      fill="#1ac1bc"
      opacity="0.3"
    />
    <circle
      id="Ellipse_235"
      data-name="Ellipse 235"
      cx="6.69"
      cy="6.69"
      r="6.69"
      transform="translate(52.22 253.85)"
      fill="#e6e6e6"
    />
    <rect
      id="Rectangle_414"
      data-name="Rectangle 414"
      width="33.83"
      height="43"
      rx="4"
      transform="translate(49.8 326.1)"
      fill="#ec5463"
    />
    <g id="Group_3" data-name="Group 3" opacity="0.3">
      <rect
        id="Rectangle_415"
        data-name="Rectangle 415"
        width="33.83"
        height="43"
        rx="4"
        transform="translate(53.68 326.1)"
        fill="#ec5463"
      />
    </g>
    <path
      id="Path_535"
      data-name="Path 535"
      d="M663.93,554.54c0-5.19,3.93-9.4,8.77-9.4s8.78,4.21,8.78,9.4"
      transform="translate(-605.81 -197.02)"
      fill="#e6e6e6"
    />
    <circle
      id="Ellipse_236"
      data-name="Ellipse 236"
      cx="4.73"
      cy="4.73"
      r="4.73"
      transform="translate(62.16 337.35)"
      fill="#e6e6e6"
    />
    <path
      id="Path_654"
      data-name="Path 654"
      d="M.55,0h6.3l2.9-8.35H24.9L27.75,0h6.3L20.95-37.25h-7.3Zm10.9-13.6L17.3-30.7l5.8,17.1ZM50.5.6A15.422,15.422,0,0,0,57.125-.75,10.626,10.626,0,0,0,61.6-4.525a9.8,9.8,0,0,0,1.6-5.525q0-7.35-8.95-10.15l-6.5-2.05a6.949,6.949,0,0,1-3.5-2.1,4.9,4.9,0,0,1-1.15-3.2,4.582,4.582,0,0,1,1.725-3.75A6.877,6.877,0,0,1,49.3-32.7a9.218,9.218,0,0,1,5.4,1.6,9.329,9.329,0,0,1,3.4,4.55L63-28.7a12.427,12.427,0,0,0-2.875-4.75A14.254,14.254,0,0,0,55.4-36.675a15.371,15.371,0,0,0-6.1-1.175,13.841,13.841,0,0,0-6.225,1.35A10.6,10.6,0,0,0,38.8-32.775a9.88,9.88,0,0,0-1.55,5.525,9.577,9.577,0,0,0,2.2,6.275A12.992,12.992,0,0,0,45.85-17l7,2.2a8.055,8.055,0,0,1,3.375,1.9A4.445,4.445,0,0,1,57.4-9.65a4.37,4.37,0,0,1-1.825,3.675A7.818,7.818,0,0,1,50.75-4.6a10.2,10.2,0,0,1-6.025-1.85,11.02,11.02,0,0,1-3.925-5.3l-5,2.1a14.63,14.63,0,0,0,3.1,5.3A15.1,15.1,0,0,0,43.975-.725,15.857,15.857,0,0,0,50.5.6Z"
      transform="translate(65.19 120.68)"
      fill="#b3b3b3"
    />
  </g>
</svg>
