<svg width="360" height="374" viewBox="0 0 360 374" fill="none" xmlns="http://www.w3.org/2000/svg">
<g id="features-hero-main">
<rect id="bg" x="1.5" y="1.5" width="357" height="371" rx="8.5" fill="#F5F5F5" stroke="#101010" stroke-width="3"/>
<g id="Sign-Out-Button">
<rect id="Rectangle 1" x="18.5" y="319.611" width="143" height="38" rx="8.5" fill="#101010" stroke="#101010" stroke-width="3"/>
<text id="Sign Out" fill="#F5F5F5" xml:space="preserve" style="white-space: pre" font-family="Poppins" font-size="14" font-weight="bold" letter-spacing="0em"><tspan x="59.6144" y="343.968">Sign Out</tspan></text>
</g>
<g id="Settings">
<g id="User-Site">
<g id="User-Site-Text">
<text id="User Site" fill="#101010" xml:space="preserve" style="white-space: pre" font-family="Poppins" font-size="14" font-weight="600" letter-spacing="0em"><tspan x="104.111" y="264.4">User Site</tspan></text>
<text id="Manage your devices" fill="#333333" xml:space="preserve" style="white-space: pre" font-family="Noto Sans" font-size="13" letter-spacing="0em"><tspan x="104.111" y="282.044">Manage your devices</tspan></text>
</g>
<g id="User-Site-Image">
<rect id="Rectangle 6" x="28" y="238" width="60.1118" height="60.1118" rx="30.0559" fill="#FDFDFD" stroke="#101010" stroke-width="2"/>
<path id="Vector" d="M67.7 271.333C68.5752 271.333 69.4146 271.702 70.0335 272.358C70.6523 273.015 71 273.905 71 274.833V275.667C71 279.841 66.369 283 60 283C53.631 283 49 280.005 49 275.667V274.833C49 273.905 49.3477 273.015 49.9665 272.358C50.5854 271.702 51.4248 271.333 52.3 271.333H67.7ZM60 255C60.8667 255 61.725 255.181 62.5257 255.533C63.3265 255.885 64.054 256.4 64.6669 257.05C65.2798 257.7 65.7659 258.472 66.0976 259.321C66.4293 260.17 66.6 261.081 66.6 262C66.6 262.919 66.4293 263.83 66.0976 264.679C65.7659 265.528 65.2798 266.3 64.6669 266.95C64.054 267.6 63.3265 268.115 62.5257 268.467C61.725 268.819 60.8667 269 60 269C58.2496 269 56.5708 268.263 55.3331 266.95C54.0954 265.637 53.4 263.857 53.4 262C53.4 260.143 54.0954 258.363 55.3331 257.05C56.5708 255.737 58.2496 255 60 255Z" fill="#101010"/>
<path id="Vector_2" d="M69.2065 270.651C68.4697 269.914 67.4705 269.5 66.4286 269.5H50.4286C49.3866 269.5 48.3874 269.914 47.6507 270.651C46.9139 271.387 46.5 272.387 46.5 273.429V274.246C46.5 276.586 47.8323 278.524 49.9685 279.855C52.0978 281.181 55.0533 281.929 58.4286 281.929C61.8089 281.929 64.7643 281.139 66.8917 279.793C69.021 278.445 70.3571 276.509 70.3571 274.246V273.429C70.3571 272.387 69.9432 271.387 69.2065 270.651ZM61.244 254.06C60.3514 253.69 59.3947 253.5 58.4286 253.5C56.4773 253.5 54.606 254.275 53.2263 255.655C51.8466 257.035 51.0714 258.906 51.0714 260.857C51.0714 262.808 51.8466 264.68 53.2263 266.059C54.606 267.439 56.4773 268.214 58.4286 268.214C59.3947 268.214 60.3514 268.024 61.244 267.654C62.1366 267.285 62.9477 266.743 63.6309 266.059C64.314 265.376 64.856 264.565 65.2257 263.673C65.5954 262.78 65.7857 261.823 65.7857 260.857C65.7857 259.891 65.5954 258.934 65.2257 258.042C64.856 257.149 64.314 256.338 63.6309 255.655C62.9477 254.972 62.1366 254.43 61.244 254.06Z" fill="#101010" stroke="#F5F5F5"/>
<path id="Vector_3" d="M66.4286 270.5C67.2053 270.5 67.9502 270.809 68.4994 271.358C69.0486 271.907 69.3571 272.652 69.3571 273.429V274.246C69.3571 276.071 68.2876 277.726 66.3569 278.948C64.4242 280.171 61.6654 280.929 58.4286 280.929C55.1867 280.929 52.4279 280.209 50.4972 279.006C48.5734 277.808 47.5 276.155 47.5 274.246V273.429C47.5 272.652 47.8085 271.907 48.3578 271.358C48.907 270.809 49.6519 270.5 50.4286 270.5H66.4286ZM58.4286 254.5C59.2634 254.5 60.0901 254.664 60.8613 254.984C61.6326 255.303 62.3334 255.772 62.9238 256.362C63.5141 256.952 63.9823 257.653 64.3018 258.424C64.6213 259.196 64.7857 260.022 64.7857 260.857C64.7857 261.692 64.6213 262.519 64.3018 263.29C63.9823 264.061 63.5141 264.762 62.9238 265.352C62.3334 265.943 61.6326 266.411 60.8613 266.73C60.0901 267.05 59.2634 267.214 58.4286 267.214C56.7426 267.214 55.1256 266.545 53.9334 265.352C52.7412 264.16 52.0714 262.543 52.0714 260.857C52.0714 259.171 52.7412 257.554 53.9334 256.362C55.1256 255.17 56.7426 254.5 58.4286 254.5Z" fill="#101010" stroke="#101010"/>
</g>
</g>
<g id="Admin-Site">
<g id="Admin-Site-Text">
<text id="Admin Site" fill="#101010" xml:space="preserve" style="white-space: pre" font-family="Poppins" font-size="14" font-weight="600" letter-spacing="0em"><tspan x="104.111" y="187.4">Admin Site</tspan></text>
<text id="Manage your workspace" fill="#333333" xml:space="preserve" style="white-space: pre" font-family="Noto Sans" font-size="13" letter-spacing="0em"><tspan x="104.111" y="205.044">Manage your workspace</tspan></text>
</g>
<g id="Admin-Site-Image">
<rect id="Rectangle 5" x="28" y="161" width="60.1118" height="60.1118" rx="30.0559" fill="#FDFDFD" stroke="#101010" stroke-width="2"/>
<g id="Group 11">
<g id="Group 13">
<circle id="Ellipse 1" cx="51.5" cy="182.5" r="3.5" fill="#101010"/>
</g>
<g id="Group 14">
<path id="Vector_4" d="M71.5 202C71.5 203.459 70.9205 204.858 69.8891 205.889C68.8576 206.921 67.4587 207.5 66 207.5L54 207.5C52.5413 207.5 51.1424 206.921 50.1109 205.889C49.0795 204.858 48.5 203.459 48.5 202C48.5 200.541 49.0795 199.142 50.1109 198.111C51.1424 197.079 52.5413 196.5 54 196.5L66 196.5C67.4587 196.5 68.8576 197.079 69.8891 198.111C70.9205 199.142 71.5 200.541 71.5 202Z" fill="#101010" stroke="#101010"/>
<path id="Vector_5" d="M69.4497 204.45C70.7625 203.137 71.5 201.357 71.5 199.5C71.5 197.643 70.7625 195.863 69.4497 194.55C68.137 193.237 66.3565 192.5 64.5 192.5L51.5 192.5C49.6435 192.5 47.863 193.237 46.5503 194.55C45.2375 195.863 44.5 197.643 44.5 199.5C44.5 201.357 45.2375 203.137 46.5503 204.45C47.863 205.762 49.6435 206.5 51.5 206.5L64.5 206.5C66.3565 206.5 68.137 205.763 69.4497 204.45Z" fill="#101010" stroke="#F5F5F5"/>
<circle id="Ellipse 2" cx="64.5" cy="199.5" r="3.5" fill="#0B862D"/>
</g>
<g id="Group 15">
<path id="Vector_6" d="M71.5 184C71.5 185.459 70.9205 186.858 69.8891 187.889C68.8576 188.921 67.4587 189.5 66 189.5L54 189.5C52.5413 189.5 51.1424 188.921 50.1109 187.889C49.0795 186.858 48.5 185.459 48.5 184C48.5 182.541 49.0795 181.142 50.1109 180.111C51.1424 179.079 52.5413 178.5 54 178.5L66 178.5C67.4587 178.5 68.8576 179.079 69.8891 180.111C70.9205 181.142 71.5 182.541 71.5 184Z" fill="#101010" stroke="#101010"/>
<path id="Vector_7" d="M69.4497 186.45C70.7625 185.137 71.5 183.357 71.5 181.5C71.5 179.643 70.7625 177.863 69.4497 176.55C68.137 175.237 66.3565 174.5 64.5 174.5L51.5 174.5C49.6435 174.5 47.863 175.237 46.5503 176.55C45.2375 177.863 44.5 179.643 44.5 181.5C44.5 183.357 45.2375 185.137 46.5503 186.45C47.863 187.762 49.6435 188.5 51.5 188.5L64.5 188.5C66.3565 188.5 68.137 187.763 69.4497 186.45Z" fill="#101010" stroke="#F5F5F5"/>
<circle id="Ellipse 2_2" cx="51.5" cy="181.5" r="3.5" fill="#ED1C24"/>
</g>
</g>
</g>
</g>
</g>
<g id="Divider">
<g id="Group">
<path id="Vector_8" d="M32.9777 138C32.9777 139.656 31.6391 141 29.9888 141C28.3385 141 27 139.656 27 138C27 136.344 28.3385 135 29.9888 135C31.6391 135 32.9777 136.344 32.9777 138Z" fill="#101010"/>
<path id="Vector_9" d="M51.9425 138C51.9425 139.656 50.604 141 48.9537 141C47.3034 141 45.9648 139.656 45.9648 138C45.9648 136.344 47.3034 135 48.9537 135C50.604 135 51.9425 136.344 51.9425 138Z" fill="#101010"/>
<path id="Vector_10" d="M70.9034 138C70.9034 139.656 69.5649 141 67.9146 141C66.2643 141 64.9258 139.656 64.9258 138C64.9258 136.344 66.2643 135 67.9146 135C69.5649 135 70.9034 136.344 70.9034 138Z" fill="#101010"/>
<path id="Vector_11" d="M89.8683 138C89.8683 139.656 88.5298 141 86.8795 141C85.2291 141 83.8906 139.656 83.8906 138C83.8906 136.344 85.2291 135 86.8795 135C88.5298 135 89.8683 136.344 89.8683 138Z" fill="#101010"/>
<path id="Vector_12" d="M108.827 138C108.827 139.656 107.489 141 105.838 141C104.188 141 102.85 139.656 102.85 138C102.85 136.344 104.188 135 105.838 135C107.489 135 108.827 136.344 108.827 138Z" fill="#101010"/>
<path id="Vector_13" d="M127.792 138C127.792 139.656 126.454 141 124.803 141C123.153 141 121.814 139.656 121.814 138C121.814 136.344 123.153 135 124.803 135C126.454 135 127.792 136.344 127.792 138Z" fill="#101010"/>
<path id="Vector_14" d="M146.751 138C146.751 139.656 145.413 141 143.762 141C142.112 141 140.773 139.656 140.773 138C140.773 136.344 142.112 135 143.762 135C145.413 135 146.751 136.344 146.751 138Z" fill="#101010"/>
<path id="Vector_15" d="M165.718 138C165.718 139.656 164.379 141 162.729 141C161.079 141 159.74 139.656 159.74 138C159.74 136.344 161.079 135 162.729 135C164.379 135 165.718 136.344 165.718 138Z" fill="#101010"/>
<path id="Vector_16" d="M184.677 138C184.677 139.656 183.338 141 181.688 141C180.038 141 178.699 139.656 178.699 138C178.699 136.344 180.038 135 181.688 135C183.338 135 184.677 136.344 184.677 138Z" fill="#101010"/>
<path id="Vector_17" d="M203.642 138C203.642 139.656 202.303 141 200.653 141C199.003 141 197.664 139.656 197.664 138C197.664 136.344 199.003 135 200.653 135C202.303 135 203.642 136.344 203.642 138Z" fill="#101010"/>
<path id="Vector_18" d="M222.601 138C222.601 139.656 221.262 141 219.612 141C217.962 141 216.623 139.656 216.623 138C216.623 136.344 217.962 135 219.612 135C221.262 135 222.601 136.344 222.601 138Z" fill="#101010"/>
<path id="Vector_19" d="M241.567 138C241.567 139.656 240.229 141 238.579 141C236.928 141 235.59 139.656 235.59 138C235.59 136.344 236.928 135 238.579 135C240.229 135 241.567 136.344 241.567 138Z" fill="#101010"/>
<path id="Vector_20" d="M260.526 138C260.526 139.656 259.188 141 257.538 141C255.887 141 254.549 139.656 254.549 138C254.549 136.344 255.887 135 257.538 135C259.188 135 260.526 136.344 260.526 138Z" fill="#101010"/>
<path id="Vector_21" d="M279.491 138C279.491 139.656 278.153 141 276.502 141C274.852 141 273.514 139.656 273.514 138C273.514 136.344 274.852 135 276.502 135C278.153 135 279.491 136.344 279.491 138Z" fill="#101010"/>
</g>
<g id="Group_2">
<path id="Vector_22" d="M298.45 138C298.45 139.656 297.112 141 295.461 141C293.811 141 292.473 139.656 292.473 138C292.473 136.344 293.811 135 295.461 135C297.112 135 298.45 136.344 298.45 138Z" fill="#101010"/>
<path id="Vector_23" d="M317.415 138C317.415 139.656 316.077 141 314.426 141C312.776 141 311.438 139.656 311.438 138C311.438 136.344 312.776 135 314.426 135C316.077 135 317.415 136.344 317.415 138Z" fill="#101010"/>
<path id="Vector_24" d="M336.374 138C336.374 139.656 335.036 141 333.385 141C331.735 141 330.396 139.656 330.396 138C330.396 136.344 331.735 135 333.385 135C335.036 135 336.374 136.344 336.374 138Z" fill="#101010"/>
</g>
</g>
<g id="Profile">
<g id="profile-name">
<text id="Alex Slate" fill="#101010" xml:space="preserve" style="white-space: pre" font-family="Poppins" font-size="16" font-weight="bold" letter-spacing="0em"><tspan x="132" y="33.1">Alex Slate</tspan></text>
<text id="Ocketio Administrator" fill="#101010" xml:space="preserve" style="white-space: pre" font-family="Poppins" font-size="14" font-weight="500" letter-spacing="0em"><tspan x="132" y="53.9">Ocketio&#10;</tspan><tspan x="132" y="69.9">Administrator</tspan></text>
<g id="email">
<text id="alex.slate@ocket.io" fill="#101010" xml:space="preserve" style="white-space: pre" font-family="Poppins" font-size="14" letter-spacing="0em"><tspan x="155" y="100.9">alex.slate@ocket.io</tspan></text>
<path id="Mail-Icon" d="M148.072 92.5483V98.9456C148.072 99.5978 147.822 100.225 147.374 100.699C146.926 101.174 146.314 101.458 145.663 101.495L145.518 101.499H134.911C134.259 101.499 133.631 101.25 133.157 100.802C132.683 100.354 132.398 99.7414 132.361 99.0902L132.357 98.9456V92.5483L139.941 96.5209C140.026 96.5651 140.119 96.5882 140.215 96.5882C140.31 96.5882 140.404 96.5651 140.488 96.5209L148.072 92.5483ZM134.911 88.9277H145.518C146.151 88.9277 146.762 89.1627 147.231 89.5872C147.701 90.0117 147.996 90.5954 148.059 91.2252L140.215 95.3344L132.37 91.2252C132.431 90.6204 132.706 90.0572 133.145 89.6368C133.583 89.2164 134.158 88.9664 134.765 88.9317L134.911 88.9277ZM134.724 102.285C134.955 102.646 135.273 102.944 135.649 103.15C136.025 103.356 136.447 103.464 136.876 103.463H145.912C148.19 103.463 150.037 101.617 150.037 99.3384V93.4456C150.037 93.0166 149.929 92.5945 149.723 92.2183C149.517 91.842 149.22 91.5237 148.858 91.2927V99.3384C148.858 99.7254 148.782 100.109 148.634 100.466C148.486 100.824 148.269 101.149 147.995 101.422C147.721 101.696 147.396 101.913 147.039 102.061C146.681 102.209 146.298 102.285 145.911 102.285H134.722H134.724Z" fill="#101010"/>
</g>
</g>
<g id="Profile-Image">
<rect id="Profile-Image-Background-Color" x="17" y="15" width="100" height="100" rx="50" fill="#88E4C3"/>
<mask id="mask0_808_9764" style="mask-type:alpha" maskUnits="userSpaceOnUse" x="17" y="15" width="100" height="100">
<g id="Rectangle 4">
<rect x="17" y="15" width="100" height="100" rx="50" fill="#B73838"/>
<rect x="17" y="15" width="100" height="100" rx="50" stroke="black"/>
</g>
</mask>
<g mask="url(#mask0_808_9764)">
<rect id="Rectangle 5_2" x="34" y="84.7676" width="65.1163" height="53.4884" rx="26.7442" fill="#101010"/>
<rect id="Rectangle 6_2" x="38.6523" y="88.2559" width="55.814" height="47.6744" rx="23.8372" fill="#101010"/>
<path id="Vector_25" d="M84.375 56.0293C83.7891 51.752 81.8994 48.1777 78.7061 45.3066C75.5127 42.4355 71.7773 41 67.5 41C63.2227 41 59.4873 42.4502 56.2939 45.3506C53.1006 48.251 51.2695 51.8105 50.8008 56.0293H50.625C49.043 56.0293 47.71 56.5566 46.626 57.6113C45.542 58.666 45 60.0137 45 61.6543C45 63.5879 45.5127 65.3164 46.5381 66.8398C47.5635 68.3633 48.9258 69.5059 50.625 70.2676C50.918 74.6621 52.6904 78.3828 55.9424 81.4297C59.1943 84.4766 63.0469 86 67.5 86C71.9531 86 75.8057 84.4766 79.0576 81.4297C82.3096 78.3828 84.082 74.6621 84.375 70.2676C86.0742 69.5059 87.4365 68.3633 88.4619 66.8398C89.4873 65.3164 90 63.5879 90 61.6543C90 60.0137 89.458 58.666 88.374 57.6113C87.29 56.5566 85.957 56.0293 84.375 56.0293ZM50.625 59.7207V65.7852C49.3945 64.7305 48.7793 63.3535 48.7793 61.6543C48.7793 60.3652 49.3945 59.7207 50.625 59.7207ZM67.5 82.2207C63.8672 82.2207 60.7764 80.9463 58.2275 78.3975C55.6787 75.8486 54.4043 72.7578 54.4043 69.125V57.875C54.4043 56.9961 54.4629 56.3223 54.5801 55.8535C57.6855 55.2676 59.9414 53.1875 61.3477 49.6133C65.3906 52.4258 71.6309 53.9199 80.0684 54.0957C80.4199 55.2676 80.5957 56.5273 80.5957 57.875V69.125C80.5957 72.7578 79.3213 75.8486 76.7725 78.3975C74.2236 80.9463 71.1328 82.2207 67.5 82.2207ZM84.375 65.7852V59.7207C85.6055 59.7207 86.2207 60.3652 86.2207 61.6543C86.2207 63.3535 85.6055 64.7305 84.375 65.7852ZM67.5 69.125C68.7305 69.125 69.3457 68.5098 69.3457 67.2793V65.3457H65.6543V67.2793C65.6543 68.5098 66.2695 69.125 67.5 69.125ZM61.875 61.6543C61.875 62.123 61.6846 62.5479 61.3037 62.9287C60.9229 63.3096 60.498 63.5 60.0293 63.5C59.502 63.5 59.0479 63.3096 58.667 62.9287C58.2861 62.5479 58.0957 62.123 58.0957 61.6543C58.0957 61.127 58.2861 60.6729 58.667 60.292C59.0479 59.9111 59.502 59.7207 60.0293 59.7207C60.498 59.7207 60.9229 59.9111 61.3037 60.292C61.6846 60.6729 61.875 61.127 61.875 61.6543ZM76.9043 61.6543C76.9043 62.123 76.7139 62.5479 76.333 62.9287C75.9521 63.3096 75.498 63.5 74.9707 63.5C74.502 63.5 74.0771 63.3096 73.6963 62.9287C73.3154 62.5479 73.125 62.123 73.125 61.6543C73.125 61.127 73.3154 60.6729 73.6963 60.292C74.0771 59.9111 74.502 59.7207 74.9707 59.7207C75.498 59.7207 75.9521 59.9111 76.333 60.292C76.7139 60.6729 76.9043 61.127 76.9043 61.6543ZM67.5 76.5957C69.7266 76.5957 71.4551 76.127 72.6855 75.1895C73.916 74.252 74.5898 73.3145 74.707 72.377L74.9707 70.9707H60.0293C60.0293 71.1465 60.0439 71.3516 60.0732 71.5859C60.1025 71.8203 60.249 72.2598 60.5127 72.9043C60.7764 73.5488 61.1426 74.1201 61.6113 74.6182C62.0801 75.1162 62.8271 75.5703 63.8525 75.9805C64.8779 76.3906 66.0938 76.5957 67.5 76.5957Z" fill="#101010"/>
<circle id="Ellipse 11" cx="67" cy="65" r="47" stroke="#101010" stroke-width="6"/>
</g>
</g>
</g>
</g>
</svg>
