<svg
  id="ocketioLogo"
  xmlns="http://www.w3.org/2000/svg"
  viewBox="0 0 821.8 194.7"
>
  <g>
    <path
      d="M84.84,135.91c-1.23,.16-6.33,.24-9.87-2.94-.08-.04-1.35-1.35-3.06-3.1-4.77-4.85-6.88-11.74-5.69-18.42,.12-.84,1.11-3.9,2.19-7.2,1.95-5.97,1.83-13.73-.2-19.14-.16-.48-.48-1.51-.88-2.83-1.87-6.65-1.11-13.09,3.1-18.54,.04-.04,.04-.08,.08-.08,1.11-1.43,2.23-2.86,3.3-4.14,3.42-4.18,8.44-6.72,13.81-7.04,1.71-.08,3.86-.4,5.81-.76,4.58-.8,8.87-2.98,11.82-6.57,.36-.4,.6-.88,.92-1.23,3.18-4.06,7.12-13.33,5.05-20.53-5.09-17.47-27.46-25.19-43.05-10.11-6.01,5.81-7.52,14.6-5.61,22.72,.68,2.9,.44,6.84-.08,10.5-.32,1.95-1.35,4.42-2.67,6.92-3.78,7.2-11.14,11.86-19.26,12.41-2.79,.2-6.09,.56-9.07,.92-1.91,.24-4.46,.99-7.16,1.99-10.9,3.98-19.66,12.69-23.08,23.76-.36,1.19-.64,2.31-.76,3.3-.52,3.62-.72,7.64-.12,10.94,.12,.48,.24,.99,.36,1.51,1.39,5.53,4.02,10.66,7.48,15.2,4.26,5.57,10.66,15.24,10.35,21.92-.12,1.59-.24,3.02-.44,4.3-.56,4.1-2.11,8-4.34,11.5-.64,.99-1.83,2.71-2.83,4.06-1.15,1.63-2.07,3.42-2.63,5.37-.8,2.71-1.63,6.72-1.11,10.58,1.55,11.78,16.47,17.19,27.5,10.78,7.16-4.14,10.23-12.85,8.28-20.89-.99-4.1-3.7-7.8-6.13-10.46-3.7-4.02-5.61-9.51-5.01-14.92,.04-.32,.08-.6,.12-.8,.32-1.47,1.03-2.83,1.99-4.14,5.41-7.4,15.72-8.95,23.76-4.58,1.23,.64,2.51,1.43,3.82,2.35,9.79,6.76,8.28,13.45,8.71,18.07,.95,10.23,14.21,18.1,24.11,15.2,5.65-1.67,10.03-6.37,12.02-11.94,5.57-15.56-9.15-25.86-21.53-23.95Zm-4.89-124.78c9.23-2.67,18.86,2.63,21.57,11.86,2.67,9.19-2.63,18.86-11.86,21.57-9.23,2.67-18.86-2.63-21.57-11.86-2.67-9.23,2.63-18.86,11.86-21.57ZM36.93,170.61c1.87,6.41-1.83,13.13-8.24,15-6.45,1.87-13.17-1.83-15.04-8.24-1.87-6.41,1.83-13.13,8.24-15,6.45-1.87,13.17,1.79,15.04,8.24Zm5.21-45.88c-14.13,4.1-28.89-4.02-33.03-18.14-4.1-14.13,4.02-28.93,18.14-33.03,14.13-4.1,28.93,4.02,33.03,18.14,4.1,14.13-4.02,28.89-18.14,33.03Zm48.47,39.71c-6.61,1.91-13.53-1.87-15.44-8.48-1.91-6.61,1.87-13.53,8.48-15.44,6.61-1.91,13.53,1.87,15.44,8.48,1.91,6.61-1.87,13.53-8.48,15.44Z"
    />
    <g>
      <path
        d="M241.99,100.51v33.5c0,30.05-17.16,46.31-52.61,46.31s-52.61-16.01-52.61-46.31v-33.5c0-30.05,17.44-46.31,52.61-46.31s52.61,16.26,52.61,46.31Zm-66.68-1.48v36.7c0,9.85,5.06,15.03,14.07,15.03s14.07-5.17,14.07-15.03v-36.95c0-9.85-5.06-14.78-14.07-14.78s-14.07,4.93-14.07,15.03Z"
      />
      <path
        d="M339.04,57.89l-.28,21.92c0,5.17-3.66,7.39-9.85,6.41s-12.66-1.72-17.72-1.72c-15.19,0-20.54,5.17-20.54,19.21v27.34c0,14.29,6.19,18.72,21.38,18.72,5.06,0,10.13-.49,16.88-1.48,5.91-.99,9.57,1.23,9.57,6.4l.84,22.17c-14.63,2.46-23.35,3.45-34.32,3.45-35.45,0-52.89-16.01-52.89-46.8v-32.52c0-30.79,17.72-46.8,53.17-46.8,12.66,0,21.66,1.48,33.76,3.7Z"
      />
      <path
        d="M379.84,9.12c5.35,0,8.72,2.71,8.72,7.64V98.29l28.98-36.46c2.81-3.45,5.91-4.68,10.41-4.68h36.86l-44.45,53.21,46.98,67h-37.98c-4.78,0-7.88-1.48-10.13-5.17l-30.67-45.82v43.36c0,4.93-3.38,7.64-8.72,7.64h-29.82V9.12h29.82Z"
      />
      <path
        d="M461.42,130.81v-30.55c0-29.31,16.32-46.07,50.92-46.07s51.49,15.77,51.49,46.07v19.46c0,6.16-3.38,9.61-10.41,9.61h-53.74v5.91c0,10.35,5.06,14.53,20.54,14.53,9,0,19.41-.99,29.54-2.46,5.63-.74,9.29,1.48,9.29,6.4l.84,21.68c-15.47,2.96-32.35,4.93-44.17,4.93-38.83,0-54.3-14.04-54.3-49.51Zm64.71-25.87v-7.88c0-9.36-4.78-13.55-13.5-13.55-8.16,0-12.94,4.19-12.94,12.81v8.62h26.45Z"
      />
      <path
        d="M582.67,135.98v-49.27h-16.32v-21.92c0-4.93,3.09-7.64,8.72-7.64h8.44l3.94-24.88c.56-4.93,3.38-7.14,8.72-7.14h25.04V57.15h32.07v21.92c0,4.93-3.09,7.64-8.44,7.64h-23.63v50.25c0,9.61,3.66,13.3,13.5,13.3,3.66,0,9.28-.74,14.07-1.72,5.63-.99,9.28,1.72,9.28,6.9l.28,21.43c-8.44,2.22-19.41,3.45-29.54,3.45-32.64,0-46.14-11.58-46.14-44.34Z"
      />
      <path
        d="M706.46,17v5.91c0,10.59-7.6,16.75-21.95,16.75s-21.94-6.16-21.94-16.75v-5.91c0-11.09,8.16-17,21.94-17s21.95,5.91,21.95,17Zm-11.54,40.15c5.35,0,8.72,2.71,8.72,7.64v112.58h-38.54V57.15h29.82Z"
      />
      <path
        d="M821.8,100.51v33.5c0,30.05-17.16,46.31-52.61,46.31s-52.61-16.01-52.61-46.31v-33.5c0-30.05,17.44-46.31,52.61-46.31s52.61,16.26,52.61,46.31Zm-66.68-1.48v36.7c0,9.85,5.06,15.03,14.07,15.03s14.07-5.17,14.07-15.03v-36.95c0-9.85-5.06-14.78-14.07-14.78s-14.07,4.93-14.07,15.03Z"
      />
    </g>
  </g>
</svg>
