<svg xmlns="http://www.w3.org/2000/svg" xmlns:xlink="http://www.w3.org/1999/xlink" width="890" height="760" viewBox="0 0 890 760">
  <defs>
    <filter id="Rectangle_1" x="22.93" y="90" width="843.84" height="594" filterUnits="userSpaceOnUse">
      <feOffset dy="7" input="SourceAlpha"/>
      <feGaussianBlur stdDeviation="9" result="blur"/>
      <feFlood flood-color="#121212" flood-opacity="0.157"/>
      <feComposite operator="in" in2="blur"/>
      <feComposite in="SourceGraphic"/>
    </filter>
  </defs>
  <g id="Add_Device-step-4" transform="translate(-3644 3681)">
    <rect id="Rectangle_42" data-name="Rectangle 42" width="890" height="760" rx="11" transform="translate(3644 -3681)" fill="#f5f5f5"/>
    <g id="Add_Device-step-5" transform="translate(3693.93 -3571)">
      <g transform="matrix(1, 0, 0, 1, -49.93, -110)" filter="url(#Rectangle_1)">
        <rect id="Rectangle_1-2" data-name="Rectangle 1" width="789.84" height="540" rx="10" transform="translate(49.93 110)" fill="#fff"/>
      </g>
      <path id="Path_738" data-name="Path 738" d="M6.42.18A5.452,5.452,0,0,1,2.4-1.463,5.617,5.617,0,0,1,.765-5.6,5.592,5.592,0,0,1,2.4-9.72a5.464,5.464,0,0,1,4.02-1.635,5.469,5.469,0,0,1,4.035,1.642A5.6,5.6,0,0,1,12.09-5.6a5.617,5.617,0,0,1-1.635,4.133A5.469,5.469,0,0,1,6.42.18Zm0-1.32A3.989,3.989,0,0,0,9.465-2.423a4.467,4.467,0,0,0,1.2-3.173,4.447,4.447,0,0,0-1.2-3.158A3.989,3.989,0,0,0,6.42-10.035,3.972,3.972,0,0,0,3.39-8.753,4.447,4.447,0,0,0,2.19-5.6a4.467,4.467,0,0,0,1.2,3.173A3.972,3.972,0,0,0,6.42-1.14ZM17.955-8.13a3.859,3.859,0,0,1,2.858,1.178A4.044,4.044,0,0,1,21.975-3.99,4.075,4.075,0,0,1,20.805-1,3.889,3.889,0,0,1,17.925.18a3.85,3.85,0,0,1-1.612-.338A2.9,2.9,0,0,1,15.135-1.1V3h-1.29V-7.95H15.1v1.215a2.8,2.8,0,0,1,1.163-1.02A3.751,3.751,0,0,1,17.955-8.13Zm-2.04,6.24a2.59,2.59,0,0,0,1.965.825,2.566,2.566,0,0,0,1.958-.825,2.93,2.93,0,0,0,.773-2.085,2.914,2.914,0,0,0-.78-2.085,2.572,2.572,0,0,0-1.95-.825,2.59,2.59,0,0,0-1.965.825,2.914,2.914,0,0,0-.78,2.085A2.914,2.914,0,0,0,15.915-1.89ZM30.63-4.32a4.29,4.29,0,0,1-.06.735H24.4a2.619,2.619,0,0,0,.8,1.875,2.57,2.57,0,0,0,1.837.72,2.414,2.414,0,0,0,2.28-1.41l1.125.6A3.235,3.235,0,0,1,29.137-.383,3.967,3.967,0,0,1,27.03.18,3.767,3.767,0,0,1,24.188-1,4.148,4.148,0,0,1,23.055-3.99a4.158,4.158,0,0,1,1.1-2.97,3.643,3.643,0,0,1,2.767-1.17A3.468,3.468,0,0,1,29.6-7.013,3.838,3.838,0,0,1,30.63-4.32ZM24.435-4.7H29.2a2.234,2.234,0,0,0-.7-1.635,2.208,2.208,0,0,0-1.583-.66,2.406,2.406,0,0,0-1.657.622A2.6,2.6,0,0,0,24.435-4.7ZM35.4-8.04h.645v1.23h-.84a1.819,1.819,0,0,0-1.388.548A2.128,2.128,0,0,0,33.3-4.74V0H32.01V-7.95h1.245v.99A2.259,2.259,0,0,1,35.4-8.04Zm5.085-.09a3.232,3.232,0,0,1,2.228.765,2.524,2.524,0,0,1,.862,1.98V0h-1.26V-1.11a2.845,2.845,0,0,1-1.073.945A3.075,3.075,0,0,1,39.81.18a3.058,3.058,0,0,1-2.048-.668A2.149,2.149,0,0,1,36.975-2.2a1.9,1.9,0,0,1,.667-1.47,4.1,4.1,0,0,1,1.882-.87l2.76-.615v-.225a1.359,1.359,0,0,0-.5-1.095,1.955,1.955,0,0,0-1.3-.42,2.262,2.262,0,0,0-1.245.345,2.134,2.134,0,0,0-.81.945l-1.155-.6a2.951,2.951,0,0,1,1.237-1.372A3.7,3.7,0,0,1,40.485-8.13Zm-.6,7.155a2.3,2.3,0,0,0,1.717-.7,2.4,2.4,0,0,0,.683-1.748v-.69l-2.46.57a2.367,2.367,0,0,0-1.087.5,1.08,1.08,0,0,0-.4.833,1.083,1.083,0,0,0,.42.9A1.772,1.772,0,0,0,39.885-.975ZM48.585.09a2.489,2.489,0,0,1-1.853-.66,2.532,2.532,0,0,1-.653-1.86V-6.72H44.535V-7.95h.4a1.1,1.1,0,0,0,.825-.322,1.161,1.161,0,0,0,.315-.848v-1.41h1.29v2.58h1.92v1.23H47.37v4.29a2.4,2.4,0,0,0,.038.45,1.663,1.663,0,0,0,.172.45.909.909,0,0,0,.45.4,1.933,1.933,0,0,0,.8.143,3.2,3.2,0,0,0,.555-.045V.015A3.513,3.513,0,0,1,48.585.09Zm2.2-9.51v-1.755h1.29V-9.42Zm0,9.42V-7.95h1.29V0Zm6.7-8.13a2.914,2.914,0,0,1,2.13.825,2.781,2.781,0,0,1,.84,2.07V0h-1.29V-4.815a2.1,2.1,0,0,0-.532-1.508,1.879,1.879,0,0,0-1.432-.562,1.9,1.9,0,0,0-1.433.57,2.075,2.075,0,0,0-.548,1.5V0H53.94V-7.95H55.2v.915a2.353,2.353,0,0,1,.952-.8A3.054,3.054,0,0,1,57.495-8.13Zm10.935.18h1.26V-.33a3.415,3.415,0,0,1-1.1,2.6A3.855,3.855,0,0,1,65.85,3.3a4.089,4.089,0,0,1-2.168-.57,3.173,3.173,0,0,1-1.327-1.5l1.14-.615A2.252,2.252,0,0,0,64.35,1.65a2.567,2.567,0,0,0,1.47.4,2.7,2.7,0,0,0,1.837-.645A2.187,2.187,0,0,0,68.4-.33V-1.56A3.186,3.186,0,0,1,65.745-.405a3.791,3.791,0,0,1-2.767-1.118,3.715,3.715,0,0,1-1.132-2.753A3.7,3.7,0,0,1,62.97-7.028a3.792,3.792,0,0,1,2.76-1.1,3.064,3.064,0,0,1,2.7,1.275ZM65.8-1.65a2.5,2.5,0,0,0,1.875-.742,2.594,2.594,0,0,0,.72-1.883,2.539,2.539,0,0,0-.735-1.875,2.539,2.539,0,0,0-1.875-.735,2.53,2.53,0,0,0-1.845.72,2.527,2.527,0,0,0-.735,1.89,2.573,2.573,0,0,0,.728,1.89A2.514,2.514,0,0,0,65.8-1.65ZM78.3.18a4.68,4.68,0,0,1-2.805-.863,4.225,4.225,0,0,1-1.62-2.168l1.26-.555a3.459,3.459,0,0,0,1.215,1.74,3.226,3.226,0,0,0,1.95.6,2.739,2.739,0,0,0,1.695-.488A1.518,1.518,0,0,0,80.64-2.82a1.548,1.548,0,0,0-.4-1.11,2.8,2.8,0,0,0-1.252-.675L76.9-5.235a4.084,4.084,0,0,1-2-1.185,2.747,2.747,0,0,1-.683-1.845,2.782,2.782,0,0,1,1.02-2.227,3.925,3.925,0,0,1,2.625-.863,4.429,4.429,0,0,1,2.595.773,3.9,3.9,0,0,1,1.515,1.927L80.73-8.07a3,3,0,0,0-1.088-1.515,2.974,2.974,0,0,0-1.762-.525,2.559,2.559,0,0,0-1.62.48,1.537,1.537,0,0,0-.615,1.275,1.6,1.6,0,0,0,.435,1.118,2.686,2.686,0,0,0,1.245.712l1.995.6q2.745.825,2.745,3A2.773,2.773,0,0,1,81.022-.683,4.132,4.132,0,0,1,78.3.18ZM89.355-7.965h1.5L87.18.99a6.7,6.7,0,0,1-.368.8,4.587,4.587,0,0,1-.5.69,2.014,2.014,0,0,1-.817.577,3.14,3.14,0,0,1-1.155.195,2.818,2.818,0,0,1-1.05-.165V1.935a2.989,2.989,0,0,0,.825.09,2.188,2.188,0,0,0,.72-.105,1.111,1.111,0,0,0,.5-.337A3.2,3.2,0,0,0,85.62,1.2a3.329,3.329,0,0,0,.21-.45l.345-.825-3.18-7.89h1.47l2.445,6.15ZM94.86.18a3.713,3.713,0,0,1-2.07-.585A3.173,3.173,0,0,1,91.515-2l1.1-.54A2.423,2.423,0,0,0,93.5-1.4,2.38,2.38,0,0,0,94.86-1a1.841,1.841,0,0,0,1.125-.322.979.979,0,0,0,.435-.817q0-.75-1.215-1.1L93.9-3.6q-2.025-.57-2.025-2.22a2.072,2.072,0,0,1,.765-1.673,3.013,3.013,0,0,1,2-.638,3.463,3.463,0,0,1,1.927.54A2.919,2.919,0,0,1,97.74-6.12L96.66-5.6a1.976,1.976,0,0,0-.78-1,2.226,2.226,0,0,0-1.245-.352,1.683,1.683,0,0,0-1.035.293.906.906,0,0,0-.39.758q0,.765,1.14,1.11l1.35.4q2.055.6,2.055,2.235a2.054,2.054,0,0,1-.8,1.68A3.238,3.238,0,0,1,94.86.18ZM102.5.09a2.489,2.489,0,0,1-1.853-.66,2.532,2.532,0,0,1-.652-1.86V-6.72H98.445V-7.95h.405a1.1,1.1,0,0,0,.825-.322,1.161,1.161,0,0,0,.315-.848v-1.41h1.29v2.58h1.92v1.23h-1.92v4.29a2.4,2.4,0,0,0,.037.45,1.663,1.663,0,0,0,.173.45.909.909,0,0,0,.45.4,1.933,1.933,0,0,0,.795.143,3.2,3.2,0,0,0,.555-.045V.015A3.513,3.513,0,0,1,102.5.09Zm8.91-4.41a4.289,4.289,0,0,1-.06.735H105.18a2.619,2.619,0,0,0,.8,1.875,2.57,2.57,0,0,0,1.838.72A2.414,2.414,0,0,0,110.1-2.4l1.125.6a3.235,3.235,0,0,1-1.312,1.418,3.967,3.967,0,0,1-2.107.563A3.767,3.767,0,0,1,104.963-1,4.148,4.148,0,0,1,103.83-3.99a4.158,4.158,0,0,1,1.1-2.97A3.643,3.643,0,0,1,107.7-8.13a3.468,3.468,0,0,1,2.678,1.118A3.838,3.838,0,0,1,111.4-4.32ZM105.21-4.7h4.77a2.234,2.234,0,0,0-.7-1.635,2.208,2.208,0,0,0-1.583-.66,2.406,2.406,0,0,0-1.657.622A2.6,2.6,0,0,0,105.21-4.7ZM121.29-8.13a2.771,2.771,0,0,1,2.055.818,2.828,2.828,0,0,1,.81,2.077V0h-1.29V-4.815a2.153,2.153,0,0,0-.51-1.515,1.764,1.764,0,0,0-1.365-.555,1.758,1.758,0,0,0-1.357.563,2.139,2.139,0,0,0-.518,1.508V0h-1.29V-4.815a2.153,2.153,0,0,0-.51-1.515,1.764,1.764,0,0,0-1.365-.555,1.758,1.758,0,0,0-1.357.563,2.139,2.139,0,0,0-.518,1.508V0h-1.29V-7.95h1.26v.915a2.456,2.456,0,0,1,2.205-1.1,2.923,2.923,0,0,1,1.47.375,2.6,2.6,0,0,1,1.02,1.035,2.615,2.615,0,0,1,1.043-1.043A3.073,3.073,0,0,1,121.29-8.13Z" transform="translate(352.87 203.56)" fill="#333"/>
      <path id="Path_737" data-name="Path 737" d="M1.02,0V-11.175H4.665A5.744,5.744,0,0,1,8.858-9.63,5.387,5.387,0,0,1,10.44-5.6,5.412,5.412,0,0,1,8.858-1.553,5.728,5.728,0,0,1,4.665,0ZM2.91-1.665h1.8A3.678,3.678,0,0,0,7.485-2.738,3.941,3.941,0,0,0,8.52-5.6a3.915,3.915,0,0,0-1.035-2.85A3.692,3.692,0,0,0,4.71-9.51H2.91Zm16.5-2.67a3.346,3.346,0,0,1-.09.81H13.38a2.167,2.167,0,0,0,.7,1.538,2.269,2.269,0,0,0,1.582.577,2.078,2.078,0,0,0,1.965-1.125l1.485.72A3.051,3.051,0,0,1,17.8-.375,4.145,4.145,0,0,1,15.645.18a3.94,3.94,0,0,1-2.977-1.215A4.192,4.192,0,0,1,11.505-4.05a4.189,4.189,0,0,1,1.148-3.015,3.792,3.792,0,0,1,2.858-1.2A3.719,3.719,0,0,1,18.3-7.118,3.855,3.855,0,0,1,19.41-4.335Zm-6-.585h4.065a1.871,1.871,0,0,0-.615-1.32,1.926,1.926,0,0,0-1.35-.525,2.051,2.051,0,0,0-1.38.488A2.21,2.21,0,0,0,13.41-4.92ZM25.575-8.085H27.48L24.285,0H22.68L19.5-8.085h1.9L23.49-2.4ZM28.41-9.15v-2.025h1.8V-9.15Zm0,9.15V-8.085h1.8V0ZM35.6.18a3.99,3.99,0,0,1-2.97-1.208A4.141,4.141,0,0,1,31.44-4.05a4.116,4.116,0,0,1,1.185-3.015,4,4,0,0,1,2.97-1.2,4.02,4.02,0,0,1,2.257.645A3.339,3.339,0,0,1,39.21-5.94l-1.56.78a2.162,2.162,0,0,0-.787-1.05A2.129,2.129,0,0,0,35.6-6.6a2.1,2.1,0,0,0-1.635.72,2.661,2.661,0,0,0-.645,1.845A2.639,2.639,0,0,0,33.96-2.2a2.1,2.1,0,0,0,1.635.72,2.149,2.149,0,0,0,1.275-.382,2.131,2.131,0,0,0,.78-1.058l1.56.8A3.4,3.4,0,0,1,37.853-.472,3.986,3.986,0,0,1,35.6.18Zm12.21-4.515a3.346,3.346,0,0,1-.09.81h-5.94a2.167,2.167,0,0,0,.7,1.538,2.269,2.269,0,0,0,1.583.577A2.078,2.078,0,0,0,46.02-2.535l1.485.72a3.051,3.051,0,0,1-1.312,1.44A4.145,4.145,0,0,1,44.04.18a3.94,3.94,0,0,1-2.978-1.215A4.192,4.192,0,0,1,39.9-4.05a4.189,4.189,0,0,1,1.148-3.015,3.792,3.792,0,0,1,2.857-1.2A3.719,3.719,0,0,1,46.7-7.118,3.855,3.855,0,0,1,47.805-4.335Zm-6-.585H45.87a1.871,1.871,0,0,0-.615-1.32,1.926,1.926,0,0,0-1.35-.525,2.051,2.051,0,0,0-1.38.488A2.21,2.21,0,0,0,41.805-4.92ZM51.735,0V-11.175H55.38A5.744,5.744,0,0,1,59.573-9.63,5.387,5.387,0,0,1,61.155-5.6a5.412,5.412,0,0,1-1.583,4.043A5.728,5.728,0,0,1,55.38,0Zm1.89-1.665h1.8A3.678,3.678,0,0,0,58.2-2.738,3.941,3.941,0,0,0,59.235-5.6,3.915,3.915,0,0,0,58.2-8.445,3.692,3.692,0,0,0,55.425-9.51h-1.8Zm16.5-2.67a3.346,3.346,0,0,1-.09.81H64.1a2.167,2.167,0,0,0,.7,1.538,2.269,2.269,0,0,0,1.582.577A2.078,2.078,0,0,0,68.34-2.535l1.485.72a3.051,3.051,0,0,1-1.312,1.44A4.145,4.145,0,0,1,66.36.18a3.94,3.94,0,0,1-2.977-1.215A4.192,4.192,0,0,1,62.22-4.05a4.189,4.189,0,0,1,1.148-3.015,3.792,3.792,0,0,1,2.858-1.2,3.719,3.719,0,0,1,2.79,1.148A3.855,3.855,0,0,1,70.125-4.335Zm-6-.585H68.19a1.871,1.871,0,0,0-.615-1.32,1.926,1.926,0,0,0-1.35-.525,2.051,2.051,0,0,0-1.38.488A2.21,2.21,0,0,0,64.125-4.92ZM74.91.09a2.841,2.841,0,0,1-2.1-.735,2.8,2.8,0,0,1-.735-2.07v-3.75h-1.47v-1.62h.24a1.244,1.244,0,0,0,.908-.315,1.2,1.2,0,0,0,.323-.9v-1.29h1.8v2.5H75.8v1.62h-1.92v3.75q0,1.335,1.425,1.335a3.468,3.468,0,0,0,.54-.045V.015A6.023,6.023,0,0,1,74.91.09Zm5.475-8.355a3.514,3.514,0,0,1,2.393.8A2.609,2.609,0,0,1,83.7-5.4V0H82.005V-.9a2.966,2.966,0,0,1-2.4,1.08A3.212,3.212,0,0,1,77.468-.5a2.154,2.154,0,0,1-.8-1.725q0-1.785,2.58-2.355l2.655-.57V-5.4a1.109,1.109,0,0,0-.42-.9,1.67,1.67,0,0,0-1.1-.345,2.007,2.007,0,0,0-1.14.33,1.878,1.878,0,0,0-.72.915l-1.56-.78a2.964,2.964,0,0,1,1.283-1.508A3.992,3.992,0,0,1,80.385-8.265Zm-.57,7.02a2.052,2.052,0,0,0,1.493-.577A1.92,1.92,0,0,0,81.9-3.255V-3.78l-2.295.51a1.516,1.516,0,0,0-.787.383.893.893,0,0,0-.278.652.863.863,0,0,0,.345.728A1.5,1.5,0,0,0,79.815-1.245ZM85.08-9.15v-2.025h1.8V-9.15Zm0,9.15V-8.085h1.8V0Zm3.48,0V-11.175h1.8V0Zm6.585.18a4.1,4.1,0,0,1-2.228-.608,3.171,3.171,0,0,1-1.342-1.658L92.97-2.76a2.225,2.225,0,0,0,2.175,1.47,1.665,1.665,0,0,0,.967-.255.785.785,0,0,0,.368-.675q0-.645-1.065-.93l-1.38-.36Q91.92-4.095,91.92-5.82a2.169,2.169,0,0,1,.832-1.77,3.334,3.334,0,0,1,2.168-.675A3.852,3.852,0,0,1,97-7.71a3.045,3.045,0,0,1,1.268,1.53l-1.41.66a1.859,1.859,0,0,0-.735-.9,2.16,2.16,0,0,0-1.2-.33,1.509,1.509,0,0,0-.885.233.725.725,0,0,0-.33.622q0,.615.975.9l1.44.4q2.145.6,2.145,2.325A2.134,2.134,0,0,1,97.4-.5,3.565,3.565,0,0,1,95.145.18Z" transform="translate(95.87 182.56)" fill="#333"/>
      <path id="Path_736" data-name="Path 736" d="M1.02,0V-11.175H4.665A5.744,5.744,0,0,1,8.858-9.63,5.387,5.387,0,0,1,10.44-5.6,5.412,5.412,0,0,1,8.858-1.553,5.728,5.728,0,0,1,4.665,0ZM2.91-1.665h1.8A3.678,3.678,0,0,0,7.485-2.738,3.941,3.941,0,0,0,8.52-5.6a3.915,3.915,0,0,0-1.035-2.85A3.692,3.692,0,0,0,4.71-9.51H2.91Zm15.855.638A4.139,4.139,0,0,1,15.75.18a4.139,4.139,0,0,1-3.015-1.208,4.061,4.061,0,0,1-1.23-3.023,4.049,4.049,0,0,1,1.222-3.015,4.146,4.146,0,0,1,3.023-1.2,4.146,4.146,0,0,1,3.023,1.2A4.049,4.049,0,0,1,20-4.05,4.061,4.061,0,0,1,18.765-1.028ZM15.75-1.485a2.226,2.226,0,0,0,1.695-.72,2.569,2.569,0,0,0,.675-1.83,2.6,2.6,0,0,0-.675-1.838A2.215,2.215,0,0,0,15.75-6.6a2.208,2.208,0,0,0-1.7.727,2.613,2.613,0,0,0-.668,1.838,2.586,2.586,0,0,0,.668,1.83A2.219,2.219,0,0,0,15.75-1.485Zm15.2-6.6h1.92L30.06,0h-1.6L26.55-5.79,24.63,0H23.01L20.22-8.085h1.9l1.71,5.43,1.71-5.43h2l1.71,5.43Zm6.9-.18a2.988,2.988,0,0,1,2.2.84A2.929,2.929,0,0,1,40.89-5.25V0h-1.8V-4.8a1.811,1.811,0,0,0-.472-1.3,1.633,1.633,0,0,0-1.237-.5,1.665,1.665,0,0,0-1.252.488A1.806,1.806,0,0,0,35.655-4.8V0h-1.8V-8.085H35.55v.975A2.461,2.461,0,0,1,37.845-8.265ZM42.48,0V-11.175h1.8V0ZM52.815-1.028A4.139,4.139,0,0,1,49.8.18a4.139,4.139,0,0,1-3.015-1.208,4.061,4.061,0,0,1-1.23-3.023,4.049,4.049,0,0,1,1.223-3.015,4.146,4.146,0,0,1,3.022-1.2,4.146,4.146,0,0,1,3.022,1.2A4.05,4.05,0,0,1,54.045-4.05,4.061,4.061,0,0,1,52.815-1.028ZM49.8-1.485A2.226,2.226,0,0,0,51.5-2.2a2.569,2.569,0,0,0,.675-1.83A2.6,2.6,0,0,0,51.5-5.873,2.215,2.215,0,0,0,49.8-6.6a2.208,2.208,0,0,0-1.7.727,2.613,2.613,0,0,0-.668,1.838A2.586,2.586,0,0,0,48.1-2.2,2.219,2.219,0,0,0,49.8-1.485Zm8.79-6.78a3.514,3.514,0,0,1,2.393.8A2.609,2.609,0,0,1,61.9-5.4V0H60.21V-.9A2.966,2.966,0,0,1,57.81.18,3.212,3.212,0,0,1,55.673-.5a2.154,2.154,0,0,1-.8-1.725q0-1.785,2.58-2.355l2.655-.57V-5.4a1.109,1.109,0,0,0-.42-.9,1.67,1.67,0,0,0-1.1-.345,2.007,2.007,0,0,0-1.14.33,1.878,1.878,0,0,0-.72.915l-1.56-.78a2.964,2.964,0,0,1,1.282-1.508A3.992,3.992,0,0,1,58.59-8.265Zm-.57,7.02a2.052,2.052,0,0,0,1.493-.577A1.92,1.92,0,0,0,60.1-3.255V-3.78l-2.295.51a1.516,1.516,0,0,0-.788.383.893.893,0,0,0-.277.652.863.863,0,0,0,.345.728A1.5,1.5,0,0,0,58.02-1.245Zm11.535-9.93h1.8V0h-1.71V-.945A3.25,3.25,0,0,1,66.99.18a3.9,3.9,0,0,1-2.917-1.215,4.144,4.144,0,0,1-1.178-3A4.148,4.148,0,0,1,64.08-7.05a3.889,3.889,0,0,1,2.895-1.215,3.142,3.142,0,0,1,2.58,1.08ZM67.17-1.485A2.254,2.254,0,0,0,68.88-2.2a2.563,2.563,0,0,0,.675-1.838,2.6,2.6,0,0,0-.675-1.838A2.232,2.232,0,0,0,67.17-6.6a2.249,2.249,0,0,0-1.725.727,2.6,2.6,0,0,0-.675,1.838,2.569,2.569,0,0,0,.675,1.83A2.26,2.26,0,0,0,67.17-1.485ZM79.92.18a4.967,4.967,0,0,1-2.887-.863A4.207,4.207,0,0,1,75.345-2.91l1.62-.735a3.383,3.383,0,0,0,1.185,1.59,2.967,2.967,0,0,0,1.77.57,2.536,2.536,0,0,0,1.5-.4,1.223,1.223,0,0,0,.57-1.035q0-1.035-1.35-1.44L78.45-5.04a4.209,4.209,0,0,1-2.055-1.207,2.817,2.817,0,0,1-.69-1.9,2.882,2.882,0,0,1,1.065-2.318,4.175,4.175,0,0,1,2.775-.892,4.709,4.709,0,0,1,2.7.78,4,4,0,0,1,1.59,2L82.2-7.83A2.676,2.676,0,0,0,81.21-9.2a2.785,2.785,0,0,0-1.65-.487,2.29,2.29,0,0,0-1.41.405,1.255,1.255,0,0,0-.54,1.05q0,1.05,1.38,1.47L81.1-6.12q2.79.855,2.79,3.06A2.881,2.881,0,0,1,82.8-.713,4.416,4.416,0,0,1,79.92.18ZM92.13-1.028A4.139,4.139,0,0,1,89.115.18,4.139,4.139,0,0,1,86.1-1.028,4.061,4.061,0,0,1,84.87-4.05a4.049,4.049,0,0,1,1.223-3.015,4.146,4.146,0,0,1,3.022-1.2,4.146,4.146,0,0,1,3.022,1.2A4.049,4.049,0,0,1,93.36-4.05,4.061,4.061,0,0,1,92.13-1.028Zm-3.015-.458A2.226,2.226,0,0,0,90.81-2.2a2.569,2.569,0,0,0,.675-1.83,2.6,2.6,0,0,0-.675-1.838A2.215,2.215,0,0,0,89.115-6.6a2.208,2.208,0,0,0-1.7.727,2.613,2.613,0,0,0-.668,1.838,2.586,2.586,0,0,0,.668,1.83A2.219,2.219,0,0,0,89.115-1.485ZM95.34,0V-6.465H93.885v-1.62H95.34V-8.55a2.739,2.739,0,0,1,.8-2.092,3.008,3.008,0,0,1,2.152-.758,3.557,3.557,0,0,1,.78.075v1.56a3.371,3.371,0,0,0-.555-.045,1.483,1.483,0,0,0-1.012.322,1.181,1.181,0,0,0-.368.938v.465h1.83v1.62H97.14V0Zm9.105.09a2.841,2.841,0,0,1-2.1-.735,2.8,2.8,0,0,1-.735-2.07v-3.75h-1.47v-1.62h.24a1.244,1.244,0,0,0,.908-.315,1.2,1.2,0,0,0,.323-.9v-1.29h1.8v2.5h1.92v1.62h-1.92v3.75q0,1.335,1.425,1.335a3.468,3.468,0,0,0,.54-.045V.015A6.023,6.023,0,0,1,104.445.09Zm12.18-8.175h1.92L115.74,0h-1.6L112.23-5.79,110.31,0h-1.62L105.9-8.085h1.9l1.71,5.43,1.71-5.43h2l1.71,5.43Zm5.58-.18a3.514,3.514,0,0,1,2.393.8A2.609,2.609,0,0,1,125.52-5.4V0h-1.695V-.9a2.966,2.966,0,0,1-2.4,1.08A3.212,3.212,0,0,1,119.288-.5a2.154,2.154,0,0,1-.8-1.725q0-1.785,2.58-2.355l2.655-.57V-5.4a1.109,1.109,0,0,0-.42-.9,1.67,1.67,0,0,0-1.1-.345,2.007,2.007,0,0,0-1.14.33,1.878,1.878,0,0,0-.72.915l-1.56-.78a2.964,2.964,0,0,1,1.283-1.508A3.992,3.992,0,0,1,122.205-8.265Zm-.57,7.02a2.052,2.052,0,0,0,1.493-.577,1.92,1.92,0,0,0,.592-1.433V-3.78l-2.295.51a1.516,1.516,0,0,0-.787.383.893.893,0,0,0-.278.652.863.863,0,0,0,.345.728A1.5,1.5,0,0,0,121.635-1.245Zm9.21-6.93h.75v1.62h-.975a1.8,1.8,0,0,0-1.35.525,2,2,0,0,0-.51,1.455V0h-1.8V-8.085h1.695V-6.96A2.185,2.185,0,0,1,130.845-8.175Zm9.33,3.84a3.346,3.346,0,0,1-.09.81h-5.94a2.167,2.167,0,0,0,.7,1.538,2.269,2.269,0,0,0,1.583.577,2.078,2.078,0,0,0,1.965-1.125l1.485.72a3.051,3.051,0,0,1-1.312,1.44A4.145,4.145,0,0,1,136.41.18a3.94,3.94,0,0,1-2.977-1.215A4.192,4.192,0,0,1,132.27-4.05a4.189,4.189,0,0,1,1.148-3.015,3.792,3.792,0,0,1,2.857-1.2,3.719,3.719,0,0,1,2.79,1.148A3.855,3.855,0,0,1,140.175-4.335Zm-6-.585h4.065a1.871,1.871,0,0,0-.615-1.32,1.926,1.926,0,0,0-1.35-.525,2.051,2.051,0,0,0-1.38.488A2.21,2.21,0,0,0,134.175-4.92Z" transform="translate(95.87 247.56)" fill="#333"/>
      <path id="Path_735" data-name="Path 735" d="M6.51-11.175,10.44,0H8.43L7.59-2.46H3.03L2.2,0H.2L4.11-11.175ZM3.585-4.125h3.45L5.31-9.2Zm12.27-4.14a3.907,3.907,0,0,1,2.91,1.215,4.13,4.13,0,0,1,1.185,3,4.148,4.148,0,0,1-1.185,3.015A3.924,3.924,0,0,1,15.84.18,3.274,3.274,0,0,1,13.29-.825V3h-1.8V-8.085h1.695v1.02A3.1,3.1,0,0,1,15.855-8.265Zm-.18,6.78a2.255,2.255,0,0,0,1.717-.727,2.56,2.56,0,0,0,.683-1.823,2.58,2.58,0,0,0-.683-1.838A2.255,2.255,0,0,0,15.675-6.6a2.237,2.237,0,0,0-1.717.72,2.607,2.607,0,0,0-.668,1.845,2.586,2.586,0,0,0,.668,1.83A2.237,2.237,0,0,0,15.675-1.485Zm9.915-6.78A3.907,3.907,0,0,1,28.5-7.05a4.13,4.13,0,0,1,1.185,3A4.148,4.148,0,0,1,28.5-1.035,3.924,3.924,0,0,1,25.575.18a3.274,3.274,0,0,1-2.55-1.005V3h-1.8V-8.085H22.92v1.02A3.1,3.1,0,0,1,25.59-8.265Zm-.18,6.78a2.255,2.255,0,0,0,1.718-.727,2.56,2.56,0,0,0,.682-1.823,2.58,2.58,0,0,0-.682-1.838A2.255,2.255,0,0,0,25.41-6.6a2.237,2.237,0,0,0-1.718.72,2.607,2.607,0,0,0-.667,1.845,2.586,2.586,0,0,0,.667,1.83A2.237,2.237,0,0,0,25.41-1.485ZM30.96,0V-11.175h1.8V0Zm9.09-8.085h1.965l-3.6,9.03a8.22,8.22,0,0,1-.36.765,4.965,4.965,0,0,1-.51.72,2.225,2.225,0,0,1-.893.645,3.315,3.315,0,0,1-1.267.225A2.891,2.891,0,0,1,34.2,3.09V1.575a3.594,3.594,0,0,0,.93.12,1.567,1.567,0,0,0,.81-.2,1.329,1.329,0,0,0,.45-.382A3.321,3.321,0,0,0,36.645.6l.27-.63-3.18-8.055H35.7L37.875-2.37ZM50.985.18A5.3,5.3,0,0,1,47-1.463,5.717,5.717,0,0,1,45.42-5.6,5.706,5.706,0,0,1,47-9.72a5.3,5.3,0,0,1,3.99-1.635,5.2,5.2,0,0,1,2.955.84,4.232,4.232,0,0,1,1.71,2.07l-1.68.81A3.155,3.155,0,0,0,52.83-9.1a3.129,3.129,0,0,0-1.845-.547A3.417,3.417,0,0,0,48.33-8.52,4.187,4.187,0,0,0,47.31-5.6a4.208,4.208,0,0,0,1.02,2.94A3.417,3.417,0,0,0,50.985-1.53a3.129,3.129,0,0,0,1.845-.548A3.155,3.155,0,0,0,53.97-3.54l1.68.81A4.232,4.232,0,0,1,53.94-.66,5.2,5.2,0,0,1,50.985.18ZM63.6-1.028A4.139,4.139,0,0,1,60.585.18,4.139,4.139,0,0,1,57.57-1.028,4.061,4.061,0,0,1,56.34-4.05a4.049,4.049,0,0,1,1.223-3.015,4.146,4.146,0,0,1,3.022-1.2,4.146,4.146,0,0,1,3.022,1.2A4.05,4.05,0,0,1,64.83-4.05,4.061,4.061,0,0,1,63.6-1.028Zm-3.015-.458A2.226,2.226,0,0,0,62.28-2.2a2.569,2.569,0,0,0,.675-1.83,2.6,2.6,0,0,0-.675-1.838A2.215,2.215,0,0,0,60.585-6.6a2.208,2.208,0,0,0-1.7.727,2.613,2.613,0,0,0-.667,1.838,2.586,2.586,0,0,0,.667,1.83A2.219,2.219,0,0,0,60.585-1.485Zm9.51-6.78a2.988,2.988,0,0,1,2.2.84A2.929,2.929,0,0,1,73.14-5.25V0h-1.8V-4.8a1.812,1.812,0,0,0-.473-1.3,1.633,1.633,0,0,0-1.238-.5,1.665,1.665,0,0,0-1.252.488A1.806,1.806,0,0,0,67.9-4.8V0h-1.8V-8.085H67.8v.975A2.461,2.461,0,0,1,70.1-8.265ZM75.435,0V-6.465H73.98v-1.62h1.455V-8.55a2.739,2.739,0,0,1,.8-2.092A3.008,3.008,0,0,1,78.39-11.4a3.557,3.557,0,0,1,.78.075v1.56a3.371,3.371,0,0,0-.555-.045,1.483,1.483,0,0,0-1.012.322,1.181,1.181,0,0,0-.368.938v.465h1.83v1.62h-1.83V0ZM80.19-9.15v-2.025h1.8V-9.15Zm0,9.15V-8.085h1.8V0Zm9.555-8.085h1.71v7.7a3.4,3.4,0,0,1-1.17,2.67,4.191,4.191,0,0,1-2.88,1.035,4.22,4.22,0,0,1-2.3-.63A3.325,3.325,0,0,1,83.715,1.02l1.56-.78a2.081,2.081,0,0,0,.772,1.035,2.254,2.254,0,0,0,1.343.39A2.376,2.376,0,0,0,89.01,1.1,1.883,1.883,0,0,0,89.655-.39v-1a3.158,3.158,0,0,1-2.46.99,3.929,3.929,0,0,1-2.828-1.118A3.755,3.755,0,0,1,83.205-4.35,3.713,3.713,0,0,1,84.36-7.17a3.927,3.927,0,0,1,2.805-1.1,3.1,3.1,0,0,1,2.58,1.155ZM85.725-2.7a2.263,2.263,0,0,0,1.65.63,2.223,2.223,0,0,0,1.643-.638,2.2,2.2,0,0,0,.638-1.627A2.177,2.177,0,0,0,89-5.963,2.255,2.255,0,0,0,87.36-6.6a2.25,2.25,0,0,0-1.627.63,2.171,2.171,0,0,0-.653,1.635A2.184,2.184,0,0,0,85.725-2.7Zm12.54-5.385h1.8V0h-1.71V-.93A2.482,2.482,0,0,1,96.09.18a2.888,2.888,0,0,1-2.2-.915A3.254,3.254,0,0,1,93.03-3.06V-8.085h1.8v4.8A1.806,1.806,0,0,0,95.3-1.973a1.665,1.665,0,0,0,1.253.487,1.633,1.633,0,0,0,1.237-.495,1.811,1.811,0,0,0,.473-1.305Zm7.425-.09h.75v1.62h-.975a1.8,1.8,0,0,0-1.35.525,2,2,0,0,0-.51,1.455V0h-1.8V-8.085H103.5V-6.96A2.185,2.185,0,0,1,105.69-8.175Zm5.145-.09a3.514,3.514,0,0,1,2.393.8A2.609,2.609,0,0,1,114.15-5.4V0h-1.695V-.9a2.966,2.966,0,0,1-2.4,1.08A3.212,3.212,0,0,1,107.918-.5a2.154,2.154,0,0,1-.8-1.725q0-1.785,2.58-2.355l2.655-.57V-5.4a1.109,1.109,0,0,0-.42-.9,1.67,1.67,0,0,0-1.1-.345,2.007,2.007,0,0,0-1.14.33,1.878,1.878,0,0,0-.72.915l-1.56-.78A2.964,2.964,0,0,1,108.7-7.688,3.992,3.992,0,0,1,110.835-8.265Zm-.57,7.02a2.052,2.052,0,0,0,1.493-.577,1.92,1.92,0,0,0,.592-1.433V-3.78l-2.295.51a1.516,1.516,0,0,0-.787.383.893.893,0,0,0-.278.652.863.863,0,0,0,.345.728A1.5,1.5,0,0,0,110.265-1.245ZM119.235.09a2.841,2.841,0,0,1-2.1-.735,2.8,2.8,0,0,1-.735-2.07v-3.75h-1.47v-1.62h.24a1.244,1.244,0,0,0,.908-.315,1.2,1.2,0,0,0,.323-.9v-1.29h1.8v2.5h1.92v1.62H118.2v3.75q0,1.335,1.425,1.335a3.468,3.468,0,0,0,.54-.045V.015A6.023,6.023,0,0,1,119.235.09Zm2.145-9.24v-2.025h1.8V-9.15Zm0,9.15V-8.085h1.8V0Zm10.29-1.028A4.139,4.139,0,0,1,128.655.18a4.139,4.139,0,0,1-3.015-1.208,4.061,4.061,0,0,1-1.23-3.023,4.049,4.049,0,0,1,1.223-3.015,4.146,4.146,0,0,1,3.022-1.2,4.146,4.146,0,0,1,3.023,1.2A4.049,4.049,0,0,1,132.9-4.05,4.061,4.061,0,0,1,131.67-1.028Zm-3.015-.458a2.226,2.226,0,0,0,1.7-.72,2.569,2.569,0,0,0,.675-1.83,2.6,2.6,0,0,0-.675-1.838,2.215,2.215,0,0,0-1.7-.727,2.208,2.208,0,0,0-1.7.727,2.613,2.613,0,0,0-.668,1.838,2.586,2.586,0,0,0,.668,1.83A2.219,2.219,0,0,0,128.655-1.485Zm9.51-6.78a2.988,2.988,0,0,1,2.2.84,2.929,2.929,0,0,1,.848,2.175V0h-1.8V-4.8a1.812,1.812,0,0,0-.472-1.3,1.633,1.633,0,0,0-1.238-.5,1.665,1.665,0,0,0-1.253.488,1.806,1.806,0,0,0-.473,1.313V0h-1.8V-8.085h1.7v.975A2.461,2.461,0,0,1,138.165-8.265Z" transform="translate(95.87 312.56)" fill="#333"/>
      <path id="Path_734" data-name="Path 734" d="M1.224,0V-13.41H5.6a6.893,6.893,0,0,1,5.031,1.854,6.465,6.465,0,0,1,1.9,4.842,6.5,6.5,0,0,1-1.9,4.851A6.874,6.874,0,0,1,5.6,0ZM3.492-2h2.16a4.413,4.413,0,0,0,3.33-1.287,4.729,4.729,0,0,0,1.242-3.429,4.7,4.7,0,0,0-1.242-3.42,4.43,4.43,0,0,0-3.33-1.278H3.492Zm19.8-3.2a4.015,4.015,0,0,1-.108.972H16.056a2.6,2.6,0,0,0,.837,1.845,2.723,2.723,0,0,0,1.9.693,2.494,2.494,0,0,0,2.358-1.35l1.782.864A3.662,3.662,0,0,1,21.357-.45a4.974,4.974,0,0,1-2.583.666A4.728,4.728,0,0,1,15.2-1.242a5.03,5.03,0,0,1-1.4-3.618,5.027,5.027,0,0,1,1.377-3.618,4.551,4.551,0,0,1,3.429-1.44A4.463,4.463,0,0,1,21.96-8.541,4.626,4.626,0,0,1,23.292-5.2Zm-7.2-.7H20.97a2.245,2.245,0,0,0-.738-1.584,2.311,2.311,0,0,0-1.62-.63,2.462,2.462,0,0,0-1.656.585A2.652,2.652,0,0,0,16.092-5.9Zm14.6-3.8h2.286L29.142,0H27.216L23.4-9.7h2.286l2.5,6.822Zm3.4-1.278v-2.43h2.16v2.43Zm0,10.98V-9.7h2.16V0Zm8.622.216A4.788,4.788,0,0,1,39.15-1.233,4.97,4.97,0,0,1,37.728-4.86,4.939,4.939,0,0,1,39.15-8.478a4.8,4.8,0,0,1,3.564-1.44,4.824,4.824,0,0,1,2.709.774,4.007,4.007,0,0,1,1.629,2.016l-1.872.936a2.594,2.594,0,0,0-.945-1.26,2.554,2.554,0,0,0-1.521-.468,2.519,2.519,0,0,0-1.962.864,3.193,3.193,0,0,0-.774,2.214,3.167,3.167,0,0,0,.774,2.2,2.519,2.519,0,0,0,1.962.864,2.578,2.578,0,0,0,1.53-.459A2.557,2.557,0,0,0,45.18-3.51l1.872.954A4.074,4.074,0,0,1,45.423-.567,4.784,4.784,0,0,1,42.714.216ZM57.366-5.2a4.015,4.015,0,0,1-.108.972H50.13a2.6,2.6,0,0,0,.837,1.845,2.723,2.723,0,0,0,1.9.693,2.494,2.494,0,0,0,2.358-1.35l1.782.864A3.662,3.662,0,0,1,55.431-.45a4.974,4.974,0,0,1-2.583.666,4.728,4.728,0,0,1-3.573-1.458A5.03,5.03,0,0,1,47.88-4.86a5.027,5.027,0,0,1,1.377-3.618,4.551,4.551,0,0,1,3.429-1.44,4.463,4.463,0,0,1,3.348,1.377A4.626,4.626,0,0,1,57.366-5.2Zm-7.2-.7h4.878a2.245,2.245,0,0,0-.738-1.584,2.311,2.311,0,0,0-1.62-.63,2.462,2.462,0,0,0-1.656.585A2.652,2.652,0,0,0,50.166-5.9ZM62.082,0V-13.41h4.374a6.893,6.893,0,0,1,5.031,1.854,6.465,6.465,0,0,1,1.9,4.842,6.5,6.5,0,0,1-1.9,4.851A6.874,6.874,0,0,1,66.456,0ZM64.35-2h2.16a4.413,4.413,0,0,0,3.33-1.287,4.729,4.729,0,0,0,1.242-3.429,4.7,4.7,0,0,0-1.242-3.42,4.43,4.43,0,0,0-3.33-1.278H64.35Zm19.8-3.2a4.015,4.015,0,0,1-.108.972H76.914a2.6,2.6,0,0,0,.837,1.845,2.723,2.723,0,0,0,1.9.693,2.494,2.494,0,0,0,2.358-1.35l1.782.864A3.662,3.662,0,0,1,82.215-.45a4.974,4.974,0,0,1-2.583.666,4.728,4.728,0,0,1-3.573-1.458,5.03,5.03,0,0,1-1.4-3.618,5.027,5.027,0,0,1,1.377-3.618,4.551,4.551,0,0,1,3.429-1.44,4.463,4.463,0,0,1,3.348,1.377A4.626,4.626,0,0,1,84.15-5.2Zm-7.2-.7h4.878a2.245,2.245,0,0,0-.738-1.584,2.311,2.311,0,0,0-1.62-.63,2.462,2.462,0,0,0-1.656.585A2.652,2.652,0,0,0,76.95-5.9ZM89.892.108a3.41,3.41,0,0,1-2.52-.882,3.359,3.359,0,0,1-.882-2.484v-4.5H84.726V-9.7h.288A1.493,1.493,0,0,0,86.1-10.08a1.441,1.441,0,0,0,.387-1.08v-1.548h2.16V-9.7h2.3v1.944h-2.3v4.5q0,1.6,1.71,1.6a4.162,4.162,0,0,0,.648-.054V.018A7.228,7.228,0,0,1,89.892.108Zm6.57-10.026a4.216,4.216,0,0,1,2.871.963A3.131,3.131,0,0,1,100.44-6.48V0H98.406V-1.08a3.559,3.559,0,0,1-2.88,1.3,3.854,3.854,0,0,1-2.565-.81A2.585,2.585,0,0,1,92-2.664q0-2.142,3.1-2.826l3.186-.684V-6.48a1.331,1.331,0,0,0-.5-1.08,2,2,0,0,0-1.314-.414,2.409,2.409,0,0,0-1.368.4,2.254,2.254,0,0,0-.864,1.1l-1.872-.936A3.557,3.557,0,0,1,93.9-9.225,4.79,4.79,0,0,1,96.462-9.918Zm-.684,8.424a2.462,2.462,0,0,0,1.791-.693,2.3,2.3,0,0,0,.711-1.719v-.63l-2.754.612a1.82,1.82,0,0,0-.945.459,1.072,1.072,0,0,0-.333.783,1.035,1.035,0,0,0,.414.873A1.8,1.8,0,0,0,95.778-1.494ZM102.1-10.98v-2.43h2.16v2.43ZM102.1,0V-9.7h2.16V0Zm4.176,0V-13.41h2.16V0Zm7.9.216A4.92,4.92,0,0,1,111.5-.513,3.8,3.8,0,0,1,109.89-2.5l1.674-.81a2.67,2.67,0,0,0,2.61,1.764,2,2,0,0,0,1.161-.306.942.942,0,0,0,.441-.81q0-.774-1.278-1.116l-1.656-.432q-2.538-.7-2.538-2.772a2.6,2.6,0,0,1,1-2.124,4,4,0,0,1,2.6-.81,4.623,4.623,0,0,1,2.493.666,3.654,3.654,0,0,1,1.521,1.836l-1.692.792a2.23,2.23,0,0,0-.882-1.08,2.592,2.592,0,0,0-1.44-.4,1.811,1.811,0,0,0-1.062.279.87.87,0,0,0-.4.747q0,.738,1.17,1.08l1.728.486q2.574.72,2.574,2.79a2.561,2.561,0,0,1-1.044,2.124A4.278,4.278,0,0,1,114.174.216Z" transform="translate(351.87 157.68)"/>
      <path id="Path_733" data-name="Path 733" d="M7.812-13.41,12.528,0H10.116L9.108-2.952H3.636L2.646,0H.234l4.7-13.41ZM4.3-4.95h4.14l-2.07-6.084ZM20.52-13.41h2.16V0H20.628V-1.134A3.9,3.9,0,0,1,17.442.216a4.68,4.68,0,0,1-3.5-1.458,4.972,4.972,0,0,1-1.413-3.6A4.978,4.978,0,0,1,13.95-8.46a4.667,4.667,0,0,1,3.474-1.458,3.771,3.771,0,0,1,3.1,1.3ZM17.658-1.782a2.705,2.705,0,0,0,2.052-.855,3.076,3.076,0,0,0,.81-2.205,3.116,3.116,0,0,0-.81-2.2,2.678,2.678,0,0,0-2.052-.873,2.7,2.7,0,0,0-2.07.873,3.116,3.116,0,0,0-.81,2.2,3.083,3.083,0,0,0,.81,2.2A2.712,2.712,0,0,0,17.658-1.782ZM32.2-13.41h2.16V0H32.31V-1.134A3.9,3.9,0,0,1,29.124.216a4.68,4.68,0,0,1-3.5-1.458,4.972,4.972,0,0,1-1.413-3.6A4.978,4.978,0,0,1,25.632-8.46a4.667,4.667,0,0,1,3.474-1.458,3.771,3.771,0,0,1,3.1,1.3ZM29.34-1.782a2.705,2.705,0,0,0,2.052-.855,3.076,3.076,0,0,0,.81-2.205,3.116,3.116,0,0,0-.81-2.2A2.678,2.678,0,0,0,29.34-7.92a2.7,2.7,0,0,0-2.07.873,3.115,3.115,0,0,0-.81,2.2,3.083,3.083,0,0,0,.81,2.2A2.712,2.712,0,0,0,29.34-1.782ZM43.524-9.918a4.216,4.216,0,0,1,2.871.963A3.131,3.131,0,0,1,47.5-6.48V0H45.468V-1.08a3.559,3.559,0,0,1-2.88,1.3,3.854,3.854,0,0,1-2.565-.81,2.585,2.585,0,0,1-.963-2.07q0-2.142,3.1-2.826l3.186-.684V-6.48a1.331,1.331,0,0,0-.5-1.08,2,2,0,0,0-1.314-.414,2.409,2.409,0,0,0-1.368.4,2.254,2.254,0,0,0-.864,1.1L39.42-7.416a3.557,3.557,0,0,1,1.539-1.809A4.79,4.79,0,0,1,43.524-9.918ZM42.84-1.494a2.462,2.462,0,0,0,1.791-.693,2.3,2.3,0,0,0,.711-1.719v-.63l-2.754.612a1.82,1.82,0,0,0-.945.459,1.072,1.072,0,0,0-.333.783,1.035,1.035,0,0,0,.414.873A1.8,1.8,0,0,0,42.84-1.494ZM52.578,0V-13.41h4.374a6.893,6.893,0,0,1,5.031,1.854,6.465,6.465,0,0,1,1.9,4.842,6.5,6.5,0,0,1-1.9,4.851A6.874,6.874,0,0,1,56.952,0Zm2.268-2h2.16a4.413,4.413,0,0,0,3.33-1.287,4.729,4.729,0,0,0,1.242-3.429,4.7,4.7,0,0,0-1.242-3.42,4.43,4.43,0,0,0-3.33-1.278h-2.16Zm19.8-3.2a4.015,4.015,0,0,1-.108.972H67.41a2.6,2.6,0,0,0,.837,1.845,2.723,2.723,0,0,0,1.9.693A2.494,2.494,0,0,0,72.5-3.042l1.782.864A3.662,3.662,0,0,1,72.711-.45a4.974,4.974,0,0,1-2.583.666,4.728,4.728,0,0,1-3.573-1.458,5.03,5.03,0,0,1-1.4-3.618,5.027,5.027,0,0,1,1.377-3.618,4.551,4.551,0,0,1,3.429-1.44,4.463,4.463,0,0,1,3.348,1.377A4.626,4.626,0,0,1,74.646-5.2Zm-7.2-.7h4.878a2.245,2.245,0,0,0-.738-1.584,2.311,2.311,0,0,0-1.62-.63,2.462,2.462,0,0,0-1.656.585A2.652,2.652,0,0,0,67.446-5.9Zm14.6-3.8H84.33L80.5,0H78.57L74.754-9.7H77.04l2.5,6.822Zm3.4-1.278v-2.43h2.16v2.43Zm0,10.98V-9.7h2.16V0Zm8.622.216A4.788,4.788,0,0,1,90.5-1.233,4.97,4.97,0,0,1,89.082-4.86,4.939,4.939,0,0,1,90.5-8.478a4.8,4.8,0,0,1,3.564-1.44,4.824,4.824,0,0,1,2.709.774,4.007,4.007,0,0,1,1.629,2.016l-1.872.936a2.594,2.594,0,0,0-.945-1.26,2.554,2.554,0,0,0-1.521-.468,2.519,2.519,0,0,0-1.962.864,3.193,3.193,0,0,0-.774,2.214,3.167,3.167,0,0,0,.774,2.2,2.519,2.519,0,0,0,1.962.864,2.578,2.578,0,0,0,1.53-.459,2.557,2.557,0,0,0,.936-1.269l1.872.954A4.074,4.074,0,0,1,96.777-.567,4.784,4.784,0,0,1,94.068.216ZM108.72-5.2a4.015,4.015,0,0,1-.108.972h-7.128a2.6,2.6,0,0,0,.837,1.845,2.723,2.723,0,0,0,1.9.693,2.494,2.494,0,0,0,2.358-1.35l1.782.864A3.662,3.662,0,0,1,106.785-.45,4.974,4.974,0,0,1,104.2.216a4.728,4.728,0,0,1-3.573-1.458,5.03,5.03,0,0,1-1.4-3.618,5.027,5.027,0,0,1,1.377-3.618,4.551,4.551,0,0,1,3.429-1.44,4.463,4.463,0,0,1,3.348,1.377A4.626,4.626,0,0,1,108.72-5.2Zm-7.2-.7H106.4a2.245,2.245,0,0,0-.738-1.584,2.311,2.311,0,0,0-1.62-.63,2.462,2.462,0,0,0-1.656.585A2.652,2.652,0,0,0,101.52-5.9Z" transform="translate(92.87 54.68)"/>
      <rect id="Rectangle_2" data-name="Rectangle 2" width="379.62" height="54.14" rx="7.62" transform="translate(352.15 215.96)" fill="#fff"/>
      <path id="Path_1" data-name="Path 1" d="M1289,485.86a7.26,7.26,0,0,1,7.25,7.25V532a7.26,7.26,0,0,1-7.25,7.25H924.63a7.26,7.26,0,0,1-7.25-7.25V493.11a7.26,7.26,0,0,1,7.25-7.25H1289m0-.75H924.63a8,8,0,0,0-8,8V532a8,8,0,0,0,8,8H1289a8,8,0,0,0,8-8V493.11A8,8,0,0,0,1289,485.11Z" transform="translate(-564.86 -269.52)" fill="#e6e6e6"/>
      <path id="Path_732" data-name="Path 732" d="M1.14,0V-11.175H4.815a5.458,5.458,0,0,1,4.05,1.523A5.5,5.5,0,0,1,10.38-5.6,5.515,5.515,0,0,1,8.858-1.538,5.435,5.435,0,0,1,4.815,0ZM2.565-1.245h2.25A3.887,3.887,0,0,0,7.793-2.438,4.431,4.431,0,0,0,8.91-5.6a4.4,4.4,0,0,0-1.118-3.15A3.9,3.9,0,0,0,4.815-9.93H2.565ZM19.26-4.32a4.29,4.29,0,0,1-.06.735H13.035a2.619,2.619,0,0,0,.8,1.875,2.57,2.57,0,0,0,1.837.72,2.414,2.414,0,0,0,2.28-1.41l1.125.6A3.235,3.235,0,0,1,17.767-.383,3.967,3.967,0,0,1,15.66.18,3.767,3.767,0,0,1,12.817-1,4.148,4.148,0,0,1,11.685-3.99a4.158,4.158,0,0,1,1.1-2.97,3.643,3.643,0,0,1,2.767-1.17,3.468,3.468,0,0,1,2.678,1.118A3.838,3.838,0,0,1,19.26-4.32ZM13.065-4.7h4.77a2.234,2.234,0,0,0-.7-1.635,2.208,2.208,0,0,0-1.583-.66,2.406,2.406,0,0,0-1.658.622A2.6,2.6,0,0,0,13.065-4.7ZM25.71-7.95h1.44L23.955,0H22.77L19.59-7.95h1.44l2.34,6.18Zm2.55-1.47v-1.755h1.29V-9.42Zm0,9.42V-7.95h1.29V0Zm6.675.18a3.756,3.756,0,0,1-2.843-1.193A4.155,4.155,0,0,1,30.96-3.99a4.1,4.1,0,0,1,1.132-2.963A3.779,3.779,0,0,1,34.935-8.13a3.773,3.773,0,0,1,2.07.593A3.228,3.228,0,0,1,38.31-6.03l-1.155.6A2.457,2.457,0,0,0,36.278-6.5a2.341,2.341,0,0,0-1.342-.39,2.406,2.406,0,0,0-1.868.825,3,3,0,0,0-.743,2.085A3.006,3.006,0,0,0,33.068-1.9a2.4,2.4,0,0,0,1.868.833,2.341,2.341,0,0,0,1.342-.39,2.457,2.457,0,0,0,.877-1.065l1.155.6A3.273,3.273,0,0,1,37-.42,3.749,3.749,0,0,1,34.935.18Zm11.88-4.5a4.289,4.289,0,0,1-.06.735H40.59a2.619,2.619,0,0,0,.8,1.875,2.57,2.57,0,0,0,1.837.72A2.414,2.414,0,0,0,45.51-2.4l1.125.6A3.235,3.235,0,0,1,45.323-.383,3.967,3.967,0,0,1,43.215.18,3.767,3.767,0,0,1,40.373-1,4.148,4.148,0,0,1,39.24-3.99a4.158,4.158,0,0,1,1.1-2.97A3.643,3.643,0,0,1,43.11-8.13a3.468,3.468,0,0,1,2.678,1.118A3.838,3.838,0,0,1,46.815-4.32ZM40.62-4.7h4.77a2.234,2.234,0,0,0-.7-1.635,2.208,2.208,0,0,0-1.583-.66,2.406,2.406,0,0,0-1.658.622A2.6,2.6,0,0,0,40.62-4.7Zm17.43-6.48h1.425V0h-1.2L52.35-8.505V0H50.925V-11.175h1.2L58.05-2.73ZM64.665-8.13a3.232,3.232,0,0,1,2.227.765,2.524,2.524,0,0,1,.863,1.98V0H66.5V-1.11a2.845,2.845,0,0,1-1.072.945A3.075,3.075,0,0,1,63.99.18a3.058,3.058,0,0,1-2.048-.668A2.149,2.149,0,0,1,61.155-2.2a1.9,1.9,0,0,1,.667-1.47,4.1,4.1,0,0,1,1.882-.87l2.76-.615v-.225a1.359,1.359,0,0,0-.5-1.095,1.955,1.955,0,0,0-1.3-.42,2.262,2.262,0,0,0-1.245.345,2.134,2.134,0,0,0-.81.945l-1.155-.6a2.951,2.951,0,0,1,1.237-1.372A3.7,3.7,0,0,1,64.665-8.13Zm-.6,7.155a2.3,2.3,0,0,0,1.718-.7,2.4,2.4,0,0,0,.682-1.748v-.69l-2.46.57a2.367,2.367,0,0,0-1.087.5,1.08,1.08,0,0,0-.4.833,1.083,1.083,0,0,0,.42.9A1.772,1.772,0,0,0,64.065-.975ZM77.94-8.13A2.771,2.771,0,0,1,80-7.312a2.828,2.828,0,0,1,.81,2.077V0h-1.29V-4.815a2.153,2.153,0,0,0-.51-1.515,1.764,1.764,0,0,0-1.365-.555,1.758,1.758,0,0,0-1.357.563,2.139,2.139,0,0,0-.518,1.508V0h-1.29V-4.815a2.153,2.153,0,0,0-.51-1.515A1.764,1.764,0,0,0,72.6-6.885a1.758,1.758,0,0,0-1.357.563,2.139,2.139,0,0,0-.518,1.508V0h-1.29V-7.95H70.7v.915A2.456,2.456,0,0,1,72.9-8.13a2.923,2.923,0,0,1,1.47.375A2.6,2.6,0,0,1,75.39-6.72a2.615,2.615,0,0,1,1.043-1.043A3.073,3.073,0,0,1,77.94-8.13ZM89.76-4.32a4.289,4.289,0,0,1-.06.735H83.535a2.619,2.619,0,0,0,.8,1.875,2.57,2.57,0,0,0,1.838.72,2.414,2.414,0,0,0,2.28-1.41l1.125.6A3.235,3.235,0,0,1,88.268-.383,3.967,3.967,0,0,1,86.16.18,3.767,3.767,0,0,1,83.318-1,4.148,4.148,0,0,1,82.185-3.99a4.158,4.158,0,0,1,1.1-2.97,3.643,3.643,0,0,1,2.768-1.17,3.468,3.468,0,0,1,2.677,1.118A3.838,3.838,0,0,1,89.76-4.32ZM83.565-4.7h4.77a2.234,2.234,0,0,0-.7-1.635,2.208,2.208,0,0,0-1.582-.66,2.406,2.406,0,0,0-1.658.622A2.6,2.6,0,0,0,83.565-4.7Z" transform="translate(352.87 299.56)" fill="#333"/>
      <rect id="Rectangle_3" data-name="Rectangle 3" width="380.37" height="53.89" rx="8" transform="translate(351.77 311.59)" fill="#f4f6fa"/>
      <path id="Path_731" data-name="Path 731" d="M8.512-11.92h2.032V0H8.928L3.1-8.1V0H1.088V-11.92h1.6L8.512-3.9ZM20.5-4.624a3.569,3.569,0,0,1-.1.864H14.064a2.312,2.312,0,0,0,.744,1.64A2.421,2.421,0,0,0,16.5-1.5a2.217,2.217,0,0,0,2.1-1.2l1.584.768A3.255,3.255,0,0,1,18.776-.4a4.421,4.421,0,0,1-2.3.592A4.2,4.2,0,0,1,13.3-1.1a4.471,4.471,0,0,1-1.24-3.216,4.468,4.468,0,0,1,1.224-3.216,4.045,4.045,0,0,1,3.048-1.28,3.967,3.967,0,0,1,2.976,1.224A4.112,4.112,0,0,1,20.5-4.624Zm-6.4-.624h4.336a2,2,0,0,0-.656-1.408,2.054,2.054,0,0,0-1.44-.56,2.188,2.188,0,0,0-1.472.52A2.357,2.357,0,0,0,14.1-5.248ZM29.04-8.624l-3.056,4.3L29.024,0H26.768l-1.92-2.816L22.928,0H20.672l3.04-4.32-3.04-4.3h2.24l1.936,2.816L26.8-8.624ZM34.048.1a3.031,3.031,0,0,1-2.24-.784A2.986,2.986,0,0,1,31.024-2.9v-4H29.456V-8.624h.256a1.327,1.327,0,0,0,.968-.336,1.281,1.281,0,0,0,.344-.96V-11.3h1.92v2.672h2.048V-6.9H32.944v4q0,1.424,1.52,1.424a3.7,3.7,0,0,0,.576-.048V.016A6.425,6.425,0,0,1,34.048.1Z" transform="translate(624.84 432.4)" fill="#fff"/>
      <line id="Line_1" data-name="Line 1" y2="432.77" transform="translate(300.84 89.21)" fill="#e6e6e6" stroke="#e6e6e6" stroke-miterlimit="10" stroke-width="0.75"/>
      <circle id="Ellipse_1" data-name="Ellipse 1" cx="19.5" cy="19.5" r="19.5" transform="translate(44.34 157.5)" fill="#3399fe"/>
      <path id="Path_730" data-name="Path 730" d="M3.024,0V-11.934H.5V-13.41h4.23V0Z" transform="translate(60.72 184.6)" fill="#fff"/>
      <circle id="Ellipse_2" data-name="Ellipse 2" cx="19.5" cy="19.5" r="19.5" transform="translate(44.84 223)" fill="#d4d5d6"/>
      <path id="Path_729" data-name="Path 729" d="M.936,0,.918-1.152,4.644-5.04a25.287,25.287,0,0,0,2.4-2.826,3.433,3.433,0,0,0,.639-1.926,2.256,2.256,0,0,0-.639-1.71,2.484,2.484,0,0,0-1.791-.612A2.982,2.982,0,0,0,2.178-9.972l-1.35-.684a4.163,4.163,0,0,1,1.665-2.169,4.914,4.914,0,0,1,2.8-.8,4.206,4.206,0,0,1,2.952,1.053A3.5,3.5,0,0,1,9.4-9.864a4.292,4.292,0,0,1-.657,2.205A16.071,16.071,0,0,1,6.57-4.968L3.258-1.476H9.72V0Z" transform="translate(59.53 249.1)" fill="#fff"/>
      <circle id="Ellipse_3" data-name="Ellipse 3" cx="19.5" cy="19.5" r="19.5" transform="translate(45.84 287)" fill="#d4d5d6"/>
      <path id="Path_728" data-name="Path 728" d="M6.354-8.28A3.843,3.843,0,0,1,8.865-6.9a4.166,4.166,0,0,1,1,2.781A4.111,4.111,0,0,1,8.577-1.008,4.574,4.574,0,0,1,5.292.216,4.935,4.935,0,0,1,2.52-.576,4.287,4.287,0,0,1,.81-2.754l1.368-.684A3.223,3.223,0,0,0,3.384-1.863,3.3,3.3,0,0,0,5.292-1.3a2.835,2.835,0,0,0,2.07-.774,2.693,2.693,0,0,0,.792-2.016,2.655,2.655,0,0,0-.8-2,2.867,2.867,0,0,0-2.079-.774,4.442,4.442,0,0,0-1.08.126L3.978-7.65l3.456-4.266L1.44-11.934V-13.41h7.9v1.44Z" transform="translate(60.46 313.1)" fill="#fff"/>
      <line id="Line_2" data-name="Line 2" x2="376.56" transform="translate(355.58 388.5)" fill="none" stroke="#e6e6e6" stroke-miterlimit="10" stroke-width="0.75"/>
      <line id="Line_3" data-name="Line 3" x2="790" transform="translate(0.14 89.48)" fill="none" stroke="#e6e6e6" stroke-miterlimit="10" stroke-width="0.75"/>
      <rect id="Rectangle_4" data-name="Rectangle 4" width="33.41" height="3.51" rx="1" transform="translate(46.89 57.85)" fill="#329afc"/>
      <rect id="Rectangle_5" data-name="Rectangle 5" width="27.44" height="19.67" rx="1" transform="translate(49.53 36.49)" fill="none" stroke="#3399fe" stroke-miterlimit="10" stroke-width="2.5"/>
      <rect id="Rectangle_6" data-name="Rectangle 6" width="127" height="50.84" rx="8" transform="translate(605.29 410.13)" fill="#3399fe"/>
      <path id="Path_739" data-name="Path 739" d="M8.512-11.92h2.032V0H8.928L3.1-8.1V0H1.088V-11.92h1.6L8.512-3.9ZM20.5-4.624a3.569,3.569,0,0,1-.1.864H14.064a2.312,2.312,0,0,0,.744,1.64A2.421,2.421,0,0,0,16.5-1.5a2.217,2.217,0,0,0,2.1-1.2l1.584.768A3.255,3.255,0,0,1,18.776-.4a4.421,4.421,0,0,1-2.3.592A4.2,4.2,0,0,1,13.3-1.1a4.471,4.471,0,0,1-1.24-3.216,4.468,4.468,0,0,1,1.224-3.216,4.045,4.045,0,0,1,3.048-1.28,3.967,3.967,0,0,1,2.976,1.224A4.112,4.112,0,0,1,20.5-4.624Zm-6.4-.624h4.336a2,2,0,0,0-.656-1.408,2.054,2.054,0,0,0-1.44-.56,2.188,2.188,0,0,0-1.472.52A2.357,2.357,0,0,0,14.1-5.248ZM29.04-8.624l-3.056,4.3L29.024,0H26.768l-1.92-2.816L22.928,0H20.672l3.04-4.32-3.04-4.3h2.24l1.936,2.816L26.8-8.624ZM34.048.1a3.031,3.031,0,0,1-2.24-.784A2.986,2.986,0,0,1,31.024-2.9v-4H29.456V-8.624h.256a1.327,1.327,0,0,0,.968-.336,1.281,1.281,0,0,0,.344-.96V-11.3h1.92v2.672h2.048V-6.9H32.944v4q0,1.424,1.52,1.424a3.7,3.7,0,0,0,.576-.048V.016A6.425,6.425,0,0,1,34.048.1Z" transform="translate(637.29 440.9)" fill="#fff"/>
      <line id="Line_4" data-name="Line 4" x1="13.06" transform="translate(687.98 434.78)" fill="none" stroke="#fff" stroke-miterlimit="10" stroke-width="1.5" opacity="0.3"/>
      <line id="Line_5" data-name="Line 5" x2="6.1" y2="6.09" transform="translate(695.38 428.69)" fill="none" stroke="#fff" stroke-linejoin="bevel" stroke-width="1.5"/>
      <line id="Line_6" data-name="Line 6" x1="6.1" y2="6.1" transform="translate(695.38 434.78)" fill="none" stroke="#fff" stroke-linecap="square" stroke-miterlimit="10" stroke-width="1.5"/>
    </g>
  </g>
</svg>
