<svg xmlns="http://www.w3.org/2000/svg" xmlns:xlink="http://www.w3.org/1999/xlink" width="890" height="760" viewBox="0 0 890 760">
  <defs>
    <filter id="Rectangle_7" x="68.544" y="52.332" width="752.454" height="669.338" filterUnits="userSpaceOnUse">
      <feOffset dy="7" input="SourceAlpha"/>
      <feGaussianBlur stdDeviation="9" result="blur"/>
      <feFlood flood-color="#121212" flood-opacity="0.157"/>
      <feComposite operator="in" in2="blur"/>
      <feComposite in="SourceGraphic"/>
    </filter>
  </defs>
  <g id="Add_Network-step-2" transform="translate(-776 3681)">
    <rect id="Rectangle_39" data-name="Rectangle 39" width="890" height="760" rx="11" transform="translate(776 -3681)" fill="#f5f5f5"/>
    <g id="Add_Network-step-2-2" data-name="Add_Network-step-2" transform="translate(871.544 -3608.668)">
      <g transform="matrix(1, 0, 0, 1, -95.54, -72.33)" filter="url(#Rectangle_7)">
        <rect id="Rectangle_7-2" data-name="Rectangle 7" width="698.454" height="615.338" rx="10" transform="translate(95.54 72.33)" fill="#fff"/>
      </g>
      <path id="Path_2" data-name="Path 2" d="M629.812,337.06h1.423v10.96h-1.193l-5.939-8.325v8.325H622.68V337.06h1.212l5.93,8.261Z" transform="translate(-570.727 -215.502)" fill="#333"/>
      <path id="Path_3" data-name="Path 3" d="M641.432,344.036a3.523,3.523,0,0,1-.064.716H635.2a2.506,2.506,0,0,0,.8,1.836,2.58,2.58,0,0,0,1.836.707,2.433,2.433,0,0,0,2.286-1.377l1.12.587a3.168,3.168,0,0,1-1.313,1.386,4.049,4.049,0,0,1-2.111.551,3.818,3.818,0,0,1-2.845-1.157,4.351,4.351,0,0,1,0-5.838,3.672,3.672,0,0,1,2.754-1.138,3.5,3.5,0,0,1,2.689,1.092A3.672,3.672,0,0,1,641.432,344.036Zm-6.205-.367H640a2.129,2.129,0,0,0-.7-1.6,2.221,2.221,0,0,0-1.579-.652,2.4,2.4,0,0,0-1.661.615,2.5,2.5,0,0,0-.835,1.661Z" transform="translate(-571.643 -215.768)" fill="#333"/>
      <path id="Path_4" data-name="Path 4" d="M646.889,348.141a2.516,2.516,0,0,1-1.836-.643,2.423,2.423,0,0,1-.652-1.836v-4.2H642.85v-1.184h.4a1.1,1.1,0,0,0,1.147-1.147V337.75h1.285v2.524h1.891v1.2H645.65v4.2a2.1,2.1,0,0,0,.046.441,1.84,1.84,0,0,0,.165.441.918.918,0,0,0,.459.386,1.936,1.936,0,0,0,.789.138,2.754,2.754,0,0,0,.56-.046v1.037A3.285,3.285,0,0,1,646.889,348.141Z" transform="translate(-572.382 -215.558)" fill="#333"/>
      <path id="Path_5" data-name="Path 5" d="M659.391,340.5h1.45l-2.754,7.784h-1.2l-1.946-6.049-1.964,6.067h-1.221L649,340.518h1.46l1.937,5.92,1.836-5.92h1.414l1.836,5.884Z" transform="translate(-572.887 -215.784)" fill="#333"/>
      <path id="Path_6" data-name="Path 6" d="M669.621,347.286a4.277,4.277,0,0,1-5.847,0,3.947,3.947,0,0,1-1.184-2.928,3.892,3.892,0,0,1,1.184-2.91,4.323,4.323,0,0,1,5.847,0,3.919,3.919,0,0,1,1.175,2.91A3.974,3.974,0,0,1,669.621,347.286Zm-4.874-.918a2.754,2.754,0,0,0,3.892,0,3.011,3.011,0,0,0,0-4.066,2.754,2.754,0,0,0-3.892,0,3.011,3.011,0,0,0,0,4.066Z" transform="translate(-574.003 -215.768)" fill="#333"/>
      <path id="Path_7" data-name="Path 7" d="M676.6,340.4h.652v1.2H676.4a1.836,1.836,0,0,0-1.4.542,2.074,2.074,0,0,0-.514,1.487v4.663H673.2v-7.8h1.248v.964A2.3,2.3,0,0,1,676.6,340.4Z" transform="translate(-574.874 -215.775)" fill="#333"/>
      <path id="Path_8" data-name="Path 8" d="M685.618,340.218l-2.937,3.112,2.937,4.69h-1.487l-2.313-3.736-1.414,1.487v2.249H679.11V337.06H680.4v6.976l3.672-3.819Z" transform="translate(-575.359 -215.502)" fill="#333"/>
      <path id="Path_9" data-name="Path 9" d="M697.5,337.06h1.423v10.96h-1.2l-5.93-8.325v8.325H690.36V337.06h1.2l5.939,8.261Z" transform="translate(-576.282 -215.502)" fill="#333"/>
      <path id="Path_10" data-name="Path 10" d="M705.046,340.31a3.3,3.3,0,0,1,2.231.744,2.451,2.451,0,0,1,.863,1.937v5.3h-1.267v-1.092a2.753,2.753,0,0,1-1.074.918,3.048,3.048,0,0,1-1.432.34,3.112,3.112,0,0,1-2.047-.652,2.075,2.075,0,0,1-.789-1.68,1.836,1.836,0,0,1,.661-1.441,4.158,4.158,0,0,1,1.891-.854l2.754-.606V343a1.285,1.285,0,0,0-.5-1.065,1.955,1.955,0,0,0-1.294-.413,2.249,2.249,0,0,0-1.239.34,2.138,2.138,0,0,0-.817.918l-1.157-.587a2.929,2.929,0,0,1,1.239-1.34,3.773,3.773,0,0,1,1.983-.542Zm-.606,7a2.341,2.341,0,0,0,2.4-2.4v-.679l-2.46.56a2.415,2.415,0,0,0-1.092.5,1.038,1.038,0,0,0-.395.817,1.074,1.074,0,0,0,.413.918,1.836,1.836,0,0,0,1.129.285Z" transform="translate(-577.199 -215.768)" fill="#333"/>
      <path id="Path_11" data-name="Path 11" d="M719.082,340.31a2.818,2.818,0,0,1,2.056.8,2.754,2.754,0,0,1,.808,2.029v5.149h-1.285v-4.718a2.066,2.066,0,0,0-.514-1.478,1.964,1.964,0,0,0-2.754,0,2.065,2.065,0,0,0-.523,1.478v4.718h-1.294v-4.718a2.065,2.065,0,0,0-.5-1.478,1.964,1.964,0,0,0-2.754,0,2.065,2.065,0,0,0-.523,1.478v4.718H710.5v-7.8h1.267v.918a2.469,2.469,0,0,1,2.212-1.065,2.928,2.928,0,0,1,1.469.367,2.506,2.506,0,0,1,1.019,1.01,2.663,2.663,0,0,1,1.046-1.019A3.176,3.176,0,0,1,719.082,340.31Z" transform="translate(-577.936 -215.768)" fill="#333"/>
      <path id="Path_12" data-name="Path 12" d="M732.076,344.036a3.514,3.514,0,0,1-.064.716H725.88a2.552,2.552,0,0,0,.808,1.836,2.579,2.579,0,0,0,1.836.707,2.414,2.414,0,0,0,2.276-1.377l1.129.587a3.167,3.167,0,0,1-1.313,1.386,4.048,4.048,0,0,1-2.111.551,3.809,3.809,0,0,1-2.845-1.157,4.36,4.36,0,0,1,0-5.838,3.672,3.672,0,0,1,2.754-1.138A3.516,3.516,0,0,1,731.1,341.4a3.726,3.726,0,0,1,.973,2.634Zm-6.2-.34h4.773a2.13,2.13,0,0,0-.7-1.6,2.24,2.24,0,0,0-1.588-.652,2.4,2.4,0,0,0-1.652.615,2.461,2.461,0,0,0-.835,1.634Z" transform="translate(-579.088 -215.768)" fill="#333"/>
      <path id="Path_706" data-name="Path 706" d="M7.98-11.175H9.885V0H8.37L2.91-7.59V0H1.02V-11.175h1.5L7.98-3.66Zm11.235,6.84a3.346,3.346,0,0,1-.09.81h-5.94a2.167,2.167,0,0,0,.7,1.538,2.269,2.269,0,0,0,1.583.577A2.078,2.078,0,0,0,17.43-2.535l1.485.72A3.051,3.051,0,0,1,17.6-.375,4.145,4.145,0,0,1,15.45.18a3.94,3.94,0,0,1-2.977-1.215A4.192,4.192,0,0,1,11.31-4.05a4.189,4.189,0,0,1,1.148-3.015,3.792,3.792,0,0,1,2.858-1.2A3.719,3.719,0,0,1,18.1-7.118,3.855,3.855,0,0,1,19.215-4.335Zm-6-.585H17.28a1.871,1.871,0,0,0-.615-1.32,1.926,1.926,0,0,0-1.35-.525,2.051,2.051,0,0,0-1.38.488A2.21,2.21,0,0,0,13.215-4.92ZM24,.09a2.841,2.841,0,0,1-2.1-.735,2.8,2.8,0,0,1-.735-2.07v-3.75h-1.47v-1.62h.24a1.244,1.244,0,0,0,.907-.315,1.2,1.2,0,0,0,.323-.9v-1.29h1.8v2.5h1.92v1.62h-1.92v3.75q0,1.335,1.425,1.335a3.468,3.468,0,0,0,.54-.045V.015A6.023,6.023,0,0,1,24,.09ZM36.18-8.085H38.1L35.3,0h-1.6L31.785-5.79,29.865,0h-1.62l-2.79-8.085h1.9l1.71,5.43,1.71-5.43h2l1.71,5.43ZM45.6-1.028A4.139,4.139,0,0,1,42.585.18,4.139,4.139,0,0,1,39.57-1.028,4.061,4.061,0,0,1,38.34-4.05a4.049,4.049,0,0,1,1.223-3.015,4.146,4.146,0,0,1,3.022-1.2,4.146,4.146,0,0,1,3.022,1.2A4.05,4.05,0,0,1,46.83-4.05,4.061,4.061,0,0,1,45.6-1.028Zm-3.015-.458A2.226,2.226,0,0,0,44.28-2.2a2.569,2.569,0,0,0,.675-1.83,2.6,2.6,0,0,0-.675-1.838A2.215,2.215,0,0,0,42.585-6.6a2.208,2.208,0,0,0-1.7.727,2.613,2.613,0,0,0-.667,1.838,2.586,2.586,0,0,0,.667,1.83A2.219,2.219,0,0,0,42.585-1.485Zm9.4-6.69h.75v1.62h-.975a1.8,1.8,0,0,0-1.35.525,2,2,0,0,0-.51,1.455V0H48.1V-8.085H49.8V-6.96A2.185,2.185,0,0,1,51.99-8.175Zm9.06.09L58.095-4.83,61.05,0H59.055l-2.13-3.54-1.26,1.365V0h-1.8V-11.175h1.8v6.57l3.27-3.48Zm9.12-3.09L74.1,0H72.09l-.84-2.46H66.69L65.865,0h-2.01L67.77-11.175Zm-2.925,7.05h3.45L68.97-9.2Zm13.515-7.05h1.8V0H80.85V-.945A3.25,3.25,0,0,1,78.195.18a3.9,3.9,0,0,1-2.917-1.215,4.144,4.144,0,0,1-1.178-3A4.148,4.148,0,0,1,75.285-7.05,3.889,3.889,0,0,1,78.18-8.265a3.142,3.142,0,0,1,2.58,1.08Zm-2.385,9.69a2.254,2.254,0,0,0,1.71-.712,2.563,2.563,0,0,0,.675-1.838,2.6,2.6,0,0,0-.675-1.838,2.232,2.232,0,0,0-1.71-.727,2.249,2.249,0,0,0-1.725.727,2.6,2.6,0,0,0-.675,1.838A2.569,2.569,0,0,0,76.65-2.2,2.26,2.26,0,0,0,78.375-1.485Zm12.12-9.69h1.8V0h-1.71V-.945A3.25,3.25,0,0,1,87.93.18a3.9,3.9,0,0,1-2.917-1.215,4.144,4.144,0,0,1-1.178-3A4.148,4.148,0,0,1,85.02-7.05a3.889,3.889,0,0,1,2.895-1.215,3.142,3.142,0,0,1,2.58,1.08ZM88.11-1.485A2.254,2.254,0,0,0,89.82-2.2,2.563,2.563,0,0,0,90.5-4.035a2.6,2.6,0,0,0-.675-1.838A2.232,2.232,0,0,0,88.11-6.6a2.249,2.249,0,0,0-1.725.727,2.6,2.6,0,0,0-.675,1.838,2.569,2.569,0,0,0,.675,1.83A2.26,2.26,0,0,0,88.11-1.485ZM97.9-8.175h.75v1.62H97.68a1.8,1.8,0,0,0-1.35.525,2,2,0,0,0-.51,1.455V0h-1.8V-8.085h1.695V-6.96A2.185,2.185,0,0,1,97.9-8.175Zm9.33,3.84a3.346,3.346,0,0,1-.09.81h-5.94a2.167,2.167,0,0,0,.7,1.538,2.269,2.269,0,0,0,1.582.577,2.078,2.078,0,0,0,1.965-1.125l1.485.72a3.051,3.051,0,0,1-1.312,1.44A4.145,4.145,0,0,1,103.47.18a3.94,3.94,0,0,1-2.978-1.215A4.192,4.192,0,0,1,99.33-4.05a4.189,4.189,0,0,1,1.147-3.015,3.792,3.792,0,0,1,2.858-1.2,3.719,3.719,0,0,1,2.79,1.148A3.855,3.855,0,0,1,107.235-4.335Zm-6-.585H105.3a1.871,1.871,0,0,0-.615-1.32,1.926,1.926,0,0,0-1.35-.525,2.051,2.051,0,0,0-1.38.488A2.21,2.21,0,0,0,101.235-4.92Zm10.2,5.1a4.1,4.1,0,0,1-2.228-.608,3.171,3.171,0,0,1-1.342-1.658l1.395-.675a2.225,2.225,0,0,0,2.175,1.47,1.665,1.665,0,0,0,.967-.255.785.785,0,0,0,.368-.675q0-.645-1.065-.93l-1.38-.36q-2.115-.585-2.115-2.31a2.169,2.169,0,0,1,.832-1.77,3.334,3.334,0,0,1,2.168-.675,3.852,3.852,0,0,1,2.077.555,3.045,3.045,0,0,1,1.268,1.53l-1.41.66a1.859,1.859,0,0,0-.735-.9,2.16,2.16,0,0,0-1.2-.33,1.509,1.509,0,0,0-.885.233.725.725,0,0,0-.33.622q0,.615.975.9l1.44.4q2.145.6,2.145,2.325a2.134,2.134,0,0,1-.87,1.77A3.565,3.565,0,0,1,111.435.18Zm7.41,0a4.1,4.1,0,0,1-2.228-.608,3.171,3.171,0,0,1-1.342-1.658l1.395-.675a2.225,2.225,0,0,0,2.175,1.47,1.665,1.665,0,0,0,.967-.255.785.785,0,0,0,.368-.675q0-.645-1.065-.93l-1.38-.36q-2.115-.585-2.115-2.31a2.169,2.169,0,0,1,.832-1.77,3.334,3.334,0,0,1,2.168-.675,3.852,3.852,0,0,1,2.077.555,3.045,3.045,0,0,1,1.268,1.53l-1.41.66a1.859,1.859,0,0,0-.735-.9,2.16,2.16,0,0,0-1.2-.33,1.509,1.509,0,0,0-.885.233.725.725,0,0,0-.33.622q0,.615.975.9l1.44.4q2.145.6,2.145,2.325A2.134,2.134,0,0,1,121.1-.5,3.565,3.565,0,0,1,118.845.18Z" transform="translate(51.724 221.694)" fill="#329afc"/>
      <path id="Path_705" data-name="Path 705" d="M7.98-11.175H9.885V0H8.37L2.91-7.59V0H1.02V-11.175h1.5L7.98-3.66Zm11.235,6.84a3.346,3.346,0,0,1-.09.81h-5.94a2.167,2.167,0,0,0,.7,1.538,2.269,2.269,0,0,0,1.583.577A2.078,2.078,0,0,0,17.43-2.535l1.485.72A3.051,3.051,0,0,1,17.6-.375,4.145,4.145,0,0,1,15.45.18a3.94,3.94,0,0,1-2.977-1.215A4.192,4.192,0,0,1,11.31-4.05a4.189,4.189,0,0,1,1.148-3.015,3.792,3.792,0,0,1,2.858-1.2A3.719,3.719,0,0,1,18.1-7.118,3.855,3.855,0,0,1,19.215-4.335Zm-6-.585H17.28a1.871,1.871,0,0,0-.615-1.32,1.926,1.926,0,0,0-1.35-.525,2.051,2.051,0,0,0-1.38.488A2.21,2.21,0,0,0,13.215-4.92ZM24,.09a2.841,2.841,0,0,1-2.1-.735,2.8,2.8,0,0,1-.735-2.07v-3.75h-1.47v-1.62h.24a1.244,1.244,0,0,0,.907-.315,1.2,1.2,0,0,0,.323-.9v-1.29h1.8v2.5h1.92v1.62h-1.92v3.75q0,1.335,1.425,1.335a3.468,3.468,0,0,0,.54-.045V.015A6.023,6.023,0,0,1,24,.09ZM36.18-8.085H38.1L35.3,0h-1.6L31.785-5.79,29.865,0h-1.62l-2.79-8.085h1.9l1.71,5.43,1.71-5.43h2l1.71,5.43ZM45.6-1.028A4.139,4.139,0,0,1,42.585.18,4.139,4.139,0,0,1,39.57-1.028,4.061,4.061,0,0,1,38.34-4.05a4.049,4.049,0,0,1,1.223-3.015,4.146,4.146,0,0,1,3.022-1.2,4.146,4.146,0,0,1,3.022,1.2A4.05,4.05,0,0,1,46.83-4.05,4.061,4.061,0,0,1,45.6-1.028Zm-3.015-.458A2.226,2.226,0,0,0,44.28-2.2a2.569,2.569,0,0,0,.675-1.83,2.6,2.6,0,0,0-.675-1.838A2.215,2.215,0,0,0,42.585-6.6a2.208,2.208,0,0,0-1.7.727,2.613,2.613,0,0,0-.667,1.838,2.586,2.586,0,0,0,.667,1.83A2.219,2.219,0,0,0,42.585-1.485Zm9.4-6.69h.75v1.62h-.975a1.8,1.8,0,0,0-1.35.525,2,2,0,0,0-.51,1.455V0H48.1V-8.085H49.8V-6.96A2.185,2.185,0,0,1,51.99-8.175Zm9.06.09L58.095-4.83,61.05,0H59.055l-2.13-3.54-1.26,1.365V0h-1.8V-11.175h1.8v6.57l3.27-3.48ZM64.68,0V-11.175h3.645A5.744,5.744,0,0,1,72.517-9.63,5.387,5.387,0,0,1,74.1-5.6a5.412,5.412,0,0,1-1.583,4.043A5.728,5.728,0,0,1,68.325,0Zm1.89-1.665h1.8a3.678,3.678,0,0,0,2.775-1.073A3.941,3.941,0,0,0,72.18-5.6a3.915,3.915,0,0,0-1.035-2.85A3.692,3.692,0,0,0,68.37-9.51h-1.8Zm16.5-2.67a3.346,3.346,0,0,1-.09.81H77.04a2.167,2.167,0,0,0,.7,1.538,2.269,2.269,0,0,0,1.582.577,2.078,2.078,0,0,0,1.965-1.125l1.485.72a3.051,3.051,0,0,1-1.312,1.44A4.145,4.145,0,0,1,79.3.18a3.94,3.94,0,0,1-2.978-1.215A4.192,4.192,0,0,1,75.165-4.05a4.189,4.189,0,0,1,1.147-3.015,3.792,3.792,0,0,1,2.858-1.2,3.719,3.719,0,0,1,2.79,1.148A3.855,3.855,0,0,1,83.07-4.335Zm-6-.585h4.065a1.871,1.871,0,0,0-.615-1.32,1.926,1.926,0,0,0-1.35-.525,2.051,2.051,0,0,0-1.38.488A2.21,2.21,0,0,0,77.07-4.92ZM84.915,0V-6.465H83.46v-1.62h1.455V-8.55a2.739,2.739,0,0,1,.8-2.092A3.008,3.008,0,0,1,87.87-11.4a3.557,3.557,0,0,1,.78.075v1.56a3.371,3.371,0,0,0-.555-.045,1.483,1.483,0,0,0-1.012.322,1.181,1.181,0,0,0-.368.938v.465h1.83v1.62h-1.83V0ZM89.67-9.15v-2.025h1.8V-9.15Zm0,9.15V-8.085h1.8V0Zm7.455-8.265a2.988,2.988,0,0,1,2.2.84,2.929,2.929,0,0,1,.847,2.175V0h-1.8V-4.8a1.812,1.812,0,0,0-.473-1.3,1.633,1.633,0,0,0-1.238-.5,1.665,1.665,0,0,0-1.252.488A1.806,1.806,0,0,0,94.935-4.8V0h-1.8V-8.085H94.83v.975A2.461,2.461,0,0,1,97.125-8.265ZM101.7-9.15v-2.025h1.8V-9.15Zm0,9.15V-8.085h1.8V0Zm7.125.09a2.841,2.841,0,0,1-2.1-.735,2.8,2.8,0,0,1-.735-2.07v-3.75h-1.47v-1.62h.24a1.244,1.244,0,0,0,.908-.315,1.2,1.2,0,0,0,.323-.9v-1.29h1.8v2.5h1.92v1.62h-1.92v3.75q0,1.335,1.425,1.335a3.468,3.468,0,0,0,.54-.045V.015A6.023,6.023,0,0,1,108.825.09Zm2.145-9.24v-2.025h1.8V-9.15Zm0,9.15V-8.085h1.8V0Zm10.29-1.028A4.139,4.139,0,0,1,118.245.18a4.139,4.139,0,0,1-3.015-1.208A4.061,4.061,0,0,1,114-4.05a4.049,4.049,0,0,1,1.223-3.015,4.146,4.146,0,0,1,3.022-1.2,4.146,4.146,0,0,1,3.022,1.2A4.049,4.049,0,0,1,122.49-4.05,4.061,4.061,0,0,1,121.26-1.028Zm-3.015-.458a2.226,2.226,0,0,0,1.695-.72,2.57,2.57,0,0,0,.675-1.83,2.6,2.6,0,0,0-.675-1.838,2.215,2.215,0,0,0-1.695-.727,2.208,2.208,0,0,0-1.7.727,2.613,2.613,0,0,0-.668,1.838,2.586,2.586,0,0,0,.668,1.83A2.219,2.219,0,0,0,118.245-1.485Zm9.51-6.78a2.988,2.988,0,0,1,2.2.84A2.929,2.929,0,0,1,130.8-5.25V0H129V-4.8a1.811,1.811,0,0,0-.473-1.3,1.633,1.633,0,0,0-1.238-.5,1.665,1.665,0,0,0-1.252.488,1.806,1.806,0,0,0-.473,1.313V0h-1.8V-8.085h1.695v.975A2.461,2.461,0,0,1,127.755-8.265Z" transform="translate(51.724 100.53)" fill="#329afc"/>
      <path id="Path_704" data-name="Path 704" d="M1.02,0V-11.175H4.665A5.744,5.744,0,0,1,8.858-9.63,5.387,5.387,0,0,1,10.44-5.6,5.412,5.412,0,0,1,8.858-1.553,5.728,5.728,0,0,1,4.665,0ZM2.91-1.665h1.8A3.678,3.678,0,0,0,7.485-2.738,3.941,3.941,0,0,0,8.52-5.6a3.915,3.915,0,0,0-1.035-2.85A3.692,3.692,0,0,0,4.71-9.51H2.91Zm16.155-9.51H20.97V0H19.455l-5.46-7.59V0h-1.89V-11.175h1.5l5.46,7.515ZM27.045.18a4.967,4.967,0,0,1-2.887-.863A4.207,4.207,0,0,1,22.47-2.91l1.62-.735a3.383,3.383,0,0,0,1.185,1.59,2.967,2.967,0,0,0,1.77.57,2.536,2.536,0,0,0,1.5-.4,1.223,1.223,0,0,0,.57-1.035q0-1.035-1.35-1.44l-2.19-.675A4.209,4.209,0,0,1,23.52-6.248a2.817,2.817,0,0,1-.69-1.9,2.882,2.882,0,0,1,1.065-2.318,4.175,4.175,0,0,1,2.775-.892,4.709,4.709,0,0,1,2.7.78,4,4,0,0,1,1.59,2l-1.635.75a2.676,2.676,0,0,0-.99-1.373,2.785,2.785,0,0,0-1.65-.487,2.29,2.29,0,0,0-1.41.405,1.255,1.255,0,0,0-.54,1.05q0,1.05,1.38,1.47l2.115.645q2.79.855,2.79,3.06a2.881,2.881,0,0,1-1.1,2.348A4.416,4.416,0,0,1,27.045.18Zm12.24,0A4.967,4.967,0,0,1,36.4-.683,4.207,4.207,0,0,1,34.71-2.91l1.62-.735a3.383,3.383,0,0,0,1.185,1.59,2.967,2.967,0,0,0,1.77.57,2.536,2.536,0,0,0,1.5-.4,1.223,1.223,0,0,0,.57-1.035q0-1.035-1.35-1.44l-2.19-.675A4.209,4.209,0,0,1,35.76-6.248a2.817,2.817,0,0,1-.69-1.9,2.882,2.882,0,0,1,1.065-2.318,4.175,4.175,0,0,1,2.775-.892,4.709,4.709,0,0,1,2.7.78,4,4,0,0,1,1.59,2l-1.635.75a2.676,2.676,0,0,0-.99-1.373,2.785,2.785,0,0,0-1.65-.487,2.29,2.29,0,0,0-1.41.405,1.255,1.255,0,0,0-.54,1.05q0,1.05,1.38,1.47l2.115.645q2.79.855,2.79,3.06a2.881,2.881,0,0,1-1.1,2.348A4.416,4.416,0,0,1,39.285.18ZM52.14-4.335a3.346,3.346,0,0,1-.09.81H46.11a2.167,2.167,0,0,0,.7,1.538,2.269,2.269,0,0,0,1.583.577,2.078,2.078,0,0,0,1.965-1.125l1.485.72a3.051,3.051,0,0,1-1.312,1.44A4.145,4.145,0,0,1,48.375.18,3.94,3.94,0,0,1,45.4-1.035,4.192,4.192,0,0,1,44.235-4.05a4.189,4.189,0,0,1,1.148-3.015,3.792,3.792,0,0,1,2.857-1.2,3.719,3.719,0,0,1,2.79,1.148A3.855,3.855,0,0,1,52.14-4.335Zm-6-.585H50.2a1.871,1.871,0,0,0-.615-1.32,1.926,1.926,0,0,0-1.35-.525,2.051,2.051,0,0,0-1.38.488A2.21,2.21,0,0,0,46.14-4.92ZM57.165-8.175h.75v1.62H56.94a1.8,1.8,0,0,0-1.35.525,2,2,0,0,0-.51,1.455V0h-1.8V-8.085h1.695V-6.96A2.185,2.185,0,0,1,57.165-8.175Zm7.2.09h1.9L63.075,0h-1.6L58.29-8.085h1.905L62.28-2.4Zm10.05,3.75a3.346,3.346,0,0,1-.09.81h-5.94a2.167,2.167,0,0,0,.7,1.538,2.269,2.269,0,0,0,1.582.577A2.078,2.078,0,0,0,72.63-2.535l1.485.72A3.051,3.051,0,0,1,72.8-.375,4.145,4.145,0,0,1,70.65.18a3.94,3.94,0,0,1-2.978-1.215A4.192,4.192,0,0,1,66.51-4.05a4.189,4.189,0,0,1,1.147-3.015,3.792,3.792,0,0,1,2.858-1.2,3.719,3.719,0,0,1,2.79,1.148A3.855,3.855,0,0,1,74.415-4.335Zm-6-.585H72.48a1.871,1.871,0,0,0-.615-1.32,1.926,1.926,0,0,0-1.35-.525,2.051,2.051,0,0,0-1.38.488A2.21,2.21,0,0,0,68.415-4.92ZM79.44-8.175h.75v1.62h-.975a1.8,1.8,0,0,0-1.35.525,2,2,0,0,0-.51,1.455V0h-1.8V-8.085H77.25V-6.96A2.185,2.185,0,0,1,79.44-8.175Z" transform="translate(51.724 341.94)" fill="#329afc"/>
      <path id="Path_703" data-name="Path 703" d="M1.02,0V-11.175h7.4V-9.51H2.91v3.075h5.2V-4.77H2.91v3.105H8.415L8.4,0ZM13.98-8.265a2.988,2.988,0,0,1,2.2.84,2.929,2.929,0,0,1,.847,2.175V0h-1.8V-4.8a1.811,1.811,0,0,0-.472-1.3,1.633,1.633,0,0,0-1.238-.5,1.665,1.665,0,0,0-1.252.488A1.806,1.806,0,0,0,11.79-4.8V0H9.99V-8.085h1.695v.975A2.461,2.461,0,0,1,13.98-8.265Zm7.9,0a3.514,3.514,0,0,1,2.393.8A2.609,2.609,0,0,1,25.2-5.4V0H23.5V-.9A2.966,2.966,0,0,1,21.1.18,3.212,3.212,0,0,1,18.967-.5a2.154,2.154,0,0,1-.8-1.725q0-1.785,2.58-2.355l2.655-.57V-5.4a1.109,1.109,0,0,0-.42-.9,1.67,1.67,0,0,0-1.1-.345,2.007,2.007,0,0,0-1.14.33,1.878,1.878,0,0,0-.72.915l-1.56-.78a2.964,2.964,0,0,1,1.283-1.508A3.992,3.992,0,0,1,21.885-8.265Zm-.57,7.02a2.052,2.052,0,0,0,1.493-.577A1.92,1.92,0,0,0,23.4-3.255V-3.78l-2.3.51a1.516,1.516,0,0,0-.788.383.893.893,0,0,0-.278.652.863.863,0,0,0,.345.728A1.5,1.5,0,0,0,21.315-1.245Zm9.7-7.02a3.889,3.889,0,0,1,2.9,1.215A4.148,4.148,0,0,1,35.1-4.035a4.144,4.144,0,0,1-1.177,3A3.9,3.9,0,0,1,31,.18a3.2,3.2,0,0,1-2.67-1.14V0H26.64V-11.175h1.8V-7.2A3.19,3.19,0,0,1,31.02-8.265Zm-.195,6.78a2.267,2.267,0,0,0,1.718-.72,2.553,2.553,0,0,0,.682-1.83,2.58,2.58,0,0,0-.682-1.838A2.255,2.255,0,0,0,30.825-6.6a2.226,2.226,0,0,0-1.718.727,2.613,2.613,0,0,0-.667,1.838A2.58,2.58,0,0,0,29.107-2.2,2.248,2.248,0,0,0,30.825-1.485ZM36.375,0V-11.175h1.8V0Zm10.98-4.335a3.346,3.346,0,0,1-.09.81h-5.94a2.167,2.167,0,0,0,.7,1.538A2.269,2.269,0,0,0,43.6-1.41,2.078,2.078,0,0,0,45.57-2.535l1.485.72a3.051,3.051,0,0,1-1.312,1.44A4.145,4.145,0,0,1,43.59.18a3.94,3.94,0,0,1-2.978-1.215A4.192,4.192,0,0,1,39.45-4.05,4.189,4.189,0,0,1,40.6-7.065a3.792,3.792,0,0,1,2.857-1.2,3.719,3.719,0,0,1,2.79,1.148A3.855,3.855,0,0,1,47.355-4.335Zm-6-.585H45.42a1.871,1.871,0,0,0-.615-1.32,1.926,1.926,0,0,0-1.35-.525,2.051,2.051,0,0,0-1.38.488A2.21,2.21,0,0,0,41.355-4.92Zm16.89-6.255H60.15V0H58.635l-5.46-7.59V0h-1.89V-11.175h1.5l5.46,7.515ZM69.48-4.335a3.346,3.346,0,0,1-.09.81H63.45a2.167,2.167,0,0,0,.7,1.538,2.269,2.269,0,0,0,1.582.577,2.078,2.078,0,0,0,1.965-1.125l1.485.72a3.051,3.051,0,0,1-1.312,1.44A4.145,4.145,0,0,1,65.715.18a3.94,3.94,0,0,1-2.977-1.215A4.192,4.192,0,0,1,61.575-4.05a4.189,4.189,0,0,1,1.148-3.015,3.792,3.792,0,0,1,2.858-1.2,3.719,3.719,0,0,1,2.79,1.148A3.855,3.855,0,0,1,69.48-4.335Zm-6-.585h4.065a1.871,1.871,0,0,0-.615-1.32,1.926,1.926,0,0,0-1.35-.525,2.051,2.051,0,0,0-1.38.488A2.21,2.21,0,0,0,63.48-4.92ZM74.265.09a2.841,2.841,0,0,1-2.1-.735,2.8,2.8,0,0,1-.735-2.07v-3.75H69.96v-1.62h.24a1.244,1.244,0,0,0,.908-.315,1.2,1.2,0,0,0,.323-.9v-1.29h1.8v2.5h1.92v1.62H73.23v3.75q0,1.335,1.425,1.335a3.468,3.468,0,0,0,.54-.045V.015A6.023,6.023,0,0,1,74.265.09Zm12.18-8.175h1.92L85.56,0h-1.6L82.05-5.79,80.13,0H78.51L75.72-8.085h1.9l1.71,5.43,1.71-5.43h2l1.71,5.43Zm9.42,7.058A4.139,4.139,0,0,1,92.85.18a4.139,4.139,0,0,1-3.015-1.208A4.061,4.061,0,0,1,88.6-4.05a4.049,4.049,0,0,1,1.223-3.015,4.146,4.146,0,0,1,3.022-1.2,4.146,4.146,0,0,1,3.022,1.2A4.049,4.049,0,0,1,97.1-4.05,4.061,4.061,0,0,1,95.865-1.028ZM92.85-1.485a2.226,2.226,0,0,0,1.695-.72,2.569,2.569,0,0,0,.675-1.83,2.6,2.6,0,0,0-.675-1.838A2.215,2.215,0,0,0,92.85-6.6a2.208,2.208,0,0,0-1.7.727,2.613,2.613,0,0,0-.668,1.838,2.586,2.586,0,0,0,.668,1.83A2.219,2.219,0,0,0,92.85-1.485Zm9.4-6.69H103v1.62h-.975a1.8,1.8,0,0,0-1.35.525,2,2,0,0,0-.51,1.455V0h-1.8V-8.085h1.695V-6.96A2.185,2.185,0,0,1,102.255-8.175Zm9.06.09L108.36-4.83,111.315,0h-2l-2.13-3.54-1.26,1.365V0h-1.8V-11.175h1.8v6.57l3.27-3.48Z" transform="translate(51.724 459.432)" fill="#329afc"/>
      <rect id="Rectangle_8" data-name="Rectangle 8" width="598.118" height="49.466" rx="8" transform="translate(50.595 141.358)" fill="#f4f6fa"/>
      <path id="Path_702" data-name="Path 702" d="M.816,0V-8.94H4.26a3.313,3.313,0,0,1,2.262.75A2.591,2.591,0,0,1,7.38-6.132a2.748,2.748,0,0,1-.438,1.566A2.574,2.574,0,0,1,5.724-3.6L7.788,0H6.06L4.176-3.336H2.328V0ZM2.328-4.656H4.26a1.614,1.614,0,0,0,1.146-.408,1.392,1.392,0,0,0,.438-1.068A1.392,1.392,0,0,0,5.406-7.2,1.614,1.614,0,0,0,4.26-7.608H2.328ZM14.112-3.468a2.677,2.677,0,0,1-.072.648H9.288a1.734,1.734,0,0,0,.558,1.23,1.816,1.816,0,0,0,1.266.462,1.662,1.662,0,0,0,1.572-.9l1.188.576A2.441,2.441,0,0,1,12.822-.3,3.316,3.316,0,0,1,11.1.144,3.152,3.152,0,0,1,8.718-.828a3.353,3.353,0,0,1-.93-2.412,3.351,3.351,0,0,1,.918-2.412,3.034,3.034,0,0,1,2.286-.96,2.976,2.976,0,0,1,2.232.918A3.084,3.084,0,0,1,14.112-3.468Zm-4.8-.468h3.252a1.5,1.5,0,0,0-.492-1.056,1.541,1.541,0,0,0-1.08-.42,1.641,1.641,0,0,0-1.1.39A1.768,1.768,0,0,0,9.312-3.936Zm9.2-2.676a3.125,3.125,0,0,1,2.328.972,3.3,3.3,0,0,1,.948,2.4,3.319,3.319,0,0,1-.948,2.412A3.139,3.139,0,0,1,18.5.144a2.619,2.619,0,0,1-2.04-.8V2.4h-1.44V-6.468H16.38v.816A2.482,2.482,0,0,1,18.516-6.612Zm-.144,5.424a1.8,1.8,0,0,0,1.374-.582,2.048,2.048,0,0,0,.546-1.458,2.064,2.064,0,0,0-.546-1.47,1.8,1.8,0,0,0-1.374-.582A1.789,1.789,0,0,0,17-4.7a2.085,2.085,0,0,0-.534,1.476A2.069,2.069,0,0,0,17-1.764,1.789,1.789,0,0,0,18.372-1.188Zm9.888.366a3.311,3.311,0,0,1-2.412.966,3.311,3.311,0,0,1-2.412-.966,3.249,3.249,0,0,1-.984-2.418,3.24,3.24,0,0,1,.978-2.412,3.317,3.317,0,0,1,2.418-.96,3.317,3.317,0,0,1,2.418.96,3.24,3.24,0,0,1,.978,2.412A3.249,3.249,0,0,1,28.26-.822Zm-2.412-.366A1.78,1.78,0,0,0,27.2-1.764a2.056,2.056,0,0,0,.54-1.464A2.077,2.077,0,0,0,27.2-4.7a1.772,1.772,0,0,0-1.356-.582,1.767,1.767,0,0,0-1.362.582,2.091,2.091,0,0,0-.534,1.47,2.069,2.069,0,0,0,.534,1.464A1.775,1.775,0,0,0,25.848-1.188ZM33.372-6.54h.6v1.3h-.78a1.437,1.437,0,0,0-1.08.42A1.6,1.6,0,0,0,31.7-3.66V0h-1.44V-6.468H31.62v.9A1.748,1.748,0,0,1,33.372-6.54ZM38.064.072a2.273,2.273,0,0,1-1.68-.588A2.239,2.239,0,0,1,35.8-2.172v-3H34.62v-1.3h.192a1,1,0,0,0,.726-.252.961.961,0,0,0,.258-.72V-8.472h1.44v2h1.536v1.3H37.236v3q0,1.068,1.14,1.068a2.775,2.775,0,0,0,.432-.036V.012A4.819,4.819,0,0,1,38.064.072Zm7.512-3.54a2.677,2.677,0,0,1-.072.648H40.752a1.734,1.734,0,0,0,.558,1.23,1.816,1.816,0,0,0,1.266.462,1.662,1.662,0,0,0,1.572-.9l1.188.576A2.441,2.441,0,0,1,44.286-.3a3.316,3.316,0,0,1-1.722.444,3.152,3.152,0,0,1-2.382-.972,3.353,3.353,0,0,1-.93-2.412,3.351,3.351,0,0,1,.918-2.412,3.034,3.034,0,0,1,2.286-.96,2.976,2.976,0,0,1,2.232.918A3.084,3.084,0,0,1,45.576-3.468Zm-4.8-.468h3.252a1.5,1.5,0,0,0-.492-1.056,1.541,1.541,0,0,0-1.08-.42,1.641,1.641,0,0,0-1.1.39A1.768,1.768,0,0,0,40.776-3.936Zm10.68-5H52.9V0H51.528V-.756a2.6,2.6,0,0,1-2.124.9A3.12,3.12,0,0,1,47.07-.828a3.315,3.315,0,0,1-.942-2.4,3.319,3.319,0,0,1,.948-2.412,3.111,3.111,0,0,1,2.316-.972,2.514,2.514,0,0,1,2.064.864ZM49.548-1.188a1.8,1.8,0,0,0,1.368-.57,2.05,2.05,0,0,0,.54-1.47,2.077,2.077,0,0,0-.54-1.47,1.785,1.785,0,0,0-1.368-.582,1.8,1.8,0,0,0-1.38.582,2.077,2.077,0,0,0-.54,1.47,2.056,2.056,0,0,0,.54,1.464A1.808,1.808,0,0,0,49.548-1.188ZM59.58-6.612a2.39,2.39,0,0,1,1.758.672,2.343,2.343,0,0,1,.678,1.74V0h-1.44V-3.84A1.449,1.449,0,0,0,60.2-4.884a1.306,1.306,0,0,0-.99-.4,1.332,1.332,0,0,0-1,.39,1.445,1.445,0,0,0-.378,1.05V0h-1.44V-6.468h1.356v.78A1.969,1.969,0,0,1,59.58-6.612Zm9.672,3.144a2.677,2.677,0,0,1-.072.648H64.428a1.734,1.734,0,0,0,.558,1.23,1.816,1.816,0,0,0,1.266.462,1.662,1.662,0,0,0,1.572-.9l1.188.576A2.441,2.441,0,0,1,67.962-.3,3.316,3.316,0,0,1,66.24.144a3.152,3.152,0,0,1-2.382-.972,3.353,3.353,0,0,1-.93-2.412,3.351,3.351,0,0,1,.918-2.412,3.034,3.034,0,0,1,2.286-.96,2.976,2.976,0,0,1,2.232.918A3.084,3.084,0,0,1,69.252-3.468Zm-4.8-.468H67.7a1.5,1.5,0,0,0-.492-1.056,1.541,1.541,0,0,0-1.08-.42,1.641,1.641,0,0,0-1.1.39A1.768,1.768,0,0,0,64.452-3.936ZM73.08.072A2.273,2.273,0,0,1,71.4-.516a2.239,2.239,0,0,1-.588-1.656v-3H69.636v-1.3h.192a1,1,0,0,0,.726-.252.961.961,0,0,0,.258-.72V-8.472h1.44v2h1.536v1.3H72.252v3q0,1.068,1.14,1.068a2.775,2.775,0,0,0,.432-.036V.012A4.819,4.819,0,0,1,73.08.072Zm9.744-6.54H84.36L82.116,0H80.832L79.308-4.632,77.772,0h-1.3L74.244-6.468h1.524l1.368,4.344L78.5-6.468h1.6l1.368,4.344ZM90.36-.822a3.311,3.311,0,0,1-2.412.966,3.311,3.311,0,0,1-2.412-.966,3.249,3.249,0,0,1-.984-2.418,3.24,3.24,0,0,1,.978-2.412,3.317,3.317,0,0,1,2.418-.96,3.317,3.317,0,0,1,2.418.96,3.24,3.24,0,0,1,.978,2.412A3.249,3.249,0,0,1,90.36-.822Zm-2.412-.366A1.78,1.78,0,0,0,89.3-1.764a2.056,2.056,0,0,0,.54-1.464A2.077,2.077,0,0,0,89.3-4.7a1.772,1.772,0,0,0-1.356-.582,1.767,1.767,0,0,0-1.362.582,2.091,2.091,0,0,0-.534,1.47,2.069,2.069,0,0,0,.534,1.464A1.775,1.775,0,0,0,87.948-1.188ZM95.472-6.54h.6v1.3h-.78a1.437,1.437,0,0,0-1.08.42A1.6,1.6,0,0,0,93.8-3.66V0h-1.44V-6.468H93.72v.9A1.748,1.748,0,0,1,95.472-6.54Zm7.248.072-2.364,2.6L102.72,0h-1.6l-1.7-2.832L98.412-1.74V0h-1.44V-8.94h1.44v5.256l2.616-2.784Zm5.4-.144a2.811,2.811,0,0,1,1.914.642,2.087,2.087,0,0,1,.738,1.65V0h-1.356V-.72a2.373,2.373,0,0,1-1.92.864,2.569,2.569,0,0,1-1.71-.54,1.723,1.723,0,0,1-.642-1.38q0-1.428,2.064-1.884l2.124-.456v-.2A.887.887,0,0,0,109-5.04a1.336,1.336,0,0,0-.876-.276,1.606,1.606,0,0,0-.912.264,1.5,1.5,0,0,0-.576.732l-1.248-.624A2.371,2.371,0,0,1,106.41-6.15,3.194,3.194,0,0,1,108.12-6.612ZM107.664-1a1.641,1.641,0,0,0,1.194-.462,1.536,1.536,0,0,0,.474-1.146v-.42l-1.836.408a1.213,1.213,0,0,0-.63.306.714.714,0,0,0-.222.522.69.69,0,0,0,.276.582A1.2,1.2,0,0,0,107.664-1Zm9.228-7.944h1.44V0h-1.368V-.756a2.6,2.6,0,0,1-2.124.9,3.12,3.12,0,0,1-2.334-.972,3.315,3.315,0,0,1-.942-2.4,3.319,3.319,0,0,1,.948-2.412,3.111,3.111,0,0,1,2.316-.972,2.514,2.514,0,0,1,2.064.864Zm-1.908,7.752a1.8,1.8,0,0,0,1.368-.57,2.05,2.05,0,0,0,.54-1.47,2.077,2.077,0,0,0-.54-1.47,1.785,1.785,0,0,0-1.368-.582,1.8,1.8,0,0,0-1.38.582,2.077,2.077,0,0,0-.54,1.47,2.056,2.056,0,0,0,.54,1.464A1.808,1.808,0,0,0,114.984-1.188Zm9.7-7.752h1.44V0h-1.368V-.756a2.6,2.6,0,0,1-2.124.9,3.12,3.12,0,0,1-2.334-.972,3.315,3.315,0,0,1-.942-2.4A3.319,3.319,0,0,1,120.3-5.64a3.111,3.111,0,0,1,2.316-.972,2.514,2.514,0,0,1,2.064.864Zm-1.908,7.752a1.8,1.8,0,0,0,1.368-.57,2.05,2.05,0,0,0,.54-1.47,2.077,2.077,0,0,0-.54-1.47,1.785,1.785,0,0,0-1.368-.582,1.8,1.8,0,0,0-1.38.582,2.077,2.077,0,0,0-.54,1.47,2.056,2.056,0,0,0,.54,1.464A1.808,1.808,0,0,0,122.772-1.188Zm7.836-5.352h.6v1.3h-.78a1.437,1.437,0,0,0-1.08.42,1.6,1.6,0,0,0-.408,1.164V0H127.5V-6.468h1.356v.9A1.748,1.748,0,0,1,130.608-6.54Zm7.464,3.072A2.677,2.677,0,0,1,138-2.82h-4.752a1.734,1.734,0,0,0,.558,1.23,1.816,1.816,0,0,0,1.266.462,1.662,1.662,0,0,0,1.572-.9l1.188.576A2.441,2.441,0,0,1,136.782-.3a3.316,3.316,0,0,1-1.722.444,3.152,3.152,0,0,1-2.382-.972,3.353,3.353,0,0,1-.93-2.412,3.351,3.351,0,0,1,.918-2.412,3.034,3.034,0,0,1,2.286-.96,2.976,2.976,0,0,1,2.232.918A3.084,3.084,0,0,1,138.072-3.468Zm-4.8-.468h3.252a1.5,1.5,0,0,0-.492-1.056,1.541,1.541,0,0,0-1.08-.42,1.641,1.641,0,0,0-1.1.39A1.768,1.768,0,0,0,133.272-3.936Zm8.16,4.08a3.28,3.28,0,0,1-1.782-.486,2.537,2.537,0,0,1-1.074-1.326l1.116-.54a1.78,1.78,0,0,0,1.74,1.176,1.332,1.332,0,0,0,.774-.2.628.628,0,0,0,.294-.54q0-.516-.852-.744l-1.1-.288q-1.692-.468-1.692-1.848a1.735,1.735,0,0,1,.666-1.416,2.667,2.667,0,0,1,1.734-.54,3.082,3.082,0,0,1,1.662.444,2.436,2.436,0,0,1,1.014,1.224l-1.128.528a1.487,1.487,0,0,0-.588-.72,1.728,1.728,0,0,0-.96-.264,1.207,1.207,0,0,0-.708.186.58.58,0,0,0-.264.5q0,.492.78.72l1.152.324q1.716.48,1.716,1.86a1.707,1.707,0,0,1-.7,1.416A2.852,2.852,0,0,1,141.432.144Zm5.928,0a3.28,3.28,0,0,1-1.782-.486A2.537,2.537,0,0,1,144.5-1.668l1.116-.54a1.78,1.78,0,0,0,1.74,1.176,1.332,1.332,0,0,0,.774-.2.628.628,0,0,0,.294-.54q0-.516-.852-.744l-1.1-.288q-1.692-.468-1.692-1.848a1.735,1.735,0,0,1,.666-1.416,2.667,2.667,0,0,1,1.734-.54,3.082,3.082,0,0,1,1.662.444,2.436,2.436,0,0,1,1.014,1.224l-1.128.528a1.487,1.487,0,0,0-.588-.72,1.728,1.728,0,0,0-.96-.264,1.207,1.207,0,0,0-.708.186.58.58,0,0,0-.264.5q0,.492.78.72l1.152.324q1.716.48,1.716,1.86a1.707,1.707,0,0,1-.7,1.416A2.852,2.852,0,0,1,147.36.144Zm3.744-4.98v-1.62h1.488v1.62ZM151.1,0V-1.62h1.488V0Zm12.864,0V-7.644h-1.68V-8.928l3.2-.012V0Zm7.26.144a3.135,3.135,0,0,1-2.6-1.272,5.3,5.3,0,0,1-.99-3.348,5.3,5.3,0,0,1,.984-3.342,3.124,3.124,0,0,1,2.592-1.266,3.136,3.136,0,0,1,2.6,1.266,5.3,5.3,0,0,1,.984,3.342,5.345,5.345,0,0,1-.978,3.348A3.115,3.115,0,0,1,171.228.144ZM169.71-2.118a1.722,1.722,0,0,0,1.518.87,1.724,1.724,0,0,0,1.518-.864,4.325,4.325,0,0,0,.558-2.364,4.293,4.293,0,0,0-.558-2.358,1.737,1.737,0,0,0-1.53-.858,1.71,1.71,0,0,0-1.512.864,4.336,4.336,0,0,0-.552,2.352A4.33,4.33,0,0,0,169.71-2.118ZM179.472.144a3.135,3.135,0,0,1-2.6-1.272,5.3,5.3,0,0,1-.99-3.348,5.3,5.3,0,0,1,.984-3.342,3.124,3.124,0,0,1,2.592-1.266,3.136,3.136,0,0,1,2.6,1.266,5.3,5.3,0,0,1,.984,3.342,5.345,5.345,0,0,1-.978,3.348A3.115,3.115,0,0,1,179.472.144Zm-1.518-2.262a1.722,1.722,0,0,0,1.518.87,1.724,1.724,0,0,0,1.518-.864,4.325,4.325,0,0,0,.558-2.364,4.293,4.293,0,0,0-.558-2.358,1.737,1.737,0,0,0-1.53-.858,1.71,1.71,0,0,0-1.512.864,4.336,4.336,0,0,0-.552,2.352A4.33,4.33,0,0,0,177.954-2.118ZM184.548,0V-1.62h1.488V0Zm6.576.144a3.135,3.135,0,0,1-2.6-1.272,5.3,5.3,0,0,1-.99-3.348,5.3,5.3,0,0,1,.984-3.342,3.124,3.124,0,0,1,2.592-1.266,3.136,3.136,0,0,1,2.6,1.266,5.3,5.3,0,0,1,.984,3.342,5.345,5.345,0,0,1-.978,3.348A3.115,3.115,0,0,1,191.124.144Zm-1.518-2.262a1.722,1.722,0,0,0,1.518.87,1.724,1.724,0,0,0,1.518-.864,4.325,4.325,0,0,0,.558-2.364,4.293,4.293,0,0,0-.558-2.358,1.737,1.737,0,0,0-1.53-.858,1.71,1.71,0,0,0-1.512.864,4.336,4.336,0,0,0-.552,2.352A4.33,4.33,0,0,0,189.606-2.118ZM199.368.144a3.135,3.135,0,0,1-2.6-1.272,5.3,5.3,0,0,1-.99-3.348,5.3,5.3,0,0,1,.984-3.342,3.124,3.124,0,0,1,2.592-1.266,3.136,3.136,0,0,1,2.6,1.266,5.3,5.3,0,0,1,.984,3.342,5.345,5.345,0,0,1-.978,3.348A3.115,3.115,0,0,1,199.368.144ZM197.85-2.118a1.722,1.722,0,0,0,1.518.87,1.724,1.724,0,0,0,1.518-.864,4.325,4.325,0,0,0,.558-2.364,4.293,4.293,0,0,0-.558-2.358,1.737,1.737,0,0,0-1.53-.858,1.71,1.71,0,0,0-1.512.864,4.336,4.336,0,0,0-.552,2.352A4.33,4.33,0,0,0,197.85-2.118ZM207.612.144a3.135,3.135,0,0,1-2.6-1.272,5.3,5.3,0,0,1-.99-3.348,5.3,5.3,0,0,1,.984-3.342A3.124,3.124,0,0,1,207.6-9.084a3.136,3.136,0,0,1,2.6,1.266,5.3,5.3,0,0,1,.984,3.342,5.345,5.345,0,0,1-.978,3.348A3.115,3.115,0,0,1,207.612.144Zm-1.518-2.262a1.722,1.722,0,0,0,1.518.87,1.724,1.724,0,0,0,1.518-.864,4.325,4.325,0,0,0,.558-2.364,4.293,4.293,0,0,0-.558-2.358,1.737,1.737,0,0,0-1.53-.858,1.71,1.71,0,0,0-1.512.864,4.336,4.336,0,0,0-.552,2.352A4.33,4.33,0,0,0,206.094-2.118ZM212.688,0V-1.62h1.488V0Zm6.576.144a3.135,3.135,0,0,1-2.6-1.272,5.3,5.3,0,0,1-.99-3.348,5.3,5.3,0,0,1,.984-3.342,3.124,3.124,0,0,1,2.592-1.266,3.136,3.136,0,0,1,2.6,1.266,5.3,5.3,0,0,1,.984,3.342,5.345,5.345,0,0,1-.978,3.348A3.115,3.115,0,0,1,219.264.144Zm-1.518-2.262a1.722,1.722,0,0,0,1.518.87,1.724,1.724,0,0,0,1.518-.864,4.325,4.325,0,0,0,.558-2.364,4.293,4.293,0,0,0-.558-2.358,1.737,1.737,0,0,0-1.53-.858,1.71,1.71,0,0,0-1.512.864,4.336,4.336,0,0,0-.552,2.352A4.33,4.33,0,0,0,217.746-2.118ZM227.508.144a3.135,3.135,0,0,1-2.6-1.272,5.3,5.3,0,0,1-.99-3.348,5.3,5.3,0,0,1,.984-3.342A3.124,3.124,0,0,1,227.5-9.084a3.136,3.136,0,0,1,2.6,1.266,5.3,5.3,0,0,1,.984,3.342,5.345,5.345,0,0,1-.978,3.348A3.115,3.115,0,0,1,227.508.144ZM225.99-2.118a1.722,1.722,0,0,0,1.518.87,1.724,1.724,0,0,0,1.518-.864,4.325,4.325,0,0,0,.558-2.364,4.293,4.293,0,0,0-.558-2.358,1.737,1.737,0,0,0-1.53-.858,1.71,1.71,0,0,0-1.512.864,4.336,4.336,0,0,0-.552,2.352A4.33,4.33,0,0,0,225.99-2.118ZM235.752.144a3.135,3.135,0,0,1-2.6-1.272,5.3,5.3,0,0,1-.99-3.348,5.3,5.3,0,0,1,.984-3.342,3.124,3.124,0,0,1,2.592-1.266,3.136,3.136,0,0,1,2.6,1.266,5.3,5.3,0,0,1,.984,3.342,5.345,5.345,0,0,1-.978,3.348A3.115,3.115,0,0,1,235.752.144Zm-1.518-2.262a1.722,1.722,0,0,0,1.518.87,1.724,1.724,0,0,0,1.518-.864,4.325,4.325,0,0,0,.558-2.364,4.293,4.293,0,0,0-.558-2.358,1.737,1.737,0,0,0-1.53-.858,1.71,1.71,0,0,0-1.512.864,4.336,4.336,0,0,0-.552,2.352A4.33,4.33,0,0,0,234.234-2.118ZM240.828,0V-1.62h1.488V0ZM247.4.144a3.135,3.135,0,0,1-2.6-1.272,5.3,5.3,0,0,1-.99-3.348,5.3,5.3,0,0,1,.984-3.342,3.124,3.124,0,0,1,2.592-1.266A3.136,3.136,0,0,1,250-7.818a5.3,5.3,0,0,1,.984,3.342A5.345,5.345,0,0,1,250-1.128,3.115,3.115,0,0,1,247.4.144Zm-1.518-2.262a1.722,1.722,0,0,0,1.518.87,1.724,1.724,0,0,0,1.518-.864,4.325,4.325,0,0,0,.558-2.364,4.293,4.293,0,0,0-.558-2.358,1.737,1.737,0,0,0-1.53-.858,1.71,1.71,0,0,0-1.512.864,4.336,4.336,0,0,0-.552,2.352A4.33,4.33,0,0,0,245.886-2.118ZM251.46,0l4-8.94h1.608l-4,8.94Zm7.512,0V-7.644h-1.68V-8.928l3.2-.012V0Zm7.26.144a3.135,3.135,0,0,1-2.6-1.272,5.3,5.3,0,0,1-.99-3.348,5.3,5.3,0,0,1,.984-3.342,3.124,3.124,0,0,1,2.592-1.266,3.136,3.136,0,0,1,2.6,1.266,5.3,5.3,0,0,1,.984,3.342,5.345,5.345,0,0,1-.978,3.348A3.115,3.115,0,0,1,266.232.144Zm-1.518-2.262a1.722,1.722,0,0,0,1.518.87,1.724,1.724,0,0,0,1.518-.864,4.324,4.324,0,0,0,.558-2.364,4.293,4.293,0,0,0-.558-2.358,1.736,1.736,0,0,0-1.53-.858,1.71,1.71,0,0,0-1.512.864,4.336,4.336,0,0,0-.552,2.352A4.33,4.33,0,0,0,264.714-2.118Z" transform="translate(51.724 247.039)" fill="#666"/>
      <path id="Path_701" data-name="Path 701" d="M.816,0V-8.94H4.26a3.313,3.313,0,0,1,2.262.75A2.591,2.591,0,0,1,7.38-6.132a2.748,2.748,0,0,1-.438,1.566A2.574,2.574,0,0,1,5.724-3.6L7.788,0H6.06L4.176-3.336H2.328V0ZM2.328-4.656H4.26a1.614,1.614,0,0,0,1.146-.408,1.392,1.392,0,0,0,.438-1.068A1.392,1.392,0,0,0,5.406-7.2,1.614,1.614,0,0,0,4.26-7.608H2.328ZM14.112-3.468a2.677,2.677,0,0,1-.072.648H9.288a1.734,1.734,0,0,0,.558,1.23,1.816,1.816,0,0,0,1.266.462,1.662,1.662,0,0,0,1.572-.9l1.188.576A2.441,2.441,0,0,1,12.822-.3,3.316,3.316,0,0,1,11.1.144,3.152,3.152,0,0,1,8.718-.828a3.353,3.353,0,0,1-.93-2.412,3.351,3.351,0,0,1,.918-2.412,3.034,3.034,0,0,1,2.286-.96,2.976,2.976,0,0,1,2.232.918A3.084,3.084,0,0,1,14.112-3.468Zm-4.8-.468h3.252a1.5,1.5,0,0,0-.492-1.056,1.541,1.541,0,0,0-1.08-.42,1.641,1.641,0,0,0-1.1.39A1.768,1.768,0,0,0,9.312-3.936Zm9.2-2.676a3.125,3.125,0,0,1,2.328.972,3.3,3.3,0,0,1,.948,2.4,3.319,3.319,0,0,1-.948,2.412A3.139,3.139,0,0,1,18.5.144a2.619,2.619,0,0,1-2.04-.8V2.4h-1.44V-6.468H16.38v.816A2.482,2.482,0,0,1,18.516-6.612Zm-.144,5.424a1.8,1.8,0,0,0,1.374-.582,2.048,2.048,0,0,0,.546-1.458,2.064,2.064,0,0,0-.546-1.47,1.8,1.8,0,0,0-1.374-.582A1.789,1.789,0,0,0,17-4.7a2.085,2.085,0,0,0-.534,1.476A2.069,2.069,0,0,0,17-1.764,1.789,1.789,0,0,0,18.372-1.188Zm9.888.366a3.311,3.311,0,0,1-2.412.966,3.311,3.311,0,0,1-2.412-.966,3.249,3.249,0,0,1-.984-2.418,3.24,3.24,0,0,1,.978-2.412,3.317,3.317,0,0,1,2.418-.96,3.317,3.317,0,0,1,2.418.96,3.24,3.24,0,0,1,.978,2.412A3.249,3.249,0,0,1,28.26-.822Zm-2.412-.366A1.78,1.78,0,0,0,27.2-1.764a2.056,2.056,0,0,0,.54-1.464A2.077,2.077,0,0,0,27.2-4.7a1.772,1.772,0,0,0-1.356-.582,1.767,1.767,0,0,0-1.362.582,2.091,2.091,0,0,0-.534,1.47,2.069,2.069,0,0,0,.534,1.464A1.775,1.775,0,0,0,25.848-1.188ZM33.372-6.54h.6v1.3h-.78a1.437,1.437,0,0,0-1.08.42A1.6,1.6,0,0,0,31.7-3.66V0h-1.44V-6.468H31.62v.9A1.748,1.748,0,0,1,33.372-6.54ZM38.064.072a2.273,2.273,0,0,1-1.68-.588A2.239,2.239,0,0,1,35.8-2.172v-3H34.62v-1.3h.192a1,1,0,0,0,.726-.252.961.961,0,0,0,.258-.72V-8.472h1.44v2h1.536v1.3H37.236v3q0,1.068,1.14,1.068a2.775,2.775,0,0,0,.432-.036V.012A4.819,4.819,0,0,1,38.064.072Zm7.512-3.54a2.677,2.677,0,0,1-.072.648H40.752a1.734,1.734,0,0,0,.558,1.23,1.816,1.816,0,0,0,1.266.462,1.662,1.662,0,0,0,1.572-.9l1.188.576A2.441,2.441,0,0,1,44.286-.3a3.316,3.316,0,0,1-1.722.444,3.152,3.152,0,0,1-2.382-.972,3.353,3.353,0,0,1-.93-2.412,3.351,3.351,0,0,1,.918-2.412,3.034,3.034,0,0,1,2.286-.96,2.976,2.976,0,0,1,2.232.918A3.084,3.084,0,0,1,45.576-3.468Zm-4.8-.468h3.252a1.5,1.5,0,0,0-.492-1.056,1.541,1.541,0,0,0-1.08-.42,1.641,1.641,0,0,0-1.1.39A1.768,1.768,0,0,0,40.776-3.936Zm10.68-5H52.9V0H51.528V-.756a2.6,2.6,0,0,1-2.124.9A3.12,3.12,0,0,1,47.07-.828a3.315,3.315,0,0,1-.942-2.4,3.319,3.319,0,0,1,.948-2.412,3.111,3.111,0,0,1,2.316-.972,2.514,2.514,0,0,1,2.064.864ZM49.548-1.188a1.8,1.8,0,0,0,1.368-.57,2.05,2.05,0,0,0,.54-1.47,2.077,2.077,0,0,0-.54-1.47,1.785,1.785,0,0,0-1.368-.582,1.8,1.8,0,0,0-1.38.582,2.077,2.077,0,0,0-.54,1.47,2.056,2.056,0,0,0,.54,1.464A1.808,1.808,0,0,0,49.548-1.188ZM56.508,0V-8.94h2.916A4.6,4.6,0,0,1,62.778-7.7a4.31,4.31,0,0,1,1.266,3.228,4.33,4.33,0,0,1-1.266,3.234A4.583,4.583,0,0,1,59.424,0ZM58.02-1.332h1.44a2.942,2.942,0,0,0,2.22-.858,3.153,3.153,0,0,0,.828-2.286,3.132,3.132,0,0,0-.828-2.28,2.953,2.953,0,0,0-2.22-.852H58.02ZM70.944-8.94h1.524V0H71.256L66.888-6.072V0H65.376V-8.94h1.2l4.368,6.012ZM77.328.144a3.974,3.974,0,0,1-2.31-.69,3.365,3.365,0,0,1-1.35-1.782l1.3-.588a2.707,2.707,0,0,0,.948,1.272,2.374,2.374,0,0,0,1.416.456,2.029,2.029,0,0,0,1.2-.324.979.979,0,0,0,.456-.828q0-.828-1.08-1.152l-1.752-.54A3.367,3.367,0,0,1,74.508-5a2.253,2.253,0,0,1-.552-1.518,2.305,2.305,0,0,1,.852-1.854,3.34,3.34,0,0,1,2.22-.714,3.767,3.767,0,0,1,2.16.624,3.2,3.2,0,0,1,1.272,1.6l-1.308.6a2.141,2.141,0,0,0-.792-1.1,2.228,2.228,0,0,0-1.32-.39,1.832,1.832,0,0,0-1.128.324,1,1,0,0,0-.432.84q0,.84,1.1,1.176l1.692.516q2.232.684,2.232,2.448A2.3,2.3,0,0,1,79.632-.57,3.533,3.533,0,0,1,77.328.144Zm8.88,0a3.28,3.28,0,0,1-1.782-.486,2.537,2.537,0,0,1-1.074-1.326l1.116-.54a1.78,1.78,0,0,0,1.74,1.176,1.332,1.332,0,0,0,.774-.2.628.628,0,0,0,.294-.54q0-.516-.852-.744l-1.1-.288q-1.692-.468-1.692-1.848a1.735,1.735,0,0,1,.666-1.416,2.667,2.667,0,0,1,1.734-.54,3.082,3.082,0,0,1,1.662.444A2.436,2.436,0,0,1,88.7-4.944l-1.128.528a1.487,1.487,0,0,0-.588-.72,1.728,1.728,0,0,0-.96-.264,1.207,1.207,0,0,0-.708.186.58.58,0,0,0-.264.5q0,.492.78.72l1.152.324q1.716.48,1.716,1.86a1.707,1.707,0,0,1-.7,1.416A2.852,2.852,0,0,1,86.208.144Zm9.444-3.612a2.677,2.677,0,0,1-.072.648H90.828a1.734,1.734,0,0,0,.558,1.23,1.816,1.816,0,0,0,1.266.462,1.662,1.662,0,0,0,1.572-.9l1.188.576A2.441,2.441,0,0,1,94.362-.3,3.316,3.316,0,0,1,92.64.144a3.152,3.152,0,0,1-2.382-.972,3.353,3.353,0,0,1-.93-2.412,3.351,3.351,0,0,1,.918-2.412,3.034,3.034,0,0,1,2.286-.96,2.976,2.976,0,0,1,2.232.918A3.084,3.084,0,0,1,95.652-3.468Zm-4.8-.468H94.1a1.5,1.5,0,0,0-.492-1.056,1.541,1.541,0,0,0-1.08-.42,1.641,1.641,0,0,0-1.1.39A1.768,1.768,0,0,0,90.852-3.936Zm8.82-2.6h.6v1.3h-.78a1.437,1.437,0,0,0-1.08.42A1.6,1.6,0,0,0,98-3.66V0h-1.44V-6.468H97.92v.9A1.748,1.748,0,0,1,99.672-6.54Zm5.76.072h1.524L104.4,0h-1.284l-2.544-6.468H102.1l1.668,4.548Zm8.04,3a2.677,2.677,0,0,1-.072.648h-4.752a1.734,1.734,0,0,0,.558,1.23,1.816,1.816,0,0,0,1.266.462,1.662,1.662,0,0,0,1.572-.9l1.188.576A2.441,2.441,0,0,1,112.182-.3a3.316,3.316,0,0,1-1.722.444,3.152,3.152,0,0,1-2.382-.972,3.353,3.353,0,0,1-.93-2.412,3.351,3.351,0,0,1,.918-2.412,3.034,3.034,0,0,1,2.286-.96,2.976,2.976,0,0,1,2.232.918A3.084,3.084,0,0,1,113.472-3.468Zm-4.8-.468h3.252a1.5,1.5,0,0,0-.492-1.056,1.541,1.541,0,0,0-1.08-.42,1.641,1.641,0,0,0-1.1.39A1.768,1.768,0,0,0,108.672-3.936Zm8.82-2.6h.6v1.3h-.78a1.437,1.437,0,0,0-1.08.42,1.6,1.6,0,0,0-.408,1.164V0h-1.44V-6.468h1.356v.9A1.748,1.748,0,0,1,117.492-6.54Zm1.764,1.7v-1.62h1.488v1.62Zm0,4.836V-1.62h1.488V0Z" transform="translate(51.724 365.449)" fill="#333"/>
      <path id="Path_700" data-name="Path 700" d="M.816,0V-8.94H6.732v1.332h-4.4v2.46H6.492v1.332H2.328v2.484h4.4L6.72,0ZM11.184-6.612a2.39,2.39,0,0,1,1.758.672A2.343,2.343,0,0,1,13.62-4.2V0H12.18V-3.84A1.449,1.449,0,0,0,11.8-4.884a1.306,1.306,0,0,0-.99-.4,1.332,1.332,0,0,0-1,.39,1.445,1.445,0,0,0-.378,1.05V0H7.992V-6.468H9.348v.78A1.969,1.969,0,0,1,11.184-6.612Zm6.324,0a2.811,2.811,0,0,1,1.914.642,2.087,2.087,0,0,1,.738,1.65V0H18.8V-.72a2.373,2.373,0,0,1-1.92.864,2.569,2.569,0,0,1-1.71-.54,1.723,1.723,0,0,1-.642-1.38q0-1.428,2.064-1.884l2.124-.456v-.2a.887.887,0,0,0-.336-.72,1.336,1.336,0,0,0-.876-.276,1.606,1.606,0,0,0-.912.264,1.5,1.5,0,0,0-.576.732l-1.248-.624A2.371,2.371,0,0,1,15.8-6.15,3.194,3.194,0,0,1,17.508-6.612ZM17.052-1a1.641,1.641,0,0,0,1.194-.462A1.536,1.536,0,0,0,18.72-2.6v-.42l-1.836.408a1.213,1.213,0,0,0-.63.306.714.714,0,0,0-.222.522.69.69,0,0,0,.276.582A1.2,1.2,0,0,0,17.052-1Zm7.764-5.616a3.111,3.111,0,0,1,2.316.972,3.319,3.319,0,0,1,.948,2.412,3.315,3.315,0,0,1-.942,2.4A3.12,3.12,0,0,1,24.8.144a2.556,2.556,0,0,1-2.136-.912V0H21.312V-8.94h1.44v3.18A2.552,2.552,0,0,1,24.816-6.612ZM24.66-1.188a1.813,1.813,0,0,0,1.374-.576,2.043,2.043,0,0,0,.546-1.464,2.064,2.064,0,0,0-.546-1.47A1.8,1.8,0,0,0,24.66-5.28a1.78,1.78,0,0,0-1.374.582,2.091,2.091,0,0,0-.534,1.47,2.064,2.064,0,0,0,.534,1.47A1.8,1.8,0,0,0,24.66-1.188ZM29.1,0V-8.94h1.44V0Zm8.784-3.468a2.677,2.677,0,0,1-.072.648H33.06a1.734,1.734,0,0,0,.558,1.23,1.816,1.816,0,0,0,1.266.462,1.662,1.662,0,0,0,1.572-.9l1.188.576A2.441,2.441,0,0,1,36.594-.3a3.316,3.316,0,0,1-1.722.444A3.152,3.152,0,0,1,32.49-.828a3.353,3.353,0,0,1-.93-2.412,3.351,3.351,0,0,1,.918-2.412,3.034,3.034,0,0,1,2.286-.96A2.976,2.976,0,0,1,37-5.694,3.084,3.084,0,0,1,37.884-3.468Zm-4.8-.468h3.252a1.5,1.5,0,0,0-.492-1.056,1.541,1.541,0,0,0-1.08-.42,1.641,1.641,0,0,0-1.1.39A1.768,1.768,0,0,0,33.084-3.936Zm13.512-5H48.12V0H46.908L42.54-6.072V0H41.028V-8.94h1.2L46.6-2.928Zm8.988,5.472a2.677,2.677,0,0,1-.072.648H50.76a1.734,1.734,0,0,0,.558,1.23,1.816,1.816,0,0,0,1.266.462,1.662,1.662,0,0,0,1.572-.9l1.188.576A2.441,2.441,0,0,1,54.294-.3a3.316,3.316,0,0,1-1.722.444A3.152,3.152,0,0,1,50.19-.828a3.353,3.353,0,0,1-.93-2.412,3.351,3.351,0,0,1,.918-2.412,3.034,3.034,0,0,1,2.286-.96,2.976,2.976,0,0,1,2.232.918A3.084,3.084,0,0,1,55.584-3.468Zm-4.8-.468h3.252a1.5,1.5,0,0,0-.492-1.056,1.541,1.541,0,0,0-1.08-.42,1.641,1.641,0,0,0-1.1.39A1.768,1.768,0,0,0,50.784-3.936ZM59.412.072a2.273,2.273,0,0,1-1.68-.588,2.239,2.239,0,0,1-.588-1.656v-3H55.968v-1.3h.192a1,1,0,0,0,.726-.252.961.961,0,0,0,.258-.72V-8.472h1.44v2H60.12v1.3H58.584v3q0,1.068,1.14,1.068a2.775,2.775,0,0,0,.432-.036V.012A4.819,4.819,0,0,1,59.412.072Zm9.744-6.54h1.536L68.448,0H67.164L65.64-4.632,64.1,0h-1.3L60.576-6.468H62.1l1.368,4.344,1.368-4.344h1.6L67.8-2.124ZM76.692-.822A3.311,3.311,0,0,1,74.28.144a3.311,3.311,0,0,1-2.412-.966,3.249,3.249,0,0,1-.984-2.418,3.24,3.24,0,0,1,.978-2.412,3.317,3.317,0,0,1,2.418-.96,3.317,3.317,0,0,1,2.418.96,3.24,3.24,0,0,1,.978,2.412A3.249,3.249,0,0,1,76.692-.822ZM74.28-1.188a1.78,1.78,0,0,0,1.356-.576,2.056,2.056,0,0,0,.54-1.464,2.077,2.077,0,0,0-.54-1.47A1.772,1.772,0,0,0,74.28-5.28a1.767,1.767,0,0,0-1.362.582,2.091,2.091,0,0,0-.534,1.47,2.069,2.069,0,0,0,.534,1.464A1.775,1.775,0,0,0,74.28-1.188ZM81.8-6.54h.6v1.3h-.78a1.437,1.437,0,0,0-1.08.42,1.6,1.6,0,0,0-.408,1.164V0H78.7V-6.468h1.356v.9A1.748,1.748,0,0,1,81.8-6.54Zm7.248.072-2.364,2.6L89.052,0h-1.6l-1.7-2.832L84.744-1.74V0H83.3V-8.94h1.44v5.256L87.36-6.468Z" transform="translate(80.179 526.083)" fill="#999"/>
      <path id="Path_699" data-name="Path 699" d="M.836,0V-8.2H1.881V0Zm3.19,0V-4.928H2.893v-.9H4.026v-.528a1.859,1.859,0,0,1,.545-1.424A1.922,1.922,0,0,1,5.94-8.294a2.429,2.429,0,0,1,.572.055V-7.4a2.6,2.6,0,0,0-.462-.033,1.1,1.1,0,0,0-.786.275,1.052,1.052,0,0,0-.292.8v.528H6.358v.9H4.972V0Zm9.416-5.841h1.1L11.847.726a4.912,4.912,0,0,1-.269.589,3.364,3.364,0,0,1-.363.506,1.477,1.477,0,0,1-.6.424,2.3,2.3,0,0,1-.847.143A2.067,2.067,0,0,1,9,2.266V1.419a2.192,2.192,0,0,0,.605.066,1.6,1.6,0,0,0,.528-.077.815.815,0,0,0,.363-.248A2.35,2.35,0,0,0,10.7.88a2.442,2.442,0,0,0,.154-.33l.253-.605L8.778-5.841H9.856l1.793,4.51Zm6.595,5.1A2.9,2.9,0,0,1,17.9.132a2.9,2.9,0,0,1-2.139-.869,2.978,2.978,0,0,1-.864-2.189A2.941,2.941,0,0,1,15.758-5.1,2.915,2.915,0,0,1,17.9-5.962a2.915,2.915,0,0,1,2.14.858A2.941,2.941,0,0,1,20.9-2.926,2.978,2.978,0,0,1,20.037-.737Zm-3.564-.655A1.883,1.883,0,0,0,17.9-.781a1.883,1.883,0,0,0,1.425-.611A2.131,2.131,0,0,0,19.9-2.915a2.131,2.131,0,0,0-.577-1.524,1.883,1.883,0,0,0-1.425-.61,1.883,1.883,0,0,0-1.424.61A2.131,2.131,0,0,0,15.9-2.915,2.131,2.131,0,0,0,16.472-1.392ZM25.751-5.83H26.7V0h-.924V-.671a1.725,1.725,0,0,1-.7.589A2.214,2.214,0,0,1,24.1.132a2.075,2.075,0,0,1-1.562-.655,2.227,2.227,0,0,1-.627-1.6V-5.83h.946V-2.3a1.529,1.529,0,0,0,.4,1.105,1.4,1.4,0,0,0,1.056.413A1.373,1.373,0,0,0,25.355-1.2a1.534,1.534,0,0,0,.4-1.1Zm11.363,0h1.067L36.146,0h-.88L33.847-4.532,32.417,0h-.891L29.491-5.83h1.067L31.977-1.4,33.319-5.83h1.034l1.342,4.411ZM43.676-.737a2.9,2.9,0,0,1-2.139.869A2.9,2.9,0,0,1,39.4-.737a2.978,2.978,0,0,1-.863-2.189A2.941,2.941,0,0,1,39.4-5.1a2.915,2.915,0,0,1,2.14-.858,2.915,2.915,0,0,1,2.139.858,2.941,2.941,0,0,1,.863,2.178A2.978,2.978,0,0,1,43.676-.737Zm-3.564-.655a1.883,1.883,0,0,0,1.425.611,1.883,1.883,0,0,0,1.424-.611,2.131,2.131,0,0,0,.577-1.524,2.131,2.131,0,0,0-.577-1.524,1.883,1.883,0,0,0-1.424-.61,1.883,1.883,0,0,0-1.425.61,2.131,2.131,0,0,0-.577,1.524A2.131,2.131,0,0,0,40.111-1.392ZM49.39-5.83h.946V0h-.924V-.671a1.725,1.725,0,0,1-.7.589,2.214,2.214,0,0,1-.973.215,2.075,2.075,0,0,1-1.562-.655,2.227,2.227,0,0,1-.627-1.6V-5.83H46.5V-2.3a1.529,1.529,0,0,0,.4,1.105,1.4,1.4,0,0,0,1.056.413A1.373,1.373,0,0,0,48.994-1.2a1.534,1.534,0,0,0,.4-1.1ZM51.788,0V-8.2h.946V0Zm7.084-8.2h.946V0h-.924V-.847a2.125,2.125,0,0,1-.874.721A2.845,2.845,0,0,1,56.8.132a2.816,2.816,0,0,1-2.1-.869,3,3,0,0,1-.847-2.178A3,3,0,0,1,54.7-5.093a2.8,2.8,0,0,1,2.09-.869A2.76,2.76,0,0,1,58-5.7a2.173,2.173,0,0,1,.869.726ZM55.424-1.386a1.882,1.882,0,0,0,1.436.605A1.9,1.9,0,0,0,58.3-1.386a2.137,2.137,0,0,0,.572-1.529A2.142,2.142,0,0,0,58.3-4.439a1.891,1.891,0,0,0-1.441-.61,1.874,1.874,0,0,0-1.436.61,2.154,2.154,0,0,0-.567,1.524A2.149,2.149,0,0,0,55.424-1.386ZM63.162,0V-8.2h.946V0Zm2.31-6.908V-8.2h.946v1.287Zm0,6.908V-5.83h.946V0Zm7.073-5.83L70.389-3.5,72.545,0H71.456L69.762-2.794,68.728-1.683V0h-.946V-8.2h.946V-2.97l2.684-2.86Zm5.8,2.662a3.145,3.145,0,0,1-.044.539H73.777a1.92,1.92,0,0,0,.589,1.375,1.884,1.884,0,0,0,1.347.528A1.77,1.77,0,0,0,77.385-1.76l.825.44a2.372,2.372,0,0,1-.963,1.04A2.909,2.909,0,0,1,75.7.132a2.763,2.763,0,0,1-2.084-.869,3.042,3.042,0,0,1-.83-2.189A3.049,3.049,0,0,1,73.6-5.1a2.671,2.671,0,0,1,2.03-.858,2.543,2.543,0,0,1,1.964.82A2.814,2.814,0,0,1,78.342-3.168ZM73.8-3.443h3.5a1.638,1.638,0,0,0-.511-1.2,1.619,1.619,0,0,0-1.16-.484,1.765,1.765,0,0,0-1.215.457A1.905,1.905,0,0,0,73.8-3.443ZM83.688.066a1.825,1.825,0,0,1-1.358-.484,1.857,1.857,0,0,1-.479-1.364V-4.928H80.718v-.9h.3a.808.808,0,0,0,.6-.236.851.851,0,0,0,.231-.622V-7.722H82.8V-5.83H84.2v.9H82.8v3.146a1.762,1.762,0,0,0,.027.33,1.22,1.22,0,0,0,.127.33.667.667,0,0,0,.33.292,1.418,1.418,0,0,0,.583.1,2.346,2.346,0,0,0,.407-.033v.77A2.576,2.576,0,0,1,83.688.066Zm6.121-.8A2.9,2.9,0,0,1,87.67.132a2.9,2.9,0,0,1-2.14-.869,2.978,2.978,0,0,1-.863-2.189A2.941,2.941,0,0,1,85.53-5.1a2.915,2.915,0,0,1,2.14-.858,2.915,2.915,0,0,1,2.139.858,2.941,2.941,0,0,1,.864,2.178A2.978,2.978,0,0,1,89.809-.737Zm-3.564-.655a1.883,1.883,0,0,0,1.424.611,1.883,1.883,0,0,0,1.424-.611,2.131,2.131,0,0,0,.577-1.524,2.131,2.131,0,0,0-.577-1.524,1.883,1.883,0,0,0-1.424-.61,1.883,1.883,0,0,0-1.424.61,2.131,2.131,0,0,0-.577,1.524A2.131,2.131,0,0,0,86.245-1.392ZM98.912-3.168a3.145,3.145,0,0,1-.044.539H94.347a1.92,1.92,0,0,0,.589,1.375,1.884,1.884,0,0,0,1.347.528A1.77,1.77,0,0,0,97.955-1.76l.825.44a2.372,2.372,0,0,1-.963,1.04,2.909,2.909,0,0,1-1.546.413,2.763,2.763,0,0,1-2.084-.869,3.042,3.042,0,0,1-.83-2.189A3.049,3.049,0,0,1,94.165-5.1a2.671,2.671,0,0,1,2.03-.858,2.543,2.543,0,0,1,1.964.82A2.814,2.814,0,0,1,98.912-3.168Zm-4.543-.275h3.5a1.638,1.638,0,0,0-.511-1.2,1.619,1.619,0,0,0-1.16-.484,1.765,1.765,0,0,0-1.215.457A1.905,1.905,0,0,0,94.369-3.443Zm8.162-2.519a2.137,2.137,0,0,1,1.562.605,2.04,2.04,0,0,1,.616,1.518V0h-.946V-3.531a1.542,1.542,0,0,0-.391-1.106,1.378,1.378,0,0,0-1.05-.412,1.39,1.39,0,0,0-1.05.418,1.521,1.521,0,0,0-.4,1.1V0h-.946V-5.83h.924v.671a1.725,1.725,0,0,1,.7-.589A2.24,2.24,0,0,1,102.531-5.962Zm5.764,0a2.37,2.37,0,0,1,1.633.561,1.851,1.851,0,0,1,.632,1.452V0h-.924V-.814a2.087,2.087,0,0,1-.787.693,2.255,2.255,0,0,1-1.05.253,2.242,2.242,0,0,1-1.5-.49,1.576,1.576,0,0,1-.577-1.259A1.394,1.394,0,0,1,106.21-2.7a3.007,3.007,0,0,1,1.381-.638l2.024-.451v-.165a1,1,0,0,0-.368-.8,1.434,1.434,0,0,0-.951-.308,1.659,1.659,0,0,0-.913.253,1.565,1.565,0,0,0-.594.693l-.847-.44a2.164,2.164,0,0,1,.908-1.006A2.713,2.713,0,0,1,108.295-5.962Zm-.44,5.247a1.689,1.689,0,0,0,1.259-.512,1.759,1.759,0,0,0,.5-1.282v-.506l-1.8.418a1.735,1.735,0,0,0-.8.368.792.792,0,0,0-.291.611.794.794,0,0,0,.308.66A1.3,1.3,0,0,0,107.855-.715Zm6.963-5.247a2.8,2.8,0,0,1,2.09.869,3,3,0,0,1,.847,2.178A2.985,2.985,0,0,1,116.9-.737a2.821,2.821,0,0,1-2.1.869,2.845,2.845,0,0,1-1.215-.259,2.125,2.125,0,0,1-.874-.721V0h-.924V-8.2h.946v3.223A2.091,2.091,0,0,1,113.6-5.7,2.785,2.785,0,0,1,114.818-5.962Zm-.066,5.181a1.886,1.886,0,0,0,1.43-.605,2.137,2.137,0,0,0,.572-1.529,2.142,2.142,0,0,0-.572-1.524,1.878,1.878,0,0,0-1.43-.61,1.891,1.891,0,0,0-1.441.61,2.142,2.142,0,0,0-.572,1.524,2.137,2.137,0,0,0,.572,1.529A1.9,1.9,0,0,0,114.752-.781ZM118.877,0V-8.2h.946V0ZM126.5-3.168a3.145,3.145,0,0,1-.044.539h-4.521a1.92,1.92,0,0,0,.589,1.375,1.884,1.884,0,0,0,1.347.528,1.77,1.77,0,0,0,1.672-1.034l.825.44a2.372,2.372,0,0,1-.963,1.04,2.909,2.909,0,0,1-1.546.413,2.763,2.763,0,0,1-2.084-.869,3.042,3.042,0,0,1-.83-2.189,3.049,3.049,0,0,1,.808-2.178,2.671,2.671,0,0,1,2.03-.858,2.543,2.543,0,0,1,1.964.82A2.814,2.814,0,0,1,126.5-3.168Zm-4.543-.275h3.5a1.638,1.638,0,0,0-.511-1.2,1.619,1.619,0,0,0-1.16-.484,1.765,1.765,0,0,0-1.215.457A1.905,1.905,0,0,0,121.957-3.443ZM131.846.066a1.825,1.825,0,0,1-1.359-.484,1.857,1.857,0,0,1-.479-1.364V-4.928h-1.133v-.9h.3a.808.808,0,0,0,.605-.236.851.851,0,0,0,.231-.622V-7.722h.946V-5.83h1.408v.9h-1.408v3.146a1.762,1.762,0,0,0,.028.33,1.22,1.22,0,0,0,.126.33.667.667,0,0,0,.33.292,1.418,1.418,0,0,0,.583.1,2.346,2.346,0,0,0,.407-.033v.77A2.576,2.576,0,0,1,131.846.066Zm4.312-6.028a2.137,2.137,0,0,1,1.562.605,2.053,2.053,0,0,1,.616,1.529V0h-.946V-3.531a1.546,1.546,0,0,0-.391-1.1,1.369,1.369,0,0,0-1.051-.418,1.39,1.39,0,0,0-1.05.418,1.521,1.521,0,0,0-.4,1.1V0h-.946V-8.2h.946v3A1.924,1.924,0,0,1,136.158-5.962ZM144.9-3.168a3.145,3.145,0,0,1-.044.539h-4.521a1.92,1.92,0,0,0,.589,1.375,1.884,1.884,0,0,0,1.348.528,1.77,1.77,0,0,0,1.672-1.034l.825.44a2.372,2.372,0,0,1-.962,1.04,2.909,2.909,0,0,1-1.546.413,2.763,2.763,0,0,1-2.085-.869,3.042,3.042,0,0,1-.831-2.189,3.049,3.049,0,0,1,.809-2.178,2.671,2.671,0,0,1,2.029-.858,2.543,2.543,0,0,1,1.964.82A2.814,2.814,0,0,1,144.9-3.168Zm-4.543-.275h3.5a1.638,1.638,0,0,0-.512-1.2,1.619,1.619,0,0,0-1.161-.484,1.765,1.765,0,0,0-1.215.457A1.905,1.905,0,0,0,140.36-3.443Zm10.054-2.519a2.137,2.137,0,0,1,1.562.605,2.04,2.04,0,0,1,.616,1.518V0h-.946V-3.531a1.542,1.542,0,0,0-.391-1.106,1.378,1.378,0,0,0-1.051-.412,1.39,1.39,0,0,0-1.05.418,1.521,1.521,0,0,0-.4,1.1V0h-.946V-5.83h.924v.671a1.725,1.725,0,0,1,.7-.589A2.24,2.24,0,0,1,150.414-5.962Zm8.745,2.794a3.145,3.145,0,0,1-.044.539h-4.521a1.92,1.92,0,0,0,.589,1.375,1.884,1.884,0,0,0,1.348.528A1.77,1.77,0,0,0,158.2-1.76l.825.44a2.372,2.372,0,0,1-.962,1.04,2.909,2.909,0,0,1-1.546.413,2.763,2.763,0,0,1-2.085-.869,3.042,3.042,0,0,1-.831-2.189,3.049,3.049,0,0,1,.809-2.178,2.671,2.671,0,0,1,2.029-.858,2.543,2.543,0,0,1,1.964.82A2.814,2.814,0,0,1,159.159-3.168Zm-4.543-.275h3.5a1.638,1.638,0,0,0-.512-1.2,1.619,1.619,0,0,0-1.161-.484,1.765,1.765,0,0,0-1.215.457A1.905,1.905,0,0,0,154.616-3.443Zm8,3.509a1.825,1.825,0,0,1-1.359-.484,1.857,1.857,0,0,1-.479-1.364V-4.928h-1.133v-.9h.3a.808.808,0,0,0,.605-.236.851.851,0,0,0,.231-.622V-7.722h.946V-5.83h1.408v.9h-1.408v3.146a1.762,1.762,0,0,0,.028.33,1.22,1.22,0,0,0,.126.33.667.667,0,0,0,.33.292,1.418,1.418,0,0,0,.583.1,2.346,2.346,0,0,0,.407-.033v.77A2.576,2.576,0,0,1,162.613.066Zm8.778-5.9h1.067L170.423,0h-.88l-1.419-4.532L166.694,0H165.8l-2.035-5.83h1.067L166.254-1.4,167.6-5.83h1.034l1.342,4.411Zm6.562,5.093a2.9,2.9,0,0,1-2.139.869,2.9,2.9,0,0,1-2.139-.869,2.978,2.978,0,0,1-.864-2.189,2.941,2.941,0,0,1,.864-2.178,2.915,2.915,0,0,1,2.139-.858,2.915,2.915,0,0,1,2.139.858,2.941,2.941,0,0,1,.864,2.178A2.978,2.978,0,0,1,177.952-.737Zm-3.564-.655a1.883,1.883,0,0,0,1.424.611,1.883,1.883,0,0,0,1.424-.611,2.131,2.131,0,0,0,.577-1.524,2.131,2.131,0,0,0-.577-1.524,1.883,1.883,0,0,0-1.424-.61,1.883,1.883,0,0,0-1.424.61,2.131,2.131,0,0,0-.577,1.524A2.131,2.131,0,0,0,174.389-1.392Zm8.036-4.5h.473v.9h-.616a1.334,1.334,0,0,0-1.018.4,1.561,1.561,0,0,0-.38,1.117V0h-.946V-5.83h.913V-5.1A1.657,1.657,0,0,1,182.424-5.9Zm6.248.066L186.516-3.5,188.672,0h-1.089l-1.694-2.794-1.034,1.111V0h-.946V-8.2h.946V-2.97l2.684-2.86Zm5.291-.132a2.137,2.137,0,0,1,1.562.605,2.04,2.04,0,0,1,.616,1.518V0h-.946V-3.531a1.542,1.542,0,0,0-.391-1.106,1.378,1.378,0,0,0-1.051-.412,1.39,1.39,0,0,0-1.05.418,1.521,1.521,0,0,0-.4,1.1V0h-.946V-5.83h.924v.671a1.725,1.725,0,0,1,.7-.589A2.24,2.24,0,0,1,193.963-5.962ZM202.3-.737a2.9,2.9,0,0,1-2.139.869,2.9,2.9,0,0,1-2.139-.869,2.978,2.978,0,0,1-.864-2.189,2.941,2.941,0,0,1,.864-2.178,2.915,2.915,0,0,1,2.139-.858A2.915,2.915,0,0,1,202.3-5.1a2.941,2.941,0,0,1,.863,2.178A2.978,2.978,0,0,1,202.3-.737Zm-3.564-.655a1.883,1.883,0,0,0,1.424.611,1.883,1.883,0,0,0,1.424-.611,2.131,2.131,0,0,0,.577-1.524,2.131,2.131,0,0,0-.577-1.524,1.883,1.883,0,0,0-1.424-.61,1.883,1.883,0,0,0-1.424.61,2.131,2.131,0,0,0-.577,1.524A2.131,2.131,0,0,0,198.732-1.392Zm12.4-4.439H212.2L210.166,0h-.88l-1.419-4.532L206.437,0h-.891l-2.035-5.83h1.067L206-1.4l1.342-4.433h1.034l1.342,4.411Zm1.32,7.139.429-2.607h1.045l-.77,2.607ZM220.2.132a2.754,2.754,0,0,1-2.085-.875,3.047,3.047,0,0,1-.831-2.184,3.008,3.008,0,0,1,.831-2.173,2.771,2.771,0,0,1,2.085-.864,2.767,2.767,0,0,1,1.518.435,2.367,2.367,0,0,1,.957,1.106l-.847.44a1.8,1.8,0,0,0-.643-.781,1.717,1.717,0,0,0-.984-.286,1.764,1.764,0,0,0-1.37.605,2.2,2.2,0,0,0-.544,1.529,2.2,2.2,0,0,0,.544,1.524,1.757,1.757,0,0,0,1.37.611,1.717,1.717,0,0,0,.984-.286,1.8,1.8,0,0,0,.643-.781l.847.44a2.4,2.4,0,0,1-.962,1.1A2.749,2.749,0,0,1,220.2.132Zm6.094-6.094a2.137,2.137,0,0,1,1.562.605,2.053,2.053,0,0,1,.616,1.529V0h-.946V-3.531a1.546,1.546,0,0,0-.391-1.1,1.369,1.369,0,0,0-1.051-.418,1.39,1.39,0,0,0-1.05.418,1.521,1.521,0,0,0-.4,1.1V0h-.946V-8.2h.946v3A1.924,1.924,0,0,1,226.292-5.962Zm8.745,2.794a3.145,3.145,0,0,1-.044.539h-4.521a1.92,1.92,0,0,0,.589,1.375,1.884,1.884,0,0,0,1.348.528A1.77,1.77,0,0,0,234.08-1.76l.825.44a2.372,2.372,0,0,1-.962,1.04A2.909,2.909,0,0,1,232.4.132a2.763,2.763,0,0,1-2.085-.869,3.042,3.042,0,0,1-.831-2.189,3.049,3.049,0,0,1,.809-2.178,2.671,2.671,0,0,1,2.029-.858,2.543,2.543,0,0,1,1.964.82A2.814,2.814,0,0,1,235.037-3.168Zm-4.543-.275h3.5a1.638,1.638,0,0,0-.512-1.2,1.619,1.619,0,0,0-1.161-.484,1.765,1.765,0,0,0-1.215.457A1.905,1.905,0,0,0,230.494-3.443Zm8.14,3.575a2.754,2.754,0,0,1-2.085-.875,3.047,3.047,0,0,1-.831-2.184A3.008,3.008,0,0,1,236.55-5.1a2.771,2.771,0,0,1,2.085-.864,2.767,2.767,0,0,1,1.518.435,2.367,2.367,0,0,1,.957,1.106l-.847.44a1.8,1.8,0,0,0-.643-.781,1.717,1.717,0,0,0-.984-.286,1.764,1.764,0,0,0-1.37.605,2.2,2.2,0,0,0-.544,1.529,2.2,2.2,0,0,0,.544,1.524,1.757,1.757,0,0,0,1.37.611,1.717,1.717,0,0,0,.984-.286,1.8,1.8,0,0,0,.643-.781l.847.44a2.4,2.4,0,0,1-.962,1.1A2.749,2.749,0,0,1,238.634.132Zm8.25-5.962L244.728-3.5,246.884,0H245.8L244.1-2.794l-1.034,1.111V0h-.946V-8.2h.946V-2.97l2.684-2.86Zm5.126,5.9a1.825,1.825,0,0,1-1.359-.484,1.857,1.857,0,0,1-.479-1.364V-4.928H249.04v-.9h.3a.808.808,0,0,0,.605-.236.851.851,0,0,0,.231-.622V-7.722h.946V-5.83h1.408v.9h-1.408v3.146a1.762,1.762,0,0,0,.028.33,1.22,1.22,0,0,0,.126.33.667.667,0,0,0,.33.292,1.418,1.418,0,0,0,.583.1,2.346,2.346,0,0,0,.407-.033v.77A2.576,2.576,0,0,1,252.01.066Zm4.312-6.028a2.137,2.137,0,0,1,1.562.605,2.053,2.053,0,0,1,.616,1.529V0h-.946V-3.531a1.546,1.546,0,0,0-.391-1.1,1.369,1.369,0,0,0-1.051-.418,1.39,1.39,0,0,0-1.05.418,1.521,1.521,0,0,0-.4,1.1V0h-.946V-8.2h.946v3A1.924,1.924,0,0,1,256.322-5.962Zm8.745,2.794a3.146,3.146,0,0,1-.044.539H260.5a1.92,1.92,0,0,0,.589,1.375,1.884,1.884,0,0,0,1.348.528A1.77,1.77,0,0,0,264.11-1.76l.825.44a2.372,2.372,0,0,1-.962,1.04,2.909,2.909,0,0,1-1.546.413,2.763,2.763,0,0,1-2.085-.869,3.042,3.042,0,0,1-.831-2.189,3.049,3.049,0,0,1,.809-2.178,2.671,2.671,0,0,1,2.03-.858,2.544,2.544,0,0,1,1.964.82A2.814,2.814,0,0,1,265.067-3.168Zm-4.543-.275h3.5a1.638,1.638,0,0,0-.512-1.2,1.619,1.619,0,0,0-1.16-.484,1.765,1.765,0,0,0-1.216.457A1.905,1.905,0,0,0,260.524-3.443ZM271-5.962a2.8,2.8,0,0,1,2.09.869,3,3,0,0,1,.847,2.178,2.985,2.985,0,0,1-.852,2.178,2.821,2.821,0,0,1-2.1.869,2.845,2.845,0,0,1-1.215-.259,2.125,2.125,0,0,1-.875-.721V0h-.924V-8.2h.946v3.223a2.092,2.092,0,0,1,.858-.726A2.785,2.785,0,0,1,271-5.962ZM270.93-.781a1.886,1.886,0,0,0,1.43-.605,2.137,2.137,0,0,0,.572-1.529,2.142,2.142,0,0,0-.572-1.524,1.878,1.878,0,0,0-1.43-.61,1.891,1.891,0,0,0-1.441.61,2.142,2.142,0,0,0-.572,1.524,2.137,2.137,0,0,0,.572,1.529A1.9,1.9,0,0,0,270.93-.781Zm8.938.044a2.9,2.9,0,0,1-2.14.869,2.9,2.9,0,0,1-2.139-.869,2.978,2.978,0,0,1-.863-2.189,2.941,2.941,0,0,1,.863-2.178,2.915,2.915,0,0,1,2.139-.858,2.915,2.915,0,0,1,2.14.858,2.941,2.941,0,0,1,.863,2.178A2.978,2.978,0,0,1,279.868-.737ZM276.3-1.392a1.883,1.883,0,0,0,1.424.611,1.883,1.883,0,0,0,1.424-.611,2.13,2.13,0,0,0,.578-1.524,2.131,2.131,0,0,0-.578-1.524,1.883,1.883,0,0,0-1.424-.61,1.883,1.883,0,0,0-1.424.61,2.131,2.131,0,0,0-.577,1.524A2.131,2.131,0,0,0,276.3-1.392ZM286.2-5.83l-2.079,2.915L286.187,0h-1.122l-1.507-2.167L282.04,0h-1.122l2.068-2.915L280.918-5.83h1.122l1.518,2.167,1.518-2.167Zm5.874-.132a2.8,2.8,0,0,1,2.09.869,3,3,0,0,1,.847,2.178,2.985,2.985,0,0,1-.852,2.178,2.821,2.821,0,0,1-2.1.869,2.845,2.845,0,0,1-1.215-.259,2.125,2.125,0,0,1-.875-.721V0h-.924V-8.2h.946v3.223a2.092,2.092,0,0,1,.858-.726A2.785,2.785,0,0,1,292.072-5.962Zm-.066,5.181a1.886,1.886,0,0,0,1.43-.605,2.137,2.137,0,0,0,.572-1.529,2.142,2.142,0,0,0-.572-1.524,1.878,1.878,0,0,0-1.43-.61,1.891,1.891,0,0,0-1.441.61,2.142,2.142,0,0,0-.572,1.524,2.137,2.137,0,0,0,.572,1.529A1.9,1.9,0,0,0,292.006-.781Zm9.35-2.387a3.146,3.146,0,0,1-.044.539h-4.521a1.92,1.92,0,0,0,.589,1.375,1.884,1.884,0,0,0,1.348.528A1.77,1.77,0,0,0,300.4-1.76l.825.44a2.372,2.372,0,0,1-.962,1.04,2.909,2.909,0,0,1-1.546.413,2.763,2.763,0,0,1-2.085-.869,3.042,3.042,0,0,1-.831-2.189A3.049,3.049,0,0,1,296.61-5.1a2.671,2.671,0,0,1,2.03-.858,2.544,2.544,0,0,1,1.964.82A2.814,2.814,0,0,1,301.356-3.168Zm-4.543-.275h3.5a1.638,1.638,0,0,0-.512-1.2,1.619,1.619,0,0,0-1.16-.484,1.765,1.765,0,0,0-1.216.457A1.905,1.905,0,0,0,296.813-3.443ZM302.368,0V-8.2h.946V0Zm7.21-.737a2.9,2.9,0,0,1-2.14.869A2.9,2.9,0,0,1,305.3-.737a2.978,2.978,0,0,1-.863-2.189A2.941,2.941,0,0,1,305.3-5.1a2.915,2.915,0,0,1,2.139-.858,2.915,2.915,0,0,1,2.14.858,2.941,2.941,0,0,1,.863,2.178A2.978,2.978,0,0,1,309.579-.737Zm-3.564-.655a1.883,1.883,0,0,0,1.424.611,1.883,1.883,0,0,0,1.424-.611,2.13,2.13,0,0,0,.578-1.524,2.131,2.131,0,0,0-.578-1.524,1.883,1.883,0,0,0-1.424-.61,1.883,1.883,0,0,0-1.424.61,2.131,2.131,0,0,0-.577,1.524A2.131,2.131,0,0,0,306.014-1.392Zm12.4-4.439h1.067L317.449,0h-.88L315.15-4.532,313.72,0h-.891l-2.035-5.83h1.067L313.28-1.4l1.342-4.433h1.034L317-1.419ZM319.847,0V-1.3h1.034V0Zm8.7.132a4,4,0,0,1-2.948-1.2A4.119,4.119,0,0,1,324.4-4.1a4.1,4.1,0,0,1,1.2-3.025,4.007,4.007,0,0,1,2.948-1.2,4.011,4.011,0,0,1,2.959,1.2,4.105,4.105,0,0,1,1.2,3.02,4.119,4.119,0,0,1-1.2,3.031A4.011,4.011,0,0,1,328.548.132Zm0-.968a2.925,2.925,0,0,0,2.233-.941,3.276,3.276,0,0,0,.88-2.327,3.261,3.261,0,0,0-.88-2.316,2.925,2.925,0,0,0-2.233-.94,2.913,2.913,0,0,0-2.222.94,3.261,3.261,0,0,0-.88,2.316,3.276,3.276,0,0,0,.88,2.327A2.913,2.913,0,0,0,328.548-.836Zm7.887.9a1.825,1.825,0,0,1-1.358-.484,1.857,1.857,0,0,1-.479-1.364V-4.928h-1.133v-.9h.3a.808.808,0,0,0,.605-.236.851.851,0,0,0,.231-.622V-7.722h.946V-5.83h1.408v.9h-1.408v3.146a1.762,1.762,0,0,0,.027.33,1.22,1.22,0,0,0,.126.33.667.667,0,0,0,.33.292,1.418,1.418,0,0,0,.583.1,2.346,2.346,0,0,0,.407-.033v.77A2.577,2.577,0,0,1,336.435.066Zm4.312-6.028a2.137,2.137,0,0,1,1.562.605,2.053,2.053,0,0,1,.616,1.529V0h-.946V-3.531a1.546,1.546,0,0,0-.391-1.1,1.369,1.369,0,0,0-1.051-.418,1.391,1.391,0,0,0-1.051.418,1.521,1.521,0,0,0-.4,1.1V0h-.946V-8.2h.946v3A1.924,1.924,0,0,1,340.747-5.962Zm8.745,2.794a3.146,3.146,0,0,1-.044.539h-4.521a1.92,1.92,0,0,0,.589,1.375,1.884,1.884,0,0,0,1.348.528,1.77,1.77,0,0,0,1.672-1.034l.825.44a2.372,2.372,0,0,1-.962,1.04,2.909,2.909,0,0,1-1.546.413,2.763,2.763,0,0,1-2.085-.869,3.042,3.042,0,0,1-.831-2.189,3.049,3.049,0,0,1,.809-2.178,2.671,2.671,0,0,1,2.03-.858,2.544,2.544,0,0,1,1.964.82A2.814,2.814,0,0,1,349.492-3.168Zm-4.543-.275h3.5a1.638,1.638,0,0,0-.512-1.2,1.619,1.619,0,0,0-1.16-.484,1.765,1.765,0,0,0-1.216.457A1.905,1.905,0,0,0,344.949-3.443ZM352.99-5.9h.473v.9h-.616a1.334,1.334,0,0,0-1.017.4,1.561,1.561,0,0,0-.38,1.117V0H350.5V-5.83h.913V-5.1A1.657,1.657,0,0,1,352.99-5.9Zm8.558.066h1.067L360.58,0h-.88l-1.419-4.532L356.851,0h-.891l-2.035-5.83h1.067L356.411-1.4l1.342-4.433h1.034l1.342,4.411Zm1.881-1.078V-8.2h.946v1.287Zm0,6.908V-5.83h.946V0Zm4.345.132A2.723,2.723,0,0,1,366.256-.3a2.327,2.327,0,0,1-.935-1.166l.8-.4a1.777,1.777,0,0,0,.655.831,1.745,1.745,0,0,0,1,.292,1.35,1.35,0,0,0,.825-.237.718.718,0,0,0,.319-.6q0-.55-.891-.8l-.957-.264q-1.485-.418-1.485-1.628a1.519,1.519,0,0,1,.561-1.227,2.209,2.209,0,0,1,1.463-.468,2.539,2.539,0,0,1,1.413.4,2.141,2.141,0,0,1,.863,1.078l-.792.385a1.449,1.449,0,0,0-.572-.732,1.633,1.633,0,0,0-.913-.259,1.234,1.234,0,0,0-.759.215.664.664,0,0,0-.286.556q0,.561.836.814l.99.3q1.507.44,1.507,1.639a1.506,1.506,0,0,1-.589,1.232A2.374,2.374,0,0,1,367.774.132Zm8.382-3.3a3.146,3.146,0,0,1-.044.539h-4.521a1.92,1.92,0,0,0,.589,1.375,1.884,1.884,0,0,0,1.348.528A1.77,1.77,0,0,0,375.2-1.76l.825.44a2.372,2.372,0,0,1-.962,1.04,2.909,2.909,0,0,1-1.546.413,2.763,2.763,0,0,1-2.085-.869,3.042,3.042,0,0,1-.831-2.189,3.049,3.049,0,0,1,.809-2.178,2.671,2.671,0,0,1,2.03-.858,2.544,2.544,0,0,1,1.964.82A2.814,2.814,0,0,1,376.156-3.168Zm-4.543-.275h3.5a1.638,1.638,0,0,0-.512-1.2,1.619,1.619,0,0,0-1.16-.484,1.765,1.765,0,0,0-1.216.457A1.905,1.905,0,0,0,371.613-3.443Zm11.561-2.4h1.1l-2.7,6.567a4.915,4.915,0,0,1-.27.589,3.362,3.362,0,0,1-.363.506,1.476,1.476,0,0,1-.6.424,2.3,2.3,0,0,1-.847.143,2.067,2.067,0,0,1-.77-.121V1.419a2.192,2.192,0,0,0,.605.066,1.6,1.6,0,0,0,.528-.077.815.815,0,0,0,.363-.248,2.351,2.351,0,0,0,.209-.28,2.448,2.448,0,0,0,.154-.33l.253-.605L378.51-5.841h1.078l1.793,4.51Zm6.595,5.1a2.9,2.9,0,0,1-2.14.869,2.9,2.9,0,0,1-2.139-.869,2.978,2.978,0,0,1-.863-2.189,2.941,2.941,0,0,1,.863-2.178,2.915,2.915,0,0,1,2.139-.858,2.915,2.915,0,0,1,2.14.858,2.941,2.941,0,0,1,.863,2.178A2.978,2.978,0,0,1,389.768-.737ZM386.2-1.392a1.883,1.883,0,0,0,1.424.611,1.883,1.883,0,0,0,1.424-.611,2.13,2.13,0,0,0,.578-1.524,2.131,2.131,0,0,0-.578-1.524,1.883,1.883,0,0,0-1.424-.61,1.883,1.883,0,0,0-1.424.61,2.131,2.131,0,0,0-.577,1.524A2.131,2.131,0,0,0,386.2-1.392Zm9.279-4.439h.946V0H395.5V-.671a1.725,1.725,0,0,1-.7.589,2.214,2.214,0,0,1-.974.215,2.075,2.075,0,0,1-1.562-.655,2.227,2.227,0,0,1-.627-1.6V-5.83h.946V-2.3a1.529,1.529,0,0,0,.4,1.105,1.4,1.4,0,0,0,1.056.413,1.373,1.373,0,0,0,1.045-.418,1.534,1.534,0,0,0,.4-1.1ZM402.358.132a2.754,2.754,0,0,1-2.085-.875,3.047,3.047,0,0,1-.831-2.184,3.008,3.008,0,0,1,.831-2.173,2.771,2.771,0,0,1,2.085-.864,2.767,2.767,0,0,1,1.518.435,2.367,2.367,0,0,1,.957,1.106l-.847.44a1.8,1.8,0,0,0-.643-.781,1.717,1.717,0,0,0-.984-.286,1.764,1.764,0,0,0-1.37.605,2.2,2.2,0,0,0-.544,1.529,2.2,2.2,0,0,0,.544,1.524,1.757,1.757,0,0,0,1.37.611,1.717,1.717,0,0,0,.984-.286,1.8,1.8,0,0,0,.643-.781l.847.44a2.4,2.4,0,0,1-.963,1.1A2.749,2.749,0,0,1,402.358.132Zm5.731-6.094a2.37,2.37,0,0,1,1.633.561,1.851,1.851,0,0,1,.633,1.452V0h-.924V-.814a2.087,2.087,0,0,1-.786.693,2.255,2.255,0,0,1-1.051.253,2.242,2.242,0,0,1-1.5-.49,1.576,1.576,0,0,1-.578-1.259A1.394,1.394,0,0,1,406-2.7a3.007,3.007,0,0,1,1.38-.638l2.024-.451v-.165a1,1,0,0,0-.368-.8,1.434,1.434,0,0,0-.952-.308,1.659,1.659,0,0,0-.913.253,1.565,1.565,0,0,0-.594.693l-.847-.44a2.164,2.164,0,0,1,.908-1.006A2.713,2.713,0,0,1,408.089-5.962Zm-.44,5.247a1.689,1.689,0,0,0,1.259-.512,1.758,1.758,0,0,0,.5-1.282v-.506l-1.8.418a1.736,1.736,0,0,0-.8.368.792.792,0,0,0-.292.611.794.794,0,0,0,.308.66A1.3,1.3,0,0,0,407.649-.715Zm6.545-5.247a2.137,2.137,0,0,1,1.562.605,2.04,2.04,0,0,1,.616,1.518V0h-.946V-3.531a1.542,1.542,0,0,0-.391-1.106,1.378,1.378,0,0,0-1.051-.412,1.391,1.391,0,0,0-1.051.418,1.521,1.521,0,0,0-.4,1.1V0h-.946V-5.83h.924v.671a1.725,1.725,0,0,1,.7-.589A2.24,2.24,0,0,1,414.194-5.962Zm10.637,2.794a3.146,3.146,0,0,1-.044.539h-4.521a1.92,1.92,0,0,0,.589,1.375,1.884,1.884,0,0,0,1.348.528,1.77,1.77,0,0,0,1.672-1.034l.825.44a2.372,2.372,0,0,1-.962,1.04,2.909,2.909,0,0,1-1.546.413,2.763,2.763,0,0,1-2.085-.869,3.042,3.042,0,0,1-.831-2.189,3.049,3.049,0,0,1,.809-2.178,2.671,2.671,0,0,1,2.03-.858,2.544,2.544,0,0,1,1.964.82A2.814,2.814,0,0,1,424.831-3.168Zm-4.543-.275h3.5a1.638,1.638,0,0,0-.512-1.2,1.619,1.619,0,0,0-1.16-.484,1.765,1.765,0,0,0-1.216.457A1.905,1.905,0,0,0,420.288-3.443Zm8.162-2.519a2.137,2.137,0,0,1,1.562.605,2.04,2.04,0,0,1,.616,1.518V0h-.946V-3.531a1.542,1.542,0,0,0-.391-1.106,1.378,1.378,0,0,0-1.051-.412,1.391,1.391,0,0,0-1.051.418,1.521,1.521,0,0,0-.4,1.1V0h-.946V-5.83h.924v.671a1.725,1.725,0,0,1,.7-.589A2.24,2.24,0,0,1,428.45-5.962Zm5.764,0a2.37,2.37,0,0,1,1.633.561,1.851,1.851,0,0,1,.633,1.452V0h-.924V-.814a2.087,2.087,0,0,1-.786.693,2.255,2.255,0,0,1-1.051.253,2.242,2.242,0,0,1-1.5-.49,1.576,1.576,0,0,1-.578-1.259,1.394,1.394,0,0,1,.49-1.078,3.007,3.007,0,0,1,1.38-.638l2.024-.451v-.165a1,1,0,0,0-.368-.8,1.434,1.434,0,0,0-.952-.308,1.659,1.659,0,0,0-.913.253,1.565,1.565,0,0,0-.594.693l-.847-.44a2.164,2.164,0,0,1,.908-1.006A2.713,2.713,0,0,1,434.214-5.962Zm-.44,5.247a1.689,1.689,0,0,0,1.259-.512,1.758,1.758,0,0,0,.5-1.282v-.506l-1.8.418a1.736,1.736,0,0,0-.8.368.792.792,0,0,0-.292.611.794.794,0,0,0,.308.66A1.3,1.3,0,0,0,433.774-.715Zm6.963-5.247a2.8,2.8,0,0,1,2.09.869,3,3,0,0,1,.847,2.178,2.985,2.985,0,0,1-.852,2.178,2.821,2.821,0,0,1-2.1.869,2.845,2.845,0,0,1-1.215-.259,2.125,2.125,0,0,1-.875-.721V0h-.924V-8.2h.946v3.223a2.092,2.092,0,0,1,.858-.726A2.785,2.785,0,0,1,440.737-5.962Zm-.066,5.181a1.886,1.886,0,0,0,1.43-.605,2.137,2.137,0,0,0,.572-1.529,2.142,2.142,0,0,0-.572-1.524,1.878,1.878,0,0,0-1.43-.61,1.891,1.891,0,0,0-1.441.61,2.142,2.142,0,0,0-.572,1.524,2.137,2.137,0,0,0,.572,1.529A1.9,1.9,0,0,0,440.671-.781ZM444.8,0V-8.2h.946V0Zm7.623-3.168a3.146,3.146,0,0,1-.044.539h-4.521a1.92,1.92,0,0,0,.589,1.375,1.884,1.884,0,0,0,1.348.528,1.77,1.77,0,0,0,1.672-1.034l.825.44a2.372,2.372,0,0,1-.962,1.04,2.909,2.909,0,0,1-1.546.413,2.763,2.763,0,0,1-2.085-.869,3.042,3.042,0,0,1-.831-2.189,3.049,3.049,0,0,1,.809-2.178,2.671,2.671,0,0,1,2.03-.858,2.544,2.544,0,0,1,1.964.82A2.814,2.814,0,0,1,452.419-3.168Zm-4.543-.275h3.5a1.638,1.638,0,0,0-.512-1.2,1.619,1.619,0,0,0-1.16-.484,1.765,1.765,0,0,0-1.216.457A1.905,1.905,0,0,0,447.876-3.443Zm7.359-3.465V-8.2h.946v1.287Zm0,6.908V-5.83h.946V0Zm4.752.066a1.825,1.825,0,0,1-1.358-.484,1.857,1.857,0,0,1-.479-1.364V-4.928h-1.133v-.9h.3a.808.808,0,0,0,.605-.236.851.851,0,0,0,.231-.622V-7.722h.946V-5.83H460.5v.9H459.1v3.146a1.762,1.762,0,0,0,.027.33,1.22,1.22,0,0,0,.126.33.667.667,0,0,0,.33.292,1.418,1.418,0,0,0,.583.1,2.346,2.346,0,0,0,.407-.033v.77A2.577,2.577,0,0,1,459.987.066Zm5.841-6.028a2.37,2.37,0,0,1,1.633.561,1.851,1.851,0,0,1,.633,1.452V0h-.924V-.814a2.087,2.087,0,0,1-.786.693,2.255,2.255,0,0,1-1.051.253,2.242,2.242,0,0,1-1.5-.49,1.576,1.576,0,0,1-.578-1.259,1.394,1.394,0,0,1,.49-1.078,3.007,3.007,0,0,1,1.38-.638l2.024-.451v-.165a1,1,0,0,0-.368-.8,1.434,1.434,0,0,0-.952-.308,1.659,1.659,0,0,0-.913.253,1.565,1.565,0,0,0-.594.693l-.847-.44a2.164,2.164,0,0,1,.908-1.006A2.713,2.713,0,0,1,465.828-5.962Zm-.44,5.247a1.689,1.689,0,0,0,1.259-.512,1.758,1.758,0,0,0,.5-1.282v-.506l-1.8.418a1.736,1.736,0,0,0-.8.368.792.792,0,0,0-.292.611.794.794,0,0,0,.308.66A1.3,1.3,0,0,0,465.388-.715Zm6.38.781a1.825,1.825,0,0,1-1.358-.484,1.857,1.857,0,0,1-.479-1.364V-4.928H468.8v-.9h.3a.808.808,0,0,0,.605-.236.851.851,0,0,0,.231-.622V-7.722h.946V-5.83h1.408v.9h-1.408v3.146a1.762,1.762,0,0,0,.027.33,1.22,1.22,0,0,0,.126.33.667.667,0,0,0,.33.292,1.418,1.418,0,0,0,.583.1,2.346,2.346,0,0,0,.407-.033v.77A2.577,2.577,0,0,1,471.768.066Zm5.841-6.028a2.37,2.37,0,0,1,1.633.561,1.851,1.851,0,0,1,.633,1.452V0h-.924V-.814a2.087,2.087,0,0,1-.786.693,2.255,2.255,0,0,1-1.051.253,2.242,2.242,0,0,1-1.5-.49,1.576,1.576,0,0,1-.578-1.259,1.394,1.394,0,0,1,.49-1.078,3.007,3.007,0,0,1,1.38-.638l2.024-.451v-.165a1,1,0,0,0-.368-.8,1.434,1.434,0,0,0-.952-.308,1.659,1.659,0,0,0-.913.253,1.565,1.565,0,0,0-.594.693l-.847-.44a2.164,2.164,0,0,1,.908-1.006A2.713,2.713,0,0,1,477.609-5.962Zm-.44,5.247a1.689,1.689,0,0,0,1.259-.512,1.758,1.758,0,0,0,.5-1.282v-.506l-1.8.418a1.736,1.736,0,0,0-.8.368.792.792,0,0,0-.292.611.794.794,0,0,0,.308.66A1.3,1.3,0,0,0,477.169-.715ZM.726,14V5.8h.946V14ZM5.368,8.038A2.37,2.37,0,0,1,7,8.6a1.851,1.851,0,0,1,.632,1.452V14H6.71v-.814a2.087,2.087,0,0,1-.786.693,2.255,2.255,0,0,1-1.05.253,2.242,2.242,0,0,1-1.5-.49,1.576,1.576,0,0,1-.577-1.259,1.394,1.394,0,0,1,.49-1.078,3.007,3.007,0,0,1,1.381-.638l2.024-.451v-.165a1,1,0,0,0-.368-.8,1.434,1.434,0,0,0-.951-.308,1.659,1.659,0,0,0-.913.253,1.565,1.565,0,0,0-.594.693l-.847-.44a2.164,2.164,0,0,1,.908-1.006A2.712,2.712,0,0,1,5.368,8.038Zm-.44,5.247a1.689,1.689,0,0,0,1.26-.511,1.759,1.759,0,0,0,.5-1.282v-.506l-1.8.418a1.735,1.735,0,0,0-.8.369A.823.823,0,0,0,4.1,13.043,1.3,1.3,0,0,0,4.928,13.285Zm6.38.781a1.825,1.825,0,0,1-1.359-.484,1.857,1.857,0,0,1-.478-1.364V9.072H8.338v-.9h.3a.808.808,0,0,0,.605-.237.851.851,0,0,0,.231-.622V6.278h.946V8.17h1.408v.9H10.417v3.146a1.762,1.762,0,0,0,.027.33,1.22,1.22,0,0,0,.127.33.667.667,0,0,0,.33.292,1.418,1.418,0,0,0,.583.1,2.346,2.346,0,0,0,.407-.033v.77A2.576,2.576,0,0,1,11.308,14.066Zm6.534-3.234a3.146,3.146,0,0,1-.044.539H13.277a1.92,1.92,0,0,0,.589,1.375,1.884,1.884,0,0,0,1.347.528,1.77,1.77,0,0,0,1.672-1.034l.825.44a2.372,2.372,0,0,1-.962,1.039,2.909,2.909,0,0,1-1.545.413,2.763,2.763,0,0,1-2.085-.869,3.042,3.042,0,0,1-.83-2.189A3.049,3.049,0,0,1,13.1,8.9a2.671,2.671,0,0,1,2.03-.858,2.543,2.543,0,0,1,1.964.82A2.814,2.814,0,0,1,17.842,10.832ZM13.3,10.557h3.5a1.638,1.638,0,0,0-.511-1.2,1.619,1.619,0,0,0-1.161-.484,1.765,1.765,0,0,0-1.215.457A1.905,1.905,0,0,0,13.3,10.557ZM21.34,8.1h.473v.9H21.2a1.334,1.334,0,0,0-1.017.4,1.561,1.561,0,0,0-.379,1.117V14h-.946V8.17h.913V8.9A1.657,1.657,0,0,1,21.34,8.1Zm5.819,5.962a1.825,1.825,0,0,1-1.358-.484,1.857,1.857,0,0,1-.479-1.364V9.072H24.189v-.9h.3a.808.808,0,0,0,.6-.237.851.851,0,0,0,.231-.622V6.278h.946V8.17h1.408v.9H26.268v3.146a1.762,1.762,0,0,0,.028.33,1.22,1.22,0,0,0,.126.33.667.667,0,0,0,.33.292,1.418,1.418,0,0,0,.583.1,2.346,2.346,0,0,0,.407-.033v.77A2.576,2.576,0,0,1,27.159,14.066Zm1.617-6.974V5.8h.946V7.092Zm0,6.908V8.17h.946V14Zm8.547-5.962a2.032,2.032,0,0,1,1.507.6,2.074,2.074,0,0,1,.594,1.524V14h-.946V10.469A1.579,1.579,0,0,0,38.1,9.358a1.421,1.421,0,0,0-2,.005,1.569,1.569,0,0,0-.38,1.106V14h-.946V10.469a1.579,1.579,0,0,0-.374-1.111,1.421,1.421,0,0,0-2,.005,1.569,1.569,0,0,0-.379,1.106V14h-.946V8.17h.924v.671a1.8,1.8,0,0,1,1.617-.8,2.144,2.144,0,0,1,1.078.275,1.909,1.909,0,0,1,.748.759,1.917,1.917,0,0,1,.764-.765A2.254,2.254,0,0,1,37.323,8.038Zm8.668,2.794a3.146,3.146,0,0,1-.044.539H41.426a1.92,1.92,0,0,0,.588,1.375,1.884,1.884,0,0,0,1.347.528,1.77,1.77,0,0,0,1.672-1.034l.825.44a2.372,2.372,0,0,1-.963,1.039,2.909,2.909,0,0,1-1.545.413,2.763,2.763,0,0,1-2.084-.869,3.042,3.042,0,0,1-.831-2.189A3.049,3.049,0,0,1,41.244,8.9a2.671,2.671,0,0,1,2.03-.858,2.543,2.543,0,0,1,1.964.82A2.814,2.814,0,0,1,45.991,10.832Zm-4.543-.275h3.5a1.638,1.638,0,0,0-.511-1.2,1.619,1.619,0,0,0-1.16-.484,1.765,1.765,0,0,0-1.215.457A1.905,1.905,0,0,0,41.448,10.557Z" transform="translate(51.724 481.225)" fill="#999"/>
      <rect id="Rectangle_9" data-name="Rectangle 9" width="598.182" height="49.585" rx="8" transform="translate(50.705 261.484)" fill="#f4f6fa"/>
      <rect id="Rectangle_10" data-name="Rectangle 10" width="598.182" height="49.705" rx="8" transform="translate(50.705 378.857)" fill="#f4f6fa"/>
      <rect id="Rectangle_11" data-name="Rectangle 11" width="16.954" height="17.101" rx="3" transform="translate(50.705 514.707)" fill="#e6e6e6"/>
      <rect id="Rectangle_12" data-name="Rectangle 12" width="116.574" height="46.666" rx="8" transform="translate(532.561 535.186)" fill="#3399fe"/>
      <path id="Path_698" data-name="Path 698" d="M7.8-9.685H9.691v11.1H8.186L2.762-6.124v7.54H.884v-11.1h1.49L7.8-2.219ZM18.959-2.89a3.324,3.324,0,0,1-.089.8h-5.9a2.153,2.153,0,0,0,.693,1.527,2.254,2.254,0,0,0,1.572.574A2.064,2.064,0,0,0,17.186-1.1l1.475.715a3.031,3.031,0,0,1-1.3,1.431,4.117,4.117,0,0,1-2.138.551A3.914,3.914,0,0,1,12.261.388a4.164,4.164,0,0,1-1.155-3,4.161,4.161,0,0,1,1.14-3,3.767,3.767,0,0,1,2.839-1.192,3.7,3.7,0,0,1,2.772,1.14A3.829,3.829,0,0,1,18.959-2.89ZM13-3.471h4.038a1.859,1.859,0,0,0-.611-1.311A1.913,1.913,0,0,0,15.085-5.3a2.038,2.038,0,0,0-1.371.484A2.2,2.2,0,0,0,13-3.471ZM26.916-6.615,24.07-2.607,26.9,1.416H24.8L23.012-1.206,21.224,1.416h-2.1l2.831-4.023L19.123-6.615h2.086l1.8,2.623L24.83-6.615ZM31.58,1.506a2.823,2.823,0,0,1-2.086-.73,2.781,2.781,0,0,1-.73-2.056V-5.006H27.3V-6.615h.238a1.236,1.236,0,0,0,.9-.313,1.193,1.193,0,0,0,.32-.894V-9.1h1.788v2.489H32.46v1.609H30.552v3.725q0,1.326,1.416,1.326A3.445,3.445,0,0,0,32.5,0V1.431A5.984,5.984,0,0,1,31.58,1.506Z" transform="translate(560.343 562.564)" fill="#fff"/>
      <line id="Line_7" data-name="Line 7" x1="11.988" transform="translate(608.462 557.812)" fill="none" stroke="#fff" stroke-miterlimit="10" stroke-width="1.5" opacity="0.3"/>
      <line id="Line_8" data-name="Line 8" x2="5.599" y2="5.599" transform="translate(615.255 552.213)" fill="none" stroke="#fff" stroke-linejoin="bevel" stroke-width="1.5"/>
      <line id="Line_9" data-name="Line 9" x1="5.599" y2="5.599" transform="translate(615.255 557.812)" fill="none" stroke="#fff" stroke-linecap="square" stroke-miterlimit="10" stroke-width="1.5"/>
      <line id="Line_10" data-name="Line 10" x2="698.527" transform="translate(0.386 63.235)" fill="none" stroke="#e6e6e6" stroke-miterlimit="10" stroke-width="0.75"/>
      <path id="Path_697" data-name="Path 697" d="M7.038.2A6,6,0,0,1,2.525-1.658,6.479,6.479,0,0,1,.731-6.341a6.467,6.467,0,0,1,1.785-4.675,6.011,6.011,0,0,1,4.522-1.853,5.9,5.9,0,0,1,3.349.952,4.8,4.8,0,0,1,1.938,2.346l-1.9.918a3.576,3.576,0,0,0-1.292-1.658,3.546,3.546,0,0,0-2.091-.62A3.872,3.872,0,0,0,4.029-9.656,4.745,4.745,0,0,0,2.873-6.341,4.77,4.77,0,0,0,4.029-3.009,3.872,3.872,0,0,0,7.038-1.734a3.546,3.546,0,0,0,2.091-.62,3.576,3.576,0,0,0,1.292-1.658l1.9.918A4.8,4.8,0,0,1,10.387-.748,5.9,5.9,0,0,1,7.038.2ZM18.36-9.265h.85v1.836h-1.1a2.036,2.036,0,0,0-1.53.595A2.267,2.267,0,0,0,16-5.185V0h-2.04V-9.163h1.921v1.275A2.476,2.476,0,0,1,18.36-9.265ZM28.934-4.913a3.792,3.792,0,0,1-.1.918H22.1a2.456,2.456,0,0,0,.791,1.743,2.572,2.572,0,0,0,1.793.655,2.355,2.355,0,0,0,2.227-1.275l1.683.816A3.458,3.458,0,0,1,27.107-.425,4.7,4.7,0,0,1,24.667.2a4.465,4.465,0,0,1-3.374-1.377A4.75,4.75,0,0,1,19.975-4.59a4.747,4.747,0,0,1,1.3-3.417,4.3,4.3,0,0,1,3.238-1.36,4.215,4.215,0,0,1,3.162,1.3A4.369,4.369,0,0,1,28.934-4.913Zm-6.8-.663h4.607a2.121,2.121,0,0,0-.7-1.5,2.183,2.183,0,0,0-1.53-.6,2.325,2.325,0,0,0-1.564.553A2.5,2.5,0,0,0,22.134-5.576Zm11.8-3.791a3.982,3.982,0,0,1,2.711.909A2.957,2.957,0,0,1,37.689-6.12V0H35.768V-1.02A3.361,3.361,0,0,1,33.048.2a3.64,3.64,0,0,1-2.422-.765,2.441,2.441,0,0,1-.91-1.955q0-2.023,2.924-2.669l3.009-.646V-6.12a1.257,1.257,0,0,0-.476-1.02,1.892,1.892,0,0,0-1.241-.391,2.275,2.275,0,0,0-1.292.374,2.129,2.129,0,0,0-.816,1.037L30.056-7A3.36,3.36,0,0,1,31.51-8.713,4.524,4.524,0,0,1,33.932-9.367Zm-.646,7.956a2.325,2.325,0,0,0,1.691-.655,2.176,2.176,0,0,0,.672-1.624v-.595l-2.6.578a1.719,1.719,0,0,0-.892.433,1.012,1.012,0,0,0-.315.74.978.978,0,0,0,.391.824A1.7,1.7,0,0,0,33.286-1.411ZM43.452.1a3.22,3.22,0,0,1-2.38-.833,3.172,3.172,0,0,1-.833-2.346v-4.25H38.573V-9.163h.272a1.41,1.41,0,0,0,1.029-.357,1.361,1.361,0,0,0,.365-1.02V-12h2.04v2.839h2.176v1.836H42.279v4.25q0,1.513,1.615,1.513a3.931,3.931,0,0,0,.612-.051V.017A6.826,6.826,0,0,1,43.452.1ZM54.094-4.913a3.792,3.792,0,0,1-.1.918H47.26a2.456,2.456,0,0,0,.79,1.743,2.572,2.572,0,0,0,1.794.655,2.355,2.355,0,0,0,2.227-1.275l1.683.816A3.458,3.458,0,0,1,52.267-.425,4.7,4.7,0,0,1,49.827.2a4.465,4.465,0,0,1-3.375-1.377A4.75,4.75,0,0,1,45.135-4.59a4.747,4.747,0,0,1,1.3-3.417,4.3,4.3,0,0,1,3.238-1.36,4.215,4.215,0,0,1,3.162,1.3A4.369,4.369,0,0,1,54.094-4.913Zm-6.8-.663H51.9a2.121,2.121,0,0,0-.7-1.5,2.183,2.183,0,0,0-1.53-.6,2.325,2.325,0,0,0-1.564.553A2.5,2.5,0,0,0,47.294-5.576Zm14.79-3.791a3.982,3.982,0,0,1,2.712.909A2.957,2.957,0,0,1,65.841-6.12V0H63.92V-1.02A3.361,3.361,0,0,1,61.2.2a3.64,3.64,0,0,1-2.422-.765,2.441,2.441,0,0,1-.91-1.955q0-2.023,2.924-2.669L63.8-5.831V-6.12a1.257,1.257,0,0,0-.476-1.02,1.892,1.892,0,0,0-1.241-.391,2.275,2.275,0,0,0-1.292.374,2.129,2.129,0,0,0-.816,1.037L58.208-7a3.36,3.36,0,0,1,1.453-1.708A4.524,4.524,0,0,1,62.084-9.367Zm-.646,7.956a2.325,2.325,0,0,0,1.691-.655A2.176,2.176,0,0,0,63.8-3.689v-.595l-2.6.578a1.719,1.719,0,0,0-.892.433,1.012,1.012,0,0,0-.314.74.978.978,0,0,0,.391.824A1.7,1.7,0,0,0,61.438-1.411ZM78.523-12.665h2.159V0H78.965L72.777-8.6V0H70.635V-12.665h1.7l6.188,8.517ZM91.256-4.913a3.792,3.792,0,0,1-.1.918H84.422a2.456,2.456,0,0,0,.791,1.743,2.572,2.572,0,0,0,1.793.655,2.355,2.355,0,0,0,2.227-1.275l1.683.816A3.458,3.458,0,0,1,89.429-.425,4.7,4.7,0,0,1,86.989.2a4.465,4.465,0,0,1-3.374-1.377A4.75,4.75,0,0,1,82.3-4.59a4.747,4.747,0,0,1,1.3-3.417,4.3,4.3,0,0,1,3.239-1.36A4.215,4.215,0,0,1,90-8.067,4.369,4.369,0,0,1,91.256-4.913Zm-6.8-.663h4.607a2.12,2.12,0,0,0-.7-1.5,2.183,2.183,0,0,0-1.53-.6,2.325,2.325,0,0,0-1.564.553A2.5,2.5,0,0,0,84.456-5.576ZM96.679.1A3.22,3.22,0,0,1,94.3-.731a3.172,3.172,0,0,1-.833-2.346v-4.25H91.8V-9.163h.272A1.41,1.41,0,0,0,93.1-9.52a1.361,1.361,0,0,0,.366-1.02V-12h2.04v2.839h2.176v1.836H95.506v4.25q0,1.513,1.615,1.513a3.931,3.931,0,0,0,.612-.051V.017A6.826,6.826,0,0,1,96.679.1Zm13.8-9.265h2.176L109.48,0h-1.819L105.5-6.562,103.326,0H101.49L98.328-9.163h2.159l1.938,6.154,1.938-6.154h2.261l1.938,6.154Zm10.676,8A4.691,4.691,0,0,1,117.742.2a4.691,4.691,0,0,1-3.417-1.369,4.6,4.6,0,0,1-1.394-3.426,4.589,4.589,0,0,1,1.386-3.417,4.7,4.7,0,0,1,3.425-1.36,4.7,4.7,0,0,1,3.425,1.36,4.589,4.589,0,0,1,1.385,3.417A4.6,4.6,0,0,1,121.159-1.165Zm-3.417-.518a2.522,2.522,0,0,0,1.921-.816,2.912,2.912,0,0,0,.765-2.074,2.942,2.942,0,0,0-.765-2.082,2.51,2.51,0,0,0-1.921-.825,2.5,2.5,0,0,0-1.93.825,2.962,2.962,0,0,0-.757,2.082,2.931,2.931,0,0,0,.757,2.074A2.515,2.515,0,0,0,117.742-1.683ZM128.4-9.265h.85v1.836h-1.1a2.036,2.036,0,0,0-1.53.595,2.267,2.267,0,0,0-.578,1.649V0H124V-9.163h1.921v1.275A2.476,2.476,0,0,1,128.4-9.265Zm10.268.1L135.32-5.474,138.669,0h-2.261l-2.414-4.012-1.428,1.547V0h-2.04V-12.665h2.04v7.446l3.706-3.944Z" transform="translate(84.769 39.02)"/>
      <rect id="Rectangle_13" data-name="Rectangle 13" width="30.667" height="3.222" rx="1" transform="translate(42.554 42.527)" fill="#329afc"/>
      <rect id="Rectangle_14" data-name="Rectangle 14" width="25.187" height="18.055" rx="1" transform="translate(44.987 22.92)" fill="none" stroke="#3399fe" stroke-miterlimit="10" stroke-width="2.5"/>
    </g>
  </g>
</svg>
