<svg xmlns="http://www.w3.org/2000/svg" width="1438.38" height="673.003" viewBox="0 0 1438.38 673.003">
  <g id="Feature-Diagram" transform="translate(-22.16)">
    <line id="Line_19" data-name="Line 19" y2="12" transform="translate(290 500)" fill="none" stroke="#252939" stroke-miterlimit="10" stroke-width="3"/>
    <line id="Line_20" data-name="Line 20" y2="12" transform="translate(304 164)" fill="none" stroke="#252939" stroke-miterlimit="10" stroke-width="3"/>
    <line id="Line_21" data-name="Line 21" y2="12" transform="translate(164 335)" fill="none" stroke="#252939" stroke-miterlimit="10" stroke-width="3"/>
    <circle id="Ellipse_7" data-name="Ellipse 7" cx="36.53" cy="36.53" r="36.53" transform="translate(1171.89 104.59)" fill="#f15a24" stroke="#fff" stroke-miterlimit="10" stroke-width="3"/>
    <circle id="Ellipse_8" data-name="Ellipse 8" cx="36.53" cy="36.53" r="36.53" transform="translate(1171.94 191.82)" fill="#f15a24" stroke="#fff" stroke-miterlimit="10" stroke-width="3"/>
    <line id="Line_22" data-name="Line 22" x1="2.5" transform="translate(1115.5 184.5)" fill="none" stroke="#f15a24" stroke-linecap="round" stroke-miterlimit="10" stroke-width="4"/>
    <line id="Line_23" data-name="Line 23" x1="42.86" transform="translate(1061.21 184.5)" fill="none" stroke="#f15a24" stroke-linecap="round" stroke-miterlimit="10" stroke-width="4" stroke-dasharray="4.76 11.43"/>
    <line id="Line_24" data-name="Line 24" x1="2.5" transform="translate(1053 184.5)" fill="none" stroke="#f15a24" stroke-linecap="round" stroke-miterlimit="10" stroke-width="4"/>
    <line id="Line_25" data-name="Line 25" x2="2.5" transform="translate(346 547)" fill="none" stroke="#329afc" stroke-linecap="round" stroke-miterlimit="10" stroke-width="4"/>
    <line id="Line_26" data-name="Line 26" x2="41.43" transform="translate(359.55 547)" fill="none" stroke="#329afc" stroke-linecap="round" stroke-miterlimit="10" stroke-width="4" stroke-dasharray="4.6 11.05"/>
    <line id="Line_27" data-name="Line 27" x2="2.5" transform="translate(406.5 547)" fill="none" stroke="#329afc" stroke-linecap="round" stroke-miterlimit="10" stroke-width="4"/>
    <line id="Line_28" data-name="Line 28" x2="2.5" transform="translate(382 212)" fill="none" stroke="#329afc" stroke-linecap="round" stroke-miterlimit="10" stroke-width="4"/>
    <line id="Line_29" data-name="Line 29" x2="2.5" transform="translate(398.5 212)" fill="none" stroke="#329afc" stroke-linecap="round" stroke-miterlimit="10" stroke-width="4"/>
    <path id="Path_42" data-name="Path 42" d="M1127.43,860.78c51.47,0,93.19-39.78,93.19-88.86s-41.72-88.86-93.19-88.86c-2.83,0-5.62.14-8.38.37a37.159,37.159,0,0,0,3.33-15.4c0-21.48-18.26-38.89-40.79-38.89a42.11,42.11,0,0,0-20.15,5.1c-17.74-41.58-60.52-70.91-110.49-70.91-65.87,0-119.27,50.92-119.27,113.73,0,.64,0,1.26.05,1.9-1.28-.05-2.55-.09-3.84-.09-53.32,0-96.55,41.21-96.55,92.06s43.23,92.46,96.55,92.07Zm-91.9-103.56" transform="translate(-199 -190)" fill="#e8eff6"/>
    <circle id="Ellipse_9" data-name="Ellipse 9" cx="36.53" cy="36.53" r="36.53" transform="translate(1118 147.75)" fill="#f15a24" stroke="#fff" stroke-miterlimit="10" stroke-width="3"/>
    <line id="Line_30" data-name="Line 30" x2="2.5" transform="translate(236 378.84)" fill="none" stroke="#329afc" stroke-linecap="round" stroke-miterlimit="10" stroke-width="4"/>
    <line id="Line_31" data-name="Line 31" x2="953.85" transform="translate(250.6 378.84)" fill="none" stroke="#329afc" stroke-linecap="round" stroke-miterlimit="10" stroke-width="4" stroke-dasharray="5.04 12.1"/>
    <line id="Line_32" data-name="Line 32" x2="2.5" transform="translate(1210.5 378.84)" fill="none" stroke="#329afc" stroke-linecap="round" stroke-miterlimit="10" stroke-width="4"/>
    <line id="Line_33" data-name="Line 33" y1="2.5" transform="translate(1247 361.5)" fill="none" stroke="#999" stroke-linecap="round" stroke-miterlimit="10" stroke-width="4"/>
    <line id="Line_34" data-name="Line 34" y1="23.13" transform="translate(1247 328.46)" fill="none" stroke="#999" stroke-linecap="round" stroke-miterlimit="10" stroke-width="4" stroke-dasharray="4.13 9.91"/>
    <line id="Line_35" data-name="Line 35" y1="2.5" transform="translate(1247 321)" fill="none" stroke="#999" stroke-linecap="round" stroke-miterlimit="10" stroke-width="4"/>
    <line id="Line_36" data-name="Line 36" x2="2.5" transform="translate(441 190.5)" fill="none" stroke="#f15a24" stroke-linecap="round" stroke-miterlimit="10" stroke-width="4"/>
    <line id="Line_37" data-name="Line 37" x2="29.22" transform="translate(456.02 190.5)" fill="none" stroke="#f15a24" stroke-linecap="round" stroke-miterlimit="10" stroke-width="4" stroke-dasharray="5.22 12.52"/>
    <line id="Line_38" data-name="Line 38" x2="2.5" transform="translate(491.5 190.5)" fill="none" stroke="#f15a24" stroke-linecap="round" stroke-miterlimit="10" stroke-width="4"/>
    <rect id="Rectangle_43" data-name="Rectangle 43" width="135.26" height="64.8" rx="4" transform="translate(96.24 349.76)" fill="#fff"/>
    <rect id="Rectangle_44" data-name="Rectangle 44" width="135.26" height="64.8" rx="4" transform="translate(96.24 349.76)" fill="none" stroke="#252939" stroke-miterlimit="10" stroke-width="3"/>
    <path id="Path_43" data-name="Path 43" d="M1128.9,490.34c52,0,94.1-40.17,94.1-89.73s-42.13-89.72-94.1-89.72c-2.85,0-5.67.14-8.46.38a37.587,37.587,0,0,0,3.36-15.55c0-21.69-18.44-39.28-41.18-39.28a42.421,42.421,0,0,0-20.35,5.16c-17.92-42-61.1-71.6-111.57-71.6-66.51,0-120.42,51.41-120.42,114.83,0,.65,0,1.28.05,1.92-1.29-.05-2.58-.09-3.88-.09-53.84,0-97.48,41.62-97.48,93s43.65,93.35,97.48,93Zm-92.79-104.57" transform="translate(-199 -190)" fill="#e8eff6"/>
    <line id="Line_39" data-name="Line 39" x2="88.5" transform="translate(839 186)" fill="none" stroke="#999" stroke-linecap="round" stroke-miterlimit="10" stroke-width="4" stroke-dasharray="5 12"/>
    <line id="Line_40" data-name="Line 40" x2="79" transform="translate(642 185.5)" fill="none" stroke="#999" stroke-linecap="round" stroke-miterlimit="10" stroke-width="4" stroke-dasharray="5 12"/>
    <line id="Line_41" data-name="Line 41" x2="2.5" transform="translate(560 429.5)" fill="none" stroke="#329afc" stroke-linecap="round" stroke-miterlimit="10" stroke-width="4"/>
    <line id="Line_42" data-name="Line 42" x2="152.34" transform="translate(574.94 429.5)" fill="none" stroke="#329afc" stroke-linecap="round" stroke-miterlimit="10" stroke-width="4" stroke-dasharray="5.18 12.44"/>
    <line id="Line_43" data-name="Line 43" x2="2.5" transform="translate(733.5 429.5)" fill="none" stroke="#329afc" stroke-linecap="round" stroke-miterlimit="10" stroke-width="4"/>
    <line id="Line_44" data-name="Line 44" y2="159" transform="translate(774.5 254)" fill="none" stroke="#999" stroke-linecap="round" stroke-miterlimit="10" stroke-width="4" stroke-dasharray="5 12"/>
    <line id="Line_45" data-name="Line 45" x2="2.5" transform="translate(775 320.5)" fill="none" stroke="#999" stroke-linecap="round" stroke-miterlimit="10" stroke-width="4"/>
    <line id="Line_46" data-name="Line 46" x2="449.15" transform="translate(789.4 320.5)" fill="none" stroke="#999" stroke-linecap="round" stroke-miterlimit="10" stroke-width="4" stroke-dasharray="4.96 11.9"/>
    <line id="Line_47" data-name="Line 47" x2="2.5" transform="translate(1244.5 320.5)" fill="none" stroke="#999" stroke-linecap="round" stroke-miterlimit="10" stroke-width="4"/>
    <circle id="Ellipse_10" data-name="Ellipse 10" cx="38.88" cy="38.88" r="38.88" transform="translate(125 258.29)" fill="#f15a24" stroke="#fff" stroke-miterlimit="10" stroke-width="2"/>
    <rect id="Rectangle_45" data-name="Rectangle 45" width="22.3" height="44" rx="2" transform="translate(186.62 360)" fill="none" stroke="#252939" stroke-miterlimit="10" stroke-width="1.75"/>
    <rect id="Rectangle_46" data-name="Rectangle 46" width="151.83" height="109" rx="4" transform="translate(901.48 134)" fill="#252939"/>
    <rect id="Rectangle_47" data-name="Rectangle 47" width="142.16" height="17.13" rx="2" transform="translate(906.41 137.91)" fill="#fff"/>
    <circle id="Ellipse_11" data-name="Ellipse 11" cx="4.21" cy="4.21" r="4.21" transform="translate(912.58 142.15)" fill="#252939"/>
    <circle id="Ellipse_12" data-name="Ellipse 12" cx="4.21" cy="4.21" r="4.21" transform="translate(924.29 142.15)" fill="#252939"/>
    <rect id="Rectangle_48" data-name="Rectangle 48" width="148.08" height="106.31" rx="4" transform="translate(494.25 136.61)" fill="#fff"/>
    <rect id="Rectangle_49" data-name="Rectangle 49" width="148.08" height="106.31" rx="4" transform="translate(494.25 136.61)" fill="none" stroke="#252939" stroke-miterlimit="10" stroke-width="2"/>
    <rect id="Rectangle_50" data-name="Rectangle 50" width="138.65" height="16.7" rx="2" transform="translate(499.38 140.42)" fill="#252939"/>
    <circle id="Ellipse_13" data-name="Ellipse 13" cx="4.1" cy="4.1" r="4.1" transform="translate(505.4 144.57)" fill="#fff"/>
    <circle id="Ellipse_14" data-name="Ellipse 14" cx="4.1" cy="4.1" r="4.1" transform="translate(516.82 144.57)" fill="#fff"/>
    <rect id="Rectangle_51" data-name="Rectangle 51" width="283.05" height="124.25" rx="4" transform="translate(1106.22 431.75)" fill="none" stroke="#252939" stroke-miterlimit="10" stroke-width="3"/>
    <rect id="Rectangle_52" data-name="Rectangle 52" width="99.98" height="64.8" rx="4" transform="translate(240.5 515.2)" fill="none" stroke="#252939" stroke-miterlimit="10" stroke-width="3"/>
    <circle id="Ellipse_15" data-name="Ellipse 15" cx="38.88" cy="38.88" r="38.88" transform="translate(250.72 423.83)" fill="#f15a24" stroke="#fff" stroke-miterlimit="10" stroke-width="2"/>
    <rect id="Rectangle_53" data-name="Rectangle 53" width="57.47" height="6.03" rx="1" transform="translate(260.76 563.97)" fill="#fff"/>
    <rect id="Rectangle_54" data-name="Rectangle 54" width="57.47" height="6.03" rx="1" transform="translate(260.76 563.97)" fill="none" stroke="#252939" stroke-miterlimit="10" stroke-width="1.75"/>
    <rect id="Rectangle_55" data-name="Rectangle 55" width="47.2" height="35.52" rx="1" transform="translate(265.88 526.02)" fill="#fff"/>
    <rect id="Rectangle_56" data-name="Rectangle 56" width="47.2" height="35.52" rx="1" transform="translate(265.88 526.02)" fill="none" stroke="#252939" stroke-miterlimit="10" stroke-width="1.75"/>
    <rect id="Rectangle_57" data-name="Rectangle 57" width="148.76" height="64.8" rx="4" transform="translate(229.5 178.96)" fill="#fff"/>
    <rect id="Rectangle_58" data-name="Rectangle 58" width="148.76" height="64.8" rx="4" transform="translate(229.5 178.96)" fill="none" stroke="#252939" stroke-miterlimit="10" stroke-width="3"/>
    <circle id="Ellipse_16" data-name="Ellipse 16" cx="38.88" cy="38.88" r="38.88" transform="translate(265.1 87.41)" fill="#f15a24" stroke="#fff" stroke-miterlimit="10" stroke-width="2"/>
    <line id="Line_48" data-name="Line 48" y1="2.5" transform="translate(411 544.5)" fill="none" stroke="#329afc" stroke-linecap="round" stroke-miterlimit="10" stroke-width="4"/>
    <line id="Line_49" data-name="Line 49" y1="312.27" transform="translate(411 220.41)" fill="none" stroke="#329afc" stroke-linecap="round" stroke-miterlimit="10" stroke-width="4" stroke-dasharray="4.93 11.82"/>
    <line id="Line_50" data-name="Line 50" y1="2.5" transform="translate(411 212)" fill="none" stroke="#329afc" stroke-linecap="round" stroke-miterlimit="10" stroke-width="4"/>
    <line id="Line_51" data-name="Line 51" x2="2.5" transform="translate(206 298)" fill="none" stroke="#f15a24" stroke-linecap="round" stroke-miterlimit="10" stroke-width="4"/>
    <line id="Line_52" data-name="Line 52" x2="211.31" transform="translate(220.29 298)" fill="none" stroke="#f15a24" stroke-linecap="round" stroke-miterlimit="10" stroke-width="4" stroke-dasharray="4.91 11.79"/>
    <line id="Line_53" data-name="Line 53" x2="2.5" transform="translate(437.5 298)" fill="none" stroke="#f15a24" stroke-linecap="round" stroke-miterlimit="10" stroke-width="4"/>
    <line id="Line_54" data-name="Line 54" y1="2.5" transform="translate(440 460.5)" fill="none" stroke="#f15a24" stroke-linecap="round" stroke-miterlimit="10" stroke-width="4"/>
    <line id="Line_55" data-name="Line 55" y1="314.63" transform="translate(440 133.96)" fill="none" stroke="#f15a24" stroke-linecap="round" stroke-miterlimit="10" stroke-width="4" stroke-dasharray="4.96 11.91"/>
    <line id="Line_56" data-name="Line 56" y1="2.5" transform="translate(440 125.5)" fill="none" stroke="#f15a24" stroke-linecap="round" stroke-miterlimit="10" stroke-width="4"/>
    <line id="Line_57" data-name="Line 57" x2="2.5" transform="translate(332.5 126)" fill="none" stroke="#f15a24" stroke-linecap="round" stroke-miterlimit="10" stroke-width="4"/>
    <line id="Line_58" data-name="Line 58" x2="83.48" transform="translate(347.68 126)" fill="none" stroke="#f15a24" stroke-linecap="round" stroke-miterlimit="10" stroke-width="4" stroke-dasharray="5.28 12.68"/>
    <line id="Line_59" data-name="Line 59" x2="2.5" transform="translate(437.5 126)" fill="none" stroke="#f15a24" stroke-linecap="round" stroke-miterlimit="10" stroke-width="4"/>
    <line id="Line_60" data-name="Line 60" x2="2.5" transform="translate(328.5 463)" fill="none" stroke="#f15a24" stroke-linecap="round" stroke-miterlimit="10" stroke-width="4"/>
    <line id="Line_61" data-name="Line 61" x2="85.11" transform="translate(343.93 463)" fill="none" stroke="#f15a24" stroke-linecap="round" stroke-miterlimit="10" stroke-width="4" stroke-dasharray="5.39 12.93"/>
    <line id="Line_62" data-name="Line 62" x2="2.5" transform="translate(435.5 463)" fill="none" stroke="#f15a24" stroke-linecap="round" stroke-miterlimit="10" stroke-width="4"/>
    <line id="Line_63" data-name="Line 63" y2="36" transform="translate(774.5 432.5)" fill="none" stroke="#252939" stroke-miterlimit="10" stroke-width="3"/>
    <line id="Line_64" data-name="Line 64" y2="42" transform="translate(1247.5 386.5)" fill="none" stroke="#252939" stroke-miterlimit="10" stroke-width="3"/>
    <g id="Group">
      <text id="Wirewise_Cloud_" data-name="Wirewise Cloud " transform="translate(714.17 77.44)" font-size="16" font-family="PlusJakartaSans-SemiBold, Plus Jakarta Sans" font-weight="600"><tspan x="0" y="0">Wirewise Cloud </tspan></text>
      <text id="Services" transform="translate(741.46 96.64)" font-size="16" font-family="PlusJakartaSans-SemiBold, Plus Jakarta Sans" font-weight="600"><tspan x="0" y="0">Services</tspan></text>
    </g>
    <g id="Group-2" data-name="Group">
      <text id="Cloud_Services" data-name="Cloud Services" transform="translate(718.62 632.93)" font-size="16" font-family="PlusJakartaSans-SemiBold, Plus Jakarta Sans" font-weight="600"><tspan x="0" y="0">Cloud Services</tspan></text>
      <text id="_" data-name="(" transform="translate(707.13 652.13)" font-size="16" font-family="PlusJakartaSans-SemiBold, Plus Jakarta Sans" font-weight="600"><tspan x="0" y="0">(</tspan></text>
      <text id="A" transform="translate(712.75 652.13)" font-size="16" font-family="PlusJakartaSans-SemiBold, Plus Jakarta Sans" font-weight="600" letter-spacing="-0.04em"><tspan x="0" y="0">A</tspan></text>
      <text id="W" transform="translate(723.18 652.13)" font-size="16" font-family="PlusJakartaSans-SemiBold, Plus Jakarta Sans" font-weight="600" letter-spacing="-0.01em"><tspan x="0" y="0">W</tspan></text>
      <text id="S_Azure_e" data-name="S, Azure, e" transform="translate(739.15 652.13)" font-size="16" font-family="PlusJakartaSans-SemiBold, Plus Jakarta Sans" font-weight="600"><tspan x="0" y="0">S, Azure, e</tspan></text>
      <text id="t" transform="translate(818.99 652.13)" font-size="16" font-family="PlusJakartaSans-SemiBold, Plus Jakarta Sans" font-weight="600" letter-spacing="-0.01em"><tspan x="0" y="0">t</tspan></text>
      <text id="c._" data-name="c.)" transform="translate(825.31 652.13)" font-size="16" font-family="PlusJakartaSans-SemiBold, Plus Jakarta Sans" font-weight="600"><tspan x="0" y="0">c.)</tspan></text>
    </g>
    <g id="Group-3" data-name="Group">
      <text id="Wirewise_" data-name="Wirewise " transform="translate(940.02 102.18)" font-size="16" font-family="PlusJakartaSans-SemiBold, Plus Jakarta Sans" font-weight="600"><tspan x="0" y="0">Wirewise </tspan></text>
      <text id="A-2" data-name="A" transform="translate(934.31 121.38)" font-size="16" font-family="PlusJakartaSans-SemiBold, Plus Jakarta Sans" font-weight="600" letter-spacing="-0.02em"><tspan x="0" y="0">A</tspan></text>
      <text id="dmin_Si" data-name="dmin Si" transform="translate(945.06 121.38)" font-size="16" font-family="PlusJakartaSans-SemiBold, Plus Jakarta Sans" font-weight="600"><tspan x="0" y="0">dmin Si</tspan></text>
      <text id="t-2" data-name="t" transform="translate(1000.85 121.38)" font-size="16" font-family="PlusJakartaSans-SemiBold, Plus Jakarta Sans" font-weight="600" letter-spacing="-0.01em"><tspan x="0" y="0">t</tspan></text>
      <text id="e" transform="translate(1007.17 121.38)" font-size="16" font-family="PlusJakartaSans-SemiBold, Plus Jakarta Sans" font-weight="600"><tspan x="0" y="0">e</tspan></text>
    </g>
    <g id="Group-4" data-name="Group">
      <text id="Wirewise_2" data-name="Wirewise " transform="translate(535.02 104.66)" font-size="16" font-family="PlusJakartaSans-SemiBold, Plus Jakarta Sans" font-weight="600"><tspan x="0" y="0">Wirewise </tspan></text>
      <text id="User_Si" data-name="User Si" transform="translate(536.45 123.86)" font-size="16" font-family="PlusJakartaSans-SemiBold, Plus Jakarta Sans" font-weight="600"><tspan x="0" y="0">User Si</tspan></text>
      <text id="t-3" data-name="t" transform="translate(588.71 123.86)" font-size="16" font-family="PlusJakartaSans-SemiBold, Plus Jakarta Sans" font-weight="600" letter-spacing="-0.01em"><tspan x="0" y="0">t</tspan></text>
      <text id="e-2" data-name="e" transform="translate(595.03 123.86)" font-size="16" font-family="PlusJakartaSans-SemiBold, Plus Jakarta Sans" font-weight="600"><tspan x="0" y="0">e</tspan></text>
    </g>
    <g id="Group-5" data-name="Group">
      <text id="Wirewise_Users_with_" data-name="Wirewise Users with " transform="translate(22.16 192.19)" font-size="16" font-family="PlusJakartaSans-SemiBold, Plus Jakarta Sans" font-weight="600"><tspan x="0" y="0">Wirewise Users with </tspan></text>
      <text id="Enabled_D" data-name="Enabled D" transform="translate(34.94 211.39)" font-size="16" font-family="PlusJakartaSans-SemiBold, Plus Jakarta Sans" font-weight="600"><tspan x="0" y="0">Enabled D</tspan></text>
      <text id="e-3" data-name="e" transform="translate(113 211.39)" font-size="16" font-family="PlusJakartaSans-SemiBold, Plus Jakarta Sans" font-weight="600" letter-spacing="-0.01em"><tspan x="0" y="0">e</tspan></text>
      <text id="vices" transform="translate(122.65 211.39)" font-size="16" font-family="PlusJakartaSans-SemiBold, Plus Jakarta Sans" font-weight="600"><tspan x="0" y="0">vices</tspan></text>
    </g>
    <g id="Group-6" data-name="Group">
      <text id="Wirewise_3" data-name="Wirewise " transform="translate(1260.02 185.16)" font-size="16" font-family="PlusJakartaSans-SemiBold, Plus Jakarta Sans" font-weight="600"><tspan x="0" y="0">Wirewise </tspan></text>
      <text id="A-3" data-name="A" transform="translate(1266.81 204.36)" font-size="16" font-family="PlusJakartaSans-SemiBold, Plus Jakarta Sans" font-weight="600" letter-spacing="-0.02em"><tspan x="0" y="0">A</tspan></text>
      <text id="dmins" transform="translate(1277.56 204.36)" font-size="16" font-family="PlusJakartaSans-SemiBold, Plus Jakarta Sans" font-weight="600"><tspan x="0" y="0">dmins</tspan></text>
    </g>
    <g id="Group-7" data-name="Group">
      <text id="Host_Machine" data-name="Host Machine" transform="translate(830.29 425.26)" font-size="16" font-family="PlusJakartaSans-SemiBold, Plus Jakarta Sans" font-weight="600"><tspan x="0" y="0">Host Machine</tspan></text>
      <text id="_Wirewise_G" data-name="(Wirewise G" transform="translate(830.29 444.46)" font-size="16" font-family="PlusJakartaSans-SemiBold, Plus Jakarta Sans" font-weight="600"><tspan x="0" y="0">(Wirewise G</tspan></text>
      <text id="at" transform="translate(922.96 444.46)" font-size="16" font-family="PlusJakartaSans-SemiBold, Plus Jakarta Sans" font-weight="600" letter-spacing="-0.01em"><tspan x="0" y="0">at</tspan></text>
      <text id="e-4" data-name="e" transform="translate(938.37 444.46)" font-size="16" font-family="PlusJakartaSans-SemiBold, Plus Jakarta Sans" font-weight="600"><tspan x="0" y="0">e</tspan></text>
      <text id="w-2" data-name="w" transform="translate(948.18 444.46)" font-size="16" font-family="PlusJakartaSans-SemiBold, Plus Jakarta Sans" font-weight="600" letter-spacing="-0.02em"><tspan x="0" y="0">w</tspan></text>
      <text id="ay_" data-name="ay)" transform="translate(961.54 444.46)" font-size="16" font-family="PlusJakartaSans-SemiBold, Plus Jakarta Sans" font-weight="600"><tspan x="0" y="0">ay)</tspan></text>
    </g>
    <g id="Group-8" data-name="Group">
      <text id="Host_Machine-2" data-name="Host Machine" transform="translate(1305.29 372.69)" font-size="16" font-family="PlusJakartaSans-SemiBold, Plus Jakarta Sans" font-weight="600"><tspan x="0" y="0">Host Machine</tspan></text>
      <text id="_Wirewise_G-2" data-name="(Wirewise G" transform="translate(1305.29 391.89)" font-size="16" font-family="PlusJakartaSans-SemiBold, Plus Jakarta Sans" font-weight="600"><tspan x="0" y="0">(Wirewise G</tspan></text>
      <text id="at-2" data-name="at" transform="translate(1397.96 391.89)" font-size="16" font-family="PlusJakartaSans-SemiBold, Plus Jakarta Sans" font-weight="600" letter-spacing="-0.01em"><tspan x="0" y="0">at</tspan></text>
      <text id="e-5" data-name="e" transform="translate(1413.37 391.89)" font-size="16" font-family="PlusJakartaSans-SemiBold, Plus Jakarta Sans" font-weight="600"><tspan x="0" y="0">e</tspan></text>
      <text id="w-3" data-name="w" transform="translate(1423.18 391.89)" font-size="16" font-family="PlusJakartaSans-SemiBold, Plus Jakarta Sans" font-weight="600" letter-spacing="-0.02em"><tspan x="0" y="0">w</tspan></text>
      <text id="ay_2" data-name="ay)" transform="translate(1436.54 391.89)" font-size="16" font-family="PlusJakartaSans-SemiBold, Plus Jakarta Sans" font-weight="600"><tspan x="0" y="0">ay)</tspan></text>
    </g>
    <text id="Corporate_Network" data-name="Corporate Network" transform="translate(1174.93 585.11)" font-size="16" font-family="PlusJakartaSans-SemiBold, Plus Jakarta Sans" font-weight="600"><tspan x="0" y="0" letter-spacing="-0.01em">C</tspan><tspan y="0">orpor</tspan><tspan y="0" letter-spacing="-0.01em">at</tspan><tspan y="0">e Net</tspan><tspan y="0" letter-spacing="-0.01em">w</tspan><tspan y="0">ork</tspan></text>
    <circle id="Ellipse_17" data-name="Ellipse 17" cx="1.89" cy="1.89" r="1.89" transform="translate(195.71 397.71)" fill="#252939"/>
    <line id="Line_65" data-name="Line 65" x2="7.54" transform="translate(193.83 362.51)" fill="none" stroke="#252939" stroke-linecap="round" stroke-miterlimit="10" stroke-width="0.5"/>
    <rect id="Rectangle_59" data-name="Rectangle 59" width="34.51" height="44" rx="2" transform="translate(322.59 189)" fill="none" stroke="#252939" stroke-miterlimit="10" stroke-width="1.75"/>
    <circle id="Ellipse_18" data-name="Ellipse 18" cx="1.89" cy="1.89" r="1.89" transform="translate(337.97 226.71)" fill="#252939"/>
    <line id="Line_66" data-name="Line 66" y1="2.5" transform="translate(559.14 426.5)" fill="none" stroke="#329afc" stroke-linecap="round" stroke-miterlimit="10" stroke-width="4"/>
    <line id="Line_67" data-name="Line 67" y1="26.78" transform="translate(559.14 388.24)" fill="none" stroke="#329afc" stroke-linecap="round" stroke-miterlimit="10" stroke-width="4" stroke-dasharray="4.78 11.48"/>
    <line id="Line_68" data-name="Line 68" y1="2.5" transform="translate(559.14 380)" fill="none" stroke="#329afc" stroke-linecap="round" stroke-miterlimit="10" stroke-width="4"/>
    <rect id="Rectangle_60" data-name="Rectangle 60" width="76.46" height="25.84" rx="6" transform="translate(1120.83 450.99)" fill="#252939"/>
    <rect id="Rectangle_61" data-name="Rectangle 61" width="76.46" height="25.84" rx="6" transform="translate(1120.81 480.8)" fill="#252939"/>
    <rect id="Rectangle_62" data-name="Rectangle 62" width="76.46" height="25.84" rx="6" transform="translate(1120.81 510.71)" fill="#252939"/>
    <circle id="Ellipse_19" data-name="Ellipse 19" cx="6.07" cy="6.07" r="6.07" transform="translate(1125.99 458.05)" fill="#fff"/>
    <circle id="Ellipse_20" data-name="Ellipse 20" cx="6.07" cy="6.07" r="6.07" transform="translate(1125.99 487.48)" fill="#fff"/>
    <circle id="Ellipse_21" data-name="Ellipse 21" cx="6.07" cy="6.07" r="6.07" transform="translate(1125.99 518.05)" fill="#fff"/>
    <rect id="Rectangle_63" data-name="Rectangle 63" width="76.46" height="25.84" rx="6" transform="translate(1208.57 451.05)" fill="#252939"/>
    <rect id="Rectangle_64" data-name="Rectangle 64" width="76.46" height="25.84" rx="6" transform="translate(1208.55 480.86)" fill="#252939"/>
    <rect id="Rectangle_65" data-name="Rectangle 65" width="76.46" height="25.84" rx="6" transform="translate(1208.55 510.77)" fill="#252939"/>
    <circle id="Ellipse_22" data-name="Ellipse 22" cx="6.07" cy="6.07" r="6.07" transform="translate(1213.73 458.11)" fill="#fff"/>
    <circle id="Ellipse_23" data-name="Ellipse 23" cx="6.07" cy="6.07" r="6.07" transform="translate(1213.73 487.54)" fill="#fff"/>
    <circle id="Ellipse_24" data-name="Ellipse 24" cx="6.07" cy="6.07" r="6.07" transform="translate(1213.73 518.11)" fill="#fff"/>
    <rect id="Rectangle_66" data-name="Rectangle 66" width="76.46" height="25.84" rx="6" transform="translate(1296.31 451.1)" fill="#252939"/>
    <rect id="Rectangle_67" data-name="Rectangle 67" width="76.46" height="25.84" rx="6" transform="translate(1296.29 480.92)" fill="#252939"/>
    <rect id="Rectangle_68" data-name="Rectangle 68" width="76.46" height="25.84" rx="6" transform="translate(1296.29 510.83)" fill="#252939"/>
    <circle id="Ellipse_25" data-name="Ellipse 25" cx="6.07" cy="6.07" r="6.07" transform="translate(1301.47 458.17)" fill="#fff"/>
    <circle id="Ellipse_26" data-name="Ellipse 26" cx="6.07" cy="6.07" r="6.07" transform="translate(1301.47 487.6)" fill="#fff"/>
    <circle id="Ellipse_27" data-name="Ellipse 27" cx="6.07" cy="6.07" r="6.07" transform="translate(1301.47 518.17)" fill="#fff"/>
    <rect id="Rectangle_69" data-name="Rectangle 69" width="131.34" height="40.95" rx="6" transform="translate(709.29 470.49)" fill="#252939"/>
    <rect id="Rectangle_70" data-name="Rectangle 70" width="131.34" height="40.95" rx="6" transform="translate(709.26 517.7)" fill="#252939"/>
    <rect id="Rectangle_71" data-name="Rectangle 71" width="131.34" height="40.95" rx="6" transform="translate(709.26 565.05)" fill="#252939"/>
    <circle id="Ellipse_28" data-name="Ellipse 28" cx="9.62" cy="9.62" r="9.62" transform="translate(717.47 481.68)" fill="#fff"/>
    <circle id="Ellipse_29" data-name="Ellipse 29" cx="9.62" cy="9.62" r="9.62" transform="translate(717.47 528.28)" fill="#fff"/>
    <circle id="Ellipse_30" data-name="Ellipse 30" cx="9.62" cy="9.62" r="9.62" transform="translate(717.47 576.68)" fill="#fff"/>
    <rect id="Rectangle_72" data-name="Rectangle 72" width="131.01" height="40.85" rx="6" transform="translate(708.43 113)" fill="#fff"/>
    <rect id="Rectangle_73" data-name="Rectangle 73" width="131.01" height="40.85" rx="6" transform="translate(708.43 113)" fill="none" stroke="#252939" stroke-miterlimit="10" stroke-width="2"/>
    <rect id="Rectangle_74" data-name="Rectangle 74" width="131.01" height="40.85" rx="6" transform="translate(708.39 161.18)" fill="#fff"/>
    <rect id="Rectangle_75" data-name="Rectangle 75" width="131.01" height="40.85" rx="6" transform="translate(708.39 161.18)" fill="none" stroke="#252939" stroke-miterlimit="10" stroke-width="2"/>
    <rect id="Rectangle_76" data-name="Rectangle 76" width="131.01" height="40.85" rx="6" transform="translate(708.39 209.5)" fill="#fff"/>
    <rect id="Rectangle_77" data-name="Rectangle 77" width="131.01" height="40.85" rx="6" transform="translate(708.39 209.5)" fill="none" stroke="#252939" stroke-miterlimit="10" stroke-width="2"/>
    <circle id="Ellipse_31" data-name="Ellipse 31" cx="9.6" cy="9.6" r="9.6" transform="translate(716.58 124.16)" fill="#252939"/>
    <circle id="Ellipse_32" data-name="Ellipse 32" cx="9.6" cy="9.6" r="9.6" transform="translate(716.58 171.73)" fill="#252939"/>
    <circle id="Ellipse_33" data-name="Ellipse 33" cx="9.6" cy="9.6" r="9.6" transform="translate(716.58 221.1)" fill="#252939"/>
    <rect id="Rectangle_78" data-name="Rectangle 78" width="93.74" height="29.85" rx="4" transform="translate(728 415.13)" fill="#28c1bc"/>
    <rect id="Rectangle_79" data-name="Rectangle 79" width="93.74" height="29.85" rx="4" transform="translate(728 415.13)" fill="none" stroke="#e1f0ff" stroke-miterlimit="10" stroke-width="2"/>
    <circle id="Ellipse_34" data-name="Ellipse 34" cx="6.5" cy="6.5" r="6.5" transform="translate(734.81 423.16)" fill="#fff"/>
    <rect id="Rectangle_80" data-name="Rectangle 80" width="93.74" height="29.85" rx="4" transform="translate(1201.26 362.02)" fill="#28c1bc"/>
    <rect id="Rectangle_81" data-name="Rectangle 81" width="93.74" height="29.85" rx="4" transform="translate(1201.26 362.02)" fill="none" stroke="#fff" stroke-linecap="round" stroke-linejoin="round" stroke-width="2"/>
    <circle id="Ellipse_35" data-name="Ellipse 35" cx="6.5" cy="6.5" r="6.5" transform="translate(1209.32 370.05)" fill="#fff"/>
    <path id="Path_44" data-name="Path 44" d="M473.56,669a15.09,15.09,0,0,1,30.17,0" transform="translate(-199 -190)" fill="#f15a24" stroke="#fff" stroke-miterlimit="10" stroke-width="3"/>
    <circle id="Ellipse_36" data-name="Ellipse 36" cx="8.12" cy="8.12" r="8.12" transform="translate(281.52 445.77)" fill="#f15a24" stroke="#fff" stroke-miterlimit="10" stroke-width="3"/>
    <path id="Path_45" data-name="Path 45" d="M347.56,503a15.09,15.09,0,0,1,30.17,0" transform="translate(-199 -190)" fill="#f15a24" stroke="#fff" stroke-miterlimit="10" stroke-width="3"/>
    <circle id="Ellipse_37" data-name="Ellipse 37" cx="8.12" cy="8.12" r="8.12" transform="translate(155.52 279.77)" fill="#f15a24" stroke="#fff" stroke-miterlimit="10" stroke-width="3"/>
    <path id="Path_46" data-name="Path 46" d="M487.56,331a15.09,15.09,0,0,1,30.17,0" transform="translate(-199 -190)" fill="#f15a24" stroke="#fff" stroke-miterlimit="10" stroke-width="3"/>
    <circle id="Ellipse_38" data-name="Ellipse 38" cx="8.12" cy="8.12" r="8.12" transform="translate(295.52 107.77)" fill="#f15a24" stroke="#fff" stroke-miterlimit="10" stroke-width="3"/>
    <path id="Path_47" data-name="Path 47" d="M1338.54,390a14.63,14.63,0,0,1,29.25,0" transform="translate(-199 -190)" fill="#f15a24" stroke="#fff" stroke-miterlimit="10" stroke-width="3"/>
    <circle id="Ellipse_39" data-name="Ellipse 39" cx="7.87" cy="7.87" r="7.87" transform="translate(1146.29 167.78)" fill="#f15a24" stroke="#fff" stroke-miterlimit="10" stroke-width="3"/>
    <path id="Path_48" data-name="Path 48" d="M1392.83,346.36a14.63,14.63,0,0,1,29.25,0" transform="translate(-199 -190)" fill="#f15a24" stroke="#fff" stroke-miterlimit="10" stroke-width="3"/>
    <circle id="Ellipse_40" data-name="Ellipse 40" cx="7.87" cy="7.87" r="7.87" transform="translate(1200.58 124.15)" fill="#f15a24" stroke="#fff" stroke-miterlimit="10" stroke-width="3"/>
    <path id="Path_49" data-name="Path 49" d="M1392.83,433.61a14.63,14.63,0,0,1,29.25,0" transform="translate(-199 -190)" fill="#f15a24" stroke="#fff" stroke-miterlimit="10" stroke-width="3"/>
    <circle id="Ellipse_41" data-name="Ellipse 41" cx="7.87" cy="7.87" r="7.87" transform="translate(1200.58 211.4)" fill="#f15a24" stroke="#fff" stroke-miterlimit="10" stroke-width="3"/>
    <rect id="Rectangle_82" data-name="Rectangle 82" width="57.47" height="6.03" rx="1" transform="translate(112.76 397.97)" fill="#fff"/>
    <rect id="Rectangle_83" data-name="Rectangle 83" width="57.47" height="6.03" rx="1" transform="translate(112.76 397.97)" fill="none" stroke="#252939" stroke-miterlimit="10" stroke-width="1.75"/>
    <rect id="Rectangle_84" data-name="Rectangle 84" width="47.2" height="35.52" rx="1" transform="translate(117.88 360.02)" fill="#fff"/>
    <rect id="Rectangle_85" data-name="Rectangle 85" width="47.2" height="35.52" rx="1" transform="translate(117.88 360.02)" fill="none" stroke="#252939" stroke-miterlimit="10" stroke-width="1.75"/>
    <rect id="Rectangle_86" data-name="Rectangle 86" width="57.47" height="6.03" rx="1" transform="translate(248.76 227.47)" fill="#fff"/>
    <rect id="Rectangle_87" data-name="Rectangle 87" width="57.47" height="6.03" rx="1" transform="translate(248.76 227.47)" fill="none" stroke="#252939" stroke-miterlimit="10" stroke-width="1.75"/>
    <rect id="Rectangle_88" data-name="Rectangle 88" width="47.2" height="35.52" rx="1" transform="translate(253.88 189.52)" fill="#fff"/>
    <rect id="Rectangle_89" data-name="Rectangle 89" width="47.2" height="35.52" rx="1" transform="translate(253.88 189.52)" fill="none" stroke="#252939" stroke-miterlimit="10" stroke-width="1.75"/>
  </g>
</svg>
