<svg xmlns="http://www.w3.org/2000/svg" xmlns:xlink="http://www.w3.org/1999/xlink" width="890" height="760" viewBox="0 0 890 760">
  <defs>
    <filter id="Rectangle_15" x="123.69" y="39.52" width="643.03" height="694.96" filterUnits="userSpaceOnUse">
      <feOffset dy="7" input="SourceAlpha"/>
      <feGaussianBlur stdDeviation="9" result="blur"/>
      <feFlood flood-color="#121212" flood-opacity="0.157"/>
      <feComposite operator="in" in2="blur"/>
      <feComposite in="SourceGraphic"/>
    </filter>
  </defs>
  <g id="Install_Gateway-step-3" transform="translate(-1732 3681)">
    <rect id="Rectangle_40" data-name="Rectangle 40" width="890" height="760" rx="11" transform="translate(1732 -3681)" fill="#f5f5f5"/>
    <g id="Install_Gateway-step-3-2" data-name="Install_Gateway-step-3" transform="translate(1882.2 -3621.48)">
      <g transform="matrix(1, 0, 0, 1, -150.2, -59.52)" filter="url(#Rectangle_15)">
        <rect id="Rectangle_15-2" data-name="Rectangle 15" width="589.03" height="640.96" rx="10" transform="translate(150.69 59.52)" fill="#eaf1f8"/>
      </g>
      <rect id="Rectangle_16" data-name="Rectangle 16" width="589.15" height="100.74" rx="10" transform="translate(0.44 0.21)" fill="#252939"/>
      <path id="Path_13" data-name="Path 13" d="M930.75,256.9a2.7,2.7,0,0,1-.09-.57c0-.6.42-.9,1.27-.9a1.6,1.6,0,0,1,1,.32l3.8,12.36,4-12.42h1.53l4,12.42L949.63,257a2.579,2.579,0,0,1,.67-1.17,1.62,1.62,0,0,1,1.11-.37,1.45,1.45,0,0,1,1.17.51L947.13,272h-1.55l-4.06-11.94-4,11.94h-1.59Z" transform="translate(-674.4 -217.04)" fill="#fff"/>
      <path id="Path_14" data-name="Path 14" d="M956.21,252.63a1.91,1.91,0,0,1-.56-1.39,1.93,1.93,0,0,1,.56-1.4,2,2,0,0,1,2.75,0,1.93,1.93,0,0,1,.56,1.4,1.91,1.91,0,0,1-.56,1.39A2,2,0,0,1,956.21,252.63Zm.08,19.45V257.45a2.15,2.15,0,0,1,.44-1.43,1.53,1.53,0,0,1,1.27-.52,2.921,2.921,0,0,1,.88.12v14.64a2.17,2.17,0,0,1-.44,1.42,1.58,1.58,0,0,1-1.27.53,3,3,0,0,1-.89-.13Z" transform="translate(-674.4 -217.04)" fill="#fff"/>
      <path id="Path_15" data-name="Path 15" d="M964.27,272.08V257.45a2.2,2.2,0,0,1,.44-1.43,1.54,1.54,0,0,1,1.27-.52,2.88,2.88,0,0,1,.88.12V260a7.469,7.469,0,0,1,1.91-3.45,4.09,4.09,0,0,1,2.85-1.16c1.18,0,1.77.54,1.77,1.61a1.659,1.659,0,0,1-.63,1.4,2.29,2.29,0,0,0-1-.16,4,4,0,0,0-3.68,2.13q-1.26,2.13-1.26,6.9v3a2.129,2.129,0,0,1-.45,1.43,1.54,1.54,0,0,1-1.26.52A3,3,0,0,1,964.27,272.08Z" transform="translate(-674.4 -217.04)" fill="#fff"/>
      <path id="Path_16" data-name="Path 16" d="M978.3,271.38a6.809,6.809,0,0,1-2.6-2.95,11.43,11.43,0,0,1,0-9,7.23,7.23,0,0,1,2.6-3,7,7,0,0,1,3.84-1.07,6,6,0,0,1,4.86,2.13,8.83,8.83,0,0,1,1.76,5.78,2.13,2.13,0,0,1-.24,1.21,1.16,1.16,0,0,1-1,.33h-10.2a6,6,0,0,0,1.28,4,4.29,4.29,0,0,0,3.44,1.51,5.87,5.87,0,0,0,2.87-.71,5.58,5.58,0,0,0,2-1.85,1.38,1.38,0,0,1,1,1.44,2.11,2.11,0,0,1-.85,1.6,6.559,6.559,0,0,1-2.2,1.18,8.549,8.549,0,0,1-2.74.45,7.311,7.311,0,0,1-3.82-1.05Zm7.89-8.78a7,7,0,0,0-1-3.92,3.32,3.32,0,0,0-2.89-1.33,4.12,4.12,0,0,0-3.26,1.41,7.69,7.69,0,0,0-1.59,4.1Z" transform="translate(-674.4 -217.04)" fill="#fff"/>
      <path id="Path_17" data-name="Path 17" d="M990.82,256.9a2.2,2.2,0,0,1-.1-.57c0-.6.43-.9,1.27-.9a1.6,1.6,0,0,1,1,.32l3.81,12.36,4-12.42h1.52l4,12.42L1009.7,257a2.57,2.57,0,0,1,.66-1.17,1.65,1.65,0,0,1,1.11-.37,1.45,1.45,0,0,1,1.17.51L1007.2,272h-1.55l-4.06-11.94L997.53,272h-1.59Z" transform="translate(-674.4 -217.04)" fill="#fff"/>
      <path id="Path_18" data-name="Path 18" d="M1016.27,252.63a1.86,1.86,0,0,1-.55-1.39,1.88,1.88,0,0,1,.55-1.4,1.931,1.931,0,0,1,3.31,1.4,1.941,1.941,0,0,1-.55,1.39,2,2,0,0,1-2.76,0Zm.08,19.45V257.45a2.2,2.2,0,0,1,.44-1.43,1.54,1.54,0,0,1,1.27-.52,3,3,0,0,1,.89.12v14.64a2.12,2.12,0,0,1-.45,1.42,1.55,1.55,0,0,1-1.26.53,3,3,0,0,1-.89-.13Z" transform="translate(-674.4 -217.04)" fill="#fff"/>
      <path id="Path_19" data-name="Path 19" d="M1025.73,272a5.25,5.25,0,0,1-2.05-1.18,2.22,2.22,0,0,1-.74-1.57,1.08,1.08,0,0,1,.88-1.18,8,8,0,0,0,2.14,1.61,5.71,5.71,0,0,0,2.68.66,3.23,3.23,0,0,0,2.18-.68,2.29,2.29,0,0,0,.8-1.85,2.37,2.37,0,0,0-.76-1.77,7.629,7.629,0,0,0-2.67-1.31,10.24,10.24,0,0,1-3.88-2.06,4.2,4.2,0,0,1-1.12-3.09,3.59,3.59,0,0,1,1.48-3.25,6.6,6.6,0,0,1,3.72-1,7,7,0,0,1,3.82.93,2.69,2.69,0,0,1,1.44,2.27,1.1,1.1,0,0,1-.89,1.19,8,8,0,0,0-1.92-1.7,4.37,4.37,0,0,0-2.36-.64,3.45,3.45,0,0,0-2.07.59,1.84,1.84,0,0,0-.81,1.56,2.26,2.26,0,0,0,.83,1.79,9.059,9.059,0,0,0,2.85,1.41,9.591,9.591,0,0,1,3.78,2,4,4,0,0,1,1.1,2.91,4.23,4.23,0,0,1-1.56,3.59,6.419,6.419,0,0,1-4,1.18,8.63,8.63,0,0,1-2.87-.41Z" transform="translate(-674.4 -217.04)" fill="#fff"/>
      <path id="Path_20" data-name="Path 20" d="M1040.46,271.38a6.81,6.81,0,0,1-2.6-2.95,10.3,10.3,0,0,1-.92-4.48,10.473,10.473,0,0,1,.93-4.55,7.3,7.3,0,0,1,2.6-3,7,7,0,0,1,3.85-1.07,6,6,0,0,1,4.86,2.13,8.771,8.771,0,0,1,1.76,5.78,2.129,2.129,0,0,1-.24,1.21,1.13,1.13,0,0,1-1,.32h-10.2a6,6,0,0,0,1.28,4,4.3,4.3,0,0,0,3.44,1.5,5.72,5.72,0,0,0,2.86-.7,5.64,5.64,0,0,0,2.05-1.86,1.4,1.4,0,0,1,.95,1.44,2.11,2.11,0,0,1-.86,1.6,6.47,6.47,0,0,1-2.2,1.19,8.51,8.51,0,0,1-2.74.45A7.3,7.3,0,0,1,1040.46,271.38Zm7.88-8.78a7,7,0,0,0-1-3.92,3.3,3.3,0,0,0-2.88-1.33,4.15,4.15,0,0,0-3.27,1.41,7.61,7.61,0,0,0-1.58,4.1Z" transform="translate(-674.4 -217.04)" fill="#fff"/>
      <path id="Path_21" data-name="Path 21" d="M914.72,263.67l-7.29,12.65a7,7,0,0,1-1,1.33,6.45,6.45,0,0,1-10.13-1.35l-15.48-26.81a8.678,8.678,0,0,1,1.36-1.77,8.59,8.59,0,0,1,12.14,0,8.923,8.923,0,0,1,1.35,1.77l8.06,13.95a6.44,6.44,0,0,0,11,.23Z" transform="translate(-674.4 -217.04)" fill="#27c1bc" fill-rule="evenodd"/>
      <path id="Path_22" data-name="Path 22" d="M874.63,275.25a8.58,8.58,0,0,0,14.85,0L874,248.43a6.43,6.43,0,0,0-8.78-2.37,6.7,6.7,0,0,0-1.35,1h0l-9.4,9.41a6.44,6.44,0,0,1,9.1,0,6.682,6.682,0,0,1,1,1.34Z" transform="translate(-674.4 -217.04)" fill="#139bbf" fill-rule="evenodd"/>
      <path id="Path_23" data-name="Path 23" d="M912.39,245.2a7.51,7.51,0,1,0,5.31,2.2,7.51,7.51,0,0,0-5.31-2.2Z" transform="translate(-674.4 -217.04)" fill="#e55217" fill-rule="evenodd"/>
      <circle id="Ellipse_4" data-name="Ellipse 4" cx="7.67" cy="7.67" r="7.67" transform="translate(14.05 11.19)" fill="#ed1c24" opacity="0.9"/>
      <circle id="Ellipse_5" data-name="Ellipse 5" cx="7.67" cy="7.67" r="7.67" transform="translate(34.1 11.19)" fill="#fbb03b" opacity="0.9"/>
      <circle id="Ellipse_6" data-name="Ellipse 6" cx="7.67" cy="7.67" r="7.67" transform="translate(53.26 11.19)" fill="#22b573" opacity="0.9"/>
      <rect id="Rectangle_17" data-name="Rectangle 17" width="589.6" height="12" transform="translate(0 89.96)" fill="#eaf1f8"/>
      <path id="Path_713" data-name="Path 713" d="M6.405.18A5.407,5.407,0,0,1,2.37-1.463,5.654,5.654,0,0,1,.765-5.58,5.746,5.746,0,0,1,2.34-9.7a5.181,5.181,0,0,1,3.915-1.657,5.126,5.126,0,0,1,2.813.788A4.232,4.232,0,0,1,10.8-8.52l-1.275.615A3.457,3.457,0,0,0,8.25-9.517,3.479,3.479,0,0,0,6.255-10.1,3.756,3.756,0,0,0,3.33-8.828,4.672,4.672,0,0,0,2.19-5.58,4.566,4.566,0,0,0,3.36-2.333,3.976,3.976,0,0,0,6.405-1.08a4.125,4.125,0,0,0,2.07-.51A2.879,2.879,0,0,0,9.75-2.97V-4.62H6.39V-5.865H11.1V-2.82A4.246,4.246,0,0,1,9.353-.645,5.281,5.281,0,0,1,6.405.18ZM15.84-8.13a3.232,3.232,0,0,1,2.228.765,2.524,2.524,0,0,1,.862,1.98V0H17.67V-1.11A2.845,2.845,0,0,1,16.6-.165,3.075,3.075,0,0,1,15.165.18a3.058,3.058,0,0,1-2.047-.668A2.149,2.149,0,0,1,12.33-2.2,1.9,1.9,0,0,1,13-3.675a4.1,4.1,0,0,1,1.882-.87l2.76-.615v-.225a1.359,1.359,0,0,0-.5-1.095,1.955,1.955,0,0,0-1.3-.42,2.262,2.262,0,0,0-1.245.345,2.134,2.134,0,0,0-.81.945l-1.155-.6a2.951,2.951,0,0,1,1.238-1.372A3.7,3.7,0,0,1,15.84-8.13Zm-.6,7.155a2.3,2.3,0,0,0,1.718-.7A2.4,2.4,0,0,0,17.64-3.42v-.69l-2.46.57a2.367,2.367,0,0,0-1.088.5,1.08,1.08,0,0,0-.4.833,1.083,1.083,0,0,0,.42.9A1.772,1.772,0,0,0,15.24-.975ZM23.94.09a2.489,2.489,0,0,1-1.852-.66,2.532,2.532,0,0,1-.653-1.86V-6.72H19.89V-7.95h.4a1.1,1.1,0,0,0,.825-.322,1.161,1.161,0,0,0,.315-.848v-1.41h1.29v2.58h1.92v1.23h-1.92v4.29a2.4,2.4,0,0,0,.038.45,1.663,1.663,0,0,0,.173.45.909.909,0,0,0,.45.4,1.933,1.933,0,0,0,.8.143,3.2,3.2,0,0,0,.555-.045V.015A3.513,3.513,0,0,1,23.94.09Zm8.91-4.41a4.29,4.29,0,0,1-.06.735H26.625a2.619,2.619,0,0,0,.8,1.875,2.57,2.57,0,0,0,1.838.72,2.414,2.414,0,0,0,2.28-1.41l1.125.6A3.235,3.235,0,0,1,31.357-.383,3.967,3.967,0,0,1,29.25.18,3.767,3.767,0,0,1,26.407-1,4.148,4.148,0,0,1,25.275-3.99a4.158,4.158,0,0,1,1.1-2.97,3.643,3.643,0,0,1,2.767-1.17,3.468,3.468,0,0,1,2.677,1.118A3.838,3.838,0,0,1,32.85-4.32ZM26.655-4.7h4.77a2.234,2.234,0,0,0-.7-1.635,2.208,2.208,0,0,0-1.583-.66,2.406,2.406,0,0,0-1.657.622A2.6,2.6,0,0,0,26.655-4.7ZM43.875-7.95H45.33L42.555,0h-1.2L39.42-6.18,37.47,0H36.255L33.48-7.95h1.455L36.87-1.905,38.7-7.95h1.41l1.83,6.015Zm5.145-.18a3.232,3.232,0,0,1,2.228.765,2.524,2.524,0,0,1,.862,1.98V0H50.85V-1.11a2.845,2.845,0,0,1-1.073.945A3.075,3.075,0,0,1,48.345.18,3.058,3.058,0,0,1,46.3-.488,2.149,2.149,0,0,1,45.51-2.2a1.9,1.9,0,0,1,.667-1.47,4.1,4.1,0,0,1,1.882-.87l2.76-.615v-.225a1.359,1.359,0,0,0-.5-1.095,1.955,1.955,0,0,0-1.3-.42,2.262,2.262,0,0,0-1.245.345,2.134,2.134,0,0,0-.81.945l-1.155-.6a2.951,2.951,0,0,1,1.237-1.372A3.7,3.7,0,0,1,49.02-8.13Zm-.6,7.155a2.3,2.3,0,0,0,1.717-.7A2.4,2.4,0,0,0,50.82-3.42v-.69l-2.46.57a2.367,2.367,0,0,0-1.087.5,1.08,1.08,0,0,0-.4.833,1.083,1.083,0,0,0,.42.9A1.772,1.772,0,0,0,48.42-.975ZM59.4-7.965h1.5L57.225.99a6.7,6.7,0,0,1-.368.8,4.588,4.588,0,0,1-.495.69,2.014,2.014,0,0,1-.818.577,3.14,3.14,0,0,1-1.155.195,2.818,2.818,0,0,1-1.05-.165V1.935a2.989,2.989,0,0,0,.825.09,2.188,2.188,0,0,0,.72-.105,1.111,1.111,0,0,0,.5-.337,3.2,3.2,0,0,0,.285-.383,3.33,3.33,0,0,0,.21-.45l.345-.825-3.18-7.89h1.47l2.445,6.15ZM64.86,0V-11.175h1.425V0Zm3.705,0V-11.175h3.99a4.019,4.019,0,0,1,2.783.945,3.2,3.2,0,0,1,1.058,2.5,3.173,3.173,0,0,1-1.058,2.5,4.039,4.039,0,0,1-2.783.938H69.99V0ZM69.99-5.535h2.565a2.419,2.419,0,0,0,1.718-.608,2.08,2.08,0,0,0,.652-1.6,2.063,2.063,0,0,0-.652-1.582,2.419,2.419,0,0,0-1.718-.608H69.99Z" transform="translate(105.53 175.56)" fill="#333"/>
      <path id="Path_712" data-name="Path 712" d="M1.14,0V-11.175H2.565V0ZM8.25-8.13a2.914,2.914,0,0,1,2.13.825,2.781,2.781,0,0,1,.84,2.07V0H9.93V-4.815A2.1,2.1,0,0,0,9.4-6.323a1.879,1.879,0,0,0-1.433-.562,1.9,1.9,0,0,0-1.432.57,2.075,2.075,0,0,0-.548,1.5V0H4.695V-7.95h1.26v.915a2.353,2.353,0,0,1,.953-.8A3.054,3.054,0,0,1,8.25-8.13ZM15.825.18a3.713,3.713,0,0,1-2.07-.585A3.173,3.173,0,0,1,12.48-2l1.1-.54A2.423,2.423,0,0,0,14.467-1.4a2.38,2.38,0,0,0,1.358.4,1.841,1.841,0,0,0,1.125-.322.979.979,0,0,0,.435-.817q0-.75-1.215-1.1L14.865-3.6Q12.84-4.17,12.84-5.82A2.072,2.072,0,0,1,13.6-7.493,3.013,3.013,0,0,1,15.6-8.13a3.463,3.463,0,0,1,1.928.54A2.919,2.919,0,0,1,18.7-6.12l-1.08.525a1.976,1.976,0,0,0-.78-1A2.226,2.226,0,0,0,15.6-6.945a1.683,1.683,0,0,0-1.035.293.906.906,0,0,0-.39.758q0,.765,1.14,1.11l1.35.4q2.055.6,2.055,2.235a2.054,2.054,0,0,1-.8,1.68A3.238,3.238,0,0,1,15.825.18ZM23.46.09a2.489,2.489,0,0,1-1.852-.66,2.532,2.532,0,0,1-.653-1.86V-6.72H19.41V-7.95h.4a1.1,1.1,0,0,0,.825-.322,1.161,1.161,0,0,0,.315-.848v-1.41h1.29v2.58h1.92v1.23h-1.92v4.29a2.4,2.4,0,0,0,.038.45,1.663,1.663,0,0,0,.173.45.909.909,0,0,0,.45.4,1.933,1.933,0,0,0,.8.143,3.2,3.2,0,0,0,.555-.045V.015A3.513,3.513,0,0,1,23.46.09Zm5.385-8.22a3.232,3.232,0,0,1,2.228.765,2.524,2.524,0,0,1,.862,1.98V0h-1.26V-1.11A2.845,2.845,0,0,1,29.6-.165,3.075,3.075,0,0,1,28.17.18a3.058,3.058,0,0,1-2.048-.668A2.149,2.149,0,0,1,25.335-2.2,1.9,1.9,0,0,1,26-3.675a4.1,4.1,0,0,1,1.882-.87l2.76-.615v-.225a1.359,1.359,0,0,0-.5-1.095,1.955,1.955,0,0,0-1.3-.42,2.262,2.262,0,0,0-1.245.345,2.134,2.134,0,0,0-.81.945l-1.155-.6a2.951,2.951,0,0,1,1.237-1.372A3.7,3.7,0,0,1,28.845-8.13Zm-.6,7.155a2.3,2.3,0,0,0,1.717-.7,2.4,2.4,0,0,0,.683-1.748v-.69l-2.46.57a2.367,2.367,0,0,0-1.087.5,1.08,1.08,0,0,0-.4.833,1.083,1.083,0,0,0,.42.9A1.772,1.772,0,0,0,28.245-.975ZM33.615,0V-11.175H34.9V0Zm3.27,0V-11.175h1.29V0Zm6,0V-11.175H44.31v9.93h4.965V0ZM57.368-1A3.949,3.949,0,0,1,54.45.18,3.949,3.949,0,0,1,51.533-1,4.061,4.061,0,0,1,50.355-3.99a4.01,4.01,0,0,1,1.177-2.97A3.975,3.975,0,0,1,54.45-8.13a3.975,3.975,0,0,1,2.917,1.17,4.01,4.01,0,0,1,1.177,2.97A4.061,4.061,0,0,1,57.368-1ZM52.508-1.9a2.568,2.568,0,0,0,1.943.833A2.568,2.568,0,0,0,56.393-1.9a2.905,2.905,0,0,0,.788-2.077,2.905,2.905,0,0,0-.788-2.078,2.568,2.568,0,0,0-1.942-.832,2.568,2.568,0,0,0-1.943.832,2.905,2.905,0,0,0-.788,2.078A2.905,2.905,0,0,0,52.508-1.9ZM63.6.18a3.756,3.756,0,0,1-2.842-1.193A4.155,4.155,0,0,1,59.625-3.99a4.1,4.1,0,0,1,1.132-2.963A3.779,3.779,0,0,1,63.6-8.13a3.773,3.773,0,0,1,2.07.593A3.228,3.228,0,0,1,66.975-6.03l-1.155.6A2.457,2.457,0,0,0,64.943-6.5a2.341,2.341,0,0,0-1.343-.39,2.406,2.406,0,0,0-1.868.825,3,3,0,0,0-.743,2.085A3.006,3.006,0,0,0,61.733-1.9a2.4,2.4,0,0,0,1.868.833,2.341,2.341,0,0,0,1.343-.39A2.457,2.457,0,0,0,65.82-2.52l1.155.6a3.273,3.273,0,0,1-1.312,1.5A3.749,3.749,0,0,1,63.6.18Zm7.815-8.31a3.232,3.232,0,0,1,2.227.765,2.524,2.524,0,0,1,.863,1.98V0h-1.26V-1.11a2.845,2.845,0,0,1-1.072.945A3.075,3.075,0,0,1,70.74.18a3.058,3.058,0,0,1-2.048-.668A2.149,2.149,0,0,1,67.905-2.2a1.9,1.9,0,0,1,.667-1.47,4.1,4.1,0,0,1,1.882-.87l2.76-.615v-.225a1.359,1.359,0,0,0-.5-1.095,1.955,1.955,0,0,0-1.3-.42,2.262,2.262,0,0,0-1.245.345,2.134,2.134,0,0,0-.81.945l-1.155-.6a2.951,2.951,0,0,1,1.238-1.372A3.7,3.7,0,0,1,71.415-8.13Zm-.6,7.155a2.3,2.3,0,0,0,1.718-.7,2.4,2.4,0,0,0,.682-1.748v-.69l-2.46.57a2.367,2.367,0,0,0-1.088.5,1.08,1.08,0,0,0-.4.833,1.083,1.083,0,0,0,.42.9A1.772,1.772,0,0,0,70.815-.975ZM76.185,0V-11.175h1.29V0Zm3.27,0V-11.175h1.29V0Zm8.88-7.965h1.5L86.16.99a6.7,6.7,0,0,1-.368.8,4.587,4.587,0,0,1-.5.69,2.014,2.014,0,0,1-.817.577,3.14,3.14,0,0,1-1.155.195,2.818,2.818,0,0,1-1.05-.165V1.935a2.989,2.989,0,0,0,.825.09,2.188,2.188,0,0,0,.72-.105,1.111,1.111,0,0,0,.5-.337A3.2,3.2,0,0,0,84.6,1.2a3.329,3.329,0,0,0,.21-.45l.345-.825-3.18-7.89h1.47l2.445,6.15Z" transform="translate(130.53 494.56)" fill="#333"/>
      <path id="Path_711" data-name="Path 711" d="M1.224,0V-13.41H10.1v2H3.492v3.69H9.738v2H3.492V-2H10.1L10.08,0ZM16.776-9.918A3.585,3.585,0,0,1,19.413-8.91,3.515,3.515,0,0,1,20.43-6.3V0H18.27V-5.76A2.174,2.174,0,0,0,17.7-7.326a1.959,1.959,0,0,0-1.485-.594,2,2,0,0,0-1.5.585,2.167,2.167,0,0,0-.567,1.575V0h-2.16V-9.7h2.034v1.17A2.953,2.953,0,0,1,16.776-9.918ZM26.712.108a3.41,3.41,0,0,1-2.52-.882,3.359,3.359,0,0,1-.882-2.484v-4.5H21.546V-9.7h.288a1.493,1.493,0,0,0,1.089-.378,1.441,1.441,0,0,0,.387-1.08v-1.548h2.16V-9.7h2.3v1.944h-2.3v4.5q0,1.6,1.71,1.6a4.162,4.162,0,0,0,.648-.054V.018A7.228,7.228,0,0,1,26.712.108ZM37.98-5.2a4.015,4.015,0,0,1-.108.972H30.744a2.6,2.6,0,0,0,.837,1.845,2.723,2.723,0,0,0,1.9.693,2.494,2.494,0,0,0,2.358-1.35l1.782.864A3.662,3.662,0,0,1,36.045-.45a4.974,4.974,0,0,1-2.583.666,4.728,4.728,0,0,1-3.573-1.458,5.03,5.03,0,0,1-1.4-3.618,5.027,5.027,0,0,1,1.377-3.618A4.551,4.551,0,0,1,33.3-9.918a4.463,4.463,0,0,1,3.348,1.377A4.626,4.626,0,0,1,37.98-5.2Zm-7.2-.7h4.878a2.245,2.245,0,0,0-.738-1.584,2.311,2.311,0,0,0-1.62-.63,2.462,2.462,0,0,0-1.656.585A2.652,2.652,0,0,0,30.78-5.9ZM44.01-9.81h.9v1.944H43.74a2.156,2.156,0,0,0-1.62.63,2.4,2.4,0,0,0-.612,1.746V0h-2.16V-9.7h2.034v1.35A2.622,2.622,0,0,1,44.01-9.81ZM49.608,0V-13.41h5.166a4.97,4.97,0,0,1,3.393,1.125A3.887,3.887,0,0,1,59.454-9.2,4.122,4.122,0,0,1,58.8-6.849,3.861,3.861,0,0,1,56.97-5.4l3.1,5.4H57.474L54.648-5H51.876V0Zm2.268-6.984h2.9A2.421,2.421,0,0,0,56.493-7.6a2.088,2.088,0,0,0,.657-1.6,2.088,2.088,0,0,0-.657-1.6,2.421,2.421,0,0,0-1.719-.612h-2.9ZM69.552-5.2a4.015,4.015,0,0,1-.108.972H62.316a2.6,2.6,0,0,0,.837,1.845,2.723,2.723,0,0,0,1.9.693,2.494,2.494,0,0,0,2.358-1.35l1.782.864A3.662,3.662,0,0,1,67.617-.45a4.974,4.974,0,0,1-2.583.666,4.728,4.728,0,0,1-3.573-1.458A5.03,5.03,0,0,1,60.066-4.86a5.027,5.027,0,0,1,1.377-3.618,4.551,4.551,0,0,1,3.429-1.44A4.463,4.463,0,0,1,68.22-8.541,4.626,4.626,0,0,1,69.552-5.2Zm-7.2-.7H67.23a2.245,2.245,0,0,0-.738-1.584,2.311,2.311,0,0,0-1.62-.63,2.462,2.462,0,0,0-1.656.585A2.652,2.652,0,0,0,62.352-5.9ZM81.558-9.918a3.316,3.316,0,0,1,2.484,1A3.6,3.6,0,0,1,85.014-6.3V0h-2.16V-5.76a2.272,2.272,0,0,0-.522-1.584,1.78,1.78,0,0,0-1.386-.576,1.78,1.78,0,0,0-1.386.576,2.272,2.272,0,0,0-.522,1.584V0h-2.16V-5.76a2.272,2.272,0,0,0-.522-1.584A1.78,1.78,0,0,0,74.97-7.92a1.752,1.752,0,0,0-1.377.576A2.3,2.3,0,0,0,73.08-5.76V0H70.92V-9.7h2.034v1.188a2.738,2.738,0,0,1,2.61-1.4,3.237,3.237,0,0,1,2.97,1.6A3,3,0,0,1,79.767-9.5,3.776,3.776,0,0,1,81.558-9.918ZM95.094-1.233A4.967,4.967,0,0,1,91.476.216a4.967,4.967,0,0,1-3.618-1.449A4.874,4.874,0,0,1,86.382-4.86a4.859,4.859,0,0,1,1.467-3.618,4.975,4.975,0,0,1,3.627-1.44A4.975,4.975,0,0,1,95.1-8.478,4.859,4.859,0,0,1,96.57-4.86,4.874,4.874,0,0,1,95.094-1.233Zm-3.618-.549a2.671,2.671,0,0,0,2.034-.864,3.083,3.083,0,0,0,.81-2.2,3.115,3.115,0,0,0-.81-2.2,2.658,2.658,0,0,0-2.034-.873,2.65,2.65,0,0,0-2.043.873,3.136,3.136,0,0,0-.8,2.2,3.1,3.1,0,0,0,.8,2.2A2.663,2.663,0,0,0,91.476-1.782ZM102.114.108a3.41,3.41,0,0,1-2.52-.882,3.359,3.359,0,0,1-.882-2.484v-4.5H96.948V-9.7h.288a1.493,1.493,0,0,0,1.089-.378,1.441,1.441,0,0,0,.387-1.08v-1.548h2.16V-9.7h2.3v1.944h-2.3v4.5q0,1.6,1.71,1.6a4.162,4.162,0,0,0,.648-.054V.018A7.228,7.228,0,0,1,102.114.108ZM113.382-5.2a4.015,4.015,0,0,1-.108.972h-7.128a2.6,2.6,0,0,0,.837,1.845,2.723,2.723,0,0,0,1.9.693,2.494,2.494,0,0,0,2.358-1.35l1.782.864A3.662,3.662,0,0,1,111.447-.45a4.974,4.974,0,0,1-2.583.666,4.728,4.728,0,0,1-3.573-1.458,5.03,5.03,0,0,1-1.4-3.618,5.027,5.027,0,0,1,1.377-3.618,4.551,4.551,0,0,1,3.429-1.44,4.463,4.463,0,0,1,3.348,1.377A4.626,4.626,0,0,1,113.382-5.2Zm-7.2-.7h4.878a2.245,2.245,0,0,0-.738-1.584,2.311,2.311,0,0,0-1.62-.63,2.462,2.462,0,0,0-1.656.585A2.652,2.652,0,0,0,106.182-5.9ZM124.506.216a6.612,6.612,0,0,1-4.914-1.971,6.774,6.774,0,0,1-1.944-4.959,6.837,6.837,0,0,1,1.9-4.941,6.357,6.357,0,0,1,4.779-1.971,6.3,6.3,0,0,1,3.51.981,5.111,5.111,0,0,1,2.088,2.511l-2.016.972a3.7,3.7,0,0,0-1.377-1.764,3.8,3.8,0,0,0-2.2-.648,4.087,4.087,0,0,0-3.186,1.359,5.032,5.032,0,0,0-1.224,3.5,4.963,4.963,0,0,0,1.26,3.528,4.341,4.341,0,0,0,3.33,1.35,4.608,4.608,0,0,0,2.3-.54,2.9,2.9,0,0,0,1.314-1.4V-5.328h-3.6v-2h5.8V-3.6a5.022,5.022,0,0,1-2.043,2.754A6.479,6.479,0,0,1,124.506.216ZM135.972-9.918a4.217,4.217,0,0,1,2.871.963A3.131,3.131,0,0,1,139.95-6.48V0h-2.034V-1.08a3.559,3.559,0,0,1-2.88,1.3,3.854,3.854,0,0,1-2.565-.81,2.585,2.585,0,0,1-.963-2.07q0-2.142,3.1-2.826l3.186-.684V-6.48a1.331,1.331,0,0,0-.5-1.08,2,2,0,0,0-1.314-.414,2.409,2.409,0,0,0-1.368.4,2.254,2.254,0,0,0-.864,1.1l-1.872-.936a3.557,3.557,0,0,1,1.539-1.809A4.79,4.79,0,0,1,135.972-9.918Zm-.684,8.424a2.462,2.462,0,0,0,1.791-.693,2.3,2.3,0,0,0,.711-1.719v-.63l-2.754.612a1.82,1.82,0,0,0-.945.459,1.072,1.072,0,0,0-.333.783,1.035,1.035,0,0,0,.414.873A1.8,1.8,0,0,0,135.288-1.494Zm10.764,1.6a3.41,3.41,0,0,1-2.52-.882,3.359,3.359,0,0,1-.882-2.484v-4.5h-1.764V-9.7h.288a1.493,1.493,0,0,0,1.089-.378,1.441,1.441,0,0,0,.387-1.08v-1.548h2.16V-9.7h2.3v1.944h-2.3v4.5q0,1.6,1.71,1.6a4.162,4.162,0,0,0,.648-.054V.018A7.228,7.228,0,0,1,146.052.108ZM157.32-5.2a4.015,4.015,0,0,1-.108.972h-7.128a2.6,2.6,0,0,0,.837,1.845,2.723,2.723,0,0,0,1.9.693,2.494,2.494,0,0,0,2.358-1.35l1.782.864A3.662,3.662,0,0,1,155.385-.45,4.974,4.974,0,0,1,152.8.216a4.728,4.728,0,0,1-3.573-1.458,5.03,5.03,0,0,1-1.4-3.618,5.027,5.027,0,0,1,1.377-3.618,4.551,4.551,0,0,1,3.429-1.44,4.463,4.463,0,0,1,3.348,1.377A4.626,4.626,0,0,1,157.32-5.2Zm-7.2-.7H155a2.245,2.245,0,0,0-.738-1.584,2.311,2.311,0,0,0-1.62-.63,2.462,2.462,0,0,0-1.656.585A2.652,2.652,0,0,0,150.12-5.9Zm20.538-3.8h2.3L169.6,0H167.67l-2.286-6.948L163.08,0h-1.944l-3.348-9.7h2.286l2.052,6.516L164.178-9.7h2.394l2.052,6.516Zm6.7-.216a4.217,4.217,0,0,1,2.871.963,3.131,3.131,0,0,1,1.107,2.475V0H179.3V-1.08a3.559,3.559,0,0,1-2.88,1.3,3.854,3.854,0,0,1-2.565-.81,2.585,2.585,0,0,1-.963-2.07q0-2.142,3.1-2.826l3.186-.684V-6.48a1.331,1.331,0,0,0-.5-1.08,2,2,0,0,0-1.314-.414,2.409,2.409,0,0,0-1.368.4,2.254,2.254,0,0,0-.864,1.1l-1.872-.936a3.557,3.557,0,0,1,1.539-1.809A4.79,4.79,0,0,1,177.354-9.918Zm-.684,8.424a2.462,2.462,0,0,0,1.791-.693,2.3,2.3,0,0,0,.711-1.719v-.63l-2.754.612a1.82,1.82,0,0,0-.945.459,1.072,1.072,0,0,0-.333.783,1.035,1.035,0,0,0,.414.873A1.8,1.8,0,0,0,176.67-1.494ZM189.738-9.7H192.1l-4.32,10.836a9.86,9.86,0,0,1-.432.918,5.959,5.959,0,0,1-.612.864,2.67,2.67,0,0,1-1.071.774,3.978,3.978,0,0,1-1.521.27,3.469,3.469,0,0,1-1.422-.252V1.89a4.313,4.313,0,0,0,1.116.144,1.881,1.881,0,0,0,.972-.234,1.6,1.6,0,0,0,.54-.459,3.985,3.985,0,0,0,.306-.621l.324-.756L182.16-9.7h2.358l2.61,6.858ZM196.632,0V-13.41H198.9V0Zm9.324-9.918a3.585,3.585,0,0,1,2.637,1.008A3.515,3.515,0,0,1,209.61-6.3V0h-2.16V-5.76a2.174,2.174,0,0,0-.567-1.566A1.959,1.959,0,0,0,205.4-7.92a2,2,0,0,0-1.5.585,2.167,2.167,0,0,0-.567,1.575V0h-2.16V-9.7H203.2v1.17A2.953,2.953,0,0,1,205.956-9.918ZM212.364,0V-7.758h-1.746V-9.7h1.746v-.558a3.286,3.286,0,0,1,.963-2.511,3.609,3.609,0,0,1,2.583-.909,4.268,4.268,0,0,1,.936.09v1.872a4.045,4.045,0,0,0-.666-.054,1.779,1.779,0,0,0-1.215.387,1.417,1.417,0,0,0-.441,1.125V-9.7h2.2v1.944h-2.2V0ZM225.63-1.233A4.967,4.967,0,0,1,222.012.216a4.967,4.967,0,0,1-3.618-1.449,4.874,4.874,0,0,1-1.476-3.627,4.859,4.859,0,0,1,1.467-3.618,4.975,4.975,0,0,1,3.627-1.44,4.975,4.975,0,0,1,3.627,1.44,4.859,4.859,0,0,1,1.467,3.618A4.874,4.874,0,0,1,225.63-1.233Zm-3.618-.549a2.671,2.671,0,0,0,2.034-.864,3.083,3.083,0,0,0,.81-2.2,3.116,3.116,0,0,0-.81-2.2,2.658,2.658,0,0,0-2.034-.873,2.65,2.65,0,0,0-2.043.873,3.136,3.136,0,0,0-.8,2.2,3.1,3.1,0,0,0,.8,2.2A2.663,2.663,0,0,0,222.012-1.782ZM233.3-9.81h.9v1.944h-1.17a2.156,2.156,0,0,0-1.62.63A2.4,2.4,0,0,0,230.8-5.49V0h-2.16V-9.7h2.034v1.35A2.622,2.622,0,0,1,233.3-9.81Zm12.888-.108a3.316,3.316,0,0,1,2.484,1,3.6,3.6,0,0,1,.972,2.619V0h-2.16V-5.76a2.272,2.272,0,0,0-.522-1.584,1.78,1.78,0,0,0-1.386-.576,1.78,1.78,0,0,0-1.386.576,2.272,2.272,0,0,0-.522,1.584V0h-2.16V-5.76a2.272,2.272,0,0,0-.522-1.584A1.78,1.78,0,0,0,239.6-7.92a1.752,1.752,0,0,0-1.377.576,2.3,2.3,0,0,0-.513,1.584V0h-2.16V-9.7h2.034v1.188a2.738,2.738,0,0,1,2.61-1.4,3.237,3.237,0,0,1,2.97,1.6A3,3,0,0,1,244.395-9.5,3.775,3.775,0,0,1,246.186-9.918Zm9.288,0a4.217,4.217,0,0,1,2.871.963,3.131,3.131,0,0,1,1.107,2.475V0h-2.034V-1.08a3.559,3.559,0,0,1-2.88,1.3,3.854,3.854,0,0,1-2.565-.81,2.585,2.585,0,0,1-.963-2.07q0-2.142,3.1-2.826l3.186-.684V-6.48a1.331,1.331,0,0,0-.5-1.08,2,2,0,0,0-1.314-.414,2.409,2.409,0,0,0-1.368.4,2.254,2.254,0,0,0-.864,1.1l-1.872-.936a3.557,3.557,0,0,1,1.539-1.809A4.79,4.79,0,0,1,255.474-9.918Zm-.684,8.424a2.462,2.462,0,0,0,1.791-.693,2.3,2.3,0,0,0,.711-1.719v-.63l-2.754.612a1.82,1.82,0,0,0-.945.459,1.072,1.072,0,0,0-.333.783,1.035,1.035,0,0,0,.414.873A1.8,1.8,0,0,0,254.79-1.494Zm10.764,1.6a3.41,3.41,0,0,1-2.52-.882,3.359,3.359,0,0,1-.882-2.484v-4.5h-1.764V-9.7h.288a1.493,1.493,0,0,0,1.089-.378,1.441,1.441,0,0,0,.387-1.08v-1.548h2.16V-9.7h2.3v1.944h-2.3v4.5q0,1.6,1.71,1.6a4.162,4.162,0,0,0,.648-.054V.018A7.228,7.228,0,0,1,265.554.108Zm2.574-11.088v-2.43h2.16v2.43Zm0,10.98V-9.7h2.16V0Zm12.348-1.233A4.967,4.967,0,0,1,276.858.216a4.967,4.967,0,0,1-3.618-1.449,4.874,4.874,0,0,1-1.476-3.627,4.859,4.859,0,0,1,1.467-3.618,4.975,4.975,0,0,1,3.627-1.44,4.975,4.975,0,0,1,3.627,1.44,4.859,4.859,0,0,1,1.467,3.618A4.874,4.874,0,0,1,280.476-1.233Zm-3.618-.549a2.671,2.671,0,0,0,2.034-.864,3.083,3.083,0,0,0,.81-2.2,3.115,3.115,0,0,0-.81-2.2,2.658,2.658,0,0,0-2.034-.873,2.65,2.65,0,0,0-2.043.873,3.136,3.136,0,0,0-.8,2.2,3.1,3.1,0,0,0,.8,2.2A2.663,2.663,0,0,0,276.858-1.782ZM288.27-9.918a3.585,3.585,0,0,1,2.637,1.008,3.515,3.515,0,0,1,1.017,2.61V0h-2.16V-5.76a2.174,2.174,0,0,0-.567-1.566,1.959,1.959,0,0,0-1.485-.594,2,2,0,0,0-1.5.585,2.167,2.167,0,0,0-.567,1.575V0h-2.16V-9.7h2.034v1.17A2.953,2.953,0,0,1,288.27-9.918Z" transform="translate(134.53 132.68)"/>
      <path id="Path_24" data-name="Path 24" d="M112.43,182H476.79a7.63,7.63,0,0,1,7.63,7.63V220a7.63,7.63,0,0,1-7.62,7.63H112.43A7.63,7.63,0,0,1,104.8,220V189.59a7.62,7.62,0,0,1,7.63-7.59Z" fill="#fff"/>
      <path id="Path_25" data-name="Path 25" d="M1151.2,399.38a7.26,7.26,0,0,1,7.25,7.25V437a7.26,7.26,0,0,1-7.25,7.25H786.83a7.26,7.26,0,0,1-7.25-7.25V406.63a7.26,7.26,0,0,1,7.25-7.25H1151.2m0-.75H786.83a8,8,0,0,0-8,8V437a8,8,0,0,0,8,8H1151.2a8,8,0,0,0,8-8V406.63A8,8,0,0,0,1151.2,398.63Z" transform="translate(-674.4 -217.04)" fill="#e6e6e6"/>
      <path id="Path_26" data-name="Path 26" d="M112.43,260H476.79a7.63,7.63,0,0,1,7.63,7.63V298a7.63,7.63,0,0,1-7.62,7.63H112.43A7.63,7.63,0,0,1,104.8,298V267.59A7.62,7.62,0,0,1,112.43,260Z" fill="#fff"/>
      <path id="Path_27" data-name="Path 27" d="M1151.2,477.38a7.26,7.26,0,0,1,7.25,7.25V515a7.26,7.26,0,0,1-7.25,7.25H786.83a7.26,7.26,0,0,1-7.25-7.25V484.63a7.26,7.26,0,0,1,7.25-7.25H1151.2m0-.75H786.83a8,8,0,0,0-8,8V515a8,8,0,0,0,8,8H1151.2a8,8,0,0,0,8-8V484.63A8,8,0,0,0,1151.2,476.63Z" transform="translate(-674.4 -217.04)" fill="#e6e6e6"/>
      <path id="Path_710" data-name="Path 710" d="M7.89-11.175H9.33v7.53A3.623,3.623,0,0,1,8.205-.878,4.16,4.16,0,0,1,5.235.18,4.172,4.172,0,0,1,2.258-.87,3.629,3.629,0,0,1,1.14-3.645v-7.53H2.58v7.53a2.452,2.452,0,0,0,.75,1.838,2.624,2.624,0,0,0,1.9.728,2.631,2.631,0,0,0,1.9-.728A2.44,2.44,0,0,0,7.89-3.645ZM14.235.18a3.713,3.713,0,0,1-2.07-.585A3.173,3.173,0,0,1,10.89-2l1.1-.54A2.423,2.423,0,0,0,12.877-1.4a2.38,2.38,0,0,0,1.358.4,1.841,1.841,0,0,0,1.125-.322.979.979,0,0,0,.435-.817q0-.75-1.215-1.1L13.275-3.6Q11.25-4.17,11.25-5.82a2.072,2.072,0,0,1,.765-1.673A3.013,3.013,0,0,1,14.01-8.13a3.463,3.463,0,0,1,1.928.54,2.919,2.919,0,0,1,1.177,1.47l-1.08.525a1.976,1.976,0,0,0-.78-1,2.226,2.226,0,0,0-1.245-.352,1.683,1.683,0,0,0-1.035.293.906.906,0,0,0-.39.758q0,.765,1.14,1.11l1.35.4q2.055.6,2.055,2.235a2.054,2.054,0,0,1-.8,1.68A3.238,3.238,0,0,1,14.235.18Zm11.43-4.5a4.29,4.29,0,0,1-.06.735H19.44a2.619,2.619,0,0,0,.8,1.875,2.57,2.57,0,0,0,1.837.72A2.414,2.414,0,0,0,24.36-2.4l1.125.6A3.235,3.235,0,0,1,24.172-.383,3.967,3.967,0,0,1,22.065.18,3.767,3.767,0,0,1,19.222-1,4.148,4.148,0,0,1,18.09-3.99a4.158,4.158,0,0,1,1.1-2.97A3.643,3.643,0,0,1,21.96-8.13a3.468,3.468,0,0,1,2.678,1.118A3.838,3.838,0,0,1,25.665-4.32ZM19.47-4.7h4.77a2.234,2.234,0,0,0-.7-1.635,2.208,2.208,0,0,0-1.583-.66,2.406,2.406,0,0,0-1.657.622A2.6,2.6,0,0,0,19.47-4.7ZM30.435-8.04h.645v1.23h-.84a1.819,1.819,0,0,0-1.388.548,2.128,2.128,0,0,0-.517,1.523V0h-1.29V-7.95H28.29v.99A2.259,2.259,0,0,1,30.435-8.04Zm5.58-.09a2.914,2.914,0,0,1,2.13.825,2.781,2.781,0,0,1,.84,2.07V0h-1.29V-4.815a2.1,2.1,0,0,0-.532-1.508,1.879,1.879,0,0,0-1.432-.562,1.9,1.9,0,0,0-1.433.57,2.075,2.075,0,0,0-.548,1.5V0H32.46V-7.95h1.26v.915a2.353,2.353,0,0,1,.952-.8A3.054,3.054,0,0,1,36.015-8.13Zm7.86,0a3.232,3.232,0,0,1,2.228.765,2.524,2.524,0,0,1,.862,1.98V0h-1.26V-1.11a2.845,2.845,0,0,1-1.073.945A3.075,3.075,0,0,1,43.2.18a3.058,3.058,0,0,1-2.048-.668A2.149,2.149,0,0,1,40.365-2.2a1.9,1.9,0,0,1,.667-1.47,4.1,4.1,0,0,1,1.882-.87l2.76-.615v-.225a1.359,1.359,0,0,0-.5-1.095,1.955,1.955,0,0,0-1.3-.42,2.262,2.262,0,0,0-1.245.345,2.134,2.134,0,0,0-.81.945l-1.155-.6A2.951,2.951,0,0,1,41.9-7.583,3.7,3.7,0,0,1,43.875-8.13Zm-.6,7.155a2.3,2.3,0,0,0,1.717-.7,2.4,2.4,0,0,0,.683-1.748v-.69l-2.46.57a2.367,2.367,0,0,0-1.087.5,1.08,1.08,0,0,0-.4.833,1.083,1.083,0,0,0,.42.9A1.772,1.772,0,0,0,43.275-.975ZM57.15-8.13a2.771,2.771,0,0,1,2.055.818,2.828,2.828,0,0,1,.81,2.077V0h-1.29V-4.815a2.153,2.153,0,0,0-.51-1.515,1.764,1.764,0,0,0-1.365-.555,1.758,1.758,0,0,0-1.357.563,2.139,2.139,0,0,0-.518,1.508V0h-1.29V-4.815a2.153,2.153,0,0,0-.51-1.515,1.764,1.764,0,0,0-1.365-.555,1.758,1.758,0,0,0-1.357.563,2.139,2.139,0,0,0-.518,1.508V0h-1.29V-7.95H49.9v.915a2.456,2.456,0,0,1,2.205-1.1,2.923,2.923,0,0,1,1.47.375A2.6,2.6,0,0,1,54.6-6.72a2.615,2.615,0,0,1,1.042-1.043A3.073,3.073,0,0,1,57.15-8.13ZM68.97-4.32a4.289,4.289,0,0,1-.06.735H62.745a2.619,2.619,0,0,0,.8,1.875,2.57,2.57,0,0,0,1.838.72,2.414,2.414,0,0,0,2.28-1.41l1.125.6A3.235,3.235,0,0,1,67.478-.383,3.967,3.967,0,0,1,65.37.18,3.767,3.767,0,0,1,62.528-1,4.148,4.148,0,0,1,61.4-3.99a4.158,4.158,0,0,1,1.1-2.97,3.643,3.643,0,0,1,2.767-1.17,3.468,3.468,0,0,1,2.677,1.118A3.838,3.838,0,0,1,68.97-4.32ZM62.775-4.7h4.77a2.234,2.234,0,0,0-.7-1.635,2.208,2.208,0,0,0-1.583-.66,2.406,2.406,0,0,0-1.658.622A2.6,2.6,0,0,0,62.775-4.7Z" transform="translate(105.53 254.56)" fill="#333"/>
      <path id="Path_709" data-name="Path 709" d="M1.14,0V-11.175H5.13a4.019,4.019,0,0,1,2.783.945,3.2,3.2,0,0,1,1.058,2.5,3.173,3.173,0,0,1-1.058,2.5A4.039,4.039,0,0,1,5.13-4.29H2.565V0ZM2.565-5.535H5.13a2.419,2.419,0,0,0,1.718-.608A2.08,2.08,0,0,0,7.5-7.74a2.063,2.063,0,0,0-.652-1.582A2.419,2.419,0,0,0,5.13-9.93H2.565Zm10.17-2.6a3.232,3.232,0,0,1,2.227.765,2.524,2.524,0,0,1,.863,1.98V0h-1.26V-1.11a2.845,2.845,0,0,1-1.073.945A3.075,3.075,0,0,1,12.06.18a3.058,3.058,0,0,1-2.047-.668A2.149,2.149,0,0,1,9.225-2.2a1.9,1.9,0,0,1,.668-1.47,4.1,4.1,0,0,1,1.882-.87l2.76-.615v-.225a1.359,1.359,0,0,0-.5-1.095,1.955,1.955,0,0,0-1.3-.42,2.262,2.262,0,0,0-1.245.345,2.134,2.134,0,0,0-.81.945l-1.155-.6a2.951,2.951,0,0,1,1.238-1.372A3.7,3.7,0,0,1,12.735-8.13Zm-.6,7.155a2.3,2.3,0,0,0,1.718-.7,2.4,2.4,0,0,0,.682-1.748v-.69l-2.46.57a2.367,2.367,0,0,0-1.088.5,1.08,1.08,0,0,0-.4.833,1.083,1.083,0,0,0,.42.9A1.772,1.772,0,0,0,12.135-.975ZM20.28.18a3.713,3.713,0,0,1-2.07-.585A3.173,3.173,0,0,1,16.935-2l1.095-.54A2.423,2.423,0,0,0,18.922-1.4,2.38,2.38,0,0,0,20.28-1,1.841,1.841,0,0,0,21.4-1.327a.979.979,0,0,0,.435-.817q0-.75-1.215-1.1L19.32-3.6Q17.295-4.17,17.3-5.82a2.072,2.072,0,0,1,.765-1.673,3.013,3.013,0,0,1,2-.638,3.463,3.463,0,0,1,1.927.54A2.919,2.919,0,0,1,23.16-6.12L22.08-5.6a1.976,1.976,0,0,0-.78-1,2.226,2.226,0,0,0-1.245-.352,1.683,1.683,0,0,0-1.035.293.906.906,0,0,0-.39.758q0,.765,1.14,1.11l1.35.4q2.055.6,2.055,2.235a2.054,2.054,0,0,1-.8,1.68A3.238,3.238,0,0,1,20.28.18Zm7.08,0a3.713,3.713,0,0,1-2.07-.585A3.173,3.173,0,0,1,24.015-2l1.095-.54A2.423,2.423,0,0,0,26-1.4,2.38,2.38,0,0,0,27.36-1a1.841,1.841,0,0,0,1.125-.322.979.979,0,0,0,.435-.817q0-.75-1.215-1.1L26.4-3.6q-2.025-.57-2.025-2.22a2.072,2.072,0,0,1,.765-1.673,3.013,3.013,0,0,1,2-.638,3.463,3.463,0,0,1,1.927.54A2.919,2.919,0,0,1,30.24-6.12L29.16-5.6a1.976,1.976,0,0,0-.78-1,2.226,2.226,0,0,0-1.245-.352,1.683,1.683,0,0,0-1.035.293.906.906,0,0,0-.39.758q0,.765,1.14,1.11l1.35.4q2.055.6,2.055,2.235a2.054,2.054,0,0,1-.8,1.68A3.238,3.238,0,0,1,27.36.18ZM41.31-7.95h1.455L39.99,0h-1.2L36.855-6.18,34.9,0H33.69L30.915-7.95H32.37l1.935,6.045,1.83-6.045h1.41l1.83,6.015ZM50.257-1A3.949,3.949,0,0,1,47.34.18,3.949,3.949,0,0,1,44.422-1,4.061,4.061,0,0,1,43.245-3.99a4.01,4.01,0,0,1,1.177-2.97A3.975,3.975,0,0,1,47.34-8.13a3.975,3.975,0,0,1,2.918,1.17,4.01,4.01,0,0,1,1.177,2.97A4.061,4.061,0,0,1,50.257-1ZM45.4-1.9a2.568,2.568,0,0,0,1.942.833A2.568,2.568,0,0,0,49.282-1.9a2.905,2.905,0,0,0,.788-2.077,2.905,2.905,0,0,0-.788-2.078,2.568,2.568,0,0,0-1.943-.832,2.568,2.568,0,0,0-1.942.832,2.905,2.905,0,0,0-.788,2.078A2.905,2.905,0,0,0,45.4-1.9ZM56.355-8.04H57v1.23h-.84a1.819,1.819,0,0,0-1.388.548,2.128,2.128,0,0,0-.518,1.523V0h-1.29V-7.95H54.21v.99A2.259,2.259,0,0,1,56.355-8.04Zm8.415-3.135h1.29V0H64.8V-1.155a2.9,2.9,0,0,1-1.193.983A3.88,3.88,0,0,1,61.95.18,3.84,3.84,0,0,1,59.085-1a4.084,4.084,0,0,1-1.155-2.97,4.084,4.084,0,0,1,1.155-2.97,3.822,3.822,0,0,1,2.85-1.185,3.763,3.763,0,0,1,1.65.36,2.963,2.963,0,0,1,1.185.99Zm-4.7,9.285a2.566,2.566,0,0,0,1.958.825A2.59,2.59,0,0,0,63.99-1.89a2.914,2.914,0,0,0,.78-2.085,2.921,2.921,0,0,0-.78-2.078,2.578,2.578,0,0,0-1.965-.832,2.555,2.555,0,0,0-1.958.832,2.937,2.937,0,0,0-.773,2.078A2.93,2.93,0,0,0,60.068-1.89Z" transform="translate(105.53 331.56)" fill="#333"/>
      <rect id="Rectangle_18" data-name="Rectangle 18" width="379.62" height="45.66" rx="7.63" transform="translate(104.8 337.96)" fill="#fff"/>
      <path id="Path_28" data-name="Path 28" d="M1151.2,555.38a7.26,7.26,0,0,1,7.25,7.25V593a7.26,7.26,0,0,1-7.25,7.25H786.83a7.26,7.26,0,0,1-7.25-7.25V562.63a7.26,7.26,0,0,1,7.25-7.25H1151.2m0-.75H786.83a8,8,0,0,0-8,8V593a8,8,0,0,0,8,8H1151.2a8,8,0,0,0,8-8V562.63A8,8,0,0,0,1151.2,554.63Z" transform="translate(-674.4 -217.04)" fill="#e6e6e6"/>
      <rect id="Rectangle_19" data-name="Rectangle 19" width="379.62" height="45.66" rx="7.63" transform="translate(104.8 415.96)" fill="#fff"/>
      <path id="Path_29" data-name="Path 29" d="M1151.2,633.38a7.26,7.26,0,0,1,7.25,7.25V671a7.26,7.26,0,0,1-7.25,7.25H786.83a7.26,7.26,0,0,1-7.25-7.25V640.63a7.26,7.26,0,0,1,7.25-7.25H1151.2m0-.75H786.83a8,8,0,0,0-8,8V671a8,8,0,0,0,8,8H1151.2a8,8,0,0,0,8-8V640.63A8,8,0,0,0,1151.2,632.63Z" transform="translate(-674.4 -217.04)" fill="#e6e6e6"/>
      <path id="Path_708" data-name="Path 708" d="M6-11.175,10.05,0H8.55L7.62-2.67H2.745L1.815,0H.315l4.05-11.175ZM3.18-3.915H7.185l-2-5.715ZM11.505,0V-11.175h3.99a4.019,4.019,0,0,1,2.783.945,3.2,3.2,0,0,1,1.058,2.5,3.173,3.173,0,0,1-1.058,2.5,4.039,4.039,0,0,1-2.783.938H12.93V0ZM12.93-5.535h2.565a2.419,2.419,0,0,0,1.717-.608,2.08,2.08,0,0,0,.653-1.6,2.063,2.063,0,0,0-.653-1.582,2.419,2.419,0,0,0-1.717-.608H12.93ZM21.09,0V-11.175h1.425V0Zm6.285,0V-11.175h3.99a4.019,4.019,0,0,1,2.782.945,3.2,3.2,0,0,1,1.058,2.5,3.173,3.173,0,0,1-1.058,2.5,4.039,4.039,0,0,1-2.782.938H28.8V0ZM28.8-5.535h2.565a2.419,2.419,0,0,0,1.717-.608,2.08,2.08,0,0,0,.653-1.6,2.063,2.063,0,0,0-.653-1.582,2.419,2.419,0,0,0-1.717-.608H28.8Zm10.17-2.6a3.232,3.232,0,0,1,2.228.765,2.524,2.524,0,0,1,.862,1.98V0H40.8V-1.11a2.845,2.845,0,0,1-1.073.945A3.075,3.075,0,0,1,38.3.18a3.058,3.058,0,0,1-2.048-.668A2.149,2.149,0,0,1,35.46-2.2a1.9,1.9,0,0,1,.667-1.47,4.1,4.1,0,0,1,1.882-.87l2.76-.615v-.225a1.359,1.359,0,0,0-.5-1.095,1.955,1.955,0,0,0-1.3-.42,2.262,2.262,0,0,0-1.245.345,2.134,2.134,0,0,0-.81.945l-1.155-.6A2.951,2.951,0,0,1,37-7.583,3.7,3.7,0,0,1,38.97-8.13Zm-.6,7.155a2.3,2.3,0,0,0,1.717-.7A2.4,2.4,0,0,0,40.77-3.42v-.69l-2.46.57a2.367,2.367,0,0,0-1.087.5,1.08,1.08,0,0,0-.4.833,1.083,1.083,0,0,0,.42.9A1.772,1.772,0,0,0,38.37-.975ZM47.07.09a2.489,2.489,0,0,1-1.853-.66,2.532,2.532,0,0,1-.653-1.86V-6.72H43.02V-7.95h.4a1.1,1.1,0,0,0,.825-.322,1.161,1.161,0,0,0,.315-.848v-1.41h1.29v2.58h1.92v1.23h-1.92v4.29a2.4,2.4,0,0,0,.038.45,1.663,1.663,0,0,0,.172.45.909.909,0,0,0,.45.4,1.933,1.933,0,0,0,.8.143,3.2,3.2,0,0,0,.555-.045V.015A3.513,3.513,0,0,1,47.07.09Zm5.88-8.22a2.914,2.914,0,0,1,2.13.825,2.8,2.8,0,0,1,.84,2.085V0H54.63V-4.815a2.109,2.109,0,0,0-.532-1.5,1.866,1.866,0,0,0-1.432-.57,1.9,1.9,0,0,0-1.433.57,2.075,2.075,0,0,0-.548,1.5V0H49.4V-11.175h1.29v4.1A2.623,2.623,0,0,1,52.95-8.13Z" transform="translate(105.53 410.56)" fill="#333"/>
      <rect id="Rectangle_20" data-name="Rectangle 20" width="380.1" height="45.37" rx="8" transform="translate(104.49 535.63)" fill="#252939"/>
      <path id="Path_707" data-name="Path 707" d="M1.088,0V-11.92H3.1V0ZM9.376-8.816a3.187,3.187,0,0,1,2.344.9,3.124,3.124,0,0,1,.9,2.32V0H10.7V-5.12a1.932,1.932,0,0,0-.5-1.392A1.741,1.741,0,0,0,8.88-7.04a1.775,1.775,0,0,0-1.336.52,1.926,1.926,0,0,0-.5,1.4V0H5.12V-8.624H6.928v1.04A2.625,2.625,0,0,1,9.376-8.816ZM17.584.192a4.373,4.373,0,0,1-2.376-.648,3.382,3.382,0,0,1-1.432-1.768l1.488-.72a2.373,2.373,0,0,0,2.32,1.568,1.776,1.776,0,0,0,1.032-.272.838.838,0,0,0,.392-.72q0-.688-1.136-.992L16.4-3.744q-2.256-.624-2.256-2.464A2.313,2.313,0,0,1,15.032-8.1a3.556,3.556,0,0,1,2.312-.72,4.109,4.109,0,0,1,2.216.592,3.248,3.248,0,0,1,1.352,1.632l-1.5.7a1.983,1.983,0,0,0-.784-.96,2.3,2.3,0,0,0-1.28-.352,1.61,1.61,0,0,0-.944.248.773.773,0,0,0-.352.664q0,.656,1.04.96l1.536.432q2.288.64,2.288,2.48a2.276,2.276,0,0,1-.928,1.888A3.8,3.8,0,0,1,17.584.192ZM26.112.1a3.031,3.031,0,0,1-2.24-.784A2.986,2.986,0,0,1,23.088-2.9v-4H21.52V-8.624h.256a1.327,1.327,0,0,0,.968-.336,1.281,1.281,0,0,0,.344-.96V-11.3h1.92v2.672h2.048V-6.9H25.008v4q0,1.424,1.52,1.424A3.7,3.7,0,0,0,27.1-1.52V.016A6.425,6.425,0,0,1,26.112.1Zm5.84-8.912A3.748,3.748,0,0,1,34.5-7.96a2.783,2.783,0,0,1,.984,2.2V0H33.68V-.96A3.164,3.164,0,0,1,31.12.192a3.426,3.426,0,0,1-2.28-.72,2.3,2.3,0,0,1-.856-1.84q0-1.9,2.752-2.512l2.832-.608V-5.76a1.183,1.183,0,0,0-.448-.96,1.781,1.781,0,0,0-1.168-.368,2.141,2.141,0,0,0-1.216.352,2,2,0,0,0-.768.976L28.3-6.592A3.162,3.162,0,0,1,29.672-8.2,4.258,4.258,0,0,1,31.952-8.816Zm-.608,7.488a2.188,2.188,0,0,0,1.592-.616,2.048,2.048,0,0,0,.632-1.528v-.56l-2.448.544a1.618,1.618,0,0,0-.84.408.953.953,0,0,0-.3.7.92.92,0,0,0,.368.776A1.6,1.6,0,0,0,31.344-1.328ZM37.024,0V-11.92h1.92V0Zm3.76,0V-11.92H42.7V0ZM53.216.192A5.878,5.878,0,0,1,48.848-1.56,6.021,6.021,0,0,1,47.12-5.968a6.078,6.078,0,0,1,1.688-4.392,5.651,5.651,0,0,1,4.248-1.752,5.6,5.6,0,0,1,3.12.872,4.543,4.543,0,0,1,1.856,2.232l-1.792.864a3.291,3.291,0,0,0-1.224-1.568,3.381,3.381,0,0,0-1.96-.576A3.633,3.633,0,0,0,50.224-9.08a4.473,4.473,0,0,0-1.088,3.112,4.411,4.411,0,0,0,1.12,3.136,3.858,3.858,0,0,0,2.96,1.2,4.1,4.1,0,0,0,2.048-.48A2.577,2.577,0,0,0,56.432-3.36V-4.736h-3.2V-6.512h5.152V-3.2A4.464,4.464,0,0,1,56.568-.752,5.759,5.759,0,0,1,53.216.192ZM63.408-8.816a3.748,3.748,0,0,1,2.552.856,2.783,2.783,0,0,1,.984,2.2V0H65.136V-.96A3.164,3.164,0,0,1,62.576.192a3.426,3.426,0,0,1-2.28-.72,2.3,2.3,0,0,1-.856-1.84q0-1.9,2.752-2.512l2.832-.608V-5.76a1.183,1.183,0,0,0-.448-.96,1.781,1.781,0,0,0-1.168-.368,2.141,2.141,0,0,0-1.216.352,2,2,0,0,0-.768.976L59.76-6.592A3.162,3.162,0,0,1,61.128-8.2,4.258,4.258,0,0,1,63.408-8.816ZM62.8-1.328a2.188,2.188,0,0,0,1.592-.616,2.048,2.048,0,0,0,.632-1.528v-.56l-2.448.544a1.617,1.617,0,0,0-.84.408.953.953,0,0,0-.3.7.92.92,0,0,0,.368.776A1.6,1.6,0,0,0,62.8-1.328ZM72.368.1a3.031,3.031,0,0,1-2.24-.784A2.986,2.986,0,0,1,69.344-2.9v-4H67.776V-8.624h.256A1.327,1.327,0,0,0,69-8.96a1.281,1.281,0,0,0,.344-.96V-11.3h1.92v2.672h2.048V-6.9H71.264v4q0,1.424,1.52,1.424a3.7,3.7,0,0,0,.576-.048V.016A6.425,6.425,0,0,1,72.368.1Zm10.016-4.72a3.569,3.569,0,0,1-.1.864H75.952A2.312,2.312,0,0,0,76.7-2.12a2.421,2.421,0,0,0,1.688.616,2.217,2.217,0,0,0,2.1-1.2l1.584.768A3.255,3.255,0,0,1,80.664-.4a4.421,4.421,0,0,1-2.3.592,4.2,4.2,0,0,1-3.176-1.3,4.471,4.471,0,0,1-1.24-3.216,4.468,4.468,0,0,1,1.224-3.216,4.045,4.045,0,0,1,3.048-1.28A3.967,3.967,0,0,1,81.2-7.592,4.112,4.112,0,0,1,82.384-4.624Zm-6.4-.624H80.32a2,2,0,0,0-.656-1.408,2.054,2.054,0,0,0-1.44-.56,2.188,2.188,0,0,0-1.472.52A2.357,2.357,0,0,0,75.984-5.248ZM94.24-8.624h2.048L93.3,0H91.584L89.552-6.176,87.5,0H85.776L82.8-8.624h2.032l1.824,5.792L88.48-8.624h2.128l1.824,5.792Zm5.952-.192a3.748,3.748,0,0,1,2.552.856,2.783,2.783,0,0,1,.984,2.2V0H101.92V-.96A3.164,3.164,0,0,1,99.36.192a3.426,3.426,0,0,1-2.28-.72,2.3,2.3,0,0,1-.856-1.84q0-1.9,2.752-2.512l2.832-.608V-5.76a1.183,1.183,0,0,0-.448-.96,1.781,1.781,0,0,0-1.168-.368,2.141,2.141,0,0,0-1.216.352,2,2,0,0,0-.768.976l-1.664-.832A3.162,3.162,0,0,1,97.912-8.2,4.258,4.258,0,0,1,100.192-8.816Zm-.608,7.488a2.188,2.188,0,0,0,1.592-.616,2.048,2.048,0,0,0,.632-1.528v-.56l-2.448.544a1.618,1.618,0,0,0-.84.408.953.953,0,0,0-.3.7.92.92,0,0,0,.368.776A1.6,1.6,0,0,0,99.584-1.328Zm11.616-7.3h2.1l-3.84,9.632a8.767,8.767,0,0,1-.384.816,5.3,5.3,0,0,1-.544.768,2.373,2.373,0,0,1-.952.688,3.536,3.536,0,0,1-1.352.24A3.084,3.084,0,0,1,104.96,3.3V1.68a3.833,3.833,0,0,0,.992.128,1.672,1.672,0,0,0,.864-.208,1.418,1.418,0,0,0,.48-.408,3.542,3.542,0,0,0,.272-.552l.288-.672-3.392-8.592h2.1l2.32,6.1Z" transform="translate(235.82 563.4)" fill="#fff"/>
      <rect id="Rectangle_21" data-name="Rectangle 21" width="17.61" height="17.63" rx="3.63" transform="translate(104.61 480.37)" fill="#fff"/>
      <path id="Path_30" data-name="Path 30" d="M793,697.79a3.26,3.26,0,0,1,3.25,3.25v10.38a3.26,3.26,0,0,1-3.25,3.25H782.64a3.26,3.26,0,0,1-3.25-3.25V701a3.26,3.26,0,0,1,3.25-3.25H793m0-.75H782.64a4,4,0,0,0-4,4v10.38a4,4,0,0,0,4,4H793a4,4,0,0,0,4-4V701A4,4,0,0,0,793,697Z" transform="translate(-674.4 -217.04)" fill="#e6e6e6"/>
    </g>
  </g>
</svg>
