<svg xmlns="http://www.w3.org/2000/svg" xmlns:xlink="http://www.w3.org/1999/xlink" width="890" height="760" viewBox="0 0 890 760">
  <defs>
    <filter id="Rectangle_22" x="23.08" y="49.055" width="843.84" height="675.89" filterUnits="userSpaceOnUse">
      <feOffset dy="7" input="SourceAlpha"/>
      <feGaussianBlur stdDeviation="9" result="blur"/>
      <feFlood flood-color="#121212" flood-opacity="0.161"/>
      <feComposite operator="in" in2="blur"/>
      <feComposite in="SourceGraphic"/>
    </filter>
  </defs>
  <g id="Register-step-1" transform="translate(180 3681)">
    <rect id="Rectangle_38" data-name="Rectangle 38" width="890" height="760" rx="11" transform="translate(-180 -3681)" fill="#f5f5f5"/>
    <g id="Register-step-1-2" data-name="Register-step-1" transform="translate(-129.92 -3611.945)">
      <g transform="matrix(1, 0, 0, 1, -50.08, -69.05)" filter="url(#Rectangle_22)">
        <rect id="Rectangle_22-2" data-name="Rectangle 22" width="789.84" height="621.89" rx="10" transform="translate(50.08 69.05)" fill="#fff"/>
      </g>
      <path id="Path_696" data-name="Path 696" d="M1.216,0V-11.92H8.992v1.328H2.736v4.016h5.84v1.328H2.736V0ZM10.5-10.048V-11.92h1.376v1.872ZM10.5,0V-8.48h1.376V0Zm6.976-8.576h.688v1.312h-.9a1.94,1.94,0,0,0-1.48.584,2.27,2.27,0,0,0-.552,1.624V0H13.856V-8.48h1.328v1.056A2.41,2.41,0,0,1,17.472-8.576ZM22.592.192a3.961,3.961,0,0,1-2.208-.624,3.385,3.385,0,0,1-1.36-1.7L20.192-2.7A2.584,2.584,0,0,0,21.144-1.5a2.538,2.538,0,0,0,1.448.424,1.963,1.963,0,0,0,1.2-.344,1.045,1.045,0,0,0,.464-.872q0-.8-1.3-1.168L21.568-3.84q-2.16-.608-2.16-2.368a2.21,2.21,0,0,1,.816-1.784,3.214,3.214,0,0,1,2.128-.68,3.693,3.693,0,0,1,2.056.576,3.114,3.114,0,0,1,1.256,1.568l-1.152.56a2.108,2.108,0,0,0-.832-1.064,2.375,2.375,0,0,0-1.328-.376,1.8,1.8,0,0,0-1.1.312.966.966,0,0,0-.416.808q0,.816,1.216,1.184l1.44.432q2.192.64,2.192,2.384A2.191,2.191,0,0,1,24.824-.5,3.453,3.453,0,0,1,22.592.192ZM30.736.1a2.655,2.655,0,0,1-1.976-.7,2.7,2.7,0,0,1-.7-1.984V-7.168H26.416V-8.48h.432a1.175,1.175,0,0,0,.88-.344,1.238,1.238,0,0,0,.336-.9v-1.5H29.44V-8.48h2.048v1.312H29.44v4.576a2.563,2.563,0,0,0,.04.48,1.774,1.774,0,0,0,.184.48.97.97,0,0,0,.48.424,2.062,2.062,0,0,0,.848.152,3.412,3.412,0,0,0,.592-.048V.016A3.747,3.747,0,0,1,30.736.1ZM43.728-11.92h1.52V0h-1.28l-6.32-9.072V0h-1.52V-11.92h1.28l6.32,9.008Zm7.056,3.248a3.447,3.447,0,0,1,2.376.816,2.692,2.692,0,0,1,.92,2.112V0H52.736V-1.184A3.035,3.035,0,0,1,51.592-.176a3.28,3.28,0,0,1-1.528.368A3.262,3.262,0,0,1,47.88-.52a2.292,2.292,0,0,1-.84-1.832,2.028,2.028,0,0,1,.712-1.568,4.373,4.373,0,0,1,2.008-.928L52.7-5.5v-.24a1.45,1.45,0,0,0-.536-1.168,2.085,2.085,0,0,0-1.384-.448,2.413,2.413,0,0,0-1.328.368,2.277,2.277,0,0,0-.864,1.008l-1.232-.64a3.148,3.148,0,0,1,1.32-1.464A3.945,3.945,0,0,1,50.784-8.672Zm-.64,7.632a2.456,2.456,0,0,0,1.832-.744A2.558,2.558,0,0,0,52.7-3.648v-.736l-2.624.608a2.524,2.524,0,0,0-1.16.536,1.152,1.152,0,0,0-.424.888,1.155,1.155,0,0,0,.448.96A1.89,1.89,0,0,0,50.144-1.04Zm14.8-7.632a2.956,2.956,0,0,1,2.192.872A3.017,3.017,0,0,1,68-5.584V0H66.624V-5.136a2.3,2.3,0,0,0-.544-1.616,1.882,1.882,0,0,0-1.456-.592,1.875,1.875,0,0,0-1.448.6,2.282,2.282,0,0,0-.552,1.608V0H61.248V-5.136A2.3,2.3,0,0,0,60.7-6.752a1.882,1.882,0,0,0-1.456-.592,1.875,1.875,0,0,0-1.448.6,2.282,2.282,0,0,0-.552,1.608V0H55.872V-8.48h1.344V-7.5a2.62,2.62,0,0,1,2.352-1.168,3.118,3.118,0,0,1,1.568.4,2.777,2.777,0,0,1,1.088,1.1A2.789,2.789,0,0,1,63.336-8.28,3.278,3.278,0,0,1,64.944-8.672ZM77.552-4.608a4.576,4.576,0,0,1-.064.784H70.912a2.793,2.793,0,0,0,.856,2,2.741,2.741,0,0,0,1.96.768,2.575,2.575,0,0,0,2.432-1.5l1.2.64a3.451,3.451,0,0,1-1.4,1.512,4.231,4.231,0,0,1-2.248.6A4.019,4.019,0,0,1,70.68-1.072a4.424,4.424,0,0,1-1.208-3.184,4.435,4.435,0,0,1,1.176-3.168A3.886,3.886,0,0,1,73.6-8.672,3.7,3.7,0,0,1,76.456-7.48,4.093,4.093,0,0,1,77.552-4.608Zm-6.608-.4h5.088a2.383,2.383,0,0,0-.744-1.744,2.355,2.355,0,0,0-1.688-.7,2.567,2.567,0,0,0-1.768.664A2.771,2.771,0,0,0,70.944-5.008Z" transform="translate(55.35 192.34)" fill="#333"/>
      <path id="Path_695" data-name="Path 695" d="M1.064,0V-10.43H4.788a3.751,3.751,0,0,1,2.6.882A2.983,2.983,0,0,1,8.372-7.21a2.961,2.961,0,0,1-.987,2.331A3.77,3.77,0,0,1,4.788-4H2.394V0Zm1.33-5.166H4.788a2.258,2.258,0,0,0,1.6-.567A1.942,1.942,0,0,0,7-7.224,1.925,1.925,0,0,0,6.391-8.7a2.258,2.258,0,0,0-1.6-.567H2.394ZM9.87,0V-10.43h1.2V0Zm9.7-4.032a4,4,0,0,1-.056.686H13.762a2.444,2.444,0,0,0,.749,1.75,2.4,2.4,0,0,0,1.715.672A2.253,2.253,0,0,0,18.354-2.24l1.05.56A3.019,3.019,0,0,1,18.179-.357a3.7,3.7,0,0,1-1.967.525A3.516,3.516,0,0,1,13.559-.938,3.871,3.871,0,0,1,12.5-3.724,3.881,3.881,0,0,1,13.531-6.5a3.4,3.4,0,0,1,2.583-1.092,3.237,3.237,0,0,1,2.5,1.043A3.582,3.582,0,0,1,19.572-4.032Zm-5.782-.35h4.452a2.085,2.085,0,0,0-.651-1.526,2.061,2.061,0,0,0-1.477-.616,2.246,2.246,0,0,0-1.547.581A2.425,2.425,0,0,0,13.79-4.382Zm9.926-3.206a3.016,3.016,0,0,1,2.079.714,2.356,2.356,0,0,1,.8,1.848V0H25.424V-1.036a2.656,2.656,0,0,1-1,.882,2.87,2.87,0,0,1-1.337.322,2.854,2.854,0,0,1-1.911-.623,2.005,2.005,0,0,1-.735-1.6,1.775,1.775,0,0,1,.623-1.372,3.827,3.827,0,0,1,1.757-.812L25.4-4.816v-.21a1.269,1.269,0,0,0-.469-1.022,1.825,1.825,0,0,0-1.211-.392,2.111,2.111,0,0,0-1.162.322,1.992,1.992,0,0,0-.756.882L20.72-5.8a2.754,2.754,0,0,1,1.155-1.281A3.452,3.452,0,0,1,23.716-7.588ZM23.156-.91a2.149,2.149,0,0,0,1.6-.651A2.238,2.238,0,0,0,25.4-3.192v-.644L23.1-3.3a2.209,2.209,0,0,0-1.015.469,1.008,1.008,0,0,0-.371.777,1.011,1.011,0,0,0,.392.84A1.653,1.653,0,0,0,23.156-.91Zm7.6,1.078a3.466,3.466,0,0,1-1.932-.546,2.962,2.962,0,0,1-1.19-1.484l1.022-.5a2.261,2.261,0,0,0,.833,1.057,2.221,2.221,0,0,0,1.267.371,1.718,1.718,0,0,0,1.05-.3A.914.914,0,0,0,32.214-2q0-.7-1.134-1.022L29.862-3.36q-1.89-.532-1.89-2.072a1.934,1.934,0,0,1,.714-1.561,2.812,2.812,0,0,1,1.862-.6,3.232,3.232,0,0,1,1.8.5,2.725,2.725,0,0,1,1.1,1.372l-1.008.49a1.845,1.845,0,0,0-.728-.931,2.078,2.078,0,0,0-1.162-.329,1.571,1.571,0,0,0-.966.273.845.845,0,0,0-.364.707q0,.714,1.064,1.036l1.26.378Q33.46-3.528,33.46-2a1.917,1.917,0,0,1-.749,1.568A3.022,3.022,0,0,1,30.758.168Zm10.668-4.2a4,4,0,0,1-.056.686H35.616a2.444,2.444,0,0,0,.749,1.75,2.4,2.4,0,0,0,1.715.672A2.253,2.253,0,0,0,40.208-2.24l1.05.56A3.019,3.019,0,0,1,40.033-.357a3.7,3.7,0,0,1-1.967.525A3.516,3.516,0,0,1,35.413-.938a3.871,3.871,0,0,1-1.057-2.786A3.881,3.881,0,0,1,35.385-6.5a3.4,3.4,0,0,1,2.583-1.092,3.237,3.237,0,0,1,2.5,1.043A3.582,3.582,0,0,1,41.426-4.032Zm-5.782-.35H40.1a2.085,2.085,0,0,0-.651-1.526,2.06,2.06,0,0,0-1.477-.616,2.246,2.246,0,0,0-1.547.581A2.425,2.425,0,0,0,35.644-4.382Zm16.128.35a4,4,0,0,1-.056.686H45.962a2.444,2.444,0,0,0,.749,1.75,2.4,2.4,0,0,0,1.715.672A2.253,2.253,0,0,0,50.554-2.24l1.05.56A3.019,3.019,0,0,1,50.379-.357a3.7,3.7,0,0,1-1.967.525A3.516,3.516,0,0,1,45.759-.938,3.871,3.871,0,0,1,44.7-3.724,3.881,3.881,0,0,1,45.731-6.5a3.4,3.4,0,0,1,2.583-1.092,3.237,3.237,0,0,1,2.5,1.043A3.582,3.582,0,0,1,51.772-4.032Zm-5.782-.35h4.452a2.085,2.085,0,0,0-.651-1.526,2.06,2.06,0,0,0-1.477-.616,2.246,2.246,0,0,0-1.547.581A2.425,2.425,0,0,0,45.99-4.382ZM56.378-7.588a2.72,2.72,0,0,1,1.988.77,2.6,2.6,0,0,1,.784,1.932V0h-1.2V-4.494a1.963,1.963,0,0,0-.5-1.407,1.754,1.754,0,0,0-1.337-.525,1.77,1.77,0,0,0-1.337.532,1.936,1.936,0,0,0-.511,1.4V0h-1.2V-7.42h1.176v.854a2.2,2.2,0,0,1,.889-.749A2.85,2.85,0,0,1,56.378-7.588ZM63.966.084a2.323,2.323,0,0,1-1.729-.616,2.363,2.363,0,0,1-.609-1.736v-4H60.186V-7.42h.378a1.028,1.028,0,0,0,.77-.3,1.084,1.084,0,0,0,.294-.791V-9.828h1.2V-7.42h1.792v1.148H62.832v4a2.243,2.243,0,0,0,.035.42,1.552,1.552,0,0,0,.161.42.849.849,0,0,0,.42.371,1.8,1.8,0,0,0,.742.133,2.985,2.985,0,0,0,.518-.042v.98A3.279,3.279,0,0,1,63.966.084Zm8.316-4.116a4,4,0,0,1-.056.686H66.472a2.444,2.444,0,0,0,.749,1.75,2.4,2.4,0,0,0,1.715.672A2.253,2.253,0,0,0,71.064-2.24l1.05.56A3.019,3.019,0,0,1,70.889-.357a3.7,3.7,0,0,1-1.967.525A3.516,3.516,0,0,1,66.269-.938a3.871,3.871,0,0,1-1.057-2.786A3.881,3.881,0,0,1,66.241-6.5a3.4,3.4,0,0,1,2.583-1.092,3.237,3.237,0,0,1,2.5,1.043A3.582,3.582,0,0,1,72.282-4.032ZM66.5-4.382h4.452A2.085,2.085,0,0,0,70.3-5.908a2.061,2.061,0,0,0-1.477-.616,2.246,2.246,0,0,0-1.547.581A2.425,2.425,0,0,0,66.5-4.382ZM76.734-7.5h.6v1.148h-.784a1.7,1.7,0,0,0-1.295.511,1.986,1.986,0,0,0-.483,1.421V0h-1.2V-7.42h1.162V-6.5A2.108,2.108,0,0,1,76.734-7.5Zm9.534.07h1.4L84.238.924a6.252,6.252,0,0,1-.343.749,4.282,4.282,0,0,1-.462.644,1.879,1.879,0,0,1-.763.539,2.931,2.931,0,0,1-1.078.182,2.63,2.63,0,0,1-.98-.154V1.806a2.789,2.789,0,0,0,.77.084,2.042,2.042,0,0,0,.672-.1,1.037,1.037,0,0,0,.462-.315,2.992,2.992,0,0,0,.266-.357,3.109,3.109,0,0,0,.2-.42L83.3-.07,80.332-7.434H81.7l2.282,5.74Zm8.393,6.5A3.686,3.686,0,0,1,91.938.168,3.686,3.686,0,0,1,89.215-.938a3.79,3.79,0,0,1-1.1-2.786,3.743,3.743,0,0,1,1.1-2.772,3.71,3.71,0,0,1,2.723-1.092A3.71,3.71,0,0,1,94.661-6.5a3.743,3.743,0,0,1,1.1,2.772A3.79,3.79,0,0,1,94.661-.938Zm-4.536-.833a2.4,2.4,0,0,0,1.813.777,2.4,2.4,0,0,0,1.813-.777,2.712,2.712,0,0,0,.735-1.939,2.712,2.712,0,0,0-.735-1.939,2.4,2.4,0,0,0-1.813-.777,2.4,2.4,0,0,0-1.813.777A2.712,2.712,0,0,0,89.39-3.71,2.712,2.712,0,0,0,90.125-1.771ZM101.934-7.42h1.2V0h-1.176V-.854a2.2,2.2,0,0,1-.889.749,2.818,2.818,0,0,1-1.239.273,2.64,2.64,0,0,1-1.988-.833,2.834,2.834,0,0,1-.8-2.037V-7.42h1.2v4.494a1.946,1.946,0,0,0,.5,1.407,1.777,1.777,0,0,0,1.344.525,1.747,1.747,0,0,0,1.33-.532,1.952,1.952,0,0,0,.5-1.4ZM108.15-7.5h.6v1.148h-.784a1.7,1.7,0,0,0-1.295.511,1.986,1.986,0,0,0-.483,1.421V0h-1.2V-7.42h1.162V-6.5A2.108,2.108,0,0,1,108.15-7.5ZM113.19,0V-6.272h-1.442V-7.42h1.442v-.672a2.366,2.366,0,0,1,.693-1.813,2.446,2.446,0,0,1,1.743-.651,3.092,3.092,0,0,1,.728.07v1.064a3.312,3.312,0,0,0-.588-.042,1.4,1.4,0,0,0-1,.35,1.338,1.338,0,0,0-.371,1.022v.672h1.764v1.148h-1.764V0Zm4.228-8.792V-10.43h1.2v1.638Zm0,8.792V-7.42h1.2V0Zm6.1-7.5h.6v1.148h-.784a1.7,1.7,0,0,0-1.295.511,1.986,1.986,0,0,0-.483,1.421V0h-1.2V-7.42h1.162V-6.5A2.108,2.108,0,0,1,123.522-7.5ZM128,.168a3.466,3.466,0,0,1-1.932-.546,2.962,2.962,0,0,1-1.19-1.484l1.022-.5a2.261,2.261,0,0,0,.833,1.057A2.221,2.221,0,0,0,128-.938a1.718,1.718,0,0,0,1.05-.3A.914.914,0,0,0,129.458-2q0-.7-1.134-1.022l-1.218-.336q-1.89-.532-1.89-2.072a1.933,1.933,0,0,1,.714-1.561,2.812,2.812,0,0,1,1.862-.6,3.232,3.232,0,0,1,1.8.5,2.725,2.725,0,0,1,1.1,1.372l-1.008.49a1.845,1.845,0,0,0-.728-.931,2.078,2.078,0,0,0-1.162-.329,1.571,1.571,0,0,0-.966.273.845.845,0,0,0-.364.707q0,.714,1.064,1.036l1.26.378Q130.7-3.528,130.7-2a1.917,1.917,0,0,1-.749,1.568A3.022,3.022,0,0,1,128,.168Zm7.126-.084A2.323,2.323,0,0,1,133.4-.532a2.363,2.363,0,0,1-.609-1.736v-4h-1.442V-7.42h.378a1.028,1.028,0,0,0,.77-.3,1.084,1.084,0,0,0,.294-.791V-9.828h1.2V-7.42h1.792v1.148h-1.792v4a2.243,2.243,0,0,0,.035.42,1.552,1.552,0,0,0,.161.42.849.849,0,0,0,.42.371,1.8,1.8,0,0,0,.742.133,2.986,2.986,0,0,0,.518-.042v.98A3.279,3.279,0,0,1,135.128.084Zm7.9-7.672a2.72,2.72,0,0,1,1.988.77,2.6,2.6,0,0,1,.784,1.932V0h-1.2V-4.494a1.963,1.963,0,0,0-.5-1.407,1.754,1.754,0,0,0-1.337-.525,1.77,1.77,0,0,0-1.337.532,1.936,1.936,0,0,0-.511,1.4V0h-1.2V-7.42h1.176v.854a2.2,2.2,0,0,1,.889-.749A2.85,2.85,0,0,1,143.024-7.588Zm7.336,0a3.016,3.016,0,0,1,2.079.714,2.356,2.356,0,0,1,.805,1.848V0h-1.176V-1.036a2.656,2.656,0,0,1-1,.882,2.87,2.87,0,0,1-1.337.322,2.854,2.854,0,0,1-1.911-.623,2.005,2.005,0,0,1-.735-1.6,1.775,1.775,0,0,1,.623-1.372,3.827,3.827,0,0,1,1.757-.812l2.576-.574v-.21a1.269,1.269,0,0,0-.469-1.022,1.825,1.825,0,0,0-1.211-.392,2.111,2.111,0,0,0-1.162.322,1.992,1.992,0,0,0-.756.882l-1.078-.56a2.754,2.754,0,0,1,1.155-1.281A3.452,3.452,0,0,1,150.36-7.588ZM149.8-.91a2.149,2.149,0,0,0,1.6-.651,2.238,2.238,0,0,0,.637-1.631v-.644l-2.3.532a2.209,2.209,0,0,0-1.015.469,1.008,1.008,0,0,0-.371.777,1.011,1.011,0,0,0,.392.84A1.653,1.653,0,0,0,149.8-.91Zm12.95-6.678a2.586,2.586,0,0,1,1.918.763,2.64,2.64,0,0,1,.756,1.939V0h-1.2V-4.494a2.01,2.01,0,0,0-.476-1.414,1.646,1.646,0,0,0-1.274-.518A1.641,1.641,0,0,0,161.2-5.9a2,2,0,0,0-.483,1.407V0h-1.2V-4.494a2.01,2.01,0,0,0-.476-1.414,1.646,1.646,0,0,0-1.274-.518A1.641,1.641,0,0,0,156.5-5.9a2,2,0,0,0-.483,1.407V0h-1.2V-7.42h1.176v.854a2.292,2.292,0,0,1,2.058-1.022,2.728,2.728,0,0,1,1.372.35,2.43,2.43,0,0,1,.952.966,2.44,2.44,0,0,1,.973-.973A2.868,2.868,0,0,1,162.75-7.588Zm11.032,3.556a4,4,0,0,1-.056.686h-5.754a2.444,2.444,0,0,0,.749,1.75,2.4,2.4,0,0,0,1.715.672,2.253,2.253,0,0,0,2.128-1.316l1.05.56a3.019,3.019,0,0,1-1.225,1.323,3.7,3.7,0,0,1-1.967.525,3.516,3.516,0,0,1-2.653-1.106,3.871,3.871,0,0,1-1.057-2.786A3.881,3.881,0,0,1,167.741-6.5a3.4,3.4,0,0,1,2.583-1.092,3.237,3.237,0,0,1,2.5,1.043A3.582,3.582,0,0,1,173.782-4.032ZM168-4.382h4.452a2.085,2.085,0,0,0-.651-1.526,2.061,2.061,0,0,0-1.477-.616,2.246,2.246,0,0,0-1.547.581A2.425,2.425,0,0,0,168-4.382Z" transform="translate(55.35 274.6)" fill="#b3b3b3"/>
      <path id="Path_694" data-name="Path 694" d="M1.064,0V-10.43H4.788a3.751,3.751,0,0,1,2.6.882A2.983,2.983,0,0,1,8.372-7.21a2.961,2.961,0,0,1-.987,2.331A3.77,3.77,0,0,1,4.788-4H2.394V0Zm1.33-5.166H4.788a2.258,2.258,0,0,0,1.6-.567A1.942,1.942,0,0,0,7-7.224,1.925,1.925,0,0,0,6.391-8.7a2.258,2.258,0,0,0-1.6-.567H2.394ZM9.87,0V-10.43h1.2V0Zm9.7-4.032a4,4,0,0,1-.056.686H13.762a2.444,2.444,0,0,0,.749,1.75,2.4,2.4,0,0,0,1.715.672A2.253,2.253,0,0,0,18.354-2.24l1.05.56A3.019,3.019,0,0,1,18.179-.357a3.7,3.7,0,0,1-1.967.525A3.516,3.516,0,0,1,13.559-.938,3.871,3.871,0,0,1,12.5-3.724,3.881,3.881,0,0,1,13.531-6.5a3.4,3.4,0,0,1,2.583-1.092,3.237,3.237,0,0,1,2.5,1.043A3.582,3.582,0,0,1,19.572-4.032Zm-5.782-.35h4.452a2.085,2.085,0,0,0-.651-1.526,2.061,2.061,0,0,0-1.477-.616,2.246,2.246,0,0,0-1.547.581A2.425,2.425,0,0,0,13.79-4.382Zm9.926-3.206a3.016,3.016,0,0,1,2.079.714,2.356,2.356,0,0,1,.8,1.848V0H25.424V-1.036a2.656,2.656,0,0,1-1,.882,2.87,2.87,0,0,1-1.337.322,2.854,2.854,0,0,1-1.911-.623,2.005,2.005,0,0,1-.735-1.6,1.775,1.775,0,0,1,.623-1.372,3.827,3.827,0,0,1,1.757-.812L25.4-4.816v-.21a1.269,1.269,0,0,0-.469-1.022,1.825,1.825,0,0,0-1.211-.392,2.111,2.111,0,0,0-1.162.322,1.992,1.992,0,0,0-.756.882L20.72-5.8a2.754,2.754,0,0,1,1.155-1.281A3.452,3.452,0,0,1,23.716-7.588ZM23.156-.91a2.149,2.149,0,0,0,1.6-.651A2.238,2.238,0,0,0,25.4-3.192v-.644L23.1-3.3a2.209,2.209,0,0,0-1.015.469,1.008,1.008,0,0,0-.371.777,1.011,1.011,0,0,0,.392.84A1.653,1.653,0,0,0,23.156-.91Zm7.6,1.078a3.466,3.466,0,0,1-1.932-.546,2.962,2.962,0,0,1-1.19-1.484l1.022-.5a2.261,2.261,0,0,0,.833,1.057,2.221,2.221,0,0,0,1.267.371,1.718,1.718,0,0,0,1.05-.3A.914.914,0,0,0,32.214-2q0-.7-1.134-1.022L29.862-3.36q-1.89-.532-1.89-2.072a1.934,1.934,0,0,1,.714-1.561,2.812,2.812,0,0,1,1.862-.6,3.232,3.232,0,0,1,1.8.5,2.725,2.725,0,0,1,1.1,1.372l-1.008.49a1.845,1.845,0,0,0-.728-.931,2.078,2.078,0,0,0-1.162-.329,1.571,1.571,0,0,0-.966.273.845.845,0,0,0-.364.707q0,.714,1.064,1.036l1.26.378Q33.46-3.528,33.46-2a1.917,1.917,0,0,1-.749,1.568A3.022,3.022,0,0,1,30.758.168Zm10.668-4.2a4,4,0,0,1-.056.686H35.616a2.444,2.444,0,0,0,.749,1.75,2.4,2.4,0,0,0,1.715.672A2.253,2.253,0,0,0,40.208-2.24l1.05.56A3.019,3.019,0,0,1,40.033-.357a3.7,3.7,0,0,1-1.967.525A3.516,3.516,0,0,1,35.413-.938a3.871,3.871,0,0,1-1.057-2.786A3.881,3.881,0,0,1,35.385-6.5a3.4,3.4,0,0,1,2.583-1.092,3.237,3.237,0,0,1,2.5,1.043A3.582,3.582,0,0,1,41.426-4.032Zm-5.782-.35H40.1a2.085,2.085,0,0,0-.651-1.526,2.06,2.06,0,0,0-1.477-.616,2.246,2.246,0,0,0-1.547.581A2.425,2.425,0,0,0,35.644-4.382Zm16.128.35a4,4,0,0,1-.056.686H45.962a2.444,2.444,0,0,0,.749,1.75,2.4,2.4,0,0,0,1.715.672A2.253,2.253,0,0,0,50.554-2.24l1.05.56A3.019,3.019,0,0,1,50.379-.357a3.7,3.7,0,0,1-1.967.525A3.516,3.516,0,0,1,45.759-.938,3.871,3.871,0,0,1,44.7-3.724,3.881,3.881,0,0,1,45.731-6.5a3.4,3.4,0,0,1,2.583-1.092,3.237,3.237,0,0,1,2.5,1.043A3.582,3.582,0,0,1,51.772-4.032Zm-5.782-.35h4.452a2.085,2.085,0,0,0-.651-1.526,2.06,2.06,0,0,0-1.477-.616,2.246,2.246,0,0,0-1.547.581A2.425,2.425,0,0,0,45.99-4.382ZM56.378-7.588a2.72,2.72,0,0,1,1.988.77,2.6,2.6,0,0,1,.784,1.932V0h-1.2V-4.494a1.963,1.963,0,0,0-.5-1.407,1.754,1.754,0,0,0-1.337-.525,1.77,1.77,0,0,0-1.337.532,1.936,1.936,0,0,0-.511,1.4V0h-1.2V-7.42h1.176v.854a2.2,2.2,0,0,1,.889-.749A2.85,2.85,0,0,1,56.378-7.588ZM63.966.084a2.323,2.323,0,0,1-1.729-.616,2.363,2.363,0,0,1-.609-1.736v-4H60.186V-7.42h.378a1.028,1.028,0,0,0,.77-.3,1.084,1.084,0,0,0,.294-.791V-9.828h1.2V-7.42h1.792v1.148H62.832v4a2.243,2.243,0,0,0,.035.42,1.552,1.552,0,0,0,.161.42.849.849,0,0,0,.42.371,1.8,1.8,0,0,0,.742.133,2.985,2.985,0,0,0,.518-.042v.98A3.279,3.279,0,0,1,63.966.084Zm8.316-4.116a4,4,0,0,1-.056.686H66.472a2.444,2.444,0,0,0,.749,1.75,2.4,2.4,0,0,0,1.715.672A2.253,2.253,0,0,0,71.064-2.24l1.05.56A3.019,3.019,0,0,1,70.889-.357a3.7,3.7,0,0,1-1.967.525A3.516,3.516,0,0,1,66.269-.938a3.871,3.871,0,0,1-1.057-2.786A3.881,3.881,0,0,1,66.241-6.5a3.4,3.4,0,0,1,2.583-1.092,3.237,3.237,0,0,1,2.5,1.043A3.582,3.582,0,0,1,72.282-4.032ZM66.5-4.382h4.452A2.085,2.085,0,0,0,70.3-5.908a2.061,2.061,0,0,0-1.477-.616,2.246,2.246,0,0,0-1.547.581A2.425,2.425,0,0,0,66.5-4.382ZM76.734-7.5h.6v1.148h-.784a1.7,1.7,0,0,0-1.295.511,1.986,1.986,0,0,0-.483,1.421V0h-1.2V-7.42h1.162V-6.5A2.108,2.108,0,0,1,76.734-7.5Zm9.534.07h1.4L84.238.924a6.252,6.252,0,0,1-.343.749,4.282,4.282,0,0,1-.462.644,1.879,1.879,0,0,1-.763.539,2.931,2.931,0,0,1-1.078.182,2.63,2.63,0,0,1-.98-.154V1.806a2.789,2.789,0,0,0,.77.084,2.042,2.042,0,0,0,.672-.1,1.037,1.037,0,0,0,.462-.315,2.992,2.992,0,0,0,.266-.357,3.109,3.109,0,0,0,.2-.42L83.3-.07,80.332-7.434H81.7l2.282,5.74Zm8.393,6.5A3.686,3.686,0,0,1,91.938.168,3.686,3.686,0,0,1,89.215-.938a3.79,3.79,0,0,1-1.1-2.786,3.743,3.743,0,0,1,1.1-2.772,3.71,3.71,0,0,1,2.723-1.092A3.71,3.71,0,0,1,94.661-6.5a3.743,3.743,0,0,1,1.1,2.772A3.79,3.79,0,0,1,94.661-.938Zm-4.536-.833a2.4,2.4,0,0,0,1.813.777,2.4,2.4,0,0,0,1.813-.777,2.712,2.712,0,0,0,.735-1.939,2.712,2.712,0,0,0-.735-1.939,2.4,2.4,0,0,0-1.813-.777,2.4,2.4,0,0,0-1.813.777A2.712,2.712,0,0,0,89.39-3.71,2.712,2.712,0,0,0,90.125-1.771ZM101.934-7.42h1.2V0h-1.176V-.854a2.2,2.2,0,0,1-.889.749,2.818,2.818,0,0,1-1.239.273,2.64,2.64,0,0,1-1.988-.833,2.834,2.834,0,0,1-.8-2.037V-7.42h1.2v4.494a1.946,1.946,0,0,0,.5,1.407,1.777,1.777,0,0,0,1.344.525,1.747,1.747,0,0,0,1.33-.532,1.952,1.952,0,0,0,.5-1.4ZM108.15-7.5h.6v1.148h-.784a1.7,1.7,0,0,0-1.295.511,1.986,1.986,0,0,0-.483,1.421V0h-1.2V-7.42h1.162V-6.5A2.108,2.108,0,0,1,108.15-7.5ZM113.19,0V-6.272h-1.442V-7.42h1.442v-.672a2.366,2.366,0,0,1,.693-1.813,2.446,2.446,0,0,1,1.743-.651,3.092,3.092,0,0,1,.728.07v1.064a3.312,3.312,0,0,0-.588-.042,1.4,1.4,0,0,0-1,.35,1.338,1.338,0,0,0-.371,1.022v.672h1.764v1.148h-1.764V0Zm4.228-8.792V-10.43h1.2v1.638Zm0,8.792V-7.42h1.2V0Zm6.1-7.5h.6v1.148h-.784a1.7,1.7,0,0,0-1.295.511,1.986,1.986,0,0,0-.483,1.421V0h-1.2V-7.42h1.162V-6.5A2.108,2.108,0,0,1,123.522-7.5ZM128,.168a3.466,3.466,0,0,1-1.932-.546,2.962,2.962,0,0,1-1.19-1.484l1.022-.5a2.261,2.261,0,0,0,.833,1.057A2.221,2.221,0,0,0,128-.938a1.718,1.718,0,0,0,1.05-.3A.914.914,0,0,0,129.458-2q0-.7-1.134-1.022l-1.218-.336q-1.89-.532-1.89-2.072a1.933,1.933,0,0,1,.714-1.561,2.812,2.812,0,0,1,1.862-.6,3.232,3.232,0,0,1,1.8.5,2.725,2.725,0,0,1,1.1,1.372l-1.008.49a1.845,1.845,0,0,0-.728-.931,2.078,2.078,0,0,0-1.162-.329,1.571,1.571,0,0,0-.966.273.845.845,0,0,0-.364.707q0,.714,1.064,1.036l1.26.378Q130.7-3.528,130.7-2a1.917,1.917,0,0,1-.749,1.568A3.022,3.022,0,0,1,128,.168Zm7.126-.084A2.323,2.323,0,0,1,133.4-.532a2.363,2.363,0,0,1-.609-1.736v-4h-1.442V-7.42h.378a1.028,1.028,0,0,0,.77-.3,1.084,1.084,0,0,0,.294-.791V-9.828h1.2V-7.42h1.792v1.148h-1.792v4a2.243,2.243,0,0,0,.035.42,1.552,1.552,0,0,0,.161.42.849.849,0,0,0,.42.371,1.8,1.8,0,0,0,.742.133,2.986,2.986,0,0,0,.518-.042v.98A3.279,3.279,0,0,1,135.128.084Zm7.9-7.672a2.72,2.72,0,0,1,1.988.77,2.6,2.6,0,0,1,.784,1.932V0h-1.2V-4.494a1.963,1.963,0,0,0-.5-1.407,1.754,1.754,0,0,0-1.337-.525,1.77,1.77,0,0,0-1.337.532,1.936,1.936,0,0,0-.511,1.4V0h-1.2V-7.42h1.176v.854a2.2,2.2,0,0,1,.889-.749A2.85,2.85,0,0,1,143.024-7.588Zm7.336,0a3.016,3.016,0,0,1,2.079.714,2.356,2.356,0,0,1,.805,1.848V0h-1.176V-1.036a2.656,2.656,0,0,1-1,.882,2.87,2.87,0,0,1-1.337.322,2.854,2.854,0,0,1-1.911-.623,2.005,2.005,0,0,1-.735-1.6,1.775,1.775,0,0,1,.623-1.372,3.827,3.827,0,0,1,1.757-.812l2.576-.574v-.21a1.269,1.269,0,0,0-.469-1.022,1.825,1.825,0,0,0-1.211-.392,2.111,2.111,0,0,0-1.162.322,1.992,1.992,0,0,0-.756.882l-1.078-.56a2.754,2.754,0,0,1,1.155-1.281A3.452,3.452,0,0,1,150.36-7.588ZM149.8-.91a2.149,2.149,0,0,0,1.6-.651,2.238,2.238,0,0,0,.637-1.631v-.644l-2.3.532a2.209,2.209,0,0,0-1.015.469,1.008,1.008,0,0,0-.371.777,1.011,1.011,0,0,0,.392.84A1.653,1.653,0,0,0,149.8-.91Zm12.95-6.678a2.586,2.586,0,0,1,1.918.763,2.64,2.64,0,0,1,.756,1.939V0h-1.2V-4.494a2.01,2.01,0,0,0-.476-1.414,1.646,1.646,0,0,0-1.274-.518A1.641,1.641,0,0,0,161.2-5.9a2,2,0,0,0-.483,1.407V0h-1.2V-4.494a2.01,2.01,0,0,0-.476-1.414,1.646,1.646,0,0,0-1.274-.518A1.641,1.641,0,0,0,156.5-5.9a2,2,0,0,0-.483,1.407V0h-1.2V-7.42h1.176v.854a2.292,2.292,0,0,1,2.058-1.022,2.728,2.728,0,0,1,1.372.35,2.43,2.43,0,0,1,.952.966,2.44,2.44,0,0,1,.973-.973A2.868,2.868,0,0,1,162.75-7.588Zm11.032,3.556a4,4,0,0,1-.056.686h-5.754a2.444,2.444,0,0,0,.749,1.75,2.4,2.4,0,0,0,1.715.672,2.253,2.253,0,0,0,2.128-1.316l1.05.56a3.019,3.019,0,0,1-1.225,1.323,3.7,3.7,0,0,1-1.967.525,3.516,3.516,0,0,1-2.653-1.106,3.871,3.871,0,0,1-1.057-2.786A3.881,3.881,0,0,1,167.741-6.5a3.4,3.4,0,0,1,2.583-1.092,3.237,3.237,0,0,1,2.5,1.043A3.582,3.582,0,0,1,173.782-4.032ZM168-4.382h4.452a2.085,2.085,0,0,0-.651-1.526,2.061,2.061,0,0,0-1.477-.616,2.246,2.246,0,0,0-1.547.581A2.425,2.425,0,0,0,168-4.382Z" transform="translate(404.35 274.6)" fill="#b3b3b3"/>
      <path id="Path_693" data-name="Path 693" d="M1.064,0V-10.43H4.788a3.751,3.751,0,0,1,2.6.882A2.983,2.983,0,0,1,8.372-7.21a2.961,2.961,0,0,1-.987,2.331A3.77,3.77,0,0,1,4.788-4H2.394V0Zm1.33-5.166H4.788a2.258,2.258,0,0,0,1.6-.567A1.942,1.942,0,0,0,7-7.224,1.925,1.925,0,0,0,6.391-8.7a2.258,2.258,0,0,0-1.6-.567H2.394ZM9.87,0V-10.43h1.2V0Zm9.7-4.032a4,4,0,0,1-.056.686H13.762a2.444,2.444,0,0,0,.749,1.75,2.4,2.4,0,0,0,1.715.672A2.253,2.253,0,0,0,18.354-2.24l1.05.56A3.019,3.019,0,0,1,18.179-.357a3.7,3.7,0,0,1-1.967.525A3.516,3.516,0,0,1,13.559-.938,3.871,3.871,0,0,1,12.5-3.724,3.881,3.881,0,0,1,13.531-6.5a3.4,3.4,0,0,1,2.583-1.092,3.237,3.237,0,0,1,2.5,1.043A3.582,3.582,0,0,1,19.572-4.032Zm-5.782-.35h4.452a2.085,2.085,0,0,0-.651-1.526,2.061,2.061,0,0,0-1.477-.616,2.246,2.246,0,0,0-1.547.581A2.425,2.425,0,0,0,13.79-4.382Zm9.926-3.206a3.016,3.016,0,0,1,2.079.714,2.356,2.356,0,0,1,.8,1.848V0H25.424V-1.036a2.656,2.656,0,0,1-1,.882,2.87,2.87,0,0,1-1.337.322,2.854,2.854,0,0,1-1.911-.623,2.005,2.005,0,0,1-.735-1.6,1.775,1.775,0,0,1,.623-1.372,3.827,3.827,0,0,1,1.757-.812L25.4-4.816v-.21a1.269,1.269,0,0,0-.469-1.022,1.825,1.825,0,0,0-1.211-.392,2.111,2.111,0,0,0-1.162.322,1.992,1.992,0,0,0-.756.882L20.72-5.8a2.754,2.754,0,0,1,1.155-1.281A3.452,3.452,0,0,1,23.716-7.588ZM23.156-.91a2.149,2.149,0,0,0,1.6-.651A2.238,2.238,0,0,0,25.4-3.192v-.644L23.1-3.3a2.209,2.209,0,0,0-1.015.469,1.008,1.008,0,0,0-.371.777,1.011,1.011,0,0,0,.392.84A1.653,1.653,0,0,0,23.156-.91Zm7.6,1.078a3.466,3.466,0,0,1-1.932-.546,2.962,2.962,0,0,1-1.19-1.484l1.022-.5a2.261,2.261,0,0,0,.833,1.057,2.221,2.221,0,0,0,1.267.371,1.718,1.718,0,0,0,1.05-.3A.914.914,0,0,0,32.214-2q0-.7-1.134-1.022L29.862-3.36q-1.89-.532-1.89-2.072a1.934,1.934,0,0,1,.714-1.561,2.812,2.812,0,0,1,1.862-.6,3.232,3.232,0,0,1,1.8.5,2.725,2.725,0,0,1,1.1,1.372l-1.008.49a1.845,1.845,0,0,0-.728-.931,2.078,2.078,0,0,0-1.162-.329,1.571,1.571,0,0,0-.966.273.845.845,0,0,0-.364.707q0,.714,1.064,1.036l1.26.378Q33.46-3.528,33.46-2a1.917,1.917,0,0,1-.749,1.568A3.022,3.022,0,0,1,30.758.168Zm10.668-4.2a4,4,0,0,1-.056.686H35.616a2.444,2.444,0,0,0,.749,1.75,2.4,2.4,0,0,0,1.715.672A2.253,2.253,0,0,0,40.208-2.24l1.05.56A3.019,3.019,0,0,1,40.033-.357a3.7,3.7,0,0,1-1.967.525A3.516,3.516,0,0,1,35.413-.938a3.871,3.871,0,0,1-1.057-2.786A3.881,3.881,0,0,1,35.385-6.5a3.4,3.4,0,0,1,2.583-1.092,3.237,3.237,0,0,1,2.5,1.043A3.582,3.582,0,0,1,41.426-4.032Zm-5.782-.35H40.1a2.085,2.085,0,0,0-.651-1.526,2.06,2.06,0,0,0-1.477-.616,2.246,2.246,0,0,0-1.547.581A2.425,2.425,0,0,0,35.644-4.382Zm16.128.35a4,4,0,0,1-.056.686H45.962a2.444,2.444,0,0,0,.749,1.75,2.4,2.4,0,0,0,1.715.672A2.253,2.253,0,0,0,50.554-2.24l1.05.56A3.019,3.019,0,0,1,50.379-.357a3.7,3.7,0,0,1-1.967.525A3.516,3.516,0,0,1,45.759-.938,3.871,3.871,0,0,1,44.7-3.724,3.881,3.881,0,0,1,45.731-6.5a3.4,3.4,0,0,1,2.583-1.092,3.237,3.237,0,0,1,2.5,1.043A3.582,3.582,0,0,1,51.772-4.032Zm-5.782-.35h4.452a2.085,2.085,0,0,0-.651-1.526,2.06,2.06,0,0,0-1.477-.616,2.246,2.246,0,0,0-1.547.581A2.425,2.425,0,0,0,45.99-4.382ZM56.378-7.588a2.72,2.72,0,0,1,1.988.77,2.6,2.6,0,0,1,.784,1.932V0h-1.2V-4.494a1.963,1.963,0,0,0-.5-1.407,1.754,1.754,0,0,0-1.337-.525,1.77,1.77,0,0,0-1.337.532,1.936,1.936,0,0,0-.511,1.4V0h-1.2V-7.42h1.176v.854a2.2,2.2,0,0,1,.889-.749A2.85,2.85,0,0,1,56.378-7.588ZM63.966.084a2.323,2.323,0,0,1-1.729-.616,2.363,2.363,0,0,1-.609-1.736v-4H60.186V-7.42h.378a1.028,1.028,0,0,0,.77-.3,1.084,1.084,0,0,0,.294-.791V-9.828h1.2V-7.42h1.792v1.148H62.832v4a2.243,2.243,0,0,0,.035.42,1.552,1.552,0,0,0,.161.42.849.849,0,0,0,.42.371,1.8,1.8,0,0,0,.742.133,2.985,2.985,0,0,0,.518-.042v.98A3.279,3.279,0,0,1,63.966.084Zm8.316-4.116a4,4,0,0,1-.056.686H66.472a2.444,2.444,0,0,0,.749,1.75,2.4,2.4,0,0,0,1.715.672A2.253,2.253,0,0,0,71.064-2.24l1.05.56A3.019,3.019,0,0,1,70.889-.357a3.7,3.7,0,0,1-1.967.525A3.516,3.516,0,0,1,66.269-.938a3.871,3.871,0,0,1-1.057-2.786A3.881,3.881,0,0,1,66.241-6.5a3.4,3.4,0,0,1,2.583-1.092,3.237,3.237,0,0,1,2.5,1.043A3.582,3.582,0,0,1,72.282-4.032ZM66.5-4.382h4.452A2.085,2.085,0,0,0,70.3-5.908a2.061,2.061,0,0,0-1.477-.616,2.246,2.246,0,0,0-1.547.581A2.425,2.425,0,0,0,66.5-4.382ZM76.734-7.5h.6v1.148h-.784a1.7,1.7,0,0,0-1.295.511,1.986,1.986,0,0,0-.483,1.421V0h-1.2V-7.42h1.162V-6.5A2.108,2.108,0,0,1,76.734-7.5Zm9.534.07h1.4L84.238.924a6.252,6.252,0,0,1-.343.749,4.282,4.282,0,0,1-.462.644,1.879,1.879,0,0,1-.763.539,2.931,2.931,0,0,1-1.078.182,2.63,2.63,0,0,1-.98-.154V1.806a2.789,2.789,0,0,0,.77.084,2.042,2.042,0,0,0,.672-.1,1.037,1.037,0,0,0,.462-.315,2.992,2.992,0,0,0,.266-.357,3.109,3.109,0,0,0,.2-.42L83.3-.07,80.332-7.434H81.7l2.282,5.74Zm8.393,6.5A3.686,3.686,0,0,1,91.938.168,3.686,3.686,0,0,1,89.215-.938a3.79,3.79,0,0,1-1.1-2.786,3.743,3.743,0,0,1,1.1-2.772,3.71,3.71,0,0,1,2.723-1.092A3.71,3.71,0,0,1,94.661-6.5a3.743,3.743,0,0,1,1.1,2.772A3.79,3.79,0,0,1,94.661-.938Zm-4.536-.833a2.4,2.4,0,0,0,1.813.777,2.4,2.4,0,0,0,1.813-.777,2.712,2.712,0,0,0,.735-1.939,2.712,2.712,0,0,0-.735-1.939,2.4,2.4,0,0,0-1.813-.777,2.4,2.4,0,0,0-1.813.777A2.712,2.712,0,0,0,89.39-3.71,2.712,2.712,0,0,0,90.125-1.771ZM101.934-7.42h1.2V0h-1.176V-.854a2.2,2.2,0,0,1-.889.749,2.818,2.818,0,0,1-1.239.273,2.64,2.64,0,0,1-1.988-.833,2.834,2.834,0,0,1-.8-2.037V-7.42h1.2v4.494a1.946,1.946,0,0,0,.5,1.407,1.777,1.777,0,0,0,1.344.525,1.747,1.747,0,0,0,1.33-.532,1.952,1.952,0,0,0,.5-1.4ZM108.15-7.5h.6v1.148h-.784a1.7,1.7,0,0,0-1.295.511,1.986,1.986,0,0,0-.483,1.421V0h-1.2V-7.42h1.162V-6.5A2.108,2.108,0,0,1,108.15-7.5ZM115.738.168a3.505,3.505,0,0,1-2.653-1.113,3.878,3.878,0,0,1-1.057-2.779,3.829,3.829,0,0,1,1.057-2.765,3.527,3.527,0,0,1,2.653-1.1,3.521,3.521,0,0,1,1.932.553,3.013,3.013,0,0,1,1.218,1.407l-1.078.56a2.293,2.293,0,0,0-.819-.994,2.185,2.185,0,0,0-1.253-.364,2.245,2.245,0,0,0-1.743.77A2.8,2.8,0,0,0,113.3-3.71a2.806,2.806,0,0,0,.693,1.939,2.236,2.236,0,0,0,1.743.777,2.185,2.185,0,0,0,1.253-.364,2.293,2.293,0,0,0,.819-.994l1.078.56a3.055,3.055,0,0,1-1.225,1.4A3.5,3.5,0,0,1,115.738.168ZM126.3-.938A3.686,3.686,0,0,1,123.578.168a3.686,3.686,0,0,1-2.723-1.106,3.79,3.79,0,0,1-1.1-2.786,3.743,3.743,0,0,1,1.1-2.772,3.71,3.71,0,0,1,2.723-1.092A3.71,3.71,0,0,1,126.3-6.5a3.743,3.743,0,0,1,1.1,2.772A3.79,3.79,0,0,1,126.3-.938Zm-4.536-.833a2.4,2.4,0,0,0,1.813.777,2.4,2.4,0,0,0,1.813-.777,2.712,2.712,0,0,0,.735-1.939,2.712,2.712,0,0,0-.735-1.939,2.4,2.4,0,0,0-1.813-.777,2.4,2.4,0,0,0-1.813.777,2.712,2.712,0,0,0-.735,1.939A2.712,2.712,0,0,0,121.765-1.771Zm15-5.817a2.586,2.586,0,0,1,1.918.763,2.64,2.64,0,0,1,.756,1.939V0h-1.2V-4.494a2.01,2.01,0,0,0-.476-1.414,1.646,1.646,0,0,0-1.274-.518,1.641,1.641,0,0,0-1.267.525,2,2,0,0,0-.483,1.407V0h-1.2V-4.494a2.01,2.01,0,0,0-.476-1.414,1.646,1.646,0,0,0-1.274-.518,1.641,1.641,0,0,0-1.267.525,2,2,0,0,0-.483,1.407V0h-1.2V-7.42H130v.854a2.292,2.292,0,0,1,2.058-1.022,2.728,2.728,0,0,1,1.372.35,2.43,2.43,0,0,1,.952.966,2.44,2.44,0,0,1,.973-.973A2.868,2.868,0,0,1,136.766-7.588Zm8.218,0a3.6,3.6,0,0,1,2.667,1.1,3.775,3.775,0,0,1,1.085,2.765,3.8,3.8,0,0,1-1.092,2.786A3.63,3.63,0,0,1,144.956.168a3.594,3.594,0,0,1-1.5-.315,2.708,2.708,0,0,1-1.1-.875V2.8h-1.2V-7.42h1.176v1.134a2.612,2.612,0,0,1,1.085-.952A3.5,3.5,0,0,1,144.984-7.588Zm-1.9,5.824a2.417,2.417,0,0,0,1.834.77,2.4,2.4,0,0,0,1.827-.77,2.735,2.735,0,0,0,.721-1.946,2.72,2.72,0,0,0-.728-1.946,2.4,2.4,0,0,0-1.82-.77,2.417,2.417,0,0,0-1.834.77,2.72,2.72,0,0,0-.728,1.946A2.72,2.72,0,0,0,143.08-1.764Zm9.94-5.824a3.016,3.016,0,0,1,2.079.714,2.356,2.356,0,0,1,.805,1.848V0h-1.176V-1.036a2.656,2.656,0,0,1-1,.882,2.87,2.87,0,0,1-1.337.322,2.854,2.854,0,0,1-1.911-.623,2.005,2.005,0,0,1-.735-1.6,1.775,1.775,0,0,1,.623-1.372,3.827,3.827,0,0,1,1.757-.812l2.576-.574v-.21a1.269,1.269,0,0,0-.469-1.022,1.825,1.825,0,0,0-1.211-.392,2.111,2.111,0,0,0-1.162.322,1.992,1.992,0,0,0-.756.882l-1.078-.56a2.754,2.754,0,0,1,1.155-1.281A3.452,3.452,0,0,1,153.02-7.588ZM152.46-.91a2.149,2.149,0,0,0,1.6-.651,2.238,2.238,0,0,0,.637-1.631v-.644l-2.3.532a2.209,2.209,0,0,0-1.015.469,1.008,1.008,0,0,0-.371.777,1.011,1.011,0,0,0,.392.84A1.653,1.653,0,0,0,152.46-.91Zm8.33-6.678a2.72,2.72,0,0,1,1.988.77,2.6,2.6,0,0,1,.784,1.932V0h-1.2V-4.494a1.963,1.963,0,0,0-.5-1.407,1.754,1.754,0,0,0-1.337-.525,1.77,1.77,0,0,0-1.337.532,1.936,1.936,0,0,0-.511,1.4V0h-1.2V-7.42h1.176v.854a2.2,2.2,0,0,1,.889-.749A2.85,2.85,0,0,1,160.79-7.588Zm9.436.154h1.4L168.2.924a6.253,6.253,0,0,1-.343.749,4.282,4.282,0,0,1-.462.644,1.879,1.879,0,0,1-.763.539,2.931,2.931,0,0,1-1.078.182,2.63,2.63,0,0,1-.98-.154V1.806a2.789,2.789,0,0,0,.77.084,2.042,2.042,0,0,0,.672-.1,1.037,1.037,0,0,0,.462-.315,2.992,2.992,0,0,0,.266-.357,3.108,3.108,0,0,0,.2-.42l.322-.77L164.29-7.434h1.372l2.282,5.74Zm8.274-.154a2.72,2.72,0,0,1,1.988.77,2.6,2.6,0,0,1,.784,1.932V0h-1.2V-4.494a1.963,1.963,0,0,0-.5-1.407,1.754,1.754,0,0,0-1.337-.525,1.77,1.77,0,0,0-1.337.532,1.936,1.936,0,0,0-.511,1.4V0h-1.2V-7.42h1.176v.854a2.2,2.2,0,0,1,.889-.749A2.85,2.85,0,0,1,178.5-7.588Zm7.336,0a3.016,3.016,0,0,1,2.079.714,2.356,2.356,0,0,1,.805,1.848V0h-1.176V-1.036a2.656,2.656,0,0,1-1,.882,2.87,2.87,0,0,1-1.337.322A2.854,2.854,0,0,1,183.3-.455a2.005,2.005,0,0,1-.735-1.6,1.775,1.775,0,0,1,.623-1.372,3.827,3.827,0,0,1,1.757-.812l2.576-.574v-.21a1.269,1.269,0,0,0-.469-1.022,1.825,1.825,0,0,0-1.211-.392,2.111,2.111,0,0,0-1.162.322,1.992,1.992,0,0,0-.756.882L182.84-5.8A2.754,2.754,0,0,1,184-7.077,3.452,3.452,0,0,1,185.836-7.588Zm-.56,6.678a2.149,2.149,0,0,0,1.6-.651,2.238,2.238,0,0,0,.637-1.631v-.644l-2.3.532a2.209,2.209,0,0,0-1.015.469,1.008,1.008,0,0,0-.371.777,1.011,1.011,0,0,0,.392.84A1.653,1.653,0,0,0,185.276-.91Zm12.95-6.678a2.586,2.586,0,0,1,1.918.763,2.64,2.64,0,0,1,.756,1.939V0h-1.2V-4.494a2.01,2.01,0,0,0-.476-1.414,1.646,1.646,0,0,0-1.274-.518,1.641,1.641,0,0,0-1.267.525,2,2,0,0,0-.483,1.407V0h-1.2V-4.494a2.01,2.01,0,0,0-.476-1.414,1.646,1.646,0,0,0-1.274-.518,1.641,1.641,0,0,0-1.267.525,2,2,0,0,0-.483,1.407V0h-1.2V-7.42h1.176v.854a2.292,2.292,0,0,1,2.058-1.022,2.728,2.728,0,0,1,1.372.35,2.43,2.43,0,0,1,.952.966,2.44,2.44,0,0,1,.973-.973A2.868,2.868,0,0,1,198.226-7.588Zm11.032,3.556a4,4,0,0,1-.056.686h-5.754A2.444,2.444,0,0,0,204.2-1.6a2.4,2.4,0,0,0,1.715.672A2.253,2.253,0,0,0,208.04-2.24l1.05.56a3.019,3.019,0,0,1-1.225,1.323A3.7,3.7,0,0,1,205.9.168a3.516,3.516,0,0,1-2.653-1.106,3.871,3.871,0,0,1-1.057-2.786A3.881,3.881,0,0,1,203.217-6.5,3.4,3.4,0,0,1,205.8-7.588a3.237,3.237,0,0,1,2.5,1.043A3.582,3.582,0,0,1,209.258-4.032Zm-5.782-.35h4.452a2.085,2.085,0,0,0-.651-1.526,2.061,2.061,0,0,0-1.477-.616,2.246,2.246,0,0,0-1.547.581A2.425,2.425,0,0,0,203.476-4.382Z" transform="translate(55.35 390.6)" fill="#b3b3b3"/>
      <path id="Path_692" data-name="Path 692" d="M1.064,0V-10.43H4.788a3.751,3.751,0,0,1,2.6.882A2.983,2.983,0,0,1,8.372-7.21a2.961,2.961,0,0,1-.987,2.331A3.77,3.77,0,0,1,4.788-4H2.394V0Zm1.33-5.166H4.788a2.258,2.258,0,0,0,1.6-.567A1.942,1.942,0,0,0,7-7.224,1.925,1.925,0,0,0,6.391-8.7a2.258,2.258,0,0,0-1.6-.567H2.394ZM9.87,0V-10.43h1.2V0Zm9.7-4.032a4,4,0,0,1-.056.686H13.762a2.444,2.444,0,0,0,.749,1.75,2.4,2.4,0,0,0,1.715.672A2.253,2.253,0,0,0,18.354-2.24l1.05.56A3.019,3.019,0,0,1,18.179-.357a3.7,3.7,0,0,1-1.967.525A3.516,3.516,0,0,1,13.559-.938,3.871,3.871,0,0,1,12.5-3.724,3.881,3.881,0,0,1,13.531-6.5a3.4,3.4,0,0,1,2.583-1.092,3.237,3.237,0,0,1,2.5,1.043A3.582,3.582,0,0,1,19.572-4.032Zm-5.782-.35h4.452a2.085,2.085,0,0,0-.651-1.526,2.061,2.061,0,0,0-1.477-.616,2.246,2.246,0,0,0-1.547.581A2.425,2.425,0,0,0,13.79-4.382Zm9.926-3.206a3.016,3.016,0,0,1,2.079.714,2.356,2.356,0,0,1,.8,1.848V0H25.424V-1.036a2.656,2.656,0,0,1-1,.882,2.87,2.87,0,0,1-1.337.322,2.854,2.854,0,0,1-1.911-.623,2.005,2.005,0,0,1-.735-1.6,1.775,1.775,0,0,1,.623-1.372,3.827,3.827,0,0,1,1.757-.812L25.4-4.816v-.21a1.269,1.269,0,0,0-.469-1.022,1.825,1.825,0,0,0-1.211-.392,2.111,2.111,0,0,0-1.162.322,1.992,1.992,0,0,0-.756.882L20.72-5.8a2.754,2.754,0,0,1,1.155-1.281A3.452,3.452,0,0,1,23.716-7.588ZM23.156-.91a2.149,2.149,0,0,0,1.6-.651A2.238,2.238,0,0,0,25.4-3.192v-.644L23.1-3.3a2.209,2.209,0,0,0-1.015.469,1.008,1.008,0,0,0-.371.777,1.011,1.011,0,0,0,.392.84A1.653,1.653,0,0,0,23.156-.91Zm7.6,1.078a3.466,3.466,0,0,1-1.932-.546,2.962,2.962,0,0,1-1.19-1.484l1.022-.5a2.261,2.261,0,0,0,.833,1.057,2.221,2.221,0,0,0,1.267.371,1.718,1.718,0,0,0,1.05-.3A.914.914,0,0,0,32.214-2q0-.7-1.134-1.022L29.862-3.36q-1.89-.532-1.89-2.072a1.934,1.934,0,0,1,.714-1.561,2.812,2.812,0,0,1,1.862-.6,3.232,3.232,0,0,1,1.8.5,2.725,2.725,0,0,1,1.1,1.372l-1.008.49a1.845,1.845,0,0,0-.728-.931,2.078,2.078,0,0,0-1.162-.329,1.571,1.571,0,0,0-.966.273.845.845,0,0,0-.364.707q0,.714,1.064,1.036l1.26.378Q33.46-3.528,33.46-2a1.917,1.917,0,0,1-.749,1.568A3.022,3.022,0,0,1,30.758.168Zm10.668-4.2a4,4,0,0,1-.056.686H35.616a2.444,2.444,0,0,0,.749,1.75,2.4,2.4,0,0,0,1.715.672A2.253,2.253,0,0,0,40.208-2.24l1.05.56A3.019,3.019,0,0,1,40.033-.357a3.7,3.7,0,0,1-1.967.525A3.516,3.516,0,0,1,35.413-.938a3.871,3.871,0,0,1-1.057-2.786A3.881,3.881,0,0,1,35.385-6.5a3.4,3.4,0,0,1,2.583-1.092,3.237,3.237,0,0,1,2.5,1.043A3.582,3.582,0,0,1,41.426-4.032Zm-5.782-.35H40.1a2.085,2.085,0,0,0-.651-1.526,2.06,2.06,0,0,0-1.477-.616,2.246,2.246,0,0,0-1.547.581A2.425,2.425,0,0,0,35.644-4.382Zm16.128.35a4,4,0,0,1-.056.686H45.962a2.444,2.444,0,0,0,.749,1.75,2.4,2.4,0,0,0,1.715.672A2.253,2.253,0,0,0,50.554-2.24l1.05.56A3.019,3.019,0,0,1,50.379-.357a3.7,3.7,0,0,1-1.967.525A3.516,3.516,0,0,1,45.759-.938,3.871,3.871,0,0,1,44.7-3.724,3.881,3.881,0,0,1,45.731-6.5a3.4,3.4,0,0,1,2.583-1.092,3.237,3.237,0,0,1,2.5,1.043A3.582,3.582,0,0,1,51.772-4.032Zm-5.782-.35h4.452a2.085,2.085,0,0,0-.651-1.526,2.06,2.06,0,0,0-1.477-.616,2.246,2.246,0,0,0-1.547.581A2.425,2.425,0,0,0,45.99-4.382ZM56.378-7.588a2.72,2.72,0,0,1,1.988.77,2.6,2.6,0,0,1,.784,1.932V0h-1.2V-4.494a1.963,1.963,0,0,0-.5-1.407,1.754,1.754,0,0,0-1.337-.525,1.77,1.77,0,0,0-1.337.532,1.936,1.936,0,0,0-.511,1.4V0h-1.2V-7.42h1.176v.854a2.2,2.2,0,0,1,.889-.749A2.85,2.85,0,0,1,56.378-7.588ZM63.966.084a2.323,2.323,0,0,1-1.729-.616,2.363,2.363,0,0,1-.609-1.736v-4H60.186V-7.42h.378a1.028,1.028,0,0,0,.77-.3,1.084,1.084,0,0,0,.294-.791V-9.828h1.2V-7.42h1.792v1.148H62.832v4a2.243,2.243,0,0,0,.035.42,1.552,1.552,0,0,0,.161.42.849.849,0,0,0,.42.371,1.8,1.8,0,0,0,.742.133,2.985,2.985,0,0,0,.518-.042v.98A3.279,3.279,0,0,1,63.966.084Zm8.316-4.116a4,4,0,0,1-.056.686H66.472a2.444,2.444,0,0,0,.749,1.75,2.4,2.4,0,0,0,1.715.672A2.253,2.253,0,0,0,71.064-2.24l1.05.56A3.019,3.019,0,0,1,70.889-.357a3.7,3.7,0,0,1-1.967.525A3.516,3.516,0,0,1,66.269-.938a3.871,3.871,0,0,1-1.057-2.786A3.881,3.881,0,0,1,66.241-6.5a3.4,3.4,0,0,1,2.583-1.092,3.237,3.237,0,0,1,2.5,1.043A3.582,3.582,0,0,1,72.282-4.032ZM66.5-4.382h4.452A2.085,2.085,0,0,0,70.3-5.908a2.061,2.061,0,0,0-1.477-.616,2.246,2.246,0,0,0-1.547.581A2.425,2.425,0,0,0,66.5-4.382ZM76.734-7.5h.6v1.148h-.784a1.7,1.7,0,0,0-1.295.511,1.986,1.986,0,0,0-.483,1.421V0h-1.2V-7.42h1.162V-6.5A2.108,2.108,0,0,1,76.734-7.5Zm9.534.07h1.4L84.238.924a6.252,6.252,0,0,1-.343.749,4.282,4.282,0,0,1-.462.644,1.879,1.879,0,0,1-.763.539,2.931,2.931,0,0,1-1.078.182,2.63,2.63,0,0,1-.98-.154V1.806a2.789,2.789,0,0,0,.77.084,2.042,2.042,0,0,0,.672-.1,1.037,1.037,0,0,0,.462-.315,2.992,2.992,0,0,0,.266-.357,3.109,3.109,0,0,0,.2-.42L83.3-.07,80.332-7.434H81.7l2.282,5.74Zm8.393,6.5A3.686,3.686,0,0,1,91.938.168,3.686,3.686,0,0,1,89.215-.938a3.79,3.79,0,0,1-1.1-2.786,3.743,3.743,0,0,1,1.1-2.772,3.71,3.71,0,0,1,2.723-1.092A3.71,3.71,0,0,1,94.661-6.5a3.743,3.743,0,0,1,1.1,2.772A3.79,3.79,0,0,1,94.661-.938Zm-4.536-.833a2.4,2.4,0,0,0,1.813.777,2.4,2.4,0,0,0,1.813-.777,2.712,2.712,0,0,0,.735-1.939,2.712,2.712,0,0,0-.735-1.939,2.4,2.4,0,0,0-1.813-.777,2.4,2.4,0,0,0-1.813.777A2.712,2.712,0,0,0,89.39-3.71,2.712,2.712,0,0,0,90.125-1.771ZM101.934-7.42h1.2V0h-1.176V-.854a2.2,2.2,0,0,1-.889.749,2.818,2.818,0,0,1-1.239.273,2.64,2.64,0,0,1-1.988-.833,2.834,2.834,0,0,1-.8-2.037V-7.42h1.2v4.494a1.946,1.946,0,0,0,.5,1.407,1.777,1.777,0,0,0,1.344.525,1.747,1.747,0,0,0,1.33-.532,1.952,1.952,0,0,0,.5-1.4ZM108.15-7.5h.6v1.148h-.784a1.7,1.7,0,0,0-1.295.511,1.986,1.986,0,0,0-.483,1.421V0h-1.2V-7.42h1.162V-6.5A2.108,2.108,0,0,1,108.15-7.5ZM115.038.168a3.466,3.466,0,0,1-1.932-.546,2.962,2.962,0,0,1-1.19-1.484l1.022-.5a2.261,2.261,0,0,0,.833,1.057,2.221,2.221,0,0,0,1.267.371,1.718,1.718,0,0,0,1.05-.3A.914.914,0,0,0,116.494-2q0-.7-1.134-1.022l-1.218-.336q-1.89-.532-1.89-2.072a1.933,1.933,0,0,1,.714-1.561,2.812,2.812,0,0,1,1.862-.6,3.232,3.232,0,0,1,1.8.5,2.725,2.725,0,0,1,1.1,1.372l-1.008.49a1.845,1.845,0,0,0-.728-.931,2.078,2.078,0,0,0-1.162-.329,1.571,1.571,0,0,0-.966.273.845.845,0,0,0-.364.707q0,.714,1.064,1.036l1.26.378q1.918.56,1.918,2.086a1.917,1.917,0,0,1-.749,1.568A3.022,3.022,0,0,1,115.038.168Zm7.336-7.756a2.72,2.72,0,0,1,1.988.77,2.613,2.613,0,0,1,.784,1.946V0h-1.2V-4.494a1.968,1.968,0,0,0-.5-1.4,1.742,1.742,0,0,0-1.337-.532,1.77,1.77,0,0,0-1.337.532,1.936,1.936,0,0,0-.511,1.4V0h-1.2V-10.43h1.2v3.822A2.448,2.448,0,0,1,122.374-7.588Zm10.6,6.65A3.686,3.686,0,0,1,130.256.168a3.686,3.686,0,0,1-2.723-1.106,3.79,3.79,0,0,1-1.1-2.786,3.743,3.743,0,0,1,1.1-2.772,3.71,3.71,0,0,1,2.723-1.092A3.71,3.71,0,0,1,132.979-6.5a3.743,3.743,0,0,1,1.1,2.772A3.79,3.79,0,0,1,132.979-.938Zm-4.536-.833a2.4,2.4,0,0,0,1.813.777,2.4,2.4,0,0,0,1.813-.777A2.712,2.712,0,0,0,132.8-3.71a2.712,2.712,0,0,0-.735-1.939,2.4,2.4,0,0,0-1.813-.777,2.4,2.4,0,0,0-1.813.777,2.712,2.712,0,0,0-.735,1.939A2.712,2.712,0,0,0,128.443-1.771ZM138.67-7.5h.6v1.148h-.784a1.7,1.7,0,0,0-1.3.511,1.986,1.986,0,0,0-.483,1.421V0h-1.2V-7.42h1.162V-6.5A2.109,2.109,0,0,1,138.67-7.5ZM143.724.084a2.323,2.323,0,0,1-1.729-.616,2.363,2.363,0,0,1-.609-1.736v-4h-1.442V-7.42h.378a1.028,1.028,0,0,0,.77-.3,1.084,1.084,0,0,0,.294-.791V-9.828h1.2V-7.42h1.792v1.148H142.59v4a2.243,2.243,0,0,0,.035.42,1.552,1.552,0,0,0,.161.42.849.849,0,0,0,.42.371,1.8,1.8,0,0,0,.742.133,2.986,2.986,0,0,0,.518-.042v.98A3.279,3.279,0,0,1,143.724.084Zm7.9-7.672a2.72,2.72,0,0,1,1.988.77,2.6,2.6,0,0,1,.784,1.932V0h-1.2V-4.494a1.963,1.963,0,0,0-.5-1.407,1.754,1.754,0,0,0-1.337-.525,1.77,1.77,0,0,0-1.337.532,1.936,1.936,0,0,0-.511,1.4V0h-1.2V-7.42h1.176v.854a2.2,2.2,0,0,1,.889-.749A2.85,2.85,0,0,1,151.62-7.588Zm7.336,0a3.016,3.016,0,0,1,2.079.714,2.356,2.356,0,0,1,.805,1.848V0h-1.176V-1.036a2.656,2.656,0,0,1-1,.882,2.87,2.87,0,0,1-1.337.322,2.854,2.854,0,0,1-1.911-.623,2.005,2.005,0,0,1-.735-1.6A1.775,1.775,0,0,1,156.3-3.43a3.827,3.827,0,0,1,1.757-.812l2.576-.574v-.21a1.269,1.269,0,0,0-.469-1.022,1.825,1.825,0,0,0-1.211-.392,2.111,2.111,0,0,0-1.162.322,1.992,1.992,0,0,0-.756.882L155.96-5.8a2.754,2.754,0,0,1,1.155-1.281A3.452,3.452,0,0,1,158.956-7.588ZM158.4-.91a2.149,2.149,0,0,0,1.6-.651,2.238,2.238,0,0,0,.637-1.631v-.644l-2.3.532a2.209,2.209,0,0,0-1.015.469,1.008,1.008,0,0,0-.371.777,1.011,1.011,0,0,0,.392.84A1.653,1.653,0,0,0,158.4-.91Zm12.95-6.678a2.586,2.586,0,0,1,1.918.763,2.64,2.64,0,0,1,.756,1.939V0h-1.2V-4.494a2.01,2.01,0,0,0-.476-1.414,1.646,1.646,0,0,0-1.274-.518A1.641,1.641,0,0,0,169.8-5.9a2,2,0,0,0-.483,1.407V0h-1.2V-4.494a2.01,2.01,0,0,0-.476-1.414,1.646,1.646,0,0,0-1.274-.518A1.641,1.641,0,0,0,165.1-5.9a2,2,0,0,0-.483,1.407V0h-1.2V-7.42h1.176v.854a2.292,2.292,0,0,1,2.058-1.022,2.728,2.728,0,0,1,1.372.35,2.43,2.43,0,0,1,.952.966,2.44,2.44,0,0,1,.973-.973A2.868,2.868,0,0,1,171.346-7.588Zm11.032,3.556a4,4,0,0,1-.056.686h-5.754a2.444,2.444,0,0,0,.749,1.75,2.4,2.4,0,0,0,1.715.672A2.253,2.253,0,0,0,181.16-2.24l1.05.56a3.019,3.019,0,0,1-1.225,1.323,3.7,3.7,0,0,1-1.967.525,3.516,3.516,0,0,1-2.653-1.106,3.871,3.871,0,0,1-1.057-2.786A3.881,3.881,0,0,1,176.337-6.5a3.4,3.4,0,0,1,2.583-1.092,3.237,3.237,0,0,1,2.5,1.043A3.582,3.582,0,0,1,182.378-4.032Zm-5.782-.35h4.452a2.085,2.085,0,0,0-.651-1.526,2.061,2.061,0,0,0-1.477-.616,2.246,2.246,0,0,0-1.547.581A2.425,2.425,0,0,0,176.6-4.382Z" transform="translate(56.59 507.6)" fill="#b3b3b3"/>
      <path id="Path_691" data-name="Path 691" d="M6.084.216A5.96,5.96,0,0,1,2.619-.819,5.048,5.048,0,0,1,.594-3.492l1.944-.882A4.06,4.06,0,0,0,3.96-2.466a3.561,3.561,0,0,0,2.124.684,3.043,3.043,0,0,0,1.8-.486A1.468,1.468,0,0,0,8.568-3.51q0-1.242-1.62-1.728L4.32-6.048A5.051,5.051,0,0,1,1.854-7.5a3.38,3.38,0,0,1-.828-2.277A3.458,3.458,0,0,1,2.3-12.555a5.01,5.01,0,0,1,3.33-1.071,5.65,5.65,0,0,1,3.24.936A4.8,4.8,0,0,1,10.782-10.3L8.82-9.4a3.211,3.211,0,0,0-1.188-1.647,3.343,3.343,0,0,0-1.98-.585,2.748,2.748,0,0,0-1.692.486,1.506,1.506,0,0,0-.648,1.26q0,1.26,1.656,1.764l2.538.774q3.348,1.026,3.348,3.672A3.457,3.457,0,0,1,9.54-.855,5.3,5.3,0,0,1,6.084.216ZM21.51-5.2a4.015,4.015,0,0,1-.108.972H14.274a2.6,2.6,0,0,0,.837,1.845,2.723,2.723,0,0,0,1.9.693,2.494,2.494,0,0,0,2.358-1.35l1.782.864A3.662,3.662,0,0,1,19.575-.45a4.974,4.974,0,0,1-2.583.666,4.728,4.728,0,0,1-3.573-1.458,5.03,5.03,0,0,1-1.4-3.618A5.027,5.027,0,0,1,13.4-8.478a4.551,4.551,0,0,1,3.429-1.44,4.463,4.463,0,0,1,3.348,1.377A4.626,4.626,0,0,1,21.51-5.2Zm-7.2-.7h4.878a2.245,2.245,0,0,0-.738-1.584,2.311,2.311,0,0,0-1.62-.63,2.462,2.462,0,0,0-1.656.585A2.652,2.652,0,0,0,14.31-5.9ZM27.252.108a3.41,3.41,0,0,1-2.52-.882,3.359,3.359,0,0,1-.882-2.484v-4.5H22.086V-9.7h.288a1.493,1.493,0,0,0,1.089-.378,1.441,1.441,0,0,0,.387-1.08v-1.548h2.16V-9.7h2.3v1.944h-2.3v4.5q0,1.6,1.71,1.6a4.162,4.162,0,0,0,.648-.054V.018A7.228,7.228,0,0,1,27.252.108ZM41.382-13.41h2.3v8.658a4.743,4.743,0,0,1-1.449,3.573,5.21,5.21,0,0,1-3.771,1.4,5.2,5.2,0,0,1-3.78-1.4,4.758,4.758,0,0,1-1.44-3.573V-13.41h2.286v8.658a2.832,2.832,0,0,0,.819,2.106,2.879,2.879,0,0,0,2.115.81,2.839,2.839,0,0,0,2.1-.819,2.839,2.839,0,0,0,.819-2.1Zm9.792,3.492A4.688,4.688,0,0,1,54.666-8.46a4.955,4.955,0,0,1,1.422,3.6,4.978,4.978,0,0,1-1.422,3.618A4.709,4.709,0,0,1,51.156.216,3.929,3.929,0,0,1,48.1-.99V3.6h-2.16V-9.7H47.97v1.224A3.723,3.723,0,0,1,51.174-9.918Zm-.216,8.136a2.706,2.706,0,0,0,2.061-.873,3.072,3.072,0,0,0,.819-2.187,3.1,3.1,0,0,0-.819-2.2,2.706,2.706,0,0,0-2.061-.873,2.684,2.684,0,0,0-2.061.864,3.128,3.128,0,0,0-.8,2.214,3.1,3.1,0,0,0,.8,2.2A2.684,2.684,0,0,0,50.958-1.782ZM68.8-13.41h2.556l-4.536,7.4V0H64.53V-5.994L59.976-13.41h2.538l3.15,5.184ZM76.824-1.233A4.967,4.967,0,0,1,73.206.216a4.967,4.967,0,0,1-3.618-1.449A4.874,4.874,0,0,1,68.112-4.86a4.859,4.859,0,0,1,1.467-3.618,4.975,4.975,0,0,1,3.627-1.44,4.975,4.975,0,0,1,3.627,1.44A4.859,4.859,0,0,1,78.3-4.86,4.874,4.874,0,0,1,76.824-1.233Zm-3.618-.549a2.671,2.671,0,0,0,2.034-.864,3.083,3.083,0,0,0,.81-2.2,3.115,3.115,0,0,0-.81-2.2,2.658,2.658,0,0,0-2.034-.873,2.65,2.65,0,0,0-2.043.873,3.136,3.136,0,0,0-.8,2.2,3.1,3.1,0,0,0,.8,2.2A2.663,2.663,0,0,0,73.206-1.782ZM85.932-9.7h2.16V0H86.04V-1.116A2.979,2.979,0,0,1,83.322.216a3.466,3.466,0,0,1-2.637-1.1,3.905,3.905,0,0,1-1.035-2.79V-9.7h2.16v5.76a2.167,2.167,0,0,0,.567,1.575,2,2,0,0,0,1.5.585,1.959,1.959,0,0,0,1.485-.594,2.174,2.174,0,0,0,.567-1.566Zm8.91-.108h.9v1.944h-1.17a2.156,2.156,0,0,0-1.62.63A2.4,2.4,0,0,0,92.34-5.49V0H90.18V-9.7h2.034v1.35A2.622,2.622,0,0,1,94.842-9.81Zm20.3-3.6h2.34L113.958,0h-2.844l-2.556-10.368L105.984,0H103.14L99.63-13.41h2.448l2.628,10.422,2.52-10.422h2.754L112.5-2.988ZM126.018-1.233A4.967,4.967,0,0,1,122.4.216a4.967,4.967,0,0,1-3.618-1.449,4.874,4.874,0,0,1-1.476-3.627,4.859,4.859,0,0,1,1.467-3.618,4.975,4.975,0,0,1,3.627-1.44,4.975,4.975,0,0,1,3.627,1.44,4.859,4.859,0,0,1,1.467,3.618A4.874,4.874,0,0,1,126.018-1.233ZM122.4-1.782a2.671,2.671,0,0,0,2.034-.864,3.083,3.083,0,0,0,.81-2.2,3.115,3.115,0,0,0-.81-2.2A2.658,2.658,0,0,0,122.4-7.92a2.65,2.65,0,0,0-2.043.873,3.136,3.136,0,0,0-.8,2.2,3.1,3.1,0,0,0,.8,2.2A2.663,2.663,0,0,0,122.4-1.782ZM133.686-9.81h.9v1.944h-1.17a2.156,2.156,0,0,0-1.62.63,2.4,2.4,0,0,0-.612,1.746V0h-2.16V-9.7h2.034v1.35A2.622,2.622,0,0,1,133.686-9.81Zm10.872.108L141.012-5.8,144.558,0h-2.394l-2.556-4.248L138.1-2.61V0h-2.16V-13.41h2.16v7.884L142.02-9.7Zm4.68,9.918a4.92,4.92,0,0,1-2.673-.729A3.8,3.8,0,0,1,144.954-2.5l1.674-.81a2.67,2.67,0,0,0,2.61,1.764,2,2,0,0,0,1.161-.306.942.942,0,0,0,.441-.81q0-.774-1.278-1.116l-1.656-.432q-2.538-.7-2.538-2.772a2.6,2.6,0,0,1,1-2.124,4,4,0,0,1,2.6-.81,4.623,4.623,0,0,1,2.493.666,3.654,3.654,0,0,1,1.521,1.836l-1.692.792a2.23,2.23,0,0,0-.882-1.08,2.592,2.592,0,0,0-1.44-.4,1.811,1.811,0,0,0-1.062.279.87.87,0,0,0-.4.747q0,.738,1.17,1.08l1.728.486q2.574.72,2.574,2.79a2.561,2.561,0,0,1-1.044,2.124A4.278,4.278,0,0,1,149.238.216ZM159.7-9.918a4.688,4.688,0,0,1,3.492,1.458,4.955,4.955,0,0,1,1.422,3.6,4.978,4.978,0,0,1-1.422,3.618,4.709,4.709,0,0,1-3.51,1.458,3.929,3.929,0,0,1-3.06-1.206V3.6h-2.16V-9.7h2.034v1.224A3.723,3.723,0,0,1,159.7-9.918Zm-.216,8.136a2.706,2.706,0,0,0,2.061-.873,3.072,3.072,0,0,0,.819-2.187,3.1,3.1,0,0,0-.819-2.2,2.706,2.706,0,0,0-2.061-.873,2.684,2.684,0,0,0-2.061.864,3.128,3.128,0,0,0-.8,2.214,3.1,3.1,0,0,0,.8,2.2A2.684,2.684,0,0,0,159.48-1.782Zm10.584-8.136a4.217,4.217,0,0,1,2.871.963,3.131,3.131,0,0,1,1.107,2.475V0h-2.034V-1.08a3.559,3.559,0,0,1-2.88,1.3,3.854,3.854,0,0,1-2.565-.81,2.585,2.585,0,0,1-.963-2.07q0-2.142,3.1-2.826l3.186-.684V-6.48a1.331,1.331,0,0,0-.5-1.08,2,2,0,0,0-1.314-.414,2.409,2.409,0,0,0-1.368.4,2.254,2.254,0,0,0-.864,1.1l-1.872-.936A3.557,3.557,0,0,1,167.5-9.225,4.79,4.79,0,0,1,170.064-9.918Zm-.684,8.424a2.462,2.462,0,0,0,1.791-.693,2.3,2.3,0,0,0,.711-1.719v-.63l-2.754.612a1.82,1.82,0,0,0-.945.459,1.072,1.072,0,0,0-.333.783,1.035,1.035,0,0,0,.414.873A1.8,1.8,0,0,0,169.38-1.494ZM180.216.216a4.788,4.788,0,0,1-3.564-1.449A4.97,4.97,0,0,1,175.23-4.86a4.939,4.939,0,0,1,1.422-3.618,4.8,4.8,0,0,1,3.564-1.44,4.824,4.824,0,0,1,2.709.774,4.007,4.007,0,0,1,1.629,2.016l-1.872.936a2.594,2.594,0,0,0-.945-1.26,2.554,2.554,0,0,0-1.521-.468,2.519,2.519,0,0,0-1.962.864,3.193,3.193,0,0,0-.774,2.214,3.167,3.167,0,0,0,.774,2.2,2.519,2.519,0,0,0,1.962.864,2.578,2.578,0,0,0,1.53-.459,2.557,2.557,0,0,0,.936-1.269l1.872.954a4.074,4.074,0,0,1-1.629,1.989A4.783,4.783,0,0,1,180.216.216ZM194.868-5.2a4.015,4.015,0,0,1-.108.972h-7.128a2.6,2.6,0,0,0,.837,1.845,2.723,2.723,0,0,0,1.9.693,2.494,2.494,0,0,0,2.358-1.35l1.782.864A3.662,3.662,0,0,1,192.933-.45a4.974,4.974,0,0,1-2.583.666,4.728,4.728,0,0,1-3.573-1.458,5.03,5.03,0,0,1-1.4-3.618,5.027,5.027,0,0,1,1.377-3.618,4.551,4.551,0,0,1,3.429-1.44,4.463,4.463,0,0,1,3.348,1.377A4.626,4.626,0,0,1,194.868-5.2Zm-7.2-.7h4.878a2.245,2.245,0,0,0-.738-1.584,2.311,2.311,0,0,0-1.62-.63,2.462,2.462,0,0,0-1.656.585A2.652,2.652,0,0,0,187.668-5.9Z" transform="translate(56.35 143.09)"/>
      <rect id="Rectangle_23" data-name="Rectangle 23" width="323.15" height="53.89" rx="6" transform="translate(55.12 204)" fill="#f4f6fa"/>
      <path id="Path_690" data-name="Path 690" d="M1.216,0V-11.92h1.52V-1.328h5.3V0ZM12.928-8.672a3.447,3.447,0,0,1,2.376.816,2.692,2.692,0,0,1,.92,2.112V0H14.88V-1.184A3.035,3.035,0,0,1,13.736-.176a3.28,3.28,0,0,1-1.528.368A3.262,3.262,0,0,1,10.024-.52a2.292,2.292,0,0,1-.84-1.832A2.028,2.028,0,0,1,9.9-3.92,4.373,4.373,0,0,1,11.9-4.848L14.848-5.5v-.24a1.45,1.45,0,0,0-.536-1.168,2.085,2.085,0,0,0-1.384-.448,2.413,2.413,0,0,0-1.328.368,2.277,2.277,0,0,0-.864,1.008L9.5-6.624a3.148,3.148,0,0,1,1.32-1.464A3.945,3.945,0,0,1,12.928-8.672Zm-.64,7.632a2.456,2.456,0,0,0,1.832-.744,2.558,2.558,0,0,0,.728-1.864v-.736l-2.624.608a2.524,2.524,0,0,0-1.16.536,1.152,1.152,0,0,0-.424.888,1.155,1.155,0,0,0,.448.96A1.89,1.89,0,0,0,12.288-1.04ZM20.976.192a3.961,3.961,0,0,1-2.208-.624,3.385,3.385,0,0,1-1.36-1.7L18.576-2.7A2.584,2.584,0,0,0,19.528-1.5a2.538,2.538,0,0,0,1.448.424,1.963,1.963,0,0,0,1.2-.344,1.045,1.045,0,0,0,.464-.872q0-.8-1.3-1.168L19.952-3.84q-2.16-.608-2.16-2.368a2.21,2.21,0,0,1,.816-1.784,3.214,3.214,0,0,1,2.128-.68,3.693,3.693,0,0,1,2.056.576,3.114,3.114,0,0,1,1.256,1.568l-1.152.56a2.108,2.108,0,0,0-.832-1.064,2.375,2.375,0,0,0-1.328-.376,1.8,1.8,0,0,0-1.1.312.966.966,0,0,0-.416.808q0,.816,1.216,1.184l1.44.432q2.192.64,2.192,2.384A2.191,2.191,0,0,1,23.208-.5,3.453,3.453,0,0,1,20.976.192ZM29.12.1a2.655,2.655,0,0,1-1.976-.7,2.7,2.7,0,0,1-.7-1.984V-7.168H24.8V-8.48h.432a1.175,1.175,0,0,0,.88-.344,1.238,1.238,0,0,0,.336-.9v-1.5h1.376V-8.48h2.048v1.312H27.824v4.576a2.563,2.563,0,0,0,.04.48,1.774,1.774,0,0,0,.184.48.97.97,0,0,0,.48.424,2.062,2.062,0,0,0,.848.152,3.412,3.412,0,0,0,.592-.048V.016A3.747,3.747,0,0,1,29.12.1ZM42.112-11.92h1.52V0h-1.28l-6.32-9.072V0h-1.52V-11.92h1.28l6.32,9.008Zm7.056,3.248a3.447,3.447,0,0,1,2.376.816,2.692,2.692,0,0,1,.92,2.112V0H51.12V-1.184A3.035,3.035,0,0,1,49.976-.176a3.28,3.28,0,0,1-1.528.368A3.262,3.262,0,0,1,46.264-.52a2.292,2.292,0,0,1-.84-1.832,2.028,2.028,0,0,1,.712-1.568,4.373,4.373,0,0,1,2.008-.928L51.088-5.5v-.24a1.45,1.45,0,0,0-.536-1.168,2.085,2.085,0,0,0-1.384-.448,2.413,2.413,0,0,0-1.328.368,2.277,2.277,0,0,0-.864,1.008l-1.232-.64a3.148,3.148,0,0,1,1.32-1.464A3.945,3.945,0,0,1,49.168-8.672Zm-.64,7.632a2.456,2.456,0,0,0,1.832-.744,2.558,2.558,0,0,0,.728-1.864v-.736l-2.624.608a2.524,2.524,0,0,0-1.16.536,1.152,1.152,0,0,0-.424.888,1.155,1.155,0,0,0,.448.96A1.89,1.89,0,0,0,48.528-1.04Zm14.8-7.632A2.956,2.956,0,0,1,65.52-7.8a3.017,3.017,0,0,1,.864,2.216V0H65.008V-5.136a2.3,2.3,0,0,0-.544-1.616,1.882,1.882,0,0,0-1.456-.592,1.875,1.875,0,0,0-1.448.6,2.282,2.282,0,0,0-.552,1.608V0H59.632V-5.136a2.3,2.3,0,0,0-.544-1.616,1.882,1.882,0,0,0-1.456-.592,1.875,1.875,0,0,0-1.448.6,2.282,2.282,0,0,0-.552,1.608V0H54.256V-8.48H55.6V-7.5a2.62,2.62,0,0,1,2.352-1.168,3.118,3.118,0,0,1,1.568.4,2.777,2.777,0,0,1,1.088,1.1A2.789,2.789,0,0,1,61.72-8.28,3.278,3.278,0,0,1,63.328-8.672ZM75.936-4.608a4.576,4.576,0,0,1-.064.784H69.3a2.793,2.793,0,0,0,.856,2,2.741,2.741,0,0,0,1.96.768,2.575,2.575,0,0,0,2.432-1.5l1.2.64a3.451,3.451,0,0,1-1.4,1.512,4.231,4.231,0,0,1-2.248.6,4.019,4.019,0,0,1-3.032-1.264,4.424,4.424,0,0,1-1.208-3.184,4.435,4.435,0,0,1,1.176-3.168,3.886,3.886,0,0,1,2.952-1.248A3.7,3.7,0,0,1,74.84-7.48,4.093,4.093,0,0,1,75.936-4.608Zm-6.608-.4h5.088a2.383,2.383,0,0,0-.744-1.744,2.355,2.355,0,0,0-1.688-.7,2.567,2.567,0,0,0-1.768.664A2.771,2.771,0,0,0,69.328-5.008Z" transform="translate(404.35 192.34)" fill="#333"/>
      <rect id="Rectangle_24" data-name="Rectangle 24" width="323.15" height="53.89" rx="6" transform="translate(403.97 204)" fill="#f4f6fa"/>
      <path id="Path_689" data-name="Path 689" d="M14.5-11.92h1.552L12.72,0H10.976l-2.7-9.968L5.552,0H3.824L.5-11.92H2.08L4.752-1.984,7.376-11.92H9.2l2.624,9.9ZM23.64-1.072A4.212,4.212,0,0,1,20.528.192a4.212,4.212,0,0,1-3.112-1.264A4.331,4.331,0,0,1,16.16-4.256a4.278,4.278,0,0,1,1.256-3.168,4.24,4.24,0,0,1,3.112-1.248A4.24,4.24,0,0,1,23.64-7.424,4.278,4.278,0,0,1,24.9-4.256,4.331,4.331,0,0,1,23.64-1.072Zm-5.184-.952a2.739,2.739,0,0,0,2.072.888A2.739,2.739,0,0,0,22.6-2.024a3.1,3.1,0,0,0,.84-2.216,3.1,3.1,0,0,0-.84-2.216,2.739,2.739,0,0,0-2.072-.888,2.739,2.739,0,0,0-2.072.888,3.1,3.1,0,0,0-.84,2.216A3.1,3.1,0,0,0,18.456-2.024ZM30.144-8.576h.688v1.312h-.9a1.94,1.94,0,0,0-1.48.584A2.27,2.27,0,0,0,27.9-5.056V0H26.528V-8.48h1.328v1.056A2.41,2.41,0,0,1,30.144-8.576Zm9.088.1L36.1-5.088,39.232,0H37.648L35.184-4.064l-1.5,1.616V0H32.3V-11.92H33.68v7.6l3.9-4.16ZM43.344.192a3.961,3.961,0,0,1-2.208-.624,3.385,3.385,0,0,1-1.36-1.7L40.944-2.7A2.584,2.584,0,0,0,41.9-1.5a2.538,2.538,0,0,0,1.448.424,1.963,1.963,0,0,0,1.2-.344,1.045,1.045,0,0,0,.464-.872q0-.8-1.3-1.168L42.32-3.84q-2.16-.608-2.16-2.368a2.21,2.21,0,0,1,.816-1.784,3.214,3.214,0,0,1,2.128-.68A3.693,3.693,0,0,1,45.16-8.1a3.114,3.114,0,0,1,1.256,1.568l-1.152.56a2.108,2.108,0,0,0-.832-1.064A2.375,2.375,0,0,0,43.1-7.408,1.8,1.8,0,0,0,42-7.1a.966.966,0,0,0-.416.808q0,.816,1.216,1.184l1.44.432q2.192.64,2.192,2.384A2.191,2.191,0,0,1,45.576-.5,3.453,3.453,0,0,1,43.344.192ZM52.32-8.672a4.116,4.116,0,0,1,3.048,1.256,4.314,4.314,0,0,1,1.24,3.16A4.346,4.346,0,0,1,55.36-1.072,4.148,4.148,0,0,1,52.288.192a4.107,4.107,0,0,1-1.72-.36,3.1,3.1,0,0,1-1.256-1V3.2H47.936V-8.48H49.28v1.3a2.985,2.985,0,0,1,1.24-1.088A4,4,0,0,1,52.32-8.672ZM50.144-2.016a2.762,2.762,0,0,0,2.1.88,2.737,2.737,0,0,0,2.088-.88,3.126,3.126,0,0,0,.824-2.224,3.109,3.109,0,0,0-.832-2.224,2.744,2.744,0,0,0-2.08-.88,2.762,2.762,0,0,0-2.1.88,3.109,3.109,0,0,0-.832,2.224A3.109,3.109,0,0,0,50.144-2.016ZM61.5-8.672a3.447,3.447,0,0,1,2.376.816,2.692,2.692,0,0,1,.92,2.112V0H63.456V-1.184A3.035,3.035,0,0,1,62.312-.176a3.28,3.28,0,0,1-1.528.368A3.262,3.262,0,0,1,58.6-.52a2.292,2.292,0,0,1-.84-1.832,2.028,2.028,0,0,1,.712-1.568,4.373,4.373,0,0,1,2.008-.928L63.424-5.5v-.24a1.45,1.45,0,0,0-.536-1.168A2.085,2.085,0,0,0,61.5-7.36a2.413,2.413,0,0,0-1.328.368,2.277,2.277,0,0,0-.864,1.008l-1.232-.64A3.148,3.148,0,0,1,59.4-8.088,3.945,3.945,0,0,1,61.5-8.672Zm-.64,7.632A2.456,2.456,0,0,0,62.7-1.784a2.558,2.558,0,0,0,.728-1.864v-.736L60.8-3.776a2.524,2.524,0,0,0-1.16.536,1.152,1.152,0,0,0-.424.888,1.155,1.155,0,0,0,.448.96A1.89,1.89,0,0,0,60.864-1.04ZM70.352.192A4.006,4.006,0,0,1,67.32-1.08a4.431,4.431,0,0,1-1.208-3.176,4.376,4.376,0,0,1,1.208-3.16,4.031,4.031,0,0,1,3.032-1.256,4.024,4.024,0,0,1,2.208.632,3.443,3.443,0,0,1,1.392,1.608l-1.232.64a2.621,2.621,0,0,0-.936-1.136,2.5,2.5,0,0,0-1.432-.416,2.566,2.566,0,0,0-1.992.88,3.2,3.2,0,0,0-.792,2.224,3.207,3.207,0,0,0,.792,2.216,2.556,2.556,0,0,0,1.992.888,2.5,2.5,0,0,0,1.432-.416,2.621,2.621,0,0,0,.936-1.136l1.232.64a3.491,3.491,0,0,1-1.4,1.6A4,4,0,0,1,70.352.192Zm12.672-4.8a4.576,4.576,0,0,1-.064.784H76.384a2.793,2.793,0,0,0,.856,2,2.741,2.741,0,0,0,1.96.768,2.575,2.575,0,0,0,2.432-1.5l1.2.64a3.451,3.451,0,0,1-1.4,1.512,4.231,4.231,0,0,1-2.248.6,4.019,4.019,0,0,1-3.032-1.264,4.424,4.424,0,0,1-1.208-3.184A4.435,4.435,0,0,1,76.12-7.424a3.886,3.886,0,0,1,2.952-1.248A3.7,3.7,0,0,1,81.928-7.48,4.093,4.093,0,0,1,83.024-4.608Zm-6.608-.4H81.5a2.383,2.383,0,0,0-.744-1.744,2.355,2.355,0,0,0-1.688-.7,2.567,2.567,0,0,0-1.768.664A2.771,2.771,0,0,0,76.416-5.008ZM95.008-11.92h1.52V0h-1.28l-6.32-9.072V0h-1.52V-11.92h1.28l6.32,9.008Zm7.056,3.248a3.447,3.447,0,0,1,2.376.816,2.692,2.692,0,0,1,.92,2.112V0h-1.344V-1.184a3.035,3.035,0,0,1-1.144,1.008,3.28,3.28,0,0,1-1.528.368A3.262,3.262,0,0,1,99.16-.52a2.292,2.292,0,0,1-.84-1.832,2.028,2.028,0,0,1,.712-1.568,4.373,4.373,0,0,1,2.008-.928l2.944-.656v-.24a1.45,1.45,0,0,0-.536-1.168,2.085,2.085,0,0,0-1.384-.448,2.413,2.413,0,0,0-1.328.368,2.277,2.277,0,0,0-.864,1.008l-1.232-.64a3.148,3.148,0,0,1,1.32-1.464A3.945,3.945,0,0,1,102.064-8.672Zm-.64,7.632a2.456,2.456,0,0,0,1.832-.744,2.558,2.558,0,0,0,.728-1.864v-.736l-2.624.608a2.524,2.524,0,0,0-1.16.536,1.152,1.152,0,0,0-.424.888,1.155,1.155,0,0,0,.448.96A1.89,1.89,0,0,0,101.424-1.04Zm14.8-7.632a2.956,2.956,0,0,1,2.192.872,3.017,3.017,0,0,1,.864,2.216V0H117.9V-5.136a2.3,2.3,0,0,0-.544-1.616,1.882,1.882,0,0,0-1.456-.592,1.875,1.875,0,0,0-1.448.6,2.282,2.282,0,0,0-.552,1.608V0h-1.376V-5.136a2.3,2.3,0,0,0-.544-1.616,1.882,1.882,0,0,0-1.456-.592,1.875,1.875,0,0,0-1.448.6,2.282,2.282,0,0,0-.552,1.608V0h-1.376V-8.48H108.5V-7.5a2.62,2.62,0,0,1,2.352-1.168,3.118,3.118,0,0,1,1.568.4,2.777,2.777,0,0,1,1.088,1.1,2.789,2.789,0,0,1,1.112-1.112A3.278,3.278,0,0,1,116.224-8.672Zm12.608,4.064a4.576,4.576,0,0,1-.064.784h-6.576a2.793,2.793,0,0,0,.856,2,2.741,2.741,0,0,0,1.96.768,2.575,2.575,0,0,0,2.432-1.5l1.2.64a3.451,3.451,0,0,1-1.4,1.512,4.231,4.231,0,0,1-2.248.6,4.019,4.019,0,0,1-3.032-1.264,4.424,4.424,0,0,1-1.208-3.184,4.435,4.435,0,0,1,1.176-3.168,3.886,3.886,0,0,1,2.952-1.248,3.7,3.7,0,0,1,2.856,1.192A4.093,4.093,0,0,1,128.832-4.608Zm-6.608-.4h5.088a2.383,2.383,0,0,0-.744-1.744,2.355,2.355,0,0,0-1.688-.7,2.567,2.567,0,0,0-1.768.664A2.771,2.771,0,0,0,122.224-5.008Z" transform="translate(56.35 308.34)" fill="#333"/>
      <rect id="Rectangle_25" data-name="Rectangle 25" width="671.87" height="54.02" rx="6" transform="translate(55.24 319.87)" fill="#f4f6fa"/>
      <path id="Path_688" data-name="Path 688" d="M14.5-11.92h1.552L12.72,0H10.976l-2.7-9.968L5.552,0H3.824L.5-11.92H2.08L4.752-1.984,7.376-11.92H9.2l2.624,9.9ZM23.64-1.072A4.212,4.212,0,0,1,20.528.192a4.212,4.212,0,0,1-3.112-1.264A4.331,4.331,0,0,1,16.16-4.256a4.278,4.278,0,0,1,1.256-3.168,4.24,4.24,0,0,1,3.112-1.248A4.24,4.24,0,0,1,23.64-7.424,4.278,4.278,0,0,1,24.9-4.256,4.331,4.331,0,0,1,23.64-1.072Zm-5.184-.952a2.739,2.739,0,0,0,2.072.888A2.739,2.739,0,0,0,22.6-2.024a3.1,3.1,0,0,0,.84-2.216,3.1,3.1,0,0,0-.84-2.216,2.739,2.739,0,0,0-2.072-.888,2.739,2.739,0,0,0-2.072.888,3.1,3.1,0,0,0-.84,2.216A3.1,3.1,0,0,0,18.456-2.024ZM30.144-8.576h.688v1.312h-.9a1.94,1.94,0,0,0-1.48.584A2.27,2.27,0,0,0,27.9-5.056V0H26.528V-8.48h1.328v1.056A2.41,2.41,0,0,1,30.144-8.576Zm9.088.1L36.1-5.088,39.232,0H37.648L35.184-4.064l-1.5,1.616V0H32.3V-11.92H33.68v7.6l3.9-4.16ZM43.344.192a3.961,3.961,0,0,1-2.208-.624,3.385,3.385,0,0,1-1.36-1.7L40.944-2.7A2.584,2.584,0,0,0,41.9-1.5a2.538,2.538,0,0,0,1.448.424,1.963,1.963,0,0,0,1.2-.344,1.045,1.045,0,0,0,.464-.872q0-.8-1.3-1.168L42.32-3.84q-2.16-.608-2.16-2.368a2.21,2.21,0,0,1,.816-1.784,3.214,3.214,0,0,1,2.128-.68A3.693,3.693,0,0,1,45.16-8.1a3.114,3.114,0,0,1,1.256,1.568l-1.152.56a2.108,2.108,0,0,0-.832-1.064A2.375,2.375,0,0,0,43.1-7.408,1.8,1.8,0,0,0,42-7.1a.966.966,0,0,0-.416.808q0,.816,1.216,1.184l1.44.432q2.192.64,2.192,2.384A2.191,2.191,0,0,1,45.576-.5,3.453,3.453,0,0,1,43.344.192ZM52.32-8.672a4.116,4.116,0,0,1,3.048,1.256,4.314,4.314,0,0,1,1.24,3.16A4.346,4.346,0,0,1,55.36-1.072,4.148,4.148,0,0,1,52.288.192a4.107,4.107,0,0,1-1.72-.36,3.1,3.1,0,0,1-1.256-1V3.2H47.936V-8.48H49.28v1.3a2.985,2.985,0,0,1,1.24-1.088A4,4,0,0,1,52.32-8.672ZM50.144-2.016a2.762,2.762,0,0,0,2.1.88,2.737,2.737,0,0,0,2.088-.88,3.126,3.126,0,0,0,.824-2.224,3.109,3.109,0,0,0-.832-2.224,2.744,2.744,0,0,0-2.08-.88,2.762,2.762,0,0,0-2.1.88,3.109,3.109,0,0,0-.832,2.224A3.109,3.109,0,0,0,50.144-2.016ZM61.5-8.672a3.447,3.447,0,0,1,2.376.816,2.692,2.692,0,0,1,.92,2.112V0H63.456V-1.184A3.035,3.035,0,0,1,62.312-.176a3.28,3.28,0,0,1-1.528.368A3.262,3.262,0,0,1,58.6-.52a2.292,2.292,0,0,1-.84-1.832,2.028,2.028,0,0,1,.712-1.568,4.373,4.373,0,0,1,2.008-.928L63.424-5.5v-.24a1.45,1.45,0,0,0-.536-1.168A2.085,2.085,0,0,0,61.5-7.36a2.413,2.413,0,0,0-1.328.368,2.277,2.277,0,0,0-.864,1.008l-1.232-.64A3.148,3.148,0,0,1,59.4-8.088,3.945,3.945,0,0,1,61.5-8.672Zm-.64,7.632A2.456,2.456,0,0,0,62.7-1.784a2.558,2.558,0,0,0,.728-1.864v-.736L60.8-3.776a2.524,2.524,0,0,0-1.16.536,1.152,1.152,0,0,0-.424.888,1.155,1.155,0,0,0,.448.96A1.89,1.89,0,0,0,60.864-1.04ZM70.352.192A4.006,4.006,0,0,1,67.32-1.08a4.431,4.431,0,0,1-1.208-3.176,4.376,4.376,0,0,1,1.208-3.16,4.031,4.031,0,0,1,3.032-1.256,4.024,4.024,0,0,1,2.208.632,3.443,3.443,0,0,1,1.392,1.608l-1.232.64a2.621,2.621,0,0,0-.936-1.136,2.5,2.5,0,0,0-1.432-.416,2.566,2.566,0,0,0-1.992.88,3.2,3.2,0,0,0-.792,2.224,3.207,3.207,0,0,0,.792,2.216,2.556,2.556,0,0,0,1.992.888,2.5,2.5,0,0,0,1.432-.416,2.621,2.621,0,0,0,.936-1.136l1.232.64a3.491,3.491,0,0,1-1.4,1.6A4,4,0,0,1,70.352.192Zm12.672-4.8a4.576,4.576,0,0,1-.064.784H76.384a2.793,2.793,0,0,0,.856,2,2.741,2.741,0,0,0,1.96.768,2.575,2.575,0,0,0,2.432-1.5l1.2.64a3.451,3.451,0,0,1-1.4,1.512,4.231,4.231,0,0,1-2.248.6,4.019,4.019,0,0,1-3.032-1.264,4.424,4.424,0,0,1-1.208-3.184A4.435,4.435,0,0,1,76.12-7.424a3.886,3.886,0,0,1,2.952-1.248A3.7,3.7,0,0,1,81.928-7.48,4.093,4.093,0,0,1,83.024-4.608Zm-6.608-.4H81.5a2.383,2.383,0,0,0-.744-1.744,2.355,2.355,0,0,0-1.688-.7,2.567,2.567,0,0,0-1.768.664A2.771,2.771,0,0,0,76.416-5.008ZM94.608-11.92h1.536v8.032a3.864,3.864,0,0,1-1.2,2.952A4.437,4.437,0,0,1,91.776.192,4.45,4.45,0,0,1,88.6-.928a3.871,3.871,0,0,1-1.192-2.96V-11.92h1.536v8.032a2.615,2.615,0,0,0,.8,1.96,2.8,2.8,0,0,0,2.032.776A2.806,2.806,0,0,0,93.8-1.928a2.6,2.6,0,0,0,.808-1.96ZM98.576,0V-11.92h4.256a4.287,4.287,0,0,1,2.968,1.008,3.409,3.409,0,0,1,1.128,2.672,3.56,3.56,0,0,1-.632,2.12,3.46,3.46,0,0,1-1.752,1.272L107.328,0h-1.76l-2.592-4.576H100.1V0Zm1.52-5.9h2.736a2.581,2.581,0,0,0,1.832-.648,2.219,2.219,0,0,0,.7-1.7,2.2,2.2,0,0,0-.7-1.688,2.581,2.581,0,0,0-1.832-.648H100.1ZM109.2,0V-11.92h1.52V-1.328h5.3V0Z" transform="translate(56.35 425.34)" fill="#333"/>
      <rect id="Rectangle_26" data-name="Rectangle 26" width="671.87" height="54.15" rx="6" transform="translate(55.24 436.74)" fill="#f4f6fa"/>
      <rect id="Rectangle_27" data-name="Rectangle 27" width="182" height="43" rx="5" transform="translate(539.12 441.89)" fill="#e3e5e8"/>
      <path id="Path_687" data-name="Path 687" d="M1.455,0V-1.77h1.41V0Zm13.5-7.95H16.41L13.635,0h-1.2L10.5-6.18,8.55,0H7.335L4.56-7.95H6.015L7.95-1.905,9.78-7.95h1.41l1.83,6.015ZM17.52-9.42v-1.755h1.29V-9.42Zm0,9.42V-7.95h1.29V0Zm6.54-8.04H24.7v1.23h-.84a1.819,1.819,0,0,0-1.388.548A2.128,2.128,0,0,0,21.96-4.74V0H20.67V-7.95h1.245v.99A2.259,2.259,0,0,1,24.06-8.04Zm9.15,3.72a4.29,4.29,0,0,1-.06.735H26.985a2.619,2.619,0,0,0,.8,1.875,2.57,2.57,0,0,0,1.837.72,2.414,2.414,0,0,0,2.28-1.41l1.125.6A3.235,3.235,0,0,1,31.718-.383,3.967,3.967,0,0,1,29.61.18,3.767,3.767,0,0,1,26.768-1,4.148,4.148,0,0,1,25.635-3.99a4.158,4.158,0,0,1,1.1-2.97,3.643,3.643,0,0,1,2.767-1.17,3.468,3.468,0,0,1,2.678,1.118A3.838,3.838,0,0,1,33.21-4.32ZM27.015-4.7h4.77a2.234,2.234,0,0,0-.7-1.635,2.208,2.208,0,0,0-1.583-.66,2.406,2.406,0,0,0-1.657.622A2.6,2.6,0,0,0,27.015-4.7ZM44.235-7.95H45.69L42.915,0h-1.2L39.78-6.18,37.83,0H36.615L33.84-7.95H35.3L37.23-1.905,39.06-7.95h1.41L42.3-1.935ZM46.8-9.42v-1.755h1.29V-9.42ZM46.8,0V-7.95h1.29V0Zm5.925.18a3.713,3.713,0,0,1-2.07-.585A3.173,3.173,0,0,1,49.38-2l1.1-.54A2.423,2.423,0,0,0,51.368-1.4a2.38,2.38,0,0,0,1.357.4,1.841,1.841,0,0,0,1.125-.322.979.979,0,0,0,.435-.817q0-.75-1.215-1.1L51.765-3.6Q49.74-4.17,49.74-5.82A2.072,2.072,0,0,1,50.5-7.493a3.013,3.013,0,0,1,2-.638,3.463,3.463,0,0,1,1.927.54A2.919,2.919,0,0,1,55.6-6.12l-1.08.525a1.976,1.976,0,0,0-.78-1A2.226,2.226,0,0,0,52.5-6.945a1.683,1.683,0,0,0-1.035.293.906.906,0,0,0-.39.758q0,.765,1.14,1.11l1.35.4q2.055.6,2.055,2.235a2.054,2.054,0,0,1-.8,1.68A3.238,3.238,0,0,1,52.725.18Zm11.43-4.5a4.289,4.289,0,0,1-.06.735H57.93a2.619,2.619,0,0,0,.8,1.875,2.57,2.57,0,0,0,1.837.72A2.414,2.414,0,0,0,62.85-2.4l1.125.6A3.235,3.235,0,0,1,62.663-.383,3.967,3.967,0,0,1,60.555.18,3.767,3.767,0,0,1,57.713-1,4.148,4.148,0,0,1,56.58-3.99a4.158,4.158,0,0,1,1.1-2.97A3.643,3.643,0,0,1,60.45-8.13a3.468,3.468,0,0,1,2.678,1.118A3.838,3.838,0,0,1,64.155-4.32ZM57.96-4.7h4.77a2.234,2.234,0,0,0-.7-1.635,2.208,2.208,0,0,0-1.583-.66,2.406,2.406,0,0,0-1.658.622A2.6,2.6,0,0,0,57.96-4.7ZM66,0V-1.77h1.41V0Zm7.38.18a3.756,3.756,0,0,1-2.842-1.193A4.155,4.155,0,0,1,69.4-3.99a4.1,4.1,0,0,1,1.132-2.963A3.779,3.779,0,0,1,73.38-8.13a3.773,3.773,0,0,1,2.07.593A3.228,3.228,0,0,1,76.755-6.03l-1.155.6A2.457,2.457,0,0,0,74.722-6.5a2.341,2.341,0,0,0-1.342-.39,2.406,2.406,0,0,0-1.868.825,3,3,0,0,0-.743,2.085A3.006,3.006,0,0,0,71.512-1.9a2.4,2.4,0,0,0,1.868.833,2.341,2.341,0,0,0,1.342-.39A2.457,2.457,0,0,0,75.6-2.52l1.155.6a3.273,3.273,0,0,1-1.312,1.5A3.749,3.749,0,0,1,73.38.18ZM84.7-1A3.949,3.949,0,0,1,81.78.18,3.949,3.949,0,0,1,78.862-1,4.061,4.061,0,0,1,77.685-3.99a4.011,4.011,0,0,1,1.177-2.97A3.975,3.975,0,0,1,81.78-8.13,3.975,3.975,0,0,1,84.7-6.96a4.01,4.01,0,0,1,1.178,2.97A4.061,4.061,0,0,1,84.7-1ZM79.837-1.9a2.568,2.568,0,0,0,1.943.833A2.568,2.568,0,0,0,83.722-1.9a2.905,2.905,0,0,0,.787-2.077,2.905,2.905,0,0,0-.787-2.078,2.568,2.568,0,0,0-1.942-.832,2.568,2.568,0,0,0-1.943.832,2.905,2.905,0,0,0-.787,2.078A2.905,2.905,0,0,0,79.837-1.9ZM95.91-8.13a2.771,2.771,0,0,1,2.055.818,2.828,2.828,0,0,1,.81,2.077V0h-1.29V-4.815a2.153,2.153,0,0,0-.51-1.515,1.764,1.764,0,0,0-1.365-.555,1.758,1.758,0,0,0-1.357.563,2.139,2.139,0,0,0-.518,1.508V0h-1.29V-4.815a2.153,2.153,0,0,0-.51-1.515,1.764,1.764,0,0,0-1.365-.555,1.758,1.758,0,0,0-1.357.563,2.139,2.139,0,0,0-.518,1.508V0H87.4V-7.95h1.26v.915a2.456,2.456,0,0,1,2.205-1.1,2.923,2.923,0,0,1,1.47.375A2.6,2.6,0,0,1,93.36-6.72,2.615,2.615,0,0,1,94.4-7.763,3.073,3.073,0,0,1,95.91-8.13Z" transform="translate(579.2 468.97)" fill="#333"/>
      <path id="Path_31" data-name="Path 31" d="M923.71,280a1.9,1.9,0,0,1-.09-.58c0-.59.42-.89,1.26-.89a1.57,1.57,0,0,1,1,.32l3.8,12.36,4-12.43h1.52l4,12.43L942.59,280a2.6,2.6,0,0,1,.67-1.17,1.619,1.619,0,0,1,1.11-.37,1.47,1.47,0,0,1,1.17.51l-5.45,16.08h-1.56l-4-11.94-4.06,11.94h-1.58Z" transform="translate(-565.88 -231.11)"/>
      <path id="Path_32" data-name="Path 32" d="M949.16,275.67a1.959,1.959,0,1,1,2.76,0A2,2,0,0,1,949.16,275.67Zm.08,19.46V280.49a2.169,2.169,0,0,1,.44-1.42,1.55,1.55,0,0,1,1.27-.53,3,3,0,0,1,.89.13V293.3a2.15,2.15,0,0,1-.45,1.43,1.54,1.54,0,0,1-1.26.52,3,3,0,0,1-.89-.12Z" transform="translate(-565.88 -231.11)"/>
      <path id="Path_33" data-name="Path 33" d="M957.22,295.13V280.49a2.12,2.12,0,0,1,.45-1.42,1.53,1.53,0,0,1,1.26-.53,3,3,0,0,1,.89.13v4.39a7.541,7.541,0,0,1,1.9-3.46,4.07,4.07,0,0,1,2.85-1.15c1.19,0,1.78.53,1.78,1.6a1.66,1.66,0,0,1-.63,1.41,2.19,2.19,0,0,0-1-.16,4,4,0,0,0-3.67,2.13c-.84,1.42-1.27,3.72-1.27,6.9v3a2.17,2.17,0,0,1-.44,1.42,1.54,1.54,0,0,1-1.26.52A3,3,0,0,1,957.22,295.13Z" transform="translate(-565.88 -231.11)"/>
      <path id="Path_34" data-name="Path 34" d="M971.26,294.42a6.79,6.79,0,0,1-2.6-2.94,10.34,10.34,0,0,1-.92-4.49,10.5,10.5,0,0,1,.93-4.55,7.211,7.211,0,0,1,2.6-3,6.9,6.9,0,0,1,3.85-1.07,6,6,0,0,1,4.86,2.13,8.851,8.851,0,0,1,1.76,5.77,2.17,2.17,0,0,1-.24,1.22,1.16,1.16,0,0,1-1,.32H970.3a6.06,6.06,0,0,0,1.28,4,4.3,4.3,0,0,0,3.44,1.5,5.86,5.86,0,0,0,2.87-.7,5.69,5.69,0,0,0,2-1.86,1.4,1.4,0,0,1,.95,1.44,2.11,2.11,0,0,1-.86,1.6,6.468,6.468,0,0,1-2.2,1.19,8.789,8.789,0,0,1-2.74.45,7.3,7.3,0,0,1-3.78-1.01Zm7.89-8.77a7.159,7.159,0,0,0-1-3.93,3.28,3.28,0,0,0-2.88-1.32,4.14,4.14,0,0,0-3.26,1.4,7.529,7.529,0,0,0-1.59,4.1Z" transform="translate(-565.88 -231.11)"/>
      <path id="Path_35" data-name="Path 35" d="M983.77,280a2.8,2.8,0,0,1-.09-.58c0-.59.42-.89,1.27-.89a1.54,1.54,0,0,1,1,.32l3.8,12.36,4-12.43h1.52l4,12.43,3.33-11.15a2.59,2.59,0,0,1,.66-1.17,1.65,1.65,0,0,1,1.11-.37,1.45,1.45,0,0,1,1.17.51l-5.45,16.08H998.6l-4.05-11.94-4.06,11.94H988.9Z" transform="translate(-565.88 -231.11)"/>
      <path id="Path_36" data-name="Path 36" d="M1009.23,275.67a1.955,1.955,0,1,1,2.75,0A2,2,0,0,1,1009.23,275.67Zm.08,19.46V280.49a2.12,2.12,0,0,1,.44-1.42,1.55,1.55,0,0,1,1.27-.53,2.891,2.891,0,0,1,.88.13V293.3a2.15,2.15,0,0,1-.44,1.43,1.57,1.57,0,0,1-1.27.52,2.919,2.919,0,0,1-.88-.12Z" transform="translate(-565.88 -231.11)"/>
      <path id="Path_37" data-name="Path 37" d="M1018.68,295a5.419,5.419,0,0,1-2-1.19,2.18,2.18,0,0,1-.75-1.57,1.09,1.09,0,0,1,.89-1.18,7.9,7.9,0,0,0,2.14,1.62,5.64,5.64,0,0,0,2.67.65,3.28,3.28,0,0,0,2.19-.67,2.31,2.31,0,0,0,.79-1.86,2.28,2.28,0,0,0-.76-1.76,7.23,7.23,0,0,0-2.66-1.31,10,10,0,0,1-3.88-2.07,4.2,4.2,0,0,1-1.12-3.09,3.62,3.62,0,0,1,1.47-3.25,6.62,6.62,0,0,1,3.72-1,7,7,0,0,1,3.82.93,2.69,2.69,0,0,1,1.44,2.28,1.09,1.09,0,0,1-.88,1.18,8.651,8.651,0,0,0-1.92-1.7,4.46,4.46,0,0,0-2.36-.64,3.4,3.4,0,0,0-2.08.6,1.84,1.84,0,0,0-.8,1.55,2.25,2.25,0,0,0,.82,1.79,9.3,9.3,0,0,0,2.85,1.41,9.57,9.57,0,0,1,3.79,2,4,4,0,0,1,1.09,2.91,4.23,4.23,0,0,1-1.55,3.59,6.46,6.46,0,0,1-4,1.18,8.681,8.681,0,0,1-2.92-.4Z" transform="translate(-565.88 -231.11)"/>
      <path id="Path_38" data-name="Path 38" d="M1033.41,294.42a6.85,6.85,0,0,1-2.6-2.94,10.339,10.339,0,0,1-.91-4.49,10.5,10.5,0,0,1,.93-4.55,7.139,7.139,0,0,1,2.6-3,6.9,6.9,0,0,1,3.85-1.07,6,6,0,0,1,4.86,2.13,8.8,8.8,0,0,1,1.76,5.77,2.17,2.17,0,0,1-.24,1.22,1.17,1.17,0,0,1-1,.32h-10.2a6,6,0,0,0,1.29,4,4.26,4.26,0,0,0,3.43,1.51,5.87,5.87,0,0,0,2.87-.71,5.669,5.669,0,0,0,2-1.85,1.38,1.38,0,0,1,1,1.44,2.11,2.11,0,0,1-.85,1.6,6.458,6.458,0,0,1-2.2,1.2,8.549,8.549,0,0,1-2.74.45,7.31,7.31,0,0,1-3.85-1.03Zm7.89-8.77a7.081,7.081,0,0,0-1-3.93,3.31,3.31,0,0,0-2.89-1.32,4.16,4.16,0,0,0-3.26,1.4,7.69,7.69,0,0,0-1.59,4.1Z" transform="translate(-565.88 -231.11)"/>
      <path id="Path_39" data-name="Path 39" d="M907.68,286.72l-7.3,12.64a6.315,6.315,0,0,1-1,1.33,6.44,6.44,0,0,1-9.1,0,6.679,6.679,0,0,1-1-1.34L873.8,272.54a8.4,8.4,0,0,1,1.36-1.78,8.58,8.58,0,0,1,12.13,0,8.341,8.341,0,0,1,1.36,1.77l8.06,13.95a6.43,6.43,0,0,0,11,.23Z" transform="translate(-565.88 -231.11)" fill="#27c1bc" fill-rule="evenodd"/>
      <path id="Path_40" data-name="Path 40" d="M867.58,298.29a8.59,8.59,0,0,0,14.86,0L867,271.48a6.44,6.44,0,0,0-8.79-2.38,6.731,6.731,0,0,0-1.34,1h0l-9.4,9.4a6.43,6.43,0,0,1,9.1,0,7,7,0,0,1,1,1.33Z" transform="translate(-565.88 -231.11)" fill="#139bbf" fill-rule="evenodd"/>
      <path id="Path_41" data-name="Path 41" d="M905.35,268.25a7.5,7.5,0,1,0,7.51,7.5,7.59,7.59,0,0,0-2.2-5.31,7.46,7.46,0,0,0-5.31-2.19Z" transform="translate(-565.88 -231.11)" fill="#e55217" fill-rule="evenodd"/>
      <rect id="Rectangle_28" data-name="Rectangle 28" width="127" height="50.84" rx="6" transform="translate(600.19 525.05)" fill="#3399fe"/>
      <path id="Path_686" data-name="Path 686" d="M8.512-11.92h2.032V0H8.928L3.1-8.1V0H1.088V-11.92h1.6L8.512-3.9ZM20.5-4.624a3.569,3.569,0,0,1-.1.864H14.064a2.312,2.312,0,0,0,.744,1.64A2.421,2.421,0,0,0,16.5-1.5a2.217,2.217,0,0,0,2.1-1.2l1.584.768A3.255,3.255,0,0,1,18.776-.4a4.421,4.421,0,0,1-2.3.592A4.2,4.2,0,0,1,13.3-1.1a4.471,4.471,0,0,1-1.24-3.216,4.468,4.468,0,0,1,1.224-3.216,4.045,4.045,0,0,1,3.048-1.28,3.967,3.967,0,0,1,2.976,1.224A4.112,4.112,0,0,1,20.5-4.624Zm-6.4-.624h4.336a2,2,0,0,0-.656-1.408,2.054,2.054,0,0,0-1.44-.56,2.188,2.188,0,0,0-1.472.52A2.357,2.357,0,0,0,14.1-5.248ZM29.04-8.624l-3.056,4.3L29.024,0H26.768l-1.92-2.816L22.928,0H20.672l3.04-4.32-3.04-4.3h2.24l1.936,2.816L26.8-8.624ZM34.048.1a3.031,3.031,0,0,1-2.24-.784A2.986,2.986,0,0,1,31.024-2.9v-4H29.456V-8.624h.256a1.327,1.327,0,0,0,.968-.336,1.281,1.281,0,0,0,.344-.96V-11.3h1.92v2.672h2.048V-6.9H32.944v4q0,1.424,1.52,1.424a3.7,3.7,0,0,0,.576-.048V.016A6.425,6.425,0,0,1,34.048.1Z" transform="translate(632.19 555.81)" fill="#fff"/>
      <line id="Line_11" data-name="Line 11" x1="13.06" transform="translate(682.88 549.7)" fill="none" stroke="#fff" stroke-miterlimit="10" stroke-width="1.5" opacity="0.3"/>
      <line id="Line_12" data-name="Line 12" x2="6.1" y2="6.1" transform="translate(690.28 543.6)" fill="none" stroke="#fff" stroke-linejoin="bevel" stroke-width="1.5"/>
      <line id="Line_13" data-name="Line 13" x1="6.1" y2="6.1" transform="translate(690.28 549.7)" fill="none" stroke="#fff" stroke-linecap="square" stroke-miterlimit="10" stroke-width="1.5"/>
      <line id="Line_14" data-name="Line 14" x2="671" transform="translate(56.12 99.89)" fill="none" stroke="#e6e6e6" stroke-miterlimit="10" stroke-width="1"/>
    </g>
  </g>
</svg>
