<svg xmlns="http://www.w3.org/2000/svg" xmlns:xlink="http://www.w3.org/1999/xlink" width="890" height="760" viewBox="0 0 890 760">
  <defs>
    <filter id="Rectangle_29" x="52.545" y="58.195" width="784.91" height="657.61" filterUnits="userSpaceOnUse">
      <feOffset dy="7" input="SourceAlpha"/>
      <feGaussianBlur stdDeviation="9" result="blur"/>
      <feFlood flood-color="#121212" flood-opacity="0.157"/>
      <feComposite operator="in" in2="blur"/>
      <feComposite in="SourceGraphic"/>
    </filter>
  </defs>
  <g id="Security_Settings-step-5" transform="translate(-2688 3681)">
    <rect id="Rectangle_41" data-name="Rectangle 41" width="890" height="760" rx="11" transform="translate(2688 -3681)" fill="#f5f5f5"/>
    <g id="Security_Settings-step-4" transform="translate(2767.545 -3602.805)">
      <g transform="matrix(1, 0, 0, 1, -79.54, -78.2)" filter="url(#Rectangle_29)">
        <rect id="Rectangle_29-2" data-name="Rectangle 29" width="730.91" height="603.61" rx="10" transform="translate(79.54 78.2)" fill="#fff"/>
      </g>
      <path id="Path_727" data-name="Path 727" d="M7.436.264a6.757,6.757,0,0,0,2.97-.616,4.943,4.943,0,0,0,2-1.694,4.345,4.345,0,0,0,.726-2.486q0-3.278-3.916-4.532L6.2-10.01a2.915,2.915,0,0,1-1.331-.8,1.769,1.769,0,0,1-.451-1.2,1.793,1.793,0,0,1,.693-1.463,2.831,2.831,0,0,1,1.837-.561,3.841,3.841,0,0,1,2.244.671,4.038,4.038,0,0,1,1.452,1.9l2.464-1.1a5.94,5.94,0,0,0-2.3-2.97,6.667,6.667,0,0,0-3.861-1.122,6.431,6.431,0,0,0-2.849.6,4.672,4.672,0,0,0-1.936,1.683,4.5,4.5,0,0,0-.693,2.486A4.245,4.245,0,0,0,2.442-9.1,5.992,5.992,0,0,0,5.324-7.3L8.47-6.292a3.033,3.033,0,0,1,1.287.748,1.677,1.677,0,0,1,.429,1.188A1.743,1.743,0,0,1,9.471-2.9a3,3,0,0,1-1.881.55,4.242,4.242,0,0,1-2.53-.8A5.065,5.065,0,0,1,3.344-5.368L.858-4.29A6.261,6.261,0,0,0,2.255-1.9a6.734,6.734,0,0,0,2.288,1.6A7.249,7.249,0,0,0,7.436.264Zm13.816,0a6.1,6.1,0,0,0,3.2-.825,4.555,4.555,0,0,0,1.925-2.1L24.046-3.806A3.158,3.158,0,0,1,22.957-2.7a3.137,3.137,0,0,1-1.683.429A3.136,3.136,0,0,1,19.1-3.058,3.148,3.148,0,0,1,18.084-5.17h8.624a2.354,2.354,0,0,0,.121-.561,6.3,6.3,0,0,0,.033-.649,6.279,6.279,0,0,0-.682-2.926,5.347,5.347,0,0,0-1.98-2.123,5.91,5.91,0,0,0-3.168-.8,5.754,5.754,0,0,0-3.025.814,5.885,5.885,0,0,0-2.134,2.211,6.448,6.448,0,0,0-.781,3.2,6.574,6.574,0,0,0,.77,3.168A5.823,5.823,0,0,0,18.018-.572,6.139,6.139,0,0,0,21.252.264Zm-.22-10.12a2.715,2.715,0,0,1,1.9.693,2.615,2.615,0,0,1,.847,1.793H18.15a3.1,3.1,0,0,1,1.023-1.837A2.816,2.816,0,0,1,21.032-9.856ZM34.5.132a6.615,6.615,0,0,0,.726-.044q.4-.044.7-.088V-2.464a4.964,4.964,0,0,1-.77.066,2.107,2.107,0,0,1-1.54-.484,1.876,1.876,0,0,1-.484-1.386V-9.394h2.75v-2.574h-2.75V-14.7H30.25v.924a1.769,1.769,0,0,1-.484,1.342,1.9,1.9,0,0,1-1.364.462h-.22v2.574H30.25v5.28A4.247,4.247,0,0,0,31.361-.99,4.215,4.215,0,0,0,34.5.132Zm9.086,0a6.615,6.615,0,0,0,.726-.044q.4-.044.7-.088V-2.464a4.964,4.964,0,0,1-.77.066,2.107,2.107,0,0,1-1.54-.484,1.876,1.876,0,0,1-.484-1.386V-9.394h2.75v-2.574h-2.75V-14.7H39.336v.924a1.769,1.769,0,0,1-.484,1.342,1.9,1.9,0,0,1-1.364.462h-.22v2.574h2.068v5.28A4.247,4.247,0,0,0,40.447-.99,4.215,4.215,0,0,0,43.582.132Zm3.63-13.442h2.882v-3.08H47.212Zm0,13.31h2.882V-11.968H47.212Zm5.544,0h2.882V-7.018a2.6,2.6,0,0,1,.671-1.87,2.306,2.306,0,0,1,1.749-.7,2.325,2.325,0,0,1,1.749.693,2.589,2.589,0,0,1,.671,1.881V0H63.36V-7.7a4.765,4.765,0,0,0-.572-2.365,4.068,4.068,0,0,0-1.6-1.6,4.719,4.719,0,0,0-2.343-.572,4.486,4.486,0,0,0-2.013.44,3.137,3.137,0,0,0-1.375,1.3v-1.474H52.756ZM71.61,4.84a6.353,6.353,0,0,0,3.036-.7A5.265,5.265,0,0,0,76.714,2.2a5.276,5.276,0,0,0,.748-2.794V-11.968H74.734v1.386a4.52,4.52,0,0,0-3.674-1.65,5.731,5.731,0,0,0-2.948.759,5.514,5.514,0,0,0-2.046,2.079,6.006,6.006,0,0,0-.748,3.014,6.084,6.084,0,0,0,.748,3.014,5.5,5.5,0,0,0,2.068,2.112,5.827,5.827,0,0,0,2.992.77A4.43,4.43,0,0,0,74.58-1.892v1.3a2.6,2.6,0,0,1-.836,2.057A3.108,3.108,0,0,1,71.61,2.2a3.412,3.412,0,0,1-1.925-.517A2.493,2.493,0,0,1,68.64.33L65.956,1.342a4.921,4.921,0,0,0,2.1,2.541A6.556,6.556,0,0,0,71.61,4.84Zm-.132-7.986A3.044,3.044,0,0,1,69.2-4.059a3.158,3.158,0,0,1-.891-2.3,3.378,3.378,0,0,1,.407-1.661A2.958,2.958,0,0,1,69.85-9.174a3.2,3.2,0,0,1,1.628-.418,2.946,2.946,0,0,1,2.233.913,3.231,3.231,0,0,1,.869,2.321,3.192,3.192,0,0,1-.869,2.31A2.964,2.964,0,0,1,71.478-3.146ZM84.7.264A5.676,5.676,0,0,0,87.076-.2,3.792,3.792,0,0,0,88.66-1.485a3.258,3.258,0,0,0,.572-1.9,3.158,3.158,0,0,0-.792-2.156,4.6,4.6,0,0,0-2.288-1.32l-1.914-.572A3.241,3.241,0,0,1,83.226-7.9a.923.923,0,0,1-.4-.792,1.043,1.043,0,0,1,.418-.858,1.8,1.8,0,0,1,1.144-.33,2.922,2.922,0,0,1,1.639.484,2.515,2.515,0,0,1,1.023,1.3l2.2-1.034a4.528,4.528,0,0,0-1.848-2.277,5.457,5.457,0,0,0-2.992-.825,5.43,5.43,0,0,0-2.3.462,3.725,3.725,0,0,0-1.562,1.287,3.34,3.34,0,0,0-.561,1.925,3.155,3.155,0,0,0,.781,2.134,4.669,4.669,0,0,0,2.3,1.342l1.958.55a2.94,2.94,0,0,1,.979.451.943.943,0,0,1,.407.8,1.091,1.091,0,0,1-.473.935A2.079,2.079,0,0,1,84.7-2a3.1,3.1,0,0,1-1.826-.572,3.989,3.989,0,0,1-1.3-1.584L79.42-3.124A4.7,4.7,0,0,0,81.367-.66,5.97,5.97,0,0,0,84.7.264Z" transform="translate(98.34 50.15)" fill="#666"/>
      <path id="Path_726" data-name="Path 726" d="M1.42,0H5.595A6.791,6.791,0,0,0,8.966-.8,5.608,5.608,0,0,0,11.19-3.046a6.836,6.836,0,0,0,.787-3.336,6.824,6.824,0,0,0-.787-3.345,5.566,5.566,0,0,0-2.224-2.224,6.85,6.85,0,0,0-3.371-.8H1.42ZM3.1-1.54v-9.667H5.612a4.839,4.839,0,0,1,2.438.59A4.085,4.085,0,0,1,9.659-8.949a5.4,5.4,0,0,1,.573,2.566,5.528,5.528,0,0,1-.565,2.567,4.006,4.006,0,0,1-1.6,1.685,4.875,4.875,0,0,1-2.455.59ZM14.1,0h1.677V-9.547L22.483,0h1.4V-12.747H22.192v9.411L15.5-12.747H14.1ZM31.106.205a5.047,5.047,0,0,0,2.2-.453,3.628,3.628,0,0,0,1.489-1.258,3.241,3.241,0,0,0,.539-1.848q0-2.5-3.046-3.439l-2.139-.633A2.749,2.749,0,0,1,28.8-8.273a1.937,1.937,0,0,1-.445-1.24,1.733,1.733,0,0,1,.633-1.412,2.525,2.525,0,0,1,1.66-.522,3.368,3.368,0,0,1,1.942.565,3.276,3.276,0,0,1,1.223,1.625l1.437-.6a4.239,4.239,0,0,0-.95-1.574,4.816,4.816,0,0,0-1.591-1.112,5.1,5.1,0,0,0-2.079-.411,4.475,4.475,0,0,0-2.045.453,3.474,3.474,0,0,0-1.4,1.249,3.359,3.359,0,0,0-.5,1.839,3.311,3.311,0,0,0,.736,2.122,4.2,4.2,0,0,0,2.122,1.352l2.344.719a3.08,3.08,0,0,1,1.317.719,1.711,1.711,0,0,1,.462,1.266,1.675,1.675,0,0,1-.693,1.412A2.952,2.952,0,0,1,31.14-1.3a3.617,3.617,0,0,1-2.156-.659A3.847,3.847,0,0,1,27.616-3.85l-1.454.6A4.716,4.716,0,0,0,27.171-1.5a5.163,5.163,0,0,0,1.711,1.24A5.282,5.282,0,0,0,31.106.205Zm13.722,0a4.457,4.457,0,0,0,1.7-.325,4.276,4.276,0,0,0,1.377-.89,3.766,3.766,0,0,0,.873-1.266l-1.42-.719a2.761,2.761,0,0,1-.984,1.206,2.663,2.663,0,0,1-1.548.453,2.772,2.772,0,0,1-1.514-.428,3.035,3.035,0,0,1-1.069-1.172A3.513,3.513,0,0,1,41.851-4.6,3.536,3.536,0,0,1,42.245-6.3,3.051,3.051,0,0,1,43.314-7.46a2.772,2.772,0,0,1,1.514-.428,2.674,2.674,0,0,1,1.54.453,2.78,2.78,0,0,1,.992,1.172l1.42-.684A3.669,3.669,0,0,0,47.9-8.23a4.282,4.282,0,0,0-1.377-.881,4.5,4.5,0,0,0-1.694-.317,4.62,4.62,0,0,0-2.4.625,4.45,4.45,0,0,0-1.651,1.711,5.036,5.036,0,0,0-.6,2.472,5.05,5.05,0,0,0,.6,2.464A4.5,4.5,0,0,0,42.424-.428,4.571,4.571,0,0,0,44.828.205Zm10.42,0a4.709,4.709,0,0,0,2.378-.616,4.626,4.626,0,0,0,1.72-1.711,4.848,4.848,0,0,0,.642-2.5,4.871,4.871,0,0,0-.625-2.472,4.581,4.581,0,0,0-1.7-1.711,4.724,4.724,0,0,0-2.413-.625,4.757,4.757,0,0,0-2.43.625,4.581,4.581,0,0,0-1.7,1.711,4.871,4.871,0,0,0-.625,2.472,4.866,4.866,0,0,0,.633,2.481,4.627,4.627,0,0,0,1.711,1.72A4.724,4.724,0,0,0,55.248.205Zm0-1.54a2.92,2.92,0,0,1-1.566-.428,3.119,3.119,0,0,1-1.1-1.172,3.43,3.43,0,0,1-.411-1.685A3.382,3.382,0,0,1,52.579-6.3a3.137,3.137,0,0,1,1.1-1.163,2.92,2.92,0,0,1,1.566-.428A2.889,2.889,0,0,1,56.8-7.46a3.071,3.071,0,0,1,1.1,1.163,3.439,3.439,0,0,1,.4,1.677,3.489,3.489,0,0,1-.4,1.685,3.054,3.054,0,0,1-1.1,1.172A2.889,2.889,0,0,1,55.248-1.335ZM62.058,0h1.591V-5.458a2.442,2.442,0,0,1,.633-1.779,2.149,2.149,0,0,1,1.608-.65,2.108,2.108,0,0,1,1.591.642A2.476,2.476,0,0,1,68.1-5.458V0h1.608V-5.971a3.453,3.453,0,0,0-.453-1.771,3.358,3.358,0,0,0-1.232-1.232,3.453,3.453,0,0,0-1.771-.453,3.327,3.327,0,0,0-1.54.351,2.806,2.806,0,0,0-1.1.984V-9.222H62.058Zm10.9,0h1.608V-7.7h3.8V0h1.591V-9.222h-5.39v-.65a1.453,1.453,0,0,1,.5-1.258,2.138,2.138,0,0,1,1.292-.368q.1,0,.3.009a1.413,1.413,0,0,1,.317.043v-1.42a3.71,3.71,0,0,0-.385-.06,3.827,3.827,0,0,0-.419-.026,3.6,3.6,0,0,0-1.617.359,2.855,2.855,0,0,0-1.163,1.044,3.057,3.057,0,0,0-.436,1.677v.65H71.195V-7.7h1.762Zm13.62,3.764a4.742,4.742,0,0,0,2.284-.539,3.994,3.994,0,0,0,1.566-1.48,4.076,4.076,0,0,0,.565-2.139V-9.222H89.434v1.283a3.825,3.825,0,0,0-1.352-1.1A3.993,3.993,0,0,0,86.3-9.428a4.437,4.437,0,0,0-2.318.607,4.361,4.361,0,0,0-1.6,1.651A4.732,4.732,0,0,0,81.8-4.825a4.677,4.677,0,0,0,.59,2.344A4.425,4.425,0,0,0,84-.83a4.437,4.437,0,0,0,2.318.607A4.065,4.065,0,0,0,88.065-.6a3.379,3.379,0,0,0,1.317-1.078V-.394A2.558,2.558,0,0,1,89,1.035a2.439,2.439,0,0,1-1.018.89,3.281,3.281,0,0,1-1.42.3,2.992,2.992,0,0,1-1.7-.453,2.281,2.281,0,0,1-.915-1.1l-1.489.684A3.758,3.758,0,0,0,84.01,3.1,4.834,4.834,0,0,0,86.577,3.764Zm-.12-5.527a2.89,2.89,0,0,1-1.531-.411,2.941,2.941,0,0,1-1.061-1.1,3.134,3.134,0,0,1-.385-1.548,3.08,3.08,0,0,1,.394-1.548,3.008,3.008,0,0,1,1.069-1.1,2.859,2.859,0,0,1,1.514-.411,2.784,2.784,0,0,1,1.489.411A2.963,2.963,0,0,1,89-6.373a3.134,3.134,0,0,1,.385,1.548A3.148,3.148,0,0,1,89-3.285a2.945,2.945,0,0,1-1.052,1.112A2.784,2.784,0,0,1,86.457-1.762ZM96.723.205a3.327,3.327,0,0,0,1.54-.351,2.806,2.806,0,0,0,1.1-.984V0h1.557V-9.222H99.306v5.458a2.462,2.462,0,0,1-.625,1.779,2.121,2.121,0,0,1-1.6.65,2.159,2.159,0,0,1-1.608-.625,2.272,2.272,0,0,1-.616-1.668V-9.222H93.267v5.766a3.975,3.975,0,0,0,.445,1.908A3.258,3.258,0,0,0,94.935-.257,3.436,3.436,0,0,0,96.723.205ZM103.379,0h1.591V-5.492a2.345,2.345,0,0,1,.6-1.72,2.112,2.112,0,0,1,1.574-.607h.8V-9.325h-.565a3.336,3.336,0,0,0-1.471.3,2.28,2.28,0,0,0-.975.9v-1.1h-1.557Zm8.692.205a4.148,4.148,0,0,0,1.814-.385,3.586,3.586,0,0,0,1.3-1.018V0h1.557V-6.262a3,3,0,0,0-.453-1.651,3.1,3.1,0,0,0-1.258-1.112,4.119,4.119,0,0,0-1.865-.4,4.33,4.33,0,0,0-1.574.291,4.258,4.258,0,0,0-1.317.8,3.07,3.07,0,0,0-.821,1.138l1.386.719a2.507,2.507,0,0,1,.89-1.061,2.42,2.42,0,0,1,1.4-.411,2.188,2.188,0,0,1,1.463.471,1.527,1.527,0,0,1,.556,1.223v.428L112-5.321a3.9,3.9,0,0,0-2.284,1.035,2.647,2.647,0,0,0-.727,1.874,2.355,2.355,0,0,0,.864,1.891A3.323,3.323,0,0,0,112.071.205Zm-1.4-2.669a1.387,1.387,0,0,1,.4-1.009,2.33,2.33,0,0,1,1.292-.565L115.15-4.5v.582a2.792,2.792,0,0,1-.359,1.4,2.619,2.619,0,0,1-1.009,1,3.041,3.041,0,0,1-1.523.368,1.721,1.721,0,0,1-1.138-.376A1.174,1.174,0,0,1,110.667-2.464ZM122.611.1q.188,0,.462-.026a3.79,3.79,0,0,0,.5-.077V-1.4l-.325.034q-.171.017-.308.017a1.475,1.475,0,0,1-1.189-.419,1.69,1.69,0,0,1-.351-1.121V-7.7h2.07V-9.222H121.4v-2.122h-1.591v.753a1.371,1.371,0,0,1-.359,1,1.3,1.3,0,0,1-.975.368h-.342V-7.7h1.677V-2.84a3.042,3.042,0,0,0,.727,2.173A2.722,2.722,0,0,0,122.611.1Zm3.028-10.8h1.591v-2.053H125.64ZM125.64,0h1.591V-9.222H125.64Zm8.435.205a4.709,4.709,0,0,0,2.378-.616,4.626,4.626,0,0,0,1.72-1.711,4.848,4.848,0,0,0,.642-2.5,4.871,4.871,0,0,0-.625-2.472,4.581,4.581,0,0,0-1.7-1.711,4.724,4.724,0,0,0-2.413-.625,4.757,4.757,0,0,0-2.43.625,4.581,4.581,0,0,0-1.7,1.711,4.871,4.871,0,0,0-.625,2.472,4.866,4.866,0,0,0,.633,2.481,4.627,4.627,0,0,0,1.711,1.72A4.724,4.724,0,0,0,134.075.205Zm0-1.54a2.92,2.92,0,0,1-1.566-.428,3.119,3.119,0,0,1-1.1-1.172A3.43,3.43,0,0,1,131-4.62a3.382,3.382,0,0,1,.411-1.677,3.137,3.137,0,0,1,1.1-1.163,2.92,2.92,0,0,1,1.566-.428,2.889,2.889,0,0,1,1.548.428,3.071,3.071,0,0,1,1.1,1.163,3.439,3.439,0,0,1,.4,1.677,3.489,3.489,0,0,1-.4,1.685,3.054,3.054,0,0,1-1.1,1.172A2.889,2.889,0,0,1,134.075-1.335ZM140.885,0h1.591V-5.458a2.442,2.442,0,0,1,.633-1.779,2.149,2.149,0,0,1,1.608-.65,2.108,2.108,0,0,1,1.591.642,2.476,2.476,0,0,1,.616,1.788V0h1.608V-5.971a3.453,3.453,0,0,0-.453-1.771,3.359,3.359,0,0,0-1.232-1.232,3.453,3.453,0,0,0-1.771-.453,3.327,3.327,0,0,0-1.54.351,2.806,2.806,0,0,0-1.1.984V-9.222h-1.557Z" transform="translate(98.83 168.34)" fill="#666"/>
      <path id="Path_725" data-name="Path 725" d="M1.42,0H3.1V-9.684l4.158,5.92h.137L11.532-9.6V0h1.694V-12.747h-1.54L7.34-6.519,2.96-12.747H1.42ZM18.564.205A4.148,4.148,0,0,0,20.378-.18a3.586,3.586,0,0,0,1.3-1.018V0h1.557V-6.262a3,3,0,0,0-.453-1.651,3.1,3.1,0,0,0-1.258-1.112,4.119,4.119,0,0,0-1.865-.4,4.33,4.33,0,0,0-1.574.291,4.258,4.258,0,0,0-1.317.8A3.069,3.069,0,0,0,15.947-7.2l1.386.719a2.507,2.507,0,0,1,.89-1.061,2.42,2.42,0,0,1,1.4-.411,2.188,2.188,0,0,1,1.463.471,1.527,1.527,0,0,1,.556,1.223v.428L18.5-5.321a3.9,3.9,0,0,0-2.284,1.035,2.647,2.647,0,0,0-.727,1.874,2.355,2.355,0,0,0,.864,1.891A3.323,3.323,0,0,0,18.564.205Zm-1.4-2.669a1.387,1.387,0,0,1,.4-1.009,2.33,2.33,0,0,1,1.292-.565L21.644-4.5v.582a2.792,2.792,0,0,1-.359,1.4,2.619,2.619,0,0,1-1.009,1,3.041,3.041,0,0,1-1.523.368,1.721,1.721,0,0,1-1.138-.376A1.174,1.174,0,0,1,17.161-2.464ZM24.656,0h1.951l2.241-3.3L31.089,0h1.916l-3.2-4.62,3.217-4.6H31.089L28.847-5.937,26.589-9.222H24.673l3.217,4.6ZM37.591,0h7.272V-1.54H39.267V-12.747H37.591Zm8.966-10.694h1.591v-2.053H46.556ZM46.556,0h1.591V-9.222H46.556Zm5.03,0h1.608V-7.7h2.19V-9.222h-2.19v-.65a1.453,1.453,0,0,1,.5-1.258,2.138,2.138,0,0,1,1.292-.368q.1,0,.3.009a1.413,1.413,0,0,1,.317.043v-1.42a3.71,3.71,0,0,0-.385-.06,3.827,3.827,0,0,0-.419-.026,3.6,3.6,0,0,0-1.617.359,2.855,2.855,0,0,0-1.163,1.044,3.057,3.057,0,0,0-.436,1.677v.65H49.824V-7.7h1.762ZM60.88.205a4.475,4.475,0,0,0,2.464-.667,3.762,3.762,0,0,0,1.471-1.625L63.48-2.772a3.369,3.369,0,0,1-1.027,1.1,2.717,2.717,0,0,1-1.557.428A2.993,2.993,0,0,1,59.468-1.6a2.877,2.877,0,0,1-1.078-1,3,3,0,0,1-.453-1.54h7.049A4.72,4.72,0,0,0,65.072-5a4.69,4.69,0,0,0-.513-2.156,4.225,4.225,0,0,0-1.48-1.643,4.169,4.169,0,0,0-2.336-.633,4.313,4.313,0,0,0-2.293.616,4.425,4.425,0,0,0-1.6,1.7,5.1,5.1,0,0,0-.59,2.472,5.085,5.085,0,0,0,.6,2.481A4.516,4.516,0,0,0,58.5-.428,4.494,4.494,0,0,0,60.88.205Zm-.137-8.213a2.641,2.641,0,0,1,1.283.317,2.536,2.536,0,0,1,.941.881,2.481,2.481,0,0,1,.376,1.3H57.971a2.845,2.845,0,0,1,.958-1.831A2.723,2.723,0,0,1,60.743-8.007ZM70.29,0h1.677V-9.684l4.158,5.92h.137L80.4-9.6V0H82.1V-12.747h-1.54L76.21-6.519l-4.38-6.228H70.29ZM87.434.205A4.148,4.148,0,0,0,89.248-.18a3.586,3.586,0,0,0,1.3-1.018V0h1.557V-6.262a3,3,0,0,0-.453-1.651,3.1,3.1,0,0,0-1.258-1.112,4.119,4.119,0,0,0-1.865-.4,4.33,4.33,0,0,0-1.574.291,4.258,4.258,0,0,0-1.317.8A3.07,3.07,0,0,0,84.816-7.2l1.386.719a2.507,2.507,0,0,1,.89-1.061,2.42,2.42,0,0,1,1.4-.411,2.188,2.188,0,0,1,1.463.471,1.527,1.527,0,0,1,.556,1.223v.428l-3.148.513a3.9,3.9,0,0,0-2.284,1.035,2.647,2.647,0,0,0-.727,1.874,2.355,2.355,0,0,0,.864,1.891A3.323,3.323,0,0,0,87.434.205Zm-1.4-2.669a1.387,1.387,0,0,1,.4-1.009,2.33,2.33,0,0,1,1.292-.565L90.514-4.5v.582a2.792,2.792,0,0,1-.359,1.4,2.619,2.619,0,0,1-1.009,1,3.041,3.041,0,0,1-1.523.368,1.721,1.721,0,0,1-1.138-.376A1.174,1.174,0,0,1,86.031-2.464ZM94.569,0H96.16V-5.458a2.442,2.442,0,0,1,.633-1.779,2.149,2.149,0,0,1,1.608-.65,2.108,2.108,0,0,1,1.591.642,2.476,2.476,0,0,1,.616,1.788V0h1.608V-5.971a3.453,3.453,0,0,0-.453-1.771,3.358,3.358,0,0,0-1.232-1.232,3.453,3.453,0,0,0-1.771-.453,3.327,3.327,0,0,0-1.54.351,2.806,2.806,0,0,0-1.1.984V-9.222H94.569ZM107.2.205A4.148,4.148,0,0,0,109.01-.18a3.586,3.586,0,0,0,1.3-1.018V0h1.557V-6.262a3,3,0,0,0-.453-1.651,3.1,3.1,0,0,0-1.258-1.112,4.119,4.119,0,0,0-1.865-.4,4.33,4.33,0,0,0-1.574.291,4.258,4.258,0,0,0-1.317.8,3.07,3.07,0,0,0-.821,1.138l1.386.719a2.507,2.507,0,0,1,.89-1.061,2.42,2.42,0,0,1,1.4-.411,2.188,2.188,0,0,1,1.463.471,1.527,1.527,0,0,1,.556,1.223v.428l-3.148.513a3.9,3.9,0,0,0-2.284,1.035,2.647,2.647,0,0,0-.727,1.874,2.355,2.355,0,0,0,.864,1.891A3.323,3.323,0,0,0,107.2.205Zm-1.4-2.669a1.387,1.387,0,0,1,.4-1.009,2.33,2.33,0,0,1,1.292-.565l2.789-.462v.582a2.792,2.792,0,0,1-.359,1.4,2.619,2.619,0,0,1-1.009,1,3.041,3.041,0,0,1-1.523.368,1.721,1.721,0,0,1-1.138-.376A1.174,1.174,0,0,1,105.793-2.464Zm12.935,6.228a4.742,4.742,0,0,0,2.284-.539,3.994,3.994,0,0,0,1.566-1.48,4.076,4.076,0,0,0,.565-2.139V-9.222h-1.557v1.283a3.825,3.825,0,0,0-1.352-1.1,3.993,3.993,0,0,0-1.779-.394,4.437,4.437,0,0,0-2.318.607,4.361,4.361,0,0,0-1.6,1.651,4.732,4.732,0,0,0-.582,2.344,4.677,4.677,0,0,0,.59,2.344A4.425,4.425,0,0,0,116.153-.83a4.437,4.437,0,0,0,2.318.607A4.065,4.065,0,0,0,120.217-.6a3.379,3.379,0,0,0,1.317-1.078V-.394a2.558,2.558,0,0,1-.385,1.429,2.439,2.439,0,0,1-1.018.89,3.281,3.281,0,0,1-1.42.3,2.992,2.992,0,0,1-1.7-.453,2.281,2.281,0,0,1-.915-1.1l-1.489.684A3.758,3.758,0,0,0,116.162,3.1,4.834,4.834,0,0,0,118.728,3.764Zm-.12-5.527a2.89,2.89,0,0,1-1.531-.411,2.941,2.941,0,0,1-1.061-1.1,3.134,3.134,0,0,1-.385-1.548,3.08,3.08,0,0,1,.394-1.548,3.008,3.008,0,0,1,1.069-1.1,2.859,2.859,0,0,1,1.514-.411,2.784,2.784,0,0,1,1.489.411,2.963,2.963,0,0,1,1.052,1.1,3.134,3.134,0,0,1,.385,1.548,3.148,3.148,0,0,1-.385,1.54A2.945,2.945,0,0,1,120.1-2.173,2.784,2.784,0,0,1,118.609-1.762ZM129.85.205a4.475,4.475,0,0,0,2.464-.667,3.762,3.762,0,0,0,1.471-1.625l-1.335-.684a3.369,3.369,0,0,1-1.027,1.1,2.717,2.717,0,0,1-1.557.428,2.993,2.993,0,0,1-1.429-.351,2.877,2.877,0,0,1-1.078-1,3,3,0,0,1-.453-1.54h7.049A4.72,4.72,0,0,0,134.042-5a4.69,4.69,0,0,0-.513-2.156,4.224,4.224,0,0,0-1.48-1.643,4.169,4.169,0,0,0-2.336-.633,4.313,4.313,0,0,0-2.293.616,4.425,4.425,0,0,0-1.6,1.7,5.1,5.1,0,0,0-.59,2.472,5.085,5.085,0,0,0,.6,2.481,4.516,4.516,0,0,0,1.643,1.728A4.494,4.494,0,0,0,129.85.205Zm-.137-8.213A2.641,2.641,0,0,1,131-7.691a2.536,2.536,0,0,1,.941.881,2.481,2.481,0,0,1,.376,1.3h-5.373A2.845,2.845,0,0,1,127.9-7.34,2.723,2.723,0,0,1,129.713-8.007ZM140.3.205a4.313,4.313,0,0,0,1.874-.4,3.354,3.354,0,0,0,1.36-1.155V0H145.1V-12.952h-1.608V-7.99a3.551,3.551,0,0,0-1.352-1.061,4.343,4.343,0,0,0-1.831-.376,4.387,4.387,0,0,0-2.336.633,4.554,4.554,0,0,0-1.634,1.72,5.036,5.036,0,0,0-.6,2.472,5,5,0,0,0,.6,2.455,4.554,4.554,0,0,0,1.634,1.72A4.387,4.387,0,0,0,140.3.205Zm.137-1.54a2.876,2.876,0,0,1-1.557-.428,3.013,3.013,0,0,1-1.078-1.172,3.513,3.513,0,0,1-.394-1.668,3.55,3.55,0,0,1,.394-1.685,2.991,2.991,0,0,1,1.086-1.172,2.889,2.889,0,0,1,1.548-.428A2.834,2.834,0,0,1,142-7.451a3.161,3.161,0,0,1,1.086,1.172,3.439,3.439,0,0,1,.4,1.677,3.453,3.453,0,0,1-.4,1.668A3.077,3.077,0,0,1,142-1.762,2.876,2.876,0,0,1,140.441-1.335Z" transform="translate(101.91 293.01)" fill="#666"/>
      <path id="Path_724" data-name="Path 724" d="M1.42,0H3.1V-4.876H5.9L8.658,0h1.951L7.648-5.167A3.658,3.658,0,0,0,9.5-6.51a3.831,3.831,0,0,0,.684-2.3,3.939,3.939,0,0,0-.539-2.1,3.6,3.6,0,0,0-1.5-1.36,4.912,4.912,0,0,0-2.224-.479H1.42ZM3.1-6.416v-4.791H5.971a2.575,2.575,0,0,1,1.822.642,2.273,2.273,0,0,1,.693,1.754,2.279,2.279,0,0,1-.693,1.745,2.555,2.555,0,0,1-1.822.65ZM15.539.205A4.475,4.475,0,0,0,18-.462a3.762,3.762,0,0,0,1.471-1.625L18.14-2.772a3.369,3.369,0,0,1-1.027,1.1,2.717,2.717,0,0,1-1.557.428A2.993,2.993,0,0,1,14.128-1.6a2.877,2.877,0,0,1-1.078-1,3,3,0,0,1-.453-1.54h7.049A4.72,4.72,0,0,0,19.731-5a4.69,4.69,0,0,0-.513-2.156,4.225,4.225,0,0,0-1.48-1.643A4.169,4.169,0,0,0,15.4-9.428a4.313,4.313,0,0,0-2.293.616,4.425,4.425,0,0,0-1.6,1.7,5.1,5.1,0,0,0-.59,2.472,5.085,5.085,0,0,0,.6,2.481A4.516,4.516,0,0,0,13.161-.428,4.494,4.494,0,0,0,15.539.205ZM15.4-8.007a2.641,2.641,0,0,1,1.283.317,2.536,2.536,0,0,1,.941.881A2.481,2.481,0,0,1,18-5.509H12.63a2.845,2.845,0,0,1,.958-1.831A2.723,2.723,0,0,1,15.4-8.007Zm6.519,4.124h6.416V-5.338H21.921ZM31.092,0h1.677V-3.764l2-2.293L38.809,0h2L35.934-7.409l4.62-5.338h-2.1L32.769-6.228v-6.519H31.092Zm14.7.205a4.475,4.475,0,0,0,2.464-.667,3.762,3.762,0,0,0,1.471-1.625l-1.335-.684a3.369,3.369,0,0,1-1.027,1.1,2.717,2.717,0,0,1-1.557.428A2.993,2.993,0,0,1,44.38-1.6a2.877,2.877,0,0,1-1.078-1,3,3,0,0,1-.453-1.54H49.9A4.72,4.72,0,0,0,49.984-5a4.691,4.691,0,0,0-.513-2.156,4.225,4.225,0,0,0-1.48-1.643,4.169,4.169,0,0,0-2.336-.633,4.313,4.313,0,0,0-2.293.616,4.425,4.425,0,0,0-1.6,1.7,5.1,5.1,0,0,0-.59,2.472,5.085,5.085,0,0,0,.6,2.481A4.516,4.516,0,0,0,43.414-.428,4.494,4.494,0,0,0,45.792.205Zm-.137-8.213a2.641,2.641,0,0,1,1.283.317,2.536,2.536,0,0,1,.941.881,2.481,2.481,0,0,1,.376,1.3H42.883a2.845,2.845,0,0,1,.958-1.831A2.723,2.723,0,0,1,45.655-8.007Zm6.9,11.772A3.124,3.124,0,0,0,54.1,3.4a3.474,3.474,0,0,0,1.1-.967A5.794,5.794,0,0,0,55.938,1.1L60.1-9.222H58.333l-2.789,7.2-2.806-7.2H51.01L54.672.017,54.4.684A3.4,3.4,0,0,1,53.6,1.9a1.832,1.832,0,0,1-1.223.359,3.708,3.708,0,0,1-.556-.043q-.282-.043-.471-.077v1.42a2.2,2.2,0,0,0,.582.163A4.472,4.472,0,0,0,52.55,3.764ZM64.664,0h5.373a4.454,4.454,0,0,0,3.08-1.009,3.528,3.528,0,0,0,1.129-2.772,3.527,3.527,0,0,0-.453-1.762,3.481,3.481,0,0,0-1.36-1.317,2.93,2.93,0,0,0,1.3-2.549,3.118,3.118,0,0,0-1-2.43,3.887,3.887,0,0,0-2.712-.907H64.664Zm1.677-7.511v-3.713h3.644a2.249,2.249,0,0,1,1.489.471,1.63,1.63,0,0,1,.565,1.326,1.821,1.821,0,0,1-.565,1.377,2.066,2.066,0,0,1-1.489.539Zm0,5.971V-6.006h3.764a2.52,2.52,0,0,1,1.779.616,2.107,2.107,0,0,1,.667,1.625,2.074,2.074,0,0,1-.667,1.625,2.564,2.564,0,0,1-1.779.6ZM80.559.205a4.475,4.475,0,0,0,2.464-.667,3.762,3.762,0,0,0,1.471-1.625L83.16-2.772a3.369,3.369,0,0,1-1.027,1.1,2.717,2.717,0,0,1-1.557.428A2.993,2.993,0,0,1,79.148-1.6a2.877,2.877,0,0,1-1.078-1,3,3,0,0,1-.453-1.54h7.049A4.72,4.72,0,0,0,84.751-5a4.69,4.69,0,0,0-.513-2.156,4.225,4.225,0,0,0-1.48-1.643,4.169,4.169,0,0,0-2.336-.633,4.313,4.313,0,0,0-2.293.616,4.425,4.425,0,0,0-1.6,1.7,5.1,5.1,0,0,0-.59,2.472,5.085,5.085,0,0,0,.6,2.481A4.516,4.516,0,0,0,78.181-.428,4.494,4.494,0,0,0,80.559.205Zm-.137-8.213a2.641,2.641,0,0,1,1.283.317,2.536,2.536,0,0,1,.941.881,2.481,2.481,0,0,1,.376,1.3H77.651a2.845,2.845,0,0,1,.958-1.831A2.723,2.723,0,0,1,80.423-8.007ZM87.8,0h1.608V-7.7H91.6V-9.222h-2.19v-.65a1.453,1.453,0,0,1,.5-1.258A2.138,2.138,0,0,1,91.2-11.5q.1,0,.3.009a1.413,1.413,0,0,1,.317.043v-1.42a3.71,3.71,0,0,0-.385-.06,3.827,3.827,0,0,0-.419-.026,3.6,3.6,0,0,0-1.617.359,2.855,2.855,0,0,0-1.163,1.044A3.057,3.057,0,0,0,87.8-9.872v.65H86.035V-7.7H87.8Zm9.43.205a4.709,4.709,0,0,0,2.378-.616,4.626,4.626,0,0,0,1.72-1.711,4.848,4.848,0,0,0,.642-2.5,4.871,4.871,0,0,0-.625-2.472,4.581,4.581,0,0,0-1.7-1.711,4.724,4.724,0,0,0-2.413-.625A4.757,4.757,0,0,0,94.8-8.8a4.581,4.581,0,0,0-1.7,1.711A4.871,4.871,0,0,0,92.47-4.62,4.866,4.866,0,0,0,93.1-2.139a4.627,4.627,0,0,0,1.711,1.72A4.724,4.724,0,0,0,97.227.205Zm0-1.54a2.92,2.92,0,0,1-1.566-.428,3.119,3.119,0,0,1-1.1-1.172,3.43,3.43,0,0,1-.411-1.685A3.382,3.382,0,0,1,94.558-6.3a3.137,3.137,0,0,1,1.1-1.163,2.92,2.92,0,0,1,1.566-.428,2.889,2.889,0,0,1,1.548.428A3.071,3.071,0,0,1,99.87-6.3a3.439,3.439,0,0,1,.4,1.677,3.489,3.489,0,0,1-.4,1.685,3.054,3.054,0,0,1-1.1,1.172A2.889,2.889,0,0,1,97.227-1.335ZM104.037,0h1.591V-5.492a2.345,2.345,0,0,1,.6-1.72,2.112,2.112,0,0,1,1.574-.607h.8V-9.325h-.565a3.336,3.336,0,0,0-1.471.3,2.28,2.28,0,0,0-.975.9v-1.1h-1.557Zm10.232.205a4.475,4.475,0,0,0,2.464-.667A3.762,3.762,0,0,0,118.2-2.087l-1.335-.684a3.369,3.369,0,0,1-1.027,1.1,2.717,2.717,0,0,1-1.557.428,2.993,2.993,0,0,1-1.429-.351,2.877,2.877,0,0,1-1.078-1,3,3,0,0,1-.453-1.54h7.049A4.72,4.72,0,0,0,118.46-5a4.69,4.69,0,0,0-.513-2.156,4.225,4.225,0,0,0-1.48-1.643,4.169,4.169,0,0,0-2.336-.633,4.313,4.313,0,0,0-2.293.616,4.425,4.425,0,0,0-1.6,1.7,5.1,5.1,0,0,0-.59,2.472,5.085,5.085,0,0,0,.6,2.481A4.516,4.516,0,0,0,111.89-.428,4.494,4.494,0,0,0,114.268.205Zm-.137-8.213a2.641,2.641,0,0,1,1.283.317,2.536,2.536,0,0,1,.941.881,2.481,2.481,0,0,1,.376,1.3H111.36a2.845,2.845,0,0,1,.958-1.831A2.723,2.723,0,0,1,114.131-8.007ZM123.679,0h8.3V-1.54h-6.622V-5.629h6.279v-1.54h-6.279v-4.038h6.622v-1.54h-8.3Zm9.137,0h1.951l2.241-3.3L139.249,0h1.916l-3.2-4.62,3.217-4.6h-1.933l-2.241,3.285-2.259-3.285h-1.916l3.217,4.6ZM142.6,3.422h1.591V-1.283a3.482,3.482,0,0,0,1.36,1.1,4.277,4.277,0,0,0,1.822.385,4.418,4.418,0,0,0,2.353-.633,4.554,4.554,0,0,0,1.634-1.72,5,5,0,0,0,.6-2.455,5.036,5.036,0,0,0-.6-2.472,4.576,4.576,0,0,0-1.625-1.72,4.374,4.374,0,0,0-2.344-.633,4.242,4.242,0,0,0-1.874.4,3.7,3.7,0,0,0-1.36,1.1v-1.3H142.6Zm4.654-4.757a2.932,2.932,0,0,1-1.557-.428,3.033,3.033,0,0,1-1.1-1.172,3.453,3.453,0,0,1-.4-1.668,3.439,3.439,0,0,1,.4-1.677,3.114,3.114,0,0,1,1.1-1.172,2.889,2.889,0,0,1,1.557-.436,2.833,2.833,0,0,1,1.548.428,3.035,3.035,0,0,1,1.069,1.172,3.55,3.55,0,0,1,.394,1.685,3.513,3.513,0,0,1-.394,1.668A3.035,3.035,0,0,1,148.8-1.762,2.833,2.833,0,0,1,147.256-1.335Zm6.793-9.359h1.591v-2.053h-1.591Zm0,10.694h1.591V-9.222h-1.591ZM158.1,0H159.7V-5.492a2.345,2.345,0,0,1,.6-1.72,2.112,2.112,0,0,1,1.574-.607h.8V-9.325h-.565a3.336,3.336,0,0,0-1.471.3,2.28,2.28,0,0,0-.975.9v-1.1H158.1ZM166.8.205A4.148,4.148,0,0,0,168.61-.18a3.586,3.586,0,0,0,1.3-1.018V0h1.557V-6.262a3,3,0,0,0-.453-1.651,3.1,3.1,0,0,0-1.258-1.112,4.119,4.119,0,0,0-1.865-.4,4.33,4.33,0,0,0-1.574.291,4.258,4.258,0,0,0-1.317.8,3.069,3.069,0,0,0-.821,1.138l1.386.719a2.507,2.507,0,0,1,.89-1.061,2.42,2.42,0,0,1,1.4-.411,2.188,2.188,0,0,1,1.463.471,1.527,1.527,0,0,1,.556,1.223v.428l-3.148.513a3.9,3.9,0,0,0-2.284,1.035,2.647,2.647,0,0,0-.727,1.874,2.355,2.355,0,0,0,.864,1.891A3.323,3.323,0,0,0,166.8.205Zm-1.4-2.669a1.387,1.387,0,0,1,.4-1.009,2.33,2.33,0,0,1,1.292-.565l2.789-.462v.582a2.792,2.792,0,0,1-.359,1.4,2.619,2.619,0,0,1-1.009,1,3.041,3.041,0,0,1-1.523.368,1.721,1.721,0,0,1-1.138-.376A1.174,1.174,0,0,1,165.393-2.464ZM177.337.1q.188,0,.462-.026a3.789,3.789,0,0,0,.5-.077V-1.4l-.325.034q-.171.017-.308.017a1.475,1.475,0,0,1-1.189-.419,1.69,1.69,0,0,1-.351-1.121V-7.7h2.07V-9.222h-2.07v-2.122h-1.591v.753a1.371,1.371,0,0,1-.359,1,1.3,1.3,0,0,1-.975.368h-.342V-7.7h1.677V-2.84a3.042,3.042,0,0,0,.727,2.173A2.722,2.722,0,0,0,177.337.1Zm3.028-10.8h1.591v-2.053h-1.591Zm0,10.694h1.591V-9.222h-1.591ZM188.8.205a4.709,4.709,0,0,0,2.378-.616,4.626,4.626,0,0,0,1.72-1.711,4.848,4.848,0,0,0,.642-2.5,4.871,4.871,0,0,0-.625-2.472,4.581,4.581,0,0,0-1.7-1.711,4.724,4.724,0,0,0-2.413-.625,4.757,4.757,0,0,0-2.43.625,4.581,4.581,0,0,0-1.7,1.711,4.871,4.871,0,0,0-.625,2.472,4.866,4.866,0,0,0,.633,2.481,4.627,4.627,0,0,0,1.711,1.72A4.724,4.724,0,0,0,188.8.205Zm0-1.54a2.92,2.92,0,0,1-1.566-.428,3.119,3.119,0,0,1-1.1-1.172,3.43,3.43,0,0,1-.411-1.685,3.382,3.382,0,0,1,.411-1.677,3.137,3.137,0,0,1,1.1-1.163,2.92,2.92,0,0,1,1.566-.428,2.889,2.889,0,0,1,1.548.428,3.071,3.071,0,0,1,1.1,1.163,3.439,3.439,0,0,1,.4,1.677,3.488,3.488,0,0,1-.4,1.685,3.054,3.054,0,0,1-1.1,1.172A2.889,2.889,0,0,1,188.8-1.335ZM195.61,0H197.2V-5.458a2.442,2.442,0,0,1,.633-1.779,2.149,2.149,0,0,1,1.608-.65,2.108,2.108,0,0,1,1.591.642,2.476,2.476,0,0,1,.616,1.788V0h1.608V-5.971a3.453,3.453,0,0,0-.453-1.771,3.358,3.358,0,0,0-1.232-1.232,3.453,3.453,0,0,0-1.771-.453,3.327,3.327,0,0,0-1.54.351,2.806,2.806,0,0,0-1.1.984V-9.222H195.61Z" transform="translate(42.92 351.68)" fill="#666"/>
      <path id="Path_723" data-name="Path 723" d="M1.42,0H3.1V-9.684l4.158,5.92h.137L11.532-9.6V0h1.694V-12.747h-1.54L7.34-6.519,2.96-12.747H1.42ZM18.564.205A4.148,4.148,0,0,0,20.378-.18a3.586,3.586,0,0,0,1.3-1.018V0h1.557V-6.262a3,3,0,0,0-.453-1.651,3.1,3.1,0,0,0-1.258-1.112,4.119,4.119,0,0,0-1.865-.4,4.33,4.33,0,0,0-1.574.291,4.258,4.258,0,0,0-1.317.8A3.069,3.069,0,0,0,15.947-7.2l1.386.719a2.507,2.507,0,0,1,.89-1.061,2.42,2.42,0,0,1,1.4-.411,2.188,2.188,0,0,1,1.463.471,1.527,1.527,0,0,1,.556,1.223v.428L18.5-5.321a3.9,3.9,0,0,0-2.284,1.035,2.647,2.647,0,0,0-.727,1.874,2.355,2.355,0,0,0,.864,1.891A3.323,3.323,0,0,0,18.564.205Zm-1.4-2.669a1.387,1.387,0,0,1,.4-1.009,2.33,2.33,0,0,1,1.292-.565L21.644-4.5v.582a2.792,2.792,0,0,1-.359,1.4,2.619,2.619,0,0,1-1.009,1,3.041,3.041,0,0,1-1.523.368,1.721,1.721,0,0,1-1.138-.376A1.174,1.174,0,0,1,17.161-2.464ZM25.7,0H27.29V-5.458a2.442,2.442,0,0,1,.633-1.779,2.149,2.149,0,0,1,1.608-.65,2.108,2.108,0,0,1,1.591.642,2.476,2.476,0,0,1,.616,1.788V0h1.608V-5.971a3.453,3.453,0,0,0-.453-1.771,3.358,3.358,0,0,0-1.232-1.232,3.453,3.453,0,0,0-1.771-.453,3.327,3.327,0,0,0-1.54.351,2.806,2.806,0,0,0-1.1.984V-9.222H25.7ZM38.326.205A4.148,4.148,0,0,0,40.14-.18,3.586,3.586,0,0,0,41.44-1.2V0H43V-6.262a3,3,0,0,0-.453-1.651,3.1,3.1,0,0,0-1.258-1.112,4.119,4.119,0,0,0-1.865-.4,4.33,4.33,0,0,0-1.574.291,4.258,4.258,0,0,0-1.317.8A3.069,3.069,0,0,0,35.709-7.2l1.386.719a2.507,2.507,0,0,1,.89-1.061,2.42,2.42,0,0,1,1.4-.411,2.188,2.188,0,0,1,1.463.471,1.527,1.527,0,0,1,.556,1.223v.428l-3.148.513a3.9,3.9,0,0,0-2.284,1.035,2.647,2.647,0,0,0-.727,1.874,2.355,2.355,0,0,0,.864,1.891A3.323,3.323,0,0,0,38.326.205Zm-1.4-2.669a1.387,1.387,0,0,1,.4-1.009,2.33,2.33,0,0,1,1.292-.565L41.406-4.5v.582a2.792,2.792,0,0,1-.359,1.4,2.619,2.619,0,0,1-1.009,1,3.041,3.041,0,0,1-1.523.368,1.721,1.721,0,0,1-1.138-.376A1.174,1.174,0,0,1,36.923-2.464ZM49.859,3.764a4.742,4.742,0,0,0,2.284-.539,3.994,3.994,0,0,0,1.566-1.48,4.076,4.076,0,0,0,.565-2.139V-9.222H52.716v1.283a3.825,3.825,0,0,0-1.352-1.1,3.993,3.993,0,0,0-1.779-.394,4.437,4.437,0,0,0-2.318.607,4.361,4.361,0,0,0-1.6,1.651,4.732,4.732,0,0,0-.582,2.344,4.677,4.677,0,0,0,.59,2.344A4.425,4.425,0,0,0,47.283-.83,4.437,4.437,0,0,0,49.6-.222,4.065,4.065,0,0,0,51.347-.6a3.379,3.379,0,0,0,1.317-1.078V-.394a2.558,2.558,0,0,1-.385,1.429,2.439,2.439,0,0,1-1.018.89,3.281,3.281,0,0,1-1.42.3,2.992,2.992,0,0,1-1.7-.453,2.281,2.281,0,0,1-.915-1.1l-1.489.684A3.759,3.759,0,0,0,47.292,3.1,4.834,4.834,0,0,0,49.859,3.764Zm-.12-5.527a2.89,2.89,0,0,1-1.531-.411,2.941,2.941,0,0,1-1.061-1.1,3.134,3.134,0,0,1-.385-1.548,3.08,3.08,0,0,1,.394-1.548,3.008,3.008,0,0,1,1.069-1.1,2.859,2.859,0,0,1,1.514-.411,2.784,2.784,0,0,1,1.489.411,2.963,2.963,0,0,1,1.052,1.1,3.134,3.134,0,0,1,.385,1.548,3.148,3.148,0,0,1-.385,1.54,2.945,2.945,0,0,1-1.052,1.112A2.784,2.784,0,0,1,49.739-1.762ZM60.98.205a4.475,4.475,0,0,0,2.464-.667,3.762,3.762,0,0,0,1.471-1.625l-1.335-.684a3.369,3.369,0,0,1-1.027,1.1A2.717,2.717,0,0,1,61-1.249,2.993,2.993,0,0,1,59.568-1.6a2.877,2.877,0,0,1-1.078-1,3,3,0,0,1-.453-1.54h7.049A4.72,4.72,0,0,0,65.172-5a4.69,4.69,0,0,0-.513-2.156,4.225,4.225,0,0,0-1.48-1.643,4.169,4.169,0,0,0-2.336-.633,4.313,4.313,0,0,0-2.293.616,4.425,4.425,0,0,0-1.6,1.7,5.1,5.1,0,0,0-.59,2.472,5.085,5.085,0,0,0,.6,2.481A4.516,4.516,0,0,0,58.6-.428,4.494,4.494,0,0,0,60.98.205Zm-.137-8.213a2.641,2.641,0,0,1,1.283.317,2.536,2.536,0,0,1,.941.881,2.481,2.481,0,0,1,.376,1.3H58.071A2.845,2.845,0,0,1,59.03-7.34,2.723,2.723,0,0,1,60.843-8.007ZM71.434.205a4.313,4.313,0,0,0,1.874-.4,3.354,3.354,0,0,0,1.36-1.155V0h1.557V-12.952H74.617V-7.99a3.552,3.552,0,0,0-1.352-1.061,4.343,4.343,0,0,0-1.831-.376,4.386,4.386,0,0,0-2.336.633,4.554,4.554,0,0,0-1.634,1.72,5.036,5.036,0,0,0-.6,2.472,5,5,0,0,0,.6,2.455A4.554,4.554,0,0,0,69.1-.428,4.386,4.386,0,0,0,71.434.205Zm.137-1.54a2.876,2.876,0,0,1-1.557-.428,3.013,3.013,0,0,1-1.078-1.172A3.513,3.513,0,0,1,68.543-4.6a3.55,3.55,0,0,1,.394-1.685A2.991,2.991,0,0,1,70.023-7.46a2.889,2.889,0,0,1,1.548-.428,2.834,2.834,0,0,1,1.557.436,3.161,3.161,0,0,1,1.086,1.172,3.439,3.439,0,0,1,.4,1.677,3.453,3.453,0,0,1-.4,1.668,3.077,3.077,0,0,1-1.086,1.172A2.876,2.876,0,0,1,71.571-1.335ZM81.837,0h4.175a6.791,6.791,0,0,0,3.371-.8,5.608,5.608,0,0,0,2.224-2.241,6.836,6.836,0,0,0,.787-3.336,6.824,6.824,0,0,0-.787-3.345,5.566,5.566,0,0,0-2.224-2.224,6.85,6.85,0,0,0-3.371-.8H81.837Zm1.677-1.54v-9.667h2.515a4.839,4.839,0,0,1,2.438.59,4.085,4.085,0,0,1,1.608,1.668,5.4,5.4,0,0,1,.573,2.566,5.528,5.528,0,0,1-.565,2.567,4.006,4.006,0,0,1-1.6,1.685,4.875,4.875,0,0,1-2.455.59ZM98.571.205a4.475,4.475,0,0,0,2.464-.667,3.762,3.762,0,0,0,1.471-1.625l-1.335-.684a3.369,3.369,0,0,1-1.027,1.1,2.717,2.717,0,0,1-1.557.428A2.993,2.993,0,0,1,97.159-1.6a2.877,2.877,0,0,1-1.078-1,3,3,0,0,1-.453-1.54h7.049A4.72,4.72,0,0,0,102.763-5a4.69,4.69,0,0,0-.513-2.156,4.225,4.225,0,0,0-1.48-1.643,4.169,4.169,0,0,0-2.336-.633,4.313,4.313,0,0,0-2.293.616,4.425,4.425,0,0,0-1.6,1.7,5.1,5.1,0,0,0-.59,2.472,5.085,5.085,0,0,0,.6,2.481A4.516,4.516,0,0,0,96.192-.428,4.494,4.494,0,0,0,98.571.205Zm-.137-8.213a2.641,2.641,0,0,1,1.283.317,2.536,2.536,0,0,1,.941.881,2.481,2.481,0,0,1,.376,1.3H95.662A2.845,2.845,0,0,1,96.62-7.34,2.723,2.723,0,0,1,98.434-8.007ZM107.058,0h1.506l3.627-9.222h-1.779l-2.6,6.981-2.584-6.981h-1.779Zm6.553-10.694H115.2v-2.053h-1.591Zm0,10.694H115.2V-9.222h-1.591Zm8.333.205a4.457,4.457,0,0,0,1.7-.325,4.276,4.276,0,0,0,1.377-.89,3.766,3.766,0,0,0,.873-1.266l-1.42-.719a2.761,2.761,0,0,1-.984,1.206,2.663,2.663,0,0,1-1.548.453,2.772,2.772,0,0,1-1.514-.428,3.035,3.035,0,0,1-1.069-1.172,3.513,3.513,0,0,1-.394-1.668A3.536,3.536,0,0,1,119.36-6.3,3.051,3.051,0,0,1,120.43-7.46a2.772,2.772,0,0,1,1.514-.428,2.674,2.674,0,0,1,1.54.453,2.78,2.78,0,0,1,.992,1.172l1.42-.684a3.669,3.669,0,0,0-.881-1.283,4.282,4.282,0,0,0-1.377-.881,4.5,4.5,0,0,0-1.694-.317,4.62,4.62,0,0,0-2.4.625,4.45,4.45,0,0,0-1.651,1.711,5.036,5.036,0,0,0-.6,2.472,5.05,5.05,0,0,0,.6,2.464A4.5,4.5,0,0,0,119.54-.428,4.571,4.571,0,0,0,121.944.205Zm10.283,0a4.475,4.475,0,0,0,2.464-.667,3.762,3.762,0,0,0,1.471-1.625l-1.335-.684a3.37,3.37,0,0,1-1.027,1.1,2.717,2.717,0,0,1-1.557.428,2.993,2.993,0,0,1-1.429-.351,2.877,2.877,0,0,1-1.078-1,3,3,0,0,1-.453-1.54h7.049A4.721,4.721,0,0,0,136.419-5a4.69,4.69,0,0,0-.513-2.156,4.225,4.225,0,0,0-1.48-1.643,4.169,4.169,0,0,0-2.336-.633,4.313,4.313,0,0,0-2.293.616,4.425,4.425,0,0,0-1.6,1.7,5.1,5.1,0,0,0-.59,2.472,5.085,5.085,0,0,0,.6,2.481,4.516,4.516,0,0,0,1.643,1.728A4.494,4.494,0,0,0,132.227.205Zm-.137-8.213a2.641,2.641,0,0,1,1.283.317,2.536,2.536,0,0,1,.941.881,2.481,2.481,0,0,1,.376,1.3h-5.373a2.845,2.845,0,0,1,.958-1.831A2.722,2.722,0,0,1,132.09-8.007Zm9.7,8.213a4.18,4.18,0,0,0,1.745-.342,2.846,2.846,0,0,0,1.181-.95,2.361,2.361,0,0,0,.428-1.394,2.334,2.334,0,0,0-.633-1.643,3.746,3.746,0,0,0-1.745-1.009l-1.506-.445a5.37,5.37,0,0,1-.565-.214,1.337,1.337,0,0,1-.5-.376A.973.973,0,0,1,140-6.81a1.1,1.1,0,0,1,.419-.89,1.691,1.691,0,0,1,1.1-.342,2.419,2.419,0,0,1,1.377.419,2.544,2.544,0,0,1,.932,1.138l1.3-.6a3.374,3.374,0,0,0-1.377-1.728,3.973,3.973,0,0,0-2.182-.616,3.791,3.791,0,0,0-1.634.342,2.814,2.814,0,0,0-1.146.95,2.453,2.453,0,0,0-.419,1.429,2.348,2.348,0,0,0,.573,1.566,3.551,3.551,0,0,0,1.822,1.018l1.386.394a3.238,3.238,0,0,1,.607.214,1.722,1.722,0,0,1,.548.394.928.928,0,0,1,.231.659,1.11,1.11,0,0,1-.5.941,2.075,2.075,0,0,1-1.249.359,2.628,2.628,0,0,1-1.523-.471,3.191,3.191,0,0,1-1.078-1.309l-1.266.616a3.7,3.7,0,0,0,1.454,1.848A4.247,4.247,0,0,0,141.792.205Z" transform="translate(101.19 472.68)" fill="#666"/>
      <path id="Path_722" data-name="Path 722" d="M1.42,0H3.1V-9.547L9.8,0h1.4V-12.747H9.513v9.411l-6.69-9.411H1.42ZM18.239.205a4.709,4.709,0,0,0,2.378-.616,4.626,4.626,0,0,0,1.72-1.711,4.848,4.848,0,0,0,.642-2.5,4.871,4.871,0,0,0-.625-2.472,4.581,4.581,0,0,0-1.7-1.711,4.724,4.724,0,0,0-2.413-.625,4.757,4.757,0,0,0-2.43.625,4.581,4.581,0,0,0-1.7,1.711,4.871,4.871,0,0,0-.625,2.472,4.866,4.866,0,0,0,.633,2.481,4.627,4.627,0,0,0,1.711,1.72A4.724,4.724,0,0,0,18.239.205Zm0-1.54a2.92,2.92,0,0,1-1.566-.428,3.119,3.119,0,0,1-1.1-1.172,3.43,3.43,0,0,1-.411-1.685A3.382,3.382,0,0,1,15.57-6.3a3.137,3.137,0,0,1,1.1-1.163,2.92,2.92,0,0,1,1.566-.428,2.889,2.889,0,0,1,1.548.428,3.071,3.071,0,0,1,1.1,1.163,3.439,3.439,0,0,1,.4,1.677,3.489,3.489,0,0,1-.4,1.685,3.054,3.054,0,0,1-1.1,1.172A2.889,2.889,0,0,1,18.239-1.335ZM28.455.1q.188,0,.462-.026a3.789,3.789,0,0,0,.5-.077V-1.4l-.325.034q-.171.017-.308.017a1.475,1.475,0,0,1-1.189-.419,1.69,1.69,0,0,1-.351-1.121V-7.7h2.07V-9.222H27.24v-2.122H25.649v.753a1.371,1.371,0,0,1-.359,1,1.3,1.3,0,0,1-.975.368h-.342V-7.7h1.677V-2.84a3.042,3.042,0,0,0,.727,2.173A2.722,2.722,0,0,0,28.455.1Zm3.028-10.8h1.591v-2.053H31.484ZM31.484,0h1.591V-9.222H31.484Zm5.03,0h1.608V-7.7h2.19V-9.222h-2.19v-.65a1.453,1.453,0,0,1,.5-1.258,2.138,2.138,0,0,1,1.292-.368q.1,0,.3.009a1.413,1.413,0,0,1,.317.043v-1.42a3.709,3.709,0,0,0-.385-.06,3.827,3.827,0,0,0-.419-.026,3.6,3.6,0,0,0-1.617.359,2.855,2.855,0,0,0-1.163,1.044,3.057,3.057,0,0,0-.436,1.677v.65H34.752V-7.7h1.762Zm6.314,3.764A3.124,3.124,0,0,0,44.376,3.4a3.474,3.474,0,0,0,1.1-.967A5.794,5.794,0,0,0,46.215,1.1L50.373-9.222H48.611l-2.789,7.2-2.806-7.2H41.288L44.949.017l-.274.667a3.4,3.4,0,0,1-.8,1.215,1.832,1.832,0,0,1-1.223.359,3.708,3.708,0,0,1-.556-.043q-.282-.043-.471-.077v1.42a2.2,2.2,0,0,0,.582.163A4.472,4.472,0,0,0,42.827,3.764ZM54.941,0h5.373a4.454,4.454,0,0,0,3.08-1.009,3.528,3.528,0,0,0,1.129-2.772,3.527,3.527,0,0,0-.453-1.762,3.481,3.481,0,0,0-1.36-1.317,2.93,2.93,0,0,0,1.3-2.549,3.118,3.118,0,0,0-1-2.43,3.887,3.887,0,0,0-2.712-.907H54.941Zm1.677-7.511v-3.713h3.644a2.249,2.249,0,0,1,1.489.471,1.63,1.63,0,0,1,.565,1.326,1.821,1.821,0,0,1-.565,1.377,2.066,2.066,0,0,1-1.489.539Zm0,5.971V-6.006h3.764a2.52,2.52,0,0,1,1.779.616,2.107,2.107,0,0,1,.667,1.625,2.074,2.074,0,0,1-.667,1.625,2.564,2.564,0,0,1-1.779.6ZM70.837.205A4.475,4.475,0,0,0,73.3-.462a3.762,3.762,0,0,0,1.471-1.625l-1.335-.684a3.369,3.369,0,0,1-1.027,1.1,2.717,2.717,0,0,1-1.557.428A2.993,2.993,0,0,1,69.425-1.6a2.877,2.877,0,0,1-1.078-1,3,3,0,0,1-.453-1.54h7.049A4.72,4.72,0,0,0,75.028-5a4.69,4.69,0,0,0-.513-2.156,4.225,4.225,0,0,0-1.48-1.643A4.169,4.169,0,0,0,70.7-9.428a4.313,4.313,0,0,0-2.293.616,4.425,4.425,0,0,0-1.6,1.7,5.1,5.1,0,0,0-.59,2.472,5.085,5.085,0,0,0,.6,2.481A4.516,4.516,0,0,0,68.458-.428,4.494,4.494,0,0,0,70.837.205ZM70.7-8.007a2.641,2.641,0,0,1,1.283.317,2.536,2.536,0,0,1,.941.881,2.481,2.481,0,0,1,.376,1.3H67.928a2.845,2.845,0,0,1,.958-1.831A2.723,2.723,0,0,1,70.7-8.007ZM78.074,0h1.608V-7.7h2.19V-9.222h-2.19v-.65a1.453,1.453,0,0,1,.5-1.258,2.138,2.138,0,0,1,1.292-.368q.1,0,.3.009a1.413,1.413,0,0,1,.317.043v-1.42a3.71,3.71,0,0,0-.385-.06,3.827,3.827,0,0,0-.419-.026,3.6,3.6,0,0,0-1.617.359,2.855,2.855,0,0,0-1.163,1.044,3.057,3.057,0,0,0-.436,1.677v.65H76.312V-7.7h1.762ZM87.5.205a4.709,4.709,0,0,0,2.378-.616A4.626,4.626,0,0,0,91.6-2.122a4.848,4.848,0,0,0,.642-2.5,4.871,4.871,0,0,0-.625-2.472,4.581,4.581,0,0,0-1.7-1.711A4.724,4.724,0,0,0,87.5-9.428a4.757,4.757,0,0,0-2.43.625,4.581,4.581,0,0,0-1.7,1.711,4.871,4.871,0,0,0-.625,2.472,4.866,4.866,0,0,0,.633,2.481,4.627,4.627,0,0,0,1.711,1.72A4.724,4.724,0,0,0,87.5.205Zm0-1.54a2.92,2.92,0,0,1-1.566-.428,3.119,3.119,0,0,1-1.1-1.172,3.43,3.43,0,0,1-.411-1.685A3.382,3.382,0,0,1,84.835-6.3a3.137,3.137,0,0,1,1.1-1.163A2.92,2.92,0,0,1,87.5-7.888a2.889,2.889,0,0,1,1.548.428,3.071,3.071,0,0,1,1.1,1.163,3.439,3.439,0,0,1,.4,1.677,3.489,3.489,0,0,1-.4,1.685,3.054,3.054,0,0,1-1.1,1.172A2.889,2.889,0,0,1,87.5-1.335ZM94.314,0H95.9V-5.492a2.345,2.345,0,0,1,.6-1.72,2.112,2.112,0,0,1,1.574-.607h.8V-9.325h-.565a3.336,3.336,0,0,0-1.471.3,2.28,2.28,0,0,0-.975.9v-1.1H94.314Zm10.232.205a4.475,4.475,0,0,0,2.464-.667,3.762,3.762,0,0,0,1.471-1.625l-1.335-.684a3.369,3.369,0,0,1-1.027,1.1,2.717,2.717,0,0,1-1.557.428,2.993,2.993,0,0,1-1.429-.351,2.877,2.877,0,0,1-1.078-1,3,3,0,0,1-.453-1.54h7.049A4.72,4.72,0,0,0,108.737-5a4.69,4.69,0,0,0-.513-2.156,4.225,4.225,0,0,0-1.48-1.643,4.169,4.169,0,0,0-2.336-.633,4.313,4.313,0,0,0-2.293.616,4.425,4.425,0,0,0-1.6,1.7,5.1,5.1,0,0,0-.59,2.472,5.085,5.085,0,0,0,.6,2.481,4.516,4.516,0,0,0,1.643,1.728A4.494,4.494,0,0,0,104.545.205Zm-.137-8.213a2.641,2.641,0,0,1,1.283.317,2.536,2.536,0,0,1,.941.881,2.481,2.481,0,0,1,.376,1.3h-5.373a2.845,2.845,0,0,1,.958-1.831A2.723,2.723,0,0,1,104.409-8.007ZM113.956,0h8.3V-1.54h-6.622V-5.629h6.279v-1.54h-6.279v-4.038h6.622v-1.54h-8.3Zm9.137,0h1.951l2.241-3.3L129.526,0h1.916l-3.2-4.62,3.217-4.6h-1.933l-2.241,3.285-2.259-3.285H123.11l3.217,4.6Zm9.787,3.422h1.591V-1.283a3.482,3.482,0,0,0,1.36,1.1,4.277,4.277,0,0,0,1.822.385,4.418,4.418,0,0,0,2.353-.633,4.554,4.554,0,0,0,1.634-1.72,5,5,0,0,0,.6-2.455,5.036,5.036,0,0,0-.6-2.472,4.576,4.576,0,0,0-1.625-1.72,4.374,4.374,0,0,0-2.344-.633,4.242,4.242,0,0,0-1.874.4,3.7,3.7,0,0,0-1.36,1.1v-1.3H132.88Zm4.654-4.757a2.932,2.932,0,0,1-1.557-.428,3.033,3.033,0,0,1-1.1-1.172,3.453,3.453,0,0,1-.4-1.668,3.439,3.439,0,0,1,.4-1.677,3.114,3.114,0,0,1,1.1-1.172,2.889,2.889,0,0,1,1.557-.436,2.833,2.833,0,0,1,1.548.428,3.035,3.035,0,0,1,1.069,1.172,3.55,3.55,0,0,1,.394,1.685,3.513,3.513,0,0,1-.394,1.668,3.035,3.035,0,0,1-1.069,1.172A2.833,2.833,0,0,1,137.533-1.335Zm6.793-9.359h1.591v-2.053h-1.591Zm0,10.694h1.591V-9.222h-1.591Zm4.055,0h1.591V-5.492a2.345,2.345,0,0,1,.6-1.72,2.112,2.112,0,0,1,1.574-.607h.8V-9.325h-.565a3.336,3.336,0,0,0-1.471.3,2.28,2.28,0,0,0-.975.9v-1.1h-1.557Zm8.692.205a4.148,4.148,0,0,0,1.814-.385,3.586,3.586,0,0,0,1.3-1.018V0h1.557V-6.262a3,3,0,0,0-.453-1.651,3.1,3.1,0,0,0-1.258-1.112,4.119,4.119,0,0,0-1.865-.4,4.33,4.33,0,0,0-1.574.291,4.258,4.258,0,0,0-1.317.8,3.069,3.069,0,0,0-.821,1.138l1.386.719a2.507,2.507,0,0,1,.89-1.061,2.42,2.42,0,0,1,1.4-.411,2.188,2.188,0,0,1,1.463.471,1.527,1.527,0,0,1,.556,1.223v.428L157-5.321a3.9,3.9,0,0,0-2.284,1.035,2.647,2.647,0,0,0-.727,1.874,2.355,2.355,0,0,0,.864,1.891A3.323,3.323,0,0,0,157.073.205Zm-1.4-2.669a1.387,1.387,0,0,1,.4-1.009,2.33,2.33,0,0,1,1.292-.565l2.789-.462v.582a2.792,2.792,0,0,1-.359,1.4,2.619,2.619,0,0,1-1.009,1,3.041,3.041,0,0,1-1.523.368,1.721,1.721,0,0,1-1.138-.376A1.174,1.174,0,0,1,155.67-2.464ZM167.614.1q.188,0,.462-.026a3.789,3.789,0,0,0,.5-.077V-1.4l-.325.034q-.171.017-.308.017a1.475,1.475,0,0,1-1.189-.419,1.69,1.69,0,0,1-.351-1.121V-7.7h2.07V-9.222H166.4v-2.122h-1.591v.753a1.371,1.371,0,0,1-.359,1,1.3,1.3,0,0,1-.975.368h-.342V-7.7h1.677V-2.84a3.042,3.042,0,0,0,.727,2.173A2.722,2.722,0,0,0,167.614.1Zm3.028-10.8h1.591v-2.053h-1.591Zm0,10.694h1.591V-9.222h-1.591Zm8.435.205a4.709,4.709,0,0,0,2.378-.616,4.626,4.626,0,0,0,1.72-1.711,4.848,4.848,0,0,0,.642-2.5,4.871,4.871,0,0,0-.625-2.472,4.581,4.581,0,0,0-1.7-1.711,4.724,4.724,0,0,0-2.413-.625,4.757,4.757,0,0,0-2.43.625,4.581,4.581,0,0,0-1.7,1.711,4.871,4.871,0,0,0-.625,2.472,4.866,4.866,0,0,0,.633,2.481,4.627,4.627,0,0,0,1.711,1.72A4.724,4.724,0,0,0,179.078.205Zm0-1.54a2.92,2.92,0,0,1-1.566-.428,3.119,3.119,0,0,1-1.1-1.172A3.43,3.43,0,0,1,176-4.62a3.382,3.382,0,0,1,.411-1.677,3.137,3.137,0,0,1,1.1-1.163,2.92,2.92,0,0,1,1.566-.428,2.889,2.889,0,0,1,1.548.428,3.071,3.071,0,0,1,1.1,1.163,3.439,3.439,0,0,1,.4,1.677,3.488,3.488,0,0,1-.4,1.685,3.054,3.054,0,0,1-1.1,1.172A2.889,2.889,0,0,1,179.078-1.335ZM185.887,0h1.591V-5.458a2.442,2.442,0,0,1,.633-1.779,2.149,2.149,0,0,1,1.608-.65,2.108,2.108,0,0,1,1.591.642,2.476,2.476,0,0,1,.616,1.788V0h1.608V-5.971a3.453,3.453,0,0,0-.453-1.771,3.358,3.358,0,0,0-1.232-1.232,3.453,3.453,0,0,0-1.771-.453,3.327,3.327,0,0,0-1.54.351,2.806,2.806,0,0,0-1.1.984V-9.222h-1.557Z" transform="translate(53.32 527.68)" fill="#666"/>
      <path id="Path_721" data-name="Path 721" d="M1.408,0h2.66V-9.526L10.993,0h2.093V-14.572h-2.66v9.35l-6.944-9.35H1.408ZM20.734.235A5.425,5.425,0,0,0,23.58-.5a4.049,4.049,0,0,0,1.712-1.868L23.218-3.384a2.807,2.807,0,0,1-.968.988,2.789,2.789,0,0,1-1.5.381,2.788,2.788,0,0,1-1.936-.7,2.8,2.8,0,0,1-.9-1.878h7.668a2.093,2.093,0,0,0,.108-.5,5.6,5.6,0,0,0,.029-.577,5.582,5.582,0,0,0-.606-2.6,4.754,4.754,0,0,0-1.76-1.888,5.254,5.254,0,0,0-2.817-.714,5.116,5.116,0,0,0-2.689.724,5.232,5.232,0,0,0-1.9,1.966,5.733,5.733,0,0,0-.694,2.846,5.845,5.845,0,0,0,.685,2.817A5.177,5.177,0,0,0,17.858-.509,5.458,5.458,0,0,0,20.734.235Zm-.2-9a2.414,2.414,0,0,1,1.692.616,2.325,2.325,0,0,1,.753,1.594H17.976a2.756,2.756,0,0,1,.91-1.633A2.5,2.5,0,0,1,20.538-8.763ZM32.509.117a5.881,5.881,0,0,0,.645-.039Q33.506.039,33.78,0V-2.191a4.413,4.413,0,0,1-.685.059,1.874,1.874,0,0,1-1.369-.43,1.668,1.668,0,0,1-.43-1.232V-8.352h2.445v-2.289H31.3v-2.425H28.734v.822a1.573,1.573,0,0,1-.43,1.193,1.686,1.686,0,0,1-1.213.411h-.2v2.289h1.839v4.694A3.776,3.776,0,0,0,29.721-.88,3.748,3.748,0,0,0,32.509.117ZM38.416,0h2.269l2.5-7.179L45.653,0h2.289L51.6-10.641H48.9l-2.23,6.69-2.347-6.69H42.054L39.687-3.932l-2.23-6.709h-2.7ZM57.825.235a5.653,5.653,0,0,0,2.817-.714,5.474,5.474,0,0,0,2.034-1.976,5.428,5.428,0,0,0,.763-2.866,5.431,5.431,0,0,0-.753-2.856,5.5,5.5,0,0,0-2.024-1.976,5.631,5.631,0,0,0-2.836-.724,5.67,5.67,0,0,0-2.856.724,5.5,5.5,0,0,0-2.024,1.976,5.431,5.431,0,0,0-.753,2.856,5.431,5.431,0,0,0,.753,2.856A5.477,5.477,0,0,0,54.979-.489,5.685,5.685,0,0,0,57.825.235Zm0-2.347a2.894,2.894,0,0,1-1.535-.411,2.844,2.844,0,0,1-1.056-1.144,3.529,3.529,0,0,1-.381-1.653,3.47,3.47,0,0,1,.381-1.643A2.931,2.931,0,0,1,56.29-8.108a2.843,2.843,0,0,1,1.535-.421,2.745,2.745,0,0,1,1.516.421,2.983,2.983,0,0,1,1.037,1.144,3.47,3.47,0,0,1,.381,1.643,3.529,3.529,0,0,1-.381,1.653,2.892,2.892,0,0,1-1.037,1.144A2.794,2.794,0,0,1,57.825-2.112ZM65.375,0h2.562V-5.927a2.552,2.552,0,0,1,.675-1.888,2.368,2.368,0,0,1,1.751-.675h.919v-2.269h-.626a3.979,3.979,0,0,0-1.721.352,2.421,2.421,0,0,0-1.154,1.271v-1.506H65.375Zm7.315,0h2.562V-3.247l1.369-1.487L79.615,0h2.934l-4.01-6.357,3.932-4.284H79.282L75.253-6.416v-8.391H72.691Z" transform="translate(268.15 123.89)" fill="#333"/>
      <rect id="Rectangle_30" data-name="Rectangle 30" width="400.9" height="44.01" rx="8" transform="translate(264.48 139.22)" fill="#f4f6fa"/>
      <rect id="Rectangle_31" data-name="Rectangle 31" width="400.9" height="44.01" rx="8" transform="translate(264.48 263.23)" fill="#f4f6fa"/>
      <rect id="Rectangle_32" data-name="Rectangle 32" width="400.9" height="44.01" rx="8" transform="translate(264.48 321.5)" fill="#f4f6fa"/>
      <rect id="Rectangle_33" data-name="Rectangle 33" width="400.9" height="44.01" rx="8" transform="translate(264.48 437.98)" fill="#f4f6fa"/>
      <g id="Group_1" data-name="Group 1" opacity="0.6">
        <rect id="Rectangle_34" data-name="Rectangle 34" width="400.9" height="44.01" rx="8" transform="translate(264.48 497.33)" fill="#f4f6fa"/>
      </g>
      <path id="Path_720" data-name="Path 720" d="M1.408,0h9.682V-2.347H4.068V-6.142H10.7V-8.489H4.068v-3.736h7.022v-2.347H1.408ZM12.831,0h2.562V-6.24a2.31,2.31,0,0,1,.6-1.663,2.051,2.051,0,0,1,1.555-.626,2.067,2.067,0,0,1,1.555.616,2.3,2.3,0,0,1,.6,1.672V0h2.562V-6.846a4.236,4.236,0,0,0-.509-2.1,3.617,3.617,0,0,0-1.418-1.418,4.2,4.2,0,0,0-2.083-.509,3.988,3.988,0,0,0-1.79.391A2.79,2.79,0,0,0,15.237-9.33v-1.311H12.831ZM29.555.235a5.567,5.567,0,0,0,2.132-.4,4.991,4.991,0,0,0,1.682-1.115,4.284,4.284,0,0,0,1.017-1.614L32.137-3.912a2.746,2.746,0,0,1-.988,1.32,2.682,2.682,0,0,1-1.594.479,2.758,2.758,0,0,1-1.5-.411,2.823,2.823,0,0,1-1.027-1.144A3.605,3.605,0,0,1,26.66-5.32a3.589,3.589,0,0,1,.372-1.663,2.838,2.838,0,0,1,1.027-1.134,2.758,2.758,0,0,1,1.5-.411,2.644,2.644,0,0,1,1.594.489,2.826,2.826,0,0,1,.988,1.291l2.249-.978A4.436,4.436,0,0,0,33.35-9.379a4.873,4.873,0,0,0-1.682-1.105,5.635,5.635,0,0,0-2.112-.391,5.616,5.616,0,0,0-2.846.724,5.3,5.3,0,0,0-1.985,1.976A5.563,5.563,0,0,0,24-5.34a5.616,5.616,0,0,0,.724,2.846,5.349,5.349,0,0,0,1.985,2A5.557,5.557,0,0,0,29.555.235ZM36.323,0h2.562V-5.927a2.552,2.552,0,0,1,.675-1.888,2.368,2.368,0,0,1,1.751-.675h.919v-2.269H41.6a3.979,3.979,0,0,0-1.721.352,2.421,2.421,0,0,0-1.154,1.271v-1.506H36.323Zm8.606,4.323a3.761,3.761,0,0,0,2.513-.851,5.861,5.861,0,0,0,1.614-2.4l4.636-11.716H50.915L48.176-3.306l-2.758-7.335H42.66L46.866,0l-.235.567a3.907,3.907,0,0,1-.714,1.076,1.728,1.728,0,0,1-1.281.411A4.845,4.845,0,0,1,43.971,2a4.593,4.593,0,0,1-.626-.127V4.029a2.831,2.831,0,0,0,.743.225A5.108,5.108,0,0,0,44.929,4.323ZM55.1,3.912h2.562V-1.017a3.9,3.9,0,0,0,1.428.929A5.035,5.035,0,0,0,60.91.235,5.223,5.223,0,0,0,63.668-.5a5.316,5.316,0,0,0,1.917-2,5.7,5.7,0,0,0,.7-2.826,5.7,5.7,0,0,0-.7-2.826,5.316,5.316,0,0,0-1.917-2,5.187,5.187,0,0,0-2.738-.734,4.813,4.813,0,0,0-1.976.391,3.812,3.812,0,0,0-1.447,1.1v-1.252H55.1Zm5.516-6.024A2.858,2.858,0,0,1,59.1-2.523a2.86,2.86,0,0,1-1.056-1.134,3.513,3.513,0,0,1-.381-1.663,3.513,3.513,0,0,1,.381-1.663A2.86,2.86,0,0,1,59.1-8.117a2.858,2.858,0,0,1,1.516-.411,2.879,2.879,0,0,1,1.555.421,3,3,0,0,1,1.066,1.144,3.4,3.4,0,0,1,.391,1.643,3.457,3.457,0,0,1-.391,1.653,2.913,2.913,0,0,1-1.066,1.144A2.931,2.931,0,0,1,60.616-2.112ZM72.71.117a5.881,5.881,0,0,0,.645-.039q.352-.039.626-.078V-2.191a4.413,4.413,0,0,1-.685.059,1.874,1.874,0,0,1-1.369-.43,1.668,1.668,0,0,1-.43-1.232V-8.352h2.445v-2.289H71.5v-2.425H68.935v.822a1.573,1.573,0,0,1-.43,1.193,1.686,1.686,0,0,1-1.213.411h-.2v2.289h1.839v4.694A3.776,3.776,0,0,0,69.923-.88,3.748,3.748,0,0,0,72.71.117Zm3.227-11.951H78.5v-2.738H75.938ZM75.938,0H78.5V-10.641H75.938ZM86.07.235a5.653,5.653,0,0,0,2.817-.714A5.474,5.474,0,0,0,90.92-2.455a5.428,5.428,0,0,0,.763-2.866,5.431,5.431,0,0,0-.753-2.856,5.5,5.5,0,0,0-2.024-1.976,5.631,5.631,0,0,0-2.836-.724,5.67,5.67,0,0,0-2.856.724,5.5,5.5,0,0,0-2.024,1.976,5.431,5.431,0,0,0-.753,2.856,5.431,5.431,0,0,0,.753,2.856A5.477,5.477,0,0,0,83.224-.489,5.685,5.685,0,0,0,86.07.235Zm0-2.347a2.894,2.894,0,0,1-1.535-.411,2.844,2.844,0,0,1-1.056-1.144A3.529,3.529,0,0,1,83.1-5.32a3.47,3.47,0,0,1,.381-1.643,2.931,2.931,0,0,1,1.056-1.144,2.843,2.843,0,0,1,1.535-.421,2.745,2.745,0,0,1,1.516.421,2.983,2.983,0,0,1,1.037,1.144A3.47,3.47,0,0,1,89-5.32a3.529,3.529,0,0,1-.381,1.653,2.892,2.892,0,0,1-1.037,1.144A2.794,2.794,0,0,1,86.07-2.112ZM93.62,0h2.562V-6.24a2.31,2.31,0,0,1,.6-1.663,2.051,2.051,0,0,1,1.555-.626,2.067,2.067,0,0,1,1.555.616,2.3,2.3,0,0,1,.6,1.672V0h2.562V-6.846a4.236,4.236,0,0,0-.509-2.1,3.617,3.617,0,0,0-1.418-1.418,4.2,4.2,0,0,0-2.083-.509,3.988,3.988,0,0,0-1.79.391A2.79,2.79,0,0,0,96.026-9.33v-1.311H93.62Zm15.3,0h2.66V-4.088l1.956-2.328L117.444,0h3.13l-5.223-8.587,5.046-5.985h-3.345L111.576-8.1v-6.474h-2.66Zm17.331.235A5.425,5.425,0,0,0,129.093-.5,4.049,4.049,0,0,0,130.8-2.367l-2.073-1.017a2.808,2.808,0,0,1-.968.988,2.789,2.789,0,0,1-1.5.381,2.788,2.788,0,0,1-1.936-.7,2.8,2.8,0,0,1-.9-1.878H131.1a2.093,2.093,0,0,0,.108-.5,5.608,5.608,0,0,0,.029-.577,5.582,5.582,0,0,0-.606-2.6,4.754,4.754,0,0,0-1.76-1.888,5.254,5.254,0,0,0-2.817-.714,5.116,5.116,0,0,0-2.689.724,5.232,5.232,0,0,0-1.9,1.966,5.733,5.733,0,0,0-.694,2.846,5.845,5.845,0,0,0,.685,2.817,5.177,5.177,0,0,0,1.917,2.015A5.458,5.458,0,0,0,126.247.235Zm-.2-9a2.414,2.414,0,0,1,1.692.616,2.325,2.325,0,0,1,.753,1.594h-5.007a2.756,2.756,0,0,1,.91-1.633A2.5,2.5,0,0,1,126.051-8.763Zm8.411,13.086a3.761,3.761,0,0,0,2.513-.851,5.861,5.861,0,0,0,1.614-2.4l4.636-11.716h-2.778l-2.738,7.335-2.758-7.335h-2.758L136.4,0l-.235.567a3.907,3.907,0,0,1-.714,1.076,1.728,1.728,0,0,1-1.281.411A4.845,4.845,0,0,1,133.5,2a4.593,4.593,0,0,1-.626-.127V4.029a2.831,2.831,0,0,0,.743.225A5.108,5.108,0,0,0,134.462,4.323Z" transform="translate(267.38 246.35)" fill="#333"/>
      <path id="Path_719" data-name="Path 719" d="M7.022.235A6.166,6.166,0,0,0,10-.469a5.265,5.265,0,0,0,2.044-1.936,5.309,5.309,0,0,0,.743-2.8v-9.369h-2.66V-5.34a3.278,3.278,0,0,1-.4,1.633,2.9,2.9,0,0,1-1.1,1.115,3.169,3.169,0,0,1-1.614.4,3.184,3.184,0,0,1-1.6-.4A2.883,2.883,0,0,1,4.313-3.707a3.278,3.278,0,0,1-.4-1.633v-9.232H1.252V-5.2A5.309,5.309,0,0,0,2-2.406,5.265,5.265,0,0,0,4.039-.469,6.166,6.166,0,0,0,7.022.235Zm12.264,0A5.046,5.046,0,0,0,21.4-.176,3.371,3.371,0,0,0,22.807-1.32a2.9,2.9,0,0,0,.509-1.692,2.808,2.808,0,0,0-.7-1.917A4.09,4.09,0,0,0,20.577-6.1l-1.7-.509a2.882,2.882,0,0,1-.9-.411.82.82,0,0,1-.352-.7A.927.927,0,0,1,18-8.489a1.6,1.6,0,0,1,1.017-.293,2.6,2.6,0,0,1,1.457.43,2.236,2.236,0,0,1,.91,1.154l1.956-.919a4.026,4.026,0,0,0-1.643-2.024,4.852,4.852,0,0,0-2.66-.734,4.828,4.828,0,0,0-2.044.411A3.312,3.312,0,0,0,15.6-9.32a2.97,2.97,0,0,0-.5,1.711,2.8,2.8,0,0,0,.694,1.9,4.151,4.151,0,0,0,2.044,1.193l1.741.489a2.614,2.614,0,0,1,.87.4.838.838,0,0,1,.362.714.97.97,0,0,1-.421.831,1.848,1.848,0,0,1-1.105.3,2.757,2.757,0,0,1-1.623-.509A3.546,3.546,0,0,1,16.509-3.7l-1.917.919A4.175,4.175,0,0,0,16.323-.587,5.308,5.308,0,0,0,19.286.235Zm11.051,0A5.425,5.425,0,0,0,33.184-.5,4.049,4.049,0,0,0,34.9-2.367L32.822-3.384a2.807,2.807,0,0,1-.968.988,2.789,2.789,0,0,1-1.5.381,2.788,2.788,0,0,1-1.936-.7,2.8,2.8,0,0,1-.9-1.878h7.668a2.093,2.093,0,0,0,.108-.5,5.605,5.605,0,0,0,.029-.577,5.582,5.582,0,0,0-.606-2.6,4.754,4.754,0,0,0-1.76-1.888,5.254,5.254,0,0,0-2.817-.714,5.116,5.116,0,0,0-2.69.724,5.232,5.232,0,0,0-1.9,1.966,5.733,5.733,0,0,0-.694,2.846,5.845,5.845,0,0,0,.685,2.817A5.177,5.177,0,0,0,27.462-.509,5.458,5.458,0,0,0,30.338.235Zm-.2-9a2.414,2.414,0,0,1,1.692.616,2.325,2.325,0,0,1,.753,1.594H27.58a2.756,2.756,0,0,1,.91-1.633A2.5,2.5,0,0,1,30.142-8.763ZM37.262,0h2.562V-5.927A2.552,2.552,0,0,1,40.5-7.814a2.368,2.368,0,0,1,1.751-.675h.919v-2.269h-.626a3.979,3.979,0,0,0-1.721.352,2.421,2.421,0,0,0-1.154,1.271v-1.506H37.262Zm14.9,0h3.051l5.066-14.572H57.389l-3.7,11.208L49.976-14.572H47.081ZM63.357.235a4.289,4.289,0,0,0,3.325-1.369V0h2.425V-7.081a3.508,3.508,0,0,0-.567-1.976,3.808,3.808,0,0,0-1.555-1.34,5.207,5.207,0,0,0-2.3-.479,5.378,5.378,0,0,0-2.856.763A3.959,3.959,0,0,0,60.11-8.1L62.2-7.081a2.573,2.573,0,0,1,.919-1.164,2.485,2.485,0,0,1,1.467-.44,2.108,2.108,0,0,1,1.418.46,1.445,1.445,0,0,1,.538,1.144v.352l-3.169.509A5.09,5.09,0,0,0,60.6-5.027a2.964,2.964,0,0,0-.9,2.21,2.736,2.736,0,0,0,1,2.23A4.054,4.054,0,0,0,63.357.235Zm-1-3.149q0-1.115,1.506-1.408l2.68-.45v.43a2.546,2.546,0,0,1-.753,1.858,2.64,2.64,0,0,1-1.966.763,1.659,1.659,0,0,1-1.056-.323A1.049,1.049,0,0,1,62.36-2.914ZM71.475,0h2.562V-14.807H71.475ZM76.4-11.834h2.562v-2.738H76.4ZM76.4,0h2.562V-10.641H76.4Zm9.878.235A4.993,4.993,0,0,0,88.2-.127a3.8,3.8,0,0,0,1.467-1.046V0h2.425V-14.807H89.529v5.242a4.2,4.2,0,0,0-3.267-1.311,5.2,5.2,0,0,0-2.729.734,5.292,5.292,0,0,0-1.927,2,5.7,5.7,0,0,0-.7,2.826,5.7,5.7,0,0,0,.7,2.826,5.316,5.316,0,0,0,1.917,2A5.223,5.223,0,0,0,86.282.235Zm.274-2.347a2.945,2.945,0,0,1-1.545-.411,2.823,2.823,0,0,1-1.066-1.144,3.529,3.529,0,0,1-.381-1.653,3.47,3.47,0,0,1,.381-1.643A2.907,2.907,0,0,1,85.01-8.108a2.892,2.892,0,0,1,1.545-.421,2.894,2.894,0,0,1,1.535.411,2.86,2.86,0,0,1,1.056,1.134,3.513,3.513,0,0,1,.381,1.663,3.513,3.513,0,0,1-.381,1.663,2.86,2.86,0,0,1-1.056,1.134A2.894,2.894,0,0,1,86.555-2.112ZM97.7.235a4.289,4.289,0,0,0,3.325-1.369V0h2.425V-7.081a3.508,3.508,0,0,0-.567-1.976,3.808,3.808,0,0,0-1.555-1.34,5.207,5.207,0,0,0-2.3-.479,5.378,5.378,0,0,0-2.856.763A3.959,3.959,0,0,0,94.458-8.1l2.093,1.017a2.573,2.573,0,0,1,.919-1.164,2.485,2.485,0,0,1,1.467-.44,2.108,2.108,0,0,1,1.418.46,1.445,1.445,0,0,1,.538,1.144v.352l-3.169.509a5.09,5.09,0,0,0-2.778,1.193,2.964,2.964,0,0,0-.9,2.21,2.736,2.736,0,0,0,1,2.23A4.054,4.054,0,0,0,97.7.235Zm-1-3.149q0-1.115,1.506-1.408l2.68-.45v.43a2.546,2.546,0,0,1-.753,1.858,2.64,2.64,0,0,1-1.966.763,1.659,1.659,0,0,1-1.056-.323A1.049,1.049,0,0,1,96.707-2.914ZM110.287.117a5.881,5.881,0,0,0,.645-.039q.352-.039.626-.078V-2.191a4.413,4.413,0,0,1-.685.059,1.874,1.874,0,0,1-1.369-.43,1.668,1.668,0,0,1-.43-1.232V-8.352h2.445v-2.289h-2.445v-2.425h-2.562v.822a1.573,1.573,0,0,1-.43,1.193,1.686,1.686,0,0,1-1.213.411h-.2v2.289h1.839v4.694A3.776,3.776,0,0,0,107.5-.88,3.748,3.748,0,0,0,110.287.117Zm3.227-11.951h2.562v-2.738h-2.562Zm0,11.834h2.562V-10.641h-2.562Zm10.132.235a5.653,5.653,0,0,0,2.817-.714A5.474,5.474,0,0,0,128.5-2.455a5.428,5.428,0,0,0,.763-2.866,5.431,5.431,0,0,0-.753-2.856,5.5,5.5,0,0,0-2.024-1.976,5.631,5.631,0,0,0-2.836-.724,5.67,5.67,0,0,0-2.856.724,5.5,5.5,0,0,0-2.024,1.976,5.431,5.431,0,0,0-.753,2.856,5.431,5.431,0,0,0,.753,2.856A5.477,5.477,0,0,0,120.8-.489,5.685,5.685,0,0,0,123.647.235Zm0-2.347a2.894,2.894,0,0,1-1.535-.411,2.844,2.844,0,0,1-1.056-1.144,3.529,3.529,0,0,1-.381-1.653,3.47,3.47,0,0,1,.381-1.643,2.931,2.931,0,0,1,1.056-1.144,2.843,2.843,0,0,1,1.535-.421,2.745,2.745,0,0,1,1.516.421A2.983,2.983,0,0,1,126.2-6.963a3.47,3.47,0,0,1,.381,1.643,3.529,3.529,0,0,1-.381,1.653,2.892,2.892,0,0,1-1.037,1.144A2.794,2.794,0,0,1,123.647-2.112ZM131.2,0h2.562V-6.24a2.31,2.31,0,0,1,.6-1.663,2.051,2.051,0,0,1,1.555-.626,2.067,2.067,0,0,1,1.555.616,2.3,2.3,0,0,1,.6,1.672V0h2.562V-6.846a4.236,4.236,0,0,0-.509-2.1,3.617,3.617,0,0,0-1.418-1.418,4.2,4.2,0,0,0-2.083-.509,3.988,3.988,0,0,0-1.79.391A2.789,2.789,0,0,0,133.6-9.33v-1.311H131.2Zm15.3,0h2.66V-5.379h2.5L154.669,0h3.012l-3.345-5.848a4.257,4.257,0,0,0,1.927-1.565,4.468,4.468,0,0,0,.714-2.562,4.582,4.582,0,0,0-.645-2.5,4.165,4.165,0,0,0-1.79-1.555,6.117,6.117,0,0,0-2.631-.538h-5.418Zm2.66-7.726v-4.5h2.8a2.412,2.412,0,0,1,1.721.606,2.146,2.146,0,0,1,.645,1.643,2.153,2.153,0,0,1-.645,1.633,2.389,2.389,0,0,1-1.721.616ZM163.087.235A5.425,5.425,0,0,0,165.932-.5a4.049,4.049,0,0,0,1.712-1.868l-2.073-1.017a2.808,2.808,0,0,1-.968.988,2.789,2.789,0,0,1-1.5.381,2.788,2.788,0,0,1-1.936-.7,2.8,2.8,0,0,1-.9-1.878h7.668a2.093,2.093,0,0,0,.108-.5,5.608,5.608,0,0,0,.029-.577,5.582,5.582,0,0,0-.606-2.6,4.754,4.754,0,0,0-1.76-1.888,5.254,5.254,0,0,0-2.817-.714,5.116,5.116,0,0,0-2.689.724,5.232,5.232,0,0,0-1.9,1.966,5.733,5.733,0,0,0-.694,2.846,5.845,5.845,0,0,0,.685,2.817,5.177,5.177,0,0,0,1.917,2.015A5.458,5.458,0,0,0,163.087.235Zm-.2-9a2.414,2.414,0,0,1,1.692.616,2.325,2.325,0,0,1,.753,1.594h-5.007a2.756,2.756,0,0,1,.91-1.633A2.5,2.5,0,0,1,162.891-8.763ZM178.206,3.912h2.562V-10.641h-2.425v1.232a3.74,3.74,0,0,0-1.438-1.086,4.85,4.85,0,0,0-1.966-.381,5.187,5.187,0,0,0-2.738.734,5.316,5.316,0,0,0-1.917,2,5.7,5.7,0,0,0-.7,2.826,5.7,5.7,0,0,0,.7,2.826,5.316,5.316,0,0,0,1.917,2,5.223,5.223,0,0,0,2.758.734,5.035,5.035,0,0,0,1.819-.323,3.9,3.9,0,0,0,1.428-.929Zm-2.973-6.024a2.945,2.945,0,0,1-1.545-.411,2.823,2.823,0,0,1-1.066-1.144,3.529,3.529,0,0,1-.381-1.653,3.47,3.47,0,0,1,.381-1.643,2.907,2.907,0,0,1,1.066-1.144,2.892,2.892,0,0,1,1.545-.421,2.894,2.894,0,0,1,1.535.411,2.86,2.86,0,0,1,1.056,1.134,3.513,3.513,0,0,1,.381,1.663,3.513,3.513,0,0,1-.381,1.663,2.86,2.86,0,0,1-1.056,1.134A2.894,2.894,0,0,1,175.233-2.112ZM186.95.235a3.948,3.948,0,0,0,1.77-.381,2.907,2.907,0,0,0,1.223-1.125V0h2.425V-10.641h-2.562V-4.4a2.281,2.281,0,0,1-.606,1.672,2.075,2.075,0,0,1-1.545.616,2.085,2.085,0,0,1-1.555-.606,2.214,2.214,0,0,1-.6-1.623v-6.3H182.94v6.513a4.587,4.587,0,0,0,1.066,3.159A3.73,3.73,0,0,0,186.95.235Zm7.8-12.069h2.562v-2.738h-2.562Zm0,11.834h2.562V-10.641h-2.562Zm4.929,0h2.562V-5.927a2.552,2.552,0,0,1,.675-1.888,2.368,2.368,0,0,1,1.751-.675h.919v-2.269h-.626a3.979,3.979,0,0,0-1.721.352,2.421,2.421,0,0,0-1.154,1.271v-1.506h-2.406Zm12.362.235A5.425,5.425,0,0,0,214.891-.5,4.049,4.049,0,0,0,216.6-2.367l-2.073-1.017a2.808,2.808,0,0,1-.968.988,2.789,2.789,0,0,1-1.5.381,2.788,2.788,0,0,1-1.936-.7,2.8,2.8,0,0,1-.9-1.878H216.9A2.093,2.093,0,0,0,217-5.1a5.608,5.608,0,0,0,.029-.577,5.582,5.582,0,0,0-.606-2.6,4.754,4.754,0,0,0-1.76-1.888,5.254,5.254,0,0,0-2.817-.714,5.116,5.116,0,0,0-2.689.724,5.232,5.232,0,0,0-1.9,1.966,5.733,5.733,0,0,0-.694,2.846,5.845,5.845,0,0,0,.685,2.817A5.177,5.177,0,0,0,209.17-.509,5.458,5.458,0,0,0,212.045.235Zm-.2-9a2.414,2.414,0,0,1,1.692.616,2.325,2.325,0,0,1,.753,1.594h-5.007a2.756,2.756,0,0,1,.91-1.633A2.5,2.5,0,0,1,211.85-8.763ZM218.969,0h2.562V-6.24A2.381,2.381,0,0,1,222.1-7.9a1.911,1.911,0,0,1,1.487-.626,1.919,1.919,0,0,1,1.5.616,2.4,2.4,0,0,1,.557,1.672V0H228.2V-6.24a2.381,2.381,0,0,1,.567-1.663,1.911,1.911,0,0,1,1.487-.626,1.919,1.919,0,0,1,1.5.616,2.4,2.4,0,0,1,.557,1.672V0h2.562V-6.846a4.172,4.172,0,0,0-.518-2.1,3.746,3.746,0,0,0-1.4-1.418,3.954,3.954,0,0,0-2.015-.509,4.165,4.165,0,0,0-1.907.43,3.535,3.535,0,0,0-1.4,1.291,3.407,3.407,0,0,0-1.34-1.252,4.033,4.033,0,0,0-1.946-.469,3.927,3.927,0,0,0-1.78.391,2.663,2.663,0,0,0-1.193,1.174v-1.33h-2.406Zm23.12.235A5.425,5.425,0,0,0,244.935-.5a4.049,4.049,0,0,0,1.712-1.868l-2.073-1.017a2.808,2.808,0,0,1-.968.988,2.789,2.789,0,0,1-1.5.381,2.788,2.788,0,0,1-1.936-.7,2.8,2.8,0,0,1-.9-1.878h7.668a2.093,2.093,0,0,0,.108-.5,5.608,5.608,0,0,0,.029-.577,5.582,5.582,0,0,0-.606-2.6,4.754,4.754,0,0,0-1.76-1.888,5.254,5.254,0,0,0-2.817-.714,5.116,5.116,0,0,0-2.689.724,5.232,5.232,0,0,0-1.9,1.966,5.733,5.733,0,0,0-.694,2.846,5.845,5.845,0,0,0,.685,2.817,5.177,5.177,0,0,0,1.917,2.015A5.458,5.458,0,0,0,242.089.235Zm-.2-9a2.414,2.414,0,0,1,1.692.616,2.325,2.325,0,0,1,.753,1.594h-5.007a2.756,2.756,0,0,1,.91-1.633A2.5,2.5,0,0,1,241.894-8.763ZM249.014,0h2.562V-6.24a2.31,2.31,0,0,1,.6-1.663,2.051,2.051,0,0,1,1.555-.626,2.067,2.067,0,0,1,1.555.616,2.3,2.3,0,0,1,.6,1.672V0h2.562V-6.846a4.236,4.236,0,0,0-.509-2.1,3.617,3.617,0,0,0-1.418-1.418,4.2,4.2,0,0,0-2.083-.509,3.988,3.988,0,0,0-1.79.391,2.789,2.789,0,0,0-1.222,1.154v-1.311h-2.406Zm16.45.117a5.881,5.881,0,0,0,.645-.039q.352-.039.626-.078V-2.191a4.413,4.413,0,0,1-.685.059,1.874,1.874,0,0,1-1.369-.43,1.668,1.668,0,0,1-.43-1.232V-8.352H266.7v-2.289h-2.445v-2.425h-2.562v.822a1.573,1.573,0,0,1-.43,1.193,1.686,1.686,0,0,1-1.213.411h-.2v2.289h1.839v4.694a3.776,3.776,0,0,0,.988,2.778A3.748,3.748,0,0,0,265.464.117Zm7.276.117a5.046,5.046,0,0,0,2.112-.411,3.371,3.371,0,0,0,1.408-1.144,2.9,2.9,0,0,0,.509-1.692,2.808,2.808,0,0,0-.7-1.917A4.09,4.09,0,0,0,274.031-6.1l-1.7-.509a2.881,2.881,0,0,1-.9-.411.82.82,0,0,1-.352-.7.927.927,0,0,1,.372-.763,1.6,1.6,0,0,1,1.017-.293,2.6,2.6,0,0,1,1.457.43,2.236,2.236,0,0,1,.91,1.154l1.956-.919a4.026,4.026,0,0,0-1.643-2.024,4.852,4.852,0,0,0-2.66-.734,4.828,4.828,0,0,0-2.044.411,3.312,3.312,0,0,0-1.389,1.144,2.97,2.97,0,0,0-.5,1.711,2.8,2.8,0,0,0,.694,1.9,4.152,4.152,0,0,0,2.044,1.193l1.741.489a2.614,2.614,0,0,1,.87.4.838.838,0,0,1,.362.714.97.97,0,0,1-.421.831,1.848,1.848,0,0,1-1.105.3,2.757,2.757,0,0,1-1.623-.509A3.546,3.546,0,0,1,269.962-3.7l-1.917.919a4.175,4.175,0,0,0,1.731,2.191A5.308,5.308,0,0,0,272.74.235Z" transform="translate(267.38 422.35)" fill="#333"/>
      <line id="Line_15" data-name="Line 15" x2="653.37" transform="translate(35.84 78.5)" fill="none" stroke="#e6e6e6" stroke-miterlimit="10" stroke-width="1"/>
      <path id="Path_718" data-name="Path 718" d="M7.306.205A6.154,6.154,0,0,0,9.547-.205a5.58,5.58,0,0,0,1.865-1.181,5.576,5.576,0,0,0,1.266-1.839,6,6,0,0,0,.462-2.4V-6.758H7.289V-5.3h4.158v.068a3.675,3.675,0,0,1-.556,2.019A3.911,3.911,0,0,1,9.4-1.848a4.392,4.392,0,0,1-2.1.5,4.45,4.45,0,0,1-2.37-.633A4.414,4.414,0,0,1,3.311-3.747a5.571,5.571,0,0,1-.59-2.618A5.678,5.678,0,0,1,3.3-9a4.355,4.355,0,0,1,1.617-1.762,4.45,4.45,0,0,1,2.37-.633,3.985,3.985,0,0,1,2.293.65,3.665,3.665,0,0,1,1.386,1.762l1.506-.736a4.409,4.409,0,0,0-1.035-1.574,5.677,5.677,0,0,0-1.779-1.2,5.837,5.837,0,0,0-2.37-.462,6.254,6.254,0,0,0-2.49.488,5.943,5.943,0,0,0-1.985,1.377A6.258,6.258,0,0,0,1.506-9a7.264,7.264,0,0,0-.462,2.635,7.166,7.166,0,0,0,.471,2.626A6.325,6.325,0,0,0,2.823-1.651,5.889,5.889,0,0,0,4.808-.282,6.316,6.316,0,0,0,7.306.205Zm10.608,0A4.148,4.148,0,0,0,19.728-.18a3.586,3.586,0,0,0,1.3-1.018V0h1.557V-6.262a3,3,0,0,0-.453-1.651,3.1,3.1,0,0,0-1.258-1.112,4.119,4.119,0,0,0-1.865-.4,4.33,4.33,0,0,0-1.574.291,4.258,4.258,0,0,0-1.317.8A3.069,3.069,0,0,0,15.3-7.2l1.386.719a2.507,2.507,0,0,1,.89-1.061,2.42,2.42,0,0,1,1.4-.411,2.188,2.188,0,0,1,1.463.471,1.527,1.527,0,0,1,.556,1.223v.428l-3.148.513a3.9,3.9,0,0,0-2.284,1.035,2.647,2.647,0,0,0-.727,1.874A2.355,2.355,0,0,0,15.7-.522,3.323,3.323,0,0,0,17.914.205Zm-1.4-2.669a1.387,1.387,0,0,1,.4-1.009,2.33,2.33,0,0,1,1.292-.565L20.994-4.5v.582a2.792,2.792,0,0,1-.359,1.4,2.619,2.619,0,0,1-1.009,1,3.041,3.041,0,0,1-1.523.368,1.721,1.721,0,0,1-1.138-.376A1.174,1.174,0,0,1,16.511-2.464ZM28.455.1q.188,0,.462-.026a3.789,3.789,0,0,0,.5-.077V-1.4l-.325.034q-.171.017-.308.017a1.475,1.475,0,0,1-1.189-.419,1.69,1.69,0,0,1-.351-1.121V-7.7h2.07V-9.222H27.24v-2.122H25.649v.753a1.371,1.371,0,0,1-.359,1,1.3,1.3,0,0,1-.975.368h-.342V-7.7h1.677V-2.84a3.042,3.042,0,0,0,.727,2.173A2.722,2.722,0,0,0,28.455.1Zm6.675.1a4.475,4.475,0,0,0,2.464-.667,3.762,3.762,0,0,0,1.471-1.625l-1.335-.684a3.369,3.369,0,0,1-1.027,1.1,2.717,2.717,0,0,1-1.557.428A2.993,2.993,0,0,1,33.719-1.6a2.877,2.877,0,0,1-1.078-1,3,3,0,0,1-.453-1.54h7.049A4.72,4.72,0,0,0,39.322-5a4.691,4.691,0,0,0-.513-2.156,4.225,4.225,0,0,0-1.48-1.643,4.169,4.169,0,0,0-2.336-.633,4.313,4.313,0,0,0-2.293.616,4.425,4.425,0,0,0-1.6,1.7,5.1,5.1,0,0,0-.59,2.472,5.085,5.085,0,0,0,.6,2.481A4.516,4.516,0,0,0,32.752-.428,4.494,4.494,0,0,0,35.13.205Zm-.137-8.213a2.641,2.641,0,0,1,1.283.317,2.536,2.536,0,0,1,.941.881,2.481,2.481,0,0,1,.376,1.3H32.221A2.845,2.845,0,0,1,33.18-7.34,2.723,2.723,0,0,1,34.993-8.007ZM43.514,0h1.523l2.19-6.947L49.417,0H50.94l3.165-9.222H52.36L50.136-2.464,47.98-9.222H46.474L44.318-2.464,42.111-9.222H40.349ZM57.546.205A4.148,4.148,0,0,0,59.36-.18,3.586,3.586,0,0,0,60.66-1.2V0h1.557V-6.262a3,3,0,0,0-.453-1.651,3.1,3.1,0,0,0-1.258-1.112,4.119,4.119,0,0,0-1.865-.4,4.33,4.33,0,0,0-1.574.291,4.258,4.258,0,0,0-1.317.8A3.069,3.069,0,0,0,54.929-7.2l1.386.719a2.507,2.507,0,0,1,.89-1.061,2.42,2.42,0,0,1,1.4-.411,2.188,2.188,0,0,1,1.463.471,1.527,1.527,0,0,1,.556,1.223v.428l-3.148.513a3.9,3.9,0,0,0-2.284,1.035,2.647,2.647,0,0,0-.727,1.874,2.355,2.355,0,0,0,.864,1.891A3.323,3.323,0,0,0,57.546.205Zm-1.4-2.669a1.387,1.387,0,0,1,.4-1.009,2.33,2.33,0,0,1,1.292-.565L60.626-4.5v.582a2.792,2.792,0,0,1-.359,1.4,2.619,2.619,0,0,1-1.009,1,3.041,3.041,0,0,1-1.523.368A1.721,1.721,0,0,1,56.6-1.523,1.174,1.174,0,0,1,56.143-2.464Zm9.034,6.228A3.124,3.124,0,0,0,66.726,3.4a3.474,3.474,0,0,0,1.1-.967A5.794,5.794,0,0,0,68.565,1.1L72.723-9.222H70.961l-2.789,7.2-2.806-7.2H63.638L67.3.017l-.274.667a3.4,3.4,0,0,1-.8,1.215,1.832,1.832,0,0,1-1.223.359,3.708,3.708,0,0,1-.556-.043q-.282-.043-.471-.077v1.42a2.2,2.2,0,0,0,.582.163A4.472,4.472,0,0,0,65.177,3.764ZM77.291,0h4.175a6.791,6.791,0,0,0,3.371-.8,5.608,5.608,0,0,0,2.224-2.241,6.836,6.836,0,0,0,.787-3.336,6.824,6.824,0,0,0-.787-3.345,5.566,5.566,0,0,0-2.224-2.224,6.85,6.85,0,0,0-3.371-.8H77.291Zm1.677-1.54v-9.667h2.515a4.839,4.839,0,0,1,2.438.59A4.085,4.085,0,0,1,85.53-8.949,5.4,5.4,0,0,1,86.1-6.382a5.528,5.528,0,0,1-.565,2.567,4.006,4.006,0,0,1-1.6,1.685,4.875,4.875,0,0,1-2.455.59ZM94.025.205a4.475,4.475,0,0,0,2.464-.667A3.762,3.762,0,0,0,97.96-2.087l-1.335-.684a3.369,3.369,0,0,1-1.027,1.1,2.717,2.717,0,0,1-1.557.428A2.993,2.993,0,0,1,92.613-1.6a2.877,2.877,0,0,1-1.078-1,3,3,0,0,1-.453-1.54h7.049A4.72,4.72,0,0,0,98.217-5,4.69,4.69,0,0,0,97.7-7.152a4.225,4.225,0,0,0-1.48-1.643,4.169,4.169,0,0,0-2.336-.633,4.313,4.313,0,0,0-2.293.616,4.425,4.425,0,0,0-1.6,1.7,5.1,5.1,0,0,0-.59,2.472A5.085,5.085,0,0,0,90-2.156,4.516,4.516,0,0,0,91.647-.428,4.494,4.494,0,0,0,94.025.205Zm-.137-8.213a2.641,2.641,0,0,1,1.283.317,2.536,2.536,0,0,1,.941.881,2.481,2.481,0,0,1,.376,1.3H91.116a2.845,2.845,0,0,1,.958-1.831A2.723,2.723,0,0,1,93.888-8.007ZM101.262,0h1.608V-7.7h2.19V-9.222h-2.19v-.65a1.453,1.453,0,0,1,.5-1.258,2.138,2.138,0,0,1,1.292-.368q.1,0,.3.009a1.413,1.413,0,0,1,.317.043v-1.42a3.71,3.71,0,0,0-.385-.06,3.827,3.827,0,0,0-.419-.026,3.6,3.6,0,0,0-1.617.359,2.855,2.855,0,0,0-1.163,1.044,3.057,3.057,0,0,0-.436,1.677v.65H99.5V-7.7h1.762Zm7.787.205a4.148,4.148,0,0,0,1.814-.385,3.586,3.586,0,0,0,1.3-1.018V0h1.557V-6.262a3,3,0,0,0-.453-1.651,3.1,3.1,0,0,0-1.258-1.112,4.119,4.119,0,0,0-1.865-.4,4.33,4.33,0,0,0-1.574.291,4.258,4.258,0,0,0-1.317.8,3.07,3.07,0,0,0-.821,1.138l1.386.719a2.507,2.507,0,0,1,.89-1.061,2.42,2.42,0,0,1,1.4-.411,2.188,2.188,0,0,1,1.463.471,1.527,1.527,0,0,1,.556,1.223v.428l-3.148.513A3.9,3.9,0,0,0,106.7-4.286a2.647,2.647,0,0,0-.727,1.874,2.355,2.355,0,0,0,.864,1.891A3.323,3.323,0,0,0,109.05.205Zm-1.4-2.669a1.387,1.387,0,0,1,.4-1.009,2.33,2.33,0,0,1,1.292-.565L112.13-4.5v.582a2.792,2.792,0,0,1-.359,1.4,2.619,2.619,0,0,1-1.009,1,3.041,3.041,0,0,1-1.523.368,1.721,1.721,0,0,1-1.138-.376A1.174,1.174,0,0,1,107.647-2.464ZM119.453.205a3.327,3.327,0,0,0,1.54-.351,2.806,2.806,0,0,0,1.1-.984V0h1.557V-9.222h-1.608v5.458a2.462,2.462,0,0,1-.625,1.779,2.121,2.121,0,0,1-1.6.65,2.159,2.159,0,0,1-1.608-.625,2.272,2.272,0,0,1-.616-1.668V-9.222H116v5.766a3.975,3.975,0,0,0,.445,1.908,3.258,3.258,0,0,0,1.223,1.292A3.436,3.436,0,0,0,119.453.205ZM126.108,0H127.7V-12.952h-1.591Zm7.8.1q.188,0,.462-.026a3.789,3.789,0,0,0,.5-.077V-1.4l-.325.034q-.171.017-.308.017a1.475,1.475,0,0,1-1.189-.419,1.69,1.69,0,0,1-.351-1.121V-7.7h2.07V-9.222H132.7v-2.122H131.1v.753a1.371,1.371,0,0,1-.359,1,1.3,1.3,0,0,1-.975.368h-.342V-7.7H131.1V-2.84a3.042,3.042,0,0,0,.727,2.173A2.722,2.722,0,0,0,133.911.1Z" transform="translate(279.9 168.34)" fill="#666"/>
      <path id="Path_717" data-name="Path 717" d="M5.03.205A4.633,4.633,0,0,0,7.306-.342,4.072,4.072,0,0,0,8.863-1.831a4.011,4.011,0,0,0,.565-2.1A3.913,3.913,0,0,0,8.991-5.8,3.527,3.527,0,0,0,7.776-7.126a4.132,4.132,0,0,0-1.788-.625L8.9-11.344v-1.4H1.352v1.454H7l-3.4,4.158.359.77q.205-.051.5-.094A3.88,3.88,0,0,1,5.013-6.5a2.873,2.873,0,0,1,1.968.676A2.425,2.425,0,0,1,7.751-3.9a2.444,2.444,0,0,1-.761,1.916A2.819,2.819,0,0,1,5.03-1.3a3.036,3.036,0,0,1-1.771-.539,3.089,3.089,0,0,1-1.138-1.48L.7-2.738A3.992,3.992,0,0,0,2.336-.582,4.772,4.772,0,0,0,5.03.205Zm11.618,0A4.388,4.388,0,0,0,19.3-.616a5.373,5.373,0,0,0,1.762-2.31A8.773,8.773,0,0,0,21.7-6.382a8.71,8.71,0,0,0-.633-3.448,5.352,5.352,0,0,0-1.771-2.3,4.426,4.426,0,0,0-2.661-.821,4.4,4.4,0,0,0-2.643.821,5.352,5.352,0,0,0-1.771,2.3,8.71,8.71,0,0,0-.633,3.448,8.71,8.71,0,0,0,.633,3.448A5.385,5.385,0,0,0,14-.625,4.4,4.4,0,0,0,16.648.205Zm0-1.557a2.733,2.733,0,0,1-1.788-.625,4.007,4.007,0,0,1-1.181-1.762,7.63,7.63,0,0,1-.419-2.643,7.541,7.541,0,0,1,.419-2.643,4.013,4.013,0,0,1,1.181-1.745,2.709,2.709,0,0,1,1.771-.625,2.733,2.733,0,0,1,1.788.625A4.013,4.013,0,0,1,19.6-9.026a7.541,7.541,0,0,1,.419,2.643A7.613,7.613,0,0,1,19.6-3.73a4.046,4.046,0,0,1-1.172,1.754A2.7,2.7,0,0,1,16.648-1.352ZM31.209.205a4.313,4.313,0,0,0,1.874-.4,3.354,3.354,0,0,0,1.36-1.155V0H36V-12.952H34.391V-7.99a3.552,3.552,0,0,0-1.352-1.061,4.343,4.343,0,0,0-1.831-.376,4.386,4.386,0,0,0-2.336.633,4.554,4.554,0,0,0-1.634,1.72,5.036,5.036,0,0,0-.6,2.472,5,5,0,0,0,.6,2.455,4.554,4.554,0,0,0,1.634,1.72A4.386,4.386,0,0,0,31.209.205Zm.137-1.54a2.876,2.876,0,0,1-1.557-.428,3.013,3.013,0,0,1-1.078-1.172A3.513,3.513,0,0,1,28.317-4.6a3.55,3.55,0,0,1,.394-1.685A2.991,2.991,0,0,1,29.8-7.46a2.889,2.889,0,0,1,1.548-.428,2.834,2.834,0,0,1,1.557.436,3.161,3.161,0,0,1,1.086,1.172,3.439,3.439,0,0,1,.4,1.677,3.453,3.453,0,0,1-.4,1.668A3.077,3.077,0,0,1,32.9-1.762,2.876,2.876,0,0,1,31.346-1.335ZM41.167.205A4.148,4.148,0,0,0,42.98-.18a3.586,3.586,0,0,0,1.3-1.018V0h1.557V-6.262a3,3,0,0,0-.453-1.651,3.1,3.1,0,0,0-1.258-1.112,4.119,4.119,0,0,0-1.865-.4,4.33,4.33,0,0,0-1.574.291,4.258,4.258,0,0,0-1.317.8A3.069,3.069,0,0,0,38.549-7.2l1.386.719a2.507,2.507,0,0,1,.89-1.061,2.42,2.42,0,0,1,1.4-.411,2.188,2.188,0,0,1,1.463.471,1.527,1.527,0,0,1,.556,1.223v.428L41.1-5.321a3.9,3.9,0,0,0-2.284,1.035,2.647,2.647,0,0,0-.727,1.874,2.355,2.355,0,0,0,.864,1.891A3.323,3.323,0,0,0,41.167.205Zm-1.4-2.669a1.387,1.387,0,0,1,.4-1.009,2.33,2.33,0,0,1,1.292-.565L44.246-4.5v.582a2.792,2.792,0,0,1-.359,1.4,2.619,2.619,0,0,1-1.009,1,3.041,3.041,0,0,1-1.523.368,1.721,1.721,0,0,1-1.138-.376A1.174,1.174,0,0,1,39.764-2.464ZM48.8,3.764A3.124,3.124,0,0,0,50.346,3.4a3.474,3.474,0,0,0,1.1-.967A5.794,5.794,0,0,0,52.186,1.1L56.343-9.222H54.581l-2.789,7.2-2.806-7.2H47.258L50.919.017l-.274.667a3.4,3.4,0,0,1-.8,1.215,1.832,1.832,0,0,1-1.223.359,3.708,3.708,0,0,1-.556-.043q-.282-.043-.471-.077v1.42a2.2,2.2,0,0,0,.582.163A4.472,4.472,0,0,0,48.8,3.764ZM61.066.205a4.18,4.18,0,0,0,1.745-.342,2.846,2.846,0,0,0,1.181-.95,2.362,2.362,0,0,0,.428-1.394,2.334,2.334,0,0,0-.633-1.643,3.746,3.746,0,0,0-1.745-1.009l-1.506-.445a5.371,5.371,0,0,1-.565-.214,1.337,1.337,0,0,1-.5-.376.973.973,0,0,1-.205-.642,1.1,1.1,0,0,1,.419-.89,1.691,1.691,0,0,1,1.1-.342,2.419,2.419,0,0,1,1.377.419A2.544,2.544,0,0,1,63.1-6.485l1.3-.6a3.374,3.374,0,0,0-1.377-1.728,3.973,3.973,0,0,0-2.182-.616,3.791,3.791,0,0,0-1.634.342,2.814,2.814,0,0,0-1.146.95,2.453,2.453,0,0,0-.419,1.429,2.348,2.348,0,0,0,.573,1.566,3.551,3.551,0,0,0,1.822,1.018l1.386.394a3.238,3.238,0,0,1,.607.214,1.722,1.722,0,0,1,.548.394.928.928,0,0,1,.231.659,1.11,1.11,0,0,1-.5.941,2.075,2.075,0,0,1-1.249.359,2.628,2.628,0,0,1-1.523-.471,3.191,3.191,0,0,1-1.078-1.309L57.2-2.327A3.7,3.7,0,0,0,58.653-.479,4.247,4.247,0,0,0,61.066.205Z" transform="translate(279.9 291.79)" fill="#666"/>
      <path id="Path_716" data-name="Path 716" d="M5.03.205A4.633,4.633,0,0,0,7.306-.342,4.072,4.072,0,0,0,8.863-1.831a4.011,4.011,0,0,0,.565-2.1A3.913,3.913,0,0,0,8.991-5.8,3.527,3.527,0,0,0,7.776-7.126a4.132,4.132,0,0,0-1.788-.625L8.9-11.344v-1.4H1.352v1.454H7l-3.4,4.158.359.77q.205-.051.5-.094A3.88,3.88,0,0,1,5.013-6.5a2.873,2.873,0,0,1,1.968.676A2.425,2.425,0,0,1,7.751-3.9a2.444,2.444,0,0,1-.761,1.916A2.819,2.819,0,0,1,5.03-1.3a3.036,3.036,0,0,1-1.771-.539,3.089,3.089,0,0,1-1.138-1.48L.7-2.738A3.992,3.992,0,0,0,2.336-.582,4.772,4.772,0,0,0,5.03.205Zm13.791,0a4.313,4.313,0,0,0,1.874-.4,3.354,3.354,0,0,0,1.36-1.155V0h1.557V-12.952H22V-7.99a3.552,3.552,0,0,0-1.352-1.061,4.343,4.343,0,0,0-1.831-.376,4.386,4.386,0,0,0-2.336.633,4.554,4.554,0,0,0-1.634,1.72,5.036,5.036,0,0,0-.6,2.472,5,5,0,0,0,.6,2.455,4.554,4.554,0,0,0,1.634,1.72A4.386,4.386,0,0,0,18.821.205Zm.137-1.54A2.876,2.876,0,0,1,17.4-1.762a3.013,3.013,0,0,1-1.078-1.172A3.513,3.513,0,0,1,15.929-4.6a3.55,3.55,0,0,1,.394-1.685A2.991,2.991,0,0,1,17.409-7.46a2.889,2.889,0,0,1,1.548-.428,2.834,2.834,0,0,1,1.557.436A3.161,3.161,0,0,1,21.6-6.279,3.439,3.439,0,0,1,22-4.6a3.453,3.453,0,0,1-.4,1.668,3.077,3.077,0,0,1-1.086,1.172A2.876,2.876,0,0,1,18.958-1.335ZM28.779.205A4.148,4.148,0,0,0,30.593-.18a3.586,3.586,0,0,0,1.3-1.018V0H33.45V-6.262A3,3,0,0,0,33-7.913a3.1,3.1,0,0,0-1.258-1.112,4.119,4.119,0,0,0-1.865-.4,4.33,4.33,0,0,0-1.574.291,4.258,4.258,0,0,0-1.317.8A3.069,3.069,0,0,0,26.161-7.2l1.386.719a2.507,2.507,0,0,1,.89-1.061,2.42,2.42,0,0,1,1.4-.411,2.188,2.188,0,0,1,1.463.471,1.527,1.527,0,0,1,.556,1.223v.428l-3.148.513a3.9,3.9,0,0,0-2.284,1.035A2.647,2.647,0,0,0,25.7-2.413a2.355,2.355,0,0,0,.864,1.891A3.323,3.323,0,0,0,28.779.205Zm-1.4-2.669a1.387,1.387,0,0,1,.4-1.009,2.33,2.33,0,0,1,1.292-.565L31.859-4.5v.582a2.792,2.792,0,0,1-.359,1.4,2.619,2.619,0,0,1-1.009,1,3.041,3.041,0,0,1-1.523.368,1.721,1.721,0,0,1-1.138-.376A1.174,1.174,0,0,1,27.376-2.464ZM36.41,3.764A3.124,3.124,0,0,0,37.959,3.4a3.474,3.474,0,0,0,1.1-.967A5.794,5.794,0,0,0,39.8,1.1L43.956-9.222H42.193L39.4-2.019,36.6-9.222H34.87L38.532.017l-.274.667a3.4,3.4,0,0,1-.8,1.215,1.832,1.832,0,0,1-1.223.359,3.708,3.708,0,0,1-.556-.043q-.282-.043-.471-.077v1.42a2.2,2.2,0,0,0,.582.163A4.472,4.472,0,0,0,36.41,3.764ZM48.678.205a4.18,4.18,0,0,0,1.745-.342,2.846,2.846,0,0,0,1.181-.95,2.361,2.361,0,0,0,.428-1.394A2.334,2.334,0,0,0,51.4-4.124a3.746,3.746,0,0,0-1.745-1.009l-1.506-.445a5.371,5.371,0,0,1-.565-.214,1.337,1.337,0,0,1-.5-.376.973.973,0,0,1-.205-.642A1.1,1.1,0,0,1,47.3-7.7a1.691,1.691,0,0,1,1.1-.342,2.419,2.419,0,0,1,1.377.419,2.544,2.544,0,0,1,.932,1.138l1.3-.6a3.374,3.374,0,0,0-1.377-1.728,3.973,3.973,0,0,0-2.182-.616,3.791,3.791,0,0,0-1.634.342,2.814,2.814,0,0,0-1.146.95,2.453,2.453,0,0,0-.419,1.429,2.348,2.348,0,0,0,.573,1.566,3.551,3.551,0,0,0,1.822,1.018l1.386.394a3.238,3.238,0,0,1,.607.214,1.722,1.722,0,0,1,.548.394.928.928,0,0,1,.231.659,1.11,1.11,0,0,1-.5.941,2.075,2.075,0,0,1-1.249.359,2.628,2.628,0,0,1-1.523-.471,3.191,3.191,0,0,1-1.078-1.309l-1.266.616A3.7,3.7,0,0,0,46.265-.479,4.247,4.247,0,0,0,48.678.205Z" transform="translate(279.9 350.46)" fill="#666"/>
      <path id="Path_715" data-name="Path 715" d="M5.03.205A4.633,4.633,0,0,0,7.306-.342,4.072,4.072,0,0,0,8.863-1.831a4.011,4.011,0,0,0,.565-2.1A3.913,3.913,0,0,0,8.991-5.8,3.527,3.527,0,0,0,7.776-7.126a4.132,4.132,0,0,0-1.788-.625L8.9-11.344v-1.4H1.352v1.454H7l-3.4,4.158.359.77q.205-.051.5-.094A3.88,3.88,0,0,1,5.013-6.5a2.873,2.873,0,0,1,1.968.676A2.425,2.425,0,0,1,7.751-3.9a2.444,2.444,0,0,1-.761,1.916A2.819,2.819,0,0,1,5.03-1.3a3.036,3.036,0,0,1-1.771-.539,3.089,3.089,0,0,1-1.138-1.48L.7-2.738A3.992,3.992,0,0,0,2.336-.582,4.772,4.772,0,0,0,5.03.205Zm11.618,0A4.388,4.388,0,0,0,19.3-.616a5.373,5.373,0,0,0,1.762-2.31A8.773,8.773,0,0,0,21.7-6.382a8.71,8.71,0,0,0-.633-3.448,5.352,5.352,0,0,0-1.771-2.3,4.426,4.426,0,0,0-2.661-.821,4.4,4.4,0,0,0-2.643.821,5.352,5.352,0,0,0-1.771,2.3,8.71,8.71,0,0,0-.633,3.448,8.71,8.71,0,0,0,.633,3.448A5.385,5.385,0,0,0,14-.625,4.4,4.4,0,0,0,16.648.205Zm0-1.557a2.733,2.733,0,0,1-1.788-.625,4.007,4.007,0,0,1-1.181-1.762,7.63,7.63,0,0,1-.419-2.643,7.541,7.541,0,0,1,.419-2.643,4.013,4.013,0,0,1,1.181-1.745,2.709,2.709,0,0,1,1.771-.625,2.733,2.733,0,0,1,1.788.625A4.013,4.013,0,0,1,19.6-9.026a7.541,7.541,0,0,1,.419,2.643A7.613,7.613,0,0,1,19.6-3.73a4.046,4.046,0,0,1-1.172,1.754A2.7,2.7,0,0,1,16.648-1.352ZM31.209.205a4.313,4.313,0,0,0,1.874-.4,3.354,3.354,0,0,0,1.36-1.155V0H36V-12.952H34.391V-7.99a3.552,3.552,0,0,0-1.352-1.061,4.343,4.343,0,0,0-1.831-.376,4.386,4.386,0,0,0-2.336.633,4.554,4.554,0,0,0-1.634,1.72,5.036,5.036,0,0,0-.6,2.472,5,5,0,0,0,.6,2.455,4.554,4.554,0,0,0,1.634,1.72A4.386,4.386,0,0,0,31.209.205Zm.137-1.54a2.876,2.876,0,0,1-1.557-.428,3.013,3.013,0,0,1-1.078-1.172A3.513,3.513,0,0,1,28.317-4.6a3.55,3.55,0,0,1,.394-1.685A2.991,2.991,0,0,1,29.8-7.46a2.889,2.889,0,0,1,1.548-.428,2.834,2.834,0,0,1,1.557.436,3.161,3.161,0,0,1,1.086,1.172,3.439,3.439,0,0,1,.4,1.677,3.453,3.453,0,0,1-.4,1.668A3.077,3.077,0,0,1,32.9-1.762,2.876,2.876,0,0,1,31.346-1.335ZM41.167.205A4.148,4.148,0,0,0,42.98-.18a3.586,3.586,0,0,0,1.3-1.018V0h1.557V-6.262a3,3,0,0,0-.453-1.651,3.1,3.1,0,0,0-1.258-1.112,4.119,4.119,0,0,0-1.865-.4,4.33,4.33,0,0,0-1.574.291,4.258,4.258,0,0,0-1.317.8A3.069,3.069,0,0,0,38.549-7.2l1.386.719a2.507,2.507,0,0,1,.89-1.061,2.42,2.42,0,0,1,1.4-.411,2.188,2.188,0,0,1,1.463.471,1.527,1.527,0,0,1,.556,1.223v.428L41.1-5.321a3.9,3.9,0,0,0-2.284,1.035,2.647,2.647,0,0,0-.727,1.874,2.355,2.355,0,0,0,.864,1.891A3.323,3.323,0,0,0,41.167.205Zm-1.4-2.669a1.387,1.387,0,0,1,.4-1.009,2.33,2.33,0,0,1,1.292-.565L44.246-4.5v.582a2.792,2.792,0,0,1-.359,1.4,2.619,2.619,0,0,1-1.009,1,3.041,3.041,0,0,1-1.523.368,1.721,1.721,0,0,1-1.138-.376A1.174,1.174,0,0,1,39.764-2.464ZM48.8,3.764A3.124,3.124,0,0,0,50.346,3.4a3.474,3.474,0,0,0,1.1-.967A5.794,5.794,0,0,0,52.186,1.1L56.343-9.222H54.581l-2.789,7.2-2.806-7.2H47.258L50.919.017l-.274.667a3.4,3.4,0,0,1-.8,1.215,1.832,1.832,0,0,1-1.223.359,3.708,3.708,0,0,1-.556-.043q-.282-.043-.471-.077v1.42a2.2,2.2,0,0,0,.582.163A4.472,4.472,0,0,0,48.8,3.764ZM61.066.205a4.18,4.18,0,0,0,1.745-.342,2.846,2.846,0,0,0,1.181-.95,2.362,2.362,0,0,0,.428-1.394,2.334,2.334,0,0,0-.633-1.643,3.746,3.746,0,0,0-1.745-1.009l-1.506-.445a5.371,5.371,0,0,1-.565-.214,1.337,1.337,0,0,1-.5-.376.973.973,0,0,1-.205-.642,1.1,1.1,0,0,1,.419-.89,1.691,1.691,0,0,1,1.1-.342,2.419,2.419,0,0,1,1.377.419A2.544,2.544,0,0,1,63.1-6.485l1.3-.6a3.374,3.374,0,0,0-1.377-1.728,3.973,3.973,0,0,0-2.182-.616,3.791,3.791,0,0,0-1.634.342,2.814,2.814,0,0,0-1.146.95,2.453,2.453,0,0,0-.419,1.429,2.348,2.348,0,0,0,.573,1.566,3.551,3.551,0,0,0,1.822,1.018l1.386.394a3.238,3.238,0,0,1,.607.214,1.722,1.722,0,0,1,.548.394.928.928,0,0,1,.231.659,1.11,1.11,0,0,1-.5.941,2.075,2.075,0,0,1-1.249.359,2.628,2.628,0,0,1-1.523-.471,3.191,3.191,0,0,1-1.078-1.309L57.2-2.327A3.7,3.7,0,0,0,58.653-.479,4.247,4.247,0,0,0,61.066.205Z" transform="translate(279.9 466.57)" fill="#666"/>
      <path id="Path_714" data-name="Path 714" d="M3.046,0H4.739V-12.747H.633v1.454H3.046Zm7.682,0h1.591V-5.458a2.423,2.423,0,0,1,.642-1.779,2.156,2.156,0,0,1,1.6-.65,2.115,2.115,0,0,1,1.583.642,2.456,2.456,0,0,1,.625,1.788V0h1.608V-5.971a3.453,3.453,0,0,0-.453-1.771,3.358,3.358,0,0,0-1.232-1.232,3.453,3.453,0,0,0-1.771-.453,3.374,3.374,0,0,0-1.514.334,2.738,2.738,0,0,0-1.086.95v-4.808H10.728Zm14.3.205A4.709,4.709,0,0,0,27.41-.411a4.626,4.626,0,0,0,1.72-1.711,4.848,4.848,0,0,0,.642-2.5,4.871,4.871,0,0,0-.625-2.472,4.581,4.581,0,0,0-1.7-1.711,4.724,4.724,0,0,0-2.413-.625A4.757,4.757,0,0,0,22.6-8.8a4.581,4.581,0,0,0-1.7,1.711,4.871,4.871,0,0,0-.625,2.472,4.866,4.866,0,0,0,.633,2.481,4.627,4.627,0,0,0,1.711,1.72A4.724,4.724,0,0,0,25.032.205Zm0-1.54a2.92,2.92,0,0,1-1.566-.428,3.119,3.119,0,0,1-1.1-1.172,3.43,3.43,0,0,1-.411-1.685A3.382,3.382,0,0,1,22.363-6.3a3.137,3.137,0,0,1,1.1-1.163,2.92,2.92,0,0,1,1.566-.428,2.889,2.889,0,0,1,1.548.428,3.071,3.071,0,0,1,1.1,1.163,3.439,3.439,0,0,1,.4,1.677,3.489,3.489,0,0,1-.4,1.685,3.054,3.054,0,0,1-1.1,1.172A2.889,2.889,0,0,1,25.032-1.335ZM35.11.205a3.327,3.327,0,0,0,1.54-.351,2.806,2.806,0,0,0,1.1-.984V0H39.3V-9.222H37.693v5.458a2.462,2.462,0,0,1-.625,1.779,2.121,2.121,0,0,1-1.6.65,2.159,2.159,0,0,1-1.608-.625,2.272,2.272,0,0,1-.616-1.668V-9.222H31.654v5.766A3.975,3.975,0,0,0,32.1-1.548,3.258,3.258,0,0,0,33.322-.257,3.437,3.437,0,0,0,35.11.205ZM41.766,0h1.591V-5.492a2.345,2.345,0,0,1,.6-1.72,2.112,2.112,0,0,1,1.574-.607h.8V-9.325h-.565a3.336,3.336,0,0,0-1.471.3,2.28,2.28,0,0,0-.975.9v-1.1H41.766Z" transform="translate(279.9 526.46)" fill="#666"/>
      <rect id="Rectangle_35" data-name="Rectangle 35" width="2.88" height="6.49" rx="1" transform="translate(65.46 29.65)" fill="#329afc"/>
      <line id="Line_16" data-name="Line 16" x2="36" transform="translate(48.08 33.15)" fill="none" stroke="#329afc" stroke-miterlimit="10" stroke-width="2.75"/>
      <rect id="Rectangle_36" data-name="Rectangle 36" width="2.88" height="6.49" rx="1" transform="translate(75.2 48.66)" fill="#329afc"/>
      <line id="Line_17" data-name="Line 17" x2="36" transform="translate(48.08 52.15)" fill="none" stroke="#329afc" stroke-miterlimit="10" stroke-width="2.75"/>
      <rect id="Rectangle_37" data-name="Rectangle 37" width="2.88" height="6.49" rx="1" transform="translate(54.08 39.71)" fill="#329afc"/>
      <line id="Line_18" data-name="Line 18" x2="36" transform="translate(48.08 43.15)" fill="none" stroke="#329afc" stroke-miterlimit="10" stroke-width="2.75"/>
    </g>
  </g>
</svg>
