<svg width="1930" height="209" viewBox="0 0 1930 209" fill="none" xmlns="http://www.w3.org/2000/svg">
<mask id="mask0_1310_2018" style="mask-type:alpha" maskUnits="userSpaceOnUse" x="0" y="0" width="1930" height="209">
<rect width="1930" height="208.396" fill="#C4C4C4"/>
</mask>
<g mask="url(#mask0_1310_2018)">
<path fill-rule="evenodd" clip-rule="evenodd" d="M-147.875 38.9571L-83.8163 43.5374C-17.815 48.1307 110.302 57.2913 240.311 70.6175C370.319 83.9437 498.334 101.41 628.496 102.278C758.659 103.146 887.083 87.3908 1016.94 113.175C1146.79 138.959 1274.19 206.257 1404.41 202.973C1534.62 199.688 1663.76 125.796 1794.23 101.748C1924.7 77.7001 2052.61 103.471 2118.51 116.37L2182.47 129.256L2183.7 29.5917L2119.59 29.164C2053.54 28.7234 1925.32 27.8682 1795.15 26.9999C1664.99 26.1317 1536.77 25.2764 1406.61 24.4082C1276.45 23.5399 1148.23 22.6847 1018.07 21.8164C887.903 20.9482 759.684 20.0929 629.521 19.2247C499.359 18.3564 371.139 17.5011 240.977 16.6329C110.815 15.7647 -17.405 14.9094 -83.4576 14.4688L-147.567 14.0411L-147.875 38.9571Z" fill="#27C1BC"/>
<path fill-rule="evenodd" clip-rule="evenodd" d="M-226.17 10.7438L-157.781 15.8599C-87.3188 20.9759 49.4599 31.208 188.311 46.5562C327.162 61.9044 463.941 82.3686 602.792 82.3686C741.643 82.3686 878.422 61.9044 1017.27 92.6007C1156.12 123.297 1292.9 205.154 1431.75 200.038C1570.6 194.922 1707.38 102.833 1846.23 72.1365C1985.09 41.4402 2121.86 72.1365 2192.33 87.4847L2260.72 102.833V-19.9525H2192.33C2121.86 -19.9525 1985.09 -19.9525 1846.23 -19.9525C1707.38 -19.9525 1570.6 -19.9525 1431.75 -19.9525C1292.9 -19.9525 1156.12 -19.9525 1017.27 -19.9525C878.422 -19.9525 741.643 -19.9525 602.792 -19.9525C463.941 -19.9525 327.162 -19.9525 188.311 -19.9525C49.4599 -19.9525 -87.3188 -19.9525 -157.781 -19.9525H-226.17V10.7438Z" fill="#139BBF"/>
<path fill-rule="evenodd" clip-rule="evenodd" d="M-327 15.8599L-256.27 19.6699C-183.397 23.4799 -41.9367 31.0998 101.667 42.5298C245.27 53.9597 386.73 69.1996 530.333 69.1996C673.937 69.1996 815.397 53.9597 959 76.8196C1102.6 99.6795 1244.06 160.639 1387.67 156.829C1531.27 153.019 1672.73 84.4396 1816.33 61.5797C1959.94 38.7198 2101.4 61.5797 2174.27 73.0096L2245 84.4396V-7H2174.27C2101.4 -7 1959.94 -7 1816.33 -7C1672.73 -7 1531.27 -7 1387.67 -7C1244.06 -7 1102.6 -7 959 -7C815.397 -7 673.937 -7 530.333 -7C386.73 -7 245.27 -7 101.667 -7C-41.9367 -7 -183.397 -7 -256.27 -7H-327V15.8599Z" fill="#252939"/>
</g>
</svg>
