<svg xmlns="http://www.w3.org/2000/svg" xmlns:xlink="http://www.w3.org/1999/xlink" width="1224.141" height="873.52" viewBox="0 0 1224.141 873.52">
  <defs>
    <filter id="Rectangle_91" x="45.54" y="196.98" width="740" height="661.14" filterUnits="userSpaceOnUse">
      <feOffset dy="9" input="SourceAlpha"/>
      <feGaussianBlur stdDeviation="19.5" result="blur"/>
      <feFlood flood-opacity="0.149"/>
      <feComposite operator="in" in2="blur"/>
      <feComposite in="SourceGraphic"/>
    </filter>
    <filter id="Rectangle_93" x="546.03" y="104.74" width="591.51" height="527.82" filterUnits="userSpaceOnUse">
      <feOffset dx="24" dy="4" input="SourceAlpha"/>
      <feGaussianBlur stdDeviation="15.5" result="blur-2"/>
      <feFlood flood-opacity="0.078"/>
      <feComposite operator="in" in2="blur-2"/>
      <feComposite in="SourceGraphic"/>
    </filter>
    <filter id="Ellipse_42" x="480.64" y="696.82" width="176.7" height="176.7" filterUnits="userSpaceOnUse">
      <feOffset dy="3" input="SourceAlpha"/>
      <feGaussianBlur stdDeviation="14" result="blur-3"/>
      <feFlood flood-opacity="0.102"/>
      <feComposite operator="in" in2="blur-3"/>
      <feComposite in="SourceGraphic"/>
    </filter>
    <filter id="Rectangle_98" x="51.54" y="0" width="418.93" height="386.61" filterUnits="userSpaceOnUse">
      <feOffset input="SourceAlpha"/>
      <feGaussianBlur stdDeviation="24.5" result="blur-4"/>
      <feFlood flood-opacity="0.102"/>
      <feComposite operator="in" in2="blur-4"/>
      <feComposite in="SourceGraphic"/>
    </filter>
    <filter id="Ellipse_43" x="0" y="306.29" width="82.44" height="82.44" filterUnits="userSpaceOnUse">
      <feOffset input="SourceAlpha"/>
      <feGaussianBlur stdDeviation="10.5" result="blur-5"/>
      <feFlood flood-opacity="0.078"/>
      <feComposite operator="in" in2="blur-5"/>
      <feComposite in="SourceGraphic"/>
    </filter>
    <filter id="Ellipse_44" x="27.78" y="306.29" width="82.44" height="82.44" filterUnits="userSpaceOnUse">
      <feOffset input="SourceAlpha"/>
      <feGaussianBlur stdDeviation="10.5" result="blur-6"/>
      <feFlood flood-opacity="0.078"/>
      <feComposite operator="in" in2="blur-6"/>
      <feComposite in="SourceGraphic"/>
    </filter>
    <filter id="Ellipse_45" x="55.56" y="305.94" width="82.44" height="82.44" filterUnits="userSpaceOnUse">
      <feOffset input="SourceAlpha"/>
      <feGaussianBlur stdDeviation="10.5" result="blur-7"/>
      <feFlood flood-opacity="0.078"/>
      <feComposite operator="in" in2="blur-7"/>
      <feComposite in="SourceGraphic"/>
    </filter>
    <filter id="Ellipse_46" x="83.33" y="305.94" width="82.44" height="82.44" filterUnits="userSpaceOnUse">
      <feOffset input="SourceAlpha"/>
      <feGaussianBlur stdDeviation="10.5" result="blur-8"/>
      <feFlood flood-opacity="0.078"/>
      <feComposite operator="in" in2="blur-8"/>
      <feComposite in="SourceGraphic"/>
    </filter>
    <filter id="Ellipse_47" x="0" y="334.24" width="82.44" height="82.44" filterUnits="userSpaceOnUse">
      <feOffset input="SourceAlpha"/>
      <feGaussianBlur stdDeviation="10.5" result="blur-9"/>
      <feFlood flood-opacity="0.078"/>
      <feComposite operator="in" in2="blur-9"/>
      <feComposite in="SourceGraphic"/>
    </filter>
    <filter id="Ellipse_48" x="27.78" y="334.24" width="82.44" height="82.44" filterUnits="userSpaceOnUse">
      <feOffset input="SourceAlpha"/>
      <feGaussianBlur stdDeviation="10.5" result="blur-10"/>
      <feFlood flood-opacity="0.078"/>
      <feComposite operator="in" in2="blur-10"/>
      <feComposite in="SourceGraphic"/>
    </filter>
    <filter id="Ellipse_49" x="55.56" y="333.89" width="82.44" height="82.44" filterUnits="userSpaceOnUse">
      <feOffset input="SourceAlpha"/>
      <feGaussianBlur stdDeviation="10.5" result="blur-11"/>
      <feFlood flood-opacity="0.078"/>
      <feComposite operator="in" in2="blur-11"/>
      <feComposite in="SourceGraphic"/>
    </filter>
    <filter id="Ellipse_50" x="83.33" y="333.89" width="82.44" height="82.44" filterUnits="userSpaceOnUse">
      <feOffset input="SourceAlpha"/>
      <feGaussianBlur stdDeviation="10.5" result="blur-12"/>
      <feFlood flood-opacity="0.078"/>
      <feComposite operator="in" in2="blur-12"/>
      <feComposite in="SourceGraphic"/>
    </filter>
    <filter id="Ellipse_51" x="0" y="361.93" width="82.44" height="82.44" filterUnits="userSpaceOnUse">
      <feOffset input="SourceAlpha"/>
      <feGaussianBlur stdDeviation="10.5" result="blur-13"/>
      <feFlood flood-opacity="0.078"/>
      <feComposite operator="in" in2="blur-13"/>
      <feComposite in="SourceGraphic"/>
    </filter>
    <filter id="Ellipse_52" x="27.78" y="361.93" width="82.44" height="82.44" filterUnits="userSpaceOnUse">
      <feOffset input="SourceAlpha"/>
      <feGaussianBlur stdDeviation="10.5" result="blur-14"/>
      <feFlood flood-opacity="0.078"/>
      <feComposite operator="in" in2="blur-14"/>
      <feComposite in="SourceGraphic"/>
    </filter>
    <filter id="Ellipse_53" x="55.56" y="361.58" width="82.44" height="82.44" filterUnits="userSpaceOnUse">
      <feOffset input="SourceAlpha"/>
      <feGaussianBlur stdDeviation="10.5" result="blur-15"/>
      <feFlood flood-opacity="0.078"/>
      <feComposite operator="in" in2="blur-15"/>
      <feComposite in="SourceGraphic"/>
    </filter>
    <filter id="Ellipse_54" x="83.33" y="361.58" width="82.44" height="82.44" filterUnits="userSpaceOnUse">
      <feOffset input="SourceAlpha"/>
      <feGaussianBlur stdDeviation="10.5" result="blur-16"/>
      <feFlood flood-opacity="0.078"/>
      <feComposite operator="in" in2="blur-16"/>
      <feComposite in="SourceGraphic"/>
    </filter>
    <filter id="Ellipse_55" x="0" y="389.88" width="82.44" height="82.44" filterUnits="userSpaceOnUse">
      <feOffset input="SourceAlpha"/>
      <feGaussianBlur stdDeviation="10.5" result="blur-17"/>
      <feFlood flood-opacity="0.078"/>
      <feComposite operator="in" in2="blur-17"/>
      <feComposite in="SourceGraphic"/>
    </filter>
    <filter id="Ellipse_56" x="27.78" y="389.88" width="82.44" height="82.44" filterUnits="userSpaceOnUse">
      <feOffset input="SourceAlpha"/>
      <feGaussianBlur stdDeviation="10.5" result="blur-18"/>
      <feFlood flood-opacity="0.078"/>
      <feComposite operator="in" in2="blur-18"/>
      <feComposite in="SourceGraphic"/>
    </filter>
    <filter id="Ellipse_57" x="55.56" y="389.53" width="82.44" height="82.44" filterUnits="userSpaceOnUse">
      <feOffset input="SourceAlpha"/>
      <feGaussianBlur stdDeviation="10.5" result="blur-19"/>
      <feFlood flood-opacity="0.078"/>
      <feComposite operator="in" in2="blur-19"/>
      <feComposite in="SourceGraphic"/>
    </filter>
    <filter id="Ellipse_58" x="83.33" y="389.53" width="82.44" height="82.44" filterUnits="userSpaceOnUse">
      <feOffset input="SourceAlpha"/>
      <feGaussianBlur stdDeviation="10.5" result="blur-20"/>
      <feFlood flood-opacity="0.078"/>
      <feComposite operator="in" in2="blur-20"/>
      <feComposite in="SourceGraphic"/>
    </filter>
    <filter id="Ellipse_59" x="966.32" y="321.98" width="257.82" height="257.82" filterUnits="userSpaceOnUse">
      <feOffset dx="6" dy="2" input="SourceAlpha"/>
      <feGaussianBlur stdDeviation="17.5" result="blur-21"/>
      <feFlood flood-opacity="0.102"/>
      <feComposite operator="in" in2="blur-21"/>
      <feComposite in="SourceGraphic"/>
    </filter>
    <filter id="Rectangle_104" x="343.74" y="275.47" width="456.3" height="376.95" filterUnits="userSpaceOnUse">
      <feOffset dy="19" input="SourceAlpha"/>
      <feGaussianBlur stdDeviation="23" result="blur-22"/>
      <feFlood flood-opacity="0.122"/>
      <feComposite operator="in" in2="blur-22"/>
      <feComposite in="SourceGraphic"/>
    </filter>
    <filter id="Rectangle_122" x="729.53" y="493.02" width="363.06" height="330.25" filterUnits="userSpaceOnUse">
      <feOffset dy="3" input="SourceAlpha"/>
      <feGaussianBlur stdDeviation="14.5" result="blur-23"/>
      <feFlood flood-opacity="0.102"/>
      <feComposite operator="in" in2="blur-23"/>
      <feComposite in="SourceGraphic"/>
    </filter>
  </defs>
  <g id="Cost-Effective" transform="translate(-28.96 13.42)">
    <g id="Layer_1" data-name="Layer 1">
      <g transform="matrix(1, 0, 0, 1, 28.96, -13.42)" filter="url(#Rectangle_91)">
        <rect id="Rectangle_91-2" data-name="Rectangle 91" width="623" height="544.14" rx="20" transform="translate(104.04 246.48)" fill="#eaf1f8"/>
      </g>
      <g transform="matrix(1, 0, 0, 1, 28.96, -13.42)" filter="url(#Rectangle_93)">
        <rect id="Rectangle_93-2" data-name="Rectangle 93" width="498.51" height="434.82" rx="20" transform="translate(568.53 147.24)" fill="#3399fe"/>
      </g>
      <g transform="matrix(1, 0, 0, 1, 28.96, -13.42)" filter="url(#Ellipse_42)">
        <circle id="Ellipse_42-2" data-name="Ellipse 42" cx="46.35" cy="46.35" r="46.35" transform="translate(522.64 735.82)" fill="#f15a24"/>
      </g>
      <path id="Path_50" data-name="Path 50" d="M605.78,674.83V560.53s-3.65-21.19,37.73-21.19H815.09" transform="translate(-358 -101)" fill="none" stroke="#ccc" stroke-linecap="round" stroke-miterlimit="10" stroke-width="5" stroke-dasharray="12 16"/>
      <rect id="Rectangle_96" data-name="Rectangle 96" width="335.24" height="248.79" rx="20" transform="translate(79.46 505.02)" fill="#fff"/>
      <path id="Path_51" data-name="Path 51" d="M777.7,275.08h126s23.36-2.51,23.36,25.95V419" transform="translate(-358 -101)" fill="none" stroke="#ccc" stroke-linecap="round" stroke-miterlimit="10" stroke-width="5" stroke-dasharray="12 16"/>
      <g transform="matrix(1, 0, 0, 1, 28.96, -13.42)" filter="url(#Rectangle_98)">
        <rect id="Rectangle_98-2" data-name="Rectangle 98" width="271.93" height="239.61" rx="20" transform="translate(125.04 73.5)" fill="#fff"/>
      </g>
      <g id="Group_5" data-name="Group 5">
        <g transform="matrix(1, 0, 0, 1, 28.96, -13.42)" filter="url(#Ellipse_43)">
          <circle id="Ellipse_43-2" data-name="Ellipse 43" cx="9.72" cy="9.72" r="9.72" transform="translate(31.5 337.79)" fill="#27c1bc"/>
        </g>
        <g transform="matrix(1, 0, 0, 1, 28.96, -13.42)" filter="url(#Ellipse_44)">
          <circle id="Ellipse_44-2" data-name="Ellipse 44" cx="9.72" cy="9.72" r="9.72" transform="translate(59.28 337.79)" fill="#27c1bc"/>
        </g>
        <g transform="matrix(1, 0, 0, 1, 28.96, -13.42)" filter="url(#Ellipse_45)">
          <circle id="Ellipse_45-2" data-name="Ellipse 45" cx="9.72" cy="9.72" r="9.72" transform="translate(87.06 337.44)" fill="#27c1bc"/>
        </g>
        <g transform="matrix(1, 0, 0, 1, 28.96, -13.42)" filter="url(#Ellipse_46)">
          <circle id="Ellipse_46-2" data-name="Ellipse 46" cx="9.72" cy="9.72" r="9.72" transform="translate(114.83 337.44)" fill="#27c1bc"/>
        </g>
        <g transform="matrix(1, 0, 0, 1, 28.96, -13.42)" filter="url(#Ellipse_47)">
          <circle id="Ellipse_47-2" data-name="Ellipse 47" cx="9.72" cy="9.72" r="9.72" transform="translate(31.5 365.74)" fill="#27c1bc"/>
        </g>
        <g transform="matrix(1, 0, 0, 1, 28.96, -13.42)" filter="url(#Ellipse_48)">
          <circle id="Ellipse_48-2" data-name="Ellipse 48" cx="9.72" cy="9.72" r="9.72" transform="translate(59.28 365.74)" fill="#27c1bc"/>
        </g>
        <g transform="matrix(1, 0, 0, 1, 28.96, -13.42)" filter="url(#Ellipse_49)">
          <circle id="Ellipse_49-2" data-name="Ellipse 49" cx="9.72" cy="9.72" r="9.72" transform="translate(87.06 365.39)" fill="#27c1bc"/>
        </g>
        <g transform="matrix(1, 0, 0, 1, 28.96, -13.42)" filter="url(#Ellipse_50)">
          <circle id="Ellipse_50-2" data-name="Ellipse 50" cx="9.72" cy="9.72" r="9.72" transform="translate(114.83 365.39)" fill="#27c1bc"/>
        </g>
        <g transform="matrix(1, 0, 0, 1, 28.96, -13.42)" filter="url(#Ellipse_51)">
          <circle id="Ellipse_51-2" data-name="Ellipse 51" cx="9.72" cy="9.72" r="9.72" transform="translate(31.5 393.43)" fill="#27c1bc"/>
        </g>
        <g transform="matrix(1, 0, 0, 1, 28.96, -13.42)" filter="url(#Ellipse_52)">
          <circle id="Ellipse_52-2" data-name="Ellipse 52" cx="9.72" cy="9.72" r="9.72" transform="translate(59.28 393.43)" fill="#27c1bc"/>
        </g>
        <g transform="matrix(1, 0, 0, 1, 28.96, -13.42)" filter="url(#Ellipse_53)">
          <circle id="Ellipse_53-2" data-name="Ellipse 53" cx="9.72" cy="9.72" r="9.72" transform="translate(87.06 393.08)" fill="#27c1bc"/>
        </g>
        <g transform="matrix(1, 0, 0, 1, 28.96, -13.42)" filter="url(#Ellipse_54)">
          <circle id="Ellipse_54-2" data-name="Ellipse 54" cx="9.72" cy="9.72" r="9.72" transform="translate(114.83 393.08)" fill="#27c1bc"/>
        </g>
        <g transform="matrix(1, 0, 0, 1, 28.96, -13.42)" filter="url(#Ellipse_55)">
          <circle id="Ellipse_55-2" data-name="Ellipse 55" cx="9.72" cy="9.72" r="9.72" transform="translate(31.5 421.38)" fill="#27c1bc"/>
        </g>
        <g transform="matrix(1, 0, 0, 1, 28.96, -13.42)" filter="url(#Ellipse_56)">
          <circle id="Ellipse_56-2" data-name="Ellipse 56" cx="9.72" cy="9.72" r="9.72" transform="translate(59.28 421.38)" fill="#27c1bc"/>
        </g>
        <g transform="matrix(1, 0, 0, 1, 28.96, -13.42)" filter="url(#Ellipse_57)">
          <circle id="Ellipse_57-2" data-name="Ellipse 57" cx="9.72" cy="9.72" r="9.72" transform="translate(87.06 421.03)" fill="#27c1bc"/>
        </g>
        <g transform="matrix(1, 0, 0, 1, 28.96, -13.42)" filter="url(#Ellipse_58)">
          <circle id="Ellipse_58-2" data-name="Ellipse 58" cx="9.72" cy="9.72" r="9.72" transform="translate(114.83 421.03)" fill="#27c1bc"/>
        </g>
      </g>
      <path id="Path_52" data-name="Path 52" d="M1170.06,783H975.18s-36.12,2.06-36.12-21.25V665" transform="translate(-358 -101)" fill="none" stroke="#ccc" stroke-linecap="round" stroke-miterlimit="10" stroke-width="5" stroke-dasharray="12 16"/>
      <path id="Path_53" data-name="Path 53" d="M1317.92,419V519.42s3.55,18.62-36.68,18.62H1114.4" transform="translate(-358 -101)" fill="none" stroke="#ccc" stroke-linecap="round" stroke-miterlimit="10" stroke-width="5" stroke-dasharray="12 16"/>
      <rect id="Rectangle_101" data-name="Rectangle 101" width="363" height="221" rx="20" transform="translate(787 97)" fill="#fff"/>
      <g transform="matrix(1, 0, 0, 1, 28.96, -13.42)" filter="url(#Ellipse_59)">
        <circle id="Ellipse_59-2" data-name="Ellipse 59" cx="76.41" cy="76.41" r="76.41" transform="translate(1012.82 372.48)" fill="#f15a24"/>
      </g>
      <g transform="matrix(1, 0, 0, 1, 28.96, -13.42)" filter="url(#Rectangle_104)">
        <rect id="Rectangle_104-2" data-name="Rectangle 104" width="318.3" height="238.95" rx="20" transform="translate(412.74 325.47)" fill="#fff"/>
      </g>
      <path id="Path_54" data-name="Path 54" d="M1415.22,371.76c20.77,0,37.61-16.46,37.61-36.77s-16.84-36.76-37.61-36.76c-1.14,0-2.27.06-3.38.15a15.732,15.732,0,0,0,1.34-6.37,16.28,16.28,0,0,0-16.46-16.09,16.62,16.62,0,0,0-8.13,2.11,48.17,48.17,0,0,0-44.6-29.34c-26.58,0-48.13,21.07-48.13,47.06v.78h-1.55c-21.52,0-39,17.06-39,38.1s17.45,38.25,39,38.09Zm-37.09-42.85" transform="translate(-358 -101)" fill="#252939"/>
      <path id="Path_55" data-name="Path 55" d="M1354.62,373.76c20.77,0,37.61-16.46,37.61-36.77s-16.84-36.76-37.61-36.76c-1.14,0-2.27.06-3.38.15a15.732,15.732,0,0,0,1.34-6.37,16.28,16.28,0,0,0-16.46-16.09A16.619,16.619,0,0,0,1328,280a48.17,48.17,0,0,0-44.6-29.34c-26.58,0-48.13,21.07-48.13,47.06v.78h-1.55c-21.52,0-39,17.06-39,38.1s17.45,38.25,39,38.09Zm-37.09-42.85" transform="translate(-358 -101)" fill="#eaf1f8"/>
      <rect id="Rectangle_105" data-name="Rectangle 105" width="195.56" height="160" rx="8" transform="translate(165 540)" fill="none" stroke="#252939" stroke-linecap="round" stroke-miterlimit="10" stroke-width="6" stroke-dasharray="8 18"/>
      <path id="Path_56" data-name="Path 56" d="M1077,470.71V597.49a10.33,10.33,0,0,1-10.33,10.32H851.37a10.33,10.33,0,0,1-10.32-10.33V470.7a10.32,10.32,0,0,1,10.32-10.32h215.3A10.33,10.33,0,0,1,1077,470.71Z" transform="translate(-358 -101)" fill="#252939"/>
      <rect id="Rectangle_106" data-name="Rectangle 106" width="235.95" height="28.1" transform="translate(483.05 385.45)" fill="#e6e6e6"/>
      <rect id="Rectangle_107" data-name="Rectangle 107" width="235.95" height="5.39" transform="translate(483.05 370.56)" fill="#e6e6e6"/>
      <rect id="Rectangle_108" data-name="Rectangle 108" width="9.48" height="18.5" rx="2" transform="translate(497 473)" fill="#e6e6e6"/>
      <rect id="Rectangle_109" data-name="Rectangle 109" width="9.48" height="18.5" rx="2" transform="translate(497 473)" fill="none" stroke="#e6e6e6" stroke-miterlimit="10" stroke-width="1"/>
      <rect id="Rectangle_110" data-name="Rectangle 110" width="9.48" height="18.5" rx="2" transform="translate(513.24 473)" fill="#e6e6e6"/>
      <rect id="Rectangle_111" data-name="Rectangle 111" width="9.48" height="18.5" rx="2" transform="translate(513.24 473)" fill="none" stroke="#e6e6e6" stroke-miterlimit="10" stroke-width="1"/>
      <rect id="Rectangle_112" data-name="Rectangle 112" width="9.48" height="18.5" rx="2" transform="translate(529.49 473)" fill="#e6e6e6"/>
      <rect id="Rectangle_113" data-name="Rectangle 113" width="9.48" height="18.5" rx="2" transform="translate(529.49 473)" fill="none" stroke="#e6e6e6" stroke-miterlimit="10" stroke-width="1"/>
      <rect id="Rectangle_114" data-name="Rectangle 114" width="9.48" height="18.5" rx="2" transform="translate(545.73 473)" fill="#e6e6e6"/>
      <rect id="Rectangle_115" data-name="Rectangle 115" width="9.48" height="18.5" rx="2" transform="translate(545.73 473)" fill="none" stroke="#e6e6e6" stroke-miterlimit="10" stroke-width="1"/>
      <rect id="Rectangle_116" data-name="Rectangle 116" width="9.48" height="18.5" rx="2" transform="translate(561.98 473)" fill="#e6e6e6"/>
      <rect id="Rectangle_117" data-name="Rectangle 117" width="9.48" height="18.5" rx="2" transform="translate(561.98 473)" fill="none" stroke="#e6e6e6" stroke-miterlimit="10" stroke-width="1"/>
      <rect id="Rectangle_118" data-name="Rectangle 118" width="9.48" height="18.5" rx="2" transform="translate(578.22 473)" fill="#e6e6e6"/>
      <rect id="Rectangle_119" data-name="Rectangle 119" width="9.48" height="18.5" rx="2" transform="translate(578.22 473)" fill="none" stroke="#e6e6e6" stroke-miterlimit="10" stroke-width="1"/>
      <rect id="Rectangle_120" data-name="Rectangle 120" width="134" height="111" rx="8" transform="translate(133 610)" fill="#f15a24"/>
      <line id="Line_69" data-name="Line 69" y1="22.45" x2="26.42" transform="translate(263.93 591.39)" fill="none" stroke="#f15a24" stroke-linecap="round" stroke-miterlimit="10" stroke-width="6"/>
      <line id="Line_70" data-name="Line 70" x1="1.09" y2="13.42" transform="translate(291.9 589.15)" fill="none" stroke="#f15a24" stroke-linecap="round" stroke-miterlimit="10" stroke-width="5"/>
      <line id="Line_71" data-name="Line 71" x2="14.17" y2="1.15" transform="translate(278.82 588)" fill="none" stroke="#f15a24" stroke-linecap="round" stroke-miterlimit="10" stroke-width="5"/>
      <path id="Path_57" data-name="Path 57" d="M656.81,325.62c0-38.25,18.48-69.26,41.28-69.26s41.29,31,41.29,69.26" transform="translate(-358 -101)" fill="#252939"/>
      <circle id="Ellipse_60" data-name="Ellipse 60" cx="22.23" cy="22.23" r="22.23" transform="translate(317.86 106.57)" fill="#252939"/>
      <path id="Path_58" data-name="Path 58" d="M560.13,318c0-32.55,15.73-58.93,35.12-58.93s35.12,26.38,35.12,58.93" transform="translate(-358 -101)" fill="#252939"/>
      <circle id="Ellipse_61" data-name="Ellipse 61" cx="18.91" cy="18.91" r="18.91" transform="translate(218.34 116.35)" fill="#252939"/>
      <path id="Path_59" data-name="Path 59" d="M602,348.46C602,309,621.07,277,644.6,277s42.59,32,42.59,71.46" transform="translate(-358 -101)" fill="#252939" stroke="#fff" stroke-miterlimit="10" stroke-width="2"/>
      <circle id="Ellipse_62" data-name="Ellipse 62" cx="22.93" cy="22.93" r="22.93" transform="translate(263.67 123.44)" fill="#252939"/>
      <g transform="matrix(1, 0, 0, 1, 28.96, -13.42)" filter="url(#Rectangle_122)">
        <rect id="Rectangle_122-2" data-name="Rectangle 122" width="276.06" height="243.25" rx="20" transform="translate(773.03 533.52)" fill="#fff"/>
      </g>
      <circle id="Ellipse_63" data-name="Ellipse 63" cx="53.14" cy="53.14" r="53.14" transform="translate(850.31 610.8)" fill="#252939" stroke="#252939" stroke-miterlimit="10" stroke-width="1"/>
      <rect id="Rectangle_123" data-name="Rectangle 123" width="21.62" height="14.41" rx="2" transform="translate(945.79 655.84)" fill="#252939"/>
      <rect id="Rectangle_124" data-name="Rectangle 124" width="21.62" height="14.41" rx="2" transform="translate(945.79 655.84)" fill="none" stroke="#252939" stroke-linejoin="round" stroke-width="2"/>
      <rect id="Rectangle_125" data-name="Rectangle 125" width="14.41" height="21.62" rx="2" transform="translate(895.34 599.99)" fill="#252939"/>
      <rect id="Rectangle_126" data-name="Rectangle 126" width="14.41" height="21.62" rx="2" transform="translate(895.34 599.99)" fill="none" stroke="#252939" stroke-linejoin="round" stroke-width="2"/>
      <rect id="Rectangle_127" data-name="Rectangle 127" width="14.41" height="21.62" rx="2" transform="translate(897.15 703.73)" fill="#252939"/>
      <rect id="Rectangle_128" data-name="Rectangle 128" width="14.41" height="21.62" rx="2" transform="translate(897.15 703.73)" fill="none" stroke="#252939" stroke-linejoin="round" stroke-width="2"/>
      <rect id="Rectangle_129" data-name="Rectangle 129" width="21.62" height="14.41" rx="2" transform="translate(841.3 655.84)" fill="#252939"/>
      <rect id="Rectangle_130" data-name="Rectangle 130" width="21.62" height="14.41" rx="2" transform="translate(841.3 655.84)" fill="none" stroke="#252939" stroke-linejoin="round" stroke-width="2"/>
      <rect id="Rectangle_131" data-name="Rectangle 131" width="21.62" height="14.41" rx="2" transform="translate(927.653 627.766) rotate(-45)" fill="#252939"/>
      <rect id="Rectangle_132" data-name="Rectangle 132" width="21.62" height="14.41" rx="2" transform="translate(927.653 627.766) rotate(-45)" fill="none" stroke="#252939" stroke-linejoin="round" stroke-width="2"/>
      <rect id="Rectangle_133" data-name="Rectangle 133" width="21.62" height="14.41" rx="2" transform="translate(852.13 701.825) rotate(-45)" fill="#252939"/>
      <rect id="Rectangle_134" data-name="Rectangle 134" width="21.62" height="14.41" rx="2" transform="translate(852.13 701.825) rotate(-45)" fill="none" stroke="#252939" stroke-linejoin="round" stroke-width="2"/>
      <rect id="Rectangle_135" data-name="Rectangle 135" width="14.41" height="21.62" rx="2" transform="translate(852.133 624.662) rotate(-45)" fill="#252939"/>
      <rect id="Rectangle_136" data-name="Rectangle 136" width="14.41" height="21.62" rx="2" transform="translate(852.133 624.662) rotate(-45)" fill="none" stroke="#252939" stroke-linejoin="round" stroke-width="2"/>
      <rect id="Rectangle_137" data-name="Rectangle 137" width="14.41" height="21.62" rx="2" transform="translate(925.997 698.532) rotate(-45)" fill="#252939"/>
      <rect id="Rectangle_138" data-name="Rectangle 138" width="14.41" height="21.62" rx="2" transform="translate(925.997 698.532) rotate(-45)" fill="none" stroke="#252939" stroke-linejoin="round" stroke-width="2"/>
      <circle id="Ellipse_64" data-name="Ellipse 64" cx="26.12" cy="26.12" r="26.12" transform="translate(877.69 638.35)" fill="#fff"/>
      <circle id="Ellipse_65" data-name="Ellipse 65" cx="36.67" cy="36.67" r="36.67" transform="translate(956.92 571.38)" fill="#252939" stroke="#252939" stroke-miterlimit="10" stroke-width="1"/>
      <rect id="Rectangle_139" data-name="Rectangle 139" width="9.94" height="14.92" rx="1" transform="translate(1022.504 614.4) rotate(-86.12)" fill="#252939"/>
      <rect id="Rectangle_140" data-name="Rectangle 140" width="9.94" height="14.92" rx="1" transform="translate(1022.504 614.4) rotate(-86.12)" fill="none" stroke="#252939" stroke-linejoin="round" stroke-width="2"/>
      <rect id="Rectangle_141" data-name="Rectangle 141" width="14.92" height="9.94" rx="1" transform="translate(990.045 578.558) rotate(-86.12)" fill="#252939"/>
      <rect id="Rectangle_142" data-name="Rectangle 142" width="14.92" height="9.94" rx="1" transform="translate(990.045 578.558) rotate(-86.12)" fill="none" stroke="#252939" stroke-linejoin="round" stroke-width="2"/>
      <rect id="Rectangle_143" data-name="Rectangle 143" width="14.957" height="9.964" rx="1.002" transform="translate(991.311 649.04) rotate(-85.996)" fill="#252939"/>
      <rect id="Rectangle_144" data-name="Rectangle 144" width="14.957" height="9.964" rx="1.002" transform="translate(991.311 649.04) rotate(-85.996)" fill="none" stroke="#252939" stroke-linejoin="round" stroke-width="2.005"/>
      <rect id="Rectangle_145" data-name="Rectangle 145" width="9.94" height="14.92" rx="1" transform="translate(950.567 609.525) rotate(-86.12)" fill="#252939"/>
      <rect id="Rectangle_146" data-name="Rectangle 146" width="9.94" height="14.92" rx="1" transform="translate(950.567 609.525) rotate(-86.12)" fill="none" stroke="#252939" stroke-linejoin="round" stroke-width="2"/>
      <rect id="Rectangle_147" data-name="Rectangle 147" width="14.92" height="9.94" rx="1" transform="translate(1011.947 584.311) rotate(-41.12)" fill="#252939"/>
      <rect id="Rectangle_148" data-name="Rectangle 148" width="14.92" height="9.94" rx="1" transform="translate(1011.947 584.311) rotate(-41.12)" fill="none" stroke="#252939" stroke-linejoin="round" stroke-width="2"/>
      <rect id="Rectangle_149" data-name="Rectangle 149" width="14.92" height="9.94" rx="1" transform="translate(956.493 631.788) rotate(-41.12)" fill="#252939"/>
      <rect id="Rectangle_150" data-name="Rectangle 150" width="14.92" height="9.94" rx="1" transform="translate(956.493 631.788) rotate(-41.12)" fill="none" stroke="#252939" stroke-linejoin="round" stroke-width="2"/>
      <rect id="Rectangle_151" data-name="Rectangle 151" width="9.94" height="14.92" rx="1" transform="translate(960.09 578.669) rotate(-41.12)" fill="#252939"/>
      <rect id="Rectangle_152" data-name="Rectangle 152" width="9.94" height="14.92" rx="1" transform="translate(960.09 578.669) rotate(-41.12)" fill="none" stroke="#252939" stroke-linejoin="round" stroke-width="2"/>
      <rect id="Rectangle_153" data-name="Rectangle 153" width="9.94" height="14.92" rx="1" transform="translate(1007.505 632.966) rotate(-41.12)" fill="#252939"/>
      <rect id="Rectangle_154" data-name="Rectangle 154" width="9.94" height="14.92" rx="1" transform="translate(1007.505 632.966) rotate(-41.12)" fill="none" stroke="#252939" stroke-linejoin="round" stroke-width="2"/>
      <circle id="Ellipse_66" data-name="Ellipse 66" cx="18.02" cy="18.02" r="18.02" transform="translate(975.46 590.6)" fill="#fff"/>
    </g>
  </g>
</svg>
