<svg
  width="1000"
  height="660"
  viewBox="0 0 1000 660"
  fill="none"
  xmlns="http://www.w3.org/2000/svg"
>
  <g id="graphic-cost_effective">
    <path
      id="square"
      d="M595.635 157.019H81.5905C71.8513 157.019 63.9561 164.753 63.9561 174.294V609.744C63.9561 619.285 71.8513 627.019 81.5905 627.019H595.635C605.374 627.019 613.269 619.285 613.269 609.744V174.294C613.269 164.753 605.374 157.019 595.635 157.019Z"
      fill="#030430"
    />
    <path
      id="square_2"
      d="M900.422 74.5159H496.143C486.404 74.5159 478.509 82.4111 478.509 92.1503V440.272C478.509 450.011 486.404 457.906 496.143 457.906H900.422C910.161 457.906 918.056 450.011 918.056 440.272V92.1503C918.056 82.4111 910.161 74.5159 900.422 74.5159Z"
      fill="#339BFC"
    />
    <path
      id="circ"
      d="M473.045 660C495.136 660 513.045 642.091 513.045 620C513.045 597.909 495.136 580 473.045 580C450.954 580 433.045 597.909 433.045 620C433.045 642.091 450.954 660 473.045 660Z"
      fill="#339BFC"
    />
    <g id="circ-pattern">
      <path
        id="Ellipse 43"
        d="M8.51198 249.45C13.213 249.45 17.024 245.662 17.024 240.988C17.024 236.315 13.213 232.526 8.51198 232.526C3.81094 232.526 0 236.315 0 240.988C0 245.662 3.81094 249.45 8.51198 249.45Z"
        fill="#339BFC"
      />
      <path
        id="Ellipse 44"
        d="M32.8333 249.45C37.5343 249.45 41.3453 245.662 41.3453 240.988C41.3453 236.315 37.5343 232.526 32.8333 232.526C28.1322 232.526 24.3213 236.315 24.3213 240.988C24.3213 245.662 28.1322 249.45 32.8333 249.45Z"
        fill="#339BFC"
      />
      <path
        id="Ellipse 45"
        d="M57.1673 249.145C61.8683 249.145 65.6792 245.356 65.6792 240.683C65.6792 236.01 61.8683 232.221 57.1673 232.221C52.4662 232.221 48.6553 236.01 48.6553 240.683C48.6553 245.356 52.4662 249.145 57.1673 249.145Z"
        fill="#339BFC"
      />
      <path
        id="Ellipse 46"
        d="M81.4885 249.145C86.1896 249.145 90.0005 245.356 90.0005 240.683C90.0005 236.01 86.1896 232.221 81.4885 232.221C76.7875 232.221 72.9766 236.01 72.9766 240.683C72.9766 245.356 76.7875 249.145 81.4885 249.145Z"
        fill="#339BFC"
      />
      <path
        id="Ellipse 47"
        d="M8.51198 273.783C13.213 273.783 17.024 269.994 17.024 265.321C17.024 260.647 13.213 256.859 8.51198 256.859C3.81094 256.859 0 260.647 0 265.321C0 269.994 3.81094 273.783 8.51198 273.783Z"
        fill="#339BFC"
      />
      <path
        id="Ellipse 48"
        d="M32.8333 273.783C37.5343 273.783 41.3453 269.994 41.3453 265.321C41.3453 260.647 37.5343 256.859 32.8333 256.859C28.1322 256.859 24.3213 260.647 24.3213 265.321C24.3213 269.994 28.1322 273.783 32.8333 273.783Z"
        fill="#339BFC"
      />
      <path
        id="Ellipse 49"
        d="M57.1673 273.477C61.8683 273.477 65.6792 269.689 65.6792 265.015C65.6792 260.342 61.8683 256.553 57.1673 256.553C52.4662 256.553 48.6553 260.342 48.6553 265.015C48.6553 269.689 52.4662 273.477 57.1673 273.477Z"
        fill="#339BFC"
      />
      <path
        id="Ellipse 50"
        d="M81.4885 273.477C86.1896 273.477 90.0005 269.689 90.0005 265.015C90.0005 260.342 86.1896 256.553 81.4885 256.553C76.7875 256.553 72.9766 260.342 72.9766 265.015C72.9766 269.689 76.7875 273.477 81.4885 273.477Z"
        fill="#339BFC"
      />
      <path
        id="Ellipse 51"
        d="M8.51198 297.888C13.213 297.888 17.024 294.1 17.024 289.426C17.024 284.753 13.213 280.964 8.51198 280.964C3.81094 280.964 0 284.753 0 289.426C0 294.1 3.81094 297.888 8.51198 297.888Z"
        fill="#339BFC"
      />
      <path
        id="Ellipse 52"
        d="M32.8333 297.889C37.5343 297.889 41.3453 294.1 41.3453 289.427C41.3453 284.753 37.5343 280.965 32.8333 280.965C28.1322 280.965 24.3213 284.753 24.3213 289.427C24.3213 294.1 28.1322 297.889 32.8333 297.889Z"
        fill="#339BFC"
      />
      <path
        id="Ellipse 53"
        d="M57.1673 297.583C61.8683 297.583 65.6792 293.795 65.6792 289.121C65.6792 284.448 61.8683 280.659 57.1673 280.659C52.4662 280.659 48.6553 284.448 48.6553 289.121C48.6553 293.795 52.4662 297.583 57.1673 297.583Z"
        fill="#339BFC"
      />
      <path
        id="Ellipse 54"
        d="M81.4885 297.583C86.1896 297.583 90.0005 293.795 90.0005 289.121C90.0005 284.448 86.1896 280.659 81.4885 280.659C76.7875 280.659 72.9766 284.448 72.9766 289.121C72.9766 293.795 76.7875 297.583 81.4885 297.583Z"
        fill="#339BFC"
      />
      <path
        id="Ellipse 55"
        d="M8.51198 322.221C13.213 322.221 17.024 318.432 17.024 313.759C17.024 309.085 13.213 305.297 8.51198 305.297C3.81094 305.297 0 309.085 0 313.759C0 318.432 3.81094 322.221 8.51198 322.221Z"
        fill="#339BFC"
      />
      <path
        id="Ellipse 56"
        d="M32.8333 322.221C37.5343 322.221 41.3453 318.432 41.3453 313.759C41.3453 309.086 37.5343 305.297 32.8333 305.297C28.1322 305.297 24.3213 309.086 24.3213 313.759C24.3213 318.432 28.1322 322.221 32.8333 322.221Z"
        fill="#339BFC"
      />
      <path
        id="Ellipse 57"
        d="M57.1673 321.915C61.8683 321.915 65.6792 318.127 65.6792 313.453C65.6792 308.78 61.8683 304.992 57.1673 304.992C52.4662 304.992 48.6553 308.78 48.6553 313.453C48.6553 318.127 52.4662 321.915 57.1673 321.915Z"
        fill="#339BFC"
      />
      <path
        id="Ellipse 58"
        d="M81.4885 321.916C86.1896 321.916 90.0005 318.127 90.0005 313.454C90.0005 308.78 86.1896 304.992 81.4885 304.992C76.7875 304.992 72.9766 308.78 72.9766 313.454C72.9766 318.127 76.7875 321.916 81.4885 321.916Z"
        fill="#339BFC"
      />
    </g>
    <g id="dotted-paths">
      <path
        id="Path 50"
        d="M165.163 452.484V351.703C165.163 351.703 161.945 333.019 198.431 333.019H349.717"
        stroke="#CCCCCC"
        stroke-width="2.98577"
        stroke-miterlimit="10"
        stroke-linecap="round"
        stroke-dasharray="7.17 9.55"
      />
      <path
        id="Path 51"
        d="M316.75 100.017H427.847C427.847 100.017 448.444 97.8034 448.444 122.897V226.914"
        stroke="#CCCCCC"
        stroke-width="2.98577"
        stroke-miterlimit="10"
        stroke-linecap="round"
        stroke-dasharray="7.17 9.55"
      />
      <path
        id="Path 52"
        d="M662.697 547.859H490.867C490.867 547.859 459.02 549.675 459.02 529.122V443.816"
        stroke="#CCCCCC"
        stroke-width="2.98577"
        stroke-miterlimit="10"
        stroke-linecap="round"
        stroke-dasharray="7.17 9.55"
      />
      <path
        id="Path 53"
        d="M793.071 226.912V315.455C793.071 315.455 796.201 331.873 760.73 331.873H613.623"
        stroke="#CCCCCC"
        stroke-width="2.98577"
        stroke-miterlimit="10"
        stroke-linecap="round"
        stroke-dasharray="7.17 9.55"
      />
    </g>
    <path
      id="circ_2"
      d="M935 393.115C970.899 393.115 1000 364.013 1000 328.115C1000 292.216 970.899 263.115 935 263.115C899.101 263.115 870 292.216 870 328.115C870 364.013 899.101 393.115 935 393.115Z"
      fill="#030430"
    />
    <g id="cc-card">
      <path
        id="Rectangle 104"
        d="M353.783 223.667H599.166C607.801 223.667 614.801 230.667 614.801 239.301V414.72C614.801 423.355 607.801 430.354 599.166 430.354H353.783C345.148 430.354 338.148 423.355 338.148 414.72V239.301C338.148 230.667 345.148 223.667 353.783 223.667Z"
        fill="#F5F5F5"
        stroke="#101010"
        stroke-width="4"
      />
      <g id="credit-card">
        <path
          id="cc-bg"
          d="M580.042 271.108V382.893C580.04 385.307 579.079 387.622 577.372 389.328C575.664 391.034 573.348 391.992 570.934 391.992H381.099C378.685 391.99 376.371 391.029 374.665 389.322C372.958 387.614 372 385.298 372 382.884V271.099C372 268.686 372.959 266.372 374.665 264.665C376.372 262.959 378.686 262 381.099 262H570.934C573.35 262 575.667 262.96 577.375 264.668C579.083 266.376 580.042 268.693 580.042 271.108Z"
          fill="#101010"
        />
        <path
          id="cc-stripe"
          d="M580.042 284.988H372V309.764H580.042V284.988Z"
          fill="#339BFC"
        />
        <path
          id="cc-accent"
          d="M580.042 271.859H372V276.611H580.042V271.859Z"
          fill="#88E4C3"
        />
        <g id="cc-bot">
          <path
            id="Rectangle 108"
            d="M391.401 362.179H386.199C385.15 362.179 384.3 363.002 384.3 364.017V377.341C384.3 378.356 385.15 379.179 386.199 379.179H391.401C392.45 379.179 393.3 378.356 393.3 377.341V364.017C393.3 363.002 392.45 362.179 391.401 362.179Z"
            fill="#88E4C3"
          />
          <path
            id="Rectangle 110"
            d="M406.401 362.179H401.199C400.15 362.179 399.3 363.002 399.3 364.017V377.341C399.3 378.356 400.15 379.179 401.199 379.179H406.401C407.45 379.179 408.3 378.356 408.3 377.341V364.017C408.3 363.002 407.45 362.179 406.401 362.179Z"
            fill="#88E4C3"
          />
          <path
            id="Rectangle 112"
            d="M421.401 362.179H416.199C415.15 362.179 414.3 363.002 414.3 364.017V377.341C414.3 378.356 415.15 379.179 416.199 379.179H421.401C422.45 379.179 423.3 378.356 423.3 377.341V364.017C423.3 363.002 422.45 362.179 421.401 362.179Z"
            fill="#88E4C3"
          />
          <path
            id="Rectangle 114"
            d="M436.401 362.179H431.199C430.15 362.179 429.3 363.002 429.3 364.017V377.341C429.3 378.356 430.15 379.179 431.199 379.179H436.401C437.45 379.179 438.3 378.356 438.3 377.341V364.017C438.3 363.002 437.45 362.179 436.401 362.179Z"
            fill="#88E4C3"
          />
          <path
            id="Rectangle 116"
            d="M451.401 362.179H446.199C445.15 362.179 444.3 363.002 444.3 364.017V377.341C444.3 378.356 445.15 379.179 446.199 379.179H451.401C452.45 379.179 453.3 378.356 453.3 377.341V364.017C453.3 363.002 452.45 362.179 451.401 362.179Z"
            fill="#88E4C3"
          />
          <path
            id="Rectangle 118"
            d="M466.401 362.179H461.199C460.15 362.179 459.3 363.002 459.3 364.017V377.341C459.3 378.356 460.15 379.179 461.199 379.179H466.401C467.45 379.179 468.3 378.356 468.3 377.341V364.017C468.3 363.002 467.45 362.179 466.401 362.179Z"
            fill="#88E4C3"
          />
        </g>
      </g>
    </g>
    <g id="gear-card">
      <path
        id="bg"
        d="M675.211 414H883.856C892.523 414 899.533 420.991 899.533 429.595V608.405C899.533 617.009 892.523 624 883.856 624H675.211C666.543 624 659.533 617.009 659.533 608.405V429.595C659.533 420.991 666.543 414 675.211 414Z"
        fill="#F5F5F5"
        stroke="#101010"
        stroke-width="4"
      />
      <g id="gear-sm">
        <g id="gear-teeth">
          <path
            id="Rectangle 189"
            d="M849.78 486.01L849.35 492.355C849.318 492.827 849.674 493.236 850.146 493.268L860.518 493.972C860.989 494.004 861.398 493.647 861.43 493.175L861.86 486.83C861.892 486.357 861.535 485.949 861.063 485.916L850.692 485.212C850.22 485.18 849.812 485.537 849.78 486.01Z"
            fill="#339BFC"
            stroke="#339BFC"
            stroke-width="1.14298"
            stroke-linejoin="round"
          />
          <path
            id="Rectangle 191"
            d="M823.713 452.855L823.009 463.237C822.977 463.709 823.334 464.118 823.805 464.15L830.144 464.58C830.616 464.612 831.025 464.255 831.057 463.783L831.76 453.401C831.792 452.929 831.436 452.52 830.964 452.488L824.625 452.058C824.153 452.026 823.745 452.383 823.713 452.855Z"
            fill="#339BFC"
            stroke="#339BFC"
            stroke-width="1.14298"
            stroke-linejoin="round"
          />
          <path
            id="Rectangle 193"
            d="M820.826 511.217L820.122 521.598C820.09 522.071 820.447 522.48 820.919 522.512L827.258 522.942C827.73 522.974 828.138 522.617 828.17 522.145L828.873 511.763C828.905 511.291 828.549 510.882 828.077 510.85L821.738 510.42C821.266 510.388 820.858 510.745 820.826 511.217Z"
            fill="#339BFC"
            stroke="#339BFC"
            stroke-width="1.14298"
            stroke-linejoin="round"
          />
          <path
            id="Rectangle 195"
            d="M791.406 482.051L790.976 488.396C790.944 488.868 791.3 489.277 791.772 489.309L802.144 490.013C802.615 490.045 803.024 489.688 803.056 489.215L803.486 482.87C803.518 482.398 803.162 481.989 802.69 481.957L792.318 481.253C791.847 481.221 791.438 481.578 791.406 482.051Z"
            fill="#339BFC"
            stroke="#339BFC"
            stroke-width="1.14298"
            stroke-linejoin="round"
          />
          <path
            id="Rectangle 197"
            d="M849.225 461.364L841.394 468.207C841.038 468.518 841.001 469.06 841.312 469.416L845.49 474.208C845.801 474.564 846.342 474.601 846.699 474.29L854.53 467.447C854.886 467.135 854.923 466.594 854.612 466.237L850.433 461.446C850.122 461.089 849.581 461.053 849.225 461.364Z"
            fill="#339BFC"
            stroke="#339BFC"
            stroke-width="1.14298"
            stroke-linejoin="round"
          />
          <g id="Group 1066">
            <path
              id="Rectangle 198"
              d="M804.231 499.93L796.398 506.77C796.042 507.082 796.005 507.623 796.316 507.979L800.496 512.769C800.807 513.126 801.348 513.162 801.705 512.851L809.538 506.011C809.894 505.699 809.931 505.158 809.62 504.802L805.44 500.012C805.129 499.655 804.588 499.619 804.231 499.93Z"
              fill="#339BFC"
            />
            <path
              id="Rectangle 199"
              d="M804.231 499.93L796.398 506.77C796.042 507.082 796.005 507.623 796.316 507.979L800.496 512.769C800.807 513.126 801.348 513.162 801.705 512.851L809.538 506.011C809.894 505.699 809.931 505.158 809.62 504.802L805.44 500.012C805.129 499.655 804.588 499.619 804.231 499.93Z"
              stroke="#339BFC"
              stroke-width="1.14298"
              stroke-linejoin="round"
            />
          </g>
          <path
            id="Rectangle 201"
            d="M804.109 459.436L799.323 463.618C798.967 463.93 798.93 464.471 799.241 464.828L806.077 472.666C806.388 473.023 806.929 473.06 807.285 472.748L812.072 468.566C812.428 468.255 812.464 467.713 812.153 467.357L805.317 459.518C805.006 459.161 804.465 459.124 804.109 459.436Z"
            fill="#339BFC"
            stroke="#339BFC"
            stroke-width="1.14298"
            stroke-linejoin="round"
          />
          <path
            id="Rectangle 203"
            d="M842.569 503.539L837.783 507.721C837.426 508.033 837.39 508.574 837.701 508.931L844.537 516.769C844.848 517.126 845.389 517.163 845.745 516.851L850.531 512.669C850.888 512.358 850.924 511.816 850.613 511.46L843.777 503.621C843.466 503.264 842.925 503.227 842.569 503.539Z"
            fill="#339BFC"
            stroke="#339BFC"
            stroke-width="1.14298"
            stroke-linejoin="round"
          />
        </g>
        <g id="gear-body">
          <path
            id="Ellipse 87"
            d="M825.854 517.852C842.287 517.852 855.609 504.516 855.609 488.067C855.609 471.617 842.287 458.282 825.854 458.282C809.421 458.282 796.099 471.617 796.099 488.067C796.099 504.516 809.421 517.852 825.854 517.852Z"
            fill="#339BFC"
            stroke="#339BFC"
            stroke-width="0.571488"
            stroke-miterlimit="10"
          />
          <path
            id="Ellipse 88"
            d="M825.759 503.162C833.831 503.162 840.376 496.611 840.376 488.531C840.376 480.45 833.831 473.9 825.759 473.9C817.687 473.9 811.143 480.45 811.143 488.531C811.143 496.611 817.687 503.162 825.759 503.162Z"
            fill="#F5F5F5"
          />
        </g>
      </g>
      <g id="gear-lg">
        <g id="gear-teeth_2">
          <path
            id="Rectangle 189_2"
            d="M786.708 527.095L786.746 536.321C786.749 537.008 787.307 537.563 787.993 537.56L803.073 537.5C803.759 537.498 804.313 536.939 804.31 536.252L804.273 527.026C804.27 526.339 803.712 525.785 803.026 525.787L787.945 525.847C787.259 525.85 786.706 526.408 786.708 527.095Z"
            fill="#030430"
            stroke="#030430"
            stroke-width="1.14298"
            stroke-linejoin="round"
          />
          <path
            id="Rectangle 191_2"
            d="M745.543 481.831L745.604 496.926C745.607 497.613 746.166 498.168 746.852 498.165L756.069 498.129C756.755 498.126 757.309 497.567 757.306 496.88L757.244 481.785C757.241 481.098 756.683 480.544 755.997 480.547L746.78 480.583C746.094 480.586 745.54 481.145 745.543 481.831Z"
            fill="#030430"
            stroke="#030430"
            stroke-width="1.14298"
            stroke-linejoin="round"
          />
          <path
            id="Rectangle 193_2"
            d="M747.431 566.58L747.493 581.675C747.496 582.362 748.054 582.916 748.74 582.913L757.957 582.877C758.643 582.874 759.197 582.316 759.194 581.629L759.133 566.534C759.13 565.847 758.572 565.293 757.886 565.295L748.669 565.332C747.983 565.334 747.429 565.893 747.431 566.58Z"
            fill="#030430"
            stroke="#030430"
            stroke-width="1.14298"
            stroke-linejoin="round"
          />
          <path
            id="Rectangle 195_2"
            d="M701.831 527.436L701.868 536.662C701.871 537.348 702.429 537.903 703.115 537.9L718.195 537.84C718.881 537.837 719.435 537.278 719.433 536.592L719.395 527.366C719.393 526.679 718.834 526.124 718.148 526.127L703.068 526.187C702.382 526.19 701.828 526.749 701.831 527.436Z"
            fill="#030430"
            stroke="#030430"
            stroke-width="1.14298"
            stroke-linejoin="round"
          />
          <path
            id="Rectangle 197_2"
            d="M783.343 491.491L772.723 502.207C772.24 502.695 772.243 503.482 772.731 503.966L779.275 510.464C779.762 510.948 780.548 510.945 781.031 510.457L791.651 499.741C792.134 499.254 792.131 498.466 791.644 497.983L785.1 491.485C784.613 491.001 783.826 491.004 783.343 491.491Z"
            fill="#030430"
            stroke="#030430"
            stroke-width="1.14298"
            stroke-linejoin="round"
          />
          <g id="Group 1066_2">
            <path
              id="Rectangle 198_2"
              d="M722.245 551.973L711.622 562.686C711.139 563.173 711.142 563.96 711.629 564.443L718.175 570.94C718.663 571.423 719.449 571.42 719.933 570.933L730.556 560.22C731.039 559.733 731.036 558.946 730.549 558.462L724.003 551.966C723.515 551.483 722.729 551.486 722.245 551.973Z"
              fill="#030430"
            />
            <path
              id="Rectangle 199_2"
              d="M722.245 551.973L711.622 562.686C711.139 563.173 711.142 563.96 711.629 564.443L718.175 570.94C718.663 571.423 719.449 571.42 719.933 570.933L730.556 560.22C731.039 559.733 731.036 558.946 730.549 558.462L724.003 551.966C723.515 551.483 722.729 551.486 722.245 551.973Z"
              stroke="#030430"
              stroke-width="1.14298"
              stroke-linejoin="round"
            />
          </g>
          <path
            id="Rectangle 201_2"
            d="M717.86 493.391L711.369 499.941C710.886 500.429 710.889 501.216 711.376 501.699L722.083 512.331C722.57 512.815 723.356 512.812 723.84 512.324L730.33 505.775C730.814 505.287 730.81 504.5 730.323 504.016L719.617 493.385C719.129 492.901 718.343 492.904 717.86 493.391Z"
            fill="#030430"
            stroke="#030430"
            stroke-width="1.14298"
            stroke-linejoin="round"
          />
          <path
            id="Rectangle 203_2"
            d="M778.096 553.209L771.605 559.759C771.122 560.246 771.125 561.034 771.612 561.517L782.319 572.149C782.806 572.633 783.593 572.63 784.076 572.142L790.567 565.593C791.05 565.105 791.047 564.318 790.56 563.834L779.853 553.202C779.366 552.719 778.579 552.722 778.096 553.209Z"
            fill="#030430"
            stroke="#030430"
            stroke-width="1.14298"
            stroke-linejoin="round"
          />
        </g>
        <g id="gear-body_2">
          <path
            id="Ellipse 87_2"
            d="M755.399 575.657C779.178 573.949 797.068 553.268 795.358 529.466C793.647 505.663 772.984 487.752 749.206 489.461C725.427 491.169 707.537 511.85 709.247 535.653C710.957 559.455 731.62 577.366 755.399 575.657Z"
            fill="#030430"
            stroke="#030430"
            stroke-width="0.571488"
            stroke-miterlimit="10"
          />
          <path
            id="Ellipse 88_2"
            d="M753.735 554.411C765.416 553.572 774.204 543.413 773.364 531.721C772.523 520.029 762.373 511.231 750.693 512.07C739.012 512.909 730.224 523.068 731.064 534.76C731.904 546.453 742.054 555.251 753.735 554.411Z"
            fill="#F5F5F5"
          />
        </g>
      </g>
    </g>
    <g id="moving-box-card">
      <path
        id="bg_2"
        d="M31.3854 388.81H291.705C300.34 388.81 307.34 395.81 307.34 404.445V588.539C307.34 597.174 300.34 604.174 291.705 604.174H31.3854C22.7508 604.174 15.751 597.174 15.751 588.539V404.445C15.751 395.81 22.7508 388.81 31.3854 388.81Z"
        fill="#F5F5F5"
        stroke="#101010"
        stroke-width="4"
      />
      <g id="box-movement">
        <path
          id="Rectangle 105"
          d="M93.453 417.585C91.8219 418.296 90.5118 419.606 89.8006 421.237L91.1127 421.497L90.8216 422.968C90.7523 423.318 90.7158 423.681 90.7158 424.054V426.038V427.538H89.2158V436.441H90.7158V437.941V441.909V443.409H89.2158V452.312H90.7158V453.812V457.78V459.28H89.2158V468.183H90.7158V469.683V473.651V475.151H89.2158V484.054H90.7158V485.554V489.522V491.022H89.2158V499.925H90.7158V501.425V505.393V506.893H89.2158V515.796H90.7158V517.296V521.264V522.764H89.2158V531.667H90.7158V533.167V537.135V538.635H89.2158V547.538H90.7158V549.038V551.022C90.7158 551.395 90.7523 551.757 90.8216 552.107L91.1127 553.579L89.8006 553.838C90.5118 555.47 91.8219 556.78 93.453 557.491L93.7126 556.179L95.1841 556.47C95.534 556.539 95.8968 556.576 96.2696 556.576H98.2486H99.7486V558.076H108.623V556.576H110.123H114.081H115.581V558.076H124.455V556.576H125.955H129.913H131.413V558.076H140.287V556.576H141.787H145.745H147.245V558.076H156.119V556.576H157.619H161.577H163.077V558.076H171.952V556.576H173.452H177.41H178.91V558.076H187.784V556.576H189.284H193.242H194.742V558.076H203.616V556.576H205.116H209.074H210.574V558.076H219.448V556.576H220.948H224.906H226.406V558.076H235.28V556.576H236.78H240.738H242.238V558.076H251.113V556.576H252.613H254.592C254.965 556.576 255.327 556.539 255.677 556.47L257.149 556.179L257.408 557.491C259.039 556.78 260.349 555.47 261.061 553.838L259.749 553.579L260.04 552.107C260.109 551.757 260.145 551.395 260.145 551.022V549.038V547.538H261.645V538.635H260.145V537.135V533.167V531.667H261.645V522.764H260.145V521.264V517.296V515.796H261.645V506.893H260.145V505.393V501.425V499.925H261.645V491.022H260.145V489.522V485.554V484.054H261.645V475.151H260.145V473.651V469.683V468.183H261.645V459.28H260.145V457.78V453.812V452.312H261.645V443.409H260.145V441.909V437.941V436.441H261.645V427.538H260.145V426.038V424.054C260.145 423.681 260.109 423.318 260.04 422.968L259.749 421.497L261.061 421.237C260.349 419.606 259.039 418.296 257.408 417.585L257.149 418.897L255.677 418.606C255.327 418.537 254.965 418.5 254.592 418.5H252.613H251.113V417H242.238V418.5H240.738H236.78H235.28V417H226.406V418.5H224.906H220.948H219.448V417H210.574V418.5H209.074H205.116H203.616V417H194.742V418.5H193.242H189.284H187.784V417H178.91V418.5H177.41H173.452H171.952V417H163.077V418.5H161.577H157.619H156.119V417H147.245V418.5H145.745H141.787H140.287V417H131.413V418.5H129.913H125.955H124.455V417H115.581V418.5H114.081H110.123H108.623V417H99.7486V418.5H98.2486H96.2696C95.8968 418.5 95.534 418.537 95.1841 418.606L93.7126 418.897L93.453 417.585Z"
          stroke="#101010"
          stroke-width="3"
          stroke-miterlimit="5.75877"
          stroke-linecap="square"
          stroke-dasharray="4 12"
        />
        <path
          id="Rectangle 120"
          d="M172.097 478.722H68.0538C64.1581 478.722 61 481.88 61 485.775V569.539C61 573.435 64.1581 576.593 68.0538 576.593H172.097C175.993 576.593 179.151 573.435 179.151 569.539V485.775C179.151 481.88 175.993 478.722 172.097 478.722Z"
          fill="#151779"
        />
        <g id="Group 702">
          <path
            id="Line 69"
            d="M176.446 482.108L199.741 462.313"
            stroke="#151779"
            stroke-width="3.58292"
            stroke-miterlimit="10"
            stroke-linecap="round"
          />
          <path
            id="Line 70"
            d="M202.068 460.338L201.107 472.17"
            stroke="#151779"
            stroke-width="2.98577"
            stroke-miterlimit="10"
            stroke-linecap="round"
          />
          <path
            id="Line 71"
            d="M189.578 459.323L202.072 460.337"
            stroke="#151779"
            stroke-width="2.98577"
            stroke-miterlimit="10"
            stroke-linecap="round"
          />
        </g>
      </g>
    </g>
    <g id="profiles-card">
      <path
        id="bg_3"
        d="M100.108 2H304.606C313.241 2 320.24 8.99978 320.24 17.6344V193.635C320.24 202.27 313.241 209.27 304.606 209.27H100.108C91.4734 209.27 84.4736 202.27 84.4736 193.635V17.6344C84.4736 8.99978 91.4734 2 100.108 2Z"
        fill="#F5F5F5"
        stroke="#101010"
        stroke-width="4"
      />
      <g id="profiles">
        <g id="p3">
          <path
            id="Path 57"
            d="M208.245 147.588C208.245 113.862 224.539 86.52 244.643 86.52C264.746 86.52 281.049 113.853 281.049 147.588"
            fill="#101010"
          />
          <path
            id="Ellipse 60"
            d="M244.64 82.7033C255.465 82.7033 264.24 73.9278 264.24 63.1026C264.24 52.2775 255.465 43.502 244.64 43.502C233.815 43.502 225.039 52.2775 225.039 63.1026C225.039 73.9278 233.815 82.7033 244.64 82.7033Z"
            fill="#101010"
          />
        </g>
        <g id="p1">
          <path
            id="Path 58"
            d="M123 140.868C123 112.168 136.869 88.9083 153.966 88.9083C171.063 88.9083 184.932 112.168 184.932 140.868"
            fill="#151779"
          />
          <path
            id="Ellipse 61"
            d="M153.963 85.4703C163.172 85.4703 170.637 78.0054 170.637 68.7969C170.637 59.5885 163.172 52.1235 153.963 52.1235C144.755 52.1235 137.29 59.5885 137.29 68.7969C137.29 78.0054 144.755 85.4703 153.963 85.4703Z"
            fill="#151779"
          />
        </g>
        <g id="p2">
          <g id="Path 59">
            <path
              d="M159.915 167.729C159.915 132.936 176.729 104.721 197.476 104.721C218.223 104.721 235.029 132.936 235.029 167.729"
              fill="#88E4C3"
            />
            <path
              d="M159.915 167.729C159.915 132.936 176.729 104.721 197.476 104.721C218.223 104.721 235.029 132.936 235.029 167.729"
              stroke="#F5F5F5"
              stroke-width="3"
              stroke-miterlimit="10"
            />
          </g>
          <path
            id="Ellipse 62"
            d="M217.197 78.5947C217.197 89.4846 208.369 98.3126 197.479 98.3126C186.589 98.3126 177.761 89.4846 177.761 78.5947C177.761 67.7048 186.589 58.8768 197.479 58.8768C208.369 58.8768 217.197 67.7048 217.197 78.5947Z"
            fill="#88E4C3"
            stroke="#F5F5F5"
          />
        </g>
      </g>
    </g>
    <g id="cloud-card">
      <path
        id="bg_4"
        d="M658.236 32H943.032C951.667 32 958.667 38.9998 958.667 47.6344V207.226C958.667 215.861 951.667 222.861 943.032 222.861H658.236C649.601 222.861 642.602 215.861 642.602 207.226V47.6344C642.602 38.9998 649.601 32 658.236 32Z"
        fill="#F5F5F5"
        stroke="#101010"
        stroke-width="4"
      />
      <g id="clouds">
        <path
          id="Path 54"
          d="M881.419 180.462C899.732 180.462 914.581 165.949 914.581 148.041C914.581 130.134 899.732 115.629 881.419 115.629C880.414 115.629 879.417 115.682 878.439 115.762C879.22 113.992 879.622 112.079 879.62 110.145C879.576 106.339 878.023 102.707 875.301 100.047C872.579 97.3864 868.913 95.9157 865.107 95.9581C862.598 95.9542 860.13 96.5948 857.939 97.8185C854.665 90.1095 849.185 83.5406 842.188 78.9376C835.191 74.3346 826.989 71.9031 818.614 71.9488C795.178 71.9488 776.177 90.5266 776.177 113.443V114.13H774.81C755.835 114.13 740.423 129.173 740.423 147.724C740.423 166.275 755.809 181.45 774.81 181.309L881.419 180.462Z"
          fill="#101010"
        />
        <path
          id="Path 55"
          d="M827.987 180.725L827.976 180.725L721.376 181.545C721.376 181.545 721.376 181.545 721.376 181.545C703.189 181.68 688.5 167.16 688.5 149.46C688.5 131.771 703.207 117.367 721.387 117.367H722.754H724.254V115.867V115.179C724.254 93.123 742.551 75.1851 765.191 75.1851L765.199 75.1851C773.279 75.141 781.191 77.4867 787.941 81.9271C794.691 86.3675 799.977 92.7045 803.135 100.141L803.786 101.674L805.243 100.867C807.209 99.7782 809.422 99.2114 811.669 99.2208L811.681 99.2209L811.692 99.2207C815.1 99.1828 818.384 100.5 820.821 102.882C823.256 105.263 824.647 108.513 824.689 111.918C824.689 113.64 824.33 115.343 823.635 116.919L822.618 119.223L825.128 119.019C826.08 118.942 827.034 118.892 827.987 118.892C845.505 118.892 859.649 132.757 859.649 149.804C859.649 166.852 845.505 180.725 827.987 180.725Z"
          fill="#F5F5F5"
          stroke="#101010"
          stroke-width="3"
        />
      </g>
    </g>
  </g>
</svg>
