<svg
  width="1000"
  height="660"
  viewBox="0 0 1000 660"
  fill="none"
  xmlns="http://www.w3.org/2000/svg"
>
  <g id="graphic-secure">
    <g id="decorations">
      <path
        id="square"
        d="M937.127 148.187H459.254C450.006 148.187 442.51 155.691 442.51 164.949V587.474C442.51 596.732 450.006 604.237 459.254 604.237H937.127C946.374 604.237 953.871 596.732 953.871 587.474V164.949C953.871 155.691 946.374 148.187 937.127 148.187Z"
        fill="#030430"
      />
      <path
        id="square_2"
        d="M557.207 69.2214H173.343C164.095 69.2214 156.599 76.7261 156.599 85.9837V416.887C156.599 426.144 164.095 433.649 173.343 433.649H557.207C566.454 433.649 573.951 426.144 573.951 416.887V85.9837C573.951 76.7261 566.454 69.2214 557.207 69.2214Z"
        fill="#88E4C3"
      />
      <path
        id="circ"
        d="M50 224.997C77.6142 224.997 100 202.612 100 174.997C100 147.383 77.6142 124.997 50 124.997C22.3858 124.997 0 147.383 0 174.997C0 202.612 22.3858 224.997 50 224.997Z"
        fill="#030430"
      />
      <path
        id="circ_2"
        d="M936 400.222C971.346 400.222 1000 371.568 1000 336.222C1000 300.875 971.346 272.222 936 272.222C900.654 272.222 872 300.875 872 336.222C872 371.568 900.654 400.222 936 400.222Z"
        fill="#88E4C3"
      />
      <g id="circ-pattern">
        <path
          id="Ellipse 98"
          d="M496.503 564.434C501.465 564.434 505.488 560.434 505.488 555.501C505.488 550.568 501.465 546.569 496.503 546.569C491.54 546.569 487.518 550.568 487.518 555.501C487.518 560.434 491.54 564.434 496.503 564.434Z"
          fill="#88E4C3"
        />
        <path
          id="Ellipse 99"
          d="M522.183 564.434C527.145 564.434 531.168 560.435 531.168 555.502C531.168 550.568 527.145 546.569 522.183 546.569C517.22 546.569 513.197 550.568 513.197 555.502C513.197 560.435 517.22 564.434 522.183 564.434Z"
          fill="#88E4C3"
        />
        <path
          id="Ellipse 100"
          d="M547.864 564.112C552.827 564.112 556.849 560.113 556.849 555.18C556.849 550.246 552.827 546.247 547.864 546.247C542.902 546.247 538.879 550.246 538.879 555.18C538.879 560.113 542.902 564.112 547.864 564.112Z"
          fill="#88E4C3"
        />
        <path
          id="Ellipse 101"
          d="M573.532 564.112C578.495 564.112 582.517 560.112 582.517 555.179C582.517 550.246 578.495 546.247 573.532 546.247C568.57 546.247 564.547 550.246 564.547 555.179C564.547 560.112 568.57 564.112 573.532 564.112Z"
          fill="#88E4C3"
        />
        <path
          id="Ellipse 102"
          d="M496.503 590.116C501.465 590.116 505.488 586.117 505.488 581.184C505.488 576.251 501.465 572.252 496.503 572.252C491.54 572.252 487.518 576.251 487.518 581.184C487.518 586.117 491.54 590.116 496.503 590.116Z"
          fill="#88E4C3"
        />
        <path
          id="Ellipse 103"
          d="M522.183 590.116C527.145 590.116 531.168 586.117 531.168 581.184C531.168 576.251 527.145 572.252 522.183 572.252C517.22 572.252 513.197 576.251 513.197 581.184C513.197 586.117 517.22 590.116 522.183 590.116Z"
          fill="#88E4C3"
        />
        <path
          id="Ellipse 104"
          d="M547.864 589.798C552.827 589.798 556.849 585.799 556.849 580.866C556.849 575.933 552.827 571.934 547.864 571.934C542.902 571.934 538.879 575.933 538.879 580.866C538.879 585.799 542.902 589.798 547.864 589.798Z"
          fill="#88E4C3"
        />
        <path
          id="Ellipse 105"
          d="M573.532 589.799C578.495 589.799 582.517 585.799 582.517 580.866C582.517 575.933 578.495 571.934 573.532 571.934C568.57 571.934 564.547 575.933 564.547 580.866C564.547 585.799 568.57 589.799 573.532 589.799Z"
          fill="#88E4C3"
        />
        <path
          id="Ellipse 106"
          d="M496.503 615.564C501.465 615.564 505.488 611.565 505.488 606.632C505.488 601.699 501.465 597.7 496.503 597.7C491.54 597.7 487.518 601.699 487.518 606.632C487.518 611.565 491.54 615.564 496.503 615.564Z"
          fill="#88E4C3"
        />
        <path
          id="Ellipse 107"
          d="M522.183 615.564C527.145 615.564 531.168 611.565 531.168 606.632C531.168 601.699 527.145 597.7 522.183 597.7C517.22 597.7 513.197 601.699 513.197 606.632C513.197 611.565 517.22 615.564 522.183 615.564Z"
          fill="#88E4C3"
        />
        <path
          id="Ellipse 108"
          d="M547.864 615.242C552.827 615.242 556.849 611.243 556.849 606.31C556.849 601.377 552.827 597.378 547.864 597.378C542.902 597.378 538.879 601.377 538.879 606.31C538.879 611.243 542.902 615.242 547.864 615.242Z"
          fill="#88E4C3"
        />
        <path
          id="Ellipse 109"
          d="M573.532 615.242C578.495 615.242 582.517 611.243 582.517 606.31C582.517 601.377 578.495 597.378 573.532 597.378C568.57 597.378 564.547 601.377 564.547 606.31C564.547 611.243 568.57 615.242 573.532 615.242Z"
          fill="#88E4C3"
        />
        <path
          id="Ellipse 110"
          d="M496.503 641.247C501.465 641.247 505.488 637.248 505.488 632.315C505.488 627.382 501.465 623.383 496.503 623.383C491.54 623.383 487.518 627.382 487.518 632.315C487.518 637.248 491.54 641.247 496.503 641.247Z"
          fill="#88E4C3"
        />
        <path
          id="Ellipse 111"
          d="M522.183 641.247C527.145 641.247 531.168 637.248 531.168 632.315C531.168 627.382 527.145 623.383 522.183 623.383C517.22 623.383 513.197 627.382 513.197 632.315C513.197 637.248 517.22 641.247 522.183 641.247Z"
          fill="#88E4C3"
        />
        <path
          id="Ellipse 112"
          d="M547.864 640.929C552.827 640.929 556.849 636.93 556.849 631.997C556.849 627.064 552.827 623.065 547.864 623.065C542.902 623.065 538.879 627.064 538.879 631.997C538.879 636.93 542.902 640.929 547.864 640.929Z"
          fill="#88E4C3"
        />
        <path
          id="Ellipse 113"
          d="M573.532 640.929C578.495 640.929 582.517 636.93 582.517 631.997C582.517 627.064 578.495 623.065 573.532 623.065C568.57 623.065 564.547 627.064 564.547 631.997C564.547 636.93 568.57 640.929 573.532 640.929Z"
          fill="#88E4C3"
        />
      </g>
    </g>
    <g id="dotted-paths">
      <path
        id="Path 72"
        d="M463.948 434V528.544C463.948 528.544 466.251 546 440.167 546H332"
        stroke="#666666"
        stroke-width="2.62239"
        stroke-miterlimit="10"
        stroke-linecap="round"
        stroke-dasharray="6.29 8.39"
      />
      <path
        id="Path 73"
        d="M376.12 110.464H477.187C477.187 110.464 495.923 108.243 495.923 133.42V237.806"
        stroke="#101010"
        stroke-width="2.62239"
        stroke-miterlimit="10"
        stroke-linecap="round"
        stroke-dasharray="6.29 8.39"
      />
      <path
        id="Path 74"
        d="M593 378.072H763.409C763.409 378.072 795 374.884 795 411.049V561"
        stroke="#F5F5F5"
        stroke-width="2.62239"
        stroke-miterlimit="10"
        stroke-linecap="round"
        stroke-dasharray="6.29 8.39"
      />
      <path
        id="Path 75"
        d="M671.97 264V323.906C671.97 323.906 673.326 335 657.916 335H594"
        stroke="#F5F5F5"
        stroke-width="2.62239"
        stroke-miterlimit="10"
        stroke-linecap="round"
        stroke-dasharray="6.29 8.39"
      />
    </g>
    <g id="lock-card">
      <path
        id="bg"
        d="M400.65 232.307H584.834C592.975 232.307 599.578 238.915 599.578 247.07V423.349C599.578 431.504 592.975 438.112 584.834 438.112H400.65C392.509 438.112 385.906 431.505 385.906 423.349V247.07C385.906 238.915 392.509 232.307 400.65 232.307Z"
        fill="#F5F5F5"
        stroke="#101010"
        stroke-width="4"
      />
      <g id="lock-icon">
        <path
          id="Path 78"
          d="M529.413 323.681V323.933C527.127 323.723 524.85 323.69 522.565 323.698C519.174 323.698 515.792 323.698 512.409 323.648C512.334 316.474 512.702 309.283 512.25 302.117C511.606 292.06 502.849 284.064 492.618 284.022C482.388 283.98 473.505 291.984 472.86 302.117C472.4 309.283 472.768 316.474 472.693 323.648C467.033 323.874 461.357 323.447 455.698 323.933V323.681C455.748 316.415 455.505 309.149 455.84 301.891C456.158 294.038 459.074 286.515 464.128 280.502C469.591 273.765 477.278 269.203 485.803 267.637C486.816 267.436 487.888 267.536 488.834 267H496.268C497.943 267.679 499.692 267.612 501.375 268.09C515.557 272.101 524.563 281.226 528.392 295.462C529.101 298.344 529.441 301.304 529.405 304.271C529.455 310.733 529.413 317.211 529.413 323.681Z"
          fill="#101010"
        />
        <path
          id="Path 79"
          d="M529.413 323.681H526.675C522.824 323.681 518.981 323.681 515.13 323.631C515.047 315.468 515.465 307.296 514.946 299.15C514.218 287.684 504.255 278.616 492.635 278.566C481.015 278.515 470.868 287.626 470.164 299.15C469.645 307.296 470.064 315.468 469.98 323.631C465.217 323.815 460.461 323.631 455.698 323.698C455.748 316.431 455.505 309.165 455.84 301.907C456.158 294.055 459.074 286.531 464.128 280.518C469.591 273.782 477.278 269.22 485.803 267.653C486.816 267.452 487.888 267.553 488.834 267.016H496.268C497.943 267.695 499.692 267.628 501.375 268.106C515.557 272.118 524.563 281.242 528.392 295.479C529.101 298.36 529.441 301.32 529.405 304.287C529.455 310.732 529.413 317.211 529.413 323.681Z"
          fill="#339BFC"
        />
        <path
          id="Path 80"
          d="M513.371 320.63C516.921 320.63 520.471 320.697 524.012 320.68C526.409 320.639 528.806 320.72 531.195 320.923C534.69 321.781 537.794 323.795 540.003 326.639C541.835 328.89 542.879 331.681 542.975 334.584C543.075 340.451 543.033 346.385 543.033 352.285V388.676C543.033 396.093 538.563 401.884 531.639 403.594C530.374 403.892 529.078 404.036 527.779 404.022H457.279C448.547 404.022 442.075 397.686 442.05 388.936C441.983 371.184 441.983 353.433 442.05 335.682C442.05 328.525 446.454 323.01 453.369 321.132C453.543 321.073 453.711 320.997 453.871 320.906C459.807 320.403 465.751 320.847 471.695 320.613C472.298 320.613 472.901 320.671 473.504 320.671H511.111C511.889 320.697 512.634 320.63 513.371 320.63Z"
          fill="#101010"
        />
        <path
          id="Path 81"
          d="M492.44 379.163H488.857C488.533 379.192 488.208 379.143 487.908 379.021C487.607 378.899 487.339 378.708 487.127 378.463C486.914 378.217 486.763 377.925 486.685 377.61C486.608 377.294 486.606 376.965 486.68 376.649C487.132 373.498 487.584 370.338 488.07 367.195C488.143 366.937 488.121 366.66 488.007 366.417C487.893 366.174 487.695 365.98 487.45 365.871C485.627 364.763 484.215 363.09 483.429 361.105C482.643 359.121 482.525 356.934 483.095 354.876C483.664 352.819 484.889 351.004 486.583 349.707C488.277 348.411 490.348 347.703 492.481 347.693C494.613 347.682 496.691 348.369 498.398 349.649C500.104 350.929 501.347 352.732 501.937 354.784C502.526 356.835 502.43 359.024 501.664 361.016C500.897 363.008 499.501 364.695 497.689 365.82C497.416 365.936 497.196 366.15 497.072 366.42C496.948 366.689 496.929 366.996 497.019 367.279C497.513 370.397 497.949 373.514 498.376 376.641C498.453 376.956 498.454 377.286 498.378 377.602C498.303 377.919 498.152 378.212 497.94 378.458C497.728 378.704 497.46 378.896 497.158 379.017C496.857 379.139 496.531 379.186 496.207 379.155C494.951 379.188 493.721 379.163 492.44 379.163Z"
          fill="#339BFC"
        />
      </g>
    </g>
    <g id="profile-card">
      <path
        id="Rectangle 222"
        d="M108.169 291.572H315.392C323.533 291.572 330.136 298.179 330.136 306.334V643.238C330.136 651.393 323.533 658 315.392 658H108.169C100.028 658 93.4248 651.393 93.4248 643.238V306.334C93.4248 298.179 100.028 291.572 108.169 291.572Z"
        fill="#F5F5F5"
        stroke="#101010"
        stroke-width="4"
      />
      <g id="Group 1073">
        <g id="Group 1072">
          <path
            id="Rectangle 238"
            d="M278.699 493.472H147.694C144.92 493.472 142.671 495.723 142.671 498.5V502.934C142.671 505.711 144.92 507.963 147.694 507.963H278.699C281.473 507.963 283.722 505.711 283.722 502.934V498.5C283.722 495.723 281.473 493.472 278.699 493.472Z"
            fill="#999999"
          />
          <g id="Group 1071">
            <path
              id="Ellipse 118"
              d="M149.814 575.922C153.795 575.922 157.022 572.691 157.022 568.706C157.022 564.721 153.795 561.49 149.814 561.49C145.833 561.49 142.605 564.721 142.605 568.706C142.605 572.691 145.833 575.922 149.814 575.922Z"
              fill="#101010"
            />
            <path
              id="Rectangle 239"
              d="M276.749 560.603H166.607C165.22 560.603 164.096 561.729 164.096 563.117V565.238C164.096 566.626 165.22 567.752 166.607 567.752H276.749C278.136 567.752 279.261 566.626 279.261 565.238V563.117C279.261 561.729 278.136 560.603 276.749 560.603Z"
              fill="#CCCCCC"
            />
            <path
              id="Rectangle 240"
              d="M224.073 571.323H166.607C165.22 571.323 164.096 572.448 164.096 573.837V575.957C164.096 577.346 165.22 578.472 166.607 578.472H224.073C225.46 578.472 226.584 577.346 226.584 575.957V573.837C226.584 572.448 225.46 571.323 224.073 571.323Z"
              fill="#CCCCCC"
            />
          </g>
          <g id="Group 1070">
            <path
              id="Ellipse 119"
              d="M149.814 616.135C153.795 616.135 157.022 612.904 157.022 608.919C157.022 604.934 153.795 601.703 149.814 601.703C145.833 601.703 142.605 604.934 142.605 608.919C142.605 612.904 145.833 616.135 149.814 616.135Z"
              fill="#101010"
            />
            <path
              id="Rectangle 241"
              d="M276.749 599.926H166.607C165.22 599.926 164.096 601.052 164.096 602.44V604.561C164.096 605.949 165.22 607.075 166.607 607.075H276.749C278.136 607.075 279.261 605.949 279.261 604.561V602.44C279.261 601.052 278.136 599.926 276.749 599.926Z"
              fill="#CCCCCC"
            />
            <path
              id="Rectangle 242"
              d="M224.073 610.645H166.607C165.22 610.645 164.096 611.771 164.096 613.159V615.28C164.096 616.668 165.22 617.794 166.607 617.794H224.073C225.46 617.794 226.584 616.668 226.584 615.28V613.159C226.584 611.771 225.46 610.645 224.073 610.645Z"
              fill="#CCCCCC"
            />
          </g>
          <path
            id="Rectangle 243"
            d="M208.173 514.238H147.694C144.92 514.238 142.671 516.489 142.671 519.266V523.7C142.671 526.477 144.92 528.728 147.694 528.728H208.173C210.948 528.728 213.197 526.477 213.197 523.7V519.266C213.197 516.489 210.948 514.238 208.173 514.238Z"
            fill="#101010"
          />
        </g>
        <g id="profile-icon">
          <path
            id="Rectangle 244"
            d="M261.061 330.5H161.744C151.667 330.5 143.5 338.678 143.5 348.762V443.242C143.5 453.327 151.667 461.505 161.744 461.505H261.061C271.138 461.505 279.305 453.327 279.305 443.242V348.762C279.305 338.678 271.138 330.5 261.061 330.5Z"
            fill="#F5F5F5"
            stroke="#101010"
            stroke-width="3"
          />
          <g id="Path 82">
            <path
              d="M178.691 436.934C178.691 413.902 193.552 395.229 211.886 395.229C230.221 395.229 245.106 413.902 245.106 436.934"
              fill="#151779"
            />
            <path
              d="M178.691 436.934C178.691 413.902 193.552 395.229 211.886 395.229C230.221 395.229 245.106 413.902 245.106 436.934"
              stroke="#F5F5F5"
              stroke-width="1.04896"
              stroke-miterlimit="10"
            />
          </g>
          <path
            id="Ellipse 120"
            d="M211.888 389.999C221.76 389.999 229.762 381.988 229.762 372.105C229.762 362.223 221.76 354.212 211.888 354.212C202.016 354.212 194.014 362.223 194.014 372.105C194.014 381.988 202.016 389.999 211.888 389.999Z"
            fill="#151779"
          />
        </g>
      </g>
    </g>
    <g id="server-card">
      <path
        id="bg_2"
        d="M635.736 456.878H945.743C953.883 456.878 960.487 463.485 960.487 471.64V612.443C960.487 620.598 953.883 627.205 945.743 627.205H635.736C627.595 627.205 620.992 620.598 620.992 612.443V471.64C620.992 463.485 627.595 456.878 635.736 456.878Z"
        fill="#F5F5F5"
        stroke="#101010"
        stroke-width="4"
      />
      <g id="server">
        <path
          id="Rectangle 235"
          d="M773.161 484H672.052C669.278 484 667.029 486.251 667.029 489.029V513.669C667.029 516.446 669.278 518.698 672.052 518.698H773.161C775.935 518.698 778.184 516.446 778.184 513.669V489.029C778.184 486.251 775.935 484 773.161 484Z"
          fill="#151779"
        />
        <path
          id="Rectangle 236"
          d="M773.132 524.925H672.023C669.249 524.925 667 527.177 667 529.954V554.594C667 557.372 669.249 559.623 672.023 559.623H773.132C775.906 559.623 778.155 557.372 778.155 554.594V529.954C778.155 527.177 775.906 524.925 773.132 524.925Z"
          fill="#151779"
        />
        <path
          id="Rectangle 237"
          d="M773.132 565.966H672.023C669.249 565.966 667 568.217 667 570.994V595.635C667 598.412 669.249 600.664 672.023 600.664H773.132C775.906 600.664 778.155 598.412 778.155 595.635V570.994C778.155 568.217 775.906 565.966 773.132 565.966Z"
          fill="#151779"
        />
        <path
          id="Ellipse 115"
          d="M682.085 509.789C686.584 509.789 690.231 506.138 690.231 501.634C690.231 497.131 686.584 493.479 682.085 493.479C677.587 493.479 673.939 497.131 673.939 501.634C673.939 506.138 677.587 509.789 682.085 509.789Z"
          fill="#339BFC"
        />
        <path
          id="Ellipse 116"
          d="M682.085 550.193C686.584 550.193 690.231 546.542 690.231 542.039C690.231 537.535 686.584 533.884 682.085 533.884C677.587 533.884 673.939 537.535 673.939 542.039C673.939 546.542 677.587 550.193 682.085 550.193Z"
          fill="#339BFC"
        />
        <path
          id="Ellipse 117"
          d="M682.085 592.124C686.584 592.124 690.231 588.473 690.231 583.969C690.231 579.465 686.584 575.814 682.085 575.814C677.587 575.814 673.939 579.465 673.939 583.969C673.939 588.473 677.587 592.124 682.085 592.124Z"
          fill="#339BFC"
        />
        <path
          id="Rectangle 245"
          d="M909.581 513.87H816.442C813.668 513.87 811.419 516.121 811.419 518.898V518.915C811.419 521.692 813.668 523.944 816.442 523.944H909.581C912.355 523.944 914.604 521.692 914.604 518.915V518.898C914.604 516.121 912.355 513.87 909.581 513.87Z"
          fill="#999999"
        />
        <path
          id="Rectangle 246"
          d="M909.581 560.895H816.442C813.668 560.895 811.419 563.146 811.419 565.923V565.94C811.419 568.717 813.668 570.969 816.442 570.969H909.581C912.355 570.969 914.604 568.717 914.604 565.94V565.923C914.604 563.146 912.355 560.895 909.581 560.895Z"
          fill="#999999"
        />
        <path
          id="Ellipse 121"
          d="M818.652 549.8C822.638 549.8 825.869 546.566 825.869 542.576C825.869 538.586 822.638 535.351 818.652 535.351C814.667 535.351 811.436 538.586 811.436 542.576C811.436 546.566 814.667 549.8 818.652 549.8Z"
          fill="#101010"
        />
        <path
          id="Ellipse 122"
          d="M840.47 549.8C844.455 549.8 847.686 546.566 847.686 542.576C847.686 538.586 844.455 535.351 840.47 535.351C836.484 535.351 833.253 538.586 833.253 542.576C833.253 546.566 836.484 549.8 840.47 549.8Z"
          fill="#101010"
        />
        <path
          id="Ellipse 123"
          d="M863.116 549.8C867.102 549.8 870.333 546.566 870.333 542.576C870.333 538.586 867.102 535.351 863.116 535.351C859.13 535.351 855.899 538.586 855.899 542.576C855.899 546.566 859.13 549.8 863.116 549.8Z"
          fill="#101010"
        />
        <path
          id="Ellipse 124"
          d="M885.77 549.8C889.756 549.8 892.987 546.566 892.987 542.576C892.987 538.586 889.756 535.351 885.77 535.351C881.785 535.351 878.554 538.586 878.554 542.576C878.554 546.566 881.785 549.8 885.77 549.8Z"
          fill="#101010"
        />
        <path
          id="Ellipse 125"
          d="M907.577 549.8C911.563 549.8 914.794 546.566 914.794 542.576C914.794 538.586 911.563 535.351 907.577 535.351C903.591 535.351 900.36 538.586 900.36 542.576C900.36 546.566 903.591 549.8 907.577 549.8Z"
          fill="#101010"
        />
      </g>
    </g>
    <g id="cloud-card">
      <path
        id="bg_3"
        d="M137.524 22.7358H387.612C395.753 22.7358 402.356 29.3431 402.356 37.4981V168.243C402.356 176.398 395.753 183.006 387.612 183.006H137.524C129.383 183.006 122.78 176.398 122.78 168.243V37.4981C122.78 29.3431 129.383 22.7358 137.524 22.7358Z"
        fill="#F5F5F5"
        stroke="#101010"
        stroke-width="4"
      />
      <g id="clouds">
        <path
          id="Path 76"
          d="M325.377 146.997C340.556 146.997 352.863 134.953 352.863 120.102C352.863 105.251 340.556 93.1987 325.377 93.1987C324.552 93.1782 323.727 93.2174 322.908 93.316C323.553 91.8475 323.887 90.2606 323.887 88.6561C323.841 85.5048 322.549 82.5003 320.294 80.3009C318.039 78.1016 315.005 76.8868 311.857 76.9226C309.776 76.9174 307.729 77.4485 305.913 78.4647C303.203 72.0656 298.663 66.6125 292.863 62.7928C287.063 58.9731 280.263 56.9577 273.32 57.0007C253.889 57.0007 238.158 72.4135 238.158 91.4303V92.0002H237.019C221.297 92.0002 208.555 104.48 208.555 119.867C208.555 135.255 221.305 147.86 237.019 147.735L325.377 146.997Z"
          fill="#030430"
        />
        <path
          id="Path 77"
          d="M289.856 146.967L289.844 146.967L201.454 147.671C186.556 147.782 174.5 135.851 174.5 121.303C174.5 106.765 186.533 94.9279 201.465 94.9279H202.595H204.095V93.4279V92.8496C204.095 74.6995 219.133 59.9284 237.757 59.9284L237.767 59.9284C244.413 59.8872 250.922 61.8165 256.475 65.4733C262.027 69.13 266.374 74.3506 268.968 80.4772L269.621 82.0191L271.082 81.2014C272.675 80.3099 274.469 79.842 276.294 79.8419H276.302L276.311 79.8418C277.676 79.8264 279.03 80.0802 280.298 80.589C281.565 81.0977 282.72 81.8514 283.696 82.8071C284.672 83.7627 285.451 84.9017 285.988 86.1589C286.524 87.4138 286.808 88.7619 286.824 90.1266C286.824 91.5197 286.534 92.8976 285.972 94.1721L284.924 96.5493L287.507 96.2685C288.276 96.1849 289.05 96.1513 289.824 96.168L289.84 96.1683H289.856C304.246 96.1683 315.85 107.563 315.85 121.563C315.85 135.564 304.245 146.967 289.856 146.967Z"
          fill="#F5F5F5"
          stroke="#030430"
          stroke-width="3"
        />
      </g>
    </g>
    <g id="laptop-card">
      <path
        id="bg_4"
        d="M660.231 2H836.822C844.962 2 851.566 8.60722 851.566 16.7622V248.76C851.566 256.915 844.962 263.522 836.822 263.522H660.231C652.09 263.522 645.487 256.915 645.487 248.76V16.7622C645.487 8.60722 652.09 2 660.231 2Z"
        fill="#F5F5F5"
        stroke="#101010"
        stroke-width="4"
      />
      <g id="Group 1069">
        <path
          id="Rectangle 233"
          d="M814.837 209.745H680.023C677.249 209.745 675 211.996 675 214.774V216.399C675 219.177 677.249 221.428 680.023 221.428H814.837C817.612 221.428 819.861 219.177 819.861 216.399V214.774C819.861 211.996 817.612 209.745 814.837 209.745Z"
          fill="#999999"
        />
        <path
          id="Rectangle 234"
          d="M742.411 189.312H680.023C677.249 189.312 675 191.563 675 194.341V195.967C675 198.744 677.249 200.995 680.023 200.995H742.411C745.186 200.995 747.434 198.744 747.434 195.967V194.341C747.434 191.563 745.186 189.312 742.411 189.312Z"
          fill="#101010"
        />
        <g id="laptop-icon">
          <path
            id="Path 83"
            d="M682.771 132.714V130.795C682.771 104.143 682.83 77.4826 682.704 50.8223C682.704 46.6317 685.45 43.9833 689.402 44.0001C729.074 44.1007 768.751 44.1202 808.435 44.0588C813.081 44.0588 815.132 46.1121 815.132 50.8223V130.636C815.132 131.331 815.132 132.027 815.174 132.714H774.068C772.428 132.682 770.8 133 769.293 133.648C767.786 134.295 766.434 135.257 765.327 136.469C765.18 136.625 765.002 136.748 764.804 136.832C764.607 136.915 764.395 136.957 764.18 136.955H734.108C733.987 136.948 733.87 136.916 733.763 136.86C733.656 136.803 733.562 136.724 733.489 136.628C732.285 135.341 730.822 134.324 729.197 133.644C727.573 132.963 725.822 132.635 724.062 132.681L682.771 132.714ZM749.161 52.6997H693.387C691.897 52.6997 691.403 53.0182 691.403 54.6022C691.453 77.1641 691.453 99.7233 691.403 122.28C691.403 123.688 691.687 124.174 693.219 124.174C730.397 124.135 767.579 124.135 804.768 124.174C806.3 124.174 806.584 123.688 806.584 122.28C806.545 99.7792 806.545 77.2759 806.584 54.7698C806.584 52.7416 806.584 52.7332 804.475 52.7332L749.161 52.6997Z"
            fill="#339BFC"
          />
          <path
            id="Path 84"
            d="M765.603 134.706C766.353 133.746 767.318 132.977 768.421 132.461C769.524 131.946 770.733 131.698 771.949 131.739H815.232C817.367 131.739 819.494 131.789 821.629 131.739C822.466 131.739 822.901 131.965 822.834 132.904C822.7 134.765 823.035 136.634 822.616 138.486C822.372 139.753 821.696 140.896 820.704 141.72C819.711 142.544 818.464 142.997 817.175 143.003H682.26C677.237 143.003 675.169 140.958 675.194 135.946C675.194 134.622 674.625 132.921 675.437 132.083C676.249 131.245 678.057 131.84 679.422 131.764C680.535 131.705 681.657 131.764 682.771 131.764H726.774C727.9 131.796 729.006 132.07 730.018 132.567C731.029 133.064 731.921 133.774 732.634 134.647C732.845 134.876 733.106 135.053 733.397 135.165C733.687 135.277 733.999 135.32 734.309 135.293H762.514C764.347 135.259 765.21 135.259 765.603 134.706Z"
            fill="#151779"
          />
          <path
            id="Path 85"
            d="M749.16 52.702H804.415C806.516 52.702 806.525 52.702 806.525 54.7302V122.248C806.525 123.648 806.24 124.143 804.708 124.143C767.525 124.103 730.342 124.103 693.16 124.143C691.627 124.143 691.343 123.648 691.343 122.248C691.382 99.6865 691.382 77.1273 691.343 54.571C691.343 52.9786 691.837 52.6685 693.327 52.6685C711.958 52.7187 730.568 52.7299 749.16 52.702Z"
            fill="#F5F5F5"
          />
        </g>
      </g>
    </g>
  </g>
</svg>
