<svg
  width="1000"
  height="660"
  viewBox="0 0 1000 660"
  fill="none"
  xmlns="http://www.w3.org/2000/svg"
>
  <g id="graphic-streamlined">
    <path
      id="square"
      d="M580.854 75.0378H55.1464C45.6767 75.0378 38 82.5643 38 91.8486V499.452C38 508.736 45.6767 516.262 55.1464 516.262H580.854C590.323 516.262 598 508.736 598 499.452V91.8486C598 82.5643 590.323 75.0378 580.854 75.0378Z"
      fill="#339BFC"
    />
    <path
      id="circ"
      d="M40 248.544C62.0914 248.544 80 230.635 80 208.544C80 186.453 62.0914 168.544 40 168.544C17.9086 168.544 0 186.453 0 208.544C0 230.635 17.9086 248.544 40 248.544Z"
      fill="#151779"
    />
    <g id="circ-pattern">
      <path
        id="Ellipse 127"
        d="M419.836 58.6635C425.06 58.6635 429.294 54.4542 429.294 49.2618C429.294 44.0694 425.06 39.8601 419.836 39.8601C414.613 39.8601 410.378 44.0694 410.378 49.2618C410.378 54.4542 414.613 58.6635 419.836 58.6635Z"
        fill="#151779"
      />
      <path
        id="Ellipse 128"
        d="M446.861 58.6633C452.084 58.6633 456.319 54.454 456.319 49.2616C456.319 44.0692 452.084 39.8599 446.861 39.8599C441.637 39.8599 437.402 44.0692 437.402 49.2616C437.402 54.454 441.637 58.6633 446.861 58.6633Z"
        fill="#151779"
      />
      <path
        id="Ellipse 129"
        d="M473.897 58.323C479.12 58.323 483.355 54.1137 483.355 48.9212C483.355 43.7288 479.12 39.5195 473.897 39.5195C468.673 39.5195 464.438 43.7288 464.438 48.9212C464.438 54.1137 468.673 58.323 473.897 58.323Z"
        fill="#151779"
      />
      <path
        id="Ellipse 130"
        d="M500.92 58.323C506.144 58.323 510.378 54.1137 510.378 48.9212C510.378 43.7288 506.144 39.5195 500.92 39.5195C495.697 39.5195 491.462 43.7288 491.462 48.9212C491.462 54.1137 495.697 58.323 500.92 58.323Z"
        fill="#151779"
      />
      <path
        id="Ellipse 131"
        d="M419.836 85.6987C425.06 85.6987 429.294 81.4894 429.294 76.297C429.294 71.1046 425.06 66.8953 419.836 66.8953C414.613 66.8953 410.378 71.1046 410.378 76.297C410.378 81.4894 414.613 85.6987 419.836 85.6987Z"
        fill="#151779"
      />
      <path
        id="Ellipse 132"
        d="M446.861 85.6987C452.084 85.6987 456.319 81.4894 456.319 76.297C456.319 71.1046 452.084 66.8953 446.861 66.8953C441.637 66.8953 437.402 71.1046 437.402 76.297C437.402 81.4894 441.637 85.6987 446.861 85.6987Z"
        fill="#151779"
      />
      <path
        id="Ellipse 133"
        d="M473.897 85.3652C479.12 85.3652 483.355 81.1559 483.355 75.9635C483.355 70.7711 479.12 66.5618 473.897 66.5618C468.673 66.5618 464.438 70.7711 464.438 75.9635C464.438 81.1559 468.673 85.3652 473.897 85.3652Z"
        fill="#151779"
      />
      <path
        id="Ellipse 134"
        d="M500.92 85.3652C506.144 85.3652 510.378 81.1559 510.378 75.9635C510.378 70.7711 506.144 66.5618 500.92 66.5618C495.697 66.5618 491.462 70.7711 491.462 75.9635C491.462 81.1559 495.697 85.3652 500.92 85.3652Z"
        fill="#151779"
      />
      <path
        id="Ellipse 135"
        d="M419.836 112.478C425.06 112.478 429.294 108.268 429.294 103.076C429.294 97.8834 425.06 93.6741 419.836 93.6741C414.613 93.6741 410.378 97.8834 410.378 103.076C410.378 108.268 414.613 112.478 419.836 112.478Z"
        fill="#151779"
      />
      <path
        id="Ellipse 136"
        d="M446.861 112.478C452.084 112.478 456.319 108.268 456.319 103.076C456.319 97.8834 452.084 93.6741 446.861 93.6741C441.637 93.6741 437.402 97.8834 437.402 103.076C437.402 108.268 441.637 112.478 446.861 112.478Z"
        fill="#151779"
      />
      <path
        id="Ellipse 137"
        d="M473.897 112.144C479.12 112.144 483.355 107.934 483.355 102.742C483.355 97.5494 479.12 93.3401 473.897 93.3401C468.673 93.3401 464.438 97.5494 464.438 102.742C464.438 107.934 468.673 112.144 473.897 112.144Z"
        fill="#151779"
      />
      <path
        id="Ellipse 138"
        d="M500.92 112.144C506.144 112.144 510.378 107.934 510.378 102.742C510.378 97.5494 506.144 93.3401 500.92 93.3401C495.697 93.3401 491.462 97.5494 491.462 102.742C491.462 107.934 495.697 112.144 500.92 112.144Z"
        fill="#151779"
      />
      <path
        id="Ellipse 139"
        d="M419.836 139.519C425.06 139.519 429.294 135.31 429.294 130.118C429.294 124.925 425.06 120.716 419.836 120.716C414.613 120.716 410.378 124.925 410.378 130.118C410.378 135.31 414.613 139.519 419.836 139.519Z"
        fill="#151779"
      />
      <path
        id="Ellipse 140"
        d="M446.861 139.179C452.084 139.179 456.319 134.97 456.319 129.778C456.319 124.585 452.084 120.376 446.861 120.376C441.637 120.376 437.402 124.585 437.402 129.778C437.402 134.97 441.637 139.179 446.861 139.179Z"
        fill="#151779"
      />
      <path
        id="Ellipse 141"
        d="M473.897 139.179C479.12 139.179 483.355 134.97 483.355 129.777C483.355 124.585 479.12 120.376 473.897 120.376C468.673 120.376 464.438 124.585 464.438 129.777C464.438 134.97 468.673 139.179 473.897 139.179Z"
        fill="#151779"
      />
      <path
        id="Ellipse 142"
        d="M500.92 139.179C506.144 139.179 510.378 134.97 510.378 129.777C510.378 124.585 506.144 120.376 500.92 120.376C495.697 120.376 491.462 124.585 491.462 129.777C491.462 134.97 495.697 139.179 500.92 139.179Z"
        fill="#151779"
      />
    </g>
    <path
      id="square_2"
      d="M894.924 192.974H507.808C498.333 192.974 490.652 200.659 490.652 210.138V580.751C490.652 590.23 498.333 597.915 507.808 597.915H894.924C904.399 597.915 912.079 590.23 912.079 580.751V210.138C912.079 200.659 904.399 192.974 894.924 192.974Z"
      fill="#151779"
    />
    <path
      id="circ_2"
      d="M882.906 325.375C910.52 325.375 932.906 302.989 932.906 275.375C932.906 247.761 910.52 225.375 882.906 225.375C855.292 225.375 832.906 247.761 832.906 275.375C832.906 302.989 855.292 325.375 882.906 325.375Z"
      fill="#88E4C3"
    />
    <g id="dotted-paths">
      <path
        id="dotted-path"
        d="M437.956 433.22V518.471C437.956 518.471 439.911 534.272 417.777 534.272H326"
        stroke="#101010"
        stroke-width="2.89501"
        stroke-miterlimit="10"
        stroke-linecap="round"
        stroke-dasharray="6.95 9.26"
      />
      <path
        id="dotted-path_2"
        d="M363 386.148H231.397C231.397 386.148 207 388.396 207 362.306V254.129"
        stroke="#101010"
        stroke-width="2.89501"
        stroke-miterlimit="10"
        stroke-linecap="round"
        stroke-dasharray="6.95 9.26"
      />
      <path
        id="Path 74"
        d="M605 342.246H775.409C775.409 342.246 807 339.056 807 375.24V525.267"
        stroke="#F5F5F5"
        stroke-width="2.62239"
        stroke-miterlimit="10"
        stroke-linecap="round"
        stroke-dasharray="6.29 8.39"
      />
      <path
        id="dotted-path_3"
        d="M532.048 245.125V126.12C532.048 126.12 529.904 104.053 554.206 104.053H655"
        stroke="#333333"
        stroke-width="2.89501"
        stroke-miterlimit="10"
        stroke-linecap="round"
        stroke-dasharray="6.95 9.26"
      />
    </g>
    <path
      id="circ_3"
      d="M519.42 660C555.595 660 584.92 630.675 584.92 594.5C584.92 558.325 555.595 529 519.42 529C483.245 529 453.92 558.325 453.92 594.5C453.92 630.675 483.245 660 519.42 660Z"
      fill="#88E4C3"
    />
    <g id="user-card">
      <path
        id="bg"
        d="M368.839 226.025H580.711C589.08 226.025 595.866 232.814 595.866 241.19V421.698C595.866 430.074 589.08 436.863 580.711 436.863H368.839C360.47 436.863 353.684 430.074 353.684 421.698V241.19C353.684 232.814 360.47 226.025 368.839 226.025Z"
        fill="#F5F5F5"
        stroke="#101010"
        stroke-width="4"
      />
      <g id="users">
        <g id="user-2">
          <path
            id="Path 90"
            d="M481.323 378.588C481.323 340.826 499.551 310.257 522.033 310.257C544.516 310.257 562.735 340.826 562.735 378.588"
            fill="#339BFC"
          />
          <path
            id="Ellipse 145"
            d="M522.035 305.988C534.139 305.988 543.952 296.171 543.952 284.061C543.952 271.951 534.139 262.134 522.035 262.134C509.931 262.134 500.119 271.951 500.119 284.061C500.119 296.171 509.931 305.988 522.035 305.988Z"
            fill="#339BFC"
          />
        </g>
        <g id="user3">
          <path
            id="Path 91"
            d="M386 371.043C386 338.937 401.5 312.908 420.629 312.908C439.757 312.908 455.257 338.937 455.257 371.043"
            fill="#030430"
          />
          <path
            id="Ellipse 146"
            d="M420.623 309.088C430.922 309.088 439.271 300.735 439.271 290.431C439.271 280.126 430.922 271.773 420.623 271.773C410.324 271.773 401.975 280.126 401.975 290.431C401.975 300.735 410.324 309.088 420.623 309.088Z"
            fill="#030430"
          />
        </g>
        <g id="user1">
          <g id="Path 92">
            <path
              d="M427.28 401.132C427.28 362.194 446.083 330.629 469.311 330.629C492.54 330.629 511.343 362.194 511.343 401.132"
              fill="#151779"
            />
            <path
              d="M427.28 401.132C427.28 362.194 446.083 330.629 469.311 330.629C492.54 330.629 511.343 362.194 511.343 401.132"
              stroke="#F5F5F5"
              stroke-width="3"
              stroke-miterlimit="10"
            />
          </g>
          <path
            id="Ellipse 147"
            d="M469.282 324.02C481.77 324.02 491.893 313.891 491.893 301.397C491.893 288.903 481.77 278.774 469.282 278.774C456.794 278.774 446.671 288.903 446.671 301.397C446.671 313.891 456.794 324.02 469.282 324.02Z"
            fill="#151779"
          />
        </g>
      </g>
    </g>
    <g id="cloud-card">
      <path
        id="bg_2"
        d="M78.7454 447.437H318.066C326.435 447.437 333.222 454.225 333.222 462.601V599.915C333.222 608.291 326.435 615.08 318.066 615.08H78.7454C70.3762 615.08 63.5898 608.291 63.5898 599.915V462.601C63.5898 454.225 70.3762 447.437 78.7454 447.437Z"
        fill="#F5F5F5"
        stroke="#101010"
        stroke-width="4"
      />
      <g id="clouds">
        <path
          id="Path 93"
          d="M277.14 582.864C294.956 582.864 309.402 568.738 309.402 551.307C309.402 533.877 294.965 519.759 277.14 519.759C276.163 519.759 275.193 519.811 274.241 519.888C275.001 518.166 275.393 516.304 275.391 514.421C275.348 510.717 273.836 507.182 271.188 504.592C268.541 502.003 264.974 500.571 261.271 500.612C258.83 500.609 256.429 501.232 254.298 502.423C251.113 494.921 245.784 488.528 238.978 484.048C232.173 479.568 224.196 477.201 216.049 477.243C193.25 477.243 174.764 495.326 174.764 517.631V518.3H173.435C154.975 518.3 139.981 532.941 139.981 550.998C139.981 569.055 154.95 583.825 173.435 583.688L277.14 582.864Z"
          fill="#030430"
        />
        <path
          id="Path 94"
          d="M225.159 583.082L225.147 583.082L121.442 583.88C103.772 584.012 89.5 569.897 89.5 552.691C89.5 535.495 103.789 521.493 121.453 521.493H122.783H124.283V519.993V519.323C124.283 497.878 142.065 480.436 164.068 480.436L164.076 480.436C171.928 480.393 179.617 482.674 186.177 486.991C192.737 491.309 197.875 497.471 200.944 504.702L201.595 506.235L203.052 505.428C204.959 504.371 207.104 503.822 209.284 503.831L209.295 503.831L209.307 503.831C212.611 503.794 215.795 505.071 218.158 507.383C220.52 509.692 221.869 512.846 221.909 516.15C221.91 517.82 221.562 519.472 220.887 521.001L219.871 523.305L222.381 523.101C223.306 523.026 224.233 522.977 225.159 522.977C242.179 522.977 255.92 536.455 255.92 553.026C255.92 569.596 242.178 583.082 225.159 583.082Z"
          fill="#F5F5F5"
          stroke="#030430"
          stroke-width="3"
        />
      </g>
    </g>
    <g id="phone-card">
      <path
        id="Rectangle 258"
        d="M117.298 2H297.483C305.853 2 312.639 8.78834 312.639 17.1643V266.777C312.639 275.153 305.853 281.941 297.483 281.941H117.298C108.929 281.941 102.143 275.153 102.143 266.777V17.1643C102.143 8.78834 108.929 2 117.298 2Z"
        fill="#F5F5F5"
        stroke="#101010"
        stroke-width="4"
      />
      <g id="Group 1074">
        <path
          id="Rectangle 261"
          d="M151.733 32.5159H262.55C275.933 32.5159 286.783 43.3707 286.783 56.7624V167.61C286.783 181.001 275.933 191.856 262.55 191.856H151.733C138.35 191.856 127.5 181.001 127.5 167.61V56.7624C127.5 43.3707 138.35 32.5159 151.733 32.5159Z"
          fill="#F5F5F5"
          stroke="#030430"
          stroke-width="3"
        />
        <g id="phone">
          <path
            id="Rectangle 262"
            d="M232.168 49.7681H182.1C178.31 49.7681 175.237 52.842 175.237 56.6338V166.494C175.237 170.286 178.31 173.36 182.1 173.36H232.168C235.958 173.36 239.03 170.286 239.03 166.494V56.6338C239.03 52.842 235.958 49.7681 232.168 49.7681Z"
            fill="#151779"
          />
          <path
            id="Ellipse 148"
            d="M207.113 167.086C210.04 167.086 212.414 164.712 212.414 161.783C212.414 158.853 210.04 156.479 207.113 156.479C204.185 156.479 201.812 158.853 201.812 161.783C201.812 164.712 204.185 167.086 207.113 167.086Z"
            fill="#F5F5F5"
          />
          <path
            id="Line 72"
            d="M196.836 57.1133H216.471"
            stroke="#F5F5F5"
            stroke-miterlimit="10"
            stroke-linecap="round"
          />
        </g>
        <path
          id="Rectangle 263"
          d="M259.344 241.976H134.297C131.455 241.976 129.15 244.281 129.15 247.125V247.734C129.15 250.578 131.455 252.884 134.297 252.884H259.344C262.187 252.884 264.491 250.578 264.491 247.734V247.125C264.491 244.281 262.187 241.976 259.344 241.976Z"
          fill="#999999"
        />
        <path
          id="Rectangle 264"
          d="M191.674 222.889H134.297C131.455 222.889 129.15 225.195 129.15 228.039V228.648C129.15 231.492 131.455 233.797 134.297 233.797H191.674C194.516 233.797 196.821 231.492 196.821 228.648V228.039C196.821 225.195 194.516 222.889 191.674 222.889Z"
          fill="#101010"
        />
      </g>
    </g>
    <g id="folder-card">
      <path
        id="bg_3"
        d="M643.326 445.868H982.844C991.214 445.868 998 452.656 998 461.032V622.377C998 630.753 991.214 637.541 982.844 637.541H643.326C634.957 637.541 628.171 630.753 628.171 622.377V461.032C628.171 452.656 634.957 445.868 643.326 445.868Z"
        fill="#F5F5F5"
        stroke="#101010"
        stroke-width="4"
      />
      <g id="Group 1064">
        <g id="folder">
          <path
            id="Rectangle 273"
            d="M787.76 495.757H665.441C663.546 495.757 662.01 497.294 662.01 499.19V583.75C662.01 585.646 663.546 587.183 665.441 587.183H787.76C789.655 587.183 791.191 585.646 791.191 583.75V499.19C791.191 497.294 789.655 495.757 787.76 495.757Z"
            fill="#339BFC"
          />
          <path
            id="Rectangle 274"
            d="M787.76 495.757H665.441C663.546 495.757 662.01 497.294 662.01 499.19V583.75C662.01 585.646 663.546 587.183 665.441 587.183H787.76C789.655 587.183 791.191 585.646 791.191 583.75V499.19C791.191 497.294 789.655 495.757 787.76 495.757Z"
            stroke="#339BFC"
            stroke-width="3.47401"
            stroke-linecap="round"
            stroke-linejoin="round"
          />
          <path
            id="Rectangle 275"
            d="M790.411 503.243H665.441C663.546 503.243 662.01 504.78 662.01 506.676V591.236C662.01 593.132 663.546 594.669 665.441 594.669H790.411C792.306 594.669 793.842 593.132 793.842 591.236V506.676C793.842 504.78 792.306 503.243 790.411 503.243Z"
            fill="#030430"
          />
          <path
            id="Rectangle 276"
            d="M790.411 503.243H665.441C663.546 503.243 662.01 504.78 662.01 506.676V591.236C662.01 593.132 663.546 594.669 665.441 594.669H790.411C792.306 594.669 793.842 593.132 793.842 591.236V506.676C793.842 504.78 792.306 503.243 790.411 503.243Z"
            stroke="#030430"
            stroke-width="3.47401"
            stroke-linecap="round"
            stroke-linejoin="round"
          />
          <path
            id="Rectangle 277"
            d="M717.104 488.249H665.431C663.536 488.249 662 489.785 662 491.681V576.241C662 578.137 663.536 579.674 665.431 579.674H717.104C718.999 579.674 720.535 578.137 720.535 576.241V491.681C720.535 489.785 718.999 488.249 717.104 488.249Z"
            fill="#030430"
          />
          <path
            id="Rectangle 278"
            d="M717.104 488.249H665.431C663.536 488.249 662 489.785 662 491.681V576.241C662 578.137 663.536 579.674 665.431 579.674H717.104C718.999 579.674 720.535 578.137 720.535 576.241V491.681C720.535 489.785 718.999 488.249 717.104 488.249Z"
            stroke="#030430"
            stroke-width="3.47401"
            stroke-linecap="round"
            stroke-linejoin="round"
          />
        </g>
        <g id="Group 1063">
          <g id="Group 1061">
            <path
              id="Ellipse 149"
              d="M831.42 548.922C835.499 548.922 838.805 545.614 838.805 541.533C838.805 537.452 835.499 534.143 831.42 534.143C827.341 534.143 824.034 537.452 824.034 541.533C824.034 545.614 827.341 548.922 831.42 548.922Z"
              fill="#151779"
            />
            <path
              id="Rectangle 279"
              d="M961.475 532.415H848.625C847.204 532.415 846.052 533.568 846.052 534.99V537.161C846.052 538.583 847.204 539.736 848.625 539.736H961.475C962.896 539.736 964.048 538.583 964.048 537.161V534.99C964.048 533.568 962.896 532.415 961.475 532.415Z"
              fill="#999999"
            />
            <path
              id="Rectangle 280"
              d="M907.503 543.394H848.625C847.204 543.394 846.052 544.546 846.052 545.968V548.139C846.052 549.561 847.204 550.714 848.625 550.714H907.503C908.924 550.714 910.076 549.561 910.076 548.139V545.968C910.076 544.546 908.924 543.394 907.503 543.394Z"
              fill="#999999"
            />
          </g>
          <g id="Group 1062">
            <path
              id="Ellipse 150"
              d="M831.42 584.94C835.499 584.94 838.805 581.632 838.805 577.551C838.805 573.47 835.499 570.162 831.42 570.162C827.341 570.162 824.034 573.47 824.034 577.551C824.034 581.632 827.341 584.94 831.42 584.94Z"
              fill="#151779"
            />
            <path
              id="Rectangle 281"
              d="M961.475 568.382H848.625C847.204 568.382 846.052 569.534 846.052 570.956V573.128C846.052 574.549 847.204 575.702 848.625 575.702H961.475C962.896 575.702 964.048 574.549 964.048 573.128V570.956C964.048 569.534 962.896 568.382 961.475 568.382Z"
              fill="#999999"
            />
            <path
              id="Rectangle 282"
              d="M907.503 579.366H848.625C847.204 579.366 846.052 580.519 846.052 581.941V584.112C846.052 585.534 847.204 586.687 848.625 586.687H907.503C908.924 586.687 910.076 585.534 910.076 584.112V581.941C910.076 580.519 908.924 579.366 907.503 579.366Z"
              fill="#999999"
            />
          </g>
          <g id="Group 1060">
            <path
              id="Ellipse 151"
              d="M831.42 512.903C835.499 512.903 838.805 509.595 838.805 505.514C838.805 501.433 835.499 498.125 831.42 498.125C827.341 498.125 824.034 501.433 824.034 505.514C824.034 509.595 827.341 512.903 831.42 512.903Z"
              fill="#151779"
            />
            <path
              id="Rectangle 283"
              d="M961.475 496.292H848.625C847.204 496.292 846.052 497.445 846.052 498.867V501.038C846.052 502.46 847.204 503.613 848.625 503.613H961.475C962.896 503.613 964.048 502.46 964.048 501.038V498.867C964.048 497.445 962.896 496.292 961.475 496.292Z"
              fill="#999999"
            />
            <path
              id="Rectangle 284"
              d="M907.503 507.277H848.625C847.204 507.277 846.052 508.43 846.052 509.852V512.023C846.052 513.445 847.204 514.597 848.625 514.597H907.503C908.924 514.597 910.076 513.445 910.076 512.023V509.852C910.076 508.43 908.924 507.277 907.503 507.277Z"
              fill="#999999"
            />
          </g>
        </g>
      </g>
    </g>
    <g id="browser-window">
      <path
        id="bg_4"
        d="M655.382 31.9961H951.488C959.857 31.9961 966.643 38.7844 966.643 47.1604V255.621C966.643 263.997 959.857 270.786 951.488 270.786H655.382C647.013 270.786 640.227 263.997 640.227 255.621V47.1604C640.227 38.7844 647.013 31.9961 655.382 31.9961Z"
        fill="#F5F5F5"
        stroke="#101010"
        stroke-width="4"
      />
      <g id="browser-nav">
        <path
          id="Rectangle 268"
          d="M950.249 40.9971H658.603C654.814 40.9971 651.741 44.071 651.741 47.8628V58.2301C651.741 62.0219 654.814 65.0958 658.603 65.0958H950.249C954.038 65.0958 957.111 62.0219 957.111 58.2301V47.8628C957.111 44.071 954.038 40.9971 950.249 40.9971Z"
          fill="#101010"
        />
        <path
          id="Ellipse 152"
          opacity="0.9"
          d="M665.663 57.9376C668.605 57.9376 670.99 55.5515 670.99 52.6081C670.99 49.6647 668.605 47.2786 665.663 47.2786C662.721 47.2786 660.336 49.6647 660.336 52.6081C660.336 55.5515 662.721 57.9376 665.663 57.9376Z"
          fill="#ED1C24"
        />
        <path
          id="Ellipse 153"
          opacity="0.9"
          d="M681.447 57.9376C684.389 57.9376 686.774 55.5515 686.774 52.6081C686.774 49.6647 684.389 47.2786 681.447 47.2786C678.505 47.2786 676.12 49.6647 676.12 52.6081C676.12 55.5515 678.505 57.9376 681.447 57.9376Z"
          fill="#FBB03B"
        />
        <path
          id="Ellipse 154"
          opacity="0.9"
          d="M697.021 57.9376C699.963 57.9376 702.348 55.5515 702.348 52.6081C702.348 49.6647 699.963 47.2786 697.021 47.2786C694.079 47.2786 691.694 49.6647 691.694 52.6081C691.694 55.5515 694.079 57.9376 697.021 57.9376Z"
          fill="#22B573"
        />
      </g>
      <g id="web-body">
        <path
          id="Rectangle 267"
          d="M930.792 82.407H779.823C775.086 82.407 771.245 86.2493 771.245 90.9891V133.025C771.245 137.764 775.086 141.607 779.823 141.607H930.792C935.53 141.607 939.37 137.764 939.37 133.025V90.9891C939.37 86.2493 935.53 82.407 930.792 82.407Z"
          stroke="#101010"
          stroke-width="3"
        />
        <path
          id="Rectangle 269"
          d="M838.452 154.745H779.823C775.086 154.745 771.245 158.588 771.245 163.328V242.747C771.245 247.487 775.086 251.329 779.823 251.329H838.452C843.19 251.329 847.03 247.487 847.03 242.747V163.328C847.03 158.588 843.19 154.745 838.452 154.745Z"
          fill="#339BFC"
        />
        <path
          id="Rectangle 270"
          d="M930.792 154.745H872.163C867.425 154.745 863.585 158.588 863.585 163.328V242.747C863.585 247.487 867.425 251.329 872.163 251.329H930.792C935.529 251.329 939.37 247.487 939.37 242.747V163.328C939.37 158.588 935.529 154.745 930.792 154.745Z"
          fill="#151779"
        />
        <path
          id="Path 95"
          d="M742.082 89.5534C742.053 91.3549 741.317 93.0727 740.033 94.3363C738.749 95.5998 737.021 96.3078 735.22 96.3076H674C673.093 96.3399 672.188 96.1891 671.34 95.864C670.493 95.5389 669.719 95.0463 669.066 94.4155C668.412 93.7847 667.893 93.0288 667.538 92.1927C667.183 91.3566 667 90.4575 667 89.5491C667 88.6407 667.183 87.7417 667.538 86.9056C667.893 86.0695 668.412 85.3135 669.066 84.6827C669.719 84.0519 670.493 83.5593 671.34 83.2343C672.188 82.9092 673.093 82.7583 674 82.7907H735.22C737.022 82.7905 738.752 83.4998 740.036 84.7654C741.32 86.0309 742.055 87.7511 742.082 89.5543V89.5534Z"
          fill="#999999"
        />
        <path
          id="Path 96"
          d="M719.728 118.408C719.701 120.211 718.966 121.931 717.682 123.197C716.398 124.462 714.668 125.171 712.866 125.171H674C673.093 125.203 672.188 125.053 671.34 124.728C670.493 124.402 669.719 123.91 669.066 123.279C668.412 122.648 667.893 121.892 667.538 121.056C667.183 120.22 667 119.321 667 118.413C667 117.504 667.183 116.605 667.538 115.769C667.893 114.933 668.412 114.177 669.066 113.546C669.719 112.915 670.493 112.423 671.34 112.098C672.188 111.773 673.093 111.622 674 111.654H712.866C714.667 111.654 716.396 112.362 717.68 113.626C718.963 114.89 719.699 116.608 719.728 118.409V118.408Z"
          fill="#999999"
        />
        <path
          id="Path 97"
          d="M742.082 147.915C742.053 149.717 741.317 151.435 740.033 152.698C738.749 153.962 737.021 154.67 735.22 154.669H674C673.093 154.702 672.188 154.551 671.34 154.226C670.493 153.901 669.719 153.408 669.066 152.777C668.412 152.147 667.893 151.391 667.538 150.554C667.183 149.718 667 148.819 667 147.911C667 147.003 667.183 146.104 667.538 145.267C667.893 144.431 668.412 143.675 669.066 143.045C669.719 142.414 670.493 141.921 671.34 141.596C672.188 141.271 673.093 141.12 674 141.152H735.22C737.022 141.152 738.752 141.862 740.036 143.127C741.32 144.393 742.055 146.113 742.082 147.916V147.915Z"
          fill="#999999"
        />
        <path
          id="Path 98"
          d="M719.728 176.767C719.701 178.57 718.966 180.29 717.682 181.555C716.398 182.821 714.668 183.53 712.866 183.53H674C673.093 183.562 672.188 183.411 671.34 183.086C670.493 182.761 669.719 182.268 669.066 181.637C668.412 181.007 667.893 180.251 667.538 179.415C667.183 178.578 667 177.679 667 176.771C667 175.863 667.183 174.964 667.538 174.128C667.893 173.291 668.412 172.535 669.066 171.905C669.719 171.274 670.493 170.781 671.34 170.456C672.188 170.131 673.093 169.98 674 170.013H712.866C714.667 170.012 716.396 170.72 717.68 171.984C718.963 173.248 719.699 174.966 719.728 176.768V176.767Z"
          fill="#999999"
        />
      </g>
    </g>
  </g>
</svg>
