<svg
  width="1000"
  height="660"
  viewBox="0 0 1000 660"
  fill="none"
  xmlns="http://www.w3.org/2000/svg"
>
  <g id="graphic-efficient">
    <g id="decorations">
      <path
        id="square"
        d="M907.554 51.9972H408.036C398.572 51.9972 390.899 59.6689 390.899 69.1324V501.059C390.899 510.522 398.572 518.194 408.036 518.194H907.554C917.018 518.194 924.69 510.522 924.69 501.059V69.1324C924.69 59.6689 917.018 51.9972 907.554 51.9972Z"
        fill="#88E4C3"
      />
      <path
        id="square_2"
        d="M525.759 246.271H132.905C123.441 246.271 115.769 253.942 115.769 263.406V601.672C115.769 611.135 123.441 618.807 132.905 618.807H525.759C535.223 618.807 542.895 611.135 542.895 601.672V263.406C542.895 253.942 535.223 246.271 525.759 246.271Z"
        fill="#151779"
      />
      <path
        id="circ"
        d="M489.076 660C511.168 660 529.076 642.092 529.076 620C529.076 597.909 511.168 580 489.076 580C466.985 580 449.076 597.909 449.076 620C449.076 642.092 466.985 660 489.076 660Z"
        fill="#88E4C3"
      />
      <g id="circ-pattern">
        <path
          id="Ellipse 68"
          d="M8.27071 189.048C12.8385 189.048 16.5414 185.393 16.5414 180.885C16.5414 176.377 12.8385 172.722 8.27071 172.722C3.70292 172.722 0 176.377 0 180.885C0 185.393 3.70292 189.048 8.27071 189.048Z"
          fill="#88E4C3"
        />
        <path
          id="Ellipse 69"
          d="M32.757 189.048C37.3248 189.048 41.0278 185.393 41.0278 180.885C41.0278 176.377 37.3248 172.722 32.757 172.722C28.1893 172.722 24.4863 176.377 24.4863 180.885C24.4863 185.393 28.1893 189.048 32.757 189.048Z"
          fill="#88E4C3"
        />
        <path
          id="Ellipse 70"
          d="M57.2434 188.755C61.8112 188.755 65.5141 185.1 65.5141 180.592C65.5141 176.084 61.8112 172.429 57.2434 172.429C52.6756 172.429 48.9727 176.084 48.9727 180.592C48.9727 185.1 52.6756 188.755 57.2434 188.755Z"
          fill="#88E4C3"
        />
        <path
          id="Ellipse 71"
          d="M81.7297 188.755C86.2975 188.755 90.0004 185.101 90.0004 180.593C90.0004 176.084 86.2975 172.43 81.7297 172.43C77.1619 172.43 73.459 176.084 73.459 180.593C73.459 185.101 77.1619 188.755 81.7297 188.755Z"
          fill="#88E4C3"
        />
        <path
          id="Ellipse 72"
          d="M8.27071 213.506C12.8385 213.506 16.5414 209.852 16.5414 205.344C16.5414 200.835 12.8385 197.181 8.27071 197.181C3.70292 197.181 0 200.835 0 205.344C0 209.852 3.70292 213.506 8.27071 213.506Z"
          fill="#88E4C3"
        />
        <path
          id="Ellipse 73"
          d="M32.757 213.506C37.3248 213.506 41.0278 209.852 41.0278 205.344C41.0278 200.835 37.3248 197.181 32.757 197.181C28.1893 197.181 24.4863 200.835 24.4863 205.344C24.4863 209.852 28.1893 213.506 32.757 213.506Z"
          fill="#88E4C3"
        />
        <path
          id="Ellipse 74"
          d="M57.2434 213.214C61.8112 213.214 65.5141 209.559 65.5141 205.051C65.5141 200.543 61.8112 196.888 57.2434 196.888C52.6756 196.888 48.9727 200.543 48.9727 205.051C48.9727 209.559 52.6756 213.214 57.2434 213.214Z"
          fill="#88E4C3"
        />
        <path
          id="Ellipse 75"
          d="M81.7297 213.213C86.2975 213.213 90.0004 209.559 90.0004 205.051C90.0004 200.542 86.2975 196.888 81.7297 196.888C77.1619 196.888 73.459 200.542 73.459 205.051C73.459 209.559 77.1619 213.213 81.7297 213.213Z"
          fill="#88E4C3"
        />
        <path
          id="Ellipse 76"
          d="M8.27071 237.968C12.8385 237.968 16.5414 234.313 16.5414 229.805C16.5414 225.297 12.8385 221.642 8.27071 221.642C3.70292 221.642 0 225.297 0 229.805C0 234.313 3.70292 237.968 8.27071 237.968Z"
          fill="#88E4C3"
        />
        <path
          id="Ellipse 77"
          d="M32.757 237.968C37.3248 237.968 41.0278 234.313 41.0278 229.805C41.0278 225.297 37.3248 221.642 32.757 221.642C28.1893 221.642 24.4863 225.297 24.4863 229.805C24.4863 234.313 28.1893 237.968 32.757 237.968Z"
          fill="#88E4C3"
        />
        <path
          id="Ellipse 78"
          d="M57.2434 237.672C61.8112 237.672 65.5141 234.017 65.5141 229.509C65.5141 225.001 61.8112 221.346 57.2434 221.346C52.6756 221.346 48.9727 225.001 48.9727 229.509C48.9727 234.017 52.6756 237.672 57.2434 237.672Z"
          fill="#88E4C3"
        />
        <path
          id="Ellipse 79"
          d="M81.7297 237.672C86.2975 237.672 90.0004 234.017 90.0004 229.509C90.0004 225.001 86.2975 221.346 81.7297 221.346C77.1619 221.346 73.459 225.001 73.459 229.509C73.459 234.017 77.1619 237.672 81.7297 237.672Z"
          fill="#88E4C3"
        />
        <path
          id="Ellipse 80"
          d="M8.27071 262.429C12.8385 262.429 16.5414 258.775 16.5414 254.267C16.5414 249.758 12.8385 246.104 8.27071 246.104C3.70292 246.104 0 249.758 0 254.267C0 258.775 3.70292 262.429 8.27071 262.429Z"
          fill="#88E4C3"
        />
        <path
          id="Ellipse 81"
          d="M32.757 262.429C37.3248 262.429 41.0278 258.775 41.0278 254.267C41.0278 249.758 37.3248 246.104 32.757 246.104C28.1893 246.104 24.4863 249.758 24.4863 254.267C24.4863 258.775 28.1893 262.429 32.757 262.429Z"
          fill="#88E4C3"
        />
        <path
          id="Ellipse 82"
          d="M57.2434 262.133C61.8112 262.133 65.5141 258.479 65.5141 253.971C65.5141 249.462 61.8112 245.808 57.2434 245.808C52.6756 245.808 48.9727 249.462 48.9727 253.971C48.9727 258.479 52.6756 262.133 57.2434 262.133Z"
          fill="#88E4C3"
        />
        <path
          id="Ellipse 83"
          d="M81.7297 262.134C86.2975 262.134 90.0004 258.479 90.0004 253.971C90.0004 249.463 86.2975 245.808 81.7297 245.808C77.1619 245.808 73.459 249.463 73.459 253.971C73.459 258.479 77.1619 262.134 81.7297 262.134Z"
          fill="#88E4C3"
        />
      </g>
      <path
        id="circ_2"
        d="M935 393.284C970.899 393.284 1000 364.182 1000 328.284C1000 292.385 970.899 263.284 935 263.284C899.101 263.284 870 292.385 870 328.284C870 364.182 899.101 393.284 935 393.284Z"
        fill="#151779"
      />
    </g>
    <g id="dotted-paths">
      <path
        id="Path 60"
        d="M188.76 446.423V348.495C188.76 348.495 185.632 330.341 221.087 330.341H368.106"
        stroke="#CCCCCC"
        stroke-width="2.85744"
        stroke-miterlimit="10"
        stroke-linecap="round"
        stroke-dasharray="6.86 9.14"
      />
      <path
        id="Path 61"
        d="M336.067 108.207H431.481C431.481 108.207 449.166 106.193 449.166 129.052V223.826"
        stroke="#333333"
        stroke-width="2.85744"
        stroke-miterlimit="10"
        stroke-linecap="round"
        stroke-dasharray="6.86 9.14"
      />
      <path
        id="Path 62"
        d="M617.097 539.115H496.647C496.647 539.115 474.318 540.828 474.318 520.866V438.017"
        stroke="#999999"
        stroke-width="2.85744"
        stroke-miterlimit="10"
        stroke-linecap="round"
        stroke-dasharray="6.86 9.14"
      />
      <path
        id="Path 63"
        d="M504.059 240.962V162.2C504.059 162.2 501.428 147.575 530.868 147.575H652.826"
        stroke="#333333"
        stroke-width="2.85744"
        stroke-miterlimit="10"
        stroke-linecap="round"
        stroke-dasharray="6.86 9.14"
      />
    </g>
    <g id="server-card">
      <path
        id="bg"
        d="M376.335 214.69H571.687C580.047 214.69 586.823 221.466 586.823 229.825V416.907C586.823 425.266 580.047 432.042 571.687 432.042H376.335C367.976 432.042 361.199 425.266 361.199 416.907V229.825C361.199 221.466 367.976 214.69 376.335 214.69Z"
        fill="#F5F5F5"
        stroke="#101010"
        stroke-width="4"
      />
      <g id="server">
        <path
          id="Rectangle 204"
          d="M534.565 254.986H414.166C411.327 254.986 409.025 257.288 409.025 260.127V290.584C409.025 293.423 411.327 295.725 414.166 295.725H534.565C537.404 295.725 539.705 293.423 539.705 290.584V260.127C539.705 257.288 537.404 254.986 534.565 254.986Z"
          fill="#151779"
        />
        <path
          id="Rectangle 205"
          d="M534.539 303.044H414.141C411.302 303.044 409 305.345 409 308.185V338.642C409 341.481 411.302 343.783 414.141 343.783H534.539C537.378 343.783 539.68 341.481 539.68 338.642V308.185C539.68 305.345 537.378 303.044 534.539 303.044Z"
          fill="#151779"
        />
        <path
          id="Rectangle 206"
          d="M534.539 351.243H414.141C411.302 351.243 409 353.545 409 356.384V386.842C409 389.681 411.302 391.982 414.141 391.982H534.539C537.378 391.982 539.68 389.681 539.68 386.842V356.384C539.68 353.545 537.378 351.243 534.539 351.243Z"
          fill="#151779"
        />
        <path
          id="Ellipse 89"
          d="M426.735 285.273C432.026 285.273 436.314 280.985 436.314 275.695C436.314 270.405 432.026 266.116 426.735 266.116C421.445 266.116 417.156 270.405 417.156 275.695C417.156 280.985 421.445 285.273 426.735 285.273Z"
          fill="#339BFC"
        />
        <path
          id="Ellipse 90"
          d="M426.735 332.721C432.026 332.721 436.314 328.433 436.314 323.142C436.314 317.852 432.026 313.564 426.735 313.564C421.445 313.564 417.156 317.852 417.156 323.142C417.156 328.433 421.445 332.721 426.735 332.721Z"
          fill="#339BFC"
        />
        <path
          id="Ellipse 91"
          d="M426.735 381.958C432.026 381.958 436.314 377.669 436.314 372.379C436.314 367.089 432.026 362.801 426.735 362.801C421.445 362.801 417.156 367.089 417.156 372.379C417.156 377.669 421.445 381.958 426.735 381.958Z"
          fill="#339BFC"
        />
      </g>
    </g>
    <g id="lock-card">
      <path
        id="bg_2"
        d="M672.787 28.7737H873.28C881.64 28.7737 888.416 35.55 888.416 43.9089V302.65C888.416 311.009 881.64 317.785 873.28 317.785H672.787C664.428 317.785 657.651 311.009 657.651 302.65V43.9089C657.651 35.55 664.428 28.7737 672.787 28.7737Z"
        fill="#F5F5F5"
        stroke="#101010"
        stroke-width="4"
      />
      <g id="lock-icon_2">
        <path
          id="Path 66"
          d="M804.037 113.429V113.635C802.092 113.455 800.138 113.429 798.185 113.438H789.497C789.437 107.303 789.754 101.169 789.36 95.043C788.812 86.424 781.323 79.6213 772.566 79.6213C763.81 79.6213 756.219 86.424 755.67 95.043C755.276 101.169 755.593 107.303 755.525 113.438C750.684 113.635 745.826 113.266 740.959 113.678V113.472C741.01 107.26 740.796 101.049 741.087 94.8374C741.361 88.1295 743.854 81.7022 748.173 76.5627C752.847 70.7903 759.434 66.8819 766.74 65.5448C767.621 65.5051 768.49 65.3198 769.311 64.9965H775.668C777.065 65.5791 778.598 65.5191 780.029 65.9303C792.162 69.3574 799.873 77.151 803.163 89.3113C803.769 91.7747 804.057 94.3056 804.02 96.8422C804.105 102.385 804.046 107.894 804.037 113.429Z"
          fill="#030430"
        />
        <path
          id="Path 67"
          d="M804.041 113.429H801.701C798.411 113.429 795.121 113.429 791.831 113.378C791.754 106.412 792.114 99.4296 791.668 92.4642C791.043 82.6714 782.526 74.9263 772.587 74.8835C762.648 74.8406 753.995 82.5943 753.369 92.4642C752.923 99.4296 753.283 106.412 753.206 113.378C749.136 113.54 745.067 113.378 740.988 113.446C741.04 107.235 740.825 101.023 741.117 94.8117C741.391 88.1038 743.883 81.6765 748.202 76.537C752.874 70.7795 759.45 66.881 766.744 65.5448C767.625 65.5051 768.494 65.3198 769.314 64.9965H775.672C777.068 65.5791 778.602 65.5191 780.033 65.9303C792.165 69.3574 799.876 77.151 803.167 89.3113C803.772 91.7747 804.06 94.3056 804.023 96.8422C804.109 102.385 804.049 107.894 804.041 113.429Z"
          fill="#339BFC"
        />
        <path
          id="Path 68"
          d="M790.321 110.816C793.354 110.816 796.396 110.867 799.429 110.858C801.476 110.823 803.524 110.894 805.564 111.073C808.556 111.799 811.214 113.517 813.104 115.948C814.678 117.868 815.581 120.251 815.674 122.733C815.76 127.779 815.726 132.817 815.734 137.863V168.955C815.734 175.295 811.913 180.239 805.992 181.695C804.912 181.951 803.804 182.074 802.694 182.064H742.417C734.946 182.064 729.411 176.649 729.385 169.212C729.334 154.048 729.334 138.883 729.385 123.718C729.385 117.601 733.155 112.889 739.076 111.287C739.222 111.231 739.365 111.168 739.504 111.098C744.576 110.661 749.666 111.047 754.747 110.841C755.261 110.841 755.775 110.893 756.289 110.893H788.462C789.053 110.867 789.687 110.841 790.321 110.816Z"
          fill="#030430"
        />
        <path
          id="Path 69"
          d="M772.406 160.825H769.339C769.06 160.858 768.778 160.823 768.516 160.722C768.254 160.621 768.021 160.457 767.837 160.244C767.653 160.032 767.525 159.778 767.462 159.504C767.4 159.23 767.406 158.945 767.48 158.674C767.865 155.984 768.259 153.285 768.671 150.604C768.732 150.382 768.713 150.145 768.615 149.936C768.518 149.727 768.349 149.56 768.14 149.464C766.58 148.518 765.371 147.088 764.699 145.392C764.026 143.697 763.925 141.828 764.412 140.069C764.899 138.311 765.947 136.76 767.396 135.652C768.846 134.544 770.617 133.94 772.442 133.931C774.266 133.922 776.044 134.509 777.504 135.603C778.964 136.696 780.027 138.237 780.531 139.991C781.035 141.744 780.953 143.614 780.297 145.316C779.641 147.018 778.447 148.46 776.896 149.421C776.664 149.523 776.477 149.707 776.372 149.938C776.266 150.168 776.248 150.43 776.322 150.672C776.75 153.337 777.119 156.001 777.487 158.674C777.561 158.945 777.567 159.23 777.504 159.504C777.442 159.778 777.314 160.032 777.13 160.244C776.946 160.457 776.713 160.621 776.451 160.722C776.19 160.823 775.907 160.858 775.628 160.825C774.591 160.842 773.52 160.825 772.406 160.825Z"
          fill="#339BFC"
        />
      </g>
      <g id="network">
        <path
          id="Rectangle 214"
          d="M831.523 220.618H714.141C711.302 220.618 709 222.92 709 225.759V228.655C709 231.494 711.302 233.796 714.141 233.796H831.523C834.362 233.796 836.664 231.494 836.664 228.655V225.759C836.664 222.92 834.362 220.618 831.523 220.618Z"
          fill="#101010"
        />
        <path
          id="Rectangle 215"
          d="M795.541 268.278H751.844C749.005 268.278 746.703 270.58 746.703 273.419V276.315C746.703 279.154 749.005 281.456 751.844 281.456H795.541C798.38 281.456 800.682 279.154 800.682 276.315V273.419C800.682 270.58 798.38 268.278 795.541 268.278Z"
          fill="#101010"
        />
        <path
          id="Ellipse 92"
          d="M727.257 257.964C731.331 257.964 734.634 254.661 734.634 250.587C734.634 246.513 731.331 243.21 727.257 243.21C723.183 243.21 719.88 246.513 719.88 250.587C719.88 254.661 723.183 257.964 727.257 257.964Z"
          fill="#151779"
        />
        <path
          id="Ellipse 93"
          d="M749.535 257.964C753.61 257.964 756.912 254.661 756.912 250.587C756.912 246.513 753.61 243.21 749.535 243.21C745.461 243.21 742.158 246.513 742.158 250.587C742.158 254.661 745.461 257.964 749.535 257.964Z"
          fill="#151779"
        />
        <path
          id="Ellipse 94"
          d="M772.671 257.964C776.745 257.964 780.048 254.661 780.048 250.587C780.048 246.513 776.745 243.21 772.671 243.21C768.597 243.21 765.294 246.513 765.294 250.587C765.294 254.661 768.597 257.964 772.671 257.964Z"
          fill="#151779"
        />
        <path
          id="Ellipse 95"
          d="M795.803 257.964C799.877 257.964 803.18 254.661 803.18 250.587C803.18 246.513 799.877 243.21 795.803 243.21C791.729 243.21 788.426 246.513 788.426 250.587C788.426 254.661 791.729 257.964 795.803 257.964Z"
          fill="#151779"
        />
        <path
          id="Ellipse 96"
          d="M818.084 257.964C822.158 257.964 825.461 254.661 825.461 250.587C825.461 246.513 822.158 243.21 818.084 243.21C814.01 243.21 810.707 246.513 810.707 250.587C810.707 254.661 814.01 257.964 818.084 257.964Z"
          fill="#151779"
        />
      </g>
    </g>
    <g id="cloud-card">
      <path
        id="bg_3"
        d="M634.289 451.338H932.458C940.818 451.338 947.594 458.115 947.594 466.474V603.555C947.594 611.914 940.818 618.69 932.458 618.69H634.289C625.93 618.69 619.153 611.914 619.153 603.555V466.474C619.153 458.115 625.93 451.338 634.289 451.338Z"
        fill="#F5F5F5"
        stroke="#101010"
        stroke-width="4"
      />
      <g id="clouds">
        <path
          id="Path 64"
          d="M861.934 586.407C879.73 586.407 894.158 572.305 894.158 554.913C894.158 537.52 879.73 523.41 861.934 523.41C860.948 523.41 859.989 523.461 859.029 523.547C859.793 521.829 860.188 519.969 860.186 518.089C860.143 514.389 858.632 510.857 855.986 508.271C853.34 505.684 849.775 504.254 846.074 504.295C843.637 504.296 841.241 504.917 839.111 506.101C835.931 498.612 830.607 492.229 823.809 487.758C817.01 483.287 809.041 480.927 800.903 480.974C778.121 480.974 759.657 499.018 759.657 521.242V521.919H758.337C739.899 521.919 724.922 536.484 724.922 554.553C724.922 572.622 739.873 587.324 758.337 587.187L861.934 586.407Z"
          fill="#101010"
        />
        <path
          id="Path 65"
          d="M810.012 586.619L810.001 586.619L706.404 587.399C706.404 587.399 706.404 587.399 706.404 587.399C688.753 587.53 674.5 573.481 674.5 556.265C674.5 539.059 688.77 525.131 706.415 525.131H707.735H709.235V523.631V522.954C709.235 501.592 726.994 484.186 748.982 484.186L748.99 484.186C756.831 484.141 764.51 486.416 771.061 490.725C777.612 495.034 782.742 501.184 785.806 508.401L786.458 509.937L787.916 509.126C789.826 508.064 791.975 507.507 794.161 507.507L794.169 507.507L794.178 507.507C795.812 507.489 797.435 507.793 798.952 508.402C800.47 509.011 801.852 509.913 803.021 511.056C804.19 512.199 805.122 513.561 805.764 515.064C806.405 516.566 806.745 518.179 806.764 519.811C806.764 521.478 806.414 523.126 805.737 524.649L804.7 526.98L807.241 526.753C808.165 526.67 809.087 526.622 810.012 526.622C827.011 526.622 840.736 540.093 840.736 556.625C840.736 573.156 827.012 586.619 810.012 586.619Z"
          fill="#F5F5F5"
          stroke="#101010"
          stroke-width="3"
        />
      </g>
    </g>
    <g id="battery-card">
      <path
        id="bg_4"
        d="M61.6791 389.47H314.643C323.002 389.47 329.779 396.246 329.779 404.605V583.488C329.779 591.846 323.002 598.623 314.643 598.623H61.6791C53.3195 598.623 46.543 591.846 46.543 583.488V404.605C46.543 396.246 53.3195 389.47 61.6791 389.47Z"
        fill="#F5F5F5"
        stroke="#101010"
        stroke-width="4"
      />
      <g id="Group 1075">
        <g id="battery-icon">
          <path
            id="Rectangle 207"
            d="M267.232 447.503H261.072C259.179 447.503 257.645 449.037 257.645 450.93V477.798C257.645 479.69 259.179 481.225 261.072 481.225H267.232C269.125 481.225 270.659 479.69 270.659 477.798V450.93C270.659 449.037 269.125 447.503 267.232 447.503Z"
            fill="#101010"
          />
          <path
            id="Rectangle 208"
            d="M252.162 426.977H112.203C108.417 426.977 105.349 430.045 105.349 433.831V495.791C105.349 499.577 108.417 502.646 112.203 502.646H252.162C255.948 502.646 259.017 499.577 259.017 495.791V433.831C259.017 430.045 255.948 426.977 252.162 426.977Z"
            stroke="#101010"
            stroke-width="5.71488"
            stroke-miterlimit="10"
          />
          <path
            id="Rectangle 209"
            d="M130.573 434.959H116.607C114.714 434.959 113.18 436.493 113.18 438.386V491.505C113.18 493.398 114.714 494.932 116.607 494.932H130.573C132.466 494.932 134 493.398 134 491.505V438.386C134 436.493 132.466 434.959 130.573 434.959Z"
            fill="#339BFC"
          />
          <path
            id="Rectangle 210"
            d="M156.131 434.959H142.166C140.273 434.959 138.738 436.493 138.738 438.386V491.505C138.738 493.398 140.273 494.932 142.166 494.932H156.131C158.024 494.932 159.559 493.398 159.559 491.505V438.386C159.559 436.493 158.024 434.959 156.131 434.959Z"
            fill="#339BFC"
          />
          <path
            id="Rectangle 211"
            d="M181.689 434.959H167.723C165.83 434.959 164.296 436.493 164.296 438.386V491.505C164.296 493.398 165.83 494.932 167.723 494.932H181.689C183.582 494.932 185.116 493.398 185.116 491.505V438.386C185.116 436.493 183.582 434.959 181.689 434.959Z"
            fill="#339BFC"
          />
          <path
            id="Rectangle 212"
            d="M207.256 434.959H193.291C191.398 434.959 189.863 436.493 189.863 438.386V491.505C189.863 493.398 191.398 494.932 193.291 494.932H207.256C209.149 494.932 210.684 493.398 210.684 491.505V438.386C210.684 436.493 209.149 434.959 207.256 434.959Z"
            fill="#339BFC"
          />
          <path
            id="Rectangle 213"
            d="M232.959 434.959H218.993C217.1 434.959 215.565 436.493 215.565 438.386V491.505C215.565 493.398 217.1 494.932 218.993 494.932H232.959C234.851 494.932 236.386 493.398 236.386 491.505V438.386C236.386 436.493 234.851 434.959 232.959 434.959Z"
            fill="#339BFC"
          />
        </g>
        <path
          id="Path 70"
          d="M232.664 555.794C232.664 557.157 232.123 558.465 231.158 559.429C230.194 560.393 228.887 560.935 227.523 560.935H110.141C108.777 560.935 107.47 560.393 106.506 559.429C105.542 558.465 105 557.157 105 555.794C105 554.43 105.542 553.123 106.506 552.159C107.47 551.195 108.777 550.653 110.141 550.653H227.523C228.887 550.653 230.194 551.195 231.158 552.159C232.123 553.123 232.664 554.43 232.664 555.794Z"
          fill="#101010"
        />
        <path
          id="Path 71"
          d="M168.832 537.513C168.832 538.877 168.29 540.184 167.326 541.148C166.362 542.112 165.055 542.654 163.691 542.654H110.141C108.777 542.654 107.47 542.112 106.506 541.148C105.542 540.184 105 538.877 105 537.513C105 536.15 105.542 534.842 106.506 533.878C107.47 532.914 108.777 532.372 110.141 532.372H163.691C165.055 532.372 166.362 532.914 167.326 533.878C168.29 534.842 168.832 536.15 168.832 537.513Z"
          fill="#999999"
        />
      </g>
    </g>
    <g id="gear-card">
      <path
        id="bg_5"
        d="M116.669 2H318.927C327.287 2 334.063 8.77636 334.063 17.1352V191.271C334.063 199.63 327.287 206.407 318.927 206.407H116.669C108.31 206.407 101.533 199.63 101.533 191.271V17.1352C101.533 8.77636 108.31 2 116.669 2Z"
        fill="#F5F5F5"
        stroke="#101010"
        stroke-width="4"
      />
      <g id="Group 1068">
        <g id="gear-sm">
          <g id="gear-teeth">
            <path
              id="Rectangle 189"
              d="M287.78 71.0053L287.35 77.3505C287.318 77.8228 287.674 78.2317 288.146 78.2637L298.518 78.9678C298.989 78.9998 299.398 78.6429 299.43 78.1706L299.86 71.8253C299.892 71.353 299.535 70.9442 299.063 70.9122L288.692 70.2081C288.22 70.1761 287.812 70.533 287.78 71.0053Z"
              fill="#339BFC"
              stroke="#339BFC"
              stroke-width="1.14298"
              stroke-linejoin="round"
            />
            <path
              id="Rectangle 191"
              d="M261.713 37.8524L261.009 48.234C260.977 48.7062 261.334 49.1151 261.805 49.1471L268.144 49.5774C268.616 49.6095 269.025 49.2526 269.057 48.7803L269.76 38.3987C269.792 37.9264 269.436 37.5176 268.964 37.4855L262.625 37.0552C262.153 37.0232 261.745 37.3801 261.713 37.8524Z"
              fill="#339BFC"
              stroke="#339BFC"
              stroke-width="1.14298"
              stroke-linejoin="round"
            />
            <path
              id="Rectangle 193"
              d="M258.826 96.211L258.122 106.593C258.09 107.065 258.447 107.474 258.919 107.506L265.258 107.936C265.73 107.968 266.138 107.611 266.17 107.139L266.873 96.7573C266.905 96.285 266.549 95.8762 266.077 95.8442L259.738 95.4138C259.266 95.3818 258.858 95.7387 258.826 96.211Z"
              fill="#339BFC"
              stroke="#339BFC"
              stroke-width="1.14298"
              stroke-linejoin="round"
            />
            <path
              id="Rectangle 195"
              d="M229.406 67.0466L228.976 73.3918C228.944 73.8641 229.3 74.2729 229.772 74.3049L240.144 75.0085C240.615 75.0405 241.024 74.6836 241.056 74.2113L241.486 67.8661C241.518 67.3938 241.162 66.985 240.69 66.953L230.318 66.2494C229.847 66.2174 229.438 66.5743 229.406 67.0466Z"
              fill="#339BFC"
              stroke="#339BFC"
              stroke-width="1.14298"
              stroke-linejoin="round"
            />
            <path
              id="Rectangle 197"
              d="M287.225 46.3614L279.394 53.2042C279.038 53.5155 279.001 54.0569 279.312 54.4135L283.491 59.2045C283.802 59.5611 284.343 59.5978 284.699 59.2865L292.53 52.4437C292.886 52.1324 292.923 51.591 292.612 51.2343L288.433 46.4434C288.122 46.0868 287.582 46.0501 287.225 46.3614Z"
              fill="#339BFC"
              stroke="#339BFC"
              stroke-width="1.14298"
              stroke-linejoin="round"
            />
            <g id="Group 1066">
              <path
                id="Rectangle 198"
                d="M242.231 84.9249L234.398 91.7653C234.042 92.0765 234.005 92.6177 234.316 92.9742L238.496 97.7639C238.807 98.1204 239.348 98.1571 239.705 97.846L247.538 91.0056C247.894 90.6944 247.931 90.1531 247.62 89.7966L243.44 85.007C243.129 84.6505 242.588 84.6137 242.231 84.9249Z"
                fill="#339BFC"
              />
              <path
                id="Rectangle 199"
                d="M242.231 84.9249L234.398 91.7653C234.042 92.0765 234.005 92.6177 234.316 92.9742L238.496 97.7639C238.807 98.1204 239.348 98.1571 239.705 97.846L247.538 91.0056C247.894 90.6944 247.931 90.1531 247.62 89.7966L243.44 85.007C243.129 84.6505 242.588 84.6137 242.231 84.9249Z"
                stroke="#339BFC"
                stroke-width="1.14298"
                stroke-linejoin="round"
              />
            </g>
            <path
              id="Rectangle 201"
              d="M242.109 44.4332L237.323 48.6155C236.967 48.9268 236.93 49.4683 237.241 49.8249L244.077 57.6635C244.388 58.0201 244.929 58.0568 245.285 57.7455L250.072 53.5632C250.428 53.2519 250.465 52.7104 250.154 52.3538L243.317 44.5152C243.006 44.1586 242.465 44.1219 242.109 44.4332Z"
              fill="#339BFC"
              stroke="#339BFC"
              stroke-width="1.14298"
              stroke-linejoin="round"
            />
            <path
              id="Rectangle 203"
              d="M280.569 88.5338L275.783 92.7161C275.427 93.0274 275.39 93.5689 275.701 93.9255L282.537 101.764C282.848 102.121 283.389 102.157 283.745 101.846L288.532 97.6637C288.888 97.3524 288.925 96.811 288.614 96.4544L281.777 88.6158C281.466 88.2592 280.925 88.2225 280.569 88.5338Z"
              fill="#339BFC"
              stroke="#339BFC"
              stroke-width="1.14298"
              stroke-linejoin="round"
            />
          </g>
          <g id="gear-body">
            <path
              id="Ellipse 87"
              d="M263.854 102.846C280.287 102.846 293.609 89.5115 293.609 73.0626C293.609 56.6137 280.287 43.2793 263.854 43.2793C247.421 43.2793 234.099 56.6137 234.099 73.0626C234.099 89.5115 247.421 102.846 263.854 102.846Z"
              fill="#339BFC"
              stroke="#339BFC"
              stroke-width="0.571488"
              stroke-miterlimit="10"
            />
            <path
              id="Ellipse 88"
              d="M263.759 88.157C271.831 88.157 278.376 81.6068 278.376 73.5267C278.376 65.4467 271.831 58.8965 263.759 58.8965C255.687 58.8965 249.143 65.4467 249.143 73.5267C249.143 81.6068 255.687 88.157 263.759 88.157Z"
              fill="#F5F5F5"
            />
          </g>
        </g>
        <g id="gear-lg">
          <g id="gear-teeth_2">
            <path
              id="Rectangle 189_2"
              d="M224.708 112.088L224.746 121.315C224.749 122.001 225.307 122.556 225.993 122.553L241.073 122.494C241.759 122.491 242.313 121.932 242.31 121.245L242.273 112.019C242.27 111.332 241.712 110.778 241.026 110.781L225.945 110.84C225.259 110.843 224.706 111.402 224.708 112.088Z"
              fill="#030430"
              stroke="#030430"
              stroke-width="1.14298"
              stroke-linejoin="round"
            />
            <path
              id="Rectangle 191_2"
              d="M183.543 66.8267L183.604 81.9217C183.607 82.6085 184.166 83.163 184.852 83.1603L194.069 83.1239C194.755 83.1212 195.309 82.5624 195.306 81.8756L195.244 66.7806C195.241 66.0938 194.683 65.5393 193.997 65.542L184.78 65.5784C184.094 65.5811 183.54 66.14 183.543 66.8267Z"
              fill="#030430"
              stroke="#030430"
              stroke-width="1.14298"
              stroke-linejoin="round"
            />
            <path
              id="Rectangle 193_2"
              d="M185.431 151.57L185.493 166.666C185.496 167.352 186.054 167.907 186.74 167.904L195.957 167.868C196.643 167.865 197.197 167.306 197.194 166.619L197.133 151.524C197.13 150.838 196.572 150.283 195.886 150.286L186.669 150.322C185.983 150.325 185.429 150.884 185.431 151.57Z"
              fill="#030430"
              stroke="#030430"
              stroke-width="1.14298"
              stroke-linejoin="round"
            />
            <path
              id="Rectangle 195_2"
              d="M139.831 112.429L139.868 121.655C139.871 122.341 140.429 122.896 141.115 122.893L156.195 122.833C156.881 122.83 157.435 122.272 157.433 121.585L157.395 112.359C157.393 111.672 156.834 111.117 156.148 111.12L141.068 111.18C140.382 111.183 139.828 111.742 139.831 112.429Z"
              fill="#030430"
              stroke="#030430"
              stroke-width="1.14298"
              stroke-linejoin="round"
            />
            <path
              id="Rectangle 197_2"
              d="M221.343 76.4867L210.723 87.2022C210.24 87.6897 210.244 88.4769 210.731 88.9606L217.275 95.4586C217.762 95.9423 218.548 95.9392 219.032 95.4517L229.652 84.7362C230.135 84.2487 230.132 83.4614 229.645 82.9778L223.1 76.4797C222.613 75.9961 221.827 75.9992 221.343 76.4867Z"
              fill="#030430"
              stroke="#030430"
              stroke-width="1.14298"
              stroke-linejoin="round"
            />
            <g id="Group 1066_2">
              <path
                id="Rectangle 198_2"
                d="M160.246 136.965L149.622 147.677C149.139 148.165 149.142 148.952 149.629 149.435L156.176 155.931C156.663 156.415 157.45 156.411 157.933 155.924L168.556 145.212C169.04 144.725 169.036 143.938 168.549 143.454L162.003 136.958C161.516 136.475 160.729 136.478 160.246 136.965Z"
                fill="#030430"
              />
              <path
                id="Rectangle 199_2"
                d="M160.246 136.965L149.622 147.677C149.139 148.165 149.142 148.952 149.629 149.435L156.176 155.931C156.663 156.415 157.45 156.411 157.933 155.924L168.556 145.212C169.04 144.725 169.036 143.938 168.549 143.454L162.003 136.958C161.516 136.475 160.729 136.478 160.246 136.965Z"
                stroke="#030430"
                stroke-width="1.14298"
                stroke-linejoin="round"
              />
            </g>
            <path
              id="Rectangle 201_2"
              d="M155.86 78.3868L149.369 84.9362C148.886 85.4237 148.889 86.2109 149.376 86.6946L160.083 97.3262C160.57 97.8098 161.357 97.8067 161.84 97.3192L168.331 90.7699C168.814 90.2824 168.811 89.4951 168.324 89.0115L157.617 78.3799C157.13 77.8963 156.343 77.8994 155.86 78.3868Z"
              fill="#030430"
              stroke="#030430"
              stroke-width="1.14298"
              stroke-linejoin="round"
            />
            <path
              id="Rectangle 203_2"
              d="M216.096 138.202L209.605 144.751C209.122 145.238 209.125 146.026 209.612 146.509L220.32 157.141C220.807 157.625 221.593 157.621 222.076 157.134L228.567 150.585C229.05 150.097 229.047 149.31 228.56 148.826L217.853 138.195C217.366 137.711 216.579 137.714 216.096 138.202Z"
              fill="#030430"
              stroke="#030430"
              stroke-width="1.14298"
              stroke-linejoin="round"
            />
          </g>
          <g id="gear-body_2">
            <path
              id="Ellipse 87_2"
              d="M193.399 160.648C217.178 158.94 235.068 138.26 233.358 114.459C231.647 90.658 210.984 72.7483 187.206 74.4567C163.427 76.1651 145.537 96.8447 147.247 120.646C148.957 144.447 169.62 162.357 193.399 160.648Z"
              fill="#030430"
              stroke="#030430"
              stroke-width="0.571488"
              stroke-miterlimit="10"
            />
            <path
              id="Ellipse 88_2"
              d="M191.735 139.404C203.416 138.564 212.204 128.406 211.364 116.714C210.523 105.023 200.373 96.225 188.693 97.0642C177.012 97.9034 168.224 108.062 169.064 119.753C169.904 131.445 180.054 140.243 191.735 139.404Z"
              fill="#F5F5F5"
            />
          </g>
        </g>
      </g>
    </g>
  </g>
</svg>
