<svg id="world-map" viewBox="0 0 1001 533" fill="none" xmlns="http://www.w3.org/2000/svg">
  <g>
    <g id="map">
      <path
        id="Vector"
        opacity="0.929412"
        d="M289.105 47.5142H296.737L303.522 49.2111H313.699L317.94 50.9081H339.142L348.472 48.3626L352.712 50.9081L369.674 51.7566L371.37 50.9081L372.218 51.7566H394.269L402.75 50.0596C404.05 51.5869 406.312 52.1526 409.535 51.7566L413.351 55.5748C408.884 57.6112 405.21 60.4394 402.326 64.0597C403.061 68.189 402.072 70.5931 399.358 71.2719L389.18 72.1203L387.06 74.2416L386.212 81.0295L387.06 82.7265L383.244 88.2416C381.435 89.5424 378.607 89.8258 374.763 89.0901L366.282 91.6356H361.193L354.408 94.1811L352.288 96.3023C352.74 97.603 352.316 98.0273 351.016 97.575L348.472 99.272L337.446 101.817L333.63 105.636C331.594 110.67 328.626 114.771 324.725 117.939L322.18 118.787L314.972 114.121L310.731 107.333L307.339 92.9083L309.459 91.6356C310.307 93.05 312.286 93.3326 315.396 92.4841L318.364 90.3629L319.212 85.2719L315.82 75.0901L311.155 70.4234L306.067 66.1809L296.737 65.3324L292.921 62.3627L294.193 61.09H306.915L310.731 59.393L310.307 55.1506L276.383 62.787L275.111 64.0597L272.991 67.0294H269.598L262.813 69.5749L256.029 66.1809H251.788L247.123 63.2112L246.275 60.6657L250.94 56.8475L272.142 54.3021L278.079 50.0596L289.105 47.5142ZM288.68 49.2111L278.503 51.7566L272.567 55.999L253.908 57.696L247.972 61.9385L251.364 64.4839H256.453L262.389 67.8779H265.782C266.347 65.6152 268.608 64.7667 272.567 65.3324C273.697 62.5042 276.241 60.8072 280.199 60.2415L295.465 57.696L311.579 53.4536C312.71 54.0193 312.993 55.999 312.427 59.393L307.339 62.787L296.313 63.6354L306.491 64.4839L314.124 70.4234L318.364 77.2113L320.908 85.6962C321.474 89.0901 320.908 91.353 319.212 92.4841L315.82 94.1811C312.427 94.747 310.165 94.4636 309.035 93.3326L311.579 102.666V106.06L314.972 111.999L322.605 117.09L325.149 116.242L331.086 108.605L332.782 104.363L337.87 100.12L350.592 96.7265L352.288 93.3326L362.465 89.9386H367.554L376.035 87.3931H381.972L385.364 83.9992L384.516 80.6052C383.95 76.6456 384.516 74.1001 386.212 72.9688L389.605 70.4234C394.127 71.5547 397.52 71.2719 399.782 69.5749L400.63 68.7264L401.478 62.787C403.174 59.9587 406.001 57.9788 409.959 56.8475L410.807 55.1506L404.022 51.7566H398.934L393.845 53.4536H373.491L372.642 52.6051L369.25 53.4536L353.136 52.6051L348.896 50.0596L338.718 52.6051H319.212L314.972 50.9081H304.794L298.01 49.2111H288.68Z"
        fill="#666666"
        stroke="#666666"
      />
      <path
        id="Vector_2"
        opacity="0.929412"
        d="M680.925 67.0303H684.318L691.103 69.5757L691.951 68.7273H698.735L702.552 71.697C699.612 73.2242 697.915 75.6283 697.463 78.9091L712.305 78.0606C715.301 81.0021 720.108 82.1334 726.723 81.4546L734.356 78.9091H740.292L747.925 80.6061L752.166 83.1516L767.432 84C769.128 85.697 771.955 86.263 775.913 85.697L782.273 80.1818L783.546 78.0606L796.267 84H824.254L831.039 87.394L850.546 88.2425L864.115 91.6364L867.508 87.394L895.495 91.6364L903.128 95.0304H908.216C908.954 93.7857 910.651 93.5031 913.305 94.1819L923.482 97.5759L928.147 102.243C928.656 104.166 927.384 104.59 924.33 103.515L915.001 100.121L908.216 99.2728L904.4 104.364L914.153 108.606L916.273 110.727C916.723 112.028 916.299 112.452 915.001 112C914.323 113.301 912.627 113.584 909.913 112.849L907.792 114.97L903.128 120.485L901.432 121.334C899.964 120.542 899.396 118.845 899.735 116.243C895.605 117.487 892.357 119.609 889.982 122.606C889.584 124.756 890.008 126.028 891.254 126.424L897.615 128.121C899.481 130.667 900.609 134.203 901.008 138.728L899.311 144.667V146.364V151.031H897.191L888.286 142.97L886.59 137.455L881.501 135.758L878.109 129.394V126L882.349 119.212L880.653 112.849H876.837C876.048 114.885 874.063 115.734 870.9 115.394L866.659 112.849L862.843 116.667C863.293 120.118 863.013 122.521 861.995 123.879L859.027 124.728L855.634 123.031H850.546L836.976 120.485L828.071 127.697C826.375 129.96 825.806 133.354 826.375 137.879L827.223 140L831.887 141.697H835.28C836.238 140.17 838.503 139.887 842.065 140.849L848.001 142.546L850.97 145.515C851.987 149.645 854.252 152.473 857.754 154V157.394L856.906 158.243V167.576V169.273L852.242 178.182C848.001 177.616 845.033 177.9 843.337 179.031C844.075 183.556 842.938 186.525 839.944 187.94V192.182L851.818 200.243L852.666 205.758L848.001 211.273L844.609 212.122L840.792 209.152C841.751 205.362 841.327 202.958 839.52 201.94C836.297 201.261 833.897 199.706 832.311 197.273C832.88 194.728 832.456 193.173 831.039 192.607L828.495 191.758L823.406 195.152C821.261 193.229 820.268 190.401 820.438 186.667C817.272 186.724 815.01 187.997 813.653 190.485L807.716 199.819L808.989 201.092H820.862L822.558 200.243L823.83 202.364L820.438 207.455V210.001C823.152 215.261 826.824 219.504 831.463 222.728L834.856 231.213V237.152C833.388 243.318 830.42 247.985 825.951 251.152L813.653 255.395L805.172 270.668L802.628 270.243V260.91L795.419 257.092C791.97 259.58 789.567 263.116 788.21 267.698L797.539 276.183L803.476 285.516L805.172 291.456C803.589 296.377 800.904 300.195 797.115 302.91L791.178 306.304L785.666 301.637C786.118 300.393 785.694 299.968 784.394 300.365L775.913 290.183L772.944 292.304L772.096 299.092L772.944 302.486L772.096 306.304C770.004 307.153 769.156 306.728 769.552 305.031C767.856 302.768 767.29 299.375 767.856 294.85L768.704 290.607L764.039 280.001L757.678 281.698C756.718 280.34 756.434 277.937 756.83 274.486L755.558 273.213L749.197 268.546C748.01 263.852 745.607 260.316 741.989 257.94L736.9 256.243H732.659L719.938 268.122L711.033 273.637L706.792 282.971L705.944 288.91L706.792 289.759V301.637C704.927 304.862 701.958 306.983 697.887 308.001L694.071 303.334L692.375 295.698L682.197 273.637L681.349 269.395C682.933 268.434 683.215 266.171 682.197 262.607L680.501 258.789L673.292 261.334L669.476 258.364L664.811 252.849L653.786 245.213L644.457 244.364L640.216 245.213L639.368 244.364H631.735L623.678 238.849C623.961 237.152 622.124 236.728 618.166 237.577C617.205 236.049 614.943 235.767 611.381 236.728L596.539 227.395V231.213L601.628 244.789L604.596 247.758C605.387 249.229 607.084 249.795 609.685 249.455C613.416 248.946 616.102 247.391 617.742 244.789L620.71 240.97L623.678 242.243C624.018 246.995 625.856 250.247 629.191 252.001L634.704 255.819L633.856 259.213L622.406 273.213L613.925 280.001C606.123 281.811 599.62 284.922 594.419 289.334L587.634 291.031L582.121 287.213L577.881 273.637L566.856 259.213L560.071 243.94L551.166 233.334C547.717 232.655 546.162 233.08 546.501 234.607L550.742 242.243L560.071 266.001L577.033 288.062L580.425 298.668H586.786L587.634 297.819H602.052L607.14 296.122L608.413 299.092L604.172 311.819L593.995 326.244L587.634 332.607C586.39 332.211 585.966 332.635 586.362 333.88L569.4 355.092C567.704 356.789 567.138 359.617 567.704 363.577L571.944 377.153L572.792 390.729L568.976 398.789L557.527 407.699L553.286 415.335V419.577L554.982 427.214L546.501 434.85L541.413 446.305H540.14L525.723 460.729L513.001 465.82C508.478 465.254 505.086 465.82 502.824 467.517L498.159 463.699L496.463 458.608V454.365L487.982 440.79L486.286 434.002V426.365L484.59 421.274L475.261 402.608C476.844 401.646 477.127 399.383 476.109 395.82C479.558 391.634 481.819 386.26 482.894 379.698L480.349 374.607C481.763 373.759 482.046 371.779 481.197 368.668L474.413 352.547L467.628 345.759L466.78 339.819C468.476 337.557 469.324 334.446 469.324 330.486L464.659 322.425L459.571 321.577H457.875L454.906 319.456L452.786 316.486C450.129 314.619 446.171 314.053 440.913 314.789L434.976 317.334L428.191 319.031H421.406L417.166 321.577L410.381 322.425C403.483 320.559 398.253 317.023 394.691 311.819L387.906 299.94L383.242 295.274L380.273 293.153V288.062L378.577 282.971C381.348 279.237 382.761 274.146 382.818 267.698C381.178 265.662 380.613 262.55 381.121 258.364C384.966 247.221 391.044 238.312 399.356 231.637L404.868 226.97V222.728L410.381 215.516L418.438 208.304C417.929 206.607 418.919 206.182 421.406 207.031L424.799 208.728C426.891 206.861 430.283 206.295 434.976 207.031L438.368 207.879L445.153 204.485L457.875 203.637L470.596 200.243L472.716 203.213C470.511 205.758 469.663 209.294 470.172 213.819L475.261 215.94L477.381 218.91L480.773 218.061C485.975 219.362 490.215 221.625 493.495 224.849H500.704L503.248 220.183V216.364H505.368L514.697 221.455L524.875 223.152C525.723 221.738 527.701 221.455 530.811 222.304L531.659 223.152L542.685 224.001L548.197 220.183L552.438 210.849V205.758L551.59 203.637L548.621 204.485L547.773 203.637H529.963L521.906 198.122L521.058 189.637L521.906 187.516L513.849 190.061L510.033 189.213V191.334L513.425 196.425L509.609 201.94L505.792 201.092L499.008 190.485L498.159 184.546L496.039 181.576L491.799 180.728L479.077 170.546H476.109L476.957 174.364L484.166 181.576C488.915 182.821 492.449 185.225 494.767 188.788C495.502 191.164 494.513 191.871 491.799 190.91L489.678 195.576L485.014 200.243C482.922 200.695 481.649 200.271 481.197 198.97C480.745 197.5 481.452 197.076 483.318 197.698L487.134 193.879V192.182L482.47 186.667L473.14 182.425L469.324 178.607L467.204 175.637C463.076 174.166 461.521 175.156 462.539 178.607C461.861 180.191 460.023 180.615 457.027 179.879L452.786 179.031L447.273 185.819L440.489 189.637L439.64 195.576L437.52 198.546L425.647 204.485L422.254 202.788L412.501 201.092C410.975 199.621 410.409 196.934 410.805 193.031L411.653 192.182V182.001L414.621 177.334L420.558 176.485L429.887 179.879L434.552 178.182C435.457 176.994 435.739 174.873 435.4 171.819L428.615 163.334L432.008 162.061L430.311 158.243L431.583 156.97L441.761 156.122L449.394 149.334C452.108 149.786 453.662 149.079 454.058 147.212C453.776 144.95 454.482 143.677 456.178 143.394L461.267 142.546L467.204 137.455C467.769 139.152 469.466 139.718 472.292 139.152L475.685 137.455L479.925 138.303L482.47 140.849H485.014L489.254 138.303C494.569 139.378 498.103 138.671 499.856 136.182L500.704 131.091L501.976 129.818L506.216 130.667C507.913 130.384 508.619 129.112 508.337 126.849L506.64 122.606C507.376 121.079 508.082 120.937 508.761 122.182L513.849 123.031L517.666 120.061L516.394 117.94L505.368 118.788L503.248 117.94L501.552 113.273L506.64 105.637L505.792 103.515C500.365 104.194 496.124 106.315 493.071 109.879L491.375 117.515L493.919 122.606L486.71 132.364L480.773 134.909L476.109 131.94C476.561 129.281 475.854 127.725 473.989 127.273L462.963 121.334L459.147 123.879C458.186 122.521 457.903 120.118 458.299 116.667L460.419 112.849C464.094 112.849 466.78 111.858 468.476 109.879C468.985 105.806 470.823 103.119 473.989 101.818L495.191 86.5455L500.28 84.8485H504.52L505.368 85.697H515.546L520.634 87.394L530.811 88.2425L545.653 94.6062L542.685 99.2728C539.688 99.7251 537.709 99.16 536.748 97.5759H532.508L529.539 98.4244L532.508 102.667L538.02 106.485C537.568 107.955 538.275 108.38 540.14 107.758L551.166 99.2728L568.976 91.6364H571.52C572.82 93.1637 575.082 93.7297 578.305 93.3334L582.546 92.4849L591.027 88.2425C594.645 92.5418 600.582 94.5213 608.837 94.1819L611.805 92.0607L605.868 84.4243L605.02 79.3334C605.472 78.0889 606.744 77.6646 608.837 78.0606L614.773 79.7576L618.59 83.5758C620.568 85.8387 621.134 89.5152 620.286 94.6062L621.558 95.8789C624.555 96.6145 626.392 96.1903 627.071 94.6062L621.982 81.8788L623.254 81.4546L630.039 90.788L633.008 89.5152L633.856 86.9698L631.311 78.4849L632.584 77.2121C636.372 77.6081 639.199 77.0424 641.065 75.5152L653.786 74.6667C657.63 73.7051 660.458 71.7252 662.267 68.7273L665.659 67.8788L669.052 68.7273L669.9 67.8788H680.077L680.925 67.0303ZM680.501 68.7273L679.653 69.5757H669.476L668.628 70.4242L666.932 69.5757H664.387L656.754 75.5152L648.273 77.2121L646.577 76.3637L633.008 78.9091C632.442 82.3031 633.29 85.1311 635.552 87.394L633.856 91.6364L632.159 92.4849L629.615 91.6364L627.919 96.7274L626.223 97.5759C622.83 98.1418 620.568 97.8584 619.438 96.7274C618.307 94.4645 618.024 91.0705 618.59 86.5455L616.894 84L613.501 80.6061L606.716 79.7576V83.1516L610.109 88.2425L612.653 89.091C613.784 89.6569 614.067 91.0705 613.501 93.3334L609.261 95.8789H602.476C601.345 94.1819 599.649 93.616 597.387 94.1819L591.451 89.9395H588.906L582.97 94.1819C580.143 93.616 578.447 93.8994 577.881 95.0304C575.054 95.5963 573.358 95.0304 572.792 93.3334H568.552L565.159 95.8789L554.134 99.2728L540.565 109.455H538.868L530.387 102.667L527.843 99.2728L530.387 96.7274L533.78 95.8789L543.109 97.5759L543.957 94.1819L538.02 93.3334L531.235 89.9395L521.906 89.091L516.818 87.394H506.64L505.792 86.5455C501.269 85.9796 497.877 86.5455 495.615 88.2425L476.957 101.818L470.172 108.606L469.324 112C468.193 113.697 465.932 114.263 462.539 113.697C460.277 114.828 459.429 117.374 459.995 121.334L461.691 120.485H465.083L476.109 126.424C477.805 127.556 478.371 129.536 477.805 132.364L480.349 133.212L484.59 132.364C487.982 129.536 490.527 126.142 492.223 122.182L489.678 117.94L492.223 107.758L504.096 101.818C505.792 101.252 506.923 102.101 507.489 104.364V107.758L503.248 113.697C502.682 115.394 503.53 116.525 505.792 117.091L510.033 116.243C513.991 115.677 516.818 115.96 518.514 117.091L519.362 119.637L518.514 122.182L514.273 124.728L509.185 123.879L510.033 127.273L509.185 130.667L506.64 132.364L502.4 131.515L500.704 138.303C498.442 140 494.485 140.566 488.83 140L485.438 142.546H482.894L480.349 140L476.957 139.152L472.716 140.849C469.89 141.415 468.193 140.849 467.628 139.152L463.387 143.394L455.754 145.091L454.906 149.334C454.341 150.465 453.21 150.748 451.514 150.182L442.185 157.819L432.856 159.516L434.552 162.91L430.311 164.606H432.008L437.096 172.243L436.248 178.182L430.311 181.576L421.83 178.182H416.742L413.349 181.576L412.501 198.546L415.046 200.243L422.678 201.092L425.223 202.788H427.767L435.4 198.546L437.944 196.001C437.379 192.041 437.944 189.495 439.64 188.364L444.729 185.819L447.273 182.425L453.21 177.334L460.843 178.182C460.277 175.919 460.843 174.506 462.539 173.94L469.324 174.788L471.02 179.031L485.438 186.667L488.83 190.91L492.223 189.213L487.982 184.122L482.046 181.576C478.087 179.313 475.543 176.203 474.413 172.243L476.957 168.849L482.046 170.546L493.919 179.879L498.159 180.728C499.856 182.425 500.421 185.253 499.856 189.213L505.792 198.546L509.185 200.243L511.729 196.849L508.337 191.758C508.337 189.495 509.185 188.082 510.881 187.516L513.425 188.364C516.818 188.93 519.08 188.082 520.21 185.819C521.906 185.253 523.037 186.101 523.602 188.364L522.754 190.061L523.602 198.546L529.539 201.94H547.349L548.197 202.788L551.59 201.94L554.134 206.182L553.286 213.819L549.046 222.304L547.349 224.001L542.261 225.698C539.999 224.567 536.89 224.283 532.932 224.849L532.083 224.001H525.299L524.451 224.849L512.577 222.304C510.315 220.041 507.771 218.91 504.944 218.91C504.379 222.304 502.966 224.849 500.704 226.546H493.919L482.046 219.758L478.653 220.607L476.957 219.758C475.261 220.324 474.695 220.041 475.261 218.91L468.476 213.819C467.91 209.294 468.758 206.182 471.02 204.485L470.172 201.94L457.451 205.334L444.729 206.182L438.792 209.576L436.248 208.728C430.594 207.597 426.919 208.162 425.223 210.425L420.134 208.728L418.438 211.273L410.805 217.213L406.564 223.152L405.716 229.092L402.324 231.637C393.277 237.859 386.776 246.627 382.818 257.94C382.252 262.465 382.818 265.859 384.514 268.122L383.666 275.759L380.273 282.546C379.708 285.374 380.273 287.355 381.97 288.486V293.577L386.21 295.274L388.754 298.668L394.691 309.698L404.02 318.183L409.957 320.728L413.349 319.88L415.046 320.728L421.83 317.334H429.463L442.185 313.092H448.121L454.906 315.637L456.602 319.88L459.147 320.728L460.843 319.88L466.78 321.577L471.02 330.91L470.172 336.85L468.476 340.244V344.486L476.109 352.971L478.653 361.456L482.894 369.092C483.459 371.355 483.176 373.052 482.046 374.183L484.59 380.123C483.459 386.345 481.197 391.436 477.805 395.395C478.936 398.789 478.653 401.052 476.957 402.183L487.982 426.79V435.274L489.678 442.062L493.919 446.305L498.159 454.79L499.008 462.426L502.4 465.82C504.662 466.386 506.358 465.82 507.489 464.123H514.273L521.058 460.729H523.602L538.868 446.305L540.565 444.608L545.653 433.577L553.286 426.79L551.59 419.153V415.759L557.527 405.577L566.856 398.789C569.118 397.092 570.53 394.829 571.096 392.001L570.248 376.729L568.552 373.335L567.704 366.547L566.008 364.001V358.91L568.552 353.819L582.97 335.153L593.995 324.122L604.172 309.698L606.716 297.819L602.476 299.516H587.21L586.362 300.365H579.577L577.033 291.031L559.223 268.122L549.894 244.364L543.957 234.183L545.653 231.637L553.286 232.486L561.767 244.364L568.552 259.637L579.577 274.062L581.273 277.455V281.698L582.97 286.789L587.21 289.334L593.147 288.486L606.716 280.849L612.653 279.152L620.286 273.213L627.071 264.728C626.505 263.031 627.071 262.465 628.767 263.031L633.008 257.092L627.071 252.001L621.982 242.667L617.742 247.758L610.109 251.152H607.565L602.476 247.758L594.843 231.637C593.712 227.677 594.277 225.415 596.539 224.849H598.235L610.957 235.031L623.678 235.88L631.311 242.667H638.944L639.792 243.516C642.619 244.647 644.599 244.364 645.729 242.667L654.21 243.516L660.995 246.91L661.843 249.455L667.78 252.849L673.716 259.637H676.261L680.501 257.092L683.894 263.031C685.024 265.859 684.742 267.84 683.046 268.971V272.365L690.678 287.637L695.767 303.759L698.311 306.304L705.096 302.062V289.334L704.248 288.486L705.096 283.395L711.033 270.668L717.818 268.122L729.691 256.243L733.084 254.546H736.476L744.109 257.092C746.936 259.355 748.915 262.749 750.046 267.274C751.742 270.102 754.286 271.799 757.678 272.365C758.809 274.062 759.092 276.607 758.527 280.001L762.767 278.304L766.159 279.152L770.4 291.031L769.552 294.425C768.986 298.385 769.269 301.496 770.4 303.759H771.248C771.814 300.931 771.531 299.234 770.4 298.668L772.096 291.031C772.662 288.768 774.358 287.92 777.185 288.486L778.881 291.88C778.315 293.011 778.881 293.294 780.577 292.728L787.362 302.062L791.603 304.607L794.995 302.91C798.953 300.647 801.78 297.253 803.476 292.728V288.486L797.539 279.152L789.906 271.516L786.514 268.122L792.451 257.94L795.843 255.395L801.78 257.94C804.042 259.637 805.172 262.749 805.172 267.274L810.261 257.94L814.501 253.698L824.678 250.304C828.639 247.476 831.463 243.516 833.159 238.425V231.637L830.615 224.849C825.527 220.889 821.566 216.082 818.742 210.425V207.879L822.134 201.94L820.438 202.788H809.413L806.868 201.94V198.546L813.653 187.516L820.438 184.97L822.134 187.516L822.982 192.607C825.806 193.173 827.791 192.324 828.919 190.061L831.463 190.91C833.728 191.476 834.576 193.738 834.008 197.698L841.641 201.092C842.768 202.788 843.057 205.616 842.489 209.576C843.057 210.707 844.465 210.991 846.729 210.425L850.97 206.182V202.788L840.792 195.152L838.248 192.607C837.68 187.516 838.816 184.688 841.641 184.122V179.879C842.768 176.485 846.161 175.354 851.818 176.485L856.058 169.697L855.21 167.152L856.058 154.425L854.362 152.728L849.273 145.94L847.577 143.394L843.337 142.546H835.704L834.856 143.394L827.223 141.697L824.678 137.455V132.364L827.223 125.576L837.4 118.788L850.122 121.334H856.058L860.299 123.031L861.147 122.182L861.995 115.394L867.084 111.152L871.324 113.697H873.868L877.261 111.152H880.653L882.349 113.697L883.197 117.091V121.334L879.805 125.576C879.237 128.97 879.805 131.515 881.501 133.212L886.59 135.758C888.286 136.324 888.854 138.021 888.286 140.849L896.767 148.485H897.615L898.463 146.788L897.615 144.243L899.311 140L897.615 131.515L895.071 128.121L889.134 127.273L888.286 125.576L889.134 121.334L891.678 118.788L901.008 114.546L902.704 118.788L907.792 112L913.729 111.152L904.4 105.212C902.704 105.778 902.136 104.93 902.704 102.667L905.248 100.97L906.096 98.4244L908.641 97.5759C914.297 98.1418 919.386 99.5554 923.906 101.818H924.754L921.362 97.5759L914.577 95.8789C910.617 94.7479 908.361 95.0304 907.792 96.7274H903.552L896.767 93.3334L867.084 89.091L864.539 93.3334L851.818 89.9395L831.463 89.091L825.527 85.697H796.691L793.299 83.1516L785.666 80.6061C783.404 80.0404 782.556 80.6061 783.122 82.3031L776.337 87.394C772.379 87.9599 769.834 87.394 768.704 85.697L752.59 84.8485L746.653 81.4546C743.826 82.0203 742.13 81.7374 741.565 80.6061C734.78 80.0404 729.974 80.8889 727.147 83.1516L716.97 82.3031L713.577 79.7576H705.096L704.248 80.6061C699.725 81.7374 696.898 81.1718 695.767 78.9091L700.008 70.4242H691.527L690.678 71.2727L684.742 68.7273H680.501Z"
        fill="#666666"
        stroke="#666666"
      />
      <path
        id="Vector_3"
        opacity="0.929412"
        d="M160.193 72.9678L161.041 73.8163H169.522L176.307 79.7557L183.092 80.6042C184.053 79.0203 186.315 78.7375 189.877 79.7557L194.965 77.2102C197.34 78.2284 197.764 79.2183 196.237 80.1799V86.9678L194.965 88.2406L182.244 90.786C181.453 89.3156 179.756 88.7497 177.155 89.0891L174.611 90.786H165.282L162.313 88.6648L161.465 82.3012C157.055 82.8102 153.663 82.2446 151.288 80.6042L152.56 77.2102L160.193 72.9678ZM159.769 74.6648L152.984 79.7557C154.68 81.4527 157.79 81.7355 162.313 80.6042C164.01 81.7355 164.292 83.9981 163.162 87.3921L165.706 89.0891H175.035L177.579 87.3921C179.841 86.8261 181.537 87.3921 182.668 89.0891H186.908L194.541 86.5436C193.976 83.1496 194.259 80.6042 195.389 78.9072L190.301 81.4527H183.516L182.668 82.3012L176.731 81.4527L169.946 75.5132L159.769 74.6648Z"
        fill="#666666"
        stroke="#666666"
      />
      <path
        id="Vector_4"
        opacity="0.929412"
        d="M240.763 75.5146L244.156 78.0601L253.485 75.5146H258.573L265.358 79.7571L272.143 80.6056L274.263 82.7268L273.415 86.1208C277.261 88.214 279.239 92.173 279.352 97.9996C278.957 99.3003 277.685 99.7246 275.535 99.2723L274.263 98.8481L275.96 105.636L273.839 106.909L270.447 105.212L269.175 108.181L271.719 111.575C271.154 113.555 269.316 114.263 266.206 113.697L256.029 109.454L252.213 106.484L251.365 104.788L261.542 97.9996V94.6056L258.149 86.545L243.308 83.151L239.915 86.545H238.219C235.844 85.8094 234.855 83.6884 235.251 80.1813L240.763 75.5146ZM241.187 77.2116L236.947 81.4541C236.382 83.151 237.23 84.2823 239.491 84.848C240.623 85.414 240.905 85.1306 240.339 83.9995L243.732 81.4541L251.365 83.9995L258.149 84.848L263.238 95.0299L262.39 100.121L260.694 101.818L253.061 105.212L256.453 107.757L265.782 112H270.023L267.478 108.606L268.327 104.363L270.871 103.515L273.415 104.363L274.263 105.212L272.567 100.969C272.002 98.7064 272.567 97.2928 274.263 96.7269L277.656 97.5754L276.808 92.4844L271.719 86.545L272.567 82.3026L265.782 81.4541L258.997 77.2116C253.909 76.6459 250.234 77.2116 247.972 78.9086C244.015 80.0399 241.753 79.4743 241.187 77.2116Z"
        fill="#666666"
        stroke="#666666"
      />
      <path
        id="Vector_5"
        opacity="0.929412"
        d="M219.559 81.4536L220.831 82.7263C219.983 86.1203 220.407 88.2415 222.103 89.09L224.224 90.3627C223.263 93.0779 223.969 94.0681 226.344 93.3325L239.066 88.2415L240.338 91.2112L238.217 94.1809C235.786 96.2742 232.394 97.4052 228.04 97.5749L219.559 102.666C218.881 100.573 217.326 99.7241 214.895 100.12C215.46 103.345 214.753 105.608 212.774 106.908C200.788 109.058 191.317 113.724 184.363 120.908L183.515 126.848L185.635 129.817L190.724 133.211L200.901 135.757H205.141L206.414 137.03C203.757 138.727 202.908 141.979 203.869 146.787L210.23 148.484C212.662 147.24 213.65 144.553 213.198 140.424L215.319 138.302L223.8 134.908H226.768L225.92 125.151L226.768 120.908L228.888 118.787L230.585 119.636L237.369 112.848L241.61 111.999L248.395 113.696L252.211 116.666L253.907 124.727L267.901 119.636L269.173 120.908V130.242L268.325 131.939L270.869 133.211L273.838 138.302L275.534 137.454L279.35 140.424C279.124 145.005 277.287 147.975 273.838 149.333L266.205 153.575H246.698L238.217 156.121L235.249 158.242L235.673 159.515H241.61C242.458 158.1 244.437 157.818 247.547 158.666L249.667 159.515L248.395 162.06L244.578 165.03C244.182 166.331 244.606 166.755 245.85 166.303C246.698 167.717 248.677 167.999 251.787 167.151L256.876 165.454L258.148 167.575L257.3 169.696L250.939 172.242H247.547L238.217 179.03L236.945 176.06L237.793 171.393L229.736 173.939L220.831 182C221.283 184.149 220.859 185.421 219.559 185.818C214.64 185.139 211.389 186.129 209.806 188.787L206.838 192.606L202.173 196.424L193.268 207.878C185.296 211.782 178.369 216.731 172.49 222.727L173.338 227.818V229.515C172.942 233.305 173.507 236.133 175.034 238L171.641 244.363L168.249 243.091C165.931 240.602 165.083 236.642 165.705 231.212L162.736 228.242C160.475 225.414 156.517 224.282 150.863 224.848L145.774 230.788C142.495 231.24 140.375 230.533 139.414 228.666L138.141 226.545L129.66 229.091L118.211 236.303L112.274 254.97V261.757L113.971 265.576L122.028 269.818H127.116L132.629 267.273C133.307 263.257 135.145 260.145 138.141 257.939C142.439 257.317 145.124 258.307 146.198 260.909L140.262 278.303L146.622 277.455L153.831 279.152L152.983 297.394L153.831 299.939L160.192 306.303C161.492 305.907 161.916 306.331 161.464 307.576L162.312 309.697L150.863 305.455L146.198 300.788L145.35 294.849L138.99 288.485L129.66 286.788L120.331 280L116.939 279.152L112.698 280.848L105.065 279.152L97.4326 275.758L85.1351 266.848V258.364L80.0465 248.182L74.1098 240.545C71.8479 237.151 70.435 232.909 69.8693 227.818L66.0528 221.454C64.2438 221.907 63.5365 223.463 63.9326 226.121L68.1731 235.454V239.697L70.7174 248.182L69.0212 248.606L62.2364 234.606L60.5402 228.666V218.485L56.7237 214.666L52.9073 212.969L51.2111 210L48.6668 199.818V188.787L63.9326 169.272L68.5971 160.363L70.7174 159.09V153.999L68.1731 142.969C70.0957 139.518 70.6606 134.711 69.8693 128.545L67.749 125.575L59.268 120.484L38.9137 117.939L30.4327 121.333L27.8884 119.636L23.6478 123.03L7.53392 128.121C7.87316 125.518 7.30773 123.821 5.83772 123.03L1.17316 120.908C0.777352 117.458 1.06011 115.054 2.02126 113.696L8.38202 109.454C13.4141 110.245 17.3719 109.963 20.2554 108.605L24.0719 104.787C24.5242 103.317 23.8175 102.892 21.9516 103.514L18.5592 106.06L14.7428 104.363L13.8947 102.242L14.7428 100.12C16.0432 98.6499 18.4462 98.084 21.9516 98.4234L28.7365 100.12C30.0369 99.7241 30.4609 98.4514 30.0086 96.3022L28.3124 93.7567L35.5213 89.9385C41.7407 89.9385 46.8293 88.8075 50.7871 86.5445H64.3566L74.5339 83.9991H91.4959L98.2807 92.484H106.762L121.179 88.2415L133.053 87.393L140.686 89.9385H156.8L158.072 91.2112L159.344 93.3325L171.217 96.7264L177.154 92.484H193.268L202.597 96.7264L209.806 90.3627L213.622 83.1506L219.559 81.4536ZM219.135 83.1506L215.743 83.9991L209.806 93.3325L204.717 97.5749H201.325L194.54 94.1809H176.73L172.49 98.4234H169.945L165.705 95.8779H161.464L158.92 94.1809C157.224 94.7469 156.658 94.4635 157.224 93.3325L156.376 91.6355H141.958L134.325 89.09L120.755 89.9385L107.186 94.1809C102.097 94.7469 98.4223 94.4635 96.1604 93.3325L91.0718 85.6961H74.1098L63.9326 88.2415H50.363L44.4263 90.787H39.3377L30.0086 93.3325L31.7048 96.7264L30.8567 100.969L29.1605 101.817L23.2238 100.12H18.1352C15.3082 101.817 15.3082 103.232 18.1352 104.363C18.7006 102.1 20.9622 101.251 24.92 101.817C26.0508 102.383 26.3335 103.797 25.7681 106.06L20.6795 110.302L8.80607 111.151L5.41367 113.696C3.15204 114.262 2.30393 116.524 2.86936 120.484L7.95797 122.181L10.5023 125.575L22.3757 122.181L28.3124 117.939L30.8567 119.636C34.2491 119.07 37.0761 117.939 39.3377 116.242L50.363 117.09L63.9326 120.484L64.7807 123.03L69.8693 124.727L71.5655 128.969C72.1312 134.626 71.5655 139.151 69.8693 142.545V146.787L72.4136 155.272C72.9793 157.535 72.696 159.232 71.5655 160.363C72.1312 161.494 71.8479 161.778 70.7174 161.212L64.7807 171.393L55.4517 182.424L53.7554 186.666L50.363 189.212V201.091L52.9073 210.424L59.6921 214.666C61.954 215.797 63.0845 218.343 63.0845 222.303C63.6502 220.606 65.3464 220.04 68.1731 220.606L71.5655 228.242L72.4136 234.182L86.8313 258.788V267.273L104.641 277.455L112.274 279.152L117.363 277.455L120.755 278.303L131.781 285.939H136.021L141.11 287.636L146.198 294.424L147.895 301.212L155.528 305.455H156.376C153.549 303.758 151.853 300.93 151.287 296.97L152.135 280L147.895 279.152C145.068 278.586 143.372 278.869 142.806 280C139.979 280.566 138.566 280 138.566 278.303L144.502 261.333C143.937 259.636 141.958 259.07 138.566 259.636L134.325 267.273L127.54 271.515H122.452L115.667 268.121L110.578 262.182V255.394L117.363 234.182L130.084 227.394L136.869 225.697C139.696 224.566 140.827 225.131 140.262 227.394C141.392 229.091 143.372 229.657 146.198 229.091L148.743 224L151.287 223.151L158.92 224L164.857 227.394L167.401 231.636L168.249 240.97L170.793 242.666L173.338 239.273L170.793 224.848L171.641 221.454C177.861 215.232 185.211 210.141 193.692 206.181L202.173 194.303L207.262 190.909L208.958 186.666L214.895 184.121H219.135L219.983 180.727L228.464 173.09C231.857 172.524 234.683 171.393 236.945 169.696L239.49 172.242L238.641 176.484L247.971 170.545C251.363 171.111 253.907 170.545 255.604 168.848L256.452 167.151L252.211 168.848C247.688 169.414 244.578 168.565 242.882 166.303L243.73 163.757L246.274 162.06L247.122 160.363L235.249 161.212C233.553 160.646 232.987 159.515 233.553 157.818L243.73 152.727L247.971 151.878H267.477L271.717 149.333L277.654 143.393V141.696C277.088 139.999 275.676 139.433 273.414 139.999L266.629 132.363L267.477 130.666V121.333L254.755 126.424C251.929 125.292 250.797 122.464 251.363 117.939L249.667 115.393L242.882 113.696H239.49L232.705 120.484H228.464L227.616 124.727L228.464 134.908L226.768 136.605H223.376L214.895 139.999V144.242L212.35 149.333L210.654 150.181H208.11L202.173 146.787C201.607 142.262 202.173 139.433 203.869 138.302L191.148 134.908L183.515 130.666L181.819 127.272C181.253 123.312 181.819 120.767 183.515 119.636L195.388 111.151L208.11 106.06H212.35C213.481 104.929 213.764 102.948 213.198 100.12L214.895 98.4234C217.157 97.8574 218.853 98.4234 219.983 100.12C223.941 97.2924 229.312 95.312 236.097 94.1809L238.641 89.9385C234.683 92.7665 229.878 94.4635 224.224 95.0294C222.528 94.4635 221.962 93.3325 222.528 91.6355L219.983 89.9385L219.135 83.1506ZM63.0845 226.545L62.2364 229.939L63.9326 230.788L63.0845 226.545ZM64.7807 231.636C63.6502 235.03 63.9326 237.858 65.6288 240.121L67.325 240.97L66.4769 235.03L64.7807 231.636Z"
        fill="#666666"
        stroke="#666666"
      />
      <path
        id="Vector_6"
        opacity="0.929412"
        d="M189.027 292.726L191.148 293.999L194.54 299.938L193.692 302.484L195.388 303.332L198.781 294.423L209.382 298.665L217.863 299.514C218.597 298.269 220.293 297.987 222.951 298.665L224.224 302.059L228.888 305.453L239.065 309.696L249.243 319.029H254.331L261.54 323.696L265.781 333.878L262.388 340.241C263.915 339.166 266.6 338.884 270.445 339.393L272.141 341.09L278.078 341.938C279.887 344.936 282.714 346.917 286.559 347.878H288.255H295.888L305.217 351.272L317.515 360.181C317.288 369.005 314.178 374.945 308.186 377.999L306.489 387.333L304.793 390.727V398.363L303.097 404.302V409.393L296.736 422.545C291.93 425.09 286.276 426.787 279.774 427.636L275.958 430.606L277.654 437.393L272.565 446.727L270.869 455.212L261.964 465.818L254.331 466.666L250.939 464.969L250.515 467.091L257.3 470.909L258.148 473.03L252.211 481.939L248.394 482.788L245.002 481.091L242.882 481.939C243.9 483.297 244.182 485.7 243.73 489.151C243.164 491.131 241.326 491.838 238.217 491.272L235.249 490.424L239.489 497.636V500.182L235.249 506.97V509.939C237.849 509.26 239.545 509.685 240.337 511.212L241.186 517.151L237.793 523.939V528.182L238.641 532L230.584 531.151L222.527 524.788L215.743 513.757L214.046 508.666L217.439 502.727L210.654 488.727L208.11 487.454L207.262 485.757V475.575L206.413 474.727L205.565 453.515L204.717 452.666V440.787L203.869 439.939V414.484C205.169 413.805 205.452 412.108 204.717 409.393L201.325 404.727L196.66 403.878L191.572 400.484L176.73 387.333L169.945 372.06L161.464 361.029C159.937 359.729 159.372 357.466 159.768 354.242L163.16 349.151L160.616 343.211L172.489 325.393L175.882 316.908L173.337 313.514L172.489 309.272L183.091 297.817C185.239 298.269 186.511 297.845 186.907 296.544L189.027 292.726ZM188.603 295.272L187.755 298.665L183.515 299.514L174.186 309.696L175.034 314.787L177.578 317.332L173.337 327.514L162.312 342.787C161.746 346.181 162.595 348.444 164.856 349.575L161.464 354.666V358.908C165.987 362.302 169.379 366.827 171.641 372.484L177.578 386.908L194.54 400.484C195.105 402.747 197.367 403.596 201.325 403.03L206.413 409.818L205.565 414.06V441.212L206.413 442.06V453.939L207.262 454.787V464.121L208.11 464.969L208.958 486.182L214.894 492.969L216.591 499.757L218.287 501.454C218.852 505.414 218.004 507.96 215.743 509.091V511.636L218.287 514.182L222.527 522.667C225.354 527.757 230.16 530.303 236.945 530.303L236.097 528.606V524.364L239.489 518.424L238.641 511.636C235.814 512.202 234.118 511.636 233.553 509.939C233.553 505.414 234.966 502.585 237.793 501.454V498.06L233.553 492.121L234.401 488.727L242.034 489.575V484.485L241.186 483.636L243.73 480.242L250.515 481.091L252.211 478.545L254.755 476.848L256.451 473.454L252.211 470.06L247.97 465.818L249.667 463.272C251.928 462.706 253.624 463.272 254.755 464.969L262.388 464.121C264.084 459.596 266.629 456.202 270.021 453.939L270.869 447.151L275.958 438.666C276.523 435.272 275.958 433.009 274.262 431.878L275.11 429.333L280.198 425.939C285.852 425.373 290.94 423.959 295.464 421.696L297.16 419.999L301.401 410.666V405.575L303.097 399.636V391.151C305.358 387.757 306.489 383.797 306.489 379.272L314.97 368.242L315.818 359.757L307.337 355.514L305.641 352.969C302.249 352.969 299.421 351.838 297.16 349.575H289.527L288.679 348.726L286.135 349.575L276.806 342.787C273.413 343.353 271.434 342.787 270.869 341.09L259.844 341.938C259.844 338.544 261.257 336.282 264.084 335.151V332.605L260.692 325.817L254.755 320.726L247.97 319.878L236.945 309.696L227.616 306.302L222.527 300.362L217.439 301.211L208.958 300.362L199.629 296.12C199.063 300.08 197.649 303.19 195.388 305.453L191.996 303.756L192.844 301.211L191.148 296.969L188.603 295.272Z"
        fill="#666666"
        stroke="#666666"
      />
      <path
        id="Vector_7"
        opacity="0.929412"
        d="M831.042 314.789C834.205 315.072 836.326 316.345 837.403 318.608L838.251 320.304L835.707 327.092V330.486L837.403 336.426L834.858 338.971L834.01 343.638L830.618 345.759C830.508 348.474 829.515 350.313 827.65 351.274L813.232 350.426L811.112 349.577L807.719 343.214L806.871 335.577L809.839 333.456L813.656 334.305L817.896 323.274L826.377 320.729L831.042 314.789ZM830.618 316.486V318.183C828.922 321.577 825.529 323.557 820.441 324.123L813.656 336.002L808.567 335.153C808.002 340.244 808.85 344.204 811.112 347.032L813.656 348.729L828.074 349.577L829.77 345.335C829.202 343.638 829.77 343.072 831.466 343.638L833.162 341.941L834.01 338.547C833.442 336.85 834.01 336.284 835.707 336.85C836.275 334.022 835.707 332.042 834.01 330.911V327.517C835.707 325.82 836.555 323.274 836.555 319.88C835.427 317.617 833.442 316.486 830.618 316.486Z"
        fill="#666666"
        stroke="#666666"
      />
      <path
        id="Vector_8"
        opacity="0.929412"
        d="M762.344 319.032L768.705 322.002L775.065 330.062C778.345 330.232 780.748 331.222 782.274 333.032L793.3 349.153L795.844 357.638L792.876 361.456L791.179 362.305L784.819 356.79L770.401 333.032L765.312 327.093L761.92 321.153L762.344 319.032ZM765.312 321.577L766.16 325.82L771.249 331.759L773.793 337.699L787.363 358.062L790.755 359.759L791.603 360.608L794.148 358.062V354.669L791.603 349.578L782.274 336.002L779.73 332.608C775.772 333.174 773.511 332.325 772.945 330.062L768.705 324.971L765.312 321.577Z"
        fill="#666666"
        stroke="#666666"
      />
      <path
        id="Vector_9"
        opacity="0.929412"
        d="M887.016 340.243L889.984 342.364V345.758L893.376 352.122C896.37 352.461 898.635 351.471 900.161 349.152L903.13 345.334L918.395 350.425L921.788 352.97L929.421 355.516L931.541 357.637L935.781 364.425L934.933 366.971L946.807 375.88L947.655 378.001C946.807 379.698 944.686 380.122 941.294 379.274L928.997 371.637L926.876 368.243H925.18L920.092 372.486C919.243 371.071 917.267 370.789 914.155 371.637L909.066 368.243C906.522 368.809 904.97 368.385 904.402 366.971L905.25 361.031L899.737 356.364L892.952 353.819H889.56L885.743 350.849L886.592 347.455L882.351 344.486L881.503 342.364L887.016 340.243ZM886.592 341.94L884.047 343.637L886.592 344.486C887.72 345.617 888.008 347.88 887.44 351.274L889.136 352.122H891.68L888.288 346.183C889.416 342.789 888.856 341.374 886.592 341.94ZM903.554 347.031L901.009 351.274L896.769 353.819L906.098 358.91L906.946 361.455L906.098 366.546C909.49 365.98 912.035 367.112 913.731 369.94C916.555 369.374 918.54 369.658 919.667 370.789L925.604 366.546L928.149 367.395C929.276 366.829 929.565 367.395 928.997 369.092L940.87 377.577H945.111L934.085 369.092L933.237 367.395L934.085 365.698L931.541 360.607L926.452 355.516L903.554 347.031Z"
        fill="#666666"
        stroke="#666666"
      />
      <path
        id="Vector_10"
        opacity="0.929412"
        d="M915.428 381.819L917.972 383.092C921.933 388.749 924.477 395.819 925.605 404.304L924.757 406.85L928.997 409.819L931.542 417.88L936.206 423.395C938.471 423.113 939.743 423.82 940.023 425.517L941.719 434.001L940.871 434.85V441.638C938.895 444.183 937.758 447.577 937.478 451.82L927.725 464.123C923.086 465.989 919.558 468.959 917.124 473.032L915.852 475.153L910.763 478.547L897.618 483.638L896.345 481.093L888.712 481.941L884.896 478.971L883.2 473.88L884.048 471.335L881.504 466.244L883.2 462.85L880.231 462.426L873.447 465.82C872.03 465.254 871.606 463.699 872.175 461.153L869.206 458.183C867.959 458.636 867.535 458.211 867.934 456.911L864.966 454.789L861.573 456.486L857.333 455.638C856.485 457.052 854.509 457.335 851.396 456.486L845.459 459.88L838.674 460.729L835.282 463.274H830.193L823.409 465.82L812.384 467.517C810.574 466.838 809.868 465.423 810.264 463.274C812.243 463.896 812.808 462.058 811.96 457.759L812.808 456.911V449.274L811.96 448.426V439.092L813.656 434.001L814.504 422.971L817.473 420.001L826.801 414.91L832.738 414.062L845.035 406.85L848.004 400.486L851.82 401.335V399.213L859.029 391.153L862.421 389.456L865.39 391.577L866.238 394.547L871.326 395.395C870.877 392.567 871.581 390.587 873.447 389.456L879.383 384.365L886.168 382.668L887.016 383.516H893.801L895.921 385.638C893.776 387.447 892.928 390.559 893.377 394.971L901.434 402.183H906.523L909.491 400.062L914.58 389.031L915.428 381.819ZM883.2 384.365L875.567 390.304L871.326 397.092L867.086 396.244L864.542 393.698L861.997 391.153L856.909 397.092L855.212 397.941L852.668 403.032L849.276 402.183L845.883 408.971L833.162 415.759L824.681 417.456L817.897 421.698L815.353 425.941C815.917 431.032 815.353 435.274 813.656 438.668V449.698L814.504 450.547L813.656 463.274L811.96 465.82L824.681 464.123L831.466 461.577H835.706L839.099 459.032H843.339L848.428 457.335L851.82 454.789C855.212 455.92 857.477 455.638 858.605 453.941L861.149 454.789L865.39 453.092L867.086 453.941C868.214 453.375 868.502 453.941 867.934 455.638L872.175 458.183L874.719 464.123L881.504 460.729C883.2 460.163 884.328 460.729 884.896 462.426L883.2 465.82V468.365L885.744 471.759L884.896 473.456C884.896 476.85 886.312 479.113 889.137 480.244L892.529 479.396C896.49 478.83 899.034 479.678 900.162 481.941L913.731 475.153L917.124 470.911L925.605 464.123L935.782 452.244L936.63 447.153L939.175 442.911V436.123L940.023 435.274V431.032C938.326 429.335 937.758 427.355 938.326 425.092L934.934 424.244C930.973 421.981 928.997 418.304 928.997 413.213L925.605 409.819L923.061 407.274L923.909 405.577C923.34 396.526 921.085 389.738 917.124 385.213L915.428 392.001L910.339 402.183L906.947 403.88C901.29 404.446 897.897 403.032 896.769 399.638C895.073 400.204 894.505 399.92 895.073 398.789L892.529 397.092L891.681 395.395C891.113 390.87 891.961 387.759 894.225 386.062L883.2 384.365Z"
        fill="#666666"
        stroke="#666666"
      />
      <path
        id="Vector_11"
        opacity="0.929412"
        d="M602.053 386.061C604.258 388.097 604.965 391.633 604.174 396.667L602.477 405.152L595.693 419.576L593.996 429.758L592.724 431.031L585.091 433.576L582.971 432.728L580.427 428.061V418.728L584.667 413.637V401.758L583.819 400.061L596.965 392.849L599.933 389.879L602.053 386.061ZM602.477 389.455L599.933 392.849L585.515 401.334L586.363 403.031V414.061L584.667 417.455L582.123 418.304V428.485L585.515 431.879L591.452 430.182C593.714 429.051 593.996 428.203 592.3 427.637L593.996 420.001L600.781 406.425L602.477 397.94V389.455Z"
        fill="#666666"
        stroke="#666666"
      />
      <path
        id="Vector_12"
        d="M288.256 49.2119H297.586L304.37 50.9089H314.548L318.788 52.6059H338.294L348.472 50.0604L352.712 52.6059L368.826 53.4544L372.219 52.6059L373.067 53.4544H393.421L398.51 51.7574H403.598L410.807 54.7271L409.535 56.8483C405.86 57.6968 403.174 59.5352 401.478 62.3635L400.63 68.3029L399.358 69.5756C397.21 71.1029 393.817 71.3857 389.181 70.4241L386.212 72.5454C384.742 74.1857 384.177 76.7312 384.516 80.1818L385.364 83.5757L381.548 87.3939H375.611L367.13 89.9394H362.041L352.288 93.3333L350.168 96.7273L337.446 100.121L332.782 103.939L331.086 108.182L324.725 116.243L322.181 117.091L314.972 111.576L311.579 105.636V102.242L309.035 93.3333C310.222 94.2387 312.343 94.5212 315.396 94.1818L319.212 92.4848C320.682 91.1841 321.248 88.7795 320.908 85.2727L318.364 76.7878L313.7 70.4241L306.067 64.4847L296.313 63.212L306.915 62.7877L312.427 58.9695C313.163 56.0281 312.739 54.1897 311.155 53.4544L295.041 57.6968L279.775 60.2423C276.326 61.0342 273.782 62.7311 272.143 65.3332C268.693 64.9938 266.432 65.8423 265.358 67.8787H261.965L256.029 64.4847H250.94L247.972 61.515L253.484 57.6968L272.143 55.9998L278.079 51.7574L288.256 49.2119Z"
        fill="#666666"
        stroke="#666666"
      />
      <path
        id="Vector_13"
        d="M680.079 68.7251H684.319L690.256 71.2706L691.104 70.4221H700.009L695.768 78.4827C696.786 80.9151 699.472 81.6221 703.825 80.6039L704.674 79.7555H713.155L716.547 82.3009L726.724 83.1494C730.004 80.7736 734.809 79.9252 741.142 80.6039C741.877 81.8484 743.573 82.1312 746.231 81.4524L752.167 84.8464L768.281 85.6949C769.581 87.5047 772.126 88.0706 775.914 87.3919L783.123 81.8767C782.671 80.406 783.377 79.9817 785.243 80.6039L792.876 83.1494L796.269 85.6949H825.104L831.041 89.0888L851.395 89.9373L864.117 93.3313L867.085 89.0888L896.344 93.3313L903.129 96.7252H907.37C908.388 95.1411 910.652 94.8586 914.155 95.8767L920.939 97.5737L924.756 101.392L923.484 101.816C919.353 99.4404 914.265 98.026 908.218 97.5737L906.098 98.4222L904.826 100.968L902.705 102.24C901.857 104.729 902.281 105.719 903.977 105.21L913.731 110.725L907.794 111.998L902.281 118.786L900.585 114.543L891.256 118.786L889.136 120.907L888.288 125.15L889.136 127.271L894.648 128.119L897.617 131.089L899.313 139.574L897.617 143.816L898.465 146.362L897.617 148.483H896.344L888.288 140.422C888.737 137.764 888.033 136.208 886.167 135.756L881.503 132.786C879.696 131.485 879.128 128.94 879.806 125.15L883.199 120.907V116.665L882.351 113.271L880.231 111.15H876.838L873.446 113.695H870.901L866.661 111.15L861.996 114.968L861.148 121.756L859.876 123.028L855.636 121.331H849.699L836.977 118.786L827.224 125.574L824.68 131.938V137.028L826.8 141.695L834.433 143.392L835.281 142.544H842.914L847.155 143.392L849.275 145.513L853.939 152.726L856.06 153.998L855.212 166.726L856.06 169.271L851.395 176.483C846.306 175.635 843.058 176.625 841.642 179.453V183.695C838.758 184.77 837.63 187.598 838.25 192.18L840.37 195.15L850.971 202.362V205.756L846.307 210.423C844.212 210.875 842.94 210.451 842.49 209.15C842.999 205.304 842.719 202.617 841.642 201.089L834.009 197.271C834.408 193.764 833.415 191.643 831.041 190.908L828.496 190.059C827.419 192.095 825.587 192.944 822.984 192.604L822.136 187.089L820.015 184.968L813.655 187.514L806.87 198.12V201.938L808.99 202.786H820.015L822.136 201.938L818.743 207.453V209.998C821.686 215.825 825.638 220.633 830.617 224.423L833.161 231.211V237.999C831.575 243.542 828.607 247.643 824.256 250.302L814.079 253.696L810.262 257.514L804.75 267.272C805.146 262.633 804.014 259.522 801.357 257.938L795.42 255.393L792.452 257.514L786.515 267.696L789.484 271.514L797.541 278.726L803.477 288.059V292.302C801.612 296.941 798.643 300.475 794.572 302.908L791.18 304.605L787.363 301.635L780.155 292.726C778.91 293.178 778.486 292.754 778.882 291.453L776.762 288.484C774.105 288.087 772.55 288.795 772.098 290.605L770.401 298.241C771.646 298.977 771.928 300.674 771.249 303.332H770.401C768.988 301.353 768.705 298.241 769.553 293.999L770.401 290.605L766.161 279.15L762.344 278.302L758.528 279.999C759.037 276.492 758.754 273.947 757.68 272.362C754.231 271.853 751.686 270.015 750.047 266.847C748.972 262.548 746.852 259.296 743.686 257.09L736.053 254.544H732.661L729.268 256.241L717.395 268.12L711.034 270.665L705.098 282.969L704.249 288.059L705.098 288.908V302.06L697.889 306.302L695.768 303.332L690.68 287.211L683.047 271.938V268.544C684.461 267.696 684.743 265.716 683.895 262.605L680.079 257.09L675.838 259.635H673.294L667.357 252.847L661.844 249.029L660.572 246.908L653.787 243.514L645.306 242.665C644.458 244.08 642.48 244.362 639.37 243.514L638.522 242.665H630.889L623.256 235.877L610.534 235.029L597.813 224.847H596.117C594.42 225.696 593.996 227.817 594.844 231.211L602.053 247.756L607.142 251.15H609.686L617.743 247.332L621.56 242.665L626.648 251.999L633.009 256.665L628.344 263.029C627.1 262.633 626.676 263.057 627.072 264.302L619.863 273.211L612.23 279.15L606.294 280.847L592.724 288.484L586.787 289.332L582.971 286.363L581.275 281.272V277.029L579.579 273.635L568.553 259.211L561.768 243.938L552.863 232.483L545.23 231.635L543.958 233.756L549.895 243.938L559.224 267.696L577.034 290.605L579.579 300.363H585.939L586.787 299.514H602.053L606.718 297.817L604.174 309.272L593.996 323.696L582.971 334.726L568.553 353.393L566.009 358.484V363.575L567.705 366.12L568.553 372.908L570.249 376.302L571.098 391.575C570.419 394.856 568.865 397.26 566.433 398.787L557.528 405.151L551.591 415.333V418.727L553.287 426.363L545.655 433.151L540.566 444.181L538.446 446.303L523.18 460.727H520.636L513.851 464.121H507.066C506.275 465.591 504.578 466.157 501.977 465.818L499.009 462L498.161 454.363L493.92 445.878L489.68 441.636L487.984 434.848V426.363L476.958 401.757C478.542 400.796 478.824 398.533 477.806 394.969C481.368 391.179 483.63 386.088 484.591 379.696L482.047 373.757C483.347 373.078 483.63 371.381 482.895 368.666L478.654 361.03L476.11 352.545L468.477 344.06V339.817L470.173 336.423L471.022 330.484L466.781 321.575L460.42 319.878L458.724 320.726L456.604 319.878L454.908 315.635L447.699 313.09H441.762L429.041 317.332H421.408L414.623 320.726L412.927 319.878L409.534 320.726L403.598 318.181L394.692 309.272L388.756 298.241L385.787 295.272L381.971 293.575V288.059C380.388 287.098 379.823 285.118 380.275 282.12L383.667 275.332L384.515 267.696C382.649 265.603 382.084 262.209 382.819 257.514C386.89 246.596 393.251 237.971 401.901 231.635L405.718 228.665L406.566 222.726L410.382 217.211L418.439 210.847L419.711 208.726L424.8 210.423C426.779 208.16 430.454 207.595 435.825 208.726L438.37 209.574L444.306 206.18L457.028 205.332L469.749 201.938L471.022 204.059C468.873 205.869 468.025 208.98 468.477 213.392L475.262 218.483C474.866 219.784 475.29 220.208 476.534 219.756L478.23 220.605L481.623 219.756L493.496 226.544H500.281C502.882 224.79 504.437 222.245 504.946 218.908C507.999 219.077 510.401 220.208 512.155 222.302L524.028 224.847L524.876 223.999H531.661L532.509 224.847C536.749 223.999 539.859 224.281 541.838 225.696L546.927 223.999L549.047 221.877L553.287 213.392L554.136 205.756L551.167 201.938L547.775 202.786L546.927 201.938H529.117L523.604 198.544L522.756 189.635L523.604 187.938C523.321 186.241 522.049 185.534 519.787 185.817C518.713 187.853 516.452 188.701 513.003 188.362L510.458 187.514C508.762 187.796 508.056 189.069 508.338 191.332L511.73 196.423L508.762 200.241L505.794 198.12L499.857 188.786C500.253 184.883 499.687 182.196 498.161 180.726L493.496 179.877L481.623 170.544L476.534 168.847L474.414 171.817C475.601 176.285 478.004 179.538 481.623 181.574L487.56 184.12L492.224 188.786L488.408 190.908L485.439 186.665L471.022 178.604L468.901 174.786L462.117 173.938C460.703 174.617 460.279 176.031 460.844 178.18L452.787 177.332L447.275 181.998L444.306 185.817L439.642 187.938C438.058 189.465 437.494 192.011 437.946 195.574L434.977 198.544L427.344 202.786H424.8L422.256 201.089L414.623 200.241L412.503 198.12L413.351 181.15L416.319 178.18H421.408L429.889 181.574L436.249 177.756L437.098 171.817L431.585 164.604L430.313 164.18L434.553 162.483L432.857 159.089L441.762 157.816L451.091 150.18C453.239 150.632 454.512 150.208 454.908 148.907L455.756 145.089L462.965 143.392L467.205 139.15C467.771 140.847 469.467 141.413 472.294 140.847L476.534 139.15L479.927 139.998L482.471 142.544H485.015L488.408 139.998C494.232 140.79 498.33 140.225 500.705 138.301L502.401 131.513L506.218 132.362L509.186 130.241L510.034 126.847L509.186 123.877L513.851 124.725L518.515 121.756L519.363 119.21L518.515 117.089C516.819 115.958 513.851 115.675 509.61 116.24L505.37 117.089C503.673 116.806 502.967 115.534 503.249 113.271L507.49 107.331V103.937C507.208 102.24 505.935 101.534 503.673 101.816L492.224 107.756L489.68 117.513L492.224 121.756C490.415 126.168 487.729 129.703 484.167 132.362L479.927 133.21L477.806 132.362C478.258 129.534 477.552 127.553 475.686 126.422L464.661 120.483H461.268L459.996 120.907C459.148 116.947 459.855 114.543 462.117 113.695C465.622 114.034 468.025 113.468 469.325 111.998L470.173 108.18L476.534 101.816L495.192 88.2403C497.454 86.5434 500.847 85.9774 505.37 86.5434L506.218 87.3919H516.395L521.484 89.0888L530.813 89.9373L537.598 93.3313L543.958 94.1798L542.686 97.5737L533.357 95.8767L529.965 96.7252L527.844 98.8465L529.965 102.665L538.446 109.453H540.142L553.711 99.2707L564.737 95.8767L568.129 93.3313H572.37C573.161 94.8017 574.857 95.3677 577.458 95.0283C578.194 93.7835 579.89 93.501 582.547 94.1798L588.484 89.9373H591.028L596.965 94.1798C599.566 93.8404 601.262 94.4063 602.053 95.8767H608.838L613.503 92.907C613.955 90.8138 613.531 89.5411 612.23 89.0888L610.11 87.8161L606.718 82.7252V79.7555L613.079 80.6039L616.895 83.5737L618.591 86.1191C617.913 91.1532 618.195 94.6889 619.439 96.7252C620.627 97.6306 622.747 97.9131 625.8 97.5737L627.92 96.7252L629.192 91.6343L631.737 92.4828L633.857 91.6343L635.553 86.9676C633.461 85.0441 632.613 82.3575 633.009 78.907L646.155 76.3615L647.851 77.21L656.332 75.513L663.965 69.5736H666.509L668.205 70.4221L669.053 69.5736H679.23L680.079 68.7251Z"
        fill="#666666"
        stroke="#666666"
      />
      <path
        id="Vector_14"
        d="M159.345 74.6665L169.522 75.515L176.307 81.4544L182.244 82.3029L183.092 81.4544H189.877L195.389 78.9089C194.315 80.4928 194.032 83.0383 194.541 86.5453L186.484 89.0908H182.244C181.453 87.6204 179.756 87.0544 177.155 87.3938L174.611 89.0908H165.282L163.162 86.9696C164.01 83.5756 163.586 81.4544 161.889 80.6059C157.649 81.4544 154.681 81.0302 152.984 79.3332L159.345 74.6665Z"
        fill="#666666"
        stroke="#666666"
      />
      <path
        id="Vector_15"
        d="M240.762 77.2121C241.61 79.1919 243.872 79.7576 247.547 78.9091C250.148 77.2686 253.822 76.703 258.572 77.2121L265.357 81.4546L272.566 82.3031L271.717 86.1214L276.806 92.0608L277.654 97.576L273.838 96.7275C272.594 97.1798 272.169 98.4525 272.566 100.546L274.262 104.788L272.99 104.364L270.445 103.515L268.325 104.364L267.477 108.182L270.021 111.576L265.357 112L256.028 107.758L253.059 104.788L260.268 101.818L262.388 99.6972L263.236 94.6063L257.724 84.8485L250.939 84L243.306 81.4546L240.338 83.5758C240.79 84.8767 240.366 85.3009 239.066 84.8485C237.369 84.5656 236.663 83.2929 236.945 81.0303L240.762 77.2121Z"
        fill="#666666"
        stroke="#666666"
      />
      <path
        id="Vector_16"
        d="M218.712 83.1519L219.984 89.9398L222.529 91.2125C222.133 93.3617 222.557 94.6345 223.801 95.0307C229.85 94.1822 234.798 92.4852 238.643 89.9398L235.674 94.1822C229.172 95.0307 223.801 97.0102 219.56 100.122C218.769 98.6512 217.073 98.0853 214.472 98.4247L213.2 99.6974C214.048 103.091 213.624 105.213 211.927 106.061H207.687L194.965 111.152L183.516 119.213C181.933 120.74 181.368 123.285 181.82 126.849L183.516 130.667L190.725 134.91L203.87 137.879C201.948 139.35 201.383 142.179 202.174 146.364L207.687 150.182H210.231L212.351 149.334L214.896 143.819V140.001L222.953 136.607H226.345L228.465 134.485L227.617 124.304L228.465 120.485H232.282L239.067 113.697H242.459L249.244 115.394L251.364 117.516C250.629 122.21 251.619 125.18 254.332 126.425L267.478 121.334V130.243L266.63 131.94L272.991 140.001C275.535 139.435 277.09 139.859 277.655 141.273V142.97L271.295 149.334L267.054 151.879H247.548L243.307 152.728L233.554 157.395C233.158 159.544 233.582 160.817 234.826 161.213L246.7 160.364L245.851 162.061L243.731 163.334L242.883 165.88C244.297 168.425 247.265 169.415 251.788 168.849L256.029 167.152L255.181 168.849C253.654 170.433 251.11 170.998 247.548 170.546L238.643 176.486L239.491 171.819L236.522 169.698C234.544 171.677 231.716 172.809 228.041 173.092L219.984 180.304L219.136 184.122H214.472L208.959 186.667L206.839 190.91L202.174 193.88L193.269 206.183C185.184 210.255 177.975 215.205 171.643 221.031L170.795 224.425L173.339 238.85L170.37 242.668L168.25 240.547L167.402 231.213L164.858 227.395L158.497 224.001L150.864 223.152L148.744 224.001L146.2 229.092C143.09 229.828 141.111 229.12 140.263 226.971C140.772 225.047 139.5 224.623 136.446 225.698L129.662 227.395L117.364 234.183L110.579 254.971V261.759L115.244 268.122L122.029 271.516H127.117L134.326 266.85L138.143 259.638C141.535 258.789 143.655 259.213 144.503 260.91L138.567 277.88C138.849 279.577 140.121 280.284 142.383 280.001C143.118 278.757 144.815 278.474 147.472 279.153L152.136 280.001L151.288 296.547C151.854 300.507 153.55 303.335 156.377 305.032L155.105 305.456L147.896 300.789L146.2 294.001L140.687 287.638L135.598 285.941H131.358L120.332 278.304L116.94 277.456L111.851 279.153L104.219 277.456L86.8325 267.274V258.365L72.4147 233.759L71.5666 227.819L68.1742 220.607C65.2907 219.928 63.4529 220.494 62.6616 222.304C62.7744 218.514 61.6439 215.968 59.2692 214.668L52.9083 210.001L50.364 200.668V188.789L53.7564 186.243L55.4527 182.001L64.7818 170.97L70.2945 161.213C71.5946 161.665 72.0187 161.241 71.5666 159.94C72.8668 159.261 73.15 157.564 72.4147 154.849L69.8704 146.364V142.122C71.7363 138.898 72.3019 134.373 71.5666 128.546L69.8704 124.728L64.7818 123.031L63.5097 120.485L49.94 117.091L38.9146 116.243C36.9358 118.222 34.1087 119.354 30.4336 119.637L27.8893 117.94L21.9526 122.182L10.0792 125.576L7.53489 122.182L2.87034 120.061C2.19185 116.554 2.89858 114.433 4.99059 113.697L8.38299 111.152L20.2564 110.303L25.7691 105.637C26.2214 103.544 25.7973 102.271 24.4969 101.819C21.0479 101.479 18.7864 102.328 17.7121 104.364C14.8851 102.95 14.8851 101.536 17.7121 100.122H22.8007L28.7374 101.819L30.8577 100.97L31.7058 96.3034L30.0096 93.3337L38.9146 90.7883H44.0033L49.94 88.2428H63.5097L73.6869 85.6973H90.6489L96.1616 93.3337C98.197 94.5785 101.731 94.861 106.763 94.1822L120.332 89.9398L133.902 89.0913L141.535 91.6367H155.953L157.225 92.9095C156.829 94.2102 157.253 94.6345 158.497 94.1822L161.041 95.8792H165.282L169.522 98.4247H172.067L176.307 94.1822H194.117L200.902 97.5762H204.295L209.807 92.9095L215.32 84.0003L218.712 83.1519Z"
        fill="#666666"
        stroke="#666666"
      />
      <path
        id="Vector_17"
        d="M62.6623 226.546L63.9345 230.364L62.2383 229.516L62.6623 226.546Z"
        fill="#666666"
        stroke="#666666"
      />
      <path
        id="Vector_18"
        d="M64.3586 231.637L66.4789 234.607L67.327 240.546L65.6308 239.698C63.8777 237.661 63.4537 234.974 64.3586 231.637Z"
        fill="#666666"
        stroke="#666666"
      />
      <path
        id="Vector_19"
        d="M188.606 295.274L191.15 296.547L192.847 300.789L191.998 303.335L194.967 305.456C197.738 303.363 199.292 300.252 199.631 296.122L208.536 300.365L217.017 301.213L222.53 300.365L227.195 306.304L236.524 309.698L247.549 319.88L254.334 320.729L260.695 325.395L264.087 332.183V334.729C261.373 336.143 259.959 338.547 259.847 341.941L270.448 341.092C271.183 342.902 273.162 343.468 276.385 342.789L285.714 349.577L288.258 348.729L289.106 349.577H296.739C299.001 351.67 301.969 352.801 305.644 352.971L306.916 355.517L315.821 359.759L314.973 367.82L306.492 378.85C306.266 383.714 305.135 387.674 303.1 390.729V399.214L301.404 405.153V410.244L297.163 419.578L295.043 421.699C290.915 424.075 285.826 425.489 279.777 425.941L275.112 428.911L274.264 431.456C275.96 432.587 276.526 434.85 275.96 438.244L270.872 446.729L270.024 453.517C266.405 456.119 263.72 459.654 261.967 464.123L254.334 464.972C253.543 463.501 251.846 462.935 249.245 463.275L247.973 465.396L251.79 470.063L256.454 473.032L254.334 476.851L252.214 478.123L250.093 481.093L243.309 480.244L241.188 483.214L242.036 484.063V489.578L234.404 488.729L233.555 491.699L237.796 497.639V501.032C235.195 502.673 233.782 505.501 233.555 509.517C234.291 511.497 235.987 512.205 238.644 511.639L239.492 518.002L236.1 523.942V528.184L236.948 530.305C229.937 530.192 225.131 527.505 222.53 522.245L218.29 513.76L215.745 511.214V508.669C218.063 507.594 218.911 505.048 218.29 501.032L216.593 499.335L214.897 492.548L208.96 485.76L208.112 464.547L207.264 463.699V454.366L206.416 453.517V441.638L205.568 440.79V413.638L206.416 409.396L200.904 403.032C197.454 403.371 195.193 402.523 194.119 400.487L177.581 386.486L171.644 372.062C169.157 366.632 165.764 362.107 161.467 358.486V354.244L164.859 349.153C162.824 348.078 161.976 345.816 162.315 342.365L173.34 327.092L177.581 316.91L175.036 314.365L174.188 309.274L183.093 299.516L187.758 298.668L188.606 295.274Z"
        fill="#666666"
        stroke="#666666"
      />
      <path
        id="Vector_20"
        d="M830.616 316.485C833.389 316.428 835.365 317.418 836.553 319.454C836.553 322.848 835.705 325.394 834.008 327.091V330.485C835.705 331.786 836.273 333.907 835.705 336.848C834.178 336.226 833.61 336.65 834.008 338.121L833.16 341.515L831.04 343.636C829.793 343.24 829.369 343.664 829.768 344.909L827.648 349.576L813.231 348.727L811.111 346.606C808.849 343.891 808.001 340.073 808.566 335.151L813.231 336L820.015 324.121C825.103 323.555 828.64 321.434 830.616 317.757V316.485Z"
        fill="#666666"
        stroke="#666666"
      />
      <path
        id="Vector_21"
        d="M764.89 321.577L768.706 324.547L772.523 330.062C773.597 332.098 775.858 332.947 779.307 332.608L782.276 335.577L791.605 349.153L794.149 354.244V357.638L791.181 360.608L790.333 359.759L787.364 357.638L773.795 337.274L771.25 331.335L766.162 325.395L764.89 321.577Z"
        fill="#666666"
        stroke="#666666"
      />
      <path
        id="Vector_22"
        d="M886.167 341.94C888.771 341.149 889.475 342.421 888.287 345.759L891.68 351.698L888.711 352.122L887.439 350.849C888.287 347.456 887.863 345.334 886.167 344.486L884.047 343.213L886.167 341.94Z"
        fill="#666666"
        stroke="#666666"
      />
      <path
        id="Vector_23"
        d="M903.129 347.03L926.028 355.515L931.541 360.182L934.085 365.273L933.237 366.97L934.085 369.091L945.11 377.152L940.446 377.576L928.996 368.667C929.446 367.422 929.022 366.998 927.724 367.394L925.18 366.546L919.243 370.788C918.395 369.374 916.419 369.091 913.307 369.939C912.06 367.167 909.66 366.036 906.098 366.546L906.946 361.03L906.098 358.909L896.769 353.394L901.009 351.273L903.129 347.03Z"
        fill="#666666"
        stroke="#666666"
      />
      <path
        id="Vector_24"
        d="M882.775 384.364L894.225 385.637C892.079 387.447 891.231 390.558 891.681 394.97L892.529 397.091L895.073 398.364C894.674 399.665 895.098 400.089 896.345 399.637C897.532 403.257 900.925 404.671 906.522 403.879L910.339 402.182L915.427 391.576L916.7 385.213C921.05 389.907 923.459 396.554 923.908 405.152L923.06 406.849L925.181 409.819L928.997 412.788C929.226 418.219 931.058 422.037 934.51 424.243L938.326 425.091C937.877 427.637 938.436 429.476 940.022 430.607V434.849L939.174 435.698V442.486L936.63 446.728L935.782 451.819L925.181 464.122L917.124 470.486L913.307 475.152L899.737 481.94C898.66 479.621 896.116 478.773 892.105 479.395L888.712 480.243C886.227 479.055 884.955 476.652 884.896 473.031L885.744 471.334L883.2 467.94V465.395L884.896 462.001C884.497 460.756 883.225 460.332 881.079 460.728L874.294 464.122L871.75 458.183L867.934 455.213C868.383 453.968 867.959 453.544 866.662 453.94L864.965 453.092L860.725 454.789L858.181 453.94C857.222 455.524 854.958 455.807 851.396 454.789L848.003 457.334L842.915 459.031H838.674L835.282 461.577H831.041L824.256 464.122L811.959 465.819L813.655 462.849L814.503 450.122L813.655 449.273V438.243C815.408 435.188 815.973 430.946 815.351 425.516L817.472 421.698L824.256 417.455L832.737 415.758L845.883 408.546L848.851 402.182L852.244 403.031L854.788 397.94L856.908 396.667L861.573 391.152L864.541 393.273L866.662 396.243L870.902 397.091L875.143 390.303L882.775 384.364Z"
        fill="#666666"
        stroke="#666666"
      />
      <path
        id="Vector_25"
        d="M602.055 389.455L602.479 397.516L600.783 406.001L593.998 419.576L592.302 427.213C593.886 428.174 593.462 429.164 591.03 430.183L585.093 431.88L582.125 428.061V418.304L584.669 417.031L586.366 413.637V402.607L585.517 400.91L599.935 392.425L602.055 389.455Z"
        fill="#666666"
        stroke="#666666"
      />
      <path
        id="Vector_26"
        opacity="0.235294"
        d="M830.192 311.396C834.942 311.735 838.19 313.574 839.945 316.911L840.794 322.002L838.249 329.639C840.285 331.392 840.853 334.362 839.945 338.548C838.419 337.926 837.851 338.35 838.249 339.82L837.401 343.214L829.344 353.82L811.534 352.972L807.718 349.154L804.325 341.517V333.881L807.294 330.911C810.404 331.477 812.241 330.77 812.806 328.79C813.428 324.604 815.266 321.635 818.319 319.881C822.899 319.938 825.867 318.382 827.224 315.214L830.192 311.396ZM831.464 314.79L826.376 320.729L817.895 323.275L813.654 334.305L810.262 333.457L806.869 336.002L807.718 343.639L811.11 349.578L813.654 350.426L828.072 351.275C829.768 350.144 830.616 348.447 830.616 346.184L834.009 343.639L834.857 339.396L837.401 336.851L835.705 330.911V327.517L838.249 320.729L837.401 319.032C836.273 316.204 834.289 314.79 831.464 314.79Z"
        fill="#666666"
        stroke="#666666"
      />
      <path
        id="Vector_27"
        opacity="0.235294"
        d="M760.224 316.485L767.432 317.334L772.097 322.001L775.065 326.667C776.026 328.251 778.006 328.816 781.002 328.364L785.667 333.031L798.388 353.395V359.334L792.875 364.849H789.483L783.97 360.183L770.401 339.819L767.856 333.879L761.92 327.091V325.394L758.527 321.152V318.182C760.224 318.748 760.789 318.182 760.224 316.485ZM762.768 319.031L761.92 321.576L765.312 327.516L770.401 333.455L784.818 357.213L791.603 362.304L793.3 361.455L795.844 358.061L793.3 349.576L782.274 333.455C780.578 331.192 778.316 330.061 775.489 330.061L768.705 322.425L762.768 319.031Z"
        fill="#666666"
        stroke="#666666"
      />
      <path
        id="Vector_28"
        opacity="0.235294"
        d="M602.053 382.668L605.87 385.638C607.283 388.749 607.566 392.992 606.718 398.365L605.022 406.85L597.389 422.971C597.954 427.214 597.671 430.183 596.541 431.88C595.014 431.258 594.448 431.683 594.844 433.153C593.544 432.135 592.272 432.842 591.028 435.274L583.395 436.123L577.882 429.759L577.034 418.729L577.882 416.608H579.578V414.911C581.105 415.532 581.671 415.108 581.275 413.638L582.123 412.789V403.456L581.275 397.941C582.801 398.563 583.367 398.138 582.971 396.668C583.989 397.573 584.978 397.149 585.939 395.395L587.635 394.547L588.484 395.395L591.876 392.001L596.541 390.304L600.357 383.516L602.053 382.668ZM602.477 386.062L599.933 390.304L597.389 392.85L583.819 400.486L584.667 402.183V414.062L580.427 419.153V428.486L582.971 432.729L585.515 433.577L593.148 431.032L593.996 430.183L595.692 420.001L602.477 405.577L604.173 397.092C604.739 392.001 604.173 388.325 602.477 386.062Z"
        fill="#666666"
        stroke="#666666"
      />
    </g>
  </g>
  <g id="dotted-lines">
    <path
      id="red-line"
      opacity="0.8"
      d="M66.9268 207.089H222.977"
      stroke="#EC5563"
      stroke-width="3"
      stroke-miterlimit="10"
      stroke-linecap="round"
      stroke-dasharray="8 12"
    />
    <g id="blue-lines">
      <path
        id="Vector_31"
        opacity="0.8"
        d="M914.893 455.103L330.382 207.48"
        stroke="#339BFC"
        stroke-width="3"
        stroke-miterlimit="10"
        stroke-linecap="round"
        stroke-dasharray="7.94 11.91"
      />
      <path
        id="Vector_34"
        opacity="0.8"
        d="M811.68 249.48L331.01 204.968"
        stroke="#339BFC"
        stroke-width="3"
        stroke-miterlimit="10"
        stroke-linecap="round"
        stroke-dasharray="7.93 11.9"
      />
      <path
        id="Vector_37"
        opacity="0.8"
        d="M471.564 124.642L329.974 200.25"
        stroke="#339BFC"
        stroke-width="3"
        stroke-miterlimit="10"
        stroke-linecap="round"
        stroke-dasharray="7.8 11.71"
      />
      <path
        id="Vector_40"
        opacity="0.8"
        d="M500.112 445.778L327.71 211.137"
        stroke="#339BFC"
        stroke-width="3"
        stroke-miterlimit="10"
        stroke-linecap="round"
        stroke-dasharray="8.22 12.33"
      />
    </g>
  </g>
  <g id="start-point">
    <path
      id="line"
      d="M65.6641 205.13V109.455"
      stroke="#EC5563"
      stroke-width="4"
      stroke-miterlimit="10"
      stroke-linecap="round"
    />
    <g id="blocks">
      <g id="Group 511">
        <path
          id="Vector_42"
          d="M118.427 0H12.7281C8.04411 0 4.24707 3.79881 4.24707 8.48489V29.1032C4.24707 33.7892 8.04411 37.5881 12.7281 37.5881H118.427C123.111 37.5881 126.908 33.7892 126.908 29.1032V8.48489C126.908 3.79881 123.111 0 118.427 0Z"
          fill="#EC5563"
        />
        <path
          id="Vector_43"
          d="M21.8125 27.1688C26.4449 27.1688 30.2002 23.4118 30.2002 18.7773C30.2002 14.1428 26.4449 10.3857 21.8125 10.3857C17.1801 10.3857 13.4248 14.1428 13.4248 18.7773C13.4248 23.4118 17.1801 27.1688 21.8125 27.1688Z"
          fill="#F5F5F5"
        />
      </g>
      <g id="Group 510">
        <path
          id="Vector_44"
          d="M118.393 44.7754H12.6939C8.00993 44.7754 4.21289 48.5742 4.21289 53.2603V73.8786C4.21289 78.5647 8.00993 82.3634 12.6939 82.3634H118.393C123.077 82.3634 126.874 78.5647 126.874 73.8786V53.2603C126.874 48.5742 123.077 44.7754 118.393 44.7754Z"
          fill="#EC5563"
        />
        <path
          id="Vector_45"
          d="M21.8116 73.1498C26.444 73.1498 30.1993 69.3928 30.1993 64.7583C30.1993 60.1237 26.444 56.3667 21.8116 56.3667C17.1791 56.3667 13.4238 60.1237 13.4238 64.7583C13.4238 69.3928 17.1791 73.1498 21.8116 73.1498Z"
          fill="#F5F5F5"
        />
      </g>
      <g id="Group 509">
        <path
          id="Vector_46"
          d="M118.393 89.6855H12.6939C8.00993 89.6855 4.21289 93.4842 4.21289 98.1704V118.789C4.21289 123.475 8.00993 127.274 12.6939 127.274H118.393C123.077 127.274 126.874 123.475 126.874 118.789V98.1704C126.874 93.4842 123.077 89.6855 118.393 89.6855Z"
          fill="#EC5563"
        />
        <path
          id="Vector_47"
          d="M21.8116 117.685C26.444 117.685 30.1993 113.928 30.1993 109.294C30.1993 104.659 26.444 100.902 21.8116 100.902C17.1791 100.902 13.4238 104.659 13.4238 109.294C13.4238 113.928 17.1791 117.685 21.8116 117.685Z"
          fill="#F5F5F5"
        />
      </g>
    </g>
    <g id="circles">
      <path
        id="circle-5"
        opacity="0.1"
        d="M65.1804 271.516C100.544 271.516 129.212 242.834 129.212 207.455C129.212 172.076 100.544 143.394 65.1804 143.394C29.8164 143.394 1.14844 172.076 1.14844 207.455C1.14844 242.834 29.8164 271.516 65.1804 271.516Z"
        fill="#EC5563"
      />
      <path
        id="circle-4"
        opacity="0.2"
        d="M65.7319 257.938C93.732 257.938 116.431 235.23 116.431 207.216C116.431 179.202 93.732 156.493 65.7319 156.493C37.7312 156.493 15.0322 179.202 15.0322 207.216C15.0322 235.23 37.7312 257.938 65.7319 257.938Z"
        fill="#EC5563"
      />
      <path
        id="circle-3"
        opacity="0.3"
        d="M65.2751 242.668C84.8171 242.668 100.658 226.819 100.658 207.269C100.658 187.719 84.8171 171.87 65.2751 171.87C45.734 171.87 29.8926 187.719 29.8926 207.269C29.8926 226.819 45.734 242.668 65.2751 242.668Z"
        fill="#EC5563"
      />
      <path
        id="circle-2"
        opacity="0.5"
        d="M65.2811 230.661C78.3215 230.661 88.8922 220.085 88.8922 207.039C88.8922 193.993 78.3215 183.417 65.2811 183.417C52.241 183.417 41.6699 193.993 41.6699 207.039C41.6699 220.085 52.241 230.661 65.2811 230.661Z"
        fill="#EC5563"
      />
      <path
        id="circle-1"
        d="M65.2826 218.062C71.4372 218.062 76.4266 213.07 76.4266 206.913C76.4266 200.755 71.4372 195.764 65.2826 195.764C59.1279 195.764 54.1387 200.755 54.1387 206.913C54.1387 213.07 59.1279 218.062 65.2826 218.062Z"
        fill="#EC5563"
      />
    </g>
  </g>
  <g id="end-points">
    <g id="end-point_1">
      <path
        id="end-point_1-1"
        opacity="0.25"
        d="M488.5 184.97C526.205 184.97 556.772 154.389 556.772 116.666C556.772 78.9433 526.205 48.3628 488.5 48.3628C450.794 48.3628 420.228 78.9433 420.228 116.666C420.228 154.389 450.794 184.97 488.5 184.97Z"
        fill="#F5F5F5"
      />
      <path
        id="end-point_1-2"
        opacity="0.4"
        d="M488.833 172.478C519.48 172.478 544.324 147.623 544.324 116.962C544.324 86.3005 519.48 61.4448 488.833 61.4448C458.186 61.4448 433.342 86.3005 433.342 116.962C433.342 147.623 458.186 172.478 488.833 172.478Z"
        fill="#F5F5F5"
      />
      <path
        id="end-point_1-3"
        opacity="0.55"
        d="M488.306 157.818C511.388 157.818 530.101 139.097 530.101 116.004C530.101 92.9107 511.388 74.1904 488.306 74.1904C465.223 74.1904 446.512 92.9107 446.512 116.004C446.512 139.097 465.223 157.818 488.306 157.818Z"
        fill="#F5F5F5"
      />
      <path
        id="end-point_1-4"
        d="M488.23 145.057C504.145 145.057 517.048 132.149 517.048 116.225C517.048 100.302 504.145 87.3936 488.23 87.3936C472.313 87.3936 459.411 100.302 459.411 116.225C459.411 132.149 472.313 145.057 488.23 145.057Z"
        fill="#F5F5F5"
      />
      <g id="end-point_1-profile-icon">
        <path
          id="Vector_48"
          d="M477.729 128.632C477.729 121.801 482.352 116.269 488.051 116.269C493.75 116.269 498.381 121.801 498.381 128.632"
          fill="#101010"
        />
        <path
          id="Vector_49"
          d="M488.05 114.648C491.123 114.648 493.613 112.156 493.613 109.082C493.613 106.008 491.123 103.516 488.05 103.516C484.977 103.516 482.486 106.008 482.486 109.082C482.486 112.156 484.977 114.648 488.05 114.648Z"
          fill="#101010"
        />
      </g>
    </g>
    <g id="end-point_2">
      <path
        id="end-point_2-1"
        opacity="0.25"
        d="M837.74 318.759C875.446 318.759 906.012 288.178 906.012 250.455C906.012 212.732 875.446 182.152 837.74 182.152C800.033 182.152 769.466 212.732 769.466 250.455C769.466 288.178 800.033 318.759 837.74 318.759Z"
        fill="#F5F5F5"
      />
      <path
        id="end-point_2-2"
        opacity="0.4"
        d="M838.064 306.268C868.714 306.268 893.555 281.412 893.555 250.751C893.555 220.09 868.714 195.234 838.064 195.234C807.417 195.234 782.572 220.09 782.572 250.751C782.572 281.412 807.417 306.268 838.064 306.268Z"
        fill="#F5F5F5"
      />
      <path
        id="end-point_2-3"
        opacity="0.55"
        d="M837.537 291.607C860.623 291.607 879.332 272.886 879.332 249.793C879.332 226.701 860.623 207.979 837.537 207.979C814.454 207.979 795.742 226.701 795.742 249.793C795.742 272.886 814.454 291.607 837.537 291.607Z"
        fill="#F5F5F5"
      />
      <path
        id="end-point_2-4"
        d="M837.467 278.847C853.386 278.847 866.285 265.939 866.285 250.015C866.285 234.093 853.386 221.184 837.467 221.184C821.548 221.184 808.648 234.093 808.648 250.015C808.648 265.939 821.548 278.847 837.467 278.847Z"
        fill="#F5F5F5"
      />
      <g id="end-point_2-profile-icon">
        <path
          id="Vector_50"
          d="M826.959 262.418C826.959 255.63 831.59 250.055 837.289 250.055C842.988 250.055 847.619 255.587 847.619 262.418"
          fill="#101010"
        />
        <path
          id="Vector_51"
          d="M837.29 248.435C840.36 248.435 842.854 245.943 842.854 242.869C842.854 239.795 840.36 237.303 837.29 237.303C834.22 237.303 831.727 239.795 831.727 242.869C831.727 245.943 834.22 248.435 837.29 248.435Z"
          fill="#101010"
        />
      </g>
    </g>
    <g id="end-point_3">
      <path
        id="end-point_3-1"
        opacity="0.25"
        d="M932.728 527.488C970.435 527.488 1001 496.908 1001 459.185C1001 421.462 970.435 390.882 932.728 390.882C895.022 390.882 864.456 421.462 864.456 459.185C864.456 496.908 895.022 527.488 932.728 527.488Z"
        fill="#F5F5F5"
      />
      <path
        id="end-point_3-2"
        opacity="0.4"
        d="M933.051 514.997C963.701 514.997 988.542 490.141 988.542 459.48C988.542 428.819 963.701 403.964 933.051 403.964C902.401 403.964 877.56 428.819 877.56 459.48C877.56 490.141 902.401 514.997 933.051 514.997Z"
        fill="#F5F5F5"
      />
      <path
        id="end-point_3-3"
        opacity="0.55"
        d="M932.524 500.336C955.609 500.336 974.318 481.616 974.318 458.523C974.318 435.43 955.609 416.709 932.524 416.709C909.439 416.709 890.729 435.43 890.729 458.523C890.729 481.616 909.439 500.336 932.524 500.336Z"
        fill="#F5F5F5"
      />
      <path
        id="end-point_3-4"
        d="M932.455 487.576C948.374 487.576 961.274 474.668 961.274 458.744C961.274 442.822 948.374 429.913 932.455 429.913C916.536 429.913 903.637 442.822 903.637 458.744C903.637 474.668 916.536 487.576 932.455 487.576Z"
        fill="#F5F5F5"
      />
      <g id="end-point_3-profile-icon">
        <path
          id="Vector_52"
          d="M921.947 471.15C921.947 464.362 926.578 458.788 932.277 458.788C937.976 458.788 942.607 464.32 942.607 471.15"
          fill="#101010"
        />
        <path
          id="Vector_53"
          d="M932.278 457.167C935.348 457.167 937.842 454.675 937.842 451.601C937.842 448.526 935.348 446.034 932.278 446.034C929.208 446.034 926.715 448.526 926.715 451.601C926.715 454.675 929.208 457.167 932.278 457.167Z"
          fill="#101010"
        />
      </g>
    </g>
    <g id="end-point_4">
      <path
        id="end-point_4-1"
        opacity="0.25"
        d="M509.331 525.24C547.037 525.24 577.603 494.66 577.603 456.937C577.603 419.214 547.037 388.634 509.331 388.634C471.625 388.634 441.059 419.214 441.059 456.937C441.059 494.66 471.625 525.24 509.331 525.24Z"
        fill="#F5F5F5"
      />
      <path
        id="end-point_4-2"
        opacity="0.4"
        d="M509.653 512.749C540.3 512.749 565.145 487.893 565.145 457.232C565.145 426.571 540.3 401.716 509.653 401.716C479.006 401.716 454.162 426.571 454.162 457.232C454.162 487.893 479.006 512.749 509.653 512.749Z"
        fill="#F5F5F5"
      />
      <path
        id="end-point_4-3"
        opacity="0.55"
        d="M509.126 498.089C532.209 498.089 550.921 479.368 550.921 456.275C550.921 433.182 532.209 414.461 509.126 414.461C486.045 414.461 467.332 433.182 467.332 456.275C467.332 479.368 486.045 498.089 509.126 498.089Z"
        fill="#F5F5F5"
      />
      <path
        id="end-point_4-4"
        d="M509.058 485.329C524.974 485.329 537.876 472.42 537.876 456.497C537.876 440.573 524.974 427.665 509.058 427.665C493.141 427.665 480.239 440.573 480.239 456.497C480.239 472.42 493.141 485.329 509.058 485.329Z"
        fill="#F5F5F5"
      />
      <g id="end-point_4-profile-icon">
        <path
          id="Vector_54"
          d="M498.551 468.901C498.551 462.114 503.173 456.531 508.881 456.531C514.588 456.531 519.211 462.071 519.211 468.901"
          fill="#101010"
        />
        <path
          id="Vector_55"
          d="M508.882 454.909C511.955 454.909 514.445 452.417 514.445 449.343C514.445 446.269 511.955 443.777 508.882 443.777C505.809 443.777 503.318 446.269 503.318 449.343C503.318 452.417 505.809 454.909 508.882 454.909Z"
          fill="#101010"
        />
      </g>
    </g>
  </g>
  <g id="logo">
    <path
      id="logo-bg"
      d="M264.421 109.799C267.516 108.011 271.33 108.011 274.425 109.799L341.912 148.78C345.005 150.567 346.91 153.868 346.91 157.44V235.411C346.91 238.983 345.005 242.284 341.912 244.07L274.425 283.052C271.33 284.839 267.516 284.839 264.421 283.052L196.934 244.07C193.841 242.284 191.936 238.983 191.936 235.411V157.44C191.936 153.868 193.841 150.567 196.934 148.78L264.421 109.799Z"
      fill="#101010"
    />
    <path
      id="logo-border"
      d="M269.425 275.575C268.37 275.575 267.843 275.575 266.788 275.047L203.498 238.111C201.916 237.056 200.861 235.473 200.861 233.362V159.491C200.861 157.38 201.916 155.797 203.498 154.742L266.788 117.806C267.843 117.278 268.37 117.278 269.425 117.278C270.48 117.278 271.007 117.278 272.062 117.806L330.828 152.102C333.324 153.558 334.162 156.766 332.697 159.257V159.257C331.246 161.725 328.079 162.564 325.596 161.139L274.439 131.765C271.337 129.984 267.52 129.996 264.429 131.795L216.379 159.764C213.302 161.555 211.41 164.846 211.41 168.406V224.974C211.41 228.534 213.302 231.826 216.379 233.617L264.394 261.566C267.504 263.376 271.346 263.376 274.456 261.566L322.471 233.617C325.548 231.826 327.44 228.534 327.44 224.974V196.424C327.44 193.511 329.802 191.15 332.715 191.15V191.15C335.627 191.15 337.989 193.511 337.989 196.424V233.362C337.989 235.473 336.934 237.056 335.352 238.111L272.062 275.047C271.007 275.575 270.48 275.575 269.425 275.575Z"
      fill="#339BFC"
    />
    <path
      id="logo-icon"
      d="M284.054 212.628C283.502 212.699 281.215 212.735 279.627 211.308C279.591 211.29 279.022 210.703 278.255 209.918C276.116 207.741 275.169 204.65 275.703 201.653C275.757 201.276 276.201 199.903 276.685 198.422C277.56 195.744 277.506 192.262 276.595 189.834C276.524 189.619 276.38 189.157 276.201 188.565C275.362 185.581 275.703 182.691 277.591 180.246C277.609 180.228 277.609 180.21 277.627 180.21C278.125 179.569 278.627 178.927 279.107 178.353C280.641 176.477 282.892 175.338 285.301 175.194C286.068 175.158 287.032 175.014 287.906 174.853C289.961 174.494 291.885 173.516 293.208 171.905C293.369 171.726 293.477 171.51 293.62 171.353C295.046 169.532 296.814 165.372 295.885 162.142C293.602 154.303 283.57 150.839 276.578 157.606C273.882 160.212 273.205 164.156 274.061 167.8C274.366 169.101 274.259 170.869 274.026 172.511C273.882 173.386 273.42 174.494 272.828 175.616C271.133 178.846 267.832 180.937 264.19 181.184C262.939 181.274 261.459 181.435 260.122 181.597C259.266 181.704 258.122 182.041 256.911 182.49C252.023 184.275 248.094 188.183 246.56 193.15C246.398 193.684 246.273 194.187 246.219 194.631C245.986 196.255 245.896 198.059 246.165 199.539C246.219 199.755 246.273 199.984 246.327 200.217C246.95 202.698 248.13 205 249.681 207.037C251.592 209.536 254.462 213.875 254.323 216.872C254.269 217.585 254.216 218.227 254.126 218.801C253.875 220.641 253.18 222.391 252.18 223.961C251.892 224.405 251.359 225.177 250.91 225.783C250.395 226.514 249.982 227.317 249.731 228.192C249.372 229.408 249 231.208 249.233 232.939C249.928 238.225 256.62 240.652 261.566 237.776C264.778 235.919 266.155 232.011 265.28 228.403C264.836 226.564 263.621 224.904 262.531 223.71C260.871 221.906 260.015 219.443 260.284 217.016C260.302 216.872 260.32 216.746 260.338 216.657C260.481 215.997 260.8 215.387 261.23 214.799C263.656 211.479 268.28 210.783 271.886 212.744C272.438 213.031 273.012 213.386 273.6 213.799C277.99 216.832 277.313 219.833 277.506 221.906C277.932 226.496 283.879 230.027 288.319 228.726C290.853 227.977 292.817 225.868 293.71 223.369C296.208 216.388 289.606 211.766 284.054 212.623V212.628ZM281.861 156.641C286 155.443 290.319 157.821 291.535 161.962C292.732 166.086 290.355 170.424 286.216 171.64C282.076 172.838 277.757 170.46 276.542 166.319C275.344 162.178 277.721 157.857 281.861 156.641ZM262.567 228.197C263.405 231.073 261.746 234.088 258.871 234.927C255.978 235.766 252.964 234.106 252.126 231.23C251.287 228.354 252.946 225.339 255.821 224.5C258.714 223.661 261.728 225.303 262.567 228.197ZM264.903 207.611C258.566 209.451 251.946 205.808 250.09 199.472C248.251 193.132 251.892 186.492 258.225 184.652C264.562 182.813 271.2 186.456 273.039 192.791C274.878 199.131 271.236 205.754 264.903 207.611ZM286.642 225.428C283.677 226.285 280.574 224.589 279.717 221.624C278.86 218.658 280.556 215.553 283.52 214.696C286.485 213.839 289.588 215.535 290.445 218.501C291.302 221.467 289.606 224.571 286.642 225.428Z"
      fill="#F5F5F5"
    />
  </g>
</svg>
