<svg width="890" height="760" viewBox="0 0 890 760" fill="none" xmlns="http://www.w3.org/2000/svg">
<g id="step-1-register" clip-path="url(#clip0_741_6275)">
<rect id="bg" width="890" height="760" rx="10" fill="#C3CCCC"/>
<g id="fg">
<g id="card-bg" filter="url(#filter0_d_741_6275)">
<rect x="50" y="69" width="790" height="622" rx="10" fill="#F5F5F5"/>
<rect x="51.5" y="70.5" width="787" height="619" rx="8.5" stroke="#101010" stroke-width="3"/>
</g>
<g id="logo">
<path id="Vector" d="M365.571 132.075C365.272 132.114 364.031 132.134 363.169 131.36C363.15 131.35 362.841 131.031 362.424 130.605C361.264 129.425 360.75 127.748 361.04 126.123C361.069 125.918 361.31 125.173 361.573 124.37C362.047 122.917 362.018 121.029 361.524 119.712C361.485 119.595 361.407 119.345 361.31 119.024C360.855 117.405 361.04 115.838 362.064 114.512C362.074 114.502 362.074 114.492 362.084 114.492C362.354 114.144 362.626 113.796 362.887 113.485C363.719 112.467 364.941 111.849 366.248 111.771C366.664 111.752 367.187 111.674 367.662 111.586C368.776 111.392 369.82 110.861 370.538 109.987C370.626 109.89 370.684 109.773 370.762 109.688C371.536 108.7 372.495 106.444 371.991 104.692C370.752 100.44 365.308 98.5613 361.514 102.231C360.052 103.645 359.684 105.784 360.149 107.761C360.314 108.466 360.256 109.425 360.129 110.316C360.052 110.79 359.801 111.392 359.48 112C358.56 113.752 356.769 114.886 354.792 115.02C354.113 115.069 353.31 115.156 352.585 115.244C352.12 115.303 351.5 115.485 350.843 115.728C348.19 116.697 346.058 118.817 345.226 121.511C345.138 121.8 345.07 122.073 345.041 122.314C344.914 123.195 344.866 124.173 345.012 124.976C345.041 125.093 345.07 125.217 345.099 125.344C345.437 126.69 346.077 127.938 346.92 129.043C347.956 130.399 349.514 132.752 349.438 134.378C349.409 134.765 349.38 135.113 349.331 135.424C349.195 136.422 348.818 137.371 348.275 138.223C348.119 138.464 347.83 138.882 347.586 139.211C347.306 139.608 347.083 140.043 346.946 140.518C346.752 141.177 346.55 142.153 346.676 143.093C347.053 145.959 350.684 147.276 353.369 145.716C355.111 144.708 355.858 142.589 355.384 140.632C355.143 139.634 354.483 138.734 353.892 138.086C352.992 137.108 352.527 135.772 352.673 134.455C352.682 134.378 352.692 134.309 352.702 134.261C352.78 133.903 352.953 133.572 353.186 133.253C354.503 131.452 357.012 131.075 358.969 132.139C359.268 132.294 359.579 132.487 359.898 132.711C362.281 134.356 361.913 135.984 362.018 137.108C362.249 139.598 365.476 141.513 367.886 140.807C369.261 140.401 370.327 139.257 370.811 137.902C372.166 134.115 368.584 131.608 365.571 132.073V132.075ZM364.381 101.708C366.627 101.058 368.971 102.348 369.63 104.594C370.28 106.831 368.99 109.184 366.744 109.844C364.498 110.494 362.154 109.204 361.495 106.957C360.845 104.711 362.135 102.368 364.381 101.708ZM353.911 140.52C354.367 142.08 353.466 143.716 351.906 144.171C350.336 144.626 348.701 143.725 348.246 142.165C347.791 140.605 348.691 138.97 350.251 138.515C351.821 138.06 353.456 138.95 353.911 140.52ZM355.179 129.354C351.741 130.352 348.149 128.376 347.141 124.94C346.143 121.501 348.119 117.899 351.556 116.901C354.994 115.904 358.596 117.88 359.594 121.316C360.592 124.755 358.616 128.347 355.179 129.354ZM366.975 139.019C365.367 139.483 363.683 138.563 363.218 136.955C362.753 135.346 363.673 133.662 365.282 133.197C366.89 132.732 368.574 133.652 369.039 135.261C369.504 136.87 368.584 138.554 366.975 139.019Z" fill="#101010"/>
<g id="Group">
<path id="Vector_2" d="M403.814 123.462V131.614C403.814 138.928 399.638 142.885 391.011 142.885C382.383 142.885 378.207 138.988 378.207 131.614V123.462C378.207 116.149 382.451 112.191 391.011 112.191C399.57 112.191 403.814 116.149 403.814 123.462ZM387.586 123.102V132.033C387.586 134.43 388.818 135.691 391.011 135.691C393.203 135.691 394.435 134.433 394.435 132.033V123.041C394.435 120.644 393.203 119.444 391.011 119.444C388.818 119.444 387.586 120.644 387.586 123.102Z" fill="#101010"/>
<path id="Vector_3" d="M427.433 113.09L427.365 118.425C427.365 119.683 426.474 120.223 424.968 119.984C423.461 119.746 421.887 119.566 420.655 119.566C416.959 119.566 415.657 120.824 415.657 124.241V130.895C415.657 134.372 417.163 135.45 420.86 135.45C422.091 135.45 423.325 135.331 424.968 135.09C426.406 134.849 427.297 135.39 427.297 136.648L427.501 142.043C423.941 142.642 421.819 142.883 419.149 142.883C410.522 142.883 406.277 138.987 406.277 131.493V123.579C406.277 116.086 410.59 112.189 419.217 112.189C422.298 112.189 424.488 112.55 427.433 113.09Z" fill="#101010"/>
<path id="Vector_4" d="M437.363 101.219C438.665 101.219 439.485 101.878 439.485 103.078V122.92L446.538 114.047C447.221 113.207 447.976 112.908 449.071 112.908H458.042L447.224 125.857L458.657 142.163H449.414C448.251 142.163 447.496 141.803 446.949 140.905L439.485 129.753V140.306C439.485 141.506 438.662 142.165 437.363 142.165H430.105V101.219H437.363Z" fill="#101010"/>
<path id="Vector_5" d="M457.215 130.836V123.401C457.215 116.268 461.187 112.189 469.607 112.189C478.028 112.189 482.138 116.027 482.138 123.401V128.137C482.138 129.636 481.315 130.476 479.605 130.476H466.526V131.914C466.526 134.433 467.757 135.45 471.525 135.45C473.715 135.45 476.249 135.209 478.714 134.852C480.084 134.672 480.975 135.212 480.975 136.409L481.179 141.685C477.414 142.406 473.306 142.885 470.43 142.885C460.98 142.885 457.215 139.468 457.215 130.836ZM472.963 124.54V122.623C472.963 120.345 471.8 119.325 469.678 119.325C467.692 119.325 466.528 120.345 466.528 122.442V124.54H472.966H472.963Z" fill="#101010"/>
<path id="Vector_6" d="M486.724 132.094V120.104H482.752V114.769C482.752 113.569 483.504 112.91 484.874 112.91H486.928L487.887 106.855C488.023 105.655 488.71 105.117 490.009 105.117H496.103V112.91H503.908V118.244C503.908 119.444 503.156 120.104 501.854 120.104H496.103V132.333C496.103 134.672 496.994 135.57 499.389 135.57C500.279 135.57 501.647 135.39 502.813 135.151C504.183 134.91 505.071 135.57 505.071 136.83L505.139 142.046C503.085 142.586 500.416 142.885 497.95 142.885C490.007 142.885 486.721 140.067 486.721 132.094H486.724Z" fill="#101010"/>
<path id="Vector_7" d="M516.851 103.137V104.576C516.851 107.153 515.002 108.652 511.509 108.652C508.017 108.652 506.17 107.153 506.17 104.576V103.137C506.17 100.438 508.156 99 511.509 99C514.863 99 516.851 100.438 516.851 103.137ZM514.043 112.908C515.345 112.908 516.165 113.568 516.165 114.768V142.166H506.786V112.908H514.043Z" fill="#101010"/>
<path id="Vector_8" d="M544.921 123.462V131.614C544.921 138.928 540.745 142.885 532.118 142.885C523.491 142.885 519.314 138.988 519.314 131.614V123.462C519.314 116.149 523.559 112.191 532.118 112.191C540.677 112.191 544.921 116.149 544.921 123.462ZM528.694 123.102V132.033C528.694 134.43 529.925 135.691 532.118 135.691C534.311 135.691 535.542 134.433 535.542 132.033V123.041C535.542 120.644 534.311 119.444 532.118 119.444C529.925 119.444 528.694 120.644 528.694 123.102Z" fill="#101010"/>
</g>
</g>
<g id="form">
<text id="Set Up Your Workspace" fill="#101010" xml:space="preserve" style="white-space: pre" font-family="Poppins" font-size="18" font-weight="bold" letter-spacing="0em"><tspan x="108.922" y="212.945">Set Up Your Workspace</tspan></text>
<g id="inputs">
<g id="fname-input">
<text id="First Name" fill="#101010" xml:space="preserve" style="white-space: pre" font-family="Poppins" font-size="16" font-weight="600" letter-spacing="0em"><tspan x="108.922" y="261.995">First Name</tspan></text>
<text id="Please enter your first name" fill="#666666" xml:space="preserve" style="white-space: pre" font-family="Noto Sans" font-size="14" letter-spacing="0em"><tspan x="118.492" y="343.586">Please enter your first name</tspan></text>
<rect id="bg_2" x="109.492" y="272" width="322" height="54" rx="10" fill="#CCCCCC"/>
</g>
<g id="lname-input">
<text id="Please enter your last name" fill="#666666" xml:space="preserve" style="white-space: pre" font-family="Noto Sans" font-size="14" letter-spacing="0em"><tspan x="465.922" y="343.586">Please enter your last name</tspan></text>
<text id="Last Name" fill="#101010" xml:space="preserve" style="white-space: pre" font-family="Poppins" font-size="16" font-weight="600" letter-spacing="0em"><tspan x="456.922" y="261.995">Last Name</tspan></text>
<rect id="Rectangle 458" x="457.492" y="272" width="322" height="54" rx="10" fill="#CCCCCC"/>
</g>
<g id="workspace-name-input">
<text id="Please enter your company name" fill="#666666" xml:space="preserve" style="white-space: pre" font-family="Noto Sans" font-size="14" letter-spacing="0em"><tspan x="117.922" y="459.586">Please enter your company name</tspan></text>
<text id="Workspace Name" fill="#101010" xml:space="preserve" style="white-space: pre" font-family="Poppins" font-size="16" font-weight="600" letter-spacing="0em"><tspan x="109.922" y="377.995">Workspace Name</tspan></text>
<rect id="bg_3" x="110.492" y="388" width="670" height="54" rx="10" fill="#CCCCCC"/>
</g>
<g id="url-input">
<text id="Please enter your short name" fill="#666666" xml:space="preserve" style="white-space: pre" font-family="Noto Sans" font-size="14" letter-spacing="0em"><tspan x="119.16" y="576.586">Please enter your short name</tspan></text>
<text id="input-title" fill="#101010" xml:space="preserve" style="white-space: pre" font-family="Poppins" font-size="16" font-weight="600" letter-spacing="0em"><tspan x="109.922" y="494.995">Workspace URL</tspan></text>
<rect id="bg_4" x="109.492" y="505" width="670" height="54" rx="10" fill="#CCCCCC"/>
<g id="url">
<rect id="Rectangle 462" x="619.922" y="510" width="151" height="44" rx="8" fill="#333333"/>
<text id=".ocket.io" fill="#F5F5F5" xml:space="preserve" style="white-space: pre" font-family="Poppins" font-size="16" font-weight="600" letter-spacing="0em"><tspan x="660.922" y="537.6">.ocket.io</tspan></text>
</g>
</g>
</g>
<g id="button">
<rect x="543.922" y="593" width="236" height="51" rx="10" fill="#151779"/>
<text id="Next" fill="#F5F5F5" xml:space="preserve" style="white-space: pre" font-family="Poppins" font-size="16" font-weight="600" letter-spacing="0em"><tspan x="586.438" y="624.1">Next</tspan></text>
<path id="arrow-left-icon" d="M649.206 617.956L640.72 610.592C640.655 610.535 640.572 610.504 640.484 610.504H638.497C638.33 610.504 638.254 610.711 638.38 610.818L646.246 617.646H633.102C633.003 617.646 632.922 617.727 632.922 617.826V619.174C632.922 619.273 633.003 619.354 633.102 619.354H646.243L638.378 626.182C638.252 626.292 638.328 626.496 638.494 626.496H640.55C640.592 626.496 640.635 626.48 640.666 626.451L649.206 619.044C649.284 618.976 649.346 618.892 649.389 618.799C649.432 618.705 649.454 618.603 649.454 618.5C649.454 618.397 649.432 618.295 649.389 618.201C649.346 618.108 649.284 618.024 649.206 617.956Z" fill="#F5F5F5"/>
<rect x="543.922" y="593" width="236" height="51" rx="10" stroke="#F5F5F5"/>
</g>
</g>
<path id="separator" d="M110 167.945H780" stroke="#999999" stroke-width="3" stroke-miterlimit="10"/>
</g>
</g>
<defs>
<filter id="filter0_d_741_6275" x="32" y="58" width="826" height="658" filterUnits="userSpaceOnUse" color-interpolation-filters="sRGB">
<feFlood flood-opacity="0" result="BackgroundImageFix"/>
<feColorMatrix in="SourceAlpha" type="matrix" values="0 0 0 0 0 0 0 0 0 0 0 0 0 0 0 0 0 0 127 0" result="hardAlpha"/>
<feOffset dy="7"/>
<feGaussianBlur stdDeviation="9"/>
<feColorMatrix type="matrix" values="0 0 0 0 0.0705882 0 0 0 0 0.0705882 0 0 0 0 0.0705882 0 0 0 0.157 0"/>
<feBlend mode="normal" in2="BackgroundImageFix" result="effect1_dropShadow_741_6275"/>
<feBlend mode="normal" in="SourceGraphic" in2="effect1_dropShadow_741_6275" result="shape"/>
</filter>
<clipPath id="clip0_741_6275">
<rect width="890" height="760" fill="white"/>
</clipPath>
</defs>
</svg>
