<svg width="890" height="760" viewBox="0 0 890 760" fill="none" xmlns="http://www.w3.org/2000/svg">
<g id="step-3-install_gateway" clip-path="url(#clip0_741_6202)">
<rect id="bg" width="890" height="760" rx="10" fill="#C3CCCC"/>
<g id="fg">
<g id="bg_2" filter="url(#filter0_d_741_6202)">
<rect x="145" y="60" width="600" height="640" rx="10" fill="#F5F5F5"/>
<rect x="146.5" y="61.5" width="597" height="637" rx="8.5" stroke="#101010" stroke-width="3"/>
</g>
<g id="Group 929">
<path id="card-bg" d="M145 70C145 64.4772 149.477 60 155 60H735C740.523 60 745 64.4772 745 70V160H145V70Z" fill="#101010"/>
<g id="logo">
<path id="logo-icon" d="M359.991 119.075C359.692 119.114 358.451 119.133 357.59 118.36C357.57 118.35 357.261 118.031 356.845 117.605C355.684 116.425 355.171 114.748 355.46 113.122C355.489 112.918 355.73 112.173 355.993 111.37C356.468 109.917 356.439 108.029 355.945 106.712C355.906 106.595 355.828 106.345 355.73 106.023C355.275 104.405 355.46 102.838 356.485 101.511C356.494 101.502 356.494 101.492 356.504 101.492C356.774 101.144 357.047 100.796 357.307 100.484C358.14 99.467 359.361 98.8489 360.668 98.771C361.084 98.7515 361.607 98.6737 362.082 98.5861C363.196 98.3914 364.24 97.8608 364.958 96.9871C365.046 96.8898 365.104 96.773 365.182 96.6878C365.956 95.6997 366.915 93.4437 366.411 91.6915C365.172 87.4399 359.729 85.5611 355.935 89.2311C354.472 90.645 354.105 92.7842 354.57 94.7603C354.735 95.4661 354.677 96.425 354.55 97.3157C354.472 97.7903 354.222 98.3914 353.9 98.9998C352.981 100.752 351.19 101.886 349.214 102.02C348.535 102.069 347.732 102.156 347.006 102.244C346.542 102.302 345.921 102.485 345.264 102.728C342.612 103.697 340.48 105.816 339.648 108.511C339.56 108.8 339.492 109.073 339.463 109.314C339.336 110.195 339.287 111.173 339.433 111.976C339.463 112.093 339.492 112.217 339.521 112.344C339.859 113.689 340.499 114.938 341.341 116.043C342.378 117.398 343.935 119.752 343.86 121.377C343.831 121.764 343.801 122.112 343.753 122.424C343.617 123.422 343.239 124.371 342.697 125.223C342.541 125.463 342.251 125.882 342.008 126.211C341.728 126.607 341.504 127.043 341.368 127.517C341.173 128.177 340.971 129.153 341.098 130.092C341.475 132.959 345.106 134.276 347.79 132.716C349.532 131.708 350.279 129.589 349.805 127.632C349.564 126.634 348.904 125.734 348.313 125.086C347.413 124.108 346.948 122.772 347.094 121.455C347.104 121.377 347.113 121.309 347.123 121.261C347.201 120.903 347.374 120.572 347.607 120.253C348.924 118.452 351.433 118.075 353.389 119.138C353.689 119.294 354 119.486 354.319 119.71C356.701 121.355 356.334 122.984 356.439 124.108C356.67 126.598 359.896 128.513 362.306 127.807C363.681 127.401 364.746 126.257 365.231 124.901C366.586 121.115 363.004 118.608 359.991 119.073V119.075ZM358.801 88.7078C361.048 88.058 363.391 89.3479 364.05 91.5941C364.7 93.8307 363.41 96.184 361.164 96.8436C358.918 97.4933 356.575 96.2035 355.915 93.9572C355.266 91.711 356.555 89.3673 358.801 88.7078ZM348.333 127.52C348.788 129.08 347.887 130.715 346.327 131.17C344.758 131.625 343.123 130.725 342.667 129.165C342.212 127.605 343.113 125.97 344.673 125.515C346.242 125.059 347.878 125.95 348.333 127.52ZM349.6 116.354C346.162 117.352 342.57 115.376 341.563 111.94C340.565 108.501 342.541 104.899 345.977 103.901C349.416 102.903 353.017 104.88 354.015 108.316C355.013 111.755 353.037 115.347 349.6 116.354ZM361.396 126.018C359.787 126.483 358.103 125.563 357.638 123.955C357.173 122.346 358.093 120.662 359.702 120.197C361.31 119.732 362.994 120.652 363.459 122.261C363.924 123.869 363.004 125.554 361.396 126.018Z" fill="#F5F5F5"/>
<g id="logo-text">
<path id="Vector" d="M398.234 110.462V118.614C398.234 125.928 394.058 129.885 385.431 129.885C376.805 129.885 372.629 125.988 372.629 118.614V110.462C372.629 103.149 376.873 99.1914 385.431 99.1914C393.99 99.1914 398.234 103.149 398.234 110.462ZM382.008 110.102V119.033C382.008 121.43 383.239 122.691 385.431 122.691C387.624 122.691 388.855 121.433 388.855 119.033V110.041C388.855 107.644 387.624 106.444 385.431 106.444C383.239 106.444 382.008 107.644 382.008 110.102Z" fill="#F5F5F5"/>
<path id="Vector_2" d="M421.85 100.09L421.781 105.425C421.781 106.683 420.891 107.223 419.384 106.984C417.878 106.746 416.304 106.566 415.072 106.566C411.376 106.566 410.074 107.824 410.074 111.241V117.895C410.074 121.372 411.58 122.45 415.277 122.45C416.508 122.45 417.742 122.331 419.384 122.09C420.823 121.849 421.713 122.39 421.713 123.648L421.918 129.043C418.357 129.642 416.235 129.883 413.566 129.883C404.939 129.883 400.695 125.987 400.695 118.493V110.579C400.695 103.086 405.007 99.1895 413.634 99.1895C416.715 99.1895 418.905 99.5496 421.85 100.09Z" fill="#F5F5F5"/>
<path id="Vector_3" d="M431.78 88.2188C433.082 88.2188 433.902 88.8783 433.902 90.0781V109.92L440.954 101.047C441.638 100.207 442.392 99.9076 443.488 99.9076H452.457L441.641 112.857L453.073 129.163H443.831C442.667 129.163 441.913 128.803 441.366 127.905L433.902 116.753V127.306C433.902 128.506 433.08 129.165 431.78 129.165H424.523V88.2188H431.78Z" fill="#F5F5F5"/>
<path id="Vector_4" d="M451.629 117.836V110.401C451.629 103.268 455.6 99.1895 464.02 99.1895C472.44 99.1895 476.55 103.027 476.55 110.401V115.137C476.55 116.636 475.728 117.476 474.017 117.476H460.939V118.914C460.939 121.433 462.171 122.45 465.938 122.45C468.128 122.45 470.661 122.209 473.126 121.852C474.496 121.672 475.387 122.212 475.387 123.409L475.591 128.685C471.827 129.406 467.719 129.885 464.843 129.885C455.393 129.885 451.629 126.468 451.629 117.836ZM467.376 111.54V109.623C467.376 107.345 466.213 106.325 464.091 106.325C462.105 106.325 460.942 107.345 460.942 109.442V111.54H467.378H467.376Z" fill="#F5F5F5"/>
<path id="Vector_5" d="M481.135 119.094V107.104H477.164V101.769C477.164 100.569 477.916 99.9098 479.286 99.9098H481.34L482.299 93.8548C482.435 92.655 483.121 92.1172 484.421 92.1172H490.514V99.9098H498.318V105.244C498.318 106.444 497.566 107.104 496.264 107.104H490.514V119.333C490.514 121.672 491.405 122.57 493.799 122.57C494.69 122.57 496.058 122.39 497.223 122.151C498.593 121.91 499.481 122.57 499.481 123.83L499.55 129.046C497.496 129.586 494.826 129.885 492.361 129.885C484.418 129.885 481.133 127.067 481.133 119.094H481.135Z" fill="#F5F5F5"/>
<path id="Vector_6" d="M511.263 90.1372V91.5755C511.263 94.1528 509.414 95.6519 505.921 95.6519C502.429 95.6519 500.582 94.1528 500.582 91.5755V90.1372C500.582 87.4383 502.568 86 505.921 86C509.275 86 511.263 87.4383 511.263 90.1372ZM508.455 99.9084C509.757 99.9084 510.577 100.568 510.577 101.768V129.166H501.198V99.9084H508.455Z" fill="#F5F5F5"/>
<path id="Vector_7" d="M539.328 110.462V118.614C539.328 125.928 535.152 129.885 526.525 129.885C517.898 129.885 513.723 125.988 513.723 118.614V110.462C513.723 103.149 517.967 99.1914 526.525 99.1914C535.084 99.1914 539.328 103.149 539.328 110.462ZM523.101 110.102V119.033C523.101 121.43 524.333 122.691 526.525 122.691C528.718 122.691 529.949 121.433 529.949 119.033V110.041C529.949 107.644 528.718 106.444 526.525 106.444C524.333 106.444 523.101 107.644 523.101 110.102Z" fill="#F5F5F5"/>
</g>
</g>
</g>
<g id="browser-options">
<path id="Ellipse_4" opacity="0.9" d="M167.609 88.7123C172.58 88.7123 176.609 84.6826 176.609 79.7116C176.609 74.7407 172.58 70.7109 167.609 70.7109C162.639 70.7109 158.609 74.7407 158.609 79.7116C158.609 84.6826 162.639 88.7123 167.609 88.7123Z" fill="#333333"/>
<path id="Ellipse_5" opacity="0.9" d="M189.609 88.7123C194.58 88.7123 198.609 84.6826 198.609 79.7116C198.609 74.7407 194.58 70.7109 189.609 70.7109C184.639 70.7109 180.609 74.7407 180.609 79.7116C180.609 84.6826 184.639 88.7123 189.609 88.7123Z" fill="#666666"/>
<path id="Ellipse_6" opacity="0.9" d="M211.609 88.7123C216.58 88.7123 220.609 84.6826 220.609 79.7116C220.609 74.7407 216.58 70.7109 211.609 70.7109C206.639 70.7109 202.609 74.7407 202.609 79.7116C202.609 84.6826 206.639 88.7123 211.609 88.7123Z" fill="#CCCCCC"/>
</g>
<g id="form">
<text id="Enter Remote Gateway Information" fill="#101010" xml:space="preserve" style="white-space: pre" font-family="Poppins" font-size="18" font-weight="bold" letter-spacing="0em"><tspan x="282.376" y="199.3">Enter Remote Gateway Information</tspan></text>
<g id="Group 935">
<g id="Group 933">
<text id="Gateway IP" fill="#333333" xml:space="preserve" style="white-space: pre" font-family="Poppins" font-size="14" font-weight="600" letter-spacing="0em"><tspan x="249" y="241.9">Gateway IP</tspan></text>
<rect id="Rectangle 462" x="249" y="250" width="380" height="50" rx="10" fill="#CCCCCC"/>
</g>
<g id="Group 932">
<rect id="Rectangle 463" x="249" y="332" width="380" height="50" rx="10" fill="#CCCCCC"/>
<text id="Username" fill="#333333" xml:space="preserve" style="white-space: pre" font-family="Poppins" font-size="14" font-weight="600" letter-spacing="0em"><tspan x="249" y="323.9">Username</tspan></text>
</g>
<g id="Group 931">
<text id="Password" fill="#333333" xml:space="preserve" style="white-space: pre" font-family="Poppins" font-size="14" font-weight="600" letter-spacing="0em"><tspan x="249" y="405.9">Password</tspan></text>
<rect id="Rectangle 464" x="249" y="414" width="380" height="50" rx="10" fill="#CCCCCC"/>
</g>
<g id="Group 930">
<rect id="Rectangle 465" x="249" y="496" width="380" height="50" rx="10" fill="#CCCCCC"/>
<text id="API Path" fill="#333333" xml:space="preserve" style="white-space: pre" font-family="Poppins" font-size="14" font-weight="600" letter-spacing="0em"><tspan x="249" y="487.9">API Path</tspan></text>
</g>
<g id="Frame 7">
<rect x="249" y="599.629" width="380" height="49" rx="10" fill="#151779"/>
<text id="Install Gateway" fill="#F5F5F5" xml:space="preserve" style="white-space: pre" font-family="Poppins" font-size="16" font-weight="600" letter-spacing="0em"><tspan x="375.75" y="629.729">Install Gateway</tspan></text>
<rect x="249" y="599.629" width="380" height="49" rx="10" stroke="#F5F5F5"/>
</g>
<g id="Group 934">
<text id="Install Locally" fill="#333333" xml:space="preserve" style="white-space: pre" font-family="Poppins" font-size="14" font-weight="600" letter-spacing="0em"><tspan x="279" y="571.955">Install Locally</tspan></text>
<path id="Rectangle_21" d="M252.79 559H263.139C264.591 559 265.769 560.177 265.769 561.63V572C265.769 573.453 264.591 574.63 263.139 574.63H252.79C251.338 574.63 250.16 573.453 250.16 572V561.63C250.16 560.177 251.338 559 252.79 559Z" fill="#CCCCCC" stroke="#151779" stroke-width="2"/>
</g>
</g>
</g>
</g>
</g>
<defs>
<filter id="filter0_d_741_6202" x="127" y="49" width="636" height="676" filterUnits="userSpaceOnUse" color-interpolation-filters="sRGB">
<feFlood flood-opacity="0" result="BackgroundImageFix"/>
<feColorMatrix in="SourceAlpha" type="matrix" values="0 0 0 0 0 0 0 0 0 0 0 0 0 0 0 0 0 0 127 0" result="hardAlpha"/>
<feOffset dy="7"/>
<feGaussianBlur stdDeviation="9"/>
<feColorMatrix type="matrix" values="0 0 0 0 0.0705882 0 0 0 0 0.0705882 0 0 0 0 0.0705882 0 0 0 0.157 0"/>
<feBlend mode="normal" in2="BackgroundImageFix" result="effect1_dropShadow_741_6202"/>
<feBlend mode="normal" in="SourceGraphic" in2="effect1_dropShadow_741_6202" result="shape"/>
</filter>
<clipPath id="clip0_741_6202">
<rect width="890" height="760" fill="white"/>
</clipPath>
</defs>
</svg>
