<svg viewBox="0 0 1920 1062" id="contactBG">
  <defs>
    <clipPath id="clip-path">
      <rect
        id="mask"
        width="1920"
        height="1062"
        transform="translate(-1281 -8568)"
        fill="none"
        stroke="#707070"
        stroke-width="7"
      />
    </clipPath>
  </defs>
  <g
    id="contact-bg"
    transform="translate(1281 8568)"
    clip-path="url(#clip-path)"
  >
    <g id="shape" transform="translate(-1303.299 -8592.152)">
      <rect
        id="Rectangle_452"
        width="1951.948"
        height="191.042"
        transform="translate(1.144 -17.551)"
        fill="#252939"
      />
      <path
        id="Path_743"
        d="M1877.7,384.473c199.678-21.225,368.684-175.462,428.219-249.928L62.456-70.6C55.56-71.235,24.54,159.076-44.373,1085.37c704.3-41.357,779.1-424.669,998.576-637.277S1628.1,411,1877.7,384.473Z"
        transform="translate(0.401 0.586)"
        fill="#27c1bc"
      />
      <path
        id="Path_744"
        d="M1799.738,354.395c191.423-22.824,354.085-181.27,411.485-257.64L62.538-99.729c-6.6-.6-37.41,234.715-107.8,1180.816,675.043-46.3,748.52-438.067,959.815-656.4S1560.451,382.926,1799.738,354.395Z"
        transform="translate(0.387 0.102)"
        fill="#139bbf"
      />
      <path
        id="Path_745"
        d="M1790.019,339.328c193.009-21.252,356.546-173.481,414.189-246.94L36.372-105.846c-6.664-.61-36.964,226.323-104.859,1138.937,680.706-41.959,753.533-419.683,965.932-629.5S1548.76,365.894,1790.019,339.328Z"
        fill="#252939"
      />
    </g>
  </g>
</svg>
