<svg xmlns="http://www.w3.org/2000/svg" xmlns:xlink="http://www.w3.org/1999/xlink" width="1231.63" height="867.83" viewBox="0 0 1231.63 867.83">
  <defs>
    <filter id="Rectangle_158" x="112.121" y="275.43" width="612.51" height="548.82" filterUnits="userSpaceOnUse">
      <feOffset dy="8" input="SourceAlpha"/>
      <feGaussianBlur stdDeviation="19" result="blur"/>
      <feFlood flood-opacity="0.078"/>
      <feComposite operator="in" in2="blur"/>
      <feComposite in="SourceGraphic"/>
    </filter>
    <filter id="Ellipse_67" x="512.13" y="679.13" width="188.7" height="188.7" filterUnits="userSpaceOnUse">
      <feOffset dy="7" input="SourceAlpha"/>
      <feGaussianBlur stdDeviation="16" result="blur-2"/>
      <feFlood flood-opacity="0.102"/>
      <feComposite operator="in" in2="blur-2"/>
      <feComposite in="SourceGraphic"/>
    </filter>
    <filter id="Ellipse_68" x="0" y="215.1" width="91.44" height="91.44" filterUnits="userSpaceOnUse">
      <feOffset input="SourceAlpha"/>
      <feGaussianBlur stdDeviation="12" result="blur-3"/>
      <feFlood flood-opacity="0.078"/>
      <feComposite operator="in" in2="blur-3"/>
      <feComposite in="SourceGraphic"/>
    </filter>
    <filter id="Ellipse_69" x="27.771" y="215.1" width="91.44" height="91.44" filterUnits="userSpaceOnUse">
      <feOffset input="SourceAlpha"/>
      <feGaussianBlur stdDeviation="12" result="blur-4"/>
      <feFlood flood-opacity="0.078"/>
      <feComposite operator="in" in2="blur-4"/>
      <feComposite in="SourceGraphic"/>
    </filter>
    <filter id="Ellipse_70" x="55.551" y="214.75" width="91.44" height="91.44" filterUnits="userSpaceOnUse">
      <feOffset input="SourceAlpha"/>
      <feGaussianBlur stdDeviation="12" result="blur-5"/>
      <feFlood flood-opacity="0.078"/>
      <feComposite operator="in" in2="blur-5"/>
      <feComposite in="SourceGraphic"/>
    </filter>
    <filter id="Ellipse_71" x="83.33" y="214.75" width="91.44" height="91.44" filterUnits="userSpaceOnUse">
      <feOffset input="SourceAlpha"/>
      <feGaussianBlur stdDeviation="12" result="blur-6"/>
      <feFlood flood-opacity="0.078"/>
      <feComposite operator="in" in2="blur-6"/>
      <feComposite in="SourceGraphic"/>
    </filter>
    <filter id="Ellipse_72" x="0" y="243.05" width="91.44" height="91.44" filterUnits="userSpaceOnUse">
      <feOffset input="SourceAlpha"/>
      <feGaussianBlur stdDeviation="12" result="blur-7"/>
      <feFlood flood-opacity="0.078"/>
      <feComposite operator="in" in2="blur-7"/>
      <feComposite in="SourceGraphic"/>
    </filter>
    <filter id="Ellipse_73" x="27.771" y="243.05" width="91.44" height="91.44" filterUnits="userSpaceOnUse">
      <feOffset input="SourceAlpha"/>
      <feGaussianBlur stdDeviation="12" result="blur-8"/>
      <feFlood flood-opacity="0.078"/>
      <feComposite operator="in" in2="blur-8"/>
      <feComposite in="SourceGraphic"/>
    </filter>
    <filter id="Ellipse_74" x="55.551" y="242.7" width="91.44" height="91.44" filterUnits="userSpaceOnUse">
      <feOffset input="SourceAlpha"/>
      <feGaussianBlur stdDeviation="12" result="blur-9"/>
      <feFlood flood-opacity="0.078"/>
      <feComposite operator="in" in2="blur-9"/>
      <feComposite in="SourceGraphic"/>
    </filter>
    <filter id="Ellipse_75" x="83.33" y="242.7" width="91.44" height="91.44" filterUnits="userSpaceOnUse">
      <feOffset input="SourceAlpha"/>
      <feGaussianBlur stdDeviation="12" result="blur-10"/>
      <feFlood flood-opacity="0.078"/>
      <feComposite operator="in" in2="blur-10"/>
      <feComposite in="SourceGraphic"/>
    </filter>
    <filter id="Ellipse_76" x="0" y="270.74" width="91.44" height="91.44" filterUnits="userSpaceOnUse">
      <feOffset input="SourceAlpha"/>
      <feGaussianBlur stdDeviation="12" result="blur-11"/>
      <feFlood flood-opacity="0.078"/>
      <feComposite operator="in" in2="blur-11"/>
      <feComposite in="SourceGraphic"/>
    </filter>
    <filter id="Ellipse_77" x="27.771" y="270.74" width="91.44" height="91.44" filterUnits="userSpaceOnUse">
      <feOffset input="SourceAlpha"/>
      <feGaussianBlur stdDeviation="12" result="blur-12"/>
      <feFlood flood-opacity="0.078"/>
      <feComposite operator="in" in2="blur-12"/>
      <feComposite in="SourceGraphic"/>
    </filter>
    <filter id="Ellipse_78" x="55.551" y="270.39" width="91.44" height="91.44" filterUnits="userSpaceOnUse">
      <feOffset input="SourceAlpha"/>
      <feGaussianBlur stdDeviation="12" result="blur-13"/>
      <feFlood flood-opacity="0.078"/>
      <feComposite operator="in" in2="blur-13"/>
      <feComposite in="SourceGraphic"/>
    </filter>
    <filter id="Ellipse_79" x="83.33" y="270.39" width="91.44" height="91.44" filterUnits="userSpaceOnUse">
      <feOffset input="SourceAlpha"/>
      <feGaussianBlur stdDeviation="12" result="blur-14"/>
      <feFlood flood-opacity="0.078"/>
      <feComposite operator="in" in2="blur-14"/>
      <feComposite in="SourceGraphic"/>
    </filter>
    <filter id="Ellipse_80" x="0" y="298.69" width="91.44" height="91.44" filterUnits="userSpaceOnUse">
      <feOffset input="SourceAlpha"/>
      <feGaussianBlur stdDeviation="12" result="blur-15"/>
      <feFlood flood-opacity="0.078"/>
      <feComposite operator="in" in2="blur-15"/>
      <feComposite in="SourceGraphic"/>
    </filter>
    <filter id="Ellipse_81" x="27.771" y="298.69" width="91.44" height="91.44" filterUnits="userSpaceOnUse">
      <feOffset input="SourceAlpha"/>
      <feGaussianBlur stdDeviation="12" result="blur-16"/>
      <feFlood flood-opacity="0.078"/>
      <feComposite operator="in" in2="blur-16"/>
      <feComposite in="SourceGraphic"/>
    </filter>
    <filter id="Ellipse_82" x="55.551" y="298.34" width="91.44" height="91.44" filterUnits="userSpaceOnUse">
      <feOffset input="SourceAlpha"/>
      <feGaussianBlur stdDeviation="12" result="blur-17"/>
      <feFlood flood-opacity="0.078"/>
      <feComposite operator="in" in2="blur-17"/>
      <feComposite in="SourceGraphic"/>
    </filter>
    <filter id="Ellipse_83" x="83.33" y="298.34" width="91.44" height="91.44" filterUnits="userSpaceOnUse">
      <feOffset input="SourceAlpha"/>
      <feGaussianBlur stdDeviation="12" result="blur-18"/>
      <feFlood flood-opacity="0.078"/>
      <feComposite operator="in" in2="blur-18"/>
      <feComposite in="SourceGraphic"/>
    </filter>
    <filter id="Ellipse_84" x="1021.811" y="337.29" width="209.82" height="209.82" filterUnits="userSpaceOnUse">
      <feOffset dy="9" input="SourceAlpha"/>
      <feGaussianBlur stdDeviation="9.5" result="blur-19"/>
      <feFlood flood-opacity="0.102"/>
      <feComposite operator="in" in2="blur-19"/>
      <feComposite in="SourceGraphic"/>
    </filter>
    <filter id="Rectangle_166" x="705.3" y="533.13" width="490" height="302" filterUnits="userSpaceOnUse">
      <feOffset dy="15" input="SourceAlpha"/>
      <feGaussianBlur stdDeviation="17" result="blur-20"/>
      <feFlood flood-opacity="0.051"/>
      <feComposite operator="in" in2="blur-20"/>
      <feComposite in="SourceGraphic"/>
    </filter>
    <filter id="Rectangle_163" x="108.67" y="0" width="363.06" height="330.25" filterUnits="userSpaceOnUse">
      <feOffset dy="-7" input="SourceAlpha"/>
      <feGaussianBlur stdDeviation="14.5" result="blur-21"/>
      <feFlood flood-opacity="0.102"/>
      <feComposite operator="in" in2="blur-21"/>
      <feComposite in="SourceGraphic"/>
    </filter>
    <filter id="Rectangle_171" x="398.23" y="265.75" width="382" height="372.36" filterUnits="userSpaceOnUse">
      <feOffset dy="24" input="SourceAlpha"/>
      <feGaussianBlur stdDeviation="19" result="blur-22"/>
      <feFlood flood-opacity="0.122"/>
      <feComposite operator="in" in2="blur-22"/>
      <feComposite in="SourceGraphic"/>
    </filter>
    <filter id="Rectangle_169" x="774.23" y="45.75" width="328" height="396" filterUnits="userSpaceOnUse">
      <feOffset dy="-9" input="SourceAlpha"/>
      <feGaussianBlur stdDeviation="9" result="blur-23"/>
      <feFlood flood-opacity="0.051"/>
      <feComposite operator="in" in2="blur-23"/>
      <feComposite in="SourceGraphic"/>
    </filter>
    <filter id="Rectangle_161" x="59.49" y="493.25" width="392.24" height="305.79" filterUnits="userSpaceOnUse">
      <feOffset dy="19" input="SourceAlpha"/>
      <feGaussianBlur stdDeviation="9.5" result="blur-24"/>
      <feFlood flood-opacity="0.051"/>
      <feComposite operator="in" in2="blur-24"/>
      <feComposite in="SourceGraphic"/>
    </filter>
  </defs>
  <g id="Efficient" transform="translate(-24.77 -10.25)">
    <rect id="Rectangle_156" data-name="Rectangle 156" width="623" height="544.14" rx="20" transform="translate(517 120.43)" fill="#f15a24"/>
    <g transform="matrix(1, 0, 0, 1, 24.77, 10.25)" filter="url(#Rectangle_158)">
      <rect id="Rectangle_158-2" data-name="Rectangle 158" width="498.51" height="434.82" rx="20" transform="translate(169.12 324.43)" fill="#eaf1f8"/>
    </g>
    <g transform="matrix(1, 0, 0, 1, 24.77, 10.25)" filter="url(#Ellipse_67)">
      <circle id="Ellipse_67-2" data-name="Ellipse 67" cx="46.35" cy="46.35" r="46.35" transform="translate(560.13 720.13)" fill="#3399fe"/>
    </g>
    <path id="Path_60" data-name="Path 60" d="M608.08,675.81V561.51s-3.65-21.19,37.73-21.19H817.4" transform="translate(-327 -94)" fill="none" stroke="#ccc" stroke-linecap="round" stroke-miterlimit="10" stroke-width="5" stroke-dasharray="12 16"/>
    <path id="Path_61" data-name="Path 61" d="M780,281.05H891.36S912,278.7,912,305.38V416" transform="translate(-327 -94)" fill="none" stroke="#ccc" stroke-linecap="round" stroke-miterlimit="10" stroke-width="5" stroke-dasharray="12 16"/>
    <g id="circles">
      <g transform="matrix(1, 0, 0, 1, 24.77, 10.25)" filter="url(#Ellipse_68)">
        <circle id="Ellipse_68-2" data-name="Ellipse 68" cx="9.72" cy="9.72" r="9.72" transform="translate(36 251.1)" fill="#3399fe"/>
      </g>
      <g transform="matrix(1, 0, 0, 1, 24.77, 10.25)" filter="url(#Ellipse_69)">
        <circle id="Ellipse_69-2" data-name="Ellipse 69" cx="9.72" cy="9.72" r="9.72" transform="translate(63.77 251.1)" fill="#3399fe"/>
      </g>
      <g transform="matrix(1, 0, 0, 1, 24.77, 10.25)" filter="url(#Ellipse_70)">
        <circle id="Ellipse_70-2" data-name="Ellipse 70" cx="9.72" cy="9.72" r="9.72" transform="translate(91.55 250.75)" fill="#3399fe"/>
      </g>
      <g transform="matrix(1, 0, 0, 1, 24.77, 10.25)" filter="url(#Ellipse_71)">
        <circle id="Ellipse_71-2" data-name="Ellipse 71" cx="9.72" cy="9.72" r="9.72" transform="translate(119.33 250.75)" fill="#3399fe"/>
      </g>
      <g transform="matrix(1, 0, 0, 1, 24.77, 10.25)" filter="url(#Ellipse_72)">
        <circle id="Ellipse_72-2" data-name="Ellipse 72" cx="9.72" cy="9.72" r="9.72" transform="translate(36 279.05)" fill="#3399fe"/>
      </g>
      <g transform="matrix(1, 0, 0, 1, 24.77, 10.25)" filter="url(#Ellipse_73)">
        <circle id="Ellipse_73-2" data-name="Ellipse 73" cx="9.72" cy="9.72" r="9.72" transform="translate(63.77 279.05)" fill="#3399fe"/>
      </g>
      <g transform="matrix(1, 0, 0, 1, 24.77, 10.25)" filter="url(#Ellipse_74)">
        <circle id="Ellipse_74-2" data-name="Ellipse 74" cx="9.72" cy="9.72" r="9.72" transform="translate(91.55 278.7)" fill="#3399fe"/>
      </g>
      <g transform="matrix(1, 0, 0, 1, 24.77, 10.25)" filter="url(#Ellipse_75)">
        <circle id="Ellipse_75-2" data-name="Ellipse 75" cx="9.72" cy="9.72" r="9.72" transform="translate(119.33 278.7)" fill="#3399fe"/>
      </g>
      <g transform="matrix(1, 0, 0, 1, 24.77, 10.25)" filter="url(#Ellipse_76)">
        <circle id="Ellipse_76-2" data-name="Ellipse 76" cx="9.72" cy="9.72" r="9.72" transform="translate(36 306.74)" fill="#3399fe"/>
      </g>
      <g transform="matrix(1, 0, 0, 1, 24.77, 10.25)" filter="url(#Ellipse_77)">
        <circle id="Ellipse_77-2" data-name="Ellipse 77" cx="9.72" cy="9.72" r="9.72" transform="translate(63.77 306.74)" fill="#3399fe"/>
      </g>
      <g transform="matrix(1, 0, 0, 1, 24.77, 10.25)" filter="url(#Ellipse_78)">
        <circle id="Ellipse_78-2" data-name="Ellipse 78" cx="9.72" cy="9.72" r="9.72" transform="translate(91.55 306.39)" fill="#3399fe"/>
      </g>
      <g transform="matrix(1, 0, 0, 1, 24.77, 10.25)" filter="url(#Ellipse_79)">
        <circle id="Ellipse_79-2" data-name="Ellipse 79" cx="9.72" cy="9.72" r="9.72" transform="translate(119.33 306.39)" fill="#3399fe"/>
      </g>
      <g transform="matrix(1, 0, 0, 1, 24.77, 10.25)" filter="url(#Ellipse_80)">
        <circle id="Ellipse_80-2" data-name="Ellipse 80" cx="9.72" cy="9.72" r="9.72" transform="translate(36 334.69)" fill="#3399fe"/>
      </g>
      <g transform="matrix(1, 0, 0, 1, 24.77, 10.25)" filter="url(#Ellipse_81)">
        <circle id="Ellipse_81-2" data-name="Ellipse 81" cx="9.72" cy="9.72" r="9.72" transform="translate(63.77 334.69)" fill="#3399fe"/>
      </g>
      <g transform="matrix(1, 0, 0, 1, 24.77, 10.25)" filter="url(#Ellipse_82)">
        <circle id="Ellipse_82-2" data-name="Ellipse 82" cx="9.72" cy="9.72" r="9.72" transform="translate(91.55 334.34)" fill="#3399fe"/>
      </g>
      <g transform="matrix(1, 0, 0, 1, 24.77, 10.25)" filter="url(#Ellipse_83)">
        <circle id="Ellipse_83-2" data-name="Ellipse 83" cx="9.72" cy="9.72" r="9.72" transform="translate(119.33 334.34)" fill="#3399fe"/>
      </g>
    </g>
    <path id="Path_62" data-name="Path 62" d="M1108,784H967.42s-26.06,2-26.06-21.3V666" transform="translate(-327 -94)" fill="none" stroke="#ccc" stroke-linecap="round" stroke-miterlimit="10" stroke-width="5" stroke-dasharray="12 16"/>
    <path id="Path_63" data-name="Path 63" d="M976.07,436V344.07S973,327,1007.36,327H1149.7" transform="translate(-327 -94)" fill="none" stroke="#ccc" stroke-linecap="round" stroke-miterlimit="10" stroke-width="5" stroke-dasharray="12 16"/>
    <g transform="matrix(1, 0, 0, 1, 24.77, 10.25)" filter="url(#Ellipse_84)">
      <circle id="Ellipse_84-2" data-name="Ellipse 84" cx="76.41" cy="76.41" r="76.41" transform="translate(1050.31 356.79)" fill="#252939"/>
    </g>
    <g id="clouds">
      <g transform="matrix(1, 0, 0, 1, 24.77, 10.25)" filter="url(#Rectangle_166)">
        <rect id="Rectangle_166-2" data-name="Rectangle 166" width="388" height="200" rx="20" transform="translate(756.3 569.13)" fill="#fff"/>
      </g>
      <path id="Path_64" data-name="Path 64" d="M1387.29,834.14c20.77,0,37.61-16.46,37.61-36.76s-16.84-36.77-37.61-36.77c-1.15,0-2.27.06-3.39.16a15.636,15.636,0,0,0,1.35-6.37,16.29,16.29,0,0,0-16.47-16.1,16.727,16.727,0,0,0-8.127,2.108,48.14,48.14,0,0,0-44.593-29.328c-26.59,0-48.14,21.06-48.14,47v.79h-1.54c-21.52,0-39,17-39,38.09s17.45,38.25,39,38.09ZM1350.2,791.3" transform="translate(-327 -94)" fill="#252939"/>
      <path id="Path_65" data-name="Path 65" d="M1326.69,836.14c20.77,0,37.61-16.46,37.61-36.76s-16.84-36.77-37.61-36.77c-1.14,0-2.27.06-3.39.16a15.638,15.638,0,0,0,1.35-6.37,16.28,16.28,0,0,0-16.46-16.1,16.74,16.74,0,0,0-8.14,2.11,48.14,48.14,0,0,0-44.59-29.33c-26.59,0-48.14,21.06-48.14,47v.79h-1.54c-21.52,0-39,17-39,38.09s17.45,38.25,39,38.09ZM1289.6,793.3" transform="translate(-327 -94)" fill="#eaf1f8"/>
    </g>
    <g id="gears">
      <g transform="matrix(1, 0, 0, 1, 24.77, 10.25)" filter="url(#Rectangle_163)">
        <rect id="Rectangle_163-2" data-name="Rectangle 163" width="276.06" height="243.25" rx="20" transform="translate(152.17 50.5)" fill="#fff"/>
      </g>
      <circle id="Ellipse_85" data-name="Ellipse 85" cx="50.36" cy="50.36" r="50.36" transform="translate(224.79 148.99)" fill="#252939" stroke="#252939" stroke-miterlimit="10" stroke-width="1"/>
      <rect id="Rectangle_172" data-name="Rectangle 172" width="20.49" height="13.66" rx="2" transform="translate(315.27 191.66)" fill="#252939"/>
      <rect id="Rectangle_173" data-name="Rectangle 173" width="20.49" height="13.66" rx="2" transform="translate(315.27 191.66)" fill="none" stroke="#252939" stroke-linejoin="round" stroke-width="2"/>
      <rect id="Rectangle_174" data-name="Rectangle 174" width="13.66" height="20.49" rx="2" transform="translate(267.47 138.74)" fill="#252939"/>
      <rect id="Rectangle_175" data-name="Rectangle 175" width="13.66" height="20.49" rx="2" transform="translate(267.47 138.74)" fill="none" stroke="#252939" stroke-linejoin="round" stroke-width="2"/>
      <rect id="Rectangle_176" data-name="Rectangle 176" width="13.66" height="20.49" rx="2" transform="translate(269.18 237.05)" fill="#252939"/>
      <rect id="Rectangle_177" data-name="Rectangle 177" width="13.66" height="20.49" rx="2" transform="translate(269.18 237.05)" fill="none" stroke="#252939" stroke-linejoin="round" stroke-width="2"/>
      <rect id="Rectangle_178" data-name="Rectangle 178" width="20.49" height="13.66" rx="2" transform="translate(216.25 191.66)" fill="#252939"/>
      <rect id="Rectangle_179" data-name="Rectangle 179" width="20.49" height="13.66" rx="2" transform="translate(216.25 191.66)" fill="none" stroke="#252939" stroke-linejoin="round" stroke-width="2"/>
      <rect id="Rectangle_180" data-name="Rectangle 180" width="20.49" height="13.66" rx="2" transform="translate(298.087 165.049) rotate(-45)" fill="#252939"/>
      <rect id="Rectangle_181" data-name="Rectangle 181" width="20.49" height="13.66" rx="2" transform="translate(298.087 165.049) rotate(-45)" fill="none" stroke="#252939" stroke-linejoin="round" stroke-width="2"/>
      <rect id="Rectangle_182" data-name="Rectangle 182" width="20.49" height="13.66" rx="2" transform="translate(226.512 235.239) rotate(-45)" fill="#252939"/>
      <rect id="Rectangle_183" data-name="Rectangle 183" width="20.49" height="13.66" rx="2" transform="translate(226.512 235.239) rotate(-45)" fill="none" stroke="#252939" stroke-linejoin="round" stroke-width="2"/>
      <rect id="Rectangle_184" data-name="Rectangle 184" width="13.66" height="20.49" rx="2" transform="translate(226.513 162.128) rotate(-45)" fill="#252939"/>
      <rect id="Rectangle_185" data-name="Rectangle 185" width="13.66" height="20.49" rx="2" transform="translate(226.513 162.128) rotate(-45)" fill="none" stroke="#252939" stroke-linejoin="round" stroke-width="2"/>
      <rect id="Rectangle_186" data-name="Rectangle 186" width="13.66" height="20.49" rx="2" transform="translate(296.512 232.121) rotate(-45)" fill="#252939"/>
      <rect id="Rectangle_187" data-name="Rectangle 187" width="13.66" height="20.49" rx="2" transform="translate(296.512 232.121) rotate(-45)" fill="none" stroke="#252939" stroke-linejoin="round" stroke-width="2"/>
      <circle id="Ellipse_86" data-name="Ellipse 86" cx="24.75" cy="24.75" r="24.75" transform="translate(250.75 175.09)" fill="#fff"/>
      <circle id="Ellipse_87" data-name="Ellipse 87" cx="34.75" cy="34.75" r="34.75" transform="translate(325.83 111.62)" fill="#252939" stroke="#252939" stroke-miterlimit="10" stroke-width="1"/>
      <rect id="Rectangle_188" data-name="Rectangle 188" width="9.42" height="14.14" rx="1" transform="translate(387.95 152.371) rotate(-86.12)" fill="#252939"/>
      <rect id="Rectangle_189" data-name="Rectangle 189" width="9.42" height="14.14" rx="1" transform="translate(387.95 152.371) rotate(-86.12)" fill="none" stroke="#252939" stroke-linejoin="round" stroke-width="2"/>
      <rect id="Rectangle_190" data-name="Rectangle 190" width="14.14" height="9.42" rx="1" transform="translate(357.189 118.401) rotate(-86.12)" fill="#252939"/>
      <rect id="Rectangle_191" data-name="Rectangle 191" width="14.14" height="9.42" rx="1" transform="translate(357.189 118.401) rotate(-86.12)" fill="none" stroke="#252939" stroke-linejoin="round" stroke-width="2"/>
      <rect id="Rectangle_192" data-name="Rectangle 192" width="14.14" height="9.42" rx="1" transform="translate(353.815 186.489) rotate(-86.12)" fill="#252939"/>
      <rect id="Rectangle_193" data-name="Rectangle 193" width="14.14" height="9.42" rx="1" transform="translate(353.815 186.489) rotate(-86.12)" fill="none" stroke="#252939" stroke-linejoin="round" stroke-width="2"/>
      <rect id="Rectangle_194" data-name="Rectangle 194" width="9.42" height="14.14" rx="1" transform="translate(319.777 147.751) rotate(-86.12)" fill="#252939"/>
      <rect id="Rectangle_195" data-name="Rectangle 195" width="9.42" height="14.14" rx="1" transform="translate(319.777 147.751) rotate(-86.12)" fill="none" stroke="#252939" stroke-linejoin="round" stroke-width="2"/>
      <rect id="Rectangle_196" data-name="Rectangle 196" width="14.14" height="9.42" rx="1" transform="translate(377.975 123.857) rotate(-41.12)" fill="#252939"/>
      <rect id="Rectangle_197" data-name="Rectangle 197" width="14.14" height="9.42" rx="1" transform="translate(377.975 123.857) rotate(-41.12)" fill="none" stroke="#252939" stroke-linejoin="round" stroke-width="2"/>
      <rect id="Rectangle_198" data-name="Rectangle 198" width="14.14" height="9.42" rx="1" transform="translate(325.425 168.848) rotate(-41.12)" fill="#252939"/>
      <rect id="Rectangle_199" data-name="Rectangle 199" width="14.14" height="9.42" rx="1" transform="translate(325.425 168.848) rotate(-41.12)" fill="none" stroke="#252939" stroke-linejoin="round" stroke-width="2"/>
      <rect id="Rectangle_200" data-name="Rectangle 200" width="9.42" height="14.14" rx="1" transform="translate(328.84 118.503) rotate(-41.12)" fill="#252939"/>
      <rect id="Rectangle_201" data-name="Rectangle 201" width="9.42" height="14.14" rx="1" transform="translate(328.84 118.503) rotate(-41.12)" fill="none" stroke="#252939" stroke-linejoin="round" stroke-width="2"/>
      <rect id="Rectangle_202" data-name="Rectangle 202" width="9.42" height="14.14" rx="1" transform="translate(373.755 169.96) rotate(-41.12)" fill="#252939"/>
      <rect id="Rectangle_203" data-name="Rectangle 203" width="9.42" height="14.14" rx="1" transform="translate(373.755 169.96) rotate(-41.12)" fill="none" stroke="#252939" stroke-linejoin="round" stroke-width="2"/>
      <circle id="Ellipse_88" data-name="Ellipse 88" cx="17.07" cy="17.07" r="17.07" transform="translate(343.4 129.84)" fill="#fff"/>
    </g>
    <g id="database">
      <g transform="matrix(1, 0, 0, 1, 24.77, 10.25)" filter="url(#Rectangle_171)">
        <rect id="Rectangle_171-2" data-name="Rectangle 171" width="268" height="258.36" rx="20" transform="translate(455.23 298.75)" fill="#fff"/>
      </g>
      <rect id="Rectangle_204" data-name="Rectangle 204" width="152.52" height="47.55" rx="6" transform="translate(538.09 361.1)" fill="#252939"/>
      <rect id="Rectangle_205" data-name="Rectangle 205" width="152.52" height="47.55" rx="6" transform="translate(538.06 417.19)" fill="#252939"/>
      <rect id="Rectangle_206" data-name="Rectangle 206" width="152.52" height="47.55" rx="6" transform="translate(538.06 473.45)" fill="#252939"/>
      <circle id="Ellipse_89" data-name="Ellipse 89" cx="11.18" cy="11.18" r="11.18" transform="translate(547.58 374.09)" fill="#fff"/>
      <circle id="Ellipse_90" data-name="Ellipse 90" cx="11.18" cy="11.18" r="11.18" transform="translate(547.58 429.47)" fill="#fff"/>
      <circle id="Ellipse_91" data-name="Ellipse 91" cx="11.18" cy="11.18" r="11.18" transform="translate(547.58 486.94)" fill="#fff"/>
    </g>
    <g id="lock">
      <g transform="matrix(1, 0, 0, 1, 24.77, 10.25)" filter="url(#Rectangle_169)">
        <rect id="Rectangle_169-2" data-name="Rectangle 169" width="274" height="342" rx="20" transform="translate(801.23 81.75)" fill="#fff"/>
      </g>
      <path id="Path_66" data-name="Path 66" d="M1324.92,285.89v.24c-2.27-.21-4.55-.24-6.83-.23h-10.14c-.07-7.16.3-14.32-.16-21.47-.64-10.06-9.38-18-19.6-18s-19.08,7.94-19.72,18c-.46,7.15-.09,14.31-.17,21.47-5.65.23-11.32-.2-17,.28v-.24c.06-7.25-.19-14.5.15-21.75a35.4,35.4,0,0,1,8.27-21.33A36.289,36.289,0,0,1,1281.39,230a9.33,9.33,0,0,0,3-.64h7.42c1.63.68,3.42.61,5.09,1.09q21.24,6,27,27.29a34.686,34.686,0,0,1,1,8.79C1325,273,1324.93,279.43,1324.92,285.89Z" transform="translate(-327 -94)" fill="#252939"/>
      <path id="Path_67" data-name="Path 67" d="M1324.92,285.89h-2.73c-3.84,0-7.68,0-11.52-.06-.09-8.13.33-16.28-.19-24.41-.73-11.43-10.67-20.47-22.27-20.52s-21.7,9-22.43,20.52c-.52,8.13-.1,16.28-.19,24.41-4.75.19-9.5,0-14.26.08.06-7.25-.19-14.5.15-21.75a35.4,35.4,0,0,1,8.27-21.33A36.29,36.29,0,0,1,1281.39,230a9.33,9.33,0,0,0,3-.64h7.42c1.63.68,3.42.61,5.09,1.09q21.24,6,27,27.29a34.686,34.686,0,0,1,1,8.79C1325,273,1324.93,279.43,1324.92,285.89Z" transform="translate(-327 -94)" fill="#bdc4c6"/>
      <path id="Path_68" data-name="Path 68" d="M1308.91,282.84c3.54,0,7.09.06,10.63.05a68.431,68.431,0,0,1,7.16.25,15.9,15.9,0,0,1,8.8,5.69,13.281,13.281,0,0,1,3,7.92c.1,5.89.06,11.77.07,17.66V350.7c0,7.4-4.46,13.17-11.37,14.87a16.07,16.07,0,0,1-3.85.43H1253c-8.72,0-15.18-6.32-15.21-15q-.09-26.55,0-53.1c0-7.14,4.4-12.64,11.31-14.51a5.445,5.445,0,0,0,.5-.22c5.92-.51,11.86-.06,17.79-.3.6,0,1.2.06,1.8.06h37.55C1307.43,282.9,1308.17,282.87,1308.91,282.84Z" transform="translate(-327 -94)" fill="#252939"/>
      <path id="Path_69" data-name="Path 69" d="M1288,341.21h-3.58a2,2,0,0,1-2.17-2.51c.45-3.14.91-6.29,1.39-9.42a1.13,1.13,0,0,0-.62-1.33,9.774,9.774,0,1,1,10.22-.05,1.21,1.21,0,0,0-.67,1.46c.5,3.11.93,6.22,1.36,9.34a2,2,0,0,1-2.17,2.51C1290.55,341.23,1289.3,341.21,1288,341.21Z" transform="translate(-327 -94)" fill="#fff"/>
      <rect id="Rectangle_214" data-name="Rectangle 214" width="149" height="15.38" rx="6" transform="translate(887 317)" fill="#b3b3b3"/>
      <rect id="Rectangle_215" data-name="Rectangle 215" width="63" height="15.38" rx="6" transform="translate(931 372.63)" fill="#b3b3b3"/>
      <circle id="Ellipse_92" data-name="Ellipse 92" cx="8.61" cy="8.61" r="8.61" transform="translate(899.7 343.37)" fill="#27c1bc"/>
      <circle id="Ellipse_93" data-name="Ellipse 93" cx="8.61" cy="8.61" r="8.61" transform="translate(925.7 343.37)" fill="#27c1bc"/>
      <circle id="Ellipse_94" data-name="Ellipse 94" cx="8.61" cy="8.61" r="8.61" transform="translate(952.7 343.37)" fill="#27c1bc"/>
      <circle id="Ellipse_95" data-name="Ellipse 95" cx="8.61" cy="8.61" r="8.61" transform="translate(979.7 343.37)" fill="#27c1bc"/>
      <circle id="Ellipse_96" data-name="Ellipse 96" cx="8.61" cy="8.61" r="8.61" transform="translate(1005.7 343.37)" fill="#27c1bc"/>
    </g>
    <g id="battery">
      <g transform="matrix(1, 0, 0, 1, 24.77, 10.25)" filter="url(#Rectangle_161)">
        <rect id="Rectangle_161-2" data-name="Rectangle 161" width="335.24" height="248.79" rx="20" transform="translate(87.99 502.75)" fill="#fff"/>
      </g>
      <g id="Group_18" data-name="Group 18">
        <g id="Group_17" data-name="Group 17">
          <rect id="Rectangle_207" data-name="Rectangle 207" width="15.19" height="39.36" rx="4" transform="translate(363.81 590.64)" fill="#252939"/>
          <rect id="Rectangle_208" data-name="Rectangle 208" width="179.35" height="88.32" rx="8" transform="translate(186.06 566.68)" fill="none" stroke="#252939" stroke-miterlimit="10" stroke-width="10"/>
          <rect id="Rectangle_209" data-name="Rectangle 209" width="24.3" height="70" rx="4" transform="translate(195.2 576)" fill="#27c1bc"/>
          <rect id="Rectangle_210" data-name="Rectangle 210" width="24.3" height="70" rx="4" transform="translate(225.03 576)" fill="#27c1bc"/>
          <rect id="Rectangle_211" data-name="Rectangle 211" width="24.3" height="70" rx="4" transform="translate(254.86 576)" fill="#27c1bc"/>
          <rect id="Rectangle_212" data-name="Rectangle 212" width="24.3" height="70" rx="4" transform="translate(284.7 576)" fill="#27c1bc"/>
          <rect id="Rectangle_213" data-name="Rectangle 213" width="24.3" height="70" rx="4" transform="translate(314.7 576)" fill="#27c1bc"/>
        </g>
        <path id="Path_70" data-name="Path 70" d="M662.49,810.7a6,6,0,0,1-6,6h-137a6,6,0,0,1-6-6h0a6,6,0,0,1,6-6h137A6,6,0,0,1,662.49,810.7Z" transform="translate(-327 -94)" fill="#b3b3b3"/>
        <path id="Path_71" data-name="Path 71" d="M588,789.7a6,6,0,0,1-6,6H519.5a6,6,0,0,1-6-6h0a6,6,0,0,1,6-6H582A6,6,0,0,1,588,789.7Z" transform="translate(-327 -94)" fill="#f15a24"/>
      </g>
    </g>
  </g>
</svg>
