<svg
  viewBox="0 0 1920 801"
  id="pricingBG"
>
  <defs>
    <clipPath id="clip-path">
      <rect
        id="Rectangle_451"
        data-name="Rectangle 451"
        width="1920"
        height="801"
        transform="translate(-1198 -6814)"
        fill="none"
        stroke="#707070"
        stroke-width="22"
      />
    </clipPath>
  </defs>
  <g
    id="pricing-bg"
    transform="translate(1198 6814)"
    clip-path="url(#clip-path)"
  >
    <g
      id="pricing-bg-2"
      transform="translate(-1168.101 -6821.08)"
    >
      <path
        id="Path_740"
        d="M183.9,633.3C-5.773,648.823-169.663,773.711-227.9,834.214L1892.15,1023.65c6.52.58,41.59-188,129.72-946.967-668.16,27.263-748.48,340.893-961.62,513.173S420.986,613.9,183.9,633.3Z"
        fill="#27c1bc"
      />
      <path
        id="Path_741"
        d="M241.782,643.338c-190.277,17.1-355.309,148.927-414.041,212.7L1952.56,1045.9c6.53.58,42.74-197.565,135.33-994.82-670.16,31.473-752.43,361.111-967.11,542.9S479.628,621.959,241.782,643.338Z"
        fill="#139bbf"
      />
      <path
        id="Path_742"
        d="M219.69,652.4C27.967,667.5-137.463,791.265-196.213,851.257L1947.55,1042.81c6.59.59,41.64-186.633,129.16-940.221-675.46,26-756,337.331-971.13,508.077S459.344,633.515,219.69,652.4Z"
        fill="#252939"
      />
    </g>
  </g>
</svg>
