<svg width="1920" height="915" viewBox="0 0 1920 915" fill="none" xmlns="http://www.w3.org/2000/svg">
<mask id="mask0_1212_2044" style="mask-type:alpha" maskUnits="userSpaceOnUse" x="0" y="0" width="1920" height="915">
<rect width="1920" height="915" fill="#C4C4C4"/>
</mask>
<g mask="url(#mask0_1212_2044)">
<path d="M183.898 727.978C-5.7725 745.818 -169.663 889.376 -227.899 958.925L1892.15 1176.68C1898.67 1177.35 1933.74 960.577 2021.87 88.1446C1353.71 119.483 1273.39 480.001 1060.25 678.036C847.106 876.07 420.986 705.679 183.898 727.978Z" fill="#27C1BC"/>
<path d="M241.782 739.514C51.5048 759.174 -113.527 910.706 -172.259 984.014L1952.56 1202.26C1959.09 1202.93 1995.3 975.158 2087.89 58.7153C1417.73 94.8932 1335.46 473.812 1120.78 682.783C906.097 891.754 479.628 714.939 241.782 739.514Z" fill="#139BBF"/>
<path d="M219.69 749.929C27.9668 767.293 -137.463 909.556 -196.213 978.517L1947.55 1198.7C1954.14 1199.38 1989.19 984.172 2076.71 117.924C1401.25 147.806 1320.71 505.686 1105.59 701.958C890.461 898.231 459.344 728.224 219.69 749.929Z" fill="#252939"/>
</g>
</svg>
