<svg xmlns="http://www.w3.org/2000/svg" xmlns:xlink="http://www.w3.org/1999/xlink" width="1333.45" height="986.9" viewBox="0 0 1333.45 986.9">
  <defs>
    <filter id="Rectangle_248" x="21.5" y="122.4" width="809.2" height="680.93" filterUnits="userSpaceOnUse">
      <feOffset dy="3" input="SourceAlpha"/>
      <feGaussianBlur stdDeviation="26" result="blur"/>
      <feFlood flood-opacity="0.078"/>
      <feComposite operator="in" in2="blur"/>
      <feComposite in="SourceGraphic"/>
    </filter>
    <filter id="Ellipse_126" x="22.7" y="302.76" width="158.7" height="158.7" filterUnits="userSpaceOnUse">
      <feOffset dy="13" input="SourceAlpha"/>
      <feGaussianBlur stdDeviation="11" result="blur-2"/>
      <feFlood flood-opacity="0.078"/>
      <feComposite operator="in" in2="blur-2"/>
      <feComposite in="SourceGraphic"/>
    </filter>
    <filter id="Ellipse_127" x="498.12" y="136.81" width="93.5" height="93.5" filterUnits="userSpaceOnUse">
      <feOffset input="SourceAlpha"/>
      <feGaussianBlur stdDeviation="12" result="blur-3"/>
      <feFlood flood-opacity="0.078"/>
      <feComposite operator="in" in2="blur-3"/>
      <feComposite in="SourceGraphic"/>
    </filter>
    <filter id="Ellipse_128" x="528.84" y="136.81" width="93.5" height="93.5" filterUnits="userSpaceOnUse">
      <feOffset input="SourceAlpha"/>
      <feGaussianBlur stdDeviation="12" result="blur-4"/>
      <feFlood flood-opacity="0.078"/>
      <feComposite operator="in" in2="blur-4"/>
      <feComposite in="SourceGraphic"/>
    </filter>
    <filter id="Ellipse_129" x="559.56" y="136.42" width="93.5" height="93.5" filterUnits="userSpaceOnUse">
      <feOffset input="SourceAlpha"/>
      <feGaussianBlur stdDeviation="12" result="blur-5"/>
      <feFlood flood-opacity="0.078"/>
      <feComposite operator="in" in2="blur-5"/>
      <feComposite in="SourceGraphic"/>
    </filter>
    <filter id="Ellipse_130" x="590.28" y="136.42" width="93.5" height="93.5" filterUnits="userSpaceOnUse">
      <feOffset input="SourceAlpha"/>
      <feGaussianBlur stdDeviation="12" result="blur-6"/>
      <feFlood flood-opacity="0.078"/>
      <feComposite operator="in" in2="blur-6"/>
      <feComposite in="SourceGraphic"/>
    </filter>
    <filter id="Ellipse_131" x="498.12" y="167.72" width="93.5" height="93.5" filterUnits="userSpaceOnUse">
      <feOffset input="SourceAlpha"/>
      <feGaussianBlur stdDeviation="12" result="blur-7"/>
      <feFlood flood-opacity="0.078"/>
      <feComposite operator="in" in2="blur-7"/>
      <feComposite in="SourceGraphic"/>
    </filter>
    <filter id="Ellipse_132" x="528.84" y="167.72" width="93.5" height="93.5" filterUnits="userSpaceOnUse">
      <feOffset input="SourceAlpha"/>
      <feGaussianBlur stdDeviation="12" result="blur-8"/>
      <feFlood flood-opacity="0.078"/>
      <feComposite operator="in" in2="blur-8"/>
      <feComposite in="SourceGraphic"/>
    </filter>
    <filter id="Ellipse_133" x="559.56" y="167.34" width="93.5" height="93.5" filterUnits="userSpaceOnUse">
      <feOffset input="SourceAlpha"/>
      <feGaussianBlur stdDeviation="12" result="blur-9"/>
      <feFlood flood-opacity="0.078"/>
      <feComposite operator="in" in2="blur-9"/>
      <feComposite in="SourceGraphic"/>
    </filter>
    <filter id="Ellipse_134" x="590.28" y="167.34" width="93.5" height="93.5" filterUnits="userSpaceOnUse">
      <feOffset input="SourceAlpha"/>
      <feGaussianBlur stdDeviation="12" result="blur-10"/>
      <feFlood flood-opacity="0.078"/>
      <feComposite operator="in" in2="blur-10"/>
      <feComposite in="SourceGraphic"/>
    </filter>
    <filter id="Ellipse_135" x="498.12" y="198.34" width="93.5" height="93.5" filterUnits="userSpaceOnUse">
      <feOffset input="SourceAlpha"/>
      <feGaussianBlur stdDeviation="12" result="blur-11"/>
      <feFlood flood-opacity="0.078"/>
      <feComposite operator="in" in2="blur-11"/>
      <feComposite in="SourceGraphic"/>
    </filter>
    <filter id="Ellipse_136" x="528.84" y="198.34" width="93.5" height="93.5" filterUnits="userSpaceOnUse">
      <feOffset input="SourceAlpha"/>
      <feGaussianBlur stdDeviation="12" result="blur-12"/>
      <feFlood flood-opacity="0.078"/>
      <feComposite operator="in" in2="blur-12"/>
      <feComposite in="SourceGraphic"/>
    </filter>
    <filter id="Ellipse_137" x="559.56" y="197.96" width="93.5" height="93.5" filterUnits="userSpaceOnUse">
      <feOffset input="SourceAlpha"/>
      <feGaussianBlur stdDeviation="12" result="blur-13"/>
      <feFlood flood-opacity="0.078"/>
      <feComposite operator="in" in2="blur-13"/>
      <feComposite in="SourceGraphic"/>
    </filter>
    <filter id="Ellipse_138" x="590.28" y="197.96" width="93.5" height="93.5" filterUnits="userSpaceOnUse">
      <feOffset input="SourceAlpha"/>
      <feGaussianBlur stdDeviation="12" result="blur-14"/>
      <feFlood flood-opacity="0.078"/>
      <feComposite operator="in" in2="blur-14"/>
      <feComposite in="SourceGraphic"/>
    </filter>
    <filter id="Ellipse_139" x="498.12" y="229.26" width="93.5" height="93.5" filterUnits="userSpaceOnUse">
      <feOffset input="SourceAlpha"/>
      <feGaussianBlur stdDeviation="12" result="blur-15"/>
      <feFlood flood-opacity="0.078"/>
      <feComposite operator="in" in2="blur-15"/>
      <feComposite in="SourceGraphic"/>
    </filter>
    <filter id="Ellipse_140" x="528.84" y="228.87" width="93.5" height="93.5" filterUnits="userSpaceOnUse">
      <feOffset input="SourceAlpha"/>
      <feGaussianBlur stdDeviation="12" result="blur-16"/>
      <feFlood flood-opacity="0.078"/>
      <feComposite operator="in" in2="blur-16"/>
      <feComposite in="SourceGraphic"/>
    </filter>
    <filter id="Ellipse_141" x="559.56" y="228.87" width="93.5" height="93.5" filterUnits="userSpaceOnUse">
      <feOffset input="SourceAlpha"/>
      <feGaussianBlur stdDeviation="12" result="blur-17"/>
      <feFlood flood-opacity="0.078"/>
      <feComposite operator="in" in2="blur-17"/>
      <feComposite in="SourceGraphic"/>
    </filter>
    <filter id="Ellipse_142" x="590.28" y="228.87" width="93.5" height="93.5" filterUnits="userSpaceOnUse">
      <feOffset input="SourceAlpha"/>
      <feGaussianBlur stdDeviation="12" result="blur-18"/>
      <feFlood flood-opacity="0.078"/>
      <feComposite operator="in" in2="blur-18"/>
      <feComposite in="SourceGraphic"/>
    </filter>
    <filter id="Rectangle_252" x="557.7" y="255.06" width="701.3" height="681.84" filterUnits="userSpaceOnUse">
      <feOffset dx="35" dy="3" input="SourceAlpha"/>
      <feGaussianBlur stdDeviation="35" result="blur-19"/>
      <feFlood flood-opacity="0.078"/>
      <feComposite operator="in" in2="blur-19"/>
      <feComposite in="SourceGraphic"/>
    </filter>
    <filter id="Ellipse_143" x="1000.7" y="356.16" width="184.7" height="184.7" filterUnits="userSpaceOnUse">
      <feOffset dx="7" dy="13" input="SourceAlpha"/>
      <feGaussianBlur stdDeviation="11" result="blur-20"/>
      <feFlood flood-opacity="0.078"/>
      <feComposite operator="in" in2="blur-20"/>
      <feComposite in="SourceGraphic"/>
    </filter>
    <filter id="Rectangle_255" x="0" y="531.9" width="574" height="455" filterUnits="userSpaceOnUse">
      <feOffset dy="14" input="SourceAlpha"/>
      <feGaussianBlur stdDeviation="42.5" result="blur-21"/>
      <feFlood flood-opacity="0.059"/>
      <feComposite operator="in" in2="blur-21"/>
      <feComposite in="SourceGraphic"/>
    </filter>
    <filter id="Ellipse_144" x="526.38" y="702.92" width="269.82" height="269.82" filterUnits="userSpaceOnUse">
      <feOffset dy="13" input="SourceAlpha"/>
      <feGaussianBlur stdDeviation="19.5" result="blur-22"/>
      <feFlood flood-opacity="0.078"/>
      <feComposite operator="in" in2="blur-22"/>
      <feComposite in="SourceGraphic"/>
    </filter>
    <filter id="Rectangle_260" x="395.2" y="338.91" width="428" height="391.33" filterUnits="userSpaceOnUse">
      <feOffset dy="22" input="SourceAlpha"/>
      <feGaussianBlur stdDeviation="23.5" result="blur-23"/>
      <feFlood flood-opacity="0.122"/>
      <feComposite operator="in" in2="blur-23"/>
      <feComposite in="SourceGraphic"/>
    </filter>
    <filter id="Rectangle_258" x="133.44" y="74.55" width="328.06" height="408.85" filterUnits="userSpaceOnUse">
      <feOffset input="SourceAlpha"/>
      <feGaussianBlur stdDeviation="13" result="blur-24"/>
      <feFlood flood-opacity="0.078"/>
      <feComposite operator="in" in2="blur-24"/>
      <feComposite in="SourceGraphic"/>
    </filter>
    <filter id="Rectangle_272" x="718.19" y="586.9" width="570.81" height="363" filterUnits="userSpaceOnUse">
      <feOffset dy="5" input="SourceAlpha"/>
      <feGaussianBlur stdDeviation="22.5" result="blur-25"/>
      <feFlood flood-opacity="0.059"/>
      <feComposite operator="in" in2="blur-25"/>
      <feComposite in="SourceGraphic"/>
    </filter>
    <filter id="Rectangle_266" x="651.25" y="0" width="682.2" height="579.9" filterUnits="userSpaceOnUse">
      <feOffset input="SourceAlpha"/>
      <feGaussianBlur stdDeviation="49.5" result="blur-26"/>
      <feFlood flood-opacity="0.078"/>
      <feComposite operator="in" in2="blur-26"/>
      <feComposite in="SourceGraphic"/>
    </filter>
  </defs>
  <g id="Streamlined" transform="translate(5.5 43.4)">
    <g transform="matrix(1, 0, 0, 1, -5.5, -43.4)" filter="url(#Rectangle_248)">
      <rect id="Rectangle_248-2" data-name="Rectangle 248" width="653.2" height="524.93" rx="20" transform="translate(99.5 197.4)" fill="#eaf1f8"/>
    </g>
    <g transform="matrix(1, 0, 0, 1, -5.5, -43.4)" filter="url(#Ellipse_126)">
      <circle id="Ellipse_126-2" data-name="Ellipse 126" cx="46.35" cy="46.35" r="46.35" transform="translate(55.7 322.76)" fill="#f15a24"/>
    </g>
    <path id="Path_86" data-name="Path 86" d="M901.61,661.3V761.44s4,18.56-41.29,18.56H672.53" transform="translate(-341 -74)" fill="none" stroke="#ccc" stroke-linecap="round" stroke-miterlimit="10" stroke-width="5" stroke-dasharray="12 16"/>
    <path id="Path_87" data-name="Path 87" d="M814.66,567H661.41S633,568.72,633,548.76V466" transform="translate(-341 -74)" fill="none" stroke="#ccc" stroke-linecap="round" stroke-miterlimit="10" stroke-width="5" stroke-dasharray="12 16"/>
    <g id="circles">
      <g transform="matrix(1, 0, 0, 1, -5.5, -43.4)" filter="url(#Ellipse_127)">
        <circle id="Ellipse_127-2" data-name="Ellipse 127" cx="10.75" cy="10.75" r="10.75" transform="translate(534.12 172.81)" fill="#3399fe"/>
      </g>
      <g transform="matrix(1, 0, 0, 1, -5.5, -43.4)" filter="url(#Ellipse_128)">
        <circle id="Ellipse_128-2" data-name="Ellipse 128" cx="10.75" cy="10.75" r="10.75" transform="translate(564.84 172.81)" fill="#3399fe"/>
      </g>
      <g transform="matrix(1, 0, 0, 1, -5.5, -43.4)" filter="url(#Ellipse_129)">
        <circle id="Ellipse_129-2" data-name="Ellipse 129" cx="10.75" cy="10.75" r="10.75" transform="translate(595.56 172.42)" fill="#3399fe"/>
      </g>
      <g transform="matrix(1, 0, 0, 1, -5.5, -43.4)" filter="url(#Ellipse_130)">
        <circle id="Ellipse_130-2" data-name="Ellipse 130" cx="10.75" cy="10.75" r="10.75" transform="translate(626.28 172.42)" fill="#3399fe"/>
      </g>
      <g transform="matrix(1, 0, 0, 1, -5.5, -43.4)" filter="url(#Ellipse_131)">
        <circle id="Ellipse_131-2" data-name="Ellipse 131" cx="10.75" cy="10.75" r="10.75" transform="translate(534.12 203.72)" fill="#3399fe"/>
      </g>
      <g transform="matrix(1, 0, 0, 1, -5.5, -43.4)" filter="url(#Ellipse_132)">
        <circle id="Ellipse_132-2" data-name="Ellipse 132" cx="10.75" cy="10.75" r="10.75" transform="translate(564.84 203.72)" fill="#3399fe"/>
      </g>
      <g transform="matrix(1, 0, 0, 1, -5.5, -43.4)" filter="url(#Ellipse_133)">
        <circle id="Ellipse_133-2" data-name="Ellipse 133" cx="10.75" cy="10.75" r="10.75" transform="translate(595.56 203.34)" fill="#3399fe"/>
      </g>
      <g transform="matrix(1, 0, 0, 1, -5.5, -43.4)" filter="url(#Ellipse_134)">
        <circle id="Ellipse_134-2" data-name="Ellipse 134" cx="10.75" cy="10.75" r="10.75" transform="translate(626.28 203.34)" fill="#3399fe"/>
      </g>
      <g transform="matrix(1, 0, 0, 1, -5.5, -43.4)" filter="url(#Ellipse_135)">
        <circle id="Ellipse_135-2" data-name="Ellipse 135" cx="10.75" cy="10.75" r="10.75" transform="translate(534.12 234.34)" fill="#3399fe"/>
      </g>
      <g transform="matrix(1, 0, 0, 1, -5.5, -43.4)" filter="url(#Ellipse_136)">
        <circle id="Ellipse_136-2" data-name="Ellipse 136" cx="10.75" cy="10.75" r="10.75" transform="translate(564.84 234.34)" fill="#3399fe"/>
      </g>
      <g transform="matrix(1, 0, 0, 1, -5.5, -43.4)" filter="url(#Ellipse_137)">
        <circle id="Ellipse_137-2" data-name="Ellipse 137" cx="10.75" cy="10.75" r="10.75" transform="translate(595.56 233.96)" fill="#3399fe"/>
      </g>
      <g transform="matrix(1, 0, 0, 1, -5.5, -43.4)" filter="url(#Ellipse_138)">
        <circle id="Ellipse_138-2" data-name="Ellipse 138" cx="10.75" cy="10.75" r="10.75" transform="translate(626.28 233.96)" fill="#3399fe"/>
      </g>
      <g transform="matrix(1, 0, 0, 1, -5.5, -43.4)" filter="url(#Ellipse_139)">
        <circle id="Ellipse_139-2" data-name="Ellipse 139" cx="10.75" cy="10.75" r="10.75" transform="translate(534.12 265.26)" fill="#3399fe"/>
      </g>
      <g transform="matrix(1, 0, 0, 1, -5.5, -43.4)" filter="url(#Ellipse_140)">
        <circle id="Ellipse_140-2" data-name="Ellipse 140" cx="10.75" cy="10.75" r="10.75" transform="translate(564.84 264.87)" fill="#3399fe"/>
      </g>
      <g transform="matrix(1, 0, 0, 1, -5.5, -43.4)" filter="url(#Ellipse_141)">
        <circle id="Ellipse_141-2" data-name="Ellipse 141" cx="10.75" cy="10.75" r="10.75" transform="translate(595.56 264.87)" fill="#3399fe"/>
      </g>
      <g transform="matrix(1, 0, 0, 1, -5.5, -43.4)" filter="url(#Ellipse_142)">
        <circle id="Ellipse_142-2" data-name="Ellipse 142" cx="10.75" cy="10.75" r="10.75" transform="translate(626.28 264.87)" fill="#3399fe"/>
      </g>
    </g>
    <g transform="matrix(1, 0, 0, 1, -5.5, -43.4)" filter="url(#Rectangle_252)">
      <rect id="Rectangle_252-2" data-name="Rectangle 252" width="491.3" height="471.84" rx="20" transform="translate(627.7 357.06)" fill="#252939"/>
    </g>
    <g transform="matrix(1, 0, 0, 1, -5.5, -43.4)" filter="url(#Ellipse_143)">
      <circle id="Ellipse_143-2" data-name="Ellipse 143" cx="59.35" cy="59.35" r="59.35" transform="translate(1026.7 376.16)" fill="#f15a24"/>
    </g>
    <path id="Path_88" data-name="Path 88" d="M1096.66,554.05H1295.2s36.8-2.23,36.8,23.07V682" transform="translate(-341 -74)" fill="none" stroke="#ccc" stroke-linecap="round" stroke-miterlimit="10" stroke-width="5" stroke-dasharray="12 16"/>
    <path id="Path_89" data-name="Path 89" d="M1011.06,443V351.05S1008.55,334,1037,334h118" transform="translate(-341 -74)" fill="none" stroke="#ccc" stroke-linecap="round" stroke-miterlimit="10" stroke-width="5" stroke-dasharray="12 16"/>
    <g transform="matrix(1, 0, 0, 1, -5.5, -43.4)" filter="url(#Rectangle_255)">
      <rect id="Rectangle_255-2" data-name="Rectangle 255" width="319" height="200" rx="20" transform="translate(127.5 645.4)" fill="#fff"/>
    </g>
    <g transform="matrix(1, 0, 0, 1, -5.5, -43.4)" filter="url(#Ellipse_144)">
      <circle id="Ellipse_144-2" data-name="Ellipse 144" cx="76.41" cy="76.41" r="76.41" transform="translate(584.88 748.42)" fill="#f15a24"/>
    </g>
    <g id="profiles">
      <g transform="matrix(1, 0, 0, 1, -5.5, -43.4)" filter="url(#Rectangle_260)">
        <rect id="Rectangle_260-2" data-name="Rectangle 260" width="287" height="250.33" rx="20" transform="translate(465.7 387.41)" fill="#fff"/>
      </g>
      <path id="Path_90" data-name="Path 90" d="M957.73,594c0-44,21.25-79.62,47.46-79.62S1052.64,550,1052.64,594" transform="translate(-341 -74)" fill="#252939"/>
      <circle id="Ellipse_145" data-name="Ellipse 145" cx="25.55" cy="25.55" r="25.55" transform="translate(638.64 384.31)" fill="#252939"/>
      <path id="Path_91" data-name="Path 91" d="M846.6,585.21c0-37.41,18.07-67.74,40.37-67.74s40.37,30.33,40.37,67.74" transform="translate(-341 -74)" fill="#252939"/>
      <circle id="Ellipse_146" data-name="Ellipse 146" cx="21.74" cy="21.74" r="21.74" transform="translate(524.23 395.54)" fill="#252939"/>
      <path id="Path_92" data-name="Path 92" d="M894.73,620.27c0-45.37,21.92-82.15,49-82.15s49,36.78,49,82.15" transform="translate(-341 -74)" fill="#252939" stroke="#fff" stroke-miterlimit="10" stroke-width="2"/>
      <circle id="Ellipse_147" data-name="Ellipse 147" cx="26.36" cy="26.36" r="26.36" transform="translate(576.33 403.7)" fill="#252939"/>
    </g>
    <path id="Path_93" data-name="Path 93" d="M712.22,836.76c20.77,0,37.61-16.46,37.61-36.77S733,763.23,712.22,763.23c-1.14,0-2.27.06-3.38.15a15.73,15.73,0,0,0,1.34-6.37,16.28,16.28,0,0,0-16.46-16.09,16.62,16.62,0,0,0-8.13,2.11A48.17,48.17,0,0,0,641,713.69c-26.58,0-48.13,21.07-48.13,47.06v.78h-1.55c-21.52,0-39,17.06-39,38.1s17.45,38.25,39,38.09Zm-37.09-42.85" transform="translate(-341 -74)" fill="#252939"/>
    <path id="Path_94" data-name="Path 94" d="M651.62,838.76c20.77,0,37.61-16.46,37.61-36.77s-16.84-36.76-37.61-36.76c-1.14,0-2.27.06-3.38.15a15.73,15.73,0,0,0,1.34-6.37,16.28,16.28,0,0,0-16.46-16.09A16.62,16.62,0,0,0,625,745a48.17,48.17,0,0,0-44.6-29.34c-26.58,0-48.13,21.07-48.13,47.06v.78h-1.55c-21.52,0-39,17.06-39,38.1s17.45,38.25,39,38.09Zm-37.09-42.85" transform="translate(-341 -74)" fill="#ebf1f8"/>
    <g id="phone">
      <g transform="matrix(1, 0, 0, 1, -5.5, -43.4)" filter="url(#Rectangle_258)">
        <rect id="Rectangle_258-2" data-name="Rectangle 258" width="250.06" height="330.85" rx="20" transform="translate(172.44 113.55)" fill="#fff"/>
      </g>
      <rect id="Rectangle_261" data-name="Rectangle 261" width="189.19" height="189.16" rx="30" transform="translate(196.92 103.58)" fill="#f2f2f2"/>
      <rect id="Rectangle_262" data-name="Rectangle 262" width="74.37" height="144.01" rx="8" transform="translate(254.32 125.43)" fill="#27c1bc"/>
      <circle id="Ellipse_148" data-name="Ellipse 148" cx="6.18" cy="6.18" r="6.18" transform="translate(285.3 249.77)" fill="#fff"/>
      <line id="Line_72" data-name="Line 72" x2="22.89" transform="translate(279.5 133.99)" fill="none" stroke="#fff" stroke-linecap="round" stroke-miterlimit="10" stroke-width="1"/>
      <rect id="Rectangle_263" data-name="Rectangle 263" width="157.78" height="12.71" rx="6" transform="translate(200.59 349.39)" fill="#b3b3b3"/>
      <rect id="Rectangle_264" data-name="Rectangle 264" width="78.89" height="12.71" rx="6" transform="translate(200.59 327.15)" fill="#f15a24"/>
    </g>
    <g id="folder">
      <g transform="matrix(1, 0, 0, 1, -5.5, -43.4)" filter="url(#Rectangle_272)">
        <rect id="Rectangle_272-2" data-name="Rectangle 272" width="435.81" height="228" rx="20" transform="translate(785.69 649.4)" fill="#fff"/>
      </g>
      <rect id="Rectangle_273" data-name="Rectangle 273" width="150.6" height="106.53" rx="4" transform="translate(813.98 668.75)" fill="#139bbf"/>
      <rect id="Rectangle_274" data-name="Rectangle 274" width="150.6" height="106.53" rx="4" transform="translate(813.98 668.75)" fill="none" stroke="#139bbf" stroke-linecap="round" stroke-linejoin="round" stroke-width="6"/>
      <rect id="Rectangle_275" data-name="Rectangle 275" width="153.69" height="106.53" rx="4" transform="translate(813.98 677.47)" fill="#27c1bc"/>
      <rect id="Rectangle_276" data-name="Rectangle 276" width="153.69" height="106.53" rx="4" transform="translate(813.98 677.47)" fill="none" stroke="#27c1bc" stroke-linecap="round" stroke-linejoin="round" stroke-width="6"/>
      <rect id="Rectangle_277" data-name="Rectangle 277" width="68.24" height="106.53" rx="4" transform="translate(813.96 660)" fill="#27c1bc"/>
      <rect id="Rectangle_278" data-name="Rectangle 278" width="68.24" height="106.53" rx="4" transform="translate(813.96 660)" fill="none" stroke="#27c1bc" stroke-linecap="round" stroke-linejoin="round" stroke-width="6"/>
      <circle id="Ellipse_149" data-name="Ellipse 149" cx="8.61" cy="8.61" r="8.61" transform="translate(1002.86 715.05)" fill="#f15a24"/>
      <rect id="Rectangle_279" data-name="Rectangle 279" width="137.56" height="8.53" rx="3" transform="translate(1028.53 713.99)" fill="#ccc"/>
      <rect id="Rectangle_280" data-name="Rectangle 280" width="74.64" height="8.53" rx="3" transform="translate(1028.53 726.78)" fill="#ccc"/>
      <circle id="Ellipse_150" data-name="Ellipse 150" cx="8.61" cy="8.61" r="8.61" transform="translate(1002.86 758.03)" fill="#f15a24"/>
      <rect id="Rectangle_281" data-name="Rectangle 281" width="137.56" height="8.53" rx="3" transform="translate(1028.53 755.9)" fill="#ccc"/>
      <rect id="Rectangle_282" data-name="Rectangle 282" width="74.64" height="8.53" rx="3" transform="translate(1028.53 768.7)" fill="#ccc"/>
      <circle id="Ellipse_151" data-name="Ellipse 151" cx="8.61" cy="8.61" r="8.61" transform="translate(1002.86 674.03)" fill="#f15a24"/>
      <rect id="Rectangle_283" data-name="Rectangle 283" width="137.56" height="8.53" rx="3" transform="translate(1028.53 671.9)" fill="#ccc"/>
      <rect id="Rectangle_284" data-name="Rectangle 284" width="74.64" height="8.53" rx="3" transform="translate(1028.53 684.7)" fill="#ccc"/>
    </g>
    <g id="screen">
      <g transform="matrix(1, 0, 0, 1, -5.5, -43.4)" filter="url(#Rectangle_266)">
        <rect id="Rectangle_266-2" data-name="Rectangle 266" width="385.2" height="282.9" rx="20" transform="translate(799.75 148.5)" fill="#fff"/>
      </g>
      <rect id="Rectangle_267" data-name="Rectangle 267" width="196" height="68.98" rx="10" transform="translate(942 166.17)" fill="#ccc"/>
      <rect id="Rectangle_268" data-name="Rectangle 268" width="356" height="28.08" rx="8" transform="translate(810 117.92)" fill="#252939"/>
      <rect id="Rectangle_269" data-name="Rectangle 269" width="88.35" height="112.54" rx="10" transform="translate(942 250.46)" fill="#ccc"/>
      <rect id="Rectangle_270" data-name="Rectangle 270" width="88.35" height="112.54" rx="10" transform="translate(1049.65 250.46)" fill="#ccc"/>
      <circle id="Ellipse_152" data-name="Ellipse 152" cx="6.21" cy="6.21" r="6.21" transform="translate(820.02 125.24)" fill="#ed1c24" opacity="0.9"/>
      <circle id="Ellipse_153" data-name="Ellipse 153" cx="6.21" cy="6.21" r="6.21" transform="translate(838.42 125.24)" fill="#fbb03b" opacity="0.9"/>
      <circle id="Ellipse_154" data-name="Ellipse 154" cx="6.21" cy="6.21" r="6.21" transform="translate(856.58 125.24)" fill="#22b573" opacity="0.9"/>
      <path id="Path_95" data-name="Path 95" d="M1249,248.5a8,8,0,0,1-8,7.87h-71.37a7.88,7.88,0,1,1,0-15.75H1241a8,8,0,0,1,8,7.881Z" transform="translate(-341 -74)" fill="#ccc"/>
      <path id="Path_96" data-name="Path 96" d="M1222.94,282.12a8,8,0,0,1-8,7.88h-45.31a7.88,7.88,0,1,1,0-15.75h45.31a8,8,0,0,1,8,7.871Z" transform="translate(-341 -74)" fill="#ccc"/>
      <path id="Path_97" data-name="Path 97" d="M1249,316.5a8,8,0,0,1-8,7.87h-71.37a7.88,7.88,0,1,1,0-15.75H1241a8,8,0,0,1,8,7.881Z" transform="translate(-341 -74)" fill="#ccc"/>
      <path id="Path_98" data-name="Path 98" d="M1222.94,350.12a8,8,0,0,1-8,7.88h-45.31a7.88,7.88,0,1,1,0-15.75h45.31a8,8,0,0,1,8,7.871Z" transform="translate(-341 -74)" fill="#ccc"/>
    </g>
  </g>
</svg>
