<svg id="Layer_1" data-name="Layer 1" xmlns="http://www.w3.org/2000/svg" viewBox="0 0 1513 673"><defs><style>.cls-1,.cls-10,.cls-11,.cls-13,.cls-14,.cls-15,.cls-17,.cls-19,.cls-20,.cls-21,.cls-22,.cls-23,.cls-24,.cls-3,.cls-32,.cls-33,.cls-35,.cls-36,.cls-4,.cls-5,.cls-6,.cls-8,.cls-9{fill:none;}.cls-1,.cls-17,.cls-19,.cls-32{stroke:#252939;}.cls-1,.cls-10,.cls-11,.cls-13,.cls-14,.cls-15,.cls-16,.cls-17,.cls-19,.cls-2,.cls-20,.cls-21,.cls-22,.cls-23,.cls-24,.cls-3,.cls-32,.cls-33,.cls-35,.cls-4,.cls-5,.cls-6,.cls-8,.cls-9{stroke-miterlimit:10;}.cls-1,.cls-2{stroke-width:3px;}.cls-16,.cls-2{fill:#f15a24;}.cls-16,.cls-2,.cls-36{stroke:#fff;}.cls-11,.cls-21,.cls-22,.cls-23,.cls-24,.cls-3,.cls-4{stroke:#f15a24;}.cls-10,.cls-11,.cls-13,.cls-14,.cls-15,.cls-20,.cls-21,.cls-22,.cls-23,.cls-24,.cls-3,.cls-32,.cls-33,.cls-36,.cls-4,.cls-5,.cls-6,.cls-8,.cls-9{stroke-linecap:round;}.cls-10,.cls-11,.cls-13,.cls-14,.cls-15,.cls-20,.cls-21,.cls-22,.cls-23,.cls-24,.cls-3,.cls-33,.cls-4,.cls-5,.cls-6,.cls-8,.cls-9{stroke-width:4px;}.cls-4{stroke-dasharray:4.76 11.43;}.cls-14,.cls-20,.cls-33,.cls-5,.cls-6,.cls-8{stroke:#329afc;}.cls-6{stroke-dasharray:4.6 11.05;}.cls-7{fill:#e8eff6;}.cls-8{stroke-dasharray:5.04 12.1;}.cls-10,.cls-13,.cls-15,.cls-9{stroke:#999;}.cls-10{stroke-dasharray:4.13 9.91;}.cls-11{stroke-dasharray:5.22 12.52;}.cls-12{fill:#fff;}.cls-13{stroke-dasharray:5 12;}.cls-14{stroke-dasharray:5.18 12.44;}.cls-15{stroke-dasharray:4.96 11.9;}.cls-16,.cls-19,.cls-35,.cls-36{stroke-width:2px;}.cls-17{stroke-width:1.75px;}.cls-18{fill:#252939;}.cls-20{stroke-dasharray:4.93 11.82;}.cls-21{stroke-dasharray:4.91 11.79;}.cls-22{stroke-dasharray:4.96 11.91;}.cls-23{stroke-dasharray:5.28 12.68;}.cls-24{stroke-dasharray:5.39 12.93;}.cls-25{font-size:16px;font-family:PlusJakartaSans-SemiBold, Plus Jakarta Sans;font-weight:600;}.cls-26{letter-spacing:-0.04em;}.cls-27{letter-spacing:-0.01em;}.cls-28{letter-spacing:0em;}.cls-29{letter-spacing:-0.02em;}.cls-30{letter-spacing:-0.01em;}.cls-31{letter-spacing:0em;}.cls-32{stroke-width:0.5px;}.cls-33{stroke-dasharray:4.78 11.48;}.cls-34{fill:#28c1bc;}.cls-35{stroke:#e1f0ff;}.cls-36{stroke-linejoin:round;}</style></defs><line class="cls-1" x1="290" y1="500" x2="290" y2="512"/><line class="cls-1" x1="304" y1="164" x2="304" y2="176"/><line class="cls-1" x1="164" y1="335" x2="164" y2="347"/><circle class="cls-2" cx="1208.42" cy="141.12" r="36.53"/><circle class="cls-2" cx="1208.47" cy="228.35" r="36.53"/><line class="cls-3" x1="1118" y1="184.5" x2="1115.5" y2="184.5"/><line class="cls-4" x1="1104.07" y1="184.5" x2="1061.21" y2="184.5"/><line class="cls-3" x1="1055.5" y1="184.5" x2="1053" y2="184.5"/><line class="cls-5" x1="346" y1="547" x2="348.5" y2="547"/><line class="cls-6" x1="359.55" y1="547" x2="400.98" y2="547"/><line class="cls-5" x1="406.5" y1="547" x2="409" y2="547"/><line class="cls-5" x1="382" y1="212" x2="384.5" y2="212"/><line class="cls-5" x1="398.5" y1="212" x2="401" y2="212"/><path class="cls-7" d="M1127.43,860.78c51.47,0,93.19-39.78,93.19-88.86s-41.72-88.86-93.19-88.86c-2.83,0-5.62.14-8.38.37a37.16,37.16,0,0,0,3.33-15.4c0-21.48-18.26-38.89-40.79-38.89a42.11,42.11,0,0,0-20.15,5.1c-17.74-41.58-60.52-70.91-110.49-70.91-65.87,0-119.27,50.92-119.27,113.73,0,.64,0,1.26.05,1.9-1.28-.05-2.55-.09-3.84-.09-53.32,0-96.55,41.21-96.55,92.06s43.23,92.46,96.55,92.07Zm-91.9-103.56" transform="translate(-199 -190)"/><circle class="cls-2" cx="1154.53" cy="184.28" r="36.53"/><line class="cls-5" x1="236" y1="378.84" x2="238.5" y2="378.84"/><line class="cls-8" x1="250.6" y1="378.84" x2="1204.45" y2="378.84"/><line class="cls-5" x1="1210.5" y1="378.84" x2="1213" y2="378.84"/><line class="cls-9" x1="1247" y1="364" x2="1247" y2="361.5"/><line class="cls-10" x1="1247" y1="351.59" x2="1247" y2="328.46"/><line class="cls-9" x1="1247" y1="323.5" x2="1247" y2="321"/><line class="cls-3" x1="441" y1="190.5" x2="443.5" y2="190.5"/><line class="cls-11" x1="456.02" y1="190.5" x2="485.24" y2="190.5"/><line class="cls-3" x1="491.5" y1="190.5" x2="494" y2="190.5"/><rect class="cls-12" x="96.24" y="349.76" width="135.26" height="64.8" rx="4"/><rect class="cls-1" x="96.24" y="349.76" width="135.26" height="64.8" rx="4"/><path class="cls-7" d="M1128.9,490.34c52,0,94.1-40.17,94.1-89.73s-42.13-89.72-94.1-89.72c-2.85,0-5.67.14-8.46.38a37.59,37.59,0,0,0,3.36-15.55c0-21.69-18.44-39.28-41.18-39.28a42.42,42.42,0,0,0-20.35,5.16c-17.92-42-61.1-71.6-111.57-71.6-66.51,0-120.42,51.41-120.42,114.83,0,.65,0,1.28.05,1.92-1.29-.05-2.58-.09-3.88-.09-53.84,0-97.48,41.62-97.48,93s43.65,93.35,97.48,93Zm-92.79-104.57" transform="translate(-199 -190)"/><line class="cls-13" x1="839" y1="186" x2="927.5" y2="186"/><line class="cls-13" x1="642" y1="185.5" x2="721" y2="185.5"/><line class="cls-5" x1="560" y1="429.5" x2="562.5" y2="429.5"/><line class="cls-14" x1="574.94" y1="429.5" x2="727.28" y2="429.5"/><line class="cls-5" x1="733.5" y1="429.5" x2="736" y2="429.5"/><line class="cls-13" x1="774.5" y1="254" x2="774.5" y2="413"/><line class="cls-9" x1="775" y1="320.5" x2="777.5" y2="320.5"/><line class="cls-15" x1="789.4" y1="320.5" x2="1238.55" y2="320.5"/><line class="cls-9" x1="1244.5" y1="320.5" x2="1247" y2="320.5"/><circle class="cls-16" cx="163.88" cy="297.17" r="38.88"/><rect class="cls-17" x="186.62" y="360" width="22.3" height="44" rx="2"/><rect class="cls-18" x="901.48" y="134" width="151.83" height="109" rx="4"/><rect class="cls-12" x="906.41" y="137.91" width="142.16" height="17.13" rx="2"/><circle class="cls-18" cx="916.79" cy="146.36" r="4.21"/><circle class="cls-18" cx="928.5" cy="146.36" r="4.21"/><rect class="cls-12" x="494.25" y="136.61" width="148.08" height="106.31" rx="4"/><rect class="cls-19" x="494.25" y="136.61" width="148.08" height="106.31" rx="4"/><rect class="cls-18" x="499.38" y="140.42" width="138.65" height="16.7" rx="2"/><circle class="cls-12" cx="509.5" cy="148.67" r="4.1"/><circle class="cls-12" cx="520.92" cy="148.67" r="4.1"/><rect class="cls-1" x="1106.22" y="431.75" width="283.05" height="124.25" rx="4"/><rect class="cls-1" x="240.5" y="515.2" width="99.98" height="64.8" rx="4"/><circle class="cls-16" cx="289.6" cy="462.71" r="38.88"/><rect class="cls-12" x="260.76" y="563.97" width="57.47" height="6.03" rx="1"/><rect class="cls-17" x="260.76" y="563.97" width="57.47" height="6.03" rx="1"/><rect class="cls-12" x="265.88" y="526.02" width="47.2" height="35.52" rx="1"/><rect class="cls-17" x="265.88" y="526.02" width="47.2" height="35.52" rx="1"/><rect class="cls-12" x="229.5" y="178.96" width="148.76" height="64.8" rx="4"/><rect class="cls-1" x="229.5" y="178.96" width="148.76" height="64.8" rx="4"/><circle class="cls-16" cx="303.98" cy="126.29" r="38.88"/><line class="cls-5" x1="411" y1="547" x2="411" y2="544.5"/><line class="cls-20" x1="411" y1="532.68" x2="411" y2="220.41"/><line class="cls-5" x1="411" y1="214.5" x2="411" y2="212"/><line class="cls-3" x1="206" y1="298" x2="208.5" y2="298"/><line class="cls-21" x1="220.29" y1="298" x2="431.6" y2="298"/><line class="cls-3" x1="437.5" y1="298" x2="440" y2="298"/><line class="cls-3" x1="440" y1="463" x2="440" y2="460.5"/><line class="cls-22" x1="440" y1="448.59" x2="440" y2="133.96"/><line class="cls-3" x1="440" y1="128" x2="440" y2="125.5"/><line class="cls-3" x1="332.5" y1="126" x2="335" y2="126"/><line class="cls-23" x1="347.68" y1="126" x2="431.16" y2="126"/><line class="cls-3" x1="437.5" y1="126" x2="440" y2="126"/><line class="cls-3" x1="328.5" y1="463" x2="331" y2="463"/><line class="cls-24" x1="343.93" y1="463" x2="429.04" y2="463"/><line class="cls-3" x1="435.5" y1="463" x2="438" y2="463"/><line class="cls-1" x1="774.5" y1="432.5" x2="774.5" y2="468.5"/><line class="cls-1" x1="1247.5" y1="386.5" x2="1247.5" y2="428.5"/><text class="cls-25" transform="translate(714.17 77.44)">Wirewise Cloud <tspan x="27.29" y="19.2">Services</tspan></text><text class="cls-25" transform="translate(718.62 632.93)">Cloud Services<tspan x="-11.49" y="19.2">(</tspan><tspan class="cls-26" x="-5.87" y="19.2">A</tspan><tspan class="cls-27" x="4.56" y="19.2">W</tspan><tspan x="20.53" y="19.2">S, Azure, e</tspan><tspan class="cls-27" x="100.37" y="19.2">t</tspan><tspan class="cls-28" x="106.69" y="19.2">c.)</tspan></text><text class="cls-25" transform="translate(940.02 102.18)">Wirewise <tspan class="cls-29" x="-5.71" y="19.2">A</tspan><tspan x="5.04" y="19.2">dmin Si</tspan><tspan class="cls-30" x="60.83" y="19.2">t</tspan><tspan class="cls-31" x="67.15" y="19.2">e</tspan></text><text class="cls-25" transform="translate(535.02 104.66)">Wirewise <tspan x="1.43" y="19.2">User Si</tspan><tspan class="cls-27" x="53.69" y="19.2">t</tspan><tspan class="cls-28" x="60.01" y="19.2">e</tspan></text><text class="cls-25" transform="translate(22.16 192.19)">Wirewise Users with <tspan x="12.78" y="19.2">Enabled D</tspan><tspan class="cls-30" x="90.84" y="19.2">e</tspan><tspan x="100.49" y="19.2">vices</tspan></text><text class="cls-25" transform="translate(1260.02 185.16)">Wirewise <tspan class="cls-29" x="6.79" y="19.2">A</tspan><tspan x="17.54" y="19.2">dmins</tspan></text><text class="cls-25" transform="translate(830.29 425.26)">Host Machine<tspan x="0" y="19.2">(Wirewise G</tspan><tspan class="cls-30" x="92.67" y="19.2">at</tspan><tspan x="108.08" y="19.2">e</tspan><tspan class="cls-29" x="117.89" y="19.2">w</tspan><tspan x="131.25" y="19.2">ay)</tspan></text><text class="cls-25" transform="translate(1305.29 372.69)">Host Machine<tspan x="0" y="19.2">(Wirewise G</tspan><tspan class="cls-30" x="92.67" y="19.2">at</tspan><tspan x="108.08" y="19.2">e</tspan><tspan class="cls-29" x="117.89" y="19.2">w</tspan><tspan x="131.25" y="19.2">ay)</tspan></text><text class="cls-25" transform="translate(1174.93 585.11)"><tspan class="cls-30">C</tspan><tspan x="12.27" y="0">orpor</tspan><tspan class="cls-27" x="55.47" y="0">at</tspan><tspan class="cls-31" x="70.88" y="0">e Net</tspan><tspan class="cls-27" x="111.6" y="0">w</tspan><tspan x="125.12" y="0">ork</tspan></text><circle class="cls-18" cx="197.6" cy="399.6" r="1.89"/><line class="cls-32" x1="193.83" y1="362.51" x2="201.37" y2="362.51"/><rect class="cls-17" x="322.59" y="189" width="34.51" height="44" rx="2"/><circle class="cls-18" cx="339.86" cy="228.6" r="1.89"/><line class="cls-5" x1="559.14" y1="429" x2="559.14" y2="426.5"/><line class="cls-33" x1="559.14" y1="415.02" x2="559.14" y2="388.24"/><line class="cls-5" x1="559.14" y1="382.5" x2="559.14" y2="380"/><rect class="cls-18" x="1120.83" y="450.99" width="76.46" height="25.84" rx="6"/><rect class="cls-18" x="1120.81" y="480.8" width="76.46" height="25.84" rx="6"/><rect class="cls-18" x="1120.81" y="510.71" width="76.46" height="25.84" rx="6"/><circle class="cls-12" cx="1132.06" cy="464.12" r="6.07"/><circle class="cls-12" cx="1132.06" cy="493.55" r="6.07"/><circle class="cls-12" cx="1132.06" cy="524.12" r="6.07"/><rect class="cls-18" x="1208.57" y="451.05" width="76.46" height="25.84" rx="6"/><rect class="cls-18" x="1208.55" y="480.86" width="76.46" height="25.84" rx="6"/><rect class="cls-18" x="1208.55" y="510.77" width="76.46" height="25.84" rx="6"/><circle class="cls-12" cx="1219.8" cy="464.18" r="6.07"/><circle class="cls-12" cx="1219.8" cy="493.61" r="6.07"/><circle class="cls-12" cx="1219.8" cy="524.18" r="6.07"/><rect class="cls-18" x="1296.31" y="451.1" width="76.46" height="25.84" rx="6"/><rect class="cls-18" x="1296.29" y="480.92" width="76.46" height="25.84" rx="6"/><rect class="cls-18" x="1296.29" y="510.83" width="76.46" height="25.84" rx="6"/><circle class="cls-12" cx="1307.54" cy="464.24" r="6.07"/><circle class="cls-12" cx="1307.54" cy="493.67" r="6.07"/><circle class="cls-12" cx="1307.54" cy="524.24" r="6.07"/><rect class="cls-18" x="709.29" y="470.49" width="131.34" height="40.95" rx="6"/><rect class="cls-18" x="709.26" y="517.7" width="131.34" height="40.95" rx="6"/><rect class="cls-18" x="709.26" y="565.05" width="131.34" height="40.95" rx="6"/><circle class="cls-12" cx="727.09" cy="491.3" r="9.62"/><circle class="cls-12" cx="727.09" cy="537.9" r="9.62"/><circle class="cls-12" cx="727.09" cy="586.3" r="9.62"/><rect class="cls-12" x="708.43" y="113" width="131.01" height="40.85" rx="6"/><rect class="cls-19" x="708.43" y="113" width="131.01" height="40.85" rx="6"/><rect class="cls-12" x="708.39" y="161.18" width="131.01" height="40.85" rx="6"/><rect class="cls-19" x="708.39" y="161.18" width="131.01" height="40.85" rx="6"/><rect class="cls-12" x="708.39" y="209.5" width="131.01" height="40.85" rx="6"/><rect class="cls-19" x="708.39" y="209.5" width="131.01" height="40.85" rx="6"/><circle class="cls-18" cx="726.18" cy="133.76" r="9.6"/><circle class="cls-18" cx="726.18" cy="181.33" r="9.6"/><circle class="cls-18" cx="726.18" cy="230.7" r="9.6"/><rect class="cls-34" x="728" y="415.13" width="93.74" height="29.85" rx="4"/><rect class="cls-35" x="728" y="415.13" width="93.74" height="29.85" rx="4"/><circle class="cls-12" cx="741.31" cy="429.66" r="6.5"/><rect class="cls-34" x="1201.26" y="362.02" width="93.74" height="29.85" rx="4"/><rect class="cls-36" x="1201.26" y="362.02" width="93.74" height="29.85" rx="4"/><circle class="cls-12" cx="1215.82" cy="376.55" r="6.5"/><path class="cls-2" d="M473.56,669a15.09,15.09,0,0,1,30.17,0" transform="translate(-199 -190)"/><circle class="cls-2" cx="289.64" cy="453.89" r="8.12"/><path class="cls-2" d="M347.56,503a15.09,15.09,0,0,1,30.17,0" transform="translate(-199 -190)"/><circle class="cls-2" cx="163.64" cy="287.89" r="8.12"/><path class="cls-2" d="M487.56,331a15.09,15.09,0,0,1,30.17,0" transform="translate(-199 -190)"/><circle class="cls-2" cx="303.64" cy="115.89" r="8.12"/><path class="cls-2" d="M1338.54,390a14.63,14.63,0,0,1,29.25,0" transform="translate(-199 -190)"/><circle class="cls-2" cx="1154.16" cy="175.65" r="7.87"/><path class="cls-2" d="M1392.83,346.36a14.63,14.63,0,0,1,29.25,0" transform="translate(-199 -190)"/><circle class="cls-2" cx="1208.45" cy="132.02" r="7.87"/><path class="cls-2" d="M1392.83,433.61a14.63,14.63,0,0,1,29.25,0" transform="translate(-199 -190)"/><circle class="cls-2" cx="1208.45" cy="219.27" r="7.87"/><rect class="cls-12" x="112.76" y="397.97" width="57.47" height="6.03" rx="1"/><rect class="cls-17" x="112.76" y="397.97" width="57.47" height="6.03" rx="1"/><rect class="cls-12" x="117.88" y="360.02" width="47.2" height="35.52" rx="1"/><rect class="cls-17" x="117.88" y="360.02" width="47.2" height="35.52" rx="1"/><rect class="cls-12" x="248.76" y="227.47" width="57.47" height="6.03" rx="1"/><rect class="cls-17" x="248.76" y="227.47" width="57.47" height="6.03" rx="1"/><rect class="cls-12" x="253.88" y="189.52" width="47.2" height="35.52" rx="1"/><rect class="cls-17" x="253.88" y="189.52" width="47.2" height="35.52" rx="1"/></svg>