<svg
  width="1234"
  height="589"
  viewBox="0 0 1234 589"
  fill="none"
  xmlns="http://www.w3.org/2000/svg"
>
  <g id="architecture-diagram">
    <path
      id="Device-To-Gateway-Path"
      d="M223.769 496.397H362.047V332.825M250.75 183.305L362.047 183.305V295.726M362.047 332.825H120.342M362.047 332.825V295.726M362.047 295.726H415.447M842.646 295.726H415.447M415.447 295.726V349.688H481.213"
      stroke="#999999"
      stroke-width="4"
      stroke-linecap="round"
      stroke-linejoin="round"
      stroke-dasharray="8 16"
    />
    <path
      id="Users-To-Site-Path"
      d="M138.33 425V383.414H330.007V222.652M330.007 147.33H410.388M330.007 147.33V222.652M330.007 147.33V60.7656H166.435V107M330.007 222.652H34.9023C34.9023 222.652 34.9023 239.707 34.9023 261"
      stroke="#101010"
      stroke-width="4"
      stroke-linecap="round"
      stroke-linejoin="round"
      stroke-dasharray="8 16"
    />
    <path
      id="Gateway-To-Cloud-Services-Pointer"
      d="M525.226 373.152L517.561 382.991C517.292 383.334 517.538 383.829 517.968 383.833L523.029 383.833L523.029 398.035C523.029 398.173 523.085 398.306 523.182 398.404C523.28 398.502 523.413 398.557 523.551 398.558L527.724 398.558C528.011 398.558 528.247 398.322 528.247 398.035L528.247 383.824H533.307C533.405 383.824 533.501 383.796 533.583 383.745C533.666 383.693 533.732 383.619 533.775 383.531C533.817 383.443 533.834 383.345 533.824 383.248C533.813 383.151 533.775 383.059 533.714 382.982L526.049 373.152C526.001 373.088 525.939 373.037 525.867 373.002C525.796 372.966 525.717 372.948 525.638 372.948C525.558 372.948 525.479 372.966 525.408 373.002C525.336 373.037 525.274 373.088 525.226 373.152ZM523.551 412.038C523.413 412.038 523.28 412.094 523.182 412.192C523.085 412.289 523.029 412.422 523.029 412.56L523.033 426.767L517.972 426.767C517.875 426.767 517.779 426.794 517.696 426.846C517.614 426.898 517.547 426.972 517.505 427.06C517.462 427.148 517.446 427.246 517.456 427.343C517.467 427.44 517.505 427.532 517.565 427.609L525.226 437.443C525.439 437.712 525.836 437.712 526.049 437.443L533.714 427.604C533.983 427.262 533.738 426.767 533.307 426.762H528.247L528.247 412.551C528.247 412.264 528.011 412.028 527.724 412.028L523.551 412.038Z"
      fill="#EC5563"
    />
    <path
      id="Gateway-To-Corporate-Network-Pointer"
      d="M910.773 320.314L903.108 330.153C902.839 330.496 903.084 330.991 903.515 330.995L908.575 330.995L908.575 345.197C908.576 345.335 908.631 345.468 908.729 345.566C908.827 345.664 908.96 345.719 909.098 345.72H913.271C913.558 345.72 913.793 345.484 913.793 345.197L913.793 330.986L918.854 330.986C918.952 330.986 919.047 330.959 919.13 330.907C919.213 330.855 919.279 330.781 919.322 330.693C919.364 330.605 919.381 330.507 919.37 330.41C919.36 330.313 919.322 330.221 919.261 330.144L911.596 320.314C911.548 320.251 911.486 320.199 911.414 320.164C911.343 320.128 911.264 320.11 911.184 320.11C911.105 320.11 911.026 320.128 910.955 320.164C910.883 320.199 910.821 320.251 910.773 320.314ZM909.098 359.2C908.96 359.2 908.827 359.256 908.729 359.354C908.631 359.452 908.576 359.584 908.575 359.723L908.58 373.929L903.519 373.929C903.422 373.929 903.326 373.956 903.243 374.008C903.161 374.06 903.094 374.134 903.052 374.222C903.009 374.31 902.992 374.408 903.003 374.505C903.014 374.602 903.052 374.694 903.112 374.771L910.773 384.605C910.986 384.874 911.383 384.874 911.596 384.605L919.261 374.766C919.53 374.424 919.284 373.929 918.854 373.924L913.793 373.924L913.793 359.713C913.793 359.426 913.558 359.191 913.271 359.191L909.098 359.2Z"
      fill="#EC5563"
    />
    <path
      id="Gateway-To-Cloud-Services-Path"
      d="M526.182 350.25V238.953H620.616M911.786 281.673V238.953H620.616M620.616 238.953V133.277H485.711H759.456"
      stroke="#EC5563"
      stroke-width="4"
      stroke-linecap="round"
      stroke-linejoin="round"
      stroke-dasharray="8 16"
    />
    <path
      id="Admins-To-Site-Path"
      d="M867.379 126.533H1068.61"
      stroke="#339BFC"
      stroke-width="4"
      stroke-linecap="round"
      stroke-linejoin="round"
      stroke-dasharray="8 16"
    />
    <g id="Ocketio-Admins-Card">
      <text
        id="Ocketio Admins"
        fill="#101010"
        xml:space="preserve"
        style="white-space: pre"
        font-family="Poppins"
        font-size="15"
        font-weight="600"
        letter-spacing="0.025em"
      >
        <tspan x="1120.33" y="104.838">Ocketio&#10;</tspan>
        <tspan x="1120.33" y="122.838">Admins</tspan>
      </text>
      <g id="Group 829">
        <g id="Group 825">
          <path
            id="Polygon 2"
            d="M1048.85 78.1737C1050.55 77.1912 1052.65 77.1912 1054.35 78.1737L1088.43 97.8497C1090.13 98.8322 1091.18 100.648 1091.18 102.613V141.965C1091.18 143.93 1090.13 145.745 1088.43 146.728L1054.35 166.404C1052.65 167.386 1050.55 167.386 1048.85 166.404L1014.77 146.728C1013.07 145.745 1012.02 143.93 1012.02 141.965V102.613C1012.02 100.648 1013.07 98.8322 1014.77 97.8497L1048.85 78.1737Z"
            fill="#339BFC"
            stroke="#101010"
            stroke-width="5"
          />
          <path
            id="Vector"
            d="M1031.25 149.23C1032.36 146.668 1033.96 144.341 1035.98 142.378C1037.99 140.409 1040.38 138.84 1043 137.756C1043.03 137.745 1043.05 137.739 1043.07 137.727C1039.41 135.147 1037.03 130.944 1037.03 126.201C1037.03 118.346 1043.55 111.98 1051.6 111.98C1059.65 111.98 1066.17 118.346 1066.17 126.201C1066.17 130.944 1063.79 135.147 1060.13 137.733C1060.15 137.745 1060.18 137.75 1060.2 137.762C1062.83 138.846 1065.19 140.4 1067.22 142.384C1069.24 144.348 1070.84 146.675 1071.95 149.236C1073.05 151.743 1073.63 154.432 1073.69 157.155C1073.69 157.216 1073.68 157.277 1073.66 157.334C1073.63 157.391 1073.6 157.443 1073.55 157.487C1073.51 157.531 1073.46 157.566 1073.4 157.589C1073.34 157.613 1073.28 157.625 1073.22 157.625H1069.69C1069.43 157.625 1069.23 157.425 1069.22 157.178C1069.11 152.751 1067.28 148.605 1064.07 145.463C1060.74 142.212 1056.31 140.422 1051.6 140.422C1046.89 140.422 1042.47 142.212 1039.14 145.463C1035.92 148.605 1034.1 152.751 1033.98 157.178C1033.97 157.43 1033.77 157.625 1033.51 157.625H1029.99C1029.92 157.625 1029.86 157.613 1029.8 157.589C1029.74 157.566 1029.69 157.531 1029.65 157.487C1029.6 157.443 1029.57 157.391 1029.55 157.334C1029.52 157.277 1029.51 157.216 1029.52 157.155C1029.57 154.414 1030.16 151.748 1031.25 149.23ZM1051.6 136.064C1054.3 136.064 1056.84 135.038 1058.74 133.174C1060.65 131.311 1061.7 128.833 1061.7 126.201C1061.7 123.569 1060.65 121.092 1058.74 119.229C1056.84 117.365 1054.3 116.339 1051.6 116.339C1048.91 116.339 1046.37 117.365 1044.46 119.229C1042.55 121.092 1041.5 123.569 1041.5 126.201C1041.5 128.833 1042.55 131.311 1044.46 133.174C1046.37 135.038 1048.91 136.064 1051.6 136.064Z"
            fill="#101010"
          />
        </g>
        <g id="Group 823">
          <path
            id="Polygon 2_2"
            d="M1026.77 166.512C1028.47 165.529 1030.56 165.529 1032.27 166.512L1066.35 186.188C1068.05 187.17 1069.1 188.986 1069.1 190.951V230.303C1069.1 232.268 1068.05 234.083 1066.35 235.066L1032.27 254.742C1030.56 255.724 1028.47 255.724 1026.77 254.742L992.686 235.066C990.984 234.083 989.936 232.268 989.936 230.303V190.951C989.936 188.986 990.984 187.17 992.686 186.188L1026.77 166.512Z"
            fill="#339BFC"
            stroke="#101010"
            stroke-width="5"
          />
          <path
            id="Vector_2"
            d="M1009.16 237.568C1010.27 235.006 1011.88 232.679 1013.9 230.716C1015.91 228.747 1018.29 227.178 1020.92 226.094C1020.94 226.082 1020.96 226.077 1020.99 226.065C1017.33 223.485 1014.95 219.282 1014.95 214.539C1014.95 206.683 1021.47 200.318 1029.52 200.318C1037.56 200.318 1044.08 206.683 1044.08 214.539C1044.08 219.282 1041.7 223.485 1038.04 226.071C1038.07 226.082 1038.09 226.088 1038.11 226.1C1040.75 227.183 1043.11 228.737 1045.13 230.721C1047.15 232.686 1048.76 235.013 1049.87 237.574C1050.96 240.081 1051.55 242.769 1051.6 245.493C1051.6 245.554 1051.59 245.615 1051.57 245.672C1051.55 245.729 1051.51 245.781 1051.47 245.825C1051.42 245.869 1051.37 245.903 1051.31 245.927C1051.26 245.951 1051.19 245.963 1051.13 245.963H1047.61C1047.35 245.963 1047.14 245.762 1047.14 245.516C1047.02 241.089 1045.2 236.943 1041.98 233.801C1038.65 230.549 1034.23 228.76 1029.52 228.76C1024.8 228.76 1020.38 230.549 1017.05 233.801C1013.83 236.943 1012.01 241.089 1011.89 245.516C1011.89 245.768 1011.68 245.963 1011.42 245.963H1007.9C1007.84 245.963 1007.77 245.951 1007.72 245.927C1007.66 245.903 1007.61 245.869 1007.56 245.825C1007.52 245.781 1007.48 245.729 1007.46 245.672C1007.44 245.615 1007.43 245.554 1007.43 245.493C1007.49 242.752 1008.07 240.086 1009.16 237.568ZM1029.52 224.402C1032.21 224.402 1034.75 223.376 1036.66 221.512C1038.57 219.649 1039.62 217.171 1039.62 214.539C1039.62 211.907 1038.57 209.43 1036.66 207.566C1034.75 205.703 1032.21 204.676 1029.52 204.676C1026.82 204.676 1024.28 205.703 1022.37 207.566C1020.46 209.43 1019.41 211.907 1019.41 214.539C1019.41 217.171 1020.46 219.649 1022.37 221.512C1024.28 223.376 1026.82 224.402 1029.52 224.402Z"
            fill="#101010"
          />
        </g>
        <g id="Group 824">
          <path
            id="Polygon 2_3"
            d="M1095.97 132.65C1097.67 131.668 1099.77 131.668 1101.47 132.65L1135.55 152.326C1137.25 153.309 1138.3 155.124 1138.3 157.089V196.441C1138.3 198.406 1137.25 200.222 1135.55 201.205L1101.47 220.881C1099.77 221.863 1097.67 221.863 1095.97 220.881L1061.89 201.205C1060.19 200.222 1059.14 198.406 1059.14 196.441V157.089C1059.14 155.124 1060.19 153.309 1061.89 152.326L1095.97 132.65Z"
            fill="#339BFC"
            stroke="#101010"
            stroke-width="5"
          />
          <path
            id="Vector_3"
            d="M1078.37 202.238C1079.47 199.676 1081.08 197.348 1083.1 195.386C1085.11 193.417 1087.5 191.848 1090.12 190.764C1090.14 190.752 1090.17 190.747 1090.19 190.735C1086.53 188.155 1084.15 183.952 1084.15 179.209C1084.15 171.353 1090.67 164.988 1098.72 164.988C1106.77 164.988 1113.29 171.353 1113.29 179.209C1113.29 183.952 1110.91 188.155 1107.25 190.741C1107.27 190.752 1107.29 190.758 1107.32 190.77C1109.95 191.853 1112.31 193.407 1114.34 195.391C1116.35 197.356 1117.96 199.683 1119.07 202.244C1120.16 204.751 1120.75 207.439 1120.8 210.163C1120.81 210.224 1120.8 210.285 1120.77 210.342C1120.75 210.399 1120.71 210.451 1120.67 210.495C1120.63 210.538 1120.58 210.573 1120.52 210.597C1120.46 210.621 1120.4 210.633 1120.33 210.633H1116.81C1116.55 210.633 1116.35 210.432 1116.34 210.186C1116.22 205.759 1114.4 201.613 1111.18 198.471C1107.85 195.219 1103.43 193.43 1098.72 193.43C1094.01 193.43 1089.58 195.219 1086.25 198.471C1083.04 201.613 1081.21 205.759 1081.1 210.186C1081.09 210.438 1080.89 210.633 1080.63 210.633H1077.1C1077.04 210.633 1076.98 210.621 1076.92 210.597C1076.86 210.573 1076.81 210.538 1076.77 210.495C1076.72 210.451 1076.69 210.399 1076.66 210.342C1076.64 210.285 1076.63 210.224 1076.63 210.163C1076.69 207.422 1077.27 204.755 1078.37 202.238ZM1098.72 189.072C1101.41 189.072 1103.95 188.046 1105.86 186.182C1107.77 184.319 1108.82 181.841 1108.82 179.209C1108.82 176.577 1107.77 174.1 1105.86 172.236C1103.95 170.373 1101.41 169.346 1098.72 169.346C1096.02 169.346 1093.48 170.373 1091.58 172.236C1089.67 174.1 1088.62 176.577 1088.62 179.209C1088.62 181.841 1089.67 184.319 1091.58 186.182C1093.48 188.046 1096.02 189.072 1098.72 189.072Z"
            fill="#101010"
          />
        </g>
      </g>
    </g>
    <g id="Ocketio-User-Admin-Card">
      <g id="Ocketio-Admin-Site">
        <g id="Site-Background">
          <rect
            id="Rectangle 339"
            x="743.719"
            y="78"
            width="151.768"
            height="109.048"
            rx="2"
            fill="#101010"
          />
          <rect
            id="Rectangle 340"
            x="745.967"
            y="80.25"
            width="147.271"
            height="104.551"
            rx="2"
            fill="#F5F5F5"
          />
        </g>
        <g id="Site-Toolbar">
          <rect
            id="Rectangle 341"
            x="748.215"
            y="82.4961"
            width="142.775"
            height="14.6147"
            rx="1"
            fill="#101010"
          />
          <circle
            id="Ellipse 484"
            cx="755.521"
            cy="89.8027"
            r="2.81052"
            fill="#333333"
          />
          <circle
            id="Ellipse 485"
            cx="763.393"
            cy="89.8027"
            r="2.81052"
            fill="#666666"
          />
          <circle
            id="Ellipse 486"
            cx="771.26"
            cy="89.8027"
            r="2.81052"
            fill="#CCCCCC"
          />
        </g>
        <rect
          id="Site-Nav"
          x="748.215"
          y="99.3594"
          width="37.0989"
          height="83.1915"
          rx="1"
          fill="#333333"
        />
        <g id="Site-Content">
          <path
            id="Line 94 (Stroke)"
            fill-rule="evenodd"
            clip-rule="evenodd"
            d="M788.688 106.667C788.688 104.494 790.483 102.732 792.698 102.732H883.607C885.822 102.732 887.618 104.494 887.618 106.667C887.618 108.84 885.822 110.602 883.607 110.602H792.698C790.483 110.602 788.688 108.84 788.688 106.667Z"
            fill="#999999"
          />
          <path
            id="Line 94 (Stroke)_2"
            fill-rule="evenodd"
            clip-rule="evenodd"
            d="M788.688 140.394C788.688 138.221 790.483 136.459 792.698 136.459H883.607C885.822 136.459 887.618 138.221 887.618 140.394C887.618 142.567 885.822 144.328 883.607 144.328H792.698C790.483 144.328 788.688 142.567 788.688 140.394Z"
            fill="#CCCCCC"
          />
          <path
            id="Line 94 (Stroke)_3"
            fill-rule="evenodd"
            clip-rule="evenodd"
            d="M788.688 117.909C788.688 115.736 790.483 113.975 792.698 113.975H883.607C885.822 113.975 887.618 115.736 887.618 117.909C887.618 120.082 885.822 121.844 883.607 121.844H792.698C790.483 121.844 788.688 120.082 788.688 117.909Z"
            fill="#CCCCCC"
          />
          <path
            id="Line 94 (Stroke)_4"
            fill-rule="evenodd"
            clip-rule="evenodd"
            d="M788.688 129.152C788.688 126.978 790.483 125.217 792.698 125.217H883.607C885.822 125.217 887.618 126.978 887.618 129.152C887.618 131.325 885.822 133.086 883.607 133.086H792.698C790.483 133.086 788.688 131.325 788.688 129.152Z"
            fill="#999999"
          />
          <rect
            id="Rectangle 345"
            x="788.688"
            y="154.807"
            width="61.8315"
            height="28.1052"
            rx="6"
            fill="#C3CCCC"
          />
          <rect
            id="Rectangle 346"
            width="33.7263"
            height="28.1052"
            rx="6"
            transform="matrix(-1 0 0 1 887.617 154.807)"
            fill="#666666"
          />
        </g>
      </g>
      <text
        id="Ocketio Admin Site"
        fill="#101010"
        xml:space="preserve"
        style="white-space: pre"
        font-family="Poppins"
        font-size="15"
        font-weight="600"
        letter-spacing="0.025em"
      >
        <tspan x="789.591" y="44.25">Ocketio&#10;</tspan>
        <tspan x="776.878" y="62.25">Admin Site</tspan>
      </text>
    </g>
    <g id="Ocketio-User-Site-Card">
      <text
        id="Ocketio User Site"
        fill="#101010"
        xml:space="preserve"
        style="white-space: pre"
        font-family="Poppins"
        font-size="15"
        font-weight="600"
        letter-spacing="0.025em"
      >
        <tspan x="434.473" y="44.25">Ocketio&#10;</tspan>
        <tspan x="430.326" y="62.25">User Site</tspan>
      </text>
      <g id="Ocketio-User-Site">
        <g id="Site-Background_2">
          <rect
            id="Rectangle 339_2"
            x="388.465"
            y="78.1934"
            width="151.768"
            height="109.048"
            rx="2"
            fill="#101010"
          />
          <rect
            id="Rectangle 340_2"
            x="390.713"
            y="80.4434"
            width="147.271"
            height="104.551"
            rx="2"
            fill="#F5F5F5"
          />
        </g>
        <g id="Site-Mockup">
          <g id="Group 821">
            <path
              id="Line 94 (Stroke)_5"
              fill-rule="evenodd"
              clip-rule="evenodd"
              d="M410.949 127.095C410.949 126.163 411.704 125.408 412.636 125.408H450.859C451.79 125.408 452.545 126.163 452.545 127.095C452.545 128.026 451.79 128.781 450.859 128.781H412.636C411.704 128.781 410.949 128.026 410.949 127.095Z"
              fill="#999999"
            />
            <path
              id="Line 95 (Stroke)"
              fill-rule="evenodd"
              clip-rule="evenodd"
              d="M410.949 132.716C410.949 131.784 411.704 131.029 412.636 131.029H439.617C440.548 131.029 441.303 131.784 441.303 132.716C441.303 133.647 440.548 134.402 439.617 134.402H412.636C411.704 134.402 410.949 133.647 410.949 132.716Z"
              fill="#999999"
            />
            <path
              id="Line 96 (Stroke)"
              fill-rule="evenodd"
              clip-rule="evenodd"
              d="M410.949 140.023C410.949 139.402 411.453 138.898 412.073 138.898H444.675C445.296 138.898 445.8 139.402 445.8 140.023C445.8 140.644 445.296 141.147 444.675 141.147H412.073C411.453 141.147 410.949 140.644 410.949 140.023Z"
              fill="#CCCCCC"
            />
            <path
              id="Line 97 (Stroke)"
              fill-rule="evenodd"
              clip-rule="evenodd"
              d="M410.949 143.396C410.949 142.775 411.453 142.271 412.073 142.271H441.303C441.924 142.271 442.427 142.775 442.427 143.396C442.427 144.017 441.924 144.52 441.303 144.52H412.073C411.453 144.52 410.949 144.017 410.949 143.396Z"
              fill="#CCCCCC"
            />
            <path
              id="Line 98 (Stroke)"
              fill-rule="evenodd"
              clip-rule="evenodd"
              d="M410.949 146.769C410.949 146.148 411.453 145.645 412.073 145.645H426.688C427.309 145.645 427.812 146.148 427.812 146.769C427.812 147.39 427.309 147.893 426.688 147.893H412.073C411.453 147.893 410.949 147.39 410.949 146.769Z"
              fill="#CCCCCC"
            />
          </g>
          <rect
            id="Rectangle 342"
            x="467.16"
            y="118.664"
            width="47.2168"
            height="35.9747"
            rx="2"
            fill="#C3CCCC"
          />
          <rect
            id="Rectangle 343"
            x="484.023"
            y="140.023"
            width="35.9747"
            height="8.99367"
            rx="2"
            fill="#999999"
          />
        </g>
        <g id="Site-Toolbar_2">
          <rect
            id="Rectangle 341_2"
            x="392.963"
            y="82.6895"
            width="142.775"
            height="14.6147"
            rx="1"
            fill="#101010"
          />
          <circle
            id="Ellipse 484_2"
            cx="400.271"
            cy="89.9961"
            r="2.81052"
            fill="#333333"
          />
          <circle
            id="Ellipse 485_2"
            cx="408.139"
            cy="89.9961"
            r="2.81052"
            fill="#666666"
          />
          <circle
            id="Ellipse 486_2"
            cx="416.01"
            cy="89.9961"
            r="2.81052"
            fill="#CCCCCC"
          />
        </g>
      </g>
    </g>
    <g id="Ocketio-Cloud-Services-Card">
      <text
        id="Ocketio Cloud Services"
        fill="#101010"
        xml:space="preserve"
        style="white-space: pre"
        font-family="Poppins"
        font-size="15"
        font-weight="600"
        letter-spacing="0.025em"
      >
        <tspan x="612.578" y="14.25">Ocketio&#10;</tspan>
        <tspan x="583.961" y="32.25">Cloud Services</tspan>
      </text>
      <g id="Server-Stack">
        <g id="Server-Icon">
          <rect
            id="Rectangle 347"
            x="584.082"
            y="115.453"
            width="115.794"
            height="30.3536"
            rx="3"
            fill="#101010"
          />
          <rect
            id="Rectangle 348"
            x="586.33"
            y="117.703"
            width="111.297"
            height="25.8568"
            rx="2"
            fill="#F5F5F5"
          />
          <path
            id="Ellipse_180"
            d="M599.259 136.812C602.674 136.812 605.442 134.043 605.442 130.628C605.442 127.214 602.674 124.445 599.259 124.445C595.844 124.445 593.076 127.214 593.076 130.628C593.076 134.043 595.844 136.812 599.259 136.812Z"
            fill="#666666"
          />
        </g>
        <g id="Server-Icon_2">
          <rect
            id="Rectangle 347_2"
            x="584.082"
            y="81.7246"
            width="115.794"
            height="30.3536"
            rx="3"
            fill="#101010"
          />
          <rect
            id="Rectangle 348_2"
            x="586.33"
            y="83.9746"
            width="111.297"
            height="25.8568"
            rx="2"
            fill="#F5F5F5"
          />
          <path
            id="Ellipse_180_2"
            d="M599.259 103.083C602.674 103.083 605.442 100.315 605.442 96.8999C605.442 93.4851 602.674 90.7168 599.259 90.7168C595.844 90.7168 593.076 93.4851 593.076 96.8999C593.076 100.315 595.844 103.083 599.259 103.083Z"
            fill="#333333"
          />
        </g>
        <g id="Server-Icon_3">
          <rect
            id="Rectangle 347_3"
            x="584.082"
            y="48"
            width="115.794"
            height="30.3536"
            rx="3"
            fill="#101010"
          />
          <rect
            id="Rectangle 348_3"
            x="586.33"
            y="50.25"
            width="111.297"
            height="25.8568"
            rx="2"
            fill="#F5F5F5"
          />
          <path
            id="Ellipse_180_3"
            d="M599.259 69.3585C602.674 69.3585 605.442 66.5902 605.442 63.1753C605.442 59.7605 602.674 56.9922 599.259 56.9922C595.844 56.9922 593.076 59.7605 593.076 63.1753C593.076 66.5902 595.844 69.3585 599.259 69.3585Z"
            fill="#101010"
          />
        </g>
      </g>
    </g>
    <g id="Ocketio-Host-Machine-Card">
      <text
        id="Host Machine (Wirewise Gateway)"
        fill="#101010"
        xml:space="preserve"
        style="white-space: pre"
        font-family="Poppins"
        font-size="15"
        font-weight="600"
        letter-spacing="0.025em"
      >
        <tspan x="971.932" y="292.25">Host Machine&#10;</tspan>
        <tspan x="971.932" y="310.25">(Wirewise Gateway)</tspan>
      </text>
      <g id="Server-Icon_4">
        <rect
          id="Rectangle 347_4"
          x="862.883"
          y="279.424"
          width="96.682"
          height="35.9747"
          rx="3"
          fill="#101010"
        />
        <rect
          id="Rectangle 348_4"
          x="865.131"
          y="281.674"
          width="92.1852"
          height="31.4779"
          rx="2"
          fill="#F5F5F5"
        />
        <path
          id="Ellipse_180_4"
          d="M878.06 303.032C881.475 303.032 884.243 300.264 884.243 296.849C884.243 293.434 881.475 290.666 878.06 290.666C874.645 290.666 871.877 293.434 871.877 296.849C871.877 300.264 874.645 303.032 878.06 303.032Z"
          fill="#101010"
        />
      </g>
    </g>
    <g id="Ocketio-Host-Machine-Card_2">
      <text
        id="Host Machine (Wirewise Gateway)_2"
        fill="#101010"
        xml:space="preserve"
        style="white-space: pre"
        font-family="Poppins"
        font-size="15"
        font-weight="600"
        letter-spacing="0.025em"
      >
        <tspan x="585.682" y="345.25">Host Machine&#10;</tspan>
        <tspan x="585.682" y="363.25">(Wirewise Gateway)</tspan>
      </text>
      <g id="Server-Icon_5">
        <rect
          id="Rectangle 347_5"
          x="477"
          y="332.264"
          width="96.682"
          height="35.9747"
          rx="3"
          fill="#101010"
        />
        <rect
          id="Rectangle 348_5"
          x="479.248"
          y="334.514"
          width="92.1852"
          height="31.4779"
          rx="2"
          fill="#F5F5F5"
        />
        <path
          id="Ellipse_180_5"
          d="M492.177 355.872C495.592 355.872 498.36 353.104 498.36 349.689C498.36 346.274 495.592 343.506 492.177 343.506C488.762 343.506 485.994 346.274 485.994 349.689C485.994 353.104 488.762 355.872 492.177 355.872Z"
          fill="#101010"
        />
      </g>
    </g>
    <g id="Ocketio-Users-and-Enabled-Devices-Card">
      <text
        id="Ocketio Users with Enabled Devices"
        fill="#101010"
        xml:space="preserve"
        style="white-space: pre"
        font-family="Poppins"
        font-size="15"
        font-weight="600"
        letter-spacing="0.025em"
      >
        <tspan x="7.41016" y="181.256">Ocketio Users with&#10;</tspan>
        <tspan x="23.7256" y="199.256">Enabled Devices</tspan>
      </text>
      <g id="Ocketio-User-Card--One-Device">
        <g id="device-showcase">
          <rect
            id="bg"
            x="32.8711"
            y="273.805"
            width="145.023"
            height="74.1978"
            rx="3"
            fill="#C3CCCC"
          />
          <g id="laptop">
            <rect
              id="Rectangle 353"
              x="77.8398"
              y="287.295"
              width="55.0863"
              height="39.3473"
              rx="4"
              fill="#F5F5F5"
            />
            <path
              id="laptop_2"
              d="M128.183 290.294C128.733 290.294 129.26 290.511 129.649 290.898C130.038 291.284 130.256 291.808 130.256 292.355V323.271H105.383H80.5098V292.355C80.5098 291.808 80.7282 291.284 81.1169 290.898C81.5056 290.511 82.0328 290.294 82.5826 290.294H128.183ZM82.5826 286.172C80.9334 286.172 79.3517 286.823 78.1856 287.983C77.0194 289.142 76.3643 290.715 76.3643 292.355V327.393H134.402V292.355C134.402 290.715 133.746 289.142 132.58 287.983C131.414 286.823 129.832 286.172 128.183 286.172H82.5826ZM72.2188 329.454H138.547C138.547 331.094 137.892 332.667 136.726 333.826C135.56 334.986 133.978 335.637 132.329 335.637H78.437C76.7878 335.637 75.2062 334.986 74.04 333.826C72.8739 332.667 72.2188 331.094 72.2188 329.454Z"
              fill="#101010"
            />
          </g>
        </g>
        <g id="pfp">
          <path
            id="Polygon 2_4"
            d="M31.7614 247.058C33.7726 245.897 36.2503 245.897 38.2614 247.058L60.0511 259.638C62.0622 260.799 63.3011 262.945 63.3011 265.267V290.428C63.3011 292.75 62.0622 294.896 60.0511 296.057L38.2614 308.637C36.2503 309.798 33.7726 309.798 31.7614 308.637L9.97176 296.057C7.96066 294.896 6.72176 292.75 6.72176 290.428V265.267C6.72176 262.945 7.96065 260.799 9.97176 259.638L31.7614 247.058Z"
            fill="#333333"
            stroke="#F5F5F5"
            stroke-width="3"
          />
          <path
            id="Vector_4"
            d="M20.6022 295.878C21.3867 294.064 22.525 292.417 23.9539 291.027C25.3784 289.634 27.0659 288.522 28.9231 287.755C28.9398 287.747 28.9564 287.743 28.973 287.735C26.3824 285.908 24.6982 282.932 24.6982 279.575C24.6982 274.014 29.314 269.508 35.011 269.508C40.7079 269.508 45.3237 274.014 45.3237 279.575C45.3237 282.932 43.6395 285.908 41.0489 287.739C41.0655 287.747 41.0822 287.751 41.0988 287.759C42.9617 288.526 44.6334 289.627 46.068 291.031C47.4956 292.422 48.6337 294.069 49.4197 295.882C50.1918 297.657 50.6082 299.56 50.6464 301.488C50.6475 301.532 50.6397 301.575 50.6235 301.615C50.6073 301.655 50.5829 301.692 50.5519 301.723C50.5209 301.754 50.4839 301.779 50.443 301.796C50.4021 301.813 50.3581 301.821 50.3137 301.821H47.8187C47.6357 301.821 47.4902 301.679 47.486 301.505C47.4029 298.371 46.1138 295.436 43.835 293.211C41.4772 290.909 38.346 289.643 35.011 289.643C31.676 289.643 28.5447 290.909 26.1869 293.211C23.9081 295.436 22.619 298.371 22.5359 301.505C22.5317 301.683 22.3862 301.821 22.2032 301.821H19.7082C19.6638 301.821 19.6199 301.813 19.5789 301.796C19.538 301.779 19.501 301.754 19.47 301.723C19.439 301.692 19.4146 301.655 19.3984 301.615C19.3822 301.575 19.3744 301.532 19.3755 301.488C19.4171 299.548 19.8288 297.66 20.6022 295.878ZM35.011 286.558C36.9196 286.558 38.7161 285.831 40.0675 284.512C41.419 283.192 42.1633 281.439 42.1633 279.575C42.1633 277.712 41.419 275.958 40.0675 274.639C38.7161 273.32 36.9196 272.593 35.011 272.593C33.1023 272.593 31.3059 273.32 29.9544 274.639C28.6029 275.958 27.8586 277.712 27.8586 279.575C27.8586 281.439 28.6029 283.192 29.9544 284.512C31.3059 285.831 33.1023 286.558 35.011 286.558Z"
            fill="#F5F5F5"
          />
        </g>
      </g>
      <g id="Ocketio-User-Card--Two-Devices">
        <g id="device-showcase_2">
          <rect
            id="bg_2"
            x="164.406"
            y="124.289"
            width="145.023"
            height="74.1978"
            rx="3"
            fill="#C3CCCC"
          />
          <g id="laptop_3">
            <rect
              id="Rectangle 353_2"
              x="209.375"
              y="137.779"
              width="55.0863"
              height="39.3473"
              rx="4"
              fill="#F5F5F5"
            />
            <path
              id="laptop_4"
              d="M259.718 140.778C260.268 140.778 260.795 140.995 261.184 141.382C261.573 141.769 261.791 142.293 261.791 142.839V173.755H236.918H212.045V142.839C212.045 142.293 212.263 141.769 212.652 141.382C213.041 140.995 213.568 140.778 214.118 140.778H259.718ZM214.118 136.656C212.469 136.656 210.887 137.308 209.721 138.467C208.555 139.627 207.899 141.2 207.899 142.839V177.877H265.937V142.839C265.937 141.2 265.282 139.627 264.115 138.467C262.949 137.308 261.368 136.656 259.718 136.656H214.118ZM203.754 179.938H270.082C270.082 181.578 269.427 183.151 268.261 184.31C267.095 185.47 265.513 186.121 263.864 186.121H209.972C208.323 186.121 206.741 185.47 205.575 184.31C204.409 183.151 203.754 181.578 203.754 179.938Z"
              fill="#101010"
            />
          </g>
          <g id="tablet">
            <rect
              id="Rectangle 352"
              x="259.965"
              y="154.643"
              width="29.2294"
              height="38.2231"
              rx="5"
              fill="#F5F5F5"
            />
            <path
              id="Vector_5"
              d="M274.58 188.368C275.177 188.368 275.749 188.131 276.17 187.709C276.592 187.288 276.829 186.716 276.829 186.12C276.829 185.523 276.592 184.951 276.17 184.53C275.749 184.108 275.177 183.871 274.58 183.871C273.984 183.871 273.412 184.108 272.991 184.53C272.569 184.951 272.332 185.523 272.332 186.12C272.332 186.716 272.569 187.288 272.991 187.709C273.412 188.131 273.984 188.368 274.58 188.368Z"
              fill="#101010"
            />
            <path
              id="Vector_6"
              d="M284.323 157.032C284.969 157.032 285.588 157.283 286.045 157.731C286.502 158.179 286.758 158.787 286.758 159.42V188.088C286.758 188.721 286.502 189.329 286.045 189.777C285.588 190.225 284.969 190.477 284.323 190.477H264.836C264.19 190.477 263.571 190.225 263.114 189.777C262.657 189.329 262.401 188.721 262.401 188.088V159.42C262.401 158.787 262.657 158.179 263.114 157.731C263.571 157.283 264.19 157.032 264.836 157.032H274.58H284.323ZM264.836 154.643C263.544 154.643 262.305 155.146 261.392 156.042C260.478 156.938 259.965 158.153 259.965 159.42V188.088C259.965 189.355 260.478 190.57 261.392 191.466C262.305 192.362 263.544 192.866 264.836 192.866H284.323C285.615 192.866 286.854 192.362 287.767 191.466C288.681 190.57 289.194 189.355 289.194 188.088V159.42C289.194 158.153 288.681 156.938 287.767 156.042C286.854 155.146 285.615 154.643 284.323 154.643H264.836Z"
              fill="#101010"
            />
          </g>
        </g>
        <g id="pfp_2">
          <path
            id="Polygon 2_5"
            d="M163.761 97.0577C165.773 95.8965 168.25 95.8965 170.261 97.0577L192.051 109.638C194.062 110.799 195.301 112.945 195.301 115.267V140.428C195.301 142.75 194.062 144.896 192.051 146.057L170.261 158.637C168.25 159.798 165.773 159.798 163.761 158.637L141.972 146.057C139.961 144.896 138.722 142.75 138.722 140.428V115.267C138.722 112.945 139.961 110.799 141.972 109.638L163.761 97.0577Z"
            fill="#333333"
            stroke="#F5F5F5"
            stroke-width="3"
          />
          <path
            id="Vector_7"
            d="M152.602 145.878C153.387 144.064 154.525 142.417 155.954 141.027C157.378 139.634 159.066 138.522 160.923 137.755C160.94 137.747 160.956 137.743 160.973 137.735C158.382 135.908 156.698 132.932 156.698 129.575C156.698 124.014 161.314 119.508 167.011 119.508C172.708 119.508 177.324 124.014 177.324 129.575C177.324 132.932 175.64 135.908 173.049 137.739C173.066 137.747 173.082 137.751 173.099 137.759C174.962 138.526 176.633 139.627 178.068 141.031C179.496 142.422 180.634 144.069 181.42 145.882C182.192 147.657 182.608 149.56 182.646 151.488C182.647 151.532 182.64 151.575 182.623 151.615C182.607 151.655 182.583 151.692 182.552 151.723C182.521 151.754 182.484 151.779 182.443 151.796C182.402 151.813 182.358 151.821 182.314 151.821H179.819C179.636 151.821 179.49 151.679 179.486 151.505C179.403 148.371 178.114 145.436 175.835 143.211C173.477 140.909 170.346 139.643 167.011 139.643C163.676 139.643 160.545 140.909 158.187 143.211C155.908 145.436 154.619 148.371 154.536 151.505C154.532 151.683 154.386 151.821 154.203 151.821H151.708C151.664 151.821 151.62 151.813 151.579 151.796C151.538 151.779 151.501 151.754 151.47 151.723C151.439 151.692 151.415 151.655 151.398 151.615C151.382 151.575 151.374 151.532 151.376 151.488C151.417 149.548 151.829 147.66 152.602 145.878ZM167.011 136.558C168.92 136.558 170.716 135.831 172.068 134.512C173.419 133.192 174.163 131.439 174.163 129.575C174.163 127.712 173.419 125.958 172.068 124.639C170.716 123.32 168.92 122.593 167.011 122.593C165.102 122.593 163.306 123.32 161.954 124.639C160.603 125.958 159.859 127.712 159.859 129.575C159.859 131.439 160.603 133.192 161.954 134.512C163.306 135.831 165.102 136.558 167.011 136.558Z"
            fill="#F5F5F5"
          />
        </g>
      </g>
      <g id="Ocketio-User-Card--All-Devices">
        <g id="device-showcase_3">
          <rect
            id="bg_3"
            x="136.301"
            y="436.818"
            width="145.023"
            height="74.1978"
            rx="3"
            fill="#C3CCCC"
          />
          <g id="laptop_5">
            <rect
              id="Rectangle 353_3"
              x="181.27"
              y="450.307"
              width="55.0863"
              height="39.3473"
              rx="4"
              fill="#F5F5F5"
            />
            <path
              id="laptop_6"
              d="M231.613 453.306C232.163 453.306 232.69 453.523 233.079 453.909C233.467 454.296 233.686 454.82 233.686 455.367V486.282H208.813H183.939V455.367C183.939 454.82 184.158 454.296 184.547 453.909C184.935 453.523 185.463 453.306 186.012 453.306H231.613ZM186.012 449.184C184.363 449.184 182.781 449.835 181.615 450.995C180.449 452.154 179.794 453.727 179.794 455.367V490.405H237.831V455.367C237.831 453.727 237.176 452.154 236.01 450.995C234.844 449.835 233.262 449.184 231.613 449.184H186.012ZM175.648 492.466H241.977C241.977 494.106 241.322 495.678 240.155 496.838C238.989 497.997 237.408 498.649 235.759 498.649H181.867C180.218 498.649 178.636 497.997 177.47 496.838C176.304 495.678 175.648 494.106 175.648 492.466Z"
              fill="#101010"
            />
          </g>
          <g id="tablet_2">
            <rect
              id="Rectangle 352_2"
              x="231.859"
              y="467.172"
              width="29.2294"
              height="38.2231"
              rx="5"
              fill="#F5F5F5"
            />
            <path
              id="Vector_8"
              d="M246.475 500.897C247.071 500.897 247.643 500.66 248.065 500.239C248.487 499.817 248.723 499.245 248.723 498.649C248.723 498.052 248.487 497.481 248.065 497.059C247.643 496.637 247.071 496.4 246.475 496.4C245.879 496.4 245.307 496.637 244.885 497.059C244.463 497.481 244.227 498.052 244.227 498.649C244.227 499.245 244.463 499.817 244.885 500.239C245.307 500.66 245.879 500.897 246.475 500.897Z"
              fill="#101010"
            />
            <path
              id="Vector_9"
              d="M256.217 469.561C256.863 469.561 257.483 469.813 257.94 470.261C258.396 470.709 258.653 471.316 258.653 471.95V500.617C258.653 501.251 258.396 501.858 257.94 502.306C257.483 502.754 256.863 503.006 256.217 503.006H236.731C236.085 503.006 235.465 502.754 235.009 502.306C234.552 501.858 234.295 501.251 234.295 500.617V471.95C234.295 471.316 234.552 470.709 235.009 470.261C235.465 469.813 236.085 469.561 236.731 469.561H246.474H256.217ZM236.731 467.172C235.439 467.172 234.2 467.675 233.286 468.571C232.373 469.467 231.859 470.683 231.859 471.95V500.617C231.859 501.884 232.373 503.1 233.286 503.996C234.2 504.892 235.439 505.395 236.731 505.395H256.217C257.509 505.395 258.748 504.892 259.662 503.996C260.576 503.1 261.089 501.884 261.089 500.617V471.95C261.089 470.683 260.576 469.467 259.662 468.571C258.748 467.675 257.509 467.172 256.217 467.172H236.731Z"
              fill="#101010"
            />
          </g>
          <g id="phone">
            <rect
              id="Rectangle 352_3"
              x="173.398"
              y="458.178"
              width="14.6147"
              height="25.8568"
              rx="3"
              fill="#F5F5F5"
            />
            <path
              id="Vector_10"
              d="M185.09 459.794C185.478 459.794 185.85 459.964 186.124 460.267C186.398 460.57 186.552 460.981 186.552 461.41V480.802C186.552 481.231 186.398 481.642 186.124 481.945C185.85 482.248 185.478 482.418 185.09 482.418H176.321C175.934 482.418 175.562 482.248 175.288 481.945C175.014 481.642 174.86 481.231 174.86 480.802V461.41C174.86 460.981 175.014 460.57 175.288 460.267C175.562 459.964 175.934 459.794 176.321 459.794H185.09ZM176.321 458.178C175.546 458.178 174.803 458.518 174.255 459.124C173.706 459.731 173.398 460.553 173.398 461.41V480.802C173.398 481.66 173.706 482.482 174.255 483.088C174.803 483.694 175.546 484.035 176.321 484.035H185.09C185.865 484.035 186.609 483.694 187.157 483.088C187.705 482.482 188.013 481.66 188.013 480.802V461.41C188.013 460.553 187.705 459.731 187.157 459.124C186.609 458.518 185.865 458.178 185.09 458.178H176.321Z"
              fill="#101010"
            />
            <path
              id="Vector_11"
              d="M180.707 481.786C180.856 481.786 180.999 481.727 181.104 481.622C181.21 481.516 181.269 481.373 181.269 481.224C181.269 481.075 181.21 480.932 181.104 480.827C180.999 480.721 180.856 480.662 180.707 480.662C180.558 480.662 180.415 480.721 180.309 480.827C180.204 480.932 180.145 481.075 180.145 481.224C180.145 481.373 180.204 481.516 180.309 481.622C180.415 481.727 180.558 481.786 180.707 481.786Z"
              fill="#101010"
            />
          </g>
        </g>
        <g id="pfp_3">
          <path
            id="Polygon 2_6"
            d="M134.761 410.058C136.773 408.897 139.25 408.897 141.261 410.058L163.051 422.638C165.062 423.799 166.301 425.945 166.301 428.267V453.428C166.301 455.75 165.062 457.896 163.051 459.057L141.261 471.637C139.25 472.798 136.773 472.798 134.761 471.637L112.972 459.057C110.961 457.896 109.722 455.75 109.722 453.428V428.267C109.722 425.945 110.961 423.799 112.972 422.638L134.761 410.058Z"
            fill="#333333"
            stroke="#F5F5F5"
            stroke-width="3"
          />
          <path
            id="Vector_12"
            d="M123.602 458.878C124.387 457.064 125.525 455.417 126.954 454.027C128.378 452.634 130.066 451.522 131.923 450.755C131.94 450.747 131.956 450.743 131.973 450.735C129.382 448.908 127.698 445.932 127.698 442.575C127.698 437.014 132.314 432.508 138.011 432.508C143.708 432.508 148.324 437.014 148.324 442.575C148.324 445.932 146.64 448.908 144.049 450.739C144.066 450.747 144.082 450.751 144.099 450.759C145.962 451.526 147.633 452.627 149.068 454.031C150.496 455.422 151.634 457.069 152.42 458.882C153.192 460.657 153.608 462.56 153.646 464.488C153.647 464.532 153.64 464.575 153.623 464.615C153.607 464.655 153.583 464.692 153.552 464.723C153.521 464.754 153.484 464.779 153.443 464.796C153.402 464.813 153.358 464.821 153.314 464.821H150.819C150.636 464.821 150.49 464.679 150.486 464.505C150.403 461.371 149.114 458.436 146.835 456.211C144.477 453.909 141.346 452.643 138.011 452.643C134.676 452.643 131.545 453.909 129.187 456.211C126.908 458.436 125.619 461.371 125.536 464.505C125.532 464.683 125.386 464.821 125.203 464.821H122.708C122.664 464.821 122.62 464.813 122.579 464.796C122.538 464.779 122.501 464.754 122.47 464.723C122.439 464.692 122.415 464.655 122.398 464.615C122.382 464.575 122.374 464.532 122.376 464.488C122.417 462.548 122.829 460.66 123.602 458.878ZM138.011 449.558C139.92 449.558 141.716 448.831 143.068 447.512C144.419 446.192 145.163 444.439 145.163 442.575C145.163 440.712 144.419 438.958 143.068 437.639C141.716 436.32 139.92 435.593 138.011 435.593C136.102 435.593 134.306 436.32 132.954 437.639C131.603 438.958 130.859 440.712 130.859 442.575C130.859 444.439 131.603 446.192 132.954 447.512C134.306 448.831 136.102 449.558 138.011 449.558Z"
            fill="#F5F5F5"
          />
        </g>
      </g>
    </g>
    <g id="Ocketio-Cloud-Services-Card_2">
      <text
        id="Cloud Services (AWS, Azure, etc.)"
        fill="#101010"
        xml:space="preserve"
        style="white-space: pre"
        font-family="Poppins"
        font-size="15"
        font-weight="600"
        letter-spacing="0.025em"
      >
        <tspan x="477" y="566.779">Cloud Services&#10;</tspan>
        <tspan x="477" y="584.779">(AWS, Azure, etc.)</tspan>
      </text>
      <g id="Server-Stack_2">
        <g id="Server-Icon_6">
          <rect
            id="Rectangle 347_6"
            x="477"
            y="509.812"
            width="115.794"
            height="30.3536"
            rx="3"
            fill="#101010"
          />
          <rect
            id="Rectangle 348_6"
            x="479.248"
            y="512.062"
            width="111.297"
            height="25.8568"
            rx="2"
            fill="#F5F5F5"
          />
          <path
            id="Ellipse_180_6"
            d="M492.177 531.171C495.592 531.171 498.36 528.403 498.36 524.988C498.36 521.573 495.592 518.805 492.177 518.805C488.762 518.805 485.994 521.573 485.994 524.988C485.994 528.403 488.762 531.171 492.177 531.171Z"
            fill="#666666"
          />
        </g>
        <g id="Server-Icon_7">
          <rect
            id="Rectangle 347_7"
            x="477"
            y="476.084"
            width="115.794"
            height="30.3536"
            rx="3"
            fill="#101010"
          />
          <rect
            id="Rectangle 348_7"
            x="479.248"
            y="478.334"
            width="111.297"
            height="25.8568"
            rx="2"
            fill="#F5F5F5"
          />
          <path
            id="Ellipse_180_7"
            d="M492.177 497.442C495.592 497.442 498.36 494.674 498.36 491.259C498.36 487.844 495.592 485.076 492.177 485.076C488.762 485.076 485.994 487.844 485.994 491.259C485.994 494.674 488.762 497.442 492.177 497.442Z"
            fill="#333333"
          />
        </g>
        <g id="Server-Icon_8">
          <rect
            id="Rectangle 347_8"
            x="477"
            y="442.359"
            width="115.794"
            height="30.3536"
            rx="3"
            fill="#101010"
          />
          <rect
            id="Rectangle 348_8"
            x="479.248"
            y="444.609"
            width="111.297"
            height="25.8568"
            rx="2"
            fill="#F5F5F5"
          />
          <path
            id="Ellipse_180_8"
            d="M492.177 463.718C495.592 463.718 498.36 460.95 498.36 457.535C498.36 454.12 495.592 451.352 492.177 451.352C488.762 451.352 485.994 454.12 485.994 457.535C485.994 460.95 488.762 463.718 492.177 463.718Z"
            fill="#101010"
          />
        </g>
      </g>
    </g>
    <g id="Ocketio-Corporate-Network-Card">
      <text
        id="Corporate Network"
        fill="#101010"
        xml:space="preserve"
        style="white-space: pre"
        font-family="Poppins"
        font-size="15"
        font-weight="600"
        letter-spacing="0.025em"
      >
        <tspan x="973.111" y="525.682">Corporate Network</tspan>
      </text>
      <g id="Network-Icon">
        <rect
          id="bg_4"
          x="865.256"
          y="390.766"
          width="367.368"
          height="108.8"
          rx="4"
          fill="#CCCCCC"
          stroke="#101010"
          stroke-width="2"
        />
        <g id="Server-Stack_3">
          <g id="Server-Icon_9">
            <rect
              id="Rectangle 347_9"
              x="870.754"
              y="463.715"
              width="115.794"
              height="30.3536"
              rx="3"
              fill="#101010"
            />
            <path
              id="Ellipse_180_9"
              d="M885.931 485.073C889.346 485.073 892.114 482.305 892.114 478.89C892.114 475.475 889.346 472.707 885.931 472.707C882.516 472.707 879.748 475.475 879.748 478.89C879.748 482.305 882.516 485.073 885.931 485.073Z"
              fill="#999999"
            />
          </g>
          <g id="Server-Icon_10">
            <rect
              id="Rectangle 347_10"
              x="870.754"
              y="429.986"
              width="115.794"
              height="30.3536"
              rx="3"
              fill="#101010"
            />
            <path
              id="Ellipse_180_10"
              d="M885.931 451.345C889.346 451.345 892.114 448.577 892.114 445.162C892.114 441.747 889.346 438.979 885.931 438.979C882.516 438.979 879.748 441.747 879.748 445.162C879.748 448.577 882.516 451.345 885.931 451.345Z"
              fill="#666666"
            />
          </g>
          <g id="Server-Icon_11">
            <rect
              id="Rectangle 347_11"
              x="870.754"
              y="396.262"
              width="115.794"
              height="30.3536"
              rx="3"
              fill="#101010"
            />
            <path
              id="Ellipse_180_11"
              d="M885.931 417.62C889.346 417.62 892.114 414.852 892.114 411.437C892.114 408.022 889.346 405.254 885.931 405.254C882.516 405.254 879.748 408.022 879.748 411.437C879.748 414.852 882.516 417.62 885.931 417.62Z"
              fill="#333333"
            />
          </g>
        </g>
        <g id="Server-Stack_4">
          <g id="Server-Icon_12">
            <rect
              id="Rectangle 347_12"
              x="991.045"
              y="463.715"
              width="115.794"
              height="30.3536"
              rx="3"
              fill="#101010"
            />
            <path
              id="Ellipse_180_12"
              d="M1006.22 485.073C1009.64 485.073 1012.41 482.305 1012.41 478.89C1012.41 475.475 1009.64 472.707 1006.22 472.707C1002.81 472.707 1000.04 475.475 1000.04 478.89C1000.04 482.305 1002.81 485.073 1006.22 485.073Z"
              fill="#999999"
            />
          </g>
          <g id="Server-Icon_13">
            <rect
              id="Rectangle 347_13"
              x="991.045"
              y="429.986"
              width="115.794"
              height="30.3536"
              rx="3"
              fill="#101010"
            />
            <path
              id="Ellipse_180_13"
              d="M1006.22 451.345C1009.64 451.345 1012.41 448.577 1012.41 445.162C1012.41 441.747 1009.64 438.979 1006.22 438.979C1002.81 438.979 1000.04 441.747 1000.04 445.162C1000.04 448.577 1002.81 451.345 1006.22 451.345Z"
              fill="#666666"
            />
          </g>
          <g id="Server-Icon_14">
            <rect
              id="Rectangle 347_14"
              x="991.045"
              y="396.262"
              width="115.794"
              height="30.3536"
              rx="3"
              fill="#101010"
            />
            <path
              id="Ellipse_180_14"
              d="M1006.22 417.62C1009.64 417.62 1012.41 414.852 1012.41 411.437C1012.41 408.022 1009.64 405.254 1006.22 405.254C1002.81 405.254 1000.04 408.022 1000.04 411.437C1000.04 414.852 1002.81 417.62 1006.22 417.62Z"
              fill="#333333"
            />
          </g>
        </g>
        <g id="Server-Stack_5">
          <g id="Server-Icon_15">
            <rect
              id="Rectangle 347_15"
              x="1111.33"
              y="463.715"
              width="115.794"
              height="30.3536"
              rx="3"
              fill="#101010"
            />
            <path
              id="Ellipse_180_15"
              d="M1126.51 485.073C1129.93 485.073 1132.69 482.305 1132.69 478.89C1132.69 475.475 1129.93 472.707 1126.51 472.707C1123.1 472.707 1120.33 475.475 1120.33 478.89C1120.33 482.305 1123.1 485.073 1126.51 485.073Z"
              fill="#999999"
            />
          </g>
          <g id="Server-Icon_16">
            <rect
              id="Rectangle 347_16"
              x="1111.33"
              y="429.986"
              width="115.794"
              height="30.3536"
              rx="3"
              fill="#101010"
            />
            <path
              id="Ellipse_180_16"
              d="M1126.51 451.345C1129.93 451.345 1132.69 448.577 1132.69 445.162C1132.69 441.747 1129.93 438.979 1126.51 438.979C1123.1 438.979 1120.33 441.747 1120.33 445.162C1120.33 448.577 1123.1 451.345 1126.51 451.345Z"
              fill="#666666"
            />
          </g>
          <g id="Server-Icon_17">
            <rect
              id="Rectangle 347_17"
              x="1111.33"
              y="396.262"
              width="115.794"
              height="30.3536"
              rx="3"
              fill="#101010"
            />
            <path
              id="Ellipse_180_17"
              d="M1126.51 417.62C1129.93 417.62 1132.69 414.852 1132.69 411.437C1132.69 408.022 1129.93 405.254 1126.51 405.254C1123.1 405.254 1120.33 408.022 1120.33 411.437C1120.33 414.852 1123.1 417.62 1126.51 417.62Z"
              fill="#333333"
            />
          </g>
        </g>
      </g>
    </g>
  </g>
</svg>
