<svg width="1180" height="832" viewBox="0 0 1180 832" fill="none" xmlns="http://www.w3.org/2000/svg">
<g id="optimized-experience">
<g id="Group" filter="url(#filter0_d_810_15726)">
<rect id="Rectangle 484" x="41.5" y="37.5" width="1097" height="749" rx="8.5" fill="#F5F5F5" stroke="#101010" stroke-width="3"/>
</g>
<g id="Group 1090">
<rect id="Rectangle 482" x="90" y="153" width="1000" height="152" fill="#C3CCCC"/>
<g id="Group 1079">
<g id="smile-2">
<path id="Vector" d="M161 181C134.493 181 113 202.493 113 229C113 255.507 134.493 277 161 277C187.507 277 209 255.507 209 229C209 202.493 187.507 181 161 181ZM161 268.857C138.993 268.857 121.143 251.007 121.143 229C121.143 206.993 138.993 189.143 161 189.143C183.007 189.143 200.857 206.993 200.857 229C200.857 251.007 183.007 268.857 161 268.857Z" fill="#88E4C3"/>
<path id="Vector_2" d="M161 189.143C138.993 189.143 121.143 206.993 121.143 229C121.143 251.007 138.993 268.857 161 268.857C183.007 268.857 200.857 251.007 200.857 229C200.857 206.993 183.007 189.143 161 189.143ZM137 219.25C137.027 217.904 137.581 216.623 138.543 215.681C139.504 214.739 140.797 214.211 142.143 214.211C143.489 214.211 144.781 214.739 145.743 215.681C146.704 216.623 147.258 217.904 147.285 219.25C147.258 220.596 146.704 221.877 145.743 222.819C144.781 223.762 143.489 224.289 142.143 224.289C140.797 224.289 139.504 223.762 138.543 222.819C137.581 221.877 137.027 220.596 137 219.25V219.25ZM161 248.393C151.839 248.393 144.328 241.182 143.857 232.15C143.851 232.034 143.869 231.918 143.909 231.809C143.95 231.7 144.012 231.6 144.092 231.516C144.172 231.432 144.269 231.365 144.376 231.319C144.483 231.274 144.598 231.25 144.714 231.25H149.868C150.318 231.25 150.703 231.593 150.735 232.043C151.143 237.347 155.589 241.536 161 241.536C166.41 241.536 170.868 237.347 171.264 232.043C171.296 231.593 171.682 231.25 172.132 231.25H177.285C177.402 231.25 177.517 231.274 177.624 231.319C177.731 231.365 177.827 231.432 177.907 231.516C177.987 231.6 178.05 231.7 178.09 231.809C178.131 231.918 178.148 232.034 178.143 232.15C177.671 241.182 170.16 248.393 161 248.393ZM179.857 224.393C178.511 224.366 177.23 223.812 176.288 222.85C175.346 221.889 174.818 220.596 174.818 219.25C174.818 217.904 175.346 216.612 176.288 215.65C177.23 214.689 178.511 214.135 179.857 214.107C181.203 214.135 182.484 214.689 183.426 215.65C184.368 216.612 184.896 217.904 184.896 219.25C184.896 220.596 184.368 221.889 183.426 222.85C182.484 223.812 181.203 224.366 179.857 224.393V224.393Z" fill="#333333"/>
<path id="Vector_3" d="M137 219.25C137 220.614 137.542 221.922 138.506 222.887C139.471 223.851 140.779 224.393 142.143 224.393C143.507 224.393 144.815 223.851 145.779 222.887C146.744 221.922 147.286 220.614 147.286 219.25C147.286 217.886 146.744 216.578 145.779 215.613C144.815 214.649 143.507 214.107 142.143 214.107C140.779 214.107 139.471 214.649 138.506 215.613C137.542 216.578 137 217.886 137 219.25V219.25ZM177.286 231.25H172.132C171.682 231.25 171.296 231.593 171.264 232.043C170.868 237.346 166.411 241.536 161 241.536C155.589 241.536 151.143 237.346 150.736 232.043C150.704 231.593 150.318 231.25 149.868 231.25H144.714C144.598 231.25 144.483 231.273 144.376 231.319C144.269 231.365 144.173 231.432 144.093 231.516C144.012 231.6 143.95 231.7 143.91 231.809C143.869 231.918 143.851 232.034 143.857 232.15C144.329 241.182 151.839 248.393 161 248.393C170.161 248.393 177.671 241.182 178.143 232.15C178.149 232.034 178.131 231.918 178.09 231.809C178.05 231.7 177.988 231.6 177.907 231.516C177.827 231.432 177.731 231.365 177.624 231.319C177.517 231.273 177.402 231.25 177.286 231.25V231.25ZM174.714 219.25C174.714 220.614 175.256 221.922 176.221 222.887C177.185 223.851 178.493 224.393 179.857 224.393C181.221 224.393 182.529 223.851 183.494 222.887C184.458 221.922 185 220.614 185 219.25C185 217.886 184.458 216.578 183.494 215.613C182.529 214.649 181.221 214.107 179.857 214.107C178.493 214.107 177.185 214.649 176.221 215.613C175.256 216.578 174.714 217.886 174.714 219.25V219.25Z" fill="#88E4C3"/>
</g>
<g id="Group 1078">
<text id="corygranite@ocket.io" fill="#333333" xml:space="preserve" style="white-space: pre" font-family="Noto Sans" font-size="24" font-weight="500" letter-spacing="0em"><tspan x="225" y="254.812">corygranite@ocket.io</tspan></text>
<g id="Group 1077">
<text id="Cory Granite" fill="#101010" xml:space="preserve" style="white-space: pre" font-family="Poppins" font-size="26" font-weight="600" letter-spacing="0em"><tspan x="225" y="222.6">Cory Granite</tspan></text>
<g id="Group 1076">
<path id="Rectangle 403" d="M495.854 200H412.278C410.467 200 409 201.467 409 203.277V222.858C409 224.668 410.467 226.135 412.278 226.135H495.854C497.664 226.135 499.132 224.668 499.132 222.858V203.277C499.132 201.467 497.664 200 495.854 200Z" fill="#329AFC"/>
<text id="Owner" fill="#F5F5F5" xml:space="preserve" style="white-space: pre" font-family="Noto Sans" font-size="18" letter-spacing="0em"><tspan x="425.396" y="220.127">Owner</tspan></text>
</g>
</g>
</g>
<text id="3 days ago" fill="#333333" xml:space="preserve" style="white-space: pre" font-family="Noto Sans" font-size="26" font-weight="500" letter-spacing="0em"><tspan x="649" y="239.088">3 days ago</tspan></text>
<text id="2" fill="#333333" xml:space="preserve" style="white-space: pre" font-family="Noto Sans" font-size="26" font-weight="500" letter-spacing="0em"><tspan x="918" y="239.088">2</tspan></text>
</g>
</g>
<text id="User" fill="#101010" xml:space="preserve" style="white-space: pre" font-family="Poppins" font-size="30" font-weight="bold" letter-spacing="0em"><tspan x="225" y="124.5">User</tspan></text>
<text id="Last Auth" fill="#101010" xml:space="preserve" style="white-space: pre" font-family="Poppins" font-size="30" font-weight="bold" letter-spacing="0em"><tspan x="649.18" y="124.5">Last Auth</tspan></text>
<text id="Devices" fill="#101010" xml:space="preserve" style="white-space: pre" font-family="Poppins" font-size="30" font-weight="bold" letter-spacing="0em"><tspan x="918.18" y="124.5">Devices</tspan></text>
<g id="Group 1083">
<g id="smile-2_2">
<path id="Vector_4" d="M161 333C134.493 333 113 354.493 113 381C113 407.507 134.493 429 161 429C187.507 429 209 407.507 209 381C209 354.493 187.507 333 161 333ZM161 420.857C138.993 420.857 121.143 403.007 121.143 381C121.143 358.993 138.993 341.143 161 341.143C183.007 341.143 200.857 358.993 200.857 381C200.857 403.007 183.007 420.857 161 420.857Z" fill="black"/>
<path id="Vector_5" d="M161 341.143C138.993 341.143 121.143 358.993 121.143 381C121.143 403.007 138.993 420.857 161 420.857C183.007 420.857 200.857 403.007 200.857 381C200.857 358.993 183.007 341.143 161 341.143ZM137 371.25C137.027 369.904 137.581 368.623 138.543 367.681C139.504 366.739 140.797 366.211 142.143 366.211C143.489 366.211 144.781 366.739 145.743 367.681C146.704 368.623 147.258 369.904 147.285 371.25C147.258 372.596 146.704 373.877 145.743 374.819C144.781 375.762 143.489 376.289 142.143 376.289C140.797 376.289 139.504 375.762 138.543 374.819C137.581 373.877 137.027 372.596 137 371.25V371.25ZM161 400.393C151.839 400.393 144.328 393.182 143.857 384.15C143.851 384.034 143.869 383.918 143.909 383.809C143.95 383.7 144.012 383.6 144.092 383.516C144.172 383.432 144.269 383.365 144.376 383.319C144.483 383.274 144.598 383.25 144.714 383.25H149.868C150.318 383.25 150.703 383.593 150.735 384.043C151.143 389.347 155.589 393.536 161 393.536C166.41 393.536 170.868 389.347 171.264 384.043C171.296 383.593 171.682 383.25 172.132 383.25H177.285C177.402 383.25 177.517 383.274 177.624 383.319C177.731 383.365 177.827 383.432 177.907 383.516C177.987 383.6 178.05 383.7 178.09 383.809C178.131 383.918 178.148 384.034 178.143 384.15C177.671 393.182 170.16 400.393 161 400.393ZM179.857 376.393C178.511 376.366 177.23 375.812 176.288 374.85C175.346 373.889 174.818 372.596 174.818 371.25C174.818 369.904 175.346 368.612 176.288 367.65C177.23 366.689 178.511 366.135 179.857 366.107C181.203 366.135 182.484 366.689 183.426 367.65C184.368 368.612 184.896 369.904 184.896 371.25C184.896 372.596 184.368 373.889 183.426 374.85C182.484 375.812 181.203 376.366 179.857 376.393V376.393Z" fill="#88E4C3" fill-opacity="0.66"/>
<path id="Vector_6" d="M137 371.25C137 372.614 137.542 373.922 138.506 374.887C139.471 375.851 140.779 376.393 142.143 376.393C143.507 376.393 144.815 375.851 145.779 374.887C146.744 373.922 147.286 372.614 147.286 371.25C147.286 369.886 146.744 368.578 145.779 367.613C144.815 366.649 143.507 366.107 142.143 366.107C140.779 366.107 139.471 366.649 138.506 367.613C137.542 368.578 137 369.886 137 371.25V371.25ZM177.286 383.25H172.132C171.682 383.25 171.296 383.593 171.264 384.043C170.868 389.346 166.411 393.536 161 393.536C155.589 393.536 151.143 389.346 150.736 384.043C150.704 383.593 150.318 383.25 149.868 383.25H144.714C144.598 383.25 144.483 383.273 144.376 383.319C144.269 383.365 144.173 383.432 144.093 383.516C144.012 383.6 143.95 383.7 143.91 383.809C143.869 383.918 143.851 384.034 143.857 384.15C144.329 393.182 151.839 400.393 161 400.393C170.161 400.393 177.671 393.182 178.143 384.15C178.149 384.034 178.131 383.918 178.09 383.809C178.05 383.7 177.988 383.6 177.907 383.516C177.827 383.432 177.731 383.365 177.624 383.319C177.517 383.273 177.402 383.25 177.286 383.25V383.25ZM174.714 371.25C174.714 372.614 175.256 373.922 176.221 374.887C177.185 375.851 178.493 376.393 179.857 376.393C181.221 376.393 182.529 375.851 183.494 374.887C184.458 373.922 185 372.614 185 371.25C185 369.886 184.458 368.578 183.494 367.613C182.529 366.649 181.221 366.107 179.857 366.107C178.493 366.107 177.185 366.649 176.221 367.613C175.256 368.578 174.714 369.886 174.714 371.25V371.25Z" fill="#151779"/>
</g>
<g id="Group 1082">
<g id="Group 1081">
<g id="Group 1080">
<path id="Rectangle 404" d="M512.854 352H429.278C427.467 352 426 353.467 426 355.277V374.858C426 376.668 427.467 378.135 429.278 378.135H512.854C514.664 378.135 516.132 376.668 516.132 374.858V355.277C516.132 353.467 514.664 352 512.854 352Z" fill="#EC5563"/>
<text id="Admin" fill="#F5F5F5" xml:space="preserve" style="white-space: pre" font-family="Noto Sans" font-size="18" letter-spacing="0em"><tspan x="443.285" y="372.294">Admin</tspan></text>
</g>
<text id="Michael Shale" fill="#101010" xml:space="preserve" style="white-space: pre" font-family="Poppins" font-size="26" font-weight="600" letter-spacing="0em"><tspan x="225" y="374.6">Michael Shale</tspan></text>
</g>
<text id="michaelshale@ocket.io" fill="#666666" xml:space="preserve" style="white-space: pre" font-family="Noto Sans" font-size="24" font-weight="500" letter-spacing="0em"><tspan x="225" y="406.812">michaelshale@ocket.io</tspan></text>
</g>
<text id="1 day ago" fill="#666666" xml:space="preserve" style="white-space: pre" font-family="Noto Sans" font-size="26" font-weight="500" letter-spacing="0em"><tspan x="649" y="391.088">1 day ago</tspan></text>
<text id="3" fill="#666666" xml:space="preserve" style="white-space: pre" font-family="Noto Sans" font-size="26" font-weight="500" letter-spacing="0em"><tspan x="918" y="391.088">3</tspan></text>
</g>
<path id="Line 197" d="M109.631 596.868H1080.66" stroke="#E6E6E6" stroke-miterlimit="10"/>
<g id="Group 1091">
<rect id="Rectangle 483" x="90" y="457" width="1000" height="152" fill="#C3CCCC"/>
<g id="Group 1086">
<g id="smile-2_3">
<path id="Vector_7" d="M161 485C134.493 485 113 506.493 113 533C113 559.507 134.493 581 161 581C187.507 581 209 559.507 209 533C209 506.493 187.507 485 161 485ZM161 572.857C138.993 572.857 121.143 555.007 121.143 533C121.143 510.993 138.993 493.143 161 493.143C183.007 493.143 200.857 510.993 200.857 533C200.857 555.007 183.007 572.857 161 572.857Z" fill="#339BFC"/>
<path id="Vector_8" d="M161 493.143C138.993 493.143 121.143 510.993 121.143 533C121.143 555.007 138.993 572.857 161 572.857C183.007 572.857 200.857 555.007 200.857 533C200.857 510.993 183.007 493.143 161 493.143ZM137 523.25C137.027 521.904 137.581 520.623 138.543 519.681C139.504 518.739 140.797 518.211 142.143 518.211C143.489 518.211 144.781 518.739 145.743 519.681C146.704 520.623 147.258 521.904 147.285 523.25C147.258 524.596 146.704 525.877 145.743 526.819C144.781 527.762 143.489 528.289 142.143 528.289C140.797 528.289 139.504 527.762 138.543 526.819C137.581 525.877 137.027 524.596 137 523.25V523.25ZM161 552.393C151.839 552.393 144.328 545.182 143.857 536.15C143.851 536.034 143.869 535.918 143.909 535.809C143.95 535.7 144.012 535.6 144.092 535.516C144.172 535.432 144.269 535.365 144.376 535.319C144.483 535.274 144.598 535.25 144.714 535.25H149.868C150.318 535.25 150.703 535.593 150.735 536.043C151.143 541.347 155.589 545.536 161 545.536C166.41 545.536 170.868 541.347 171.264 536.043C171.296 535.593 171.682 535.25 172.132 535.25H177.285C177.402 535.25 177.517 535.274 177.624 535.319C177.731 535.365 177.827 535.432 177.907 535.516C177.987 535.6 178.05 535.7 178.09 535.809C178.131 535.918 178.148 536.034 178.143 536.15C177.671 545.182 170.16 552.393 161 552.393ZM179.857 528.393C178.511 528.366 177.23 527.812 176.288 526.85C175.346 525.889 174.818 524.596 174.818 523.25C174.818 521.904 175.346 520.612 176.288 519.65C177.23 518.689 178.511 518.135 179.857 518.107C181.203 518.135 182.484 518.689 183.426 519.65C184.368 520.612 184.896 521.904 184.896 523.25C184.896 524.596 184.368 525.889 183.426 526.85C182.484 527.812 181.203 528.366 179.857 528.393V528.393Z" fill="#151779"/>
<path id="Vector_9" d="M137 523.25C137 524.614 137.542 525.922 138.506 526.887C139.471 527.851 140.779 528.393 142.143 528.393C143.507 528.393 144.815 527.851 145.779 526.887C146.744 525.922 147.286 524.614 147.286 523.25C147.286 521.886 146.744 520.578 145.779 519.613C144.815 518.649 143.507 518.107 142.143 518.107C140.779 518.107 139.471 518.649 138.506 519.613C137.542 520.578 137 521.886 137 523.25V523.25ZM177.286 535.25H172.132C171.682 535.25 171.296 535.593 171.264 536.043C170.868 541.346 166.411 545.536 161 545.536C155.589 545.536 151.143 541.346 150.736 536.043C150.704 535.593 150.318 535.25 149.868 535.25H144.714C144.598 535.25 144.483 535.273 144.376 535.319C144.269 535.365 144.173 535.432 144.093 535.516C144.012 535.6 143.95 535.7 143.91 535.809C143.869 535.918 143.851 536.034 143.857 536.15C144.329 545.182 151.839 552.393 161 552.393C170.161 552.393 177.671 545.182 178.143 536.15C178.149 536.034 178.131 535.918 178.09 535.809C178.05 535.7 177.988 535.6 177.907 535.516C177.827 535.432 177.731 535.365 177.624 535.319C177.517 535.273 177.402 535.25 177.286 535.25V535.25ZM174.714 523.25C174.714 524.614 175.256 525.922 176.221 526.887C177.185 527.851 178.493 528.393 179.857 528.393C181.221 528.393 182.529 527.851 183.494 526.887C184.458 525.922 185 524.614 185 523.25C185 521.886 184.458 520.578 183.494 519.613C182.529 518.649 181.221 518.107 179.857 518.107C178.493 518.107 177.185 518.649 176.221 519.613C175.256 520.578 174.714 521.886 174.714 523.25V523.25Z" fill="#88E4C3"/>
</g>
<g id="Group 1085">
<g id="Group 1084">
<g id="Group 1080_2">
<path id="Rectangle 404_2" d="M520.854 504H437.278C435.467 504 434 505.467 434 507.277V526.858C434 528.668 435.467 530.135 437.278 530.135H520.854C522.664 530.135 524.132 528.668 524.132 526.858V507.277C524.132 505.467 522.664 504 520.854 504Z" fill="#999999"/>
<text id="User_2" fill="#F5F5F5" xml:space="preserve" style="white-space: pre" font-family="Noto Sans" font-size="18" letter-spacing="0em"><tspan x="459" y="524.294">User</tspan></text>
</g>
<text id="Sean Obsidian" fill="#101010" xml:space="preserve" style="white-space: pre" font-family="Poppins" font-size="26" font-weight="600" letter-spacing="0em"><tspan x="225" y="526.6">Sean Obsidian</tspan></text>
</g>
<text id="seanobsidian@ocket.io" fill="#333333" xml:space="preserve" style="white-space: pre" font-family="Noto Sans" font-size="24" font-weight="500" letter-spacing="0em"><tspan x="225" y="558.812">seanobsidian@ocket.io</tspan></text>
</g>
<text id="9 days ago" fill="#333333" xml:space="preserve" style="white-space: pre" font-family="Noto Sans" font-size="26" font-weight="500" letter-spacing="0em"><tspan x="649" y="543.088">9 days ago</tspan></text>
<text id="1" fill="#333333" xml:space="preserve" style="white-space: pre" font-family="Noto Sans" font-size="26" font-weight="500" letter-spacing="0em"><tspan x="918" y="543.088">1</tspan></text>
</g>
</g>
<g id="Group 1089">
<g id="Group 1088">
<g id="Group 1087">
<text id="Amy Sandstone" fill="#101010" xml:space="preserve" style="white-space: pre" font-family="Poppins" font-size="26" font-weight="600" letter-spacing="0em"><tspan x="225" y="673.6">Amy Sandstone</tspan></text>
<g id="Group 1080_3">
<path id="Rectangle 404_3" d="M538.854 651H455.278C453.467 651 452 652.467 452 654.277V673.858C452 675.668 453.467 677.135 455.278 677.135H538.854C540.664 677.135 542.132 675.668 542.132 673.858V654.277C542.132 652.467 540.664 651 538.854 651Z" fill="#999999"/>
<text id="User_3" fill="#F5F5F5" xml:space="preserve" style="white-space: pre" font-family="Noto Sans" font-size="18" letter-spacing="0em"><tspan x="477" y="671.294">User</tspan></text>
</g>
</g>
<text id="amysandstone@ocket.io" fill="#666666" xml:space="preserve" style="white-space: pre" font-family="Noto Sans" font-size="24" font-weight="500" letter-spacing="0em"><tspan x="225" y="705.812">amysandstone@ocket.io</tspan></text>
</g>
<text id="4 days ago" fill="#666666" xml:space="preserve" style="white-space: pre" font-family="Noto Sans" font-size="26" font-weight="500" letter-spacing="0em"><tspan x="649" y="690.088">4 days ago</tspan></text>
<text id="3_2" fill="#666666" xml:space="preserve" style="white-space: pre" font-family="Noto Sans" font-size="26" font-weight="500" letter-spacing="0em"><tspan x="918" y="690.088">3</tspan></text>
<g id="smile-2_4">
<path id="Vector_10" d="M161 632C134.493 632 113 653.493 113 680C113 706.507 134.493 728 161 728C187.507 728 209 706.507 209 680C209 653.493 187.507 632 161 632ZM161 719.857C138.993 719.857 121.143 702.007 121.143 680C121.143 657.993 138.993 640.143 161 640.143C183.007 640.143 200.857 657.993 200.857 680C200.857 702.007 183.007 719.857 161 719.857Z" fill="#EC5563"/>
<path id="Vector_11" d="M161 640.143C138.993 640.143 121.143 657.993 121.143 680C121.143 702.007 138.993 719.857 161 719.857C183.007 719.857 200.857 702.007 200.857 680C200.857 657.993 183.007 640.143 161 640.143ZM137 670.25C137.027 668.904 137.581 667.623 138.543 666.681C139.504 665.739 140.797 665.211 142.143 665.211C143.489 665.211 144.781 665.739 145.743 666.681C146.704 667.623 147.258 668.904 147.285 670.25C147.258 671.596 146.704 672.877 145.743 673.819C144.781 674.762 143.489 675.289 142.143 675.289C140.797 675.289 139.504 674.762 138.543 673.819C137.581 672.877 137.027 671.596 137 670.25V670.25ZM161 699.393C151.839 699.393 144.328 692.182 143.857 683.15C143.851 683.034 143.869 682.918 143.909 682.809C143.95 682.7 144.012 682.6 144.092 682.516C144.172 682.432 144.269 682.365 144.376 682.319C144.483 682.274 144.598 682.25 144.714 682.25H149.868C150.318 682.25 150.703 682.593 150.735 683.043C151.143 688.347 155.589 692.536 161 692.536C166.41 692.536 170.868 688.347 171.264 683.043C171.296 682.593 171.682 682.25 172.132 682.25H177.285C177.402 682.25 177.517 682.274 177.624 682.319C177.731 682.365 177.827 682.432 177.907 682.516C177.987 682.6 178.05 682.7 178.09 682.809C178.131 682.918 178.148 683.034 178.143 683.15C177.671 692.182 170.16 699.393 161 699.393ZM179.857 675.393C178.511 675.366 177.23 674.812 176.288 673.85C175.346 672.889 174.818 671.596 174.818 670.25C174.818 668.904 175.346 667.612 176.288 666.65C177.23 665.689 178.511 665.135 179.857 665.107C181.203 665.135 182.484 665.689 183.426 666.65C184.368 667.612 184.896 668.904 184.896 670.25C184.896 671.596 184.368 672.889 183.426 673.85C182.484 674.812 181.203 675.366 179.857 675.393V675.393Z" fill="#101010"/>
<path id="Vector_12" d="M137 670.25C137 671.614 137.542 672.922 138.506 673.887C139.471 674.851 140.779 675.393 142.143 675.393C143.507 675.393 144.815 674.851 145.779 673.887C146.744 672.922 147.286 671.614 147.286 670.25C147.286 668.886 146.744 667.578 145.779 666.613C144.815 665.649 143.507 665.107 142.143 665.107C140.779 665.107 139.471 665.649 138.506 666.613C137.542 667.578 137 668.886 137 670.25V670.25ZM177.286 682.25H172.132C171.682 682.25 171.296 682.593 171.264 683.043C170.868 688.346 166.411 692.536 161 692.536C155.589 692.536 151.143 688.346 150.736 683.043C150.704 682.593 150.318 682.25 149.868 682.25H144.714C144.598 682.25 144.483 682.273 144.376 682.319C144.269 682.365 144.173 682.432 144.093 682.516C144.012 682.6 143.95 682.7 143.91 682.809C143.869 682.918 143.851 683.034 143.857 683.15C144.329 692.182 151.839 699.393 161 699.393C170.161 699.393 177.671 692.182 178.143 683.15C178.149 683.034 178.131 682.918 178.09 682.809C178.05 682.7 177.988 682.6 177.907 682.516C177.827 682.432 177.731 682.365 177.624 682.319C177.517 682.273 177.402 682.25 177.286 682.25V682.25ZM174.714 670.25C174.714 671.614 175.256 672.922 176.221 673.887C177.185 674.851 178.493 675.393 179.857 675.393C181.221 675.393 182.529 674.851 183.494 673.887C184.458 672.922 185 671.614 185 670.25C185 668.886 184.458 667.578 183.494 666.613C182.529 665.649 181.221 665.107 179.857 665.107C178.493 665.107 177.185 665.649 176.221 666.613C175.256 667.578 174.714 668.886 174.714 670.25V670.25Z" fill="#EC5563"/>
</g>
</g>
</g>
<defs>
<filter id="filter0_d_810_15726" x="0" y="0" width="1180" height="832" filterUnits="userSpaceOnUse" color-interpolation-filters="sRGB">
<feFlood flood-opacity="0" result="BackgroundImageFix"/>
<feColorMatrix in="SourceAlpha" type="matrix" values="0 0 0 0 0 0 0 0 0 0 0 0 0 0 0 0 0 0 127 0" result="hardAlpha"/>
<feOffset dy="4"/>
<feGaussianBlur stdDeviation="20"/>
<feColorMatrix type="matrix" values="0 0 0 0 0 0 0 0 0 0 0 0 0 0 0 0 0 0 0.051 0"/>
<feBlend mode="normal" in2="BackgroundImageFix" result="effect1_dropShadow_810_15726"/>
<feBlend mode="normal" in="SourceGraphic" in2="effect1_dropShadow_810_15726" result="shape"/>
</filter>
</defs>
</svg>
