<svg width="1820" height="280" viewBox="0 0 1820 280" fill="none" xmlns="http://www.w3.org/2000/svg">
<g filter="url(#filter0_d_776_2067)">
<path d="M1787.38 9.09424H33.5595C26.0395 9.09424 19.9434 15.3181 19.9434 22.9956V236.27C19.9434 243.948 26.0395 250.172 33.5595 250.172H1787.38C1794.9 250.172 1801 243.948 1801 236.27V22.9956C1801 15.3181 1794.9 9.09424 1787.38 9.09424Z" fill="white"/>
</g>
<path d="M279.834 120.418H284.93L286.802 114.871H296.786L298.623 120.418H303.754L294.845 94.5914H288.743L279.834 120.418ZM288.154 110.711L291.794 99.8261L295.434 110.711H288.154Z" fill="#333333"/>
<path d="M306.247 120.418H310.788V109.359C310.788 108.135 311.123 107.152 311.794 106.413C312.464 105.673 313.342 105.303 314.428 105.303C315.538 105.303 316.416 105.673 317.063 106.413C317.733 107.129 318.068 108.111 318.068 109.359V120.418H322.61V109.359C322.61 108.135 322.945 107.152 323.615 106.413C324.285 105.673 325.163 105.303 326.25 105.303C327.359 105.303 328.237 105.673 328.884 106.413C329.555 107.129 329.89 108.111 329.89 109.359V120.418H334.431V108.285C334.431 106.875 334.119 105.639 333.495 104.575C332.894 103.489 332.074 102.646 331.034 102.045C329.994 101.444 328.803 101.143 327.463 101.143C326.215 101.143 325.083 101.398 324.066 101.906C323.072 102.415 322.251 103.177 321.604 104.194C321.05 103.27 320.252 102.53 319.212 101.975C318.195 101.421 317.051 101.143 315.78 101.143C314.602 101.143 313.55 101.375 312.626 101.837C311.701 102.299 310.996 102.992 310.511 103.917V101.559H306.247V120.418Z" fill="#333333"/>
<path d="M340.222 128.079C342.002 128.079 343.481 127.571 344.66 126.554C345.862 125.56 346.821 124.151 347.537 122.325L355.753 101.559H350.83L345.977 114.559L341.089 101.559H336.201L343.654 120.418L343.238 121.423C342.869 122.209 342.441 122.845 341.956 123.33C341.494 123.815 340.742 124.058 339.702 124.058C339.333 124.058 338.94 124.023 338.524 123.954C338.108 123.908 337.738 123.839 337.414 123.746V127.559C337.807 127.744 338.246 127.871 338.732 127.941C339.217 128.033 339.714 128.079 340.222 128.079Z" fill="#333333"/>
<path d="M374.011 120.834C375.791 120.834 377.351 120.511 378.691 119.863C380.032 119.216 381.083 118.327 381.846 117.194C382.608 116.062 382.99 114.756 382.99 113.277C382.99 109.833 380.933 107.453 376.819 106.135L372.07 104.645C371.145 104.344 370.44 103.928 369.955 103.397C369.493 102.842 369.262 102.207 369.262 101.49C369.262 100.543 369.62 99.7799 370.336 99.2021C371.076 98.6012 372.047 98.3007 373.248 98.3007C374.589 98.3007 375.768 98.659 376.784 99.3754C377.801 100.069 378.564 101.063 379.072 102.357L382.955 100.623C382.262 98.6821 381.048 97.1221 379.315 95.9434C377.605 94.7647 375.583 94.1754 373.248 94.1754C371.561 94.1754 370.059 94.499 368.742 95.1461C367.448 95.7701 366.431 96.6483 365.691 97.7807C364.975 98.9132 364.616 100.219 364.616 101.698C364.616 103.385 365.125 104.853 366.142 106.101C367.159 107.326 368.672 108.262 370.683 108.909L375.64 110.503C376.542 110.804 377.212 111.197 377.651 111.682C378.113 112.167 378.344 112.791 378.344 113.554C378.344 114.502 377.963 115.264 377.2 115.842C376.461 116.42 375.479 116.709 374.254 116.709C372.775 116.709 371.446 116.293 370.267 115.461C369.088 114.606 368.187 113.439 367.563 111.959L363.646 113.658C364.108 115.091 364.836 116.351 365.83 117.437C366.847 118.5 368.048 119.332 369.435 119.933C370.845 120.534 372.37 120.834 374.011 120.834Z" fill="#333333"/>
<path d="M392.404 120.834C394.854 120.834 396.819 120.025 398.298 118.407V120.418H402.596V107.869C402.596 106.551 402.261 105.384 401.591 104.367C400.921 103.351 399.996 102.565 398.818 102.01C397.662 101.432 396.31 101.143 394.762 101.143C392.867 101.143 391.18 101.594 389.7 102.495C388.221 103.397 387.204 104.587 386.65 106.066L390.359 107.869C390.706 107.014 391.249 106.332 391.988 105.823C392.728 105.292 393.595 105.026 394.588 105.026C395.628 105.026 396.46 105.303 397.084 105.858C397.732 106.39 398.055 107.06 398.055 107.869V108.493L392.439 109.394C390.22 109.764 388.58 110.469 387.516 111.509C386.453 112.549 385.922 113.855 385.922 115.426C385.922 117.09 386.511 118.407 387.69 119.378C388.868 120.349 390.44 120.834 392.404 120.834ZM390.636 115.253C390.636 113.935 391.526 113.103 393.306 112.757L398.055 111.959V112.722C398.055 114.016 397.604 115.114 396.703 116.015C395.825 116.917 394.669 117.367 393.236 117.367C392.474 117.367 391.85 117.183 391.364 116.813C390.879 116.42 390.636 115.9 390.636 115.253Z" fill="#333333"/>
<path d="M406.794 120.418H411.335V109.359C411.335 108.135 411.682 107.152 412.375 106.413C413.092 105.673 414.016 105.303 415.148 105.303C416.281 105.303 417.194 105.673 417.887 106.413C418.604 107.129 418.962 108.111 418.962 109.359V120.418H423.503V108.285C423.503 106.875 423.203 105.639 422.602 104.575C422.001 103.489 421.157 102.646 420.071 102.045C419.008 101.444 417.783 101.143 416.396 101.143C415.218 101.143 414.155 101.375 413.207 101.837C412.283 102.299 411.566 102.981 411.058 103.882V101.559H406.794V120.418Z" fill="#333333"/>
<path d="M436.114 120.834C437.339 120.834 438.471 120.626 439.511 120.21C440.551 119.771 441.418 119.147 442.111 118.338V120.418H446.41V94.1754H441.869V103.466C440.459 101.918 438.529 101.143 436.079 101.143C434.3 101.143 432.682 101.583 431.226 102.461C429.793 103.316 428.661 104.495 427.829 105.997C426.997 107.476 426.581 109.14 426.581 110.989C426.581 112.838 426.997 114.513 427.829 116.015C428.661 117.495 429.793 118.673 431.226 119.551C432.659 120.407 434.288 120.834 436.114 120.834ZM436.599 116.674C435.582 116.674 434.669 116.431 433.861 115.946C433.052 115.461 432.416 114.791 431.954 113.935C431.515 113.057 431.295 112.075 431.295 110.989C431.295 109.903 431.515 108.932 431.954 108.077C432.416 107.222 433.052 106.551 433.861 106.066C434.669 105.558 435.582 105.303 436.599 105.303C437.616 105.303 438.517 105.546 439.303 106.031C440.112 106.517 440.736 107.187 441.175 108.042C441.637 108.897 441.869 109.879 441.869 110.989C441.869 112.098 441.637 113.08 441.175 113.935C440.736 114.791 440.112 115.461 439.303 115.946C438.517 116.431 437.616 116.674 436.599 116.674Z" fill="#333333"/>
<path d="M457.811 120.834C459.244 120.834 460.492 120.591 461.555 120.106C462.618 119.621 463.45 118.951 464.051 118.095C464.652 117.217 464.952 116.212 464.952 115.079C464.952 113.762 464.536 112.63 463.704 111.682C462.872 110.735 461.67 110.041 460.099 109.602L457.083 108.701C456.436 108.516 455.904 108.273 455.488 107.973C455.072 107.672 454.864 107.256 454.864 106.725C454.864 106.17 455.084 105.719 455.523 105.373C455.962 105.026 456.563 104.853 457.326 104.853C458.273 104.853 459.128 105.107 459.891 105.615C460.677 106.124 461.22 106.806 461.52 107.661L464.987 106.031C464.409 104.506 463.438 103.316 462.075 102.461C460.711 101.583 459.14 101.143 457.36 101.143C455.997 101.143 454.783 101.386 453.72 101.871C452.68 102.357 451.86 103.039 451.259 103.917C450.681 104.772 450.392 105.777 450.392 106.933C450.392 108.227 450.797 109.348 451.606 110.295C452.438 111.243 453.651 111.948 455.246 112.41L458.331 113.277C458.932 113.439 459.44 113.681 459.856 114.005C460.295 114.305 460.515 114.721 460.515 115.253C460.515 115.877 460.261 116.374 459.752 116.743C459.267 117.09 458.62 117.263 457.811 117.263C456.748 117.263 455.789 116.963 454.934 116.362C454.078 115.761 453.397 114.929 452.888 113.866L449.491 115.495C450.046 117.113 451.062 118.407 452.542 119.378C454.044 120.349 455.8 120.834 457.811 120.834Z" fill="#333333"/>
<path d="M477.04 120.626C477.386 120.626 477.768 120.603 478.184 120.557C478.6 120.511 478.969 120.464 479.293 120.418V116.535C478.854 116.605 478.449 116.639 478.08 116.639C476.97 116.639 476.161 116.385 475.653 115.877C475.144 115.368 474.89 114.64 474.89 113.693V105.615H479.224V101.559H474.89V97.2607H470.349V98.7167C470.349 99.6412 470.095 100.346 469.586 100.831C469.078 101.317 468.361 101.559 467.437 101.559H467.09V105.615H470.349V113.935C470.349 116.039 470.927 117.679 472.082 118.858C473.261 120.037 474.913 120.626 477.04 120.626Z" fill="#333333"/>
<path d="M491.815 120.834C493.64 120.834 495.304 120.418 496.807 119.586C498.309 118.731 499.511 117.564 500.412 116.085C501.313 114.583 501.764 112.884 501.764 110.989C501.764 109.094 501.313 107.407 500.412 105.927C499.534 104.448 498.343 103.281 496.841 102.426C495.339 101.571 493.663 101.143 491.815 101.143C489.943 101.143 488.255 101.571 486.753 102.426C485.251 103.281 484.049 104.448 483.148 105.927C482.27 107.407 481.831 109.094 481.831 110.989C481.831 112.884 482.27 114.571 483.148 116.05C484.049 117.529 485.251 118.696 486.753 119.551C488.279 120.407 489.966 120.834 491.815 120.834ZM491.815 116.674C490.798 116.674 489.885 116.431 489.076 115.946C488.29 115.461 487.666 114.791 487.204 113.935C486.765 113.057 486.545 112.075 486.545 110.989C486.545 109.903 486.765 108.932 487.204 108.077C487.666 107.222 488.29 106.551 489.076 106.066C489.885 105.558 490.798 105.303 491.815 105.303C492.831 105.303 493.721 105.558 494.484 106.066C495.27 106.551 495.882 107.222 496.321 108.077C496.783 108.932 497.015 109.903 497.015 110.989C497.015 112.075 496.783 113.057 496.321 113.935C495.882 114.791 495.27 115.461 494.484 115.946C493.721 116.431 492.831 116.674 491.815 116.674Z" fill="#333333"/>
<path d="M505.208 120.418H509.749V109.359C509.749 108.135 510.096 107.152 510.789 106.413C511.506 105.673 512.43 105.303 513.562 105.303C514.695 105.303 515.608 105.673 516.301 106.413C517.018 107.129 517.376 108.111 517.376 109.359V120.418H521.917V108.285C521.917 106.875 521.617 105.639 521.016 104.575C520.415 103.489 519.571 102.646 518.485 102.045C517.422 101.444 516.197 101.143 514.81 101.143C513.632 101.143 512.569 101.375 511.621 101.837C510.697 102.299 509.98 102.981 509.472 103.882V101.559H505.208V120.418Z" fill="#333333"/>
<path d="M534.701 120.834C536.619 120.834 538.295 120.407 539.728 119.551C541.184 118.673 542.201 117.564 542.779 116.223L539.104 114.421C538.688 115.137 538.11 115.727 537.371 116.189C536.654 116.628 535.776 116.847 534.736 116.847C533.372 116.847 532.228 116.431 531.304 115.599C530.379 114.767 529.848 113.658 529.709 112.271H543.299C543.391 112.017 543.449 111.728 543.472 111.405C543.518 111.058 543.541 110.711 543.541 110.365C543.541 108.678 543.183 107.141 542.467 105.754C541.75 104.367 540.71 103.258 539.347 102.426C537.983 101.571 536.319 101.143 534.355 101.143C532.598 101.143 531.003 101.571 529.571 102.426C528.161 103.281 527.04 104.448 526.208 105.927C525.399 107.383 524.995 109.059 524.995 110.954C524.995 112.78 525.399 114.444 526.208 115.946C527.017 117.448 528.149 118.639 529.605 119.517C531.061 120.395 532.76 120.834 534.701 120.834ZM534.355 104.887C535.556 104.887 536.55 105.257 537.336 105.997C538.145 106.713 538.595 107.649 538.688 108.805H529.813C530.067 107.557 530.599 106.598 531.408 105.927C532.24 105.234 533.222 104.887 534.355 104.887Z" fill="#333333"/>
<path d="M548.44 104.506C550.173 104.136 551.479 103.351 552.357 102.149C553.258 100.947 553.709 99.4216 553.709 97.5727V94.5914H549.133V99.4447H551.178C551.063 100.138 550.774 100.739 550.312 101.247C549.85 101.733 549.226 102.068 548.44 102.253V104.506Z" fill="#333333"/>
<path d="M566.55 120.834C567.983 120.834 569.231 120.591 570.294 120.106C571.358 119.621 572.19 118.951 572.79 118.095C573.391 117.217 573.692 116.212 573.692 115.079C573.692 113.762 573.276 112.63 572.444 111.682C571.612 110.735 570.41 110.041 568.838 109.602L565.822 108.701C565.175 108.516 564.644 108.273 564.228 107.973C563.812 107.672 563.604 107.256 563.604 106.725C563.604 106.17 563.823 105.719 564.262 105.373C564.702 105.026 565.302 104.853 566.065 104.853C567.013 104.853 567.868 105.107 568.63 105.615C569.416 106.124 569.959 106.806 570.26 107.661L573.726 106.031C573.149 104.506 572.178 103.316 570.814 102.461C569.451 101.583 567.879 101.143 566.1 101.143C564.736 101.143 563.523 101.386 562.46 101.871C561.42 102.357 560.599 103.039 559.998 103.917C559.421 104.772 559.132 105.777 559.132 106.933C559.132 108.227 559.536 109.348 560.345 110.295C561.177 111.243 562.39 111.948 563.985 112.41L567.07 113.277C567.671 113.439 568.18 113.681 568.596 114.005C569.035 114.305 569.254 114.721 569.254 115.253C569.254 115.877 569 116.374 568.492 116.743C568.006 117.09 567.359 117.263 566.55 117.263C565.487 117.263 564.528 116.963 563.673 116.362C562.818 115.761 562.136 114.929 561.628 113.866L558.23 115.495C558.785 117.113 559.802 118.407 561.281 119.378C562.783 120.349 564.54 120.834 566.55 120.834Z" fill="#333333"/>
<path d="M588.543 120.418H593.951L598.909 101.837L603.866 120.418H609.274L616.207 94.5914H611.146L606.362 114.005L601.37 94.5914H596.482L591.455 114.005L586.671 94.5914H581.61L588.543 120.418Z" fill="#333333"/>
<path d="M618.687 99.4447H623.228V94.5914H618.687V99.4447ZM618.687 120.418H623.228V101.559H618.687V120.418Z" fill="#333333"/>
<path d="M627.421 120.418H631.963V109.359C631.963 108.135 632.309 107.152 633.003 106.413C633.719 105.673 634.643 105.303 635.776 105.303C636.908 105.303 637.821 105.673 638.515 106.413C639.231 107.129 639.589 108.111 639.589 109.359V120.418H644.131V108.285C644.131 106.875 643.83 105.639 643.229 104.575C642.628 103.489 641.785 102.646 640.699 102.045C639.635 101.444 638.411 101.143 637.024 101.143C635.845 101.143 634.782 101.375 633.835 101.837C632.91 102.299 632.194 102.981 631.685 103.882V101.559H627.421V120.418Z" fill="#333333"/>
<path d="M656.741 120.834C657.966 120.834 659.099 120.626 660.139 120.21C661.179 119.771 662.045 119.147 662.739 118.338V120.418H667.037V94.1754H662.496V103.466C661.086 101.918 659.157 101.143 656.707 101.143C654.927 101.143 653.309 101.583 651.853 102.461C650.421 103.316 649.288 104.495 648.456 105.997C647.624 107.476 647.208 109.14 647.208 110.989C647.208 112.838 647.624 114.513 648.456 116.015C649.288 117.495 650.421 118.673 651.853 119.551C653.286 120.407 654.916 120.834 656.741 120.834ZM657.227 116.674C656.21 116.674 655.297 116.431 654.488 115.946C653.679 115.461 653.044 114.791 652.581 113.935C652.142 113.057 651.923 112.075 651.923 110.989C651.923 109.903 652.142 108.932 652.581 108.077C653.044 107.222 653.679 106.551 654.488 106.066C655.297 105.558 656.21 105.303 657.227 105.303C658.244 105.303 659.145 105.546 659.931 106.031C660.74 106.517 661.364 107.187 661.803 108.042C662.265 108.897 662.496 109.879 662.496 110.989C662.496 112.098 662.265 113.08 661.803 113.935C661.364 114.791 660.74 115.461 659.931 115.946C659.145 116.431 658.244 116.674 657.227 116.674Z" fill="#333333"/>
<path d="M680.484 120.834C682.31 120.834 683.974 120.418 685.476 119.586C686.978 118.731 688.18 117.564 689.081 116.085C689.982 114.583 690.433 112.884 690.433 110.989C690.433 109.094 689.982 107.407 689.081 105.927C688.203 104.448 687.013 103.281 685.51 102.426C684.008 101.571 682.333 101.143 680.484 101.143C678.612 101.143 676.925 101.571 675.422 102.426C673.92 103.281 672.718 104.448 671.817 105.927C670.939 107.407 670.5 109.094 670.5 110.989C670.5 112.884 670.939 114.571 671.817 116.05C672.718 117.529 673.92 118.696 675.422 119.551C676.948 120.407 678.635 120.834 680.484 120.834ZM680.484 116.674C679.467 116.674 678.554 116.431 677.745 115.946C676.959 115.461 676.335 114.791 675.873 113.935C675.434 113.057 675.214 112.075 675.214 110.989C675.214 109.903 675.434 108.932 675.873 108.077C676.335 107.222 676.959 106.551 677.745 106.066C678.554 105.558 679.467 105.303 680.484 105.303C681.501 105.303 682.39 105.558 683.153 106.066C683.939 106.551 684.551 107.222 684.99 108.077C685.453 108.932 685.684 109.903 685.684 110.989C685.684 112.075 685.453 113.057 684.99 113.935C684.551 114.791 683.939 115.461 683.153 115.946C682.39 116.431 681.501 116.674 680.484 116.674Z" fill="#333333"/>
<path d="M698.288 120.418H702.309L706.746 107.695L711.114 120.418H715.17L721.653 101.559H716.869L712.917 113.415L708.757 101.559H704.736L700.541 113.45L696.589 101.559H691.805L698.288 120.418Z" fill="#333333"/>
<path d="M731.319 120.834C732.751 120.834 733.999 120.591 735.063 120.106C736.126 119.621 736.958 118.951 737.559 118.095C738.159 117.217 738.46 116.212 738.46 115.079C738.46 113.762 738.044 112.63 737.212 111.682C736.38 110.735 735.178 110.041 733.607 109.602L730.591 108.701C729.943 108.516 729.412 108.273 728.996 107.973C728.58 107.672 728.372 107.256 728.372 106.725C728.372 106.17 728.591 105.719 729.031 105.373C729.47 105.026 730.071 104.853 730.833 104.853C731.781 104.853 732.636 105.107 733.399 105.615C734.184 106.124 734.727 106.806 735.028 107.661L738.495 106.031C737.917 104.506 736.946 103.316 735.583 102.461C734.219 101.583 732.647 101.143 730.868 101.143C729.504 101.143 728.291 101.386 727.228 101.871C726.188 102.357 725.367 103.039 724.767 103.917C724.189 104.772 723.9 105.777 723.9 106.933C723.9 108.227 724.304 109.348 725.113 110.295C725.945 111.243 727.159 111.948 728.753 112.41L731.839 113.277C732.439 113.439 732.948 113.681 733.364 114.005C733.803 114.305 734.023 114.721 734.023 115.253C734.023 115.877 733.768 116.374 733.26 116.743C732.775 117.09 732.127 117.263 731.319 117.263C730.255 117.263 729.296 116.963 728.441 116.362C727.586 115.761 726.904 114.929 726.396 113.866L722.999 115.495C723.553 117.113 724.57 118.407 726.049 119.378C727.551 120.349 729.308 120.834 731.319 120.834Z" fill="#333333"/>
<path d="M748.493 120.418H756.917C759.644 120.418 762.013 119.863 764.023 118.754C766.057 117.645 767.629 116.119 768.738 114.178C769.847 112.237 770.402 110.007 770.402 107.487C770.402 104.945 769.847 102.715 768.738 100.797C767.629 98.8554 766.069 97.3416 764.058 96.2554C762.047 95.1461 759.667 94.5914 756.917 94.5914H748.493V120.418ZM753.207 116.258V98.7514H757.021C758.777 98.7514 760.291 99.1096 761.562 99.8261C762.856 100.543 763.862 101.559 764.578 102.877C765.294 104.171 765.653 105.708 765.653 107.487C765.653 109.267 765.294 110.815 764.578 112.133C763.885 113.45 762.891 114.467 761.597 115.183C760.302 115.9 758.777 116.258 757.021 116.258H753.207Z" fill="#333333"/>
<path d="M782.717 120.834C784.635 120.834 786.311 120.407 787.743 119.551C789.199 118.673 790.216 117.564 790.794 116.223L787.119 114.421C786.703 115.137 786.126 115.727 785.386 116.189C784.67 116.628 783.791 116.847 782.751 116.847C781.388 116.847 780.244 116.431 779.319 115.599C778.395 114.767 777.863 113.658 777.725 112.271H791.314C791.407 112.017 791.464 111.728 791.487 111.405C791.534 111.058 791.557 110.711 791.557 110.365C791.557 108.678 791.199 107.141 790.482 105.754C789.766 104.367 788.726 103.258 787.362 102.426C785.999 101.571 784.335 101.143 782.37 101.143C780.614 101.143 779.019 101.571 777.586 102.426C776.176 103.281 775.055 104.448 774.223 105.927C773.415 107.383 773.01 109.059 773.01 110.954C773.01 112.78 773.415 114.444 774.223 115.946C775.032 117.448 776.165 118.639 777.621 119.517C779.077 120.395 780.775 120.834 782.717 120.834ZM782.37 104.887C783.572 104.887 784.566 105.257 785.351 105.997C786.16 106.713 786.611 107.649 786.703 108.805H777.829C778.083 107.557 778.615 106.598 779.423 105.927C780.255 105.234 781.238 104.887 782.37 104.887Z" fill="#333333"/>
<path d="M800.346 120.418H804.367L811.786 101.559H806.829L802.357 113.866L797.885 101.559H792.927L800.346 120.418Z" fill="#333333"/>
<path d="M814.296 99.4447H818.837V94.5914H814.296V99.4447ZM814.296 120.418H818.837V101.559H814.296V120.418Z" fill="#333333"/>
<path d="M832.113 120.834C833.477 120.834 834.736 120.603 835.892 120.141C837.047 119.655 838.041 118.997 838.873 118.165C839.705 117.31 840.306 116.351 840.676 115.287L836.689 113.485C836.319 114.479 835.73 115.264 834.921 115.842C834.135 116.397 833.199 116.674 832.113 116.674C831.119 116.674 830.23 116.431 829.444 115.946C828.681 115.461 828.08 114.791 827.641 113.935C827.202 113.057 826.983 112.075 826.983 110.989C826.983 109.879 827.202 108.897 827.641 108.042C828.08 107.187 828.681 106.517 829.444 106.031C830.23 105.546 831.119 105.303 832.113 105.303C833.199 105.303 834.135 105.592 834.921 106.17C835.73 106.748 836.319 107.511 836.689 108.458L840.676 106.725C840.283 105.615 839.67 104.645 838.839 103.813C838.006 102.958 837.013 102.299 835.857 101.837C834.702 101.375 833.454 101.143 832.113 101.143C830.241 101.143 828.554 101.571 827.052 102.426C825.573 103.281 824.406 104.448 823.551 105.927C822.695 107.407 822.268 109.082 822.268 110.954C822.268 112.826 822.695 114.513 823.551 116.015C824.406 117.495 825.573 118.673 827.052 119.551C828.554 120.407 830.241 120.834 832.113 120.834Z" fill="#333333"/>
<path d="M853.066 120.834C854.984 120.834 856.659 120.407 858.092 119.551C859.548 118.673 860.565 117.564 861.143 116.223L857.468 114.421C857.052 115.137 856.475 115.727 855.735 116.189C855.019 116.628 854.14 116.847 853.1 116.847C851.737 116.847 850.593 116.431 849.668 115.599C848.744 114.767 848.212 113.658 848.074 112.271H861.663C861.755 112.017 861.813 111.728 861.836 111.405C861.883 111.058 861.906 110.711 861.906 110.365C861.906 108.678 861.547 107.141 860.831 105.754C860.115 104.367 859.075 103.258 857.711 102.426C856.347 101.571 854.683 101.143 852.719 101.143C850.963 101.143 849.368 101.571 847.935 102.426C846.525 103.281 845.404 104.448 844.572 105.927C843.763 107.383 843.359 109.059 843.359 110.954C843.359 112.78 843.763 114.444 844.572 115.946C845.381 117.448 846.514 118.639 847.97 119.517C849.426 120.395 851.124 120.834 853.066 120.834ZM852.719 104.887C853.921 104.887 854.915 105.257 855.7 105.997C856.509 106.713 856.96 107.649 857.052 108.805H848.178C848.432 107.557 848.963 106.598 849.772 105.927C850.604 105.234 851.587 104.887 852.719 104.887Z" fill="#333333"/>
<path d="M277.078 165.351H280.415L282.354 159.79H292.46L294.398 165.351H297.735L289.25 141.675H285.563L277.078 165.351ZM283.339 156.93L287.407 145.203L291.474 156.93H283.339Z" fill="#666666"/>
<path d="M300.369 165.351H303.324V155.213C303.324 153.815 303.706 152.713 304.469 151.908C305.231 151.103 306.185 150.701 307.329 150.701C308.494 150.701 309.437 151.103 310.157 151.908C310.899 152.692 311.269 153.794 311.269 155.213V165.351H314.257V155.213C314.257 153.815 314.628 152.713 315.369 151.908C316.132 151.103 317.096 150.701 318.261 150.701C319.405 150.701 320.348 151.103 321.089 151.908C321.831 152.692 322.202 153.794 322.202 155.213V165.351H325.189V154.26C325.189 153.031 324.903 151.94 324.331 150.987C323.759 150.012 322.986 149.249 322.011 148.699C321.058 148.127 319.988 147.841 318.801 147.841C317.657 147.841 316.609 148.105 315.655 148.635C314.723 149.165 313.981 149.938 313.431 150.955C312.922 150.002 312.18 149.249 311.206 148.699C310.253 148.127 309.193 147.841 308.028 147.841C307.011 147.841 306.079 148.063 305.231 148.508C304.405 148.932 303.748 149.546 303.261 150.351V148.222H300.369V165.351Z" fill="#666666"/>
<path d="M329.998 172.343C331.121 172.343 332.074 172.12 332.858 171.676C333.663 171.231 334.341 170.627 334.892 169.864C335.464 169.123 335.93 168.296 336.291 167.385L344.013 148.222H340.74L335.56 161.601L330.348 148.222H327.138L333.939 165.383L333.43 166.623C332.964 167.682 332.466 168.434 331.937 168.879C331.428 169.324 330.676 169.546 329.68 169.546C329.341 169.546 328.992 169.514 328.632 169.451C328.293 169.409 328.007 169.366 327.773 169.324V171.962C328.112 172.11 328.473 172.205 328.854 172.248C329.235 172.311 329.617 172.343 329.998 172.343Z" fill="#666666"/>
<path d="M360.621 165.733C362.167 165.733 363.523 165.457 364.689 164.906C365.875 164.334 366.797 163.55 367.454 162.555C368.132 161.559 368.471 160.415 368.471 159.122C368.471 156.029 366.585 153.9 362.814 152.735L358.841 151.559C357.718 151.199 356.881 150.68 356.331 150.002C355.78 149.302 355.504 148.529 355.504 147.682C355.504 146.58 355.896 145.711 356.68 145.076C357.464 144.419 358.492 144.09 359.763 144.09C361.14 144.09 362.337 144.44 363.354 145.139C364.392 145.838 365.155 146.845 365.642 148.158L368.312 147.046C367.951 145.965 367.358 144.991 366.532 144.122C365.727 143.254 364.742 142.565 363.576 142.057C362.432 141.548 361.151 141.294 359.731 141.294C358.312 141.294 357.04 141.58 355.917 142.152C354.816 142.703 353.947 143.476 353.311 144.472C352.697 145.446 352.39 146.58 352.39 147.872C352.39 149.355 352.845 150.669 353.756 151.813C354.667 152.957 355.981 153.794 357.697 154.324L362.051 155.658C363.11 155.976 363.926 156.421 364.498 156.993C365.07 157.565 365.356 158.349 365.356 159.345C365.356 160.447 364.922 161.326 364.053 161.983C363.206 162.618 362.083 162.936 360.684 162.936C359.159 162.936 357.824 162.533 356.68 161.728C355.536 160.902 354.689 159.726 354.138 158.201L351.436 159.313C351.818 160.521 352.443 161.612 353.311 162.586C354.18 163.54 355.239 164.303 356.489 164.875C357.739 165.447 359.117 165.733 360.621 165.733Z" fill="#666666"/>
<path d="M377.237 165.733C378.487 165.733 379.61 165.5 380.605 165.034C381.601 164.546 382.406 163.911 383.021 163.127V165.351H385.913V153.72C385.913 152.555 385.627 151.538 385.055 150.669C384.504 149.779 383.73 149.091 382.735 148.603C381.739 148.095 380.584 147.841 379.271 147.841C378.254 147.841 377.279 148.021 376.347 148.381C375.415 148.741 374.599 149.239 373.9 149.874C373.201 150.489 372.692 151.188 372.374 151.972L374.948 153.307C375.309 152.502 375.859 151.845 376.601 151.336C377.343 150.828 378.211 150.574 379.207 150.574C380.33 150.574 381.23 150.87 381.908 151.463C382.607 152.035 382.957 152.788 382.957 153.72V154.514L377.109 155.468C375.182 155.786 373.762 156.432 372.851 157.406C371.961 158.36 371.516 159.514 371.516 160.87C371.516 162.311 372.046 163.487 373.105 164.398C374.186 165.288 375.563 165.733 377.237 165.733ZM374.631 160.775C374.631 160.033 374.874 159.408 375.362 158.9C375.87 158.391 376.675 158.042 377.777 157.851L382.957 156.993V158.074C382.957 159.027 382.735 159.896 382.29 160.68C381.845 161.464 381.22 162.089 380.415 162.555C379.61 163 378.667 163.222 377.586 163.222C376.739 163.222 376.029 162.989 375.457 162.523C374.906 162.057 374.631 161.474 374.631 160.775Z" fill="#666666"/>
<path d="M390.495 165.351H393.451V155.213C393.451 153.815 393.843 152.713 394.627 151.908C395.41 151.103 396.406 150.701 397.614 150.701C398.821 150.701 399.807 151.103 400.569 151.908C401.332 152.692 401.713 153.794 401.713 155.213V165.351H404.701V154.26C404.701 153.031 404.415 151.94 403.843 150.987C403.292 150.012 402.529 149.249 401.555 148.699C400.601 148.127 399.51 147.841 398.281 147.841C397.222 147.841 396.268 148.063 395.421 148.508C394.574 148.932 393.896 149.535 393.387 150.319V148.222H390.495V165.351Z" fill="#666666"/>
<path d="M416.716 165.733C417.987 165.733 419.142 165.489 420.18 165.002C421.239 164.493 422.087 163.773 422.723 162.841V165.351H425.615V141.294H422.627V150.51C421.97 149.663 421.134 149.006 420.117 148.54C419.1 148.074 417.966 147.841 416.716 147.841C415.106 147.841 413.655 148.232 412.362 149.016C411.091 149.8 410.085 150.87 409.343 152.226C408.602 153.561 408.231 155.086 408.231 156.802C408.231 158.497 408.602 160.023 409.343 161.379C410.085 162.714 411.091 163.773 412.362 164.557C413.655 165.341 415.106 165.733 416.716 165.733ZM416.97 162.872C415.89 162.872 414.926 162.608 414.078 162.078C413.231 161.548 412.564 160.828 412.076 159.917C411.589 158.985 411.345 157.947 411.345 156.802C411.345 155.637 411.589 154.599 412.076 153.688C412.564 152.756 413.231 152.025 414.078 151.495C414.947 150.966 415.911 150.701 416.97 150.701C418.051 150.701 419.015 150.976 419.862 151.527C420.71 152.057 421.377 152.777 421.864 153.688C422.373 154.599 422.627 155.637 422.627 156.802C422.627 157.947 422.373 158.985 421.864 159.917C421.377 160.828 420.71 161.548 419.862 162.078C419.015 162.608 418.051 162.872 416.97 162.872Z" fill="#666666"/>
<path d="M436.323 165.733C437.551 165.733 438.632 165.521 439.564 165.097C440.496 164.673 441.227 164.091 441.757 163.349C442.287 162.586 442.552 161.718 442.552 160.743C442.552 159.557 442.16 158.54 441.376 157.692C440.592 156.845 439.511 156.22 438.134 155.817L435.337 154.991C434.998 154.885 434.649 154.758 434.289 154.61C433.929 154.44 433.621 154.207 433.367 153.91C433.113 153.593 432.986 153.19 432.986 152.703C432.986 152.025 433.24 151.474 433.748 151.05C434.278 150.627 434.967 150.415 435.814 150.415C436.746 150.415 437.594 150.68 438.357 151.209C439.14 151.718 439.723 152.417 440.104 153.307L442.52 152.194C442.011 150.817 441.153 149.747 439.946 148.985C438.759 148.222 437.414 147.841 435.91 147.841C434.787 147.841 433.77 148.052 432.859 148.476C431.969 148.9 431.259 149.493 430.729 150.256C430.221 150.997 429.967 151.877 429.967 152.894C429.967 153.995 430.316 154.97 431.015 155.817C431.736 156.644 432.869 157.269 434.416 157.692L436.99 158.423C437.35 158.508 437.721 158.646 438.102 158.836C438.505 159.006 438.844 159.25 439.119 159.567C439.416 159.864 439.564 160.267 439.564 160.775C439.564 161.495 439.257 162.078 438.643 162.523C438.028 162.968 437.255 163.19 436.323 163.19C435.284 163.19 434.342 162.904 433.494 162.332C432.647 161.739 431.979 160.923 431.492 159.885L429.14 161.029C429.67 162.47 430.57 163.614 431.842 164.461C433.113 165.309 434.607 165.733 436.323 165.733Z" fill="#666666"/>
<path d="M453.38 165.542C453.613 165.542 453.899 165.521 454.238 165.478C454.577 165.457 454.885 165.415 455.16 165.351V162.745C454.969 162.767 454.768 162.788 454.556 162.809C454.344 162.83 454.154 162.841 453.984 162.841C452.946 162.841 452.204 162.586 451.76 162.078C451.336 161.548 451.124 160.849 451.124 159.98V151.05H454.969V148.222H451.124V144.281H448.168V145.679C448.168 146.463 447.946 147.088 447.501 147.554C447.056 147.999 446.452 148.222 445.69 148.222H445.054V151.05H448.168V160.076C448.168 161.813 448.613 163.158 449.503 164.112C450.414 165.065 451.707 165.542 453.38 165.542Z" fill="#666666"/>
<path d="M466.691 165.733C468.301 165.733 469.774 165.351 471.108 164.589C472.443 163.826 473.502 162.767 474.286 161.411C475.091 160.055 475.494 158.508 475.494 156.771C475.494 155.055 475.102 153.529 474.318 152.194C473.555 150.838 472.507 149.779 471.172 149.016C469.837 148.232 468.343 147.841 466.691 147.841C465.017 147.841 463.513 148.232 462.178 149.016C460.843 149.779 459.784 150.838 459 152.194C458.237 153.529 457.856 155.055 457.856 156.771C457.856 158.487 458.248 160.023 459.032 161.379C459.816 162.735 460.875 163.805 462.21 164.589C463.545 165.351 465.038 165.733 466.691 165.733ZM466.691 162.872C465.61 162.872 464.636 162.608 463.767 162.078C462.92 161.548 462.242 160.828 461.733 159.917C461.225 158.985 460.971 157.936 460.971 156.771C460.971 155.605 461.225 154.567 461.733 153.656C462.242 152.745 462.92 152.025 463.767 151.495C464.636 150.966 465.61 150.701 466.691 150.701C467.75 150.701 468.704 150.966 469.551 151.495C470.42 152.025 471.098 152.745 471.585 153.656C472.094 154.567 472.348 155.605 472.348 156.771C472.348 157.936 472.094 158.985 471.585 159.917C471.098 160.828 470.42 161.548 469.551 162.078C468.704 162.608 467.75 162.872 466.691 162.872Z" fill="#666666"/>
<path d="M479.349 165.351H482.304V155.213C482.304 153.815 482.696 152.713 483.48 151.908C484.264 151.103 485.26 150.701 486.468 150.701C487.675 150.701 488.66 151.103 489.423 151.908C490.186 152.692 490.567 153.794 490.567 155.213V165.351H493.555V154.26C493.555 153.031 493.268 151.94 492.696 150.987C492.146 150.012 491.383 149.249 490.408 148.699C489.455 148.127 488.364 147.841 487.135 147.841C486.076 147.841 485.122 148.063 484.275 148.508C483.427 148.932 482.749 149.535 482.241 150.319V148.222H479.349V165.351Z" fill="#666666"/>
<path d="M505.665 165.733C507.424 165.733 508.949 165.32 510.241 164.493C511.534 163.667 512.445 162.661 512.975 161.474L510.496 160.203C510.008 161.029 509.373 161.707 508.589 162.237C507.805 162.767 506.841 163.031 505.697 163.031C504.744 163.031 503.854 162.819 503.027 162.396C502.222 161.951 501.555 161.326 501.025 160.521C500.517 159.716 500.241 158.762 500.199 157.661H513.292C513.398 157.088 513.451 156.559 513.451 156.072C513.451 154.652 513.133 153.317 512.498 152.067C511.862 150.817 510.941 149.8 509.733 149.016C508.547 148.232 507.106 147.841 505.411 147.841C503.822 147.841 502.402 148.222 501.152 148.985C499.902 149.747 498.907 150.807 498.165 152.163C497.445 153.497 497.085 155.023 497.085 156.739C497.085 158.455 497.455 159.991 498.197 161.347C498.938 162.703 499.955 163.773 501.248 164.557C502.54 165.341 504.013 165.733 505.665 165.733ZM505.411 150.478C506.28 150.478 507.074 150.68 507.794 151.082C508.515 151.463 509.097 152.004 509.542 152.703C509.987 153.402 510.22 154.207 510.241 155.118H500.263C500.474 153.677 501.068 152.544 502.042 151.718C503.017 150.891 504.14 150.478 505.411 150.478Z" fill="#666666"/>
<path d="M955.344 141.086H958.175V124.732L965.196 134.729H965.428L972.42 124.876V141.086H975.28V119.56H972.68L965.341 130.077L957.944 119.56H955.344V141.086Z" fill="#666666"/>
<path d="M984.308 141.432C985.445 141.432 986.466 141.221 987.371 140.797C988.277 140.354 989.008 139.776 989.567 139.063V141.086H992.196V130.511C992.196 129.451 991.936 128.527 991.416 127.737C990.915 126.928 990.212 126.302 989.307 125.859C988.402 125.397 987.352 125.165 986.158 125.165C985.233 125.165 984.347 125.329 983.499 125.657C982.652 125.984 981.91 126.437 981.275 127.015C980.639 127.573 980.177 128.209 979.888 128.922L982.228 130.135C982.556 129.403 983.056 128.806 983.731 128.344C984.405 127.881 985.195 127.65 986.1 127.65C987.121 127.65 987.939 127.92 988.556 128.459C989.191 128.979 989.509 129.663 989.509 130.511V131.233L984.193 132.1C982.44 132.389 981.149 132.976 980.321 133.862C979.512 134.729 979.108 135.779 979.108 137.012C979.108 138.322 979.589 139.391 980.552 140.219C981.535 141.028 982.787 141.432 984.308 141.432ZM981.939 136.925C981.939 136.251 982.161 135.683 982.604 135.22C983.066 134.758 983.798 134.44 984.8 134.267L989.509 133.487V134.469C989.509 135.336 989.307 136.126 988.903 136.838C988.498 137.551 987.93 138.119 987.198 138.543C986.466 138.948 985.609 139.15 984.626 139.15C983.856 139.15 983.211 138.938 982.69 138.514C982.19 138.09 981.939 137.561 981.939 136.925Z" fill="#666666"/>
<path d="M996.363 141.086H999.05V131.869C999.05 130.597 999.406 129.596 1000.12 128.864C1000.83 128.132 1001.74 127.766 1002.83 127.766C1003.93 127.766 1004.83 128.132 1005.52 128.864C1006.22 129.576 1006.56 130.578 1006.56 131.869V141.086H1009.28V131.002C1009.28 129.885 1009.02 128.893 1008.5 128.026C1008 127.14 1007.3 126.446 1006.42 125.946C1005.55 125.425 1004.56 125.165 1003.44 125.165C1002.48 125.165 1001.61 125.368 1000.84 125.772C1000.07 126.157 999.454 126.706 998.992 127.419V125.512H996.363V141.086Z" fill="#666666"/>
<path d="M1017.69 141.432C1018.82 141.432 1019.85 141.221 1020.75 140.797C1021.66 140.354 1022.39 139.776 1022.95 139.063V141.086H1025.58V130.511C1025.58 129.451 1025.32 128.527 1024.8 127.737C1024.3 126.928 1023.59 126.302 1022.69 125.859C1021.78 125.397 1020.73 125.165 1019.54 125.165C1018.61 125.165 1017.73 125.329 1016.88 125.657C1016.03 125.984 1015.29 126.437 1014.65 127.015C1014.02 127.573 1013.56 128.209 1013.27 128.922L1015.61 130.135C1015.94 129.403 1016.44 128.806 1017.11 128.344C1017.78 127.881 1018.57 127.65 1019.48 127.65C1020.5 127.65 1021.32 127.92 1021.94 128.459C1022.57 128.979 1022.89 129.663 1022.89 130.511V131.233L1017.57 132.1C1015.82 132.389 1014.53 132.976 1013.7 133.862C1012.89 134.729 1012.49 135.779 1012.49 137.012C1012.49 138.322 1012.97 139.391 1013.93 140.219C1014.91 141.028 1016.17 141.432 1017.69 141.432ZM1015.32 136.925C1015.32 136.251 1015.54 135.683 1015.98 135.22C1016.45 134.758 1017.18 134.44 1018.18 134.267L1022.89 133.487V134.469C1022.89 135.336 1022.69 136.126 1022.28 136.838C1021.88 137.551 1021.31 138.119 1020.58 138.543C1019.85 138.948 1018.99 139.15 1018.01 139.15C1017.24 139.15 1016.59 138.938 1016.07 138.514C1015.57 138.09 1015.32 137.561 1015.32 136.925Z" fill="#666666"/>
<path d="M1037.17 147.442C1038.61 147.442 1039.89 147.134 1041.01 146.518C1042.15 145.921 1043.03 145.092 1043.67 144.033C1044.3 142.973 1044.62 141.77 1044.62 140.421V125.512H1041.99V127.679C1041.38 126.889 1040.62 126.273 1039.71 125.83C1038.81 125.387 1037.8 125.165 1036.71 125.165C1035.24 125.165 1033.93 125.512 1032.78 126.206C1031.64 126.88 1030.74 127.804 1030.09 128.979C1029.43 130.154 1029.11 131.474 1029.11 132.938C1029.11 134.402 1029.43 135.721 1030.09 136.896C1030.76 138.071 1031.67 139.005 1032.81 139.699C1033.96 140.373 1035.27 140.71 1036.73 140.71C1037.79 140.71 1038.78 140.498 1039.68 140.074C1040.59 139.651 1041.33 139.044 1041.91 138.254V140.421C1041.91 141.365 1041.69 142.164 1041.24 142.819C1040.82 143.493 1040.25 143.994 1039.54 144.322C1038.82 144.668 1038.03 144.842 1037.14 144.842C1035.98 144.842 1035.02 144.582 1034.25 144.062C1033.5 143.561 1032.99 142.944 1032.72 142.213L1030.2 143.368C1030.72 144.582 1031.6 145.564 1032.83 146.315C1034.07 147.067 1035.51 147.442 1037.17 147.442ZM1036.97 138.11C1036 138.11 1035.14 137.879 1034.37 137.416C1033.61 136.954 1033.02 136.338 1032.57 135.567C1032.15 134.777 1031.94 133.901 1031.94 132.938C1031.94 131.975 1032.16 131.108 1032.6 130.337C1033.05 129.548 1033.64 128.922 1034.39 128.459C1035.16 127.997 1036.02 127.766 1036.97 127.766C1037.89 127.766 1038.73 127.997 1039.48 128.459C1040.23 128.922 1040.82 129.548 1041.24 130.337C1041.69 131.108 1041.91 131.975 1041.91 132.938C1041.91 133.882 1041.69 134.748 1041.24 135.538C1040.82 136.328 1040.23 136.954 1039.48 137.416C1038.73 137.879 1037.89 138.11 1036.97 138.11Z" fill="#666666"/>
<path d="M1055.95 141.432C1057.55 141.432 1058.94 141.057 1060.11 140.306C1061.29 139.554 1062.12 138.639 1062.6 137.561L1060.35 136.405C1059.9 137.156 1059.32 137.773 1058.61 138.254C1057.9 138.736 1057.02 138.976 1055.98 138.976C1055.12 138.976 1054.31 138.784 1053.56 138.399C1052.82 137.994 1052.22 137.426 1051.74 136.694C1051.27 135.962 1051.02 135.095 1050.98 134.093H1062.89C1062.98 133.573 1063.03 133.092 1063.03 132.649C1063.03 131.358 1062.74 130.145 1062.17 129.008C1061.59 127.872 1060.75 126.947 1059.65 126.234C1058.57 125.522 1057.26 125.165 1055.72 125.165C1054.28 125.165 1052.99 125.512 1051.85 126.206C1050.71 126.899 1049.81 127.862 1049.14 129.095C1048.48 130.308 1048.15 131.695 1048.15 133.256C1048.15 134.816 1048.49 136.212 1049.16 137.445C1049.84 138.678 1050.76 139.651 1051.94 140.363C1053.11 141.076 1054.45 141.432 1055.95 141.432ZM1055.72 127.564C1056.51 127.564 1057.23 127.747 1057.89 128.113C1058.54 128.459 1059.07 128.95 1059.48 129.586C1059.88 130.222 1060.1 130.954 1060.11 131.782H1051.04C1051.23 130.472 1051.77 129.442 1052.66 128.69C1053.55 127.939 1054.57 127.564 1055.72 127.564Z" fill="#666666"/>
<path d="M1073.62 141.432C1074.77 141.432 1075.82 141.211 1076.76 140.768C1077.73 140.306 1078.5 139.651 1079.08 138.803V141.086H1081.71V119.213H1078.99V127.592C1078.39 126.822 1077.63 126.225 1076.71 125.801C1075.78 125.377 1074.75 125.165 1073.62 125.165C1072.15 125.165 1070.83 125.522 1069.66 126.234C1068.5 126.947 1067.59 127.92 1066.91 129.153C1066.24 130.366 1065.9 131.753 1065.9 133.313C1065.9 134.854 1066.24 136.241 1066.91 137.474C1067.59 138.688 1068.5 139.651 1069.66 140.363C1070.83 141.076 1072.15 141.432 1073.62 141.432ZM1073.85 138.832C1072.86 138.832 1071.99 138.591 1071.22 138.11C1070.45 137.628 1069.84 136.973 1069.4 136.145C1068.95 135.297 1068.73 134.354 1068.73 133.313C1068.73 132.254 1068.95 131.31 1069.4 130.482C1069.84 129.634 1070.45 128.97 1071.22 128.488C1072.01 128.007 1072.88 127.766 1073.85 127.766C1074.83 127.766 1075.71 128.016 1076.48 128.517C1077.25 128.999 1077.85 129.654 1078.3 130.482C1078.76 131.31 1078.99 132.254 1078.99 133.313C1078.99 134.354 1078.76 135.297 1078.3 136.145C1077.85 136.973 1077.25 137.628 1076.48 138.11C1075.71 138.591 1074.83 138.832 1073.85 138.832Z" fill="#666666"/>
<path opacity="0.9" d="M1226.93 157.185C1242.09 157.185 1254.38 144.638 1254.38 129.16C1254.38 113.682 1242.09 101.135 1226.93 101.135C1211.77 101.135 1199.48 113.682 1199.48 129.16C1199.48 144.638 1211.77 157.185 1226.93 157.185Z" fill="#22B573"/>
<path fill-rule="evenodd" clip-rule="evenodd" d="M1214.08 127.901C1215.09 126.794 1216.82 126.722 1217.92 127.739L1227.92 136.928C1229.03 137.946 1229.1 139.669 1228.08 140.776C1227.06 141.883 1225.34 141.956 1224.23 140.938L1214.24 131.749C1213.13 130.731 1213.06 129.008 1214.08 127.901Z" fill="white"/>
<path fill-rule="evenodd" clip-rule="evenodd" d="M1240.62 118.345C1241.85 119.213 1242.14 120.912 1241.28 122.141L1228.3 140.504C1227.43 141.733 1225.73 142.025 1224.5 141.157C1223.28 140.289 1222.98 138.59 1223.85 137.361L1236.83 118.998C1237.7 117.769 1239.39 117.477 1240.62 118.345Z" fill="white"/>
<path d="M1569.37 142.017H1572.23V120.491H1565.29V122.947H1569.37V142.017Z" fill="#666666"/>
<path d="M1585.74 142.364C1587.46 142.364 1588.95 141.902 1590.22 140.977C1591.49 140.052 1592.49 138.752 1593.2 137.076C1593.91 135.4 1594.27 133.455 1594.27 131.24C1594.27 129.025 1593.91 127.089 1593.2 125.432C1592.49 123.756 1591.48 122.456 1590.19 121.532C1588.92 120.607 1587.43 120.145 1585.72 120.145C1584.02 120.145 1582.53 120.607 1581.24 121.532C1579.97 122.456 1578.97 123.756 1578.26 125.432C1577.55 127.089 1577.19 129.025 1577.19 131.24C1577.19 133.455 1577.55 135.4 1578.26 137.076C1578.97 138.733 1579.98 140.033 1581.27 140.977C1582.56 141.902 1584.05 142.364 1585.74 142.364ZM1585.74 139.735C1584.59 139.735 1583.58 139.388 1582.71 138.694C1581.86 137.982 1581.2 136.99 1580.72 135.718C1580.26 134.428 1580.02 132.935 1580.02 131.24C1580.02 129.526 1580.26 128.042 1580.72 126.79C1581.2 125.519 1581.86 124.537 1582.71 123.843C1583.58 123.13 1584.58 122.774 1585.72 122.774C1586.87 122.774 1587.87 123.13 1588.72 123.843C1589.59 124.537 1590.25 125.519 1590.71 126.79C1591.2 128.042 1591.44 129.526 1591.44 131.24C1591.44 132.954 1591.2 134.447 1590.71 135.718C1590.25 136.99 1589.6 137.982 1588.75 138.694C1587.9 139.388 1586.9 139.735 1585.74 139.735Z" fill="#666666"/>
<path d="M1606.65 142.364C1608.37 142.364 1609.86 141.902 1611.13 140.977C1612.4 140.052 1613.39 138.752 1614.11 137.076C1614.82 135.4 1615.18 133.455 1615.18 131.24C1615.18 129.025 1614.82 127.089 1614.11 125.432C1613.39 123.756 1612.39 122.456 1611.1 121.532C1609.83 120.607 1608.34 120.145 1606.62 120.145C1604.93 120.145 1603.44 120.607 1602.15 121.532C1600.87 122.456 1599.88 123.756 1599.17 125.432C1598.46 127.089 1598.1 129.025 1598.1 131.24C1598.1 133.455 1598.46 135.4 1599.17 137.076C1599.88 138.733 1600.88 140.033 1602.17 140.977C1603.47 141.902 1604.96 142.364 1606.65 142.364ZM1606.65 139.735C1605.5 139.735 1604.49 139.388 1603.62 138.694C1602.77 137.982 1602.11 136.99 1601.63 135.718C1601.16 134.428 1600.93 132.935 1600.93 131.24C1600.93 129.526 1601.16 128.042 1601.63 126.79C1602.11 125.519 1602.77 124.537 1603.62 123.843C1604.49 123.13 1605.49 122.774 1606.62 122.774C1607.78 122.774 1608.78 123.13 1609.63 123.843C1610.5 124.537 1611.16 125.519 1611.62 126.79C1612.1 128.042 1612.34 129.526 1612.34 131.24C1612.34 132.954 1612.1 134.447 1611.62 135.718C1611.16 136.99 1610.51 137.982 1609.66 138.694C1608.81 139.388 1607.81 139.735 1606.65 139.735Z" fill="#666666"/>
<path d="M1620.25 142.017H1623.05V138.55H1620.25V142.017Z" fill="#666666"/>
<path d="M1630.65 142.017H1633.51V120.491H1626.58V122.947H1630.65V142.017Z" fill="#666666"/>
<path d="M1647.03 142.364C1648.74 142.364 1650.24 141.902 1651.51 140.977C1652.78 140.052 1653.77 138.752 1654.48 137.076C1655.2 135.4 1655.55 133.455 1655.55 131.24C1655.55 129.025 1655.2 127.089 1654.48 125.432C1653.77 123.756 1652.77 122.456 1651.48 121.532C1650.21 120.607 1648.72 120.145 1647 120.145C1645.31 120.145 1643.81 120.607 1642.52 121.532C1641.25 122.456 1640.26 123.756 1639.55 125.432C1638.83 127.089 1638.48 129.025 1638.48 131.24C1638.48 133.455 1638.83 135.4 1639.55 137.076C1640.26 138.733 1641.26 140.033 1642.55 140.977C1643.84 141.902 1645.34 142.364 1647.03 142.364ZM1647.03 139.735C1645.87 139.735 1644.86 139.388 1644 138.694C1643.15 137.982 1642.48 136.99 1642 135.718C1641.54 134.428 1641.31 132.935 1641.31 131.24C1641.31 129.526 1641.54 128.042 1642 126.79C1642.48 125.519 1643.15 124.537 1644 123.843C1644.86 123.13 1645.87 122.774 1647 122.774C1648.16 122.774 1649.16 123.13 1650.01 123.843C1650.87 124.537 1651.54 125.519 1652 126.79C1652.48 128.042 1652.72 129.526 1652.72 131.24C1652.72 132.954 1652.48 134.447 1652 135.718C1651.54 136.99 1650.88 137.982 1650.04 138.694C1649.19 139.388 1648.19 139.735 1647.03 139.735Z" fill="#666666"/>
<path d="M1660.63 142.017H1663.43V138.55H1660.63V142.017Z" fill="#666666"/>
<path d="M1671.03 142.017H1673.89V120.491H1666.96V122.947H1671.03V142.017Z" fill="#666666"/>
<path d="M1680.1 142.017H1682.9V138.55H1680.1V142.017Z" fill="#666666"/>
<path d="M1694.58 142.364C1696.03 142.364 1697.31 142.056 1698.43 141.439C1699.54 140.823 1700.42 139.985 1701.06 138.925C1701.69 137.866 1702.01 136.681 1702.01 135.372C1702.01 134.197 1701.76 133.147 1701.26 132.222C1700.78 131.298 1700.09 130.556 1699.21 129.997C1698.34 129.42 1697.34 129.063 1696.2 128.928L1701.11 122.861V120.491H1688.37V122.947H1697.91L1692.16 129.969L1692.76 131.269C1693 131.211 1693.27 131.163 1693.6 131.124C1693.93 131.066 1694.25 131.038 1694.56 131.038C1695.9 131.038 1697.01 131.423 1697.88 132.193C1698.75 132.945 1699.18 134.023 1699.18 135.429C1699.18 136.816 1698.75 137.895 1697.88 138.665C1697.03 139.436 1695.93 139.821 1694.58 139.821C1693.47 139.821 1692.47 139.523 1691.58 138.925C1690.71 138.309 1690.08 137.471 1689.67 136.412L1687.27 137.394C1687.78 138.935 1688.69 140.149 1690.02 141.035C1691.37 141.921 1692.89 142.364 1694.58 142.364Z" fill="#666666"/>
<path d="M1496.8 157.411C1501.41 157.411 1505.82 155.544 1509.08 152.22C1512.33 148.896 1514.16 144.388 1514.16 139.687C1514.16 134.986 1512.33 130.478 1509.08 127.154C1505.82 123.83 1501.41 121.963 1496.8 121.963C1496.27 121.963 1495.75 121.963 1495.24 121.963C1495.87 120.47 1496.02 118.813 1495.68 117.226C1495.34 115.638 1494.51 114.201 1493.33 113.116C1492.14 112.032 1490.65 111.355 1489.07 111.181C1487.49 111.007 1485.89 111.346 1484.51 112.148C1482.57 107.272 1479.03 103.237 1474.49 100.733C1469.96 98.2285 1464.71 97.4117 1459.65 98.422C1454.59 99.4324 1450.04 102.207 1446.76 106.271C1443.48 110.335 1441.69 115.435 1441.7 120.698V121.073H1440.99C1436.22 121.073 1431.64 123.008 1428.27 126.452C1424.9 129.896 1423 134.566 1423 139.437C1423 144.307 1424.9 148.978 1428.27 152.422C1431.64 155.866 1436.22 157.8 1440.99 157.8L1496.8 157.411Z" fill="#329AFC"/>
<path d="M222.741 54.8578H104.526C97.0063 54.8578 90.9102 61.0817 90.9102 68.7592V189.451C90.9102 197.128 97.0063 203.352 104.526 203.352H222.741C230.261 203.352 236.358 197.128 236.358 189.451V68.7592C236.358 61.0817 230.261 54.8578 222.741 54.8578Z" fill="#E1F0FF"/>
<path d="M131.229 107.113L157.004 103.526V128.91L131.256 129.049L131.229 107.113ZM156.99 131.829V157.157L131.229 153.543V131.621L156.99 131.829ZM160.108 103.053L194.285 97.9654V128.548L160.108 128.826V103.053ZM194.285 132.065V162.551L160.108 157.616V132.01L194.285 132.065Z" fill="#3399FE"/>
<defs>
<filter id="filter0_d_776_2067" x="0.943359" y="0.0942383" width="1819.06" height="279.077" filterUnits="userSpaceOnUse" color-interpolation-filters="sRGB">
<feFlood flood-opacity="0" result="BackgroundImageFix"/>
<feColorMatrix in="SourceAlpha" type="matrix" values="0 0 0 0 0 0 0 0 0 0 0 0 0 0 0 0 0 0 127 0" result="hardAlpha"/>
<feOffset dy="10"/>
<feGaussianBlur stdDeviation="9.5"/>
<feComposite in2="hardAlpha" operator="out"/>
<feColorMatrix type="matrix" values="0 0 0 0 0 0 0 0 0 0 0 0 0 0 0 0 0 0 0.25 0"/>
<feBlend mode="normal" in2="BackgroundImageFix" result="effect1_dropShadow_776_2067"/>
<feBlend mode="normal" in="SourceGraphic" in2="effect1_dropShadow_776_2067" result="shape"/>
</filter>
</defs>
</svg>
