<svg xmlns="http://www.w3.org/2000/svg" xmlns:xlink="http://www.w3.org/1999/xlink" width="1901.06" height="361.077" viewBox="0 0 1901.06 361.077">
  <defs>
    <filter id="Path_12" x="0" y="0" width="1901.06" height="361.077" filterUnits="userSpaceOnUse">
      <feOffset dy="28" input="SourceAlpha"/>
      <feGaussianBlur stdDeviation="30" result="blur"/>
      <feFlood flood-opacity="0.169"/>
      <feComposite operator="in" in2="blur"/>
      <feComposite in="SourceGraphic"/>
    </filter>
  </defs>
  <g id="hero-fg" transform="translate(60 41.905)">
    <g transform="matrix(1, 0, 0, 1, -60, -41.91)" filter="url(#Path_12)">
      <path id="Path_12-2" data-name="Path 12" d="M1767.44.094H13.616A13.761,13.761,0,0,0,0,14V227.27a13.761,13.761,0,0,0,13.616,13.9H1767.44a13.765,13.765,0,0,0,13.62-13.9V14A13.764,13.764,0,0,0,1767.44.094Z" transform="translate(60 41.91)" fill="#fff"/>
    </g>
    <path id="Path_13" data-name="Path 13" d="M259.891,111.418h5.1l1.872-5.547h9.984l1.837,5.547h5.131L274.9,85.591h-6.1Zm8.32-9.707,3.64-10.885,3.64,10.885Z" fill="#333"/>
    <path id="Path_14" data-name="Path 14" d="M286.3,111.418h4.541V100.359a4.221,4.221,0,0,1,1.005-2.946,3.39,3.39,0,0,1,2.635-1.109,3.323,3.323,0,0,1,2.635,1.109,4.143,4.143,0,0,1,1.005,2.946v11.059h4.541V100.359a4.217,4.217,0,0,1,1.006-2.946,3.386,3.386,0,0,1,2.634-1.109,3.321,3.321,0,0,1,2.635,1.109,4.143,4.143,0,0,1,1.005,2.946v11.059h4.542V99.285a7.192,7.192,0,0,0-.936-3.709,6.485,6.485,0,0,0-2.462-2.531,7.007,7.007,0,0,0-3.57-.9,7.492,7.492,0,0,0-3.4.763,6.3,6.3,0,0,0-2.461,2.288,6.014,6.014,0,0,0-2.392-2.219,7.049,7.049,0,0,0-3.432-.832,6.961,6.961,0,0,0-3.155.693,4.72,4.72,0,0,0-2.114,2.08V92.559H286.3Z" fill="#333"/>
    <path id="Path_15" data-name="Path 15" d="M320.279,119.079a6.548,6.548,0,0,0,4.437-1.525,10.164,10.164,0,0,0,2.878-4.229l8.216-20.766h-4.923l-4.853,13-4.888-13h-4.888l7.453,18.859-.416,1a6.69,6.69,0,0,1-1.283,1.907,3,3,0,0,1-2.253.728,7.223,7.223,0,0,1-1.179-.1,6.713,6.713,0,0,1-1.109-.208v3.813a4.627,4.627,0,0,0,1.317.382A8,8,0,0,0,320.279,119.079Z" fill="#333"/>
    <path id="Path_16" data-name="Path 16" d="M354.068,111.834a10.639,10.639,0,0,0,4.68-.971,7.78,7.78,0,0,0,3.154-2.669,6.842,6.842,0,0,0,1.144-3.917q0-5.166-6.17-7.142l-4.75-1.491a4.807,4.807,0,0,1-2.114-1.248,2.89,2.89,0,0,1-.694-1.907,2.8,2.8,0,0,1,1.075-2.288,4.475,4.475,0,0,1,2.912-.9,5.985,5.985,0,0,1,3.536,1.075,6.255,6.255,0,0,1,2.288,2.981l3.883-1.733a9.336,9.336,0,0,0-3.64-4.68,10.428,10.428,0,0,0-6.067-1.768,10.1,10.1,0,0,0-4.507.971,7.382,7.382,0,0,0-3.05,2.635,7.166,7.166,0,0,0-1.075,3.917,6.756,6.756,0,0,0,1.525,4.4,9.51,9.51,0,0,0,4.542,2.808L355.7,101.5a4.647,4.647,0,0,1,2.011,1.179,2.6,2.6,0,0,1,.693,1.872,2.731,2.731,0,0,1-1.144,2.288,4.656,4.656,0,0,1-2.947.867,6.744,6.744,0,0,1-3.986-1.248,8.094,8.094,0,0,1-2.7-3.5l-3.918,1.7a10.158,10.158,0,0,0,2.184,3.779,10.968,10.968,0,0,0,3.606,2.5A11.543,11.543,0,0,0,354.068,111.834Z" fill="#333"/>
    <path id="Path_17" data-name="Path 17" d="M372.461,111.834a7.6,7.6,0,0,0,5.893-2.427v2.011h4.3V98.869a6.219,6.219,0,0,0-1.005-3.5,6.6,6.6,0,0,0-2.774-2.357,8.959,8.959,0,0,0-4.056-.867,9.53,9.53,0,0,0-5.061,1.352,7.02,7.02,0,0,0-3.051,3.571l3.71,1.8a4.453,4.453,0,0,1,1.629-2.045,4.338,4.338,0,0,1,2.6-.8,3.618,3.618,0,0,1,2.5.832,2.5,2.5,0,0,1,.971,2.011v.624l-5.616.9a9.022,9.022,0,0,0-4.923,2.115,5.253,5.253,0,0,0-1.6,3.917,4.852,4.852,0,0,0,1.768,3.952A7.186,7.186,0,0,0,372.461,111.834Zm-1.768-5.581q0-1.977,2.669-2.5l4.75-.8v.763a4.482,4.482,0,0,1-1.352,3.293,4.619,4.619,0,0,1-3.467,1.352,3,3,0,0,1-1.872-.554A1.909,1.909,0,0,1,370.693,106.253Z" fill="#333"/>
    <path id="Path_18" data-name="Path 18" d="M386.85,111.418h4.542V100.359a4.131,4.131,0,0,1,1.04-2.946A3.69,3.69,0,0,1,395.2,96.3a3.58,3.58,0,0,1,2.739,1.109,3.983,3.983,0,0,1,1.074,2.946v11.059h4.542V99.285a7.409,7.409,0,0,0-.9-3.709,6.343,6.343,0,0,0-2.53-2.531,7.34,7.34,0,0,0-3.675-.9,7.175,7.175,0,0,0-3.189.693,4.966,4.966,0,0,0-2.15,2.045V92.559H386.85Z" fill="#333"/>
    <path id="Path_19" data-name="Path 19" d="M416.171,111.834a9.066,9.066,0,0,0,3.4-.624,6.894,6.894,0,0,0,2.6-1.872v2.08h4.3V85.175h-4.542v9.291a7.437,7.437,0,0,0-5.789-2.323A9.306,9.306,0,0,0,407.885,97a10.005,10.005,0,0,0-1.248,4.992,10.2,10.2,0,0,0,1.248,5.026,9.586,9.586,0,0,0,3.4,3.536A9.342,9.342,0,0,0,416.171,111.834Zm.485-4.16a5.224,5.224,0,0,1-2.739-.728,5.142,5.142,0,0,1-1.906-2.011,6.483,6.483,0,0,1-.659-2.946,6.275,6.275,0,0,1,.659-2.912,5.149,5.149,0,0,1,1.906-2.011,5.342,5.342,0,0,1,5.443-.035,4.91,4.91,0,0,1,1.872,2.011,6.61,6.61,0,0,1,0,5.893,4.9,4.9,0,0,1-1.872,2.011A5.043,5.043,0,0,1,416.656,107.674Z" fill="#333"/>
    <path id="Path_20" data-name="Path 20" d="M437.868,111.834a8.954,8.954,0,0,0,3.744-.728,6.021,6.021,0,0,0,2.5-2.011,5.218,5.218,0,0,0,.9-3.016,4.977,4.977,0,0,0-1.248-3.4,7.253,7.253,0,0,0-3.6-2.08l-3.016-.9a5.1,5.1,0,0,1-1.6-.728,1.454,1.454,0,0,1-.624-1.248,1.641,1.641,0,0,1,.659-1.352,2.835,2.835,0,0,1,1.8-.52,4.524,4.524,0,0,1,2.566.763,3.944,3.944,0,0,1,1.629,2.045l3.467-1.629a7.052,7.052,0,0,0-2.912-3.571,8.518,8.518,0,0,0-4.715-1.317,8.673,8.673,0,0,0-3.64.728,5.957,5.957,0,0,0-2.461,2.045,5.256,5.256,0,0,0-.867,3.016,5.01,5.01,0,0,0,1.213,3.362,7.469,7.469,0,0,0,3.64,2.115l3.086.867a4.256,4.256,0,0,1,1.525.728,1.43,1.43,0,0,1,.659,1.248,1.75,1.75,0,0,1-.763,1.49,3.272,3.272,0,0,1-1.941.52,4.886,4.886,0,0,1-2.878-.9,6.283,6.283,0,0,1-2.045-2.5l-3.4,1.629a7.421,7.421,0,0,0,3.05,3.883A9.491,9.491,0,0,0,437.868,111.834Z" fill="#333"/>
    <path id="Path_21" data-name="Path 21" d="M457.1,111.626a10.469,10.469,0,0,0,1.144-.069q.624-.069,1.109-.139v-3.883a7.733,7.733,0,0,1-1.213.1,3.325,3.325,0,0,1-2.427-.762,2.959,2.959,0,0,1-.762-2.184V96.615h4.333V92.559h-4.333v-4.3H450.4v1.456a2.789,2.789,0,0,1-.762,2.115,2.99,2.99,0,0,1-2.15.728h-.346v4.056H450.4v8.32a6.091,6.091,0,0,0,6.691,6.691Z" fill="#333"/>
    <path id="Path_22" data-name="Path 22" d="M471.871,111.834a10.128,10.128,0,0,0,4.992-1.248,9.889,9.889,0,0,0,3.606-3.5,9.714,9.714,0,0,0,1.352-5.1,9.7,9.7,0,0,0-4.923-8.563,10.559,10.559,0,0,0-10.088,0,9.88,9.88,0,0,0-3.605,3.5,10.377,10.377,0,0,0,0,10.123,9.879,9.879,0,0,0,3.605,3.5A10.161,10.161,0,0,0,471.871,111.834Zm0-4.16a5.037,5.037,0,0,1-4.61-2.739,6.483,6.483,0,0,1-.659-2.946,6.275,6.275,0,0,1,.659-2.912,5.234,5.234,0,0,1,1.872-2.011,5.033,5.033,0,0,1,2.738-.763,4.7,4.7,0,0,1,2.67.763,4.991,4.991,0,0,1,1.837,2.011,6.03,6.03,0,0,1,.693,2.912,6.228,6.228,0,0,1-.693,2.946,4.984,4.984,0,0,1-1.837,2.011A4.87,4.87,0,0,1,471.871,107.674Z" fill="#333"/>
    <path id="Path_23" data-name="Path 23" d="M485.264,111.418h4.542V100.359a4.131,4.131,0,0,1,1.04-2.946,3.69,3.69,0,0,1,2.773-1.109,3.58,3.58,0,0,1,2.739,1.109,3.983,3.983,0,0,1,1.074,2.946v11.059h4.542V99.285a7.409,7.409,0,0,0-.9-3.709,6.344,6.344,0,0,0-2.53-2.531,7.34,7.34,0,0,0-3.675-.9,7.175,7.175,0,0,0-3.189.693,4.966,4.966,0,0,0-2.15,2.045V92.559h-4.264Z" fill="#333"/>
    <path id="Path_24" data-name="Path 24" d="M514.758,111.834a9.616,9.616,0,0,0,5.027-1.283,7.243,7.243,0,0,0,3.05-3.328l-3.674-1.8a5.072,5.072,0,0,1-1.734,1.768,5.028,5.028,0,0,1-7.661-3.918h13.589a3.209,3.209,0,0,0,.174-.866,7.906,7.906,0,0,0,.069-1.04,9.887,9.887,0,0,0-1.075-4.611,8.3,8.3,0,0,0-3.12-3.328,9.951,9.951,0,0,0-9.776,0,9.408,9.408,0,0,0-3.362,3.5,10.176,10.176,0,0,0-1.214,5.027,10.357,10.357,0,0,0,1.214,4.992,9.17,9.17,0,0,0,3.4,3.571A9.677,9.677,0,0,0,514.758,111.834Zm-.347-15.947A4.18,4.18,0,0,1,517.393,97a4.034,4.034,0,0,1,1.352,2.808H509.87a4.843,4.843,0,0,1,1.6-2.877A4.458,4.458,0,0,1,514.411,95.887Z" fill="#333"/>
    <path id="Path_25" data-name="Path 25" d="M528.5,95.506a6.241,6.241,0,0,0,3.918-2.357,7.419,7.419,0,0,0,1.352-4.576V85.591H529.19v4.853h2.045a3.461,3.461,0,0,1-.867,1.8,3.67,3.67,0,0,1-1.872,1.005Z" fill="#333"/>
    <path id="Path_26" data-name="Path 26" d="M546.607,111.834a8.948,8.948,0,0,0,3.744-.728,6.021,6.021,0,0,0,2.5-2.011,5.21,5.21,0,0,0,.9-3.016,4.977,4.977,0,0,0-1.248-3.4,7.249,7.249,0,0,0-3.6-2.08l-3.016-.9a5.107,5.107,0,0,1-1.6-.728,1.454,1.454,0,0,1-.624-1.248,1.644,1.644,0,0,1,.659-1.352,2.836,2.836,0,0,1,1.8-.52,4.523,4.523,0,0,1,2.565.763,3.934,3.934,0,0,1,1.629,2.045l3.467-1.629a7.047,7.047,0,0,0-2.912-3.571,8.513,8.513,0,0,0-4.715-1.317,8.68,8.68,0,0,0-3.64.728,5.964,5.964,0,0,0-2.461,2.045,5.256,5.256,0,0,0-.867,3.016,5.011,5.011,0,0,0,1.214,3.362,7.464,7.464,0,0,0,3.64,2.115l3.085.867a4.248,4.248,0,0,1,1.525.728,1.428,1.428,0,0,1,.659,1.248,1.747,1.747,0,0,1-.763,1.49,3.269,3.269,0,0,1-1.941.52,4.885,4.885,0,0,1-2.877-.9,6.294,6.294,0,0,1-2.046-2.5l-3.4,1.629a7.428,7.428,0,0,0,3.051,3.883A9.488,9.488,0,0,0,546.607,111.834Z" fill="#333"/>
    <path id="Path_27" data-name="Path 27" d="M568.6,111.418h5.408l4.957-18.581,4.957,18.581h5.408l6.934-25.827H591.2L586.418,105l-4.992-19.414h-4.888L571.512,105l-4.784-19.414h-5.061Z" fill="#333"/>
    <path id="Path_28" data-name="Path 28" d="M598.744,90.445h4.541V85.591h-4.541Zm0,20.973h4.541V92.559h-4.541Z" fill="#333"/>
    <path id="Path_29" data-name="Path 29" d="M607.478,111.418h4.541V100.359a4.135,4.135,0,0,1,1.04-2.946,3.692,3.692,0,0,1,2.774-1.109,3.577,3.577,0,0,1,2.738,1.109,3.979,3.979,0,0,1,1.075,2.946v11.059h4.541V99.285a7.409,7.409,0,0,0-.9-3.709,6.352,6.352,0,0,0-2.531-2.531,7.339,7.339,0,0,0-3.674-.9,7.182,7.182,0,0,0-3.19.693,4.964,4.964,0,0,0-2.149,2.045V92.559h-4.264Z" fill="#333"/>
    <path id="Path_30" data-name="Path 30" d="M636.8,111.834a9.063,9.063,0,0,0,3.4-.624,6.9,6.9,0,0,0,2.6-1.872v2.08h4.3V85.175h-4.541v9.291a7.439,7.439,0,0,0-5.79-2.323A9.3,9.3,0,0,0,628.513,97a10.006,10.006,0,0,0-1.248,4.992,10.2,10.2,0,0,0,1.248,5.026,9.583,9.583,0,0,0,3.4,3.536A9.345,9.345,0,0,0,636.8,111.834Zm.485-4.16a5.22,5.22,0,0,1-2.738-.728,5.144,5.144,0,0,1-1.907-2.011,6.5,6.5,0,0,1-.659-2.946,6.286,6.286,0,0,1,.659-2.912,5.151,5.151,0,0,1,1.907-2.011,5.34,5.34,0,0,1,5.442-.035,4.91,4.91,0,0,1,1.872,2.011,6.6,6.6,0,0,1,0,5.893,4.9,4.9,0,0,1-1.872,2.011A5.04,5.04,0,0,1,637.283,107.674Z" fill="#333"/>
    <path id="Path_31" data-name="Path 31" d="M660.54,111.834a10.128,10.128,0,0,0,4.992-1.248,9.881,9.881,0,0,0,3.606-3.5,9.714,9.714,0,0,0,1.352-5.1,9.7,9.7,0,0,0-4.923-8.563,10.559,10.559,0,0,0-10.088,0,9.879,9.879,0,0,0-3.6,3.5,10.377,10.377,0,0,0,0,10.123,9.879,9.879,0,0,0,3.6,3.5A10.161,10.161,0,0,0,660.54,111.834Zm0-4.16a5.037,5.037,0,0,1-4.61-2.739,6.5,6.5,0,0,1-.659-2.946,6.287,6.287,0,0,1,.659-2.912,5.234,5.234,0,0,1,1.872-2.011,5.036,5.036,0,0,1,2.738-.763,4.7,4.7,0,0,1,2.67.763,4.991,4.991,0,0,1,1.837,2.011,6.03,6.03,0,0,1,.693,2.912,6.229,6.229,0,0,1-.693,2.946,4.985,4.985,0,0,1-1.837,2.011A4.87,4.87,0,0,1,660.54,107.674Z" fill="#333"/>
    <path id="Path_32" data-name="Path 32" d="M678.344,111.418h4.022L686.8,98.7l4.368,12.723h4.056l6.483-18.859h-4.784l-3.952,11.856-4.16-11.856h-4.022L680.6,104.45l-3.952-11.891h-4.784Z" fill="#333"/>
    <path id="Path_33" data-name="Path 33" d="M711.375,111.834a8.948,8.948,0,0,0,3.744-.728,6.021,6.021,0,0,0,2.5-2.011,5.211,5.211,0,0,0,.9-3.016,4.976,4.976,0,0,0-1.248-3.4,7.252,7.252,0,0,0-3.606-2.08l-3.016-.9a5.1,5.1,0,0,1-1.594-.728,1.454,1.454,0,0,1-.624-1.248,1.643,1.643,0,0,1,.658-1.352,2.836,2.836,0,0,1,1.8-.52,4.521,4.521,0,0,1,2.565.763,3.942,3.942,0,0,1,1.63,2.045l3.466-1.629a7.047,7.047,0,0,0-2.912-3.571,8.512,8.512,0,0,0-4.714-1.317,8.674,8.674,0,0,0-3.64.728,5.967,5.967,0,0,0-2.462,2.045,5.256,5.256,0,0,0-.866,3.016,5.01,5.01,0,0,0,1.213,3.362,7.464,7.464,0,0,0,3.64,2.115l3.085.867a4.254,4.254,0,0,1,1.526.728,1.429,1.429,0,0,1,.658,1.248,1.749,1.749,0,0,1-.762,1.49,3.275,3.275,0,0,1-1.942.52,4.885,4.885,0,0,1-2.877-.9,6.283,6.283,0,0,1-2.045-2.5l-3.4,1.629a7.428,7.428,0,0,0,3.051,3.883A9.49,9.49,0,0,0,711.375,111.834Z" fill="#333"/>
    <path id="Path_34" data-name="Path 34" d="M728.549,111.418h8.424a14.492,14.492,0,0,0,7.107-1.664,11.831,11.831,0,0,0,4.715-4.576,14.283,14.283,0,0,0,0-13.381,11.66,11.66,0,0,0-4.68-4.541,14.565,14.565,0,0,0-7.142-1.664h-8.424Zm4.715-4.16V89.751h3.813a9.1,9.1,0,0,1,4.542,1.075,7.522,7.522,0,0,1,3.016,3.051,9.382,9.382,0,0,1,1.074,4.611,9.586,9.586,0,0,1-1.074,4.646,7.3,7.3,0,0,1-2.982,3.05,9.294,9.294,0,0,1-4.576,1.075Z" fill="#333"/>
    <path id="Path_35" data-name="Path 35" d="M762.773,111.834a9.614,9.614,0,0,0,5.027-1.283,7.246,7.246,0,0,0,3.051-3.328l-3.675-1.8a5.078,5.078,0,0,1-1.733,1.768,5.028,5.028,0,0,1-7.662-3.918h13.59a3.21,3.21,0,0,0,.173-.866,7.906,7.906,0,0,0,.069-1.04,9.9,9.9,0,0,0-1.074-4.611,8.314,8.314,0,0,0-3.12-3.328,9.951,9.951,0,0,0-9.776,0,9.41,9.41,0,0,0-3.363,3.5,10.176,10.176,0,0,0-1.213,5.027,10.356,10.356,0,0,0,1.213,4.992,9.177,9.177,0,0,0,3.4,3.571A9.677,9.677,0,0,0,762.773,111.834Zm-.346-15.947A4.179,4.179,0,0,1,765.408,97,4.026,4.026,0,0,1,766.76,99.8h-8.875a4.849,4.849,0,0,1,1.595-2.877A4.459,4.459,0,0,1,762.427,95.887Z" fill="#333"/>
    <path id="Path_36" data-name="Path 36" d="M780.4,111.418h4.021l7.419-18.859h-4.958l-4.472,12.307-4.472-12.307h-4.957Z" fill="#333"/>
    <path id="Path_37" data-name="Path 37" d="M794.353,90.445h4.541V85.591h-4.541Zm0,20.973h4.541V92.559h-4.541Z" fill="#333"/>
    <path id="Path_38" data-name="Path 38" d="M812.17,111.834a10.083,10.083,0,0,0,3.778-.693,9.211,9.211,0,0,0,2.982-1.976,7.728,7.728,0,0,0,1.8-2.878l-3.986-1.8a4.928,4.928,0,0,1-1.768,2.357,4.742,4.742,0,0,1-2.808.832,4.981,4.981,0,0,1-2.67-.728,5.069,5.069,0,0,1-1.8-2.011,6.5,6.5,0,0,1-.659-2.946,6.361,6.361,0,0,1,.659-2.947,5.076,5.076,0,0,1,1.8-2.011,4.978,4.978,0,0,1,2.67-.728,4.61,4.61,0,0,1,2.808.867,4.967,4.967,0,0,1,1.768,2.288l3.986-1.733a7.7,7.7,0,0,0-1.837-2.912,8.523,8.523,0,0,0-2.981-1.976,10.556,10.556,0,0,0-8.806.589,9.426,9.426,0,0,0-3.5,3.5,9.859,9.859,0,0,0-1.282,5.027,10.048,10.048,0,0,0,1.282,5.061,9.683,9.683,0,0,0,3.5,3.536A10.044,10.044,0,0,0,812.17,111.834Z" fill="#333"/>
    <path id="Path_39" data-name="Path 39" d="M833.122,111.834a9.614,9.614,0,0,0,5.027-1.283,7.246,7.246,0,0,0,3.051-3.328l-3.675-1.8a5.078,5.078,0,0,1-1.733,1.768,5.028,5.028,0,0,1-7.662-3.918h13.59a3.21,3.21,0,0,0,.173-.866,7.906,7.906,0,0,0,.069-1.04,9.9,9.9,0,0,0-1.074-4.611,8.314,8.314,0,0,0-3.12-3.328,9.951,9.951,0,0,0-9.776,0,9.41,9.41,0,0,0-3.363,3.5,10.176,10.176,0,0,0-1.213,5.027,10.356,10.356,0,0,0,1.213,4.992,9.177,9.177,0,0,0,3.4,3.571A9.677,9.677,0,0,0,833.122,111.834Zm-.346-15.947A4.179,4.179,0,0,1,835.757,97a4.026,4.026,0,0,1,1.352,2.808h-8.875a4.849,4.849,0,0,1,1.595-2.877A4.459,4.459,0,0,1,832.776,95.887Z" fill="#333"/>
    <path id="Path_40" data-name="Path 40" d="M257.135,156.351h3.337l1.938-5.561h10.106l1.939,5.561h3.337l-8.485-23.676H265.62Zm6.26-8.421,4.068-11.727,4.068,11.727Z" fill="#666"/>
    <path id="Path_41" data-name="Path 41" d="M280.426,156.351h2.955V146.213a4.609,4.609,0,0,1,1.144-3.3,3.777,3.777,0,0,1,2.86-1.207,3.616,3.616,0,0,1,2.829,1.207,4.624,4.624,0,0,1,1.112,3.3v10.138h2.987V146.213a4.689,4.689,0,0,1,1.113-3.3,3.811,3.811,0,0,1,2.892-1.207,3.675,3.675,0,0,1,2.828,1.207,4.619,4.619,0,0,1,1.112,3.3v10.138h2.988V145.26a6.235,6.235,0,0,0-.858-3.273,6.433,6.433,0,0,0-5.53-3.146,6.364,6.364,0,0,0-3.146.794,5.74,5.74,0,0,0-2.225,2.32,5.556,5.556,0,0,0-2.224-2.256,6.061,6.061,0,0,0-3.178-.858,5.923,5.923,0,0,0-2.8.667,4.854,4.854,0,0,0-1.97,1.843v-2.129h-2.892Z" fill="#666"/>
    <path id="Path_42" data-name="Path 42" d="M310.055,163.343a5.72,5.72,0,0,0,2.86-.667,6.162,6.162,0,0,0,2.034-1.812,10.117,10.117,0,0,0,1.4-2.479l7.723-19.163H320.8l-5.18,13.379L310.4,139.222H307.2l6.8,17.161-.508,1.24a6.187,6.187,0,0,1-1.494,2.256,3.334,3.334,0,0,1-2.256.667,6.087,6.087,0,0,1-1.049-.1c-.339-.042-.625-.085-.858-.127v2.638a3.726,3.726,0,0,0,1.081.286A7,7,0,0,0,310.055,163.343Z" fill="#666"/>
    <path id="Path_43" data-name="Path 43" d="M340.678,156.733a9.417,9.417,0,0,0,4.067-.827,6.717,6.717,0,0,0,2.765-2.351,5.954,5.954,0,0,0,1.017-3.433q0-4.639-5.657-6.387l-3.972-1.176A5.165,5.165,0,0,1,336.387,141a3.663,3.663,0,0,1-.826-2.32,3.173,3.173,0,0,1,1.176-2.606,4.638,4.638,0,0,1,3.082-.986,6.184,6.184,0,0,1,3.592,1.049,6.057,6.057,0,0,1,2.288,3.019l2.669-1.112a7.776,7.776,0,0,0-1.779-2.924,8.737,8.737,0,0,0-2.956-2.065,9.36,9.36,0,0,0-3.845-.763,8.283,8.283,0,0,0-3.814.858,6.438,6.438,0,0,0-2.606,2.32,6.242,6.242,0,0,0-.922,3.4,6.151,6.151,0,0,0,1.367,3.941,7.814,7.814,0,0,0,3.941,2.511l4.354,1.334a5.725,5.725,0,0,1,2.447,1.335,3.178,3.178,0,0,1,.858,2.352,3.141,3.141,0,0,1-1.3,2.638,5.484,5.484,0,0,1-3.369.953,6.782,6.782,0,0,1-4-1.208,7.24,7.24,0,0,1-2.543-3.527l-2.7,1.112a8.887,8.887,0,0,0,1.875,3.273,9.7,9.7,0,0,0,3.178,2.289A9.811,9.811,0,0,0,340.678,156.733Z" fill="#666"/>
    <path id="Path_44" data-name="Path 44" d="M357.293,156.733a7.857,7.857,0,0,0,3.369-.7,6.812,6.812,0,0,0,2.415-1.907v2.224h2.892V144.72a5.421,5.421,0,0,0-.858-3.051,5.507,5.507,0,0,0-2.32-2.066,7.522,7.522,0,0,0-3.464-.762,8.05,8.05,0,0,0-2.924.54,7.768,7.768,0,0,0-2.447,1.493,5.575,5.575,0,0,0-1.525,2.1l2.574,1.335a4.658,4.658,0,0,1,1.653-1.971,4.5,4.5,0,0,1,2.606-.762,3.955,3.955,0,0,1,2.7.889,2.775,2.775,0,0,1,1.049,2.257v.794l-5.848.954a7.28,7.28,0,0,0-4.258,1.938,4.894,4.894,0,0,0-1.335,3.464,4.439,4.439,0,0,0,1.589,3.528A6.283,6.283,0,0,0,357.293,156.733Zm-2.606-4.958a2.606,2.606,0,0,1,.731-1.875,4.421,4.421,0,0,1,2.416-1.049l5.18-.858v1.081a5.188,5.188,0,0,1-.668,2.606,4.978,4.978,0,0,1-1.875,1.875,5.754,5.754,0,0,1-2.828.667,3.26,3.26,0,0,1-2.129-.7A2.2,2.2,0,0,1,354.687,151.775Z" fill="#666"/>
    <path id="Path_45" data-name="Path 45" d="M370.552,156.351h2.955V146.213a4.535,4.535,0,0,1,1.176-3.3,3.992,3.992,0,0,1,2.987-1.207,3.889,3.889,0,0,1,2.956,1.207,4.541,4.541,0,0,1,1.144,3.3v10.138h2.987V145.26a6.235,6.235,0,0,0-.858-3.273,5.919,5.919,0,0,0-2.288-2.288,6.235,6.235,0,0,0-3.273-.858,6.057,6.057,0,0,0-2.86.667,5.088,5.088,0,0,0-2.034,1.811v-2.1h-2.892Z" fill="#666"/>
    <path id="Path_46" data-name="Path 46" d="M396.773,156.733a8.056,8.056,0,0,0,3.464-.731,6.327,6.327,0,0,0,2.542-2.161v2.51h2.892V132.294h-2.987v9.216a6.6,6.6,0,0,0-2.511-1.97,8.067,8.067,0,0,0-3.4-.7,8.228,8.228,0,0,0-4.354,1.175,8.465,8.465,0,0,0-3.019,3.21,9.259,9.259,0,0,0-1.113,4.576,9.377,9.377,0,0,0,1.113,4.577,8.529,8.529,0,0,0,3.019,3.178A8.229,8.229,0,0,0,396.773,156.733Zm.254-2.861a5.337,5.337,0,0,1-2.892-.794,5.628,5.628,0,0,1-2-2.161,6.622,6.622,0,0,1-.731-3.115,6.5,6.5,0,0,1,.731-3.114,5.574,5.574,0,0,1,2-2.193,5.454,5.454,0,0,1,2.892-.794,5.185,5.185,0,0,1,2.892.826,5.628,5.628,0,0,1,2,2.161,6.274,6.274,0,0,1,.763,3.114,6.39,6.39,0,0,1-.763,3.115,5.628,5.628,0,0,1-2,2.161A5.337,5.337,0,0,1,397.027,153.872Z" fill="#666"/>
    <path id="Path_47" data-name="Path 47" d="M416.379,156.733a7.76,7.76,0,0,0,3.242-.636,5.34,5.34,0,0,0,2.193-1.748,4.463,4.463,0,0,0,.794-2.606,4.337,4.337,0,0,0-1.176-3.051,6.965,6.965,0,0,0-3.241-1.875l-2.8-.826q-.509-.159-1.049-.381a2.73,2.73,0,0,1-.921-.7,1.866,1.866,0,0,1-.382-1.207,2.053,2.053,0,0,1,.763-1.653,3.21,3.21,0,0,1,2.066-.635,4.361,4.361,0,0,1,2.542.794,4.594,4.594,0,0,1,1.748,2.1l2.415-1.113A6.234,6.234,0,0,0,420,139.985a7.3,7.3,0,0,0-4.036-1.144,7.144,7.144,0,0,0-3.051.635,5.319,5.319,0,0,0-2.129,1.78,4.553,4.553,0,0,0-.763,2.638,4.462,4.462,0,0,0,1.049,2.923,6.751,6.751,0,0,0,3.4,1.875l2.575.731a5.157,5.157,0,0,1,1.112.413,2.738,2.738,0,0,1,1.017.731,1.633,1.633,0,0,1,.445,1.208,2.062,2.062,0,0,1-.922,1.748,3.853,3.853,0,0,1-2.32.667,4.942,4.942,0,0,1-2.828-.858,6.038,6.038,0,0,1-2-2.447l-2.352,1.144a6.873,6.873,0,0,0,2.7,3.432A7.885,7.885,0,0,0,416.379,156.733Z" fill="#666"/>
    <path id="Path_48" data-name="Path 48" d="M433.437,156.542a7,7,0,0,0,.858-.064,5.638,5.638,0,0,0,.922-.127v-2.606q-.287.033-.6.064c-.212.021-.4.032-.572.032a2.827,2.827,0,0,1-2.225-.763,3.258,3.258,0,0,1-.635-2.1v-8.93h3.845v-2.828h-3.845v-3.941h-2.956v1.4a2.6,2.6,0,0,1-.667,1.875,2.449,2.449,0,0,1-1.812.668h-.635v2.828h3.114v9.026a5.692,5.692,0,0,0,1.335,4.036A5.11,5.11,0,0,0,433.437,156.542Z" fill="#666"/>
    <path id="Path_49" data-name="Path 49" d="M446.748,156.733a8.753,8.753,0,0,0,4.417-1.144,8.475,8.475,0,0,0,3.178-3.178,9.505,9.505,0,0,0,.032-9.217,8.254,8.254,0,0,0-3.146-3.178,9.193,9.193,0,0,0-8.994,0,8.475,8.475,0,0,0-3.178,3.178,9.671,9.671,0,0,0,.032,9.185,8.707,8.707,0,0,0,3.178,3.21A8.874,8.874,0,0,0,446.748,156.733Zm0-2.861a5.5,5.5,0,0,1-2.924-.794,5.866,5.866,0,0,1-2.034-2.161,6.455,6.455,0,0,1-.763-3.146,6.276,6.276,0,0,1,.763-3.115,5.865,5.865,0,0,1,2.034-2.161,5.508,5.508,0,0,1,2.924-.794,5.292,5.292,0,0,1,2.86.794,5.559,5.559,0,0,1,2.034,2.161,6.286,6.286,0,0,1,.762,3.115,6.466,6.466,0,0,1-.762,3.146,5.559,5.559,0,0,1-2.034,2.161A5.283,5.283,0,0,1,446.748,153.872Z" fill="#666"/>
    <path id="Path_50" data-name="Path 50" d="M459.4,156.351h2.956V146.213a4.535,4.535,0,0,1,1.176-3.3,3.992,3.992,0,0,1,2.987-1.207,3.889,3.889,0,0,1,2.956,1.207,4.546,4.546,0,0,1,1.144,3.3v10.138h2.987V145.26a6.235,6.235,0,0,0-.858-3.273,5.932,5.932,0,0,0-2.288-2.288,6.238,6.238,0,0,0-3.273-.858,6.061,6.061,0,0,0-2.861.667,5.1,5.1,0,0,0-2.034,1.811v-2.1H459.4Z" fill="#666"/>
    <path id="Path_51" data-name="Path 51" d="M485.722,156.733a8.3,8.3,0,0,0,4.576-1.24,6.98,6.98,0,0,0,2.733-3.019l-2.479-1.271a6.269,6.269,0,0,1-1.906,2.034,5.045,5.045,0,0,1-2.892.794,5.774,5.774,0,0,1-2.67-.635,5.391,5.391,0,0,1-2.828-4.735h13.093a8.634,8.634,0,0,0-.794-5.594,7.815,7.815,0,0,0-2.765-3.051,7.668,7.668,0,0,0-4.322-1.175,8.01,8.01,0,0,0-4.259,1.144,8.3,8.3,0,0,0-2.987,3.178,10.164,10.164,0,0,0,.031,9.184,8.277,8.277,0,0,0,7.469,4.386Zm-.254-15.255a4.807,4.807,0,0,1,2.383.6,4.58,4.58,0,0,1,2.447,4.036h-9.979a5.281,5.281,0,0,1,1.78-3.4A5.052,5.052,0,0,1,485.468,141.478Z" fill="#666"/>
    <path id="Path_52" data-name="Path 52" d="M935.4,132.086h2.832V115.732l7.021,10h.231l6.992-9.853v16.21h2.861V110.56h-2.6L945.4,121.077,938,110.56h-2.6Z" fill="#666"/>
    <path id="Path_53" data-name="Path 53" d="M964.365,132.432a7.135,7.135,0,0,0,3.063-.635,6.2,6.2,0,0,0,2.2-1.734v2.023h2.629V121.511a4.928,4.928,0,0,0-.78-2.774,5.005,5.005,0,0,0-2.109-1.878,6.84,6.84,0,0,0-3.15-.694,7.3,7.3,0,0,0-2.658.492,7.046,7.046,0,0,0-2.225,1.358,5.063,5.063,0,0,0-1.387,1.907l2.341,1.213a4.227,4.227,0,0,1,1.5-1.791,4.082,4.082,0,0,1,2.37-.694,3.6,3.6,0,0,1,2.455.809,2.521,2.521,0,0,1,.954,2.052v.722l-5.316.867a6.617,6.617,0,0,0-3.872,1.762,4.451,4.451,0,0,0-1.214,3.15,4.034,4.034,0,0,0,1.445,3.207A5.711,5.711,0,0,0,964.365,132.432ZM962,127.925a2.372,2.372,0,0,1,.664-1.705,4.022,4.022,0,0,1,2.2-.953l4.71-.78v.982a4.707,4.707,0,0,1-.607,2.369,4.523,4.523,0,0,1-1.7,1.705,5.224,5.224,0,0,1-2.571.607,2.963,2.963,0,0,1-1.936-.636A2,2,0,0,1,962,127.925Z" fill="#666"/>
    <path id="Path_54" data-name="Path 54" d="M976.419,132.086h2.687v-9.217a4.126,4.126,0,0,1,1.069-3.005,3.629,3.629,0,0,1,2.716-1.1,3.538,3.538,0,0,1,2.688,1.1,4.13,4.13,0,0,1,1.04,3.005v9.217h2.716V122a5.672,5.672,0,0,0-.78-2.976,5.4,5.4,0,0,0-2.081-2.08,5.664,5.664,0,0,0-2.976-.781,5.512,5.512,0,0,0-2.6.607,4.621,4.621,0,0,0-1.849,1.647v-1.907h-2.63Z" fill="#666"/>
    <path id="Path_55" data-name="Path 55" d="M997.745,132.432a7.157,7.157,0,0,0,3.065-.635,6.227,6.227,0,0,0,2.19-1.734v2.023h2.63V121.511a5.079,5.079,0,0,0-2.89-4.652,6.8,6.8,0,0,0-3.146-.694,7.3,7.3,0,0,0-2.658.492,7.035,7.035,0,0,0-2.225,1.358,5.052,5.052,0,0,0-1.387,1.907l2.341,1.213a4.227,4.227,0,0,1,1.5-1.791,4.081,4.081,0,0,1,2.369-.694,3.576,3.576,0,0,1,2.454.809,2.515,2.515,0,0,1,.96,2.052v.722l-5.321.867a6.614,6.614,0,0,0-3.871,1.762,4.451,4.451,0,0,0-1.214,3.15,4.034,4.034,0,0,0,1.445,3.207A5.711,5.711,0,0,0,997.745,132.432Zm-2.369-4.507a2.372,2.372,0,0,1,.664-1.705,4.015,4.015,0,0,1,2.2-.953l4.714-.78v.982a4.762,4.762,0,0,1-.61,2.369,4.523,4.523,0,0,1-1.71,1.705,5.2,5.2,0,0,1-2.567.607,2.963,2.963,0,0,1-1.936-.636A2,2,0,0,1,995.376,127.925Z" fill="#666"/>
    <path id="Path_56" data-name="Path 56" d="M1017.22,138.442a7.848,7.848,0,0,0,3.85-.924,6.7,6.7,0,0,0,2.66-2.485,6.934,6.934,0,0,0,.95-3.612V116.512h-2.63v2.167a6.526,6.526,0,0,0-2.28-1.849,6.774,6.774,0,0,0-3.01-.665,7.506,7.506,0,0,0-3.93,1.041,7.28,7.28,0,0,0-2.68,2.773,8.409,8.409,0,0,0,0,7.917,7.319,7.319,0,0,0,6.64,3.814,6.887,6.887,0,0,0,2.95-.636,5.664,5.664,0,0,0,2.22-1.82v2.167a4.2,4.2,0,0,1-.66,2.4,3.913,3.913,0,0,1-1.71,1.5,5.4,5.4,0,0,1-2.39.52,5.044,5.044,0,0,1-2.89-.78,3.755,3.755,0,0,1-1.53-1.849l-2.52,1.155a6.359,6.359,0,0,0,2.63,2.947A8.152,8.152,0,0,0,1017.22,138.442Zm-.2-9.332a4.955,4.955,0,0,1-2.6-.694,5.126,5.126,0,0,1-1.79-1.849,5.511,5.511,0,0,1-.63-2.629,5.153,5.153,0,0,1,.66-2.6,5.078,5.078,0,0,1,1.79-1.878,4.908,4.908,0,0,1,2.57-.693,4.733,4.733,0,0,1,2.52.693,4.923,4.923,0,0,1,1.76,1.878,5.154,5.154,0,0,1,.66,2.6,5.252,5.252,0,0,1-.66,2.6,4.909,4.909,0,0,1-1.76,1.878A4.725,4.725,0,0,1,1017.02,129.11Z" fill="#666"/>
    <path id="Path_57" data-name="Path 57" d="M1036.01,132.432a7.541,7.541,0,0,0,4.16-1.126,6.4,6.4,0,0,0,2.49-2.745l-2.26-1.156a5.673,5.673,0,0,1-1.73,1.849,4.582,4.582,0,0,1-2.63.722,5.244,5.244,0,0,1-2.43-.577,4.9,4.9,0,0,1-2.57-4.306h11.91a8.53,8.53,0,0,0,.14-1.444,7.9,7.9,0,0,0-.87-3.641,7.093,7.093,0,0,0-2.51-2.774,6.982,6.982,0,0,0-3.93-1.069,7.244,7.244,0,0,0-3.87,1.041,7.575,7.575,0,0,0-2.72,2.889,9.257,9.257,0,0,0,.03,8.35,7.514,7.514,0,0,0,6.79,3.987Zm-.23-13.868a4.39,4.39,0,0,1,2.17.549,4.141,4.141,0,0,1,2.22,3.669h-9.07a4.78,4.78,0,0,1,1.62-3.092A4.572,4.572,0,0,1,1035.78,118.564Z" fill="#666"/>
    <path id="Path_58" data-name="Path 58" d="M1053.67,132.432a7.3,7.3,0,0,0,3.15-.664,5.775,5.775,0,0,0,2.31-1.965v2.283h2.63V110.213h-2.71v8.379a6.01,6.01,0,0,0-2.29-1.791,7.3,7.3,0,0,0-3.09-.636,7.517,7.517,0,0,0-3.96,1.069,7.7,7.7,0,0,0-2.74,2.919,8.357,8.357,0,0,0-1.01,4.16,8.466,8.466,0,0,0,1.01,4.161,7.749,7.749,0,0,0,2.74,2.889A7.507,7.507,0,0,0,1053.67,132.432Zm.23-2.6a4.869,4.869,0,0,1-2.63-.722,5.177,5.177,0,0,1-1.82-1.965,6.054,6.054,0,0,1-.66-2.832,5.941,5.941,0,0,1,.66-2.831,5.119,5.119,0,0,1,1.82-1.994,4.967,4.967,0,0,1,2.63-.722,4.7,4.7,0,0,1,2.63.751,5.1,5.1,0,0,1,1.82,1.965,5.736,5.736,0,0,1,.7,2.831,5.845,5.845,0,0,1-.7,2.832,5.1,5.1,0,0,1-1.82,1.965A4.845,4.845,0,0,1,1053.9,129.832Z" fill="#666"/>
    <path id="Path_59" data-name="Path 59" d="M1206.99,148.185c15.16,0,27.45-12.547,27.45-28.025s-12.29-28.025-27.45-28.025-27.45,12.547-27.45,28.025S1191.83,148.185,1206.99,148.185Z" fill="#22b573" opacity="0.9"/>
    <path id="Path_60" data-name="Path 60" d="M1194.13,118.9a2.727,2.727,0,0,1,3.85-.162l9.99,9.189a2.721,2.721,0,1,1-3.68,4.01l-10-9.189A2.728,2.728,0,0,1,1194.13,118.9Z" fill="#fff" fill-rule="evenodd"/>
    <path id="Path_61" data-name="Path 61" d="M1220.68,109.345a2.72,2.72,0,0,1,.65,3.8L1208.35,131.5a2.72,2.72,0,1,1-4.44-3.143L1216.88,110A2.728,2.728,0,0,1,1220.68,109.345Z" fill="#fff" fill-rule="evenodd"/>
    <path id="Path_62" data-name="Path 62" d="M1549.42,133.017h2.86V111.491h-6.93v2.456h4.07Z" fill="#666"/>
    <path id="Path_63" data-name="Path 63" d="M1565.8,133.364a7.4,7.4,0,0,0,4.48-1.387,9.149,9.149,0,0,0,2.98-3.9,14.866,14.866,0,0,0,1.06-5.836,14.658,14.658,0,0,0-1.06-5.808,9.042,9.042,0,0,0-3.01-3.9,7.4,7.4,0,0,0-4.48-1.387,7.5,7.5,0,0,0-4.48,1.387,9.045,9.045,0,0,0-2.97,3.9,14.654,14.654,0,0,0-1.07,5.808,14.863,14.863,0,0,0,1.07,5.836,9.185,9.185,0,0,0,3,3.9A7.5,7.5,0,0,0,1565.8,133.364Zm0-2.629a4.7,4.7,0,0,1-3.03-1.041,7.106,7.106,0,0,1-2-2.976,13.312,13.312,0,0,1-.69-4.478,12.913,12.913,0,0,1,.69-4.45,6.894,6.894,0,0,1,2-2.947,4.578,4.578,0,0,1,3-1.069,4.529,4.529,0,0,1,3.01,1.069,6.546,6.546,0,0,1,1.99,2.947,12.424,12.424,0,0,1,.72,4.45,12.658,12.658,0,0,1-.72,4.478,6.866,6.866,0,0,1-1.96,2.976A4.607,4.607,0,0,1,1565.8,130.735Z" fill="#666"/>
    <path id="Path_64" data-name="Path 64" d="M1586.71,133.364a7.418,7.418,0,0,0,4.48-1.387,9.055,9.055,0,0,0,2.97-3.9,14.685,14.685,0,0,0,1.07-5.836,14.48,14.48,0,0,0-1.07-5.808,8.951,8.951,0,0,0-3-3.9,7.4,7.4,0,0,0-4.48-1.387,7.5,7.5,0,0,0-4.48,1.387,9.045,9.045,0,0,0-2.97,3.9,14.48,14.48,0,0,0-1.07,5.808,14.685,14.685,0,0,0,1.07,5.836,9.184,9.184,0,0,0,3,3.9A7.482,7.482,0,0,0,1586.71,133.364Zm0-2.629a4.679,4.679,0,0,1-3.03-1.041,7.014,7.014,0,0,1-2-2.976,13.309,13.309,0,0,1-.69-4.478,12.911,12.911,0,0,1,.69-4.45,6.806,6.806,0,0,1,2-2.947,4.758,4.758,0,0,1,6.01,0,6.546,6.546,0,0,1,1.99,2.947,12.424,12.424,0,0,1,.72,4.45,12.658,12.658,0,0,1-.72,4.478,6.8,6.8,0,0,1-1.97,2.976A4.561,4.561,0,0,1,1586.71,130.735Z" fill="#666"/>
    <path id="Path_65" data-name="Path 65" d="M1600.31,133.017h2.8V129.55h-2.8Z" fill="#666"/>
    <path id="Path_66" data-name="Path 66" d="M1610.71,133.017h2.86V111.491h-6.93v2.456h4.07Z" fill="#666"/>
    <path id="Path_67" data-name="Path 67" d="M1627.09,133.364a7.439,7.439,0,0,0,4.48-1.387,9.055,9.055,0,0,0,2.97-3.9,14.863,14.863,0,0,0,1.07-5.836,14.654,14.654,0,0,0-1.07-5.808,8.951,8.951,0,0,0-3-3.9,7.929,7.929,0,0,0-8.96,0,9.14,9.14,0,0,0-2.98,3.9,14.654,14.654,0,0,0-1.07,5.808,14.863,14.863,0,0,0,1.07,5.836,9.281,9.281,0,0,0,3.01,3.9A7.482,7.482,0,0,0,1627.09,133.364Zm0-2.629a4.726,4.726,0,0,1-3.04-1.041,7.09,7.09,0,0,1-1.99-2.976,13.309,13.309,0,0,1-.69-4.478,12.911,12.911,0,0,1,.69-4.45,6.878,6.878,0,0,1,1.99-2.947,4.6,4.6,0,0,1,3.01-1.069,4.5,4.5,0,0,1,3,1.069,6.561,6.561,0,0,1,2,2.947,12.424,12.424,0,0,1,.72,4.45,12.658,12.658,0,0,1-.72,4.478,6.882,6.882,0,0,1-1.97,2.976A4.6,4.6,0,0,1,1627.09,130.735Z" fill="#666"/>
    <path id="Path_68" data-name="Path 68" d="M1640.69,133.017h2.8V129.55h-2.8Z" fill="#666"/>
    <path id="Path_69" data-name="Path 69" d="M1651.09,133.017h2.86V111.491h-6.94v2.456h4.08Z" fill="#666"/>
    <path id="Path_70" data-name="Path 70" d="M1660.15,133.017h2.81V129.55h-2.81Z" fill="#666"/>
    <path id="Path_71" data-name="Path 71" d="M1674.64,133.364a7.772,7.772,0,0,0,3.84-.925,6.813,6.813,0,0,0,2.63-2.514,6.737,6.737,0,0,0,.96-3.553,6.518,6.518,0,0,0-.75-3.15,5.761,5.761,0,0,0-2.06-2.225,6.716,6.716,0,0,0-3-1.069l4.91-6.067v-2.37h-12.74v2.456h9.53l-5.75,7.022.61,1.3a6.74,6.74,0,0,1,.84-.145,5.428,5.428,0,0,1,.95-.086,4.8,4.8,0,0,1,3.32,1.155,4.047,4.047,0,0,1,1.31,3.236,4.1,4.1,0,0,1-1.31,3.236,4.68,4.68,0,0,1-3.29,1.156,5.212,5.212,0,0,1-3-.9,5.29,5.29,0,0,1-1.91-2.513l-2.4.982a6.763,6.763,0,0,0,2.75,3.641A8.1,8.1,0,0,0,1674.64,133.364Z" fill="#666"/>
    <path id="Path_72" data-name="Path 72" d="M1476.86,148.411a17.166,17.166,0,0,0,12.27-5.191,17.975,17.975,0,0,0,0-25.066,17.166,17.166,0,0,0-12.27-5.191h-1.57a7.848,7.848,0,0,0,.44-4.737,7.751,7.751,0,0,0-2.35-4.11,7.471,7.471,0,0,0-8.82-.968,22.544,22.544,0,0,0-10.01-11.415,21.83,21.83,0,0,0-14.84-2.311,22.116,22.116,0,0,0-12.89,7.849,22.978,22.978,0,0,0-5.07,14.427v.375h-.7a17.8,17.8,0,0,0-12.72,5.379,18.632,18.632,0,0,0,0,25.97,17.8,17.8,0,0,0,12.72,5.378Z" fill="#329afc"/>
    <path id="Path_73" data-name="Path 73" d="M202.8,45.858H84.583a13.761,13.761,0,0,0-13.616,13.9V180.451a13.761,13.761,0,0,0,13.616,13.9H202.8a13.761,13.761,0,0,0,13.616-13.9V59.759A13.761,13.761,0,0,0,202.8,45.858Z" fill="#e1f0ff"/>
    <path id="Path_74" data-name="Path 74" d="M111.285,98.113l25.775-3.587V119.91l-25.748.139Zm25.762,24.716v25.328l-25.762-3.614V122.621Zm3.118-28.776,34.176-5.088v30.583l-34.176.278Zm34.176,29.012v30.486l-34.176-4.935V123.01Z" fill="#3399fe"/>
  </g>
</svg>
