<svg viewBox="0 0 1000 134" fill="none" xmlns="http://www.w3.org/2000/svg">
<g id="homepage-hero-sub">
<path id="bg" d="M7.65068 1H992.347C994.133 1.0197 995.836 1.74021 997.082 3.0002C998.33 4.26102 999.018 5.95861 999 7.71905V7.72953L999 126.274L999 126.284C999.017 128.044 998.328 129.74 997.081 131.001C995.835 132.26 994.133 132.98 992.348 133H7.65004C5.86544 132.98 4.1637 132.26 2.91776 131.001C1.67084 129.74 0.982328 128.044 1.00038 126.284H1.00043V126.274V7.72953H1.00049L1.00038 7.71883C0.991049 6.84707 1.15525 5.98181 1.48385 5.17235C1.81246 4.36288 2.29918 3.62475 2.91671 3.00039C3.53425 2.37601 4.27053 1.87762 5.08376 1.53419C5.89547 1.1914 6.76768 1.00981 7.65068 1Z" fill="#F5F5F5" stroke="#101010" stroke-width="2"/>
<g id="row">
<g id="Group 1057">
<text id="Amy Sandstone&#226;&#128;&#153;s Windows Device" fill="#101010" xml:space="preserve" style="white-space: pre" font-family="Poppins" font-size="19" font-weight="600" letter-spacing="0em"><tspan x="147.846" y="62.15">Amy Sandstone&#x2019;s Windows Device</tspan></text>
<text id="Amy Sandstone" fill="#666666" xml:space="preserve" style="white-space: pre" font-family="Noto Sans" font-size="17" letter-spacing="0em"><tspan x="147.846" y="87.596">Amy Sandstone</tspan></text>
</g>
<text id="Managed" fill="#666666" xml:space="preserve" style="white-space: pre" font-family="Noto Sans" font-size="16" font-weight="500" letter-spacing="0em"><tspan x="524" y="72.708">Managed</tspan></text>
<g id="check">
<path id="Ellipse_246" opacity="0.9" d="M677.207 83C686.044 83 693.207 75.8366 693.207 67C693.207 58.1634 686.044 51 677.207 51C668.37 51 661.207 58.1634 661.207 67C661.207 75.8366 668.37 83 677.207 83Z" fill="#0B862D"/>
<path id="Line_235 (Stroke)" fill-rule="evenodd" clip-rule="evenodd" d="M669.557 66.1507C670.213 65.4204 671.337 65.3602 672.067 66.0163L677.899 71.2549C678.629 71.911 678.689 73.035 678.033 73.7654C677.377 74.4958 676.253 74.556 675.522 73.8998L669.691 68.6613C668.961 68.0051 668.901 66.8811 669.557 66.1507Z" fill="#F5F5F5"/>
<path id="Line_236 (Stroke)" fill-rule="evenodd" clip-rule="evenodd" d="M685.324 60.653C686.12 61.2277 686.299 62.339 685.724 63.135L678.151 73.6239C677.576 74.4199 676.465 74.5993 675.669 74.0245C674.873 73.4498 674.693 72.3385 675.268 71.5425L682.842 61.0536C683.416 60.2576 684.528 60.0782 685.324 60.653Z" fill="#F5F5F5"/>
</g>
<text id="100.10.1.3" fill="#666666" xml:space="preserve" style="white-space: pre" font-family="Noto Sans" font-size="16" font-weight="500" letter-spacing="0em"><tspan x="867" y="72.708">100.10.1.3</tspan></text>
<path id="Path 72" d="M829.204 83.0225C830.488 83.0203 831.759 82.7639 832.942 82.2684C834.126 81.7729 835.197 81.0483 836.093 80.1371C837.925 78.272 838.951 75.7727 838.951 73.1708C838.951 70.5688 837.925 68.0695 836.093 66.2044C835.197 65.2932 834.126 64.5686 832.942 64.0731C831.759 63.5776 830.488 63.3212 829.204 63.319H828.322C828.678 62.4878 828.764 61.5678 828.569 60.686C828.381 59.8069 827.919 59.0081 827.25 58.4015C826.591 57.7997 825.754 57.4227 824.863 57.3258C823.972 57.229 823.073 57.4174 822.298 57.8634C821.222 55.1688 819.235 52.9266 816.677 51.5185C814.141 50.1282 811.189 49.6731 808.345 50.234C805.491 50.8032 802.929 52.3474 801.108 54.5968C799.262 56.8697 798.258 59.6995 798.261 62.6159V62.8243H797.868C796.537 62.8265 795.219 63.0922 793.993 63.6056C792.766 64.119 791.656 64.8699 790.726 65.8142C788.829 67.7472 787.768 70.3364 787.768 73.0318C787.768 75.7272 788.829 78.3164 790.726 80.2494C791.656 81.1935 792.766 81.9443 793.993 82.4577C795.219 82.971 796.537 83.2366 797.868 83.2387L829.204 83.0225Z" fill="#151779"/>
<g id="os-icon">
<path id="Path 73" d="M114.169 26H47.5223C45.4654 26.0211 43.5011 26.8416 42.0616 28.281C40.6221 29.7204 39.8252 31.6609 39.8461 33.6758V100.324C39.8252 102.339 40.6221 104.28 42.0616 105.719C43.5011 107.158 45.4654 107.979 47.5223 108H114.169C116.226 107.979 118.19 107.158 119.63 105.719C121.069 104.28 121.866 102.339 121.845 100.324V33.6763C121.866 31.6614 121.069 29.7208 119.63 28.2812C118.19 26.8417 116.226 26.0211 114.169 26Z" fill="#101010"/>
<path id="Path 74" d="M63 53.6493L77.4717 51.6555V65.765L63.0152 65.8422L63 53.6493ZM77.4644 67.3875V81.4658L63 79.457V67.2719L77.4644 67.3875ZM79.215 51.3926L98.4036 48.5645V65.5638L79.215 65.7183V51.3926ZM98.4036 67.5186V84.464L79.215 81.7209V67.4881L98.4036 67.5186Z" fill="#339BFC"/>
</g>
</g>
</g>
</svg>
