<svg viewBox="0 0 1170 686" fill="none" xmlns="http://www.w3.org/2000/svg">
<g id="homepage-hero-main">
<g id="bg">
<path id="Rectangle_453" d="M7.56019 1H1162.44C1166.06 1 1169 3.93813 1169 7.5634V678.437C1169 682.062 1166.06 685 1162.44 685H7.56019C3.93749 685 1 682.062 1 678.437V7.5634C1 3.93813 3.9375 1 7.56019 1Z" fill="#F5F5F5" stroke="#101010" stroke-width="2"/>
<g id="browser-options">
<path id="Ellipse_242" opacity="0.9" d="M26.3303 26.3452C30.8522 26.3452 34.518 22.6779 34.518 18.154C34.518 13.6302 30.8522 9.96289 26.3303 9.96289C21.8083 9.96289 18.1426 13.6302 18.1426 18.154C18.1426 22.6779 21.8083 26.3452 26.3303 26.3452Z" fill="#ED1C24"/>
<path id="Ellipse_243" opacity="0.9" d="M48.1564 26.3452C52.6784 26.3452 56.3441 22.6779 56.3441 18.154C56.3441 13.6302 52.6784 9.96289 48.1564 9.96289C43.6345 9.96289 39.9688 13.6302 39.9688 18.154C39.9688 22.6779 43.6345 26.3452 48.1564 26.3452Z" fill="#FBB03B"/>
<path id="Ellipse_244" opacity="0.9" d="M68.1701 26.3452C72.692 26.3452 76.3578 22.6779 76.3578 18.154C76.3578 13.6302 72.692 9.96289 68.1701 9.96289C63.6482 9.96289 59.9824 13.6302 59.9824 18.154C59.9824 22.6779 63.6482 26.3452 68.1701 26.3452Z" fill="#0B862D"/>
</g>
</g>
<g id="main-content">
<path id="Rectangle_455" d="M1142.75 34.5254H306.152C301.977 34.5254 298.592 37.9116 298.592 42.0888V660.298C298.592 664.475 301.977 667.861 306.152 667.861H1142.75C1146.92 667.861 1150.31 664.475 1150.31 660.298V42.0888C1150.31 37.9116 1146.92 34.5254 1142.75 34.5254Z" fill="#F5F5F5" stroke="#101010" stroke-width="2"/>
<g id="user-rows">
<g id="row5">
<g id="os-icon">
<path id="Rectangle_459" d="M357.597 502.299H389.993C393.892 502.299 397.053 505.461 397.053 509.362V541.771C397.053 545.673 393.892 548.835 389.993 548.835H357.597C353.698 548.835 350.537 545.673 350.537 541.771V509.362C350.537 505.461 353.698 502.299 357.597 502.299Z" fill="#F5F5F5" stroke="#101010"/>
<path id="Path_791" d="M380.21 535.644C379.023 536.802 377.715 536.62 376.467 536.076C375.848 535.793 375.175 535.647 374.494 535.647C373.813 535.647 373.14 535.793 372.521 536.076C370.774 536.832 369.845 536.612 368.794 535.644C362.851 529.526 363.728 520.207 370.48 519.86C372.12 519.943 373.262 520.767 374.26 520.828C375.696 520.54 377.065 519.701 378.599 519.814C379.411 519.836 380.207 520.045 380.926 520.424C381.644 520.803 382.266 521.342 382.742 522C381.948 522.446 381.297 523.108 380.863 523.91C380.43 524.711 380.233 525.619 380.295 526.528C380.357 527.437 380.675 528.31 381.212 529.045C381.75 529.78 382.485 530.348 383.332 530.683C382.718 532.567 381.657 534.275 380.24 535.659L380.21 535.644ZM374.101 519.761C374.047 518.481 374.489 517.229 375.333 516.266C376.178 515.302 377.361 514.701 378.637 514.588C379.007 517.749 375.81 520.102 374.101 519.792V519.761Z" fill="#101010"/>
</g>
<g id="name">
<text id="Brian Dolomite&#226;&#128;&#153;s iPhone" fill="#101010" xml:space="preserve" style="white-space: pre" font-family="Poppins" font-size="14" font-weight="600" letter-spacing="0em"><tspan x="412.553" y="521.4">Brian Dolomite&#x2019;s iPhone</tspan></text>
<text id="Brian Dolomite" fill="#666666" xml:space="preserve" style="white-space: pre" font-family="Noto Sans" font-size="13" letter-spacing="0em"><tspan x="412.553" y="540.044">Brian Dolomite</tspan></text>
</g>
<text id="Supervised" fill="#666666" xml:space="preserve" style="white-space: pre" font-family="Noto Sans" font-size="13" font-weight="500" letter-spacing="0em"><tspan x="724" y="531.044">Supervised</tspan></text>
<g id="check">
<path id="Ellipse_246" opacity="0.9" d="M852.196 535.401C857.828 535.401 862.393 530.834 862.393 525.201C862.393 519.567 857.828 515 852.196 515C846.565 515 842 519.567 842 525.201C842 530.834 846.565 535.401 852.196 535.401Z" fill="#0B862D"/>
<path id="Line_235 (Stroke)" fill-rule="evenodd" clip-rule="evenodd" d="M847.321 524.659C847.74 524.194 848.456 524.155 848.921 524.573L852.637 527.913C853.103 528.332 853.141 529.048 852.723 529.514C852.305 529.979 851.588 530.018 851.123 529.599L847.407 526.26C846.942 525.841 846.903 525.125 847.321 524.659Z" fill="#F5F5F5"/>
<path id="Line_236 (Stroke)" fill-rule="evenodd" clip-rule="evenodd" d="M857.369 521.154C857.876 521.52 857.99 522.229 857.624 522.736L852.798 529.423C852.431 529.931 851.723 530.045 851.216 529.679C850.709 529.312 850.594 528.604 850.961 528.097L855.787 521.409C856.153 520.902 856.861 520.788 857.369 521.154Z" fill="#F5F5F5"/>
</g>
<text id="100.10.1.4" fill="#666666" xml:space="preserve" style="white-space: pre" font-family="Noto Sans" font-size="13" font-weight="500" letter-spacing="0em"><tspan x="1036" y="531.044">100.10.1.4</tspan></text>
<path id="cloud" d="M965.602 536.754C967.325 536.754 968.976 536.07 970.194 534.851C971.412 533.633 972.096 531.98 972.096 530.257C972.096 528.534 971.412 526.882 970.194 525.663C968.976 524.445 967.325 523.76 965.602 523.76H965.02C965.176 523.408 965.256 523.026 965.254 522.641C965.255 522.143 965.124 521.654 964.876 521.222C964.628 520.791 964.272 520.432 963.841 520.181C963.411 519.931 962.923 519.798 962.425 519.795C961.928 519.793 961.438 519.921 961.006 520.168C960.276 518.385 958.951 516.911 957.257 515.997C955.562 515.083 953.603 514.785 951.714 515.155C949.825 515.524 948.122 516.538 946.896 518.023C945.671 519.508 944.998 521.373 944.993 523.299V523.435H944.729C943.845 523.435 942.97 523.609 942.154 523.948C941.337 524.286 940.596 524.782 939.971 525.407C939.346 526.032 938.85 526.774 938.512 527.591C938.174 528.407 938 529.283 938 530.167C938 531.051 938.174 531.926 938.512 532.743C938.85 533.559 939.346 534.301 939.971 534.926C940.596 535.551 941.337 536.047 942.154 536.386C942.97 536.724 943.845 536.898 944.729 536.898L965.602 536.754Z" fill="#339BFC"/>
</g>
<g id="row2">
<g id="is-icon">
<path id="Rectangle_459_2" d="M357.597 215.229H389.993C393.892 215.229 397.053 218.391 397.053 222.292V254.701C397.053 258.602 393.892 261.764 389.993 261.764H357.597C353.698 261.764 350.537 258.602 350.537 254.701V222.292C350.537 218.391 353.698 215.229 357.597 215.229Z" fill="#F5F5F5" stroke="#101010"/>
<path id="Path_791_2" d="M380.21 248.574C379.023 249.731 377.715 249.55 376.467 249.005C375.848 248.723 375.175 248.577 374.494 248.577C373.813 248.577 373.14 248.723 372.521 249.005C370.774 249.762 369.845 249.542 368.794 248.574C362.851 242.455 363.728 233.137 370.48 232.789C372.12 232.872 373.262 233.697 374.26 233.757C375.696 233.47 377.065 232.63 378.599 232.744C379.411 232.766 380.207 232.974 380.926 233.353C381.644 233.732 382.266 234.272 382.742 234.93C381.948 235.376 381.297 236.038 380.863 236.839C380.43 237.641 380.233 238.548 380.295 239.457C380.357 240.366 380.675 241.239 381.212 241.975C381.75 242.71 382.485 243.278 383.332 243.612C382.718 245.497 381.657 247.205 380.24 248.589L380.21 248.574ZM374.101 232.691C374.047 231.411 374.489 230.159 375.333 229.195C376.178 228.232 377.361 227.631 378.637 227.518C379.007 230.679 375.81 233.031 374.101 232.721V232.691Z" fill="#101010"/>
</g>
<g id="name_2">
<text id="Maureen Marble&#226;&#128;&#153;s Macbook" fill="#101010" xml:space="preserve" style="white-space: pre" font-family="Poppins" font-size="14" font-weight="600" letter-spacing="0em"><tspan x="412.553" y="234.4">Maureen Marble&#x2019;s Macbook</tspan></text>
<text id="Maureen Marble" fill="#666666" xml:space="preserve" style="white-space: pre" font-family="Noto Sans" font-size="13" letter-spacing="0em"><tspan x="412.553" y="253.044">Maureen Marble</tspan></text>
</g>
<text id="Supervised_2" fill="#666666" xml:space="preserve" style="white-space: pre" font-family="Noto Sans" font-size="13" font-weight="500" letter-spacing="0em"><tspan x="724" y="243.044">Supervised</tspan></text>
<text id="100.10.1.1" fill="#666666" xml:space="preserve" style="white-space: pre" font-family="Noto Sans" font-size="13" font-weight="500" letter-spacing="0em"><tspan x="1036" y="243.044">100.10.1.1</tspan></text>
<g id="warning-icon" opacity="0.8">
<path id="Path_1043" d="M854.435 230.349C853.393 228.55 851.701 228.55 850.659 230.349L842.442 244.584C841.407 246.383 842.253 247.856 844.33 247.856H860.765C862.842 247.856 863.688 246.383 862.653 244.584L854.435 230.349Z" fill="#ED1C24"/>
<path id="Line_247 (Stroke)" fill-rule="evenodd" clip-rule="evenodd" d="M852.547 234.443C853.069 234.443 853.491 234.866 853.491 235.388V241.055C853.491 241.576 853.069 241.999 852.547 241.999C852.026 241.999 851.604 241.576 851.604 241.055V235.388C851.604 234.866 852.026 234.443 852.547 234.443Z" fill="#F5F5F5"/>
<path id="Ellipse_249" d="M852.549 244.453C852.861 244.453 853.115 244.199 853.115 243.887C853.115 243.574 852.861 243.32 852.549 243.32C852.236 243.32 851.982 243.574 851.982 243.887C851.982 244.199 852.236 244.453 852.549 244.453Z" fill="#F5F5F5"/>
<path id="Ellipse_249 (Stroke)" fill-rule="evenodd" clip-rule="evenodd" d="M852.547 243.699C852.443 243.699 852.359 243.784 852.359 243.888C852.359 243.992 852.443 244.077 852.547 244.077C852.652 244.077 852.736 243.992 852.736 243.888C852.736 243.784 852.652 243.699 852.547 243.699ZM851.604 243.888C851.604 243.366 852.026 242.943 852.547 242.943C853.069 242.943 853.491 243.366 853.491 243.888C853.491 244.409 853.069 244.832 852.547 244.832C852.026 244.832 851.604 244.409 851.604 243.888Z" fill="#F5F5F5"/>
</g>
</g>
<g id="row1">
<g id="name_3">
<text id="Cory Granite&#226;&#128;&#153;s Windows Device" fill="#101010" xml:space="preserve" style="white-space: pre" font-family="Poppins" font-size="14" font-weight="600" letter-spacing="0em"><tspan x="413.309" y="161.4">Cory Granite&#x2019;s Windows Device</tspan></text>
<text id="Cory Granite" fill="#666666" xml:space="preserve" style="white-space: pre" font-family="Noto Sans" font-size="13" letter-spacing="0em"><tspan x="413.309" y="180.044">Cory Granite</tspan></text>
</g>
<text id="Managed" fill="#666666" xml:space="preserve" style="white-space: pre" font-family="Noto Sans" font-size="13" font-weight="500" letter-spacing="0em"><tspan x="724" y="171.044">Managed</tspan></text>
<g id="check_2">
<path id="Ellipse_246_2" opacity="0.9" d="M852.196 176.401C857.828 176.401 862.393 171.834 862.393 166.201C862.393 160.567 857.828 156 852.196 156C846.565 156 842 160.567 842 166.201C842 171.834 846.565 176.401 852.196 176.401Z" fill="#0B862D"/>
<path id="Line_235 (Stroke)_2" fill-rule="evenodd" clip-rule="evenodd" d="M847.321 165.659C847.74 165.194 848.456 165.155 848.921 165.573L852.637 168.913C853.103 169.332 853.141 170.048 852.723 170.514C852.305 170.979 851.588 171.018 851.123 170.599L847.407 167.26C846.942 166.841 846.903 166.125 847.321 165.659Z" fill="#F5F5F5"/>
<path id="Line_236 (Stroke)_2" fill-rule="evenodd" clip-rule="evenodd" d="M857.369 162.154C857.876 162.52 857.99 163.229 857.624 163.736L852.798 170.423C852.431 170.931 851.723 171.045 851.216 170.679C850.709 170.312 850.594 169.604 850.961 169.097L855.787 162.409C856.153 161.902 856.861 161.788 857.369 162.154Z" fill="#F5F5F5"/>
</g>
<text id="100.10.1.0" fill="#666666" xml:space="preserve" style="white-space: pre" font-family="Noto Sans" font-size="13" font-weight="500" letter-spacing="0em"><tspan x="1036" y="171.044">100.10.1.0</tspan></text>
<path id="cloud_2" d="M965.602 176.754C967.325 176.754 968.976 176.07 970.194 174.851C971.412 173.633 972.096 171.98 972.096 170.257C972.096 168.534 971.412 166.882 970.194 165.663C968.976 164.445 967.325 163.76 965.602 163.76H965.02C965.176 163.408 965.256 163.026 965.254 162.641C965.255 162.143 965.124 161.654 964.876 161.222C964.628 160.791 964.272 160.432 963.841 160.181C963.411 159.931 962.923 159.798 962.425 159.796C961.928 159.793 961.438 159.922 961.006 160.168C960.276 158.385 958.951 156.911 957.257 155.997C955.562 155.083 953.603 154.785 951.714 155.155C949.825 155.524 948.122 156.538 946.896 158.023C945.671 159.508 944.998 161.373 944.993 163.299C944.993 163.344 944.993 163.39 944.993 163.435H944.729C942.944 163.435 941.233 164.144 939.971 165.407C938.709 166.669 938 168.381 938 170.167C938 171.952 938.709 173.664 939.971 174.926C941.233 176.189 942.944 176.898 944.729 176.898L965.602 176.754Z" fill="#151779"/>
<g id="os-icon_2">
<path id="Rectangle_460" d="M390.749 142.193H358.353C354.178 142.193 350.793 145.58 350.793 149.757V182.166C350.793 186.343 354.178 189.729 358.353 189.729H390.749C394.924 189.729 398.309 186.343 398.309 182.166V149.757C398.309 145.58 394.924 142.193 390.749 142.193Z" fill="#101010"/>
<path id="path13" d="M363.275 158.014L371.803 156.849V165.078L363.283 165.131L363.275 158.014ZM371.796 166.031V174.26L363.275 173.088V165.97L371.796 166.031ZM372.831 156.698L384.172 155.049V164.972L372.831 165.063V156.698ZM384.172 166.107V175.984L372.831 174.388V166.069L384.172 166.107Z" fill="#339BFC"/>
</g>
</g>
<g id="row3">
<g id="name_4">
<text id="Alex Slate&#226;&#128;&#153;s Windows Device" fill="#101010" xml:space="preserve" style="white-space: pre" font-family="Poppins" font-size="14" font-weight="600" letter-spacing="0em"><tspan x="412.553" y="307.4">Alex Slate&#x2019;s Windows Device</tspan></text>
<text id="Alex Slate" fill="#666666" xml:space="preserve" style="white-space: pre" font-family="Noto Sans" font-size="13" letter-spacing="0em"><tspan x="412.553" y="326.044">Alex Slate</tspan></text>
</g>
<text id="Managed_2" fill="#666666" xml:space="preserve" style="white-space: pre" font-family="Noto Sans" font-size="13" font-weight="500" letter-spacing="0em"><tspan x="724" y="316.044">Managed</tspan></text>
<g id="check_3">
<path id="Ellipse_246_3" opacity="0.9" d="M852.196 321.401C857.828 321.401 862.393 316.834 862.393 311.201C862.393 305.567 857.828 301 852.196 301C846.565 301 842 305.567 842 311.201C842 316.834 846.565 321.401 852.196 321.401Z" fill="#0B862D"/>
<path id="Line_235 (Stroke)_3" fill-rule="evenodd" clip-rule="evenodd" d="M847.321 310.659C847.74 310.194 848.456 310.155 848.921 310.573L852.637 313.913C853.103 314.332 853.141 315.048 852.723 315.514C852.305 315.979 851.588 316.018 851.123 315.599L847.407 312.26C846.942 311.841 846.903 311.125 847.321 310.659Z" fill="#F5F5F5"/>
<path id="Line_236 (Stroke)_3" fill-rule="evenodd" clip-rule="evenodd" d="M857.369 307.154C857.876 307.52 857.99 308.229 857.624 308.736L852.798 315.423C852.431 315.931 851.723 316.045 851.216 315.679C850.709 315.312 850.594 314.604 850.961 314.097L855.787 307.409C856.153 306.902 856.861 306.788 857.369 307.154Z" fill="#F5F5F5"/>
</g>
<text id="100.10.1.2" fill="#666666" xml:space="preserve" style="white-space: pre" font-family="Noto Sans" font-size="13" font-weight="500" letter-spacing="0em"><tspan x="1036" y="316.044">100.10.1.2</tspan></text>
<path id="cloud_3" d="M965.602 321.754C967.325 321.754 968.976 321.07 970.194 319.851C971.412 318.633 972.096 316.98 972.096 315.257C972.096 313.534 971.412 311.882 970.194 310.663C968.976 309.445 967.325 308.76 965.602 308.76H965.02C965.176 308.408 965.256 308.026 965.254 307.641C965.255 307.143 965.124 306.654 964.876 306.222C964.628 305.791 964.272 305.432 963.841 305.181C963.411 304.931 962.923 304.798 962.425 304.796C961.928 304.793 961.438 304.922 961.006 305.168C960.276 303.385 958.951 301.911 957.257 300.997C955.562 300.083 953.603 299.785 951.714 300.155C949.825 300.524 948.122 301.538 946.896 303.023C945.671 304.508 944.998 306.373 944.993 308.299C944.993 308.344 944.993 308.39 944.993 308.435H944.729C942.944 308.435 941.233 309.144 939.971 310.407C938.709 311.669 938 313.381 938 315.167C938 316.952 938.709 318.664 939.971 319.926C941.233 321.189 942.944 321.898 944.729 321.898L965.602 321.754Z" fill="#151779"/>
<g id="os-icon_3">
<path id="Rectangle_462" d="M389.993 287.264H357.597C353.422 287.264 350.037 290.65 350.037 294.827V327.236C350.037 331.413 353.422 334.8 357.597 334.8H389.993C394.168 334.8 397.553 331.413 397.553 327.236V294.827C397.553 290.65 394.168 287.264 389.993 287.264Z" fill="#101010"/>
<path id="path13-2" d="M363.404 302.74L371.962 301.583V309.812L363.442 309.857L363.404 302.74ZM371.962 310.757V319.032L363.442 317.859V310.712L371.962 310.757ZM372.998 301.432L384.301 299.775V309.706L372.998 309.797V301.432ZM384.301 310.833V320.718L372.998 319.123V310.803L384.301 310.833Z" fill="#339BFC"/>
</g>
</g>
<g id="row6">
<g id="name_5">
<text id="Jeff Quartz&#226;&#128;&#153;s Device" fill="#101010" xml:space="preserve" style="white-space: pre" font-family="Poppins" font-size="14" font-weight="600" letter-spacing="0em"><tspan x="412.553" y="594.4">Jeff Quartz&#x2019;s Device</tspan></text>
<text id="Jeff Quartz" fill="#666666" xml:space="preserve" style="white-space: pre" font-family="Noto Sans" font-size="13" letter-spacing="0em"><tspan x="412.553" y="613.044">Jeff Quartz</tspan></text>
</g>
<text id="Managed_3" fill="#666666" xml:space="preserve" style="white-space: pre" font-family="Noto Sans" font-size="13" font-weight="500" letter-spacing="0em"><tspan x="724" y="603.044">Managed</tspan></text>
<text id="100.10.1.5" fill="#666666" xml:space="preserve" style="white-space: pre" font-family="Noto Sans" font-size="13" font-weight="500" letter-spacing="0em"><tspan x="1036" y="603.044">100.10.1.5</tspan></text>
<g id="caution-icon">
<g id="Group 864">
<path id="Ellipse_254" opacity="0.9" d="M852.196 608.401C857.828 608.401 862.393 603.834 862.393 598.201C862.393 592.567 857.828 588 852.196 588C846.565 588 842 592.567 842 598.201C842 603.834 846.565 608.401 852.196 608.401Z" fill="#FBB03B"/>
<path id="Line_262 (Stroke)" fill-rule="evenodd" clip-rule="evenodd" d="M852.141 592.873C852.662 592.873 853.085 593.296 853.085 593.818V599.485C853.085 600.006 852.662 600.429 852.141 600.429C851.62 600.429 851.197 600.006 851.197 599.485V593.818C851.197 593.296 851.62 592.873 852.141 592.873Z" fill="#F5F5F5"/>
<path id="Ellipse_255" d="M852.144 602.883C852.457 602.883 852.711 602.629 852.711 602.316C852.711 602.004 852.457 601.75 852.144 601.75C851.832 601.75 851.578 602.004 851.578 602.316C851.578 602.629 851.832 602.883 852.144 602.883Z" fill="#F5F5F5"/>
<path id="Ellipse_255 (Stroke)" fill-rule="evenodd" clip-rule="evenodd" d="M852.141 602.131C852.037 602.131 851.952 602.215 851.952 602.32C851.952 602.424 852.037 602.508 852.141 602.508C852.245 602.508 852.33 602.424 852.33 602.32C852.33 602.215 852.245 602.131 852.141 602.131ZM851.197 602.32C851.197 601.798 851.62 601.375 852.141 601.375C852.662 601.375 853.085 601.798 853.085 602.32C853.085 602.841 852.662 603.264 852.141 603.264C851.62 603.264 851.197 602.841 851.197 602.32Z" fill="#F5F5F5"/>
</g>
</g>
<g id="os-icon_4">
<path id="Rectangle_472" d="M389.993 574.334H357.597C353.422 574.334 350.037 577.72 350.037 581.897V614.307C350.037 618.484 353.422 621.87 357.597 621.87H389.993C394.168 621.87 397.553 618.484 397.553 614.307V581.897C397.553 577.72 394.168 574.334 389.993 574.334Z" fill="#101010"/>
<g id="Group 1049">
<path id="Rectangle_473" d="M385.571 605.27H361.824C361.407 605.27 361.068 605.608 361.068 606.026V607.168C361.068 607.586 361.407 607.924 361.824 607.924H385.571C385.988 607.924 386.327 607.586 386.327 607.168V606.026C386.327 605.608 385.988 605.27 385.571 605.27Z" fill="#339BFC"/>
<path id="Rectangle_474" d="M383.059 589.115H363.826C363.409 589.115 363.07 589.454 363.07 589.872V603.236C363.07 603.654 363.409 603.992 363.826 603.992H383.059C383.477 603.992 383.815 603.654 383.815 603.236V589.872C383.815 589.454 383.477 589.115 383.059 589.115Z" stroke="#339BFC" stroke-miterlimit="10"/>
</g>
</g>
</g>
</g>
<g id="header">
<text id="Unwired Revolution" fill="#101010" xml:space="preserve" style="white-space: pre" font-family="Poppins" font-size="22" font-weight="600" letter-spacing="0em"><tspan x="323" y="88.7">Unwired Revolution</tspan></text>
<g id="profile">
<g id="text">
<text id="Michael Shale" fill="#101010" xml:space="preserve" style="white-space: pre" font-family="Poppins" font-size="16" font-weight="600" letter-spacing="0em"><tspan x="631" y="81.1">Michael Shale</tspan></text>
<text id="Admin" fill="#666666" xml:space="preserve" style="white-space: pre" font-family="Noto Sans" font-size="12" font-weight="500" letter-spacing="0em"><tspan x="631" y="94.656">Admin</tspan></text>
</g>
<g id="img">
<path d="M596.501 105.893C610.28 105.893 621.45 94.7184 621.45 80.9338C621.45 67.1492 610.28 55.9746 596.501 55.9746C582.723 55.9746 571.553 67.1492 571.553 80.9338C571.553 94.7184 582.723 105.893 596.501 105.893Z" fill="#151779"/>
<path d="M581.377 107.979C581.377 97.8004 588.265 89.5565 596.758 89.5565C605.251 89.5565 612.152 97.8004 612.152 107.979" fill="#F5F5F5"/>
<path d="M596.756 87.1412C601.335 87.1412 605.047 83.4277 605.047 78.8468C605.047 74.2659 601.335 70.5524 596.756 70.5524C592.177 70.5524 588.465 74.2659 588.465 78.8468C588.465 83.4277 592.177 87.1412 596.756 87.1412Z" fill="#F5F5F5"/>
</g>
</g>
</g>
</g>
<g id="sidebar-content">
<path id="Rectangle_454" d="M275.945 34.7969H24.1911C20.0157 34.7969 16.6309 38.1831 16.6309 42.3603V660.358C16.6309 664.535 20.0157 667.921 24.1911 667.921H275.945C280.121 667.921 283.506 664.535 283.506 660.358V42.3603C283.506 38.1831 280.121 34.7969 275.945 34.7969Z" fill="#101010"/>
<g id="navigation">
<g id="placeholders">
<g id="Group 1056">
<path id="Ellipse_250" d="M87.3588 374.934C93.4131 374.934 98.321 370.024 98.321 363.967C98.321 357.91 93.4131 353 87.3588 353C81.3045 353 76.3965 357.91 76.3965 363.967C76.3965 370.024 81.3045 374.934 87.3588 374.934Z" fill="#999999"/>
<path id="Rectangle_463" d="M197.559 355H118.177C116.089 355 114.396 356.693 114.396 358.782V369.37C114.396 371.459 116.089 373.152 118.177 373.152H197.559C199.646 373.152 201.339 371.459 201.339 369.37V358.782C201.339 356.693 199.646 355 197.559 355Z" fill="#999999"/>
</g>
<g id="Group 1055">
<path id="Ellipse_251" d="M87.3588 416.867C93.4131 416.867 98.321 411.957 98.321 405.901C98.321 399.844 93.4131 394.934 87.3588 394.934C81.3045 394.934 76.3965 399.844 76.3965 405.901C76.3965 411.957 81.3045 416.867 87.3588 416.867Z" fill="#666666"/>
<path id="Rectangle_464" d="M197.559 397H118.177C116.089 397 114.396 398.693 114.396 400.782V411.37C114.396 413.459 116.089 415.152 118.177 415.152H197.559C199.646 415.152 201.339 413.459 201.339 411.37V400.782C201.339 398.693 199.646 397 197.559 397Z" fill="#666666"/>
</g>
<g id="Group 1054">
<path id="Ellipse_252" d="M87.3588 458.801C93.4131 458.801 98.321 453.891 98.321 447.834C98.321 441.777 93.4131 436.867 87.3588 436.867C81.3045 436.867 76.3965 441.777 76.3965 447.834C76.3965 453.891 81.3045 458.801 87.3588 458.801Z" fill="#333333"/>
<path id="Rectangle_465" d="M197.559 439H118.177C116.089 439 114.396 440.693 114.396 442.782V453.37C114.396 455.459 116.089 457.152 118.177 457.152H197.559C199.646 457.152 201.339 455.459 201.339 453.37V442.782C201.339 440.693 199.646 439 197.559 439Z" fill="#333333"/>
</g>
</g>
<g id="users">
<text id="Users" fill="#C8CCCC" xml:space="preserve" style="white-space: pre" font-family="Poppins" font-size="18" font-weight="600" letter-spacing="0em"><tspan x="114.396" y="209.3">Users</tspan></text>
<g id="Group 857">
<path id="Path_779" d="M77.3965 212.999C77.3965 207.543 81.5226 203.119 86.6163 203.119C91.71 203.119 95.8282 207.543 95.8282 212.999" fill="#EC5563"/>
<path id="Ellipse_245" d="M86.6161 202.934C89.3587 202.934 91.5819 200.71 91.5819 197.966C91.5819 195.222 89.3587 192.998 86.6161 192.998C83.8736 192.998 81.6504 195.222 81.6504 197.966C81.6504 200.71 83.8736 202.934 86.6161 202.934Z" fill="#EC5563"/>
</g>
</g>
<g id="devices">
<text id="Devices" fill="#C8CCCC" xml:space="preserve" style="white-space: pre" font-family="Poppins" font-size="18" font-weight="600" letter-spacing="0em"><tspan x="114.396" y="249.3">Devices</tspan></text>
<g id="laptop-icon">
<path id="Rectangle_457" d="M98.7238 250.355H76.0691C75.6976 250.355 75.3965 250.672 75.3965 251.062V252.292C75.3965 252.682 75.6976 252.999 76.0691 252.999H98.7238C99.0953 252.999 99.3965 252.682 99.3965 252.292V251.062C99.3965 250.672 99.0953 250.355 98.7238 250.355Z" fill="#EC5563"/>
<path id="Rectangle_458 (Stroke)" fill-rule="evenodd" clip-rule="evenodd" d="M76.6289 234.412C76.6289 233.631 77.2312 232.998 77.9742 232.998H96.3374C97.0804 232.998 97.6827 233.631 97.6827 234.412V248.583C97.6827 249.363 97.0804 249.996 96.3374 249.996H77.9742C77.2312 249.996 76.6289 249.363 76.6289 248.583V234.412ZM96.3374 234.412H77.9742V248.583H96.3374V234.412Z" fill="#EC5563"/>
</g>
</g>
<g id="events">
<text id="Events" fill="#C8CCCC" xml:space="preserve" style="white-space: pre" font-family="Poppins" font-size="18" font-weight="600" letter-spacing="0em"><tspan x="114.396" y="289.3">Events</tspan></text>
<g id="Group 854">
<g id="row1_2">
<g id="check_4">
<path fill-rule="evenodd" clip-rule="evenodd" d="M75.5541 274.509C75.7811 274.246 76.1697 274.224 76.4221 274.461L77.807 275.759C78.0593 275.996 78.0799 276.4 77.8529 276.663C77.6259 276.927 77.2374 276.948 76.985 276.711L75.6001 275.413C75.3477 275.177 75.3271 274.772 75.5541 274.509Z" fill="#EC5563"/>
<path fill-rule="evenodd" clip-rule="evenodd" d="M79.5493 273.121C79.8247 273.328 79.8872 273.728 79.6888 274.015L77.8941 276.611C77.6957 276.898 77.3116 276.963 77.0362 276.756C76.7608 276.55 76.6984 276.149 76.8968 275.862L78.6914 273.266C78.8898 272.979 79.2739 272.914 79.5493 273.121Z" fill="#EC5563"/>
</g>
<rect id="Rectangle 480" x="82.2539" y="274.275" width="17.1432" height="2.5504" rx="1" fill="#EC5563"/>
</g>
<g id="Group 1051">
<g id="circ">
<path d="M77.5994 292.548C78.5777 292.548 79.3708 291.721 79.3708 290.702C79.3708 289.682 78.5777 288.856 77.5994 288.856C76.6211 288.856 75.828 289.682 75.828 290.702C75.828 291.721 76.6211 292.548 77.5994 292.548Z" fill="#EC5563"/>
<path fill-rule="evenodd" clip-rule="evenodd" d="M77.6006 289.307C76.8607 289.307 76.2608 289.932 76.2608 290.703C76.2608 291.473 76.8607 292.098 77.6006 292.098C78.3405 292.098 78.9404 291.473 78.9404 290.703C78.9404 289.932 78.3405 289.307 77.6006 289.307ZM75.3965 290.703C75.3965 289.434 76.3833 288.406 77.6006 288.406C78.8179 288.406 79.8047 289.434 79.8047 290.703C79.8047 291.971 78.8179 292.999 77.6006 292.999C76.3833 292.999 75.3965 291.971 75.3965 290.703Z" fill="#EC5563"/>
</g>
<rect id="Rectangle 480_2" x="82.2539" y="289.682" width="17.1432" height="2.5504" rx="1" fill="#EC5563"/>
</g>
<g id="Group 1050">
<g id="check_5">
<path fill-rule="evenodd" clip-rule="evenodd" d="M75.5541 282.216C75.7811 281.953 76.1697 281.932 76.4221 282.168L77.807 283.466C78.0593 283.703 78.0799 284.108 77.8529 284.371C77.6259 284.634 77.2374 284.655 76.985 284.419L75.6001 283.121C75.3477 282.884 75.3271 282.479 75.5541 282.216Z" fill="#EC5563"/>
<path fill-rule="evenodd" clip-rule="evenodd" d="M79.5493 280.826C79.8247 281.033 79.8872 281.433 79.6888 281.72L77.8941 284.316C77.6957 284.603 77.3116 284.668 77.0362 284.461C76.7608 284.255 76.6984 283.854 76.8968 283.567L78.6914 280.971C78.8898 280.684 79.2739 280.619 79.5493 280.826Z" fill="#EC5563"/>
</g>
<rect id="Rectangle 480_3" x="82.2539" y="281.98" width="17.1432" height="2.5504" rx="1" fill="#EC5563"/>
</g>
</g>
</g>
<g id="networks">
<text id="Networks" fill="#C8CCCC" xml:space="preserve" style="white-space: pre" font-family="Poppins" font-size="18" font-weight="600" letter-spacing="0em"><tspan x="114.402" y="169.3">Networks</tspan></text>
<g id="Group 858">
<path id="Line_256 (Stroke)" fill-rule="evenodd" clip-rule="evenodd" d="M76.6074 162.852C76.6074 162.443 76.9402 162.111 77.3508 162.111H96.337C96.7476 162.111 97.0804 162.443 97.0804 162.852C97.0804 163.261 96.7476 163.593 96.337 163.593H77.3508C76.9402 163.593 76.6074 163.261 76.6074 162.852Z" fill="#EC5563"/>
<path id="Line_257 (Stroke)" fill-rule="evenodd" clip-rule="evenodd" d="M80.1309 162.111V166.296H78.6445V162.111H80.1309Z" fill="#EC5563"/>
<path id="Line_258 (Stroke)" fill-rule="evenodd" clip-rule="evenodd" d="M95.041 162.111V166.296H93.5547V162.111H95.041Z" fill="#EC5563"/>
<g id="Group_30">
<path id="Rectangle_466 (Stroke)" fill-rule="evenodd" clip-rule="evenodd" d="M82.2422 154.481C82.2422 153.663 82.9078 153 83.729 153H89.8322C90.6533 153 91.319 153.663 91.319 154.481V158.688C91.319 159.506 90.6533 160.169 89.8322 160.169H83.729C82.9078 160.169 82.2422 159.506 82.2422 158.688V154.481ZM89.8322 154.481H83.729V158.688H89.8322V154.481Z" fill="#EC5563"/>
</g>
<path id="Line_259 (Stroke)" fill-rule="evenodd" clip-rule="evenodd" d="M86.1016 162.848V159.471H87.5879V162.848H86.1016Z" fill="#EC5563"/>
<g id="Group_31">
<path id="Rectangle_467 (Stroke)" fill-rule="evenodd" clip-rule="evenodd" d="M75 167.311C75 166.493 75.6657 165.83 76.4868 165.83H82.59C83.4111 165.83 84.0768 166.493 84.0768 167.311V171.518C84.0768 172.336 83.4111 172.999 82.59 172.999H76.4868C75.6657 172.999 75 172.336 75 171.518V167.311ZM82.59 167.311H76.4868V171.518H82.59V167.311Z" fill="#EC5563"/>
</g>
<g id="Group_32">
<path id="Rectangle_468 (Stroke)" fill-rule="evenodd" clip-rule="evenodd" d="M89.9219 167.311C89.9219 166.493 90.5875 165.83 91.4087 165.83H97.5119C98.333 165.83 98.9987 166.493 98.9987 167.311V171.518C98.9987 172.336 98.333 172.999 97.5119 172.999H91.4087C90.5875 172.999 89.9219 172.336 89.9219 171.518V167.311ZM97.5119 167.311H91.4087V171.518H97.5119V167.311Z" fill="#EC5563"/>
</g>
</g>
</g>
<g id="gateway">
<text id="Gateway" fill="#C8CCCC" xml:space="preserve" style="white-space: pre" font-family="Poppins" font-size="18" font-weight="600" letter-spacing="0em"><tspan x="114.396" y="329.3">Gateway</tspan></text>
<g id="Group 852">
<path id="Line_260 (Stroke)" fill-rule="evenodd" clip-rule="evenodd" d="M97.336 318.079H81.5527V316.191H97.336V318.079Z" fill="#EC5563"/>
<path id="Line_261 (Stroke)" fill-rule="evenodd" clip-rule="evenodd" d="M90.4395 330.961L78.5059 316.99L79.9812 315.777L91.9149 329.748L90.4395 330.961Z" fill="#EC5563"/>
<path id="Rectangle_469" d="M81.5635 313.076H76.1664C75.7412 313.076 75.3965 313.414 75.3965 313.831V319.578C75.3965 319.995 75.7412 320.333 76.1664 320.333H81.5635C81.9887 320.333 82.3334 319.995 82.3334 319.578V313.831C82.3334 313.414 81.9887 313.076 81.5635 313.076Z" fill="#EC5563"/>
<path id="Rectangle_470" d="M98.626 313H93.2289C92.8037 313 92.459 313.338 92.459 313.755V319.502C92.459 319.919 92.8037 320.257 93.2289 320.257H98.626C99.0512 320.257 99.3959 319.919 99.3959 319.502V313.755C99.3959 313.338 99.0512 313 98.626 313Z" fill="#EC5563"/>
<path id="Rectangle_471" d="M93.2354 325.742H87.8383C87.4131 325.742 87.0684 326.08 87.0684 326.497V332.244C87.0684 332.661 87.4131 333 87.8383 333H93.2354C93.6606 333 94.0053 332.661 94.0053 332.244V326.497C94.0053 326.08 93.6606 325.742 93.2354 325.742Z" fill="#EC5563"/>
</g>
</g>
</g>
<g id="logo">
<g id="Group">
<path id="Vector" d="M90.5132 84.8731C90.2886 84.9023 89.3574 84.9169 88.7111 84.336C88.6965 84.3287 88.4646 84.0894 88.1524 83.7698C87.2815 82.8839 86.8962 81.6254 87.1135 80.4052C87.1354 80.2518 87.3162 79.6929 87.5134 79.0901C87.8694 77.9996 87.8475 76.5822 87.4769 75.594C87.4476 75.5063 87.3892 75.3182 87.3162 75.0771C86.9748 73.8624 87.1135 72.6861 87.8822 71.6906C87.8895 71.6833 87.8895 71.676 87.8968 71.676C88.0995 71.4148 88.3039 71.1536 88.4993 70.9198C89.1237 70.1563 90.0403 69.6923 91.0207 69.6339C91.333 69.6193 91.7255 69.5608 92.0815 69.4951C92.9178 69.3489 93.701 68.9507 94.2396 68.295C94.3054 68.2219 94.3492 68.1343 94.4076 68.0703C94.9882 67.3287 95.7076 65.6355 95.3297 64.3203C94.4003 61.1293 90.316 59.7192 87.4696 62.4737C86.3722 63.5349 86.0965 65.1405 86.4453 66.6237C86.5694 67.1534 86.5256 67.8731 86.4307 68.5416C86.3722 68.8978 86.1842 69.3489 85.9432 69.8056C85.253 71.1207 83.9092 71.9719 82.4267 72.0724C81.9173 72.1089 81.3148 72.1747 80.7707 72.2404C80.4219 72.2842 79.9564 72.4212 79.4634 72.6039C77.4733 73.3309 75.8738 74.9218 75.2494 76.9439C75.1837 77.1612 75.1326 77.3658 75.1107 77.5466C75.0157 78.2079 74.9792 78.9421 75.0887 79.5449C75.1107 79.6326 75.1326 79.7257 75.1545 79.8207C75.4083 80.8308 75.8885 81.7679 76.5202 82.5971C77.298 83.6145 78.4665 85.3808 78.4099 86.601C78.388 86.8914 78.3661 87.1526 78.3296 87.3864C78.2273 88.1353 77.9443 88.8477 77.5372 89.487C77.4203 89.6678 77.203 89.982 77.0205 90.2286C76.8105 90.5263 76.6425 90.8533 76.5403 91.2095C76.3942 91.7045 76.2427 92.4369 76.3376 93.142C76.6206 95.2937 79.3447 96.2819 81.3586 95.111C82.6659 94.3548 83.2264 92.7639 82.8703 91.2953C82.6896 90.5464 82.1948 89.8706 81.7511 89.3847C81.0756 88.6504 80.7268 87.6476 80.8364 86.6594C80.8437 86.601 80.851 86.5499 80.8583 86.5133C80.9167 86.2448 81.0464 85.9964 81.2216 85.7571C82.2094 84.4054 84.0918 84.1223 85.5598 84.9205C85.7843 85.0374 86.018 85.1817 86.2572 85.3498C88.0447 86.5846 87.769 87.8065 87.8475 88.6504C88.0209 90.519 90.442 91.9565 92.2495 91.4268C93.2811 91.1218 94.0808 90.2633 94.4441 89.2459C95.4611 86.4037 92.7735 84.5223 90.5132 84.8712V84.8731ZM89.6204 62.081C91.3056 61.5933 93.0638 62.5614 93.5586 64.2473C94.0461 65.9259 93.0784 67.6922 91.3932 68.1872C89.708 68.6749 87.9497 67.7068 87.4549 66.0209C86.9675 64.335 87.9351 62.576 89.6204 62.081ZM81.7657 91.2113C82.1072 92.3821 81.4316 93.6096 80.2613 93.9512C79.0836 94.2927 77.8567 93.6169 77.5152 92.4461C77.1738 91.2752 77.8494 90.0478 79.0197 89.7062C80.1974 89.3646 81.4243 90.0331 81.7657 91.2113ZM82.717 82.8309C80.1371 83.5798 77.4422 82.0966 76.6863 79.5175C75.9377 76.9366 77.4203 74.2332 79.9983 73.4843C82.5782 72.7354 85.2804 74.2186 86.029 76.7977C86.7776 79.3787 85.295 82.0747 82.717 82.8309ZM91.5667 90.0843C90.3598 90.4332 89.0963 89.7427 88.7476 88.5353C88.3989 87.328 89.089 86.064 90.2959 85.7151C91.5028 85.3662 92.7662 86.0567 93.115 87.264C93.4637 88.4714 92.7735 89.7354 91.5667 90.0843Z" fill="#F5F5F5"/>
<g id="Group_2">
<path id="Vector_2" d="M119.205 78.4057V84.5247C119.205 90.0136 116.072 92.9836 109.6 92.9836C103.127 92.9836 99.9941 90.0593 99.9941 84.5247V78.4057C99.9941 72.9168 103.178 69.9468 109.6 69.9468C116.021 69.9468 119.205 72.9168 119.205 78.4057V78.4057ZM107.031 78.1353V84.8389C107.031 86.6381 107.955 87.5843 109.6 87.5843C111.245 87.5843 112.169 86.6399 112.169 84.8389V78.0897C112.169 76.2905 111.245 75.39 109.6 75.39C107.955 75.39 107.031 76.2905 107.031 78.1353V78.1353Z" fill="#F5F5F5"/>
<path id="Vector_3" d="M136.924 70.6226L136.873 74.6265C136.873 75.5708 136.205 75.9763 135.075 75.7973C133.945 75.6183 132.763 75.4831 131.84 75.4831C129.066 75.4831 128.089 76.4275 128.089 78.992V83.9859C128.089 86.5961 129.22 87.4052 131.993 87.4052C132.917 87.4052 133.843 87.3157 135.075 87.1349C136.154 86.9541 136.822 87.3596 136.822 88.3039L136.976 92.3535C134.304 92.8028 132.712 92.9836 130.709 92.9836C124.237 92.9836 121.053 90.0593 121.053 84.4352V78.4952C121.053 72.8711 124.288 69.9468 130.761 69.9468C133.072 69.9468 134.715 70.2171 136.924 70.6226V70.6226Z" fill="#F5F5F5"/>
<path id="Vector_4" d="M144.374 61.7119C145.351 61.7119 145.966 62.2069 145.966 63.1074V77.9995L151.258 71.3398C151.771 70.7097 152.337 70.485 153.158 70.485H159.888L151.772 80.2042L160.35 92.4423H153.416C152.543 92.4423 151.977 92.172 151.566 91.498L145.966 83.1286V91.0486C145.966 91.9492 145.349 92.4442 144.374 92.4442H138.93V61.7119H144.374V61.7119Z" fill="#F5F5F5"/>
<path id="Vector_5" d="M159.268 83.942V78.3618C159.268 73.0081 162.247 69.9468 168.565 69.9468C174.882 69.9468 177.966 72.8273 177.966 78.3618V81.9164C177.966 83.0415 177.349 83.6717 176.065 83.6717H166.253V84.7512C166.253 86.6417 167.177 87.4053 170.003 87.4053C171.647 87.4053 173.547 87.2244 175.397 86.9559C176.425 86.8207 177.093 87.2262 177.093 88.1249L177.246 92.085C174.422 92.6256 171.34 92.9855 169.182 92.9855C162.092 92.9855 159.268 90.4209 159.268 83.942ZM171.082 79.2167V77.7773C171.082 76.0677 170.21 75.3023 168.618 75.3023C167.128 75.3023 166.255 76.0677 166.255 77.6422V79.2167H171.084H171.082Z" fill="#F5F5F5"/>
<path id="Vector_6" d="M181.407 84.8858V75.8863H178.428V71.8824C178.428 70.9819 178.992 70.4869 180.02 70.4869H181.561L182.28 65.9424C182.382 65.0419 182.897 64.6382 183.872 64.6382H188.444V70.4869H194.299V74.4908C194.299 75.3913 193.735 75.8863 192.759 75.8863H188.444V85.0649C188.444 86.8202 189.112 87.4942 190.909 87.4942C191.577 87.4942 192.603 87.359 193.478 87.18C194.506 86.9992 195.172 87.4942 195.172 88.4404L195.223 92.3547C193.682 92.7602 191.679 92.9849 189.83 92.9849C183.87 92.9849 181.406 90.8697 181.406 84.8858H181.407Z" fill="#F5F5F5"/>
<path id="Vector_7" d="M204.01 63.1521V64.2316C204.01 66.1659 202.622 67.2911 200.002 67.2911C197.382 67.2911 195.996 66.1659 195.996 64.2316V63.1521C195.996 61.1264 197.486 60.0469 200.002 60.0469C202.518 60.0469 204.01 61.1264 204.01 63.1521V63.1521ZM201.903 70.4858C202.879 70.4858 203.495 70.9808 203.495 71.8813V92.445H196.458V70.4858H201.903V70.4858Z" fill="#F5F5F5"/>
<path id="Vector_8" d="M225.071 78.4057V84.5247C225.071 90.0136 221.937 92.9836 215.465 92.9836C208.992 92.9836 205.859 90.0593 205.859 84.5247V78.4057C205.859 72.9168 209.044 69.9468 215.465 69.9468C221.886 69.9468 225.071 72.9168 225.071 78.4057V78.4057ZM212.896 78.1353V84.8389C212.896 86.6381 213.82 87.5843 215.465 87.5843C217.11 87.5843 218.034 86.6399 218.034 84.8389V78.0897C218.034 76.2905 217.11 75.39 215.465 75.39C213.82 75.39 212.896 76.2905 212.896 78.1353V78.1353Z" fill="#F5F5F5"/>
</g>
</g>
</g>
</g>
</g>
</svg>
