<svg xmlns="http://www.w3.org/2000/svg" xmlns:xlink="http://www.w3.org/1999/xlink" width="890" height="760" viewBox="0 0 890 760" className="slideshow--item" id="slide3" active={active} previous={previous}>
  <defs>
    <filter id="Rectangle_7" x="37.29" y="24.815" width="814.92" height="724.37" filterUnits="userSpaceOnUse">
      <feOffset dy="7" input="SourceAlpha"/>
      <feGaussianBlur stdDeviation="9" result="blur"/>
      <feFlood flood-color="#121212" flood-opacity="0.157"/>
      <feComposite operator="in" in2="blur"/>
      <feComposite in="SourceGraphic"/>
    </filter>
  </defs>
  <g id="Add_Network-step-2" transform="translate(-776 3681)">
    <rect id="Rectangle_39" data-name="Rectangle 39" width="890" height="760" rx="11" transform="translate(776 -3681)" fill="#f5f5f5"/>
    <g id="Add_Network-step-2-2" data-name="Add_Network-step-2" transform="translate(840.29 -3636.185)">
      <g transform="matrix(1, 0, 0, 1, -64.29, -44.81)" filter="url(#Rectangle_7)">
        <rect id="Rectangle_7-2" data-name="Rectangle 7" width="760.92" height="670.37" rx="10" transform="translate(64.29 44.81)" fill="#fff"/>
      </g>
      <path id="Path_2" data-name="Path 2" d="M630.45,337.06H632V349h-1.3l-6.47-9.07V349h-1.55V337.06H624l6.46,9Z" transform="translate(-566.08 -204.63)" fill="#333"/>
      <path id="Path_3" data-name="Path 3" d="M642.11,344.37a3.836,3.836,0,0,1-.07.78h-6.72a2.73,2.73,0,0,0,.87,2,2.81,2.81,0,0,0,2,.77,2.65,2.65,0,0,0,2.49-1.5l1.22.64a3.45,3.45,0,0,1-1.43,1.51,4.41,4.41,0,0,1-2.3.6,4.16,4.16,0,0,1-3.1-1.26,4.74,4.74,0,0,1,0-6.36,4,4,0,0,1,3-1.24A3.81,3.81,0,0,1,641,341.5,4,4,0,0,1,642.11,344.37Zm-6.76-.4h5.2a2.32,2.32,0,0,0-.76-1.74,2.42,2.42,0,0,0-1.72-.71,2.62,2.62,0,0,0-1.81.67,2.72,2.72,0,0,0-.91,1.81Z" transform="translate(-566.08 -204.63)" fill="#333"/>
      <path id="Path_4" data-name="Path 4" d="M647.25,349.07a2.74,2.74,0,0,1-2-.7,2.64,2.64,0,0,1-.71-2v-4.58h-1.69V340.5h.44a1.2,1.2,0,0,0,1.25-1.25v-1.5h1.4v2.75H648v1.31h-2.1v4.58a2.282,2.282,0,0,0,.05.48,2,2,0,0,0,.18.48,1,1,0,0,0,.5.42,2.109,2.109,0,0,0,.86.15,3,3,0,0,0,.61-.05V349A3.579,3.579,0,0,1,647.25,349.07Z" transform="translate(-566.08 -204.63)" fill="#333"/>
      <path id="Path_5" data-name="Path 5" d="M660.32,340.5h1.58l-3,8.48h-1.31l-2.12-6.59L653.33,349H652l-3-8.48h1.59l2.11,6.45,2-6.45h1.54l2,6.41Z" transform="translate(-566.08 -204.63)" fill="#333"/>
      <path id="Path_6" data-name="Path 6" d="M670.25,347.91a4.66,4.66,0,0,1-6.37,0,4.3,4.3,0,0,1-1.29-3.19,4.24,4.24,0,0,1,1.29-3.17,4.71,4.71,0,0,1,6.37,0,4.27,4.27,0,0,1,1.28,3.17,4.33,4.33,0,0,1-1.28,3.19Zm-5.31-1a3,3,0,0,0,4.24,0,3.28,3.28,0,0,0,0-4.43,3,3,0,0,0-4.24,0,3.28,3.28,0,0,0,0,4.43Z" transform="translate(-566.08 -204.63)" fill="#333"/>
      <path id="Path_7" data-name="Path 7" d="M676.9,340.4h.71v1.31h-.92a2,2,0,0,0-1.52.59,2.26,2.26,0,0,0-.56,1.62V349H673.2v-8.5h1.36v1.05A2.5,2.5,0,0,1,676.9,340.4Z" transform="translate(-566.08 -204.63)" fill="#333"/>
      <path id="Path_8" data-name="Path 8" d="M686.2,340.5l-3.2,3.39,3.2,5.11h-1.62l-2.52-4.07-1.54,1.62V349h-1.41V337.06h1.41v7.6l4-4.16Z" transform="translate(-566.08 -204.63)" fill="#333"/>
      <path id="Path_9" data-name="Path 9" d="M698.14,337.06h1.55V349h-1.31l-6.46-9.07V349h-1.56V337.06h1.31l6.47,9Z" transform="translate(-566.08 -204.63)" fill="#333"/>
      <path id="Path_10" data-name="Path 10" d="M705.36,340.31a3.6,3.6,0,0,1,2.43.81,2.67,2.67,0,0,1,.94,2.11V349h-1.38v-1.19a3,3,0,0,1-1.17,1,3.32,3.32,0,0,1-1.56.37,3.39,3.39,0,0,1-2.23-.71,2.26,2.26,0,0,1-.86-1.83,2,2,0,0,1,.72-1.57,4.53,4.53,0,0,1,2.06-.93l3-.66v-.24a1.4,1.4,0,0,0-.55-1.16,2.13,2.13,0,0,0-1.41-.45A2.45,2.45,0,0,0,704,342a2.329,2.329,0,0,0-.89,1l-1.26-.64a3.19,3.19,0,0,1,1.35-1.46,4.11,4.11,0,0,1,2.16-.59Zm-.66,7.63a2.55,2.55,0,0,0,2.62-2.61v-.74l-2.68.61a2.631,2.631,0,0,0-1.19.54,1.13,1.13,0,0,0-.43.89,1.17,1.17,0,0,0,.45,1,2,2,0,0,0,1.23.31Z" transform="translate(-566.08 -204.63)" fill="#333"/>
      <path id="Path_11" data-name="Path 11" d="M719.85,340.31a3.07,3.07,0,0,1,2.24.87,3,3,0,0,1,.88,2.21V349h-1.4v-5.14a2.25,2.25,0,0,0-.56-1.61,2.14,2.14,0,0,0-3,0,2.25,2.25,0,0,0-.57,1.61V349h-1.41v-5.14a2.25,2.25,0,0,0-.55-1.61,2.14,2.14,0,0,0-3,0,2.25,2.25,0,0,0-.57,1.61V349H710.5v-8.5h1.38v1a2.69,2.69,0,0,1,2.41-1.16,3.19,3.19,0,0,1,1.6.4,2.73,2.73,0,0,1,1.11,1.1,2.9,2.9,0,0,1,1.14-1.11A3.46,3.46,0,0,1,719.85,340.31Z" transform="translate(-566.08 -204.63)" fill="#333"/>
      <path id="Path_12" data-name="Path 12" d="M732.75,344.37a3.831,3.831,0,0,1-.07.78H726a2.78,2.78,0,0,0,.88,2,2.81,2.81,0,0,0,2,.77,2.63,2.63,0,0,0,2.48-1.5l1.23.64a3.45,3.45,0,0,1-1.43,1.51,4.41,4.41,0,0,1-2.3.6,4.15,4.15,0,0,1-3.1-1.26,4.75,4.75,0,0,1,0-6.36,4,4,0,0,1,3-1.24,3.83,3.83,0,0,1,2.93,1.19,4.06,4.06,0,0,1,1.06,2.87ZM726,344h5.2a2.32,2.32,0,0,0-.76-1.74,2.44,2.44,0,0,0-1.73-.71,2.61,2.61,0,0,0-1.8.67A2.681,2.681,0,0,0,726,344Z" transform="translate(-566.08 -204.63)" fill="#333"/>
      <text id="Network_Address" data-name="Network Address" transform="translate(56.35 243.09)" fill="#329afc" font-size="18" font-family="PlusJakartaDisplay-Medium, Plus Jakarta Display" font-weight="500"><tspan x="0" y="0">Net</tspan><tspan y="0" letter-spacing="-0.01em">w</tspan><tspan y="0">ork </tspan><tspan y="0" letter-spacing="-0.02em">A</tspan><tspan y="0">ddress</tspan></text>
      <text id="Network_Definition" data-name="Network Definition" transform="translate(56.35 111.09)" fill="#329afc" font-size="18" font-family="PlusJakartaDisplay-Medium, Plus Jakarta Display" font-weight="500"><tspan x="0" y="0">Net</tspan><tspan y="0" letter-spacing="-0.01em">w</tspan><tspan y="0">ork Definition</tspan></text>
      <text id="DNS_Server" data-name="DNS Server" transform="translate(56.35 374.09)" fill="#329afc" font-size="18" font-family="PlusJakartaDisplay-Medium, Plus Jakarta Display" font-weight="500"><tspan x="0" y="0">DNS Ser</tspan><tspan y="0" letter-spacing="-0.01em">v</tspan><tspan y="0">er</tspan></text>
      <text id="Enable_Network" data-name="Enable Network" transform="translate(56.35 502.09)" fill="#329afc" font-size="18" font-family="PlusJakartaDisplay-Medium, Plus Jakarta Display" font-weight="500"><tspan x="0" y="0">Enable Net</tspan><tspan y="0" letter-spacing="-0.01em">w</tspan><tspan y="0">ork</tspan></text>
      <rect id="Rectangle_8" data-name="Rectangle 8" width="651.61" height="53.89" rx="8" transform="translate(55.12 154)" fill="#f4f6fa"/>
      <text id="Reported_network_address:_100.000.000.0_10" data-name="Reported network address:    100.000.000.0/10" transform="translate(56.35 270.97)" fill="#333" font-size="15" font-family="PlusJakartaDisplay-Medium, Plus Jakarta Display" font-weight="500"><tspan x="0" y="0" letter-spacing="-0.03em">R</tspan><tspan y="0">epo</tspan><tspan y="0" letter-spacing="0.01em">r</tspan><tspan y="0" letter-spacing="-0.01em">t</tspan><tspan y="0">ed net</tspan><tspan y="0" letter-spacing="-0.01em">w</tspan><tspan y="0" xml:space="preserve">ork address:    </tspan><tspan y="0" fill="#666">100.000.000.0/10</tspan></text>
      <text id="Reported_DNS_server:" data-name="Reported DNS server:" transform="translate(56.35 399.97)" fill="#333" font-size="15" font-family="PlusJakartaDisplay-Medium, Plus Jakarta Display" font-weight="500"><tspan x="0" y="0" letter-spacing="-0.03em">R</tspan><tspan y="0">epo</tspan><tspan y="0" letter-spacing="0.01em">r</tspan><tspan y="0" letter-spacing="-0.01em">t</tspan><tspan y="0">ed DNS ser</tspan><tspan y="0" letter-spacing="-0.01em">v</tspan><tspan y="0">er:</tspan></text>
      <text id="Enable_Network-2" data-name="Enable Network" transform="translate(87.35 574.97)" fill="#999" font-size="15" font-family="PlusJakartaDisplay-Medium, Plus Jakarta Display" font-weight="500"><tspan x="0" y="0">Enable Net</tspan><tspan y="0" letter-spacing="-0.01em">w</tspan><tspan y="0">ork</tspan></text>
      <text id="If_you_would_like_to_enable_the_network_now_check_the_box_below._Otherwise_you_can_enable_it_at_a_later_time" data-name="If you would like to enable the network now, check the box below. Otherwise you can enable it at a 
later time" transform="translate(56.35 526.19)" fill="#999" font-size="14" font-family="PlusJakartaDisplay-Regular, Plus Jakarta Display"><tspan x="0" y="0">If </tspan><tspan y="0" letter-spacing="-0.01em">y</tspan><tspan y="0">ou </tspan><tspan y="0" letter-spacing="-0.01em">w</tspan><tspan y="0">ould li</tspan><tspan y="0" letter-spacing="-0.01em">k</tspan><tspan y="0">e </tspan><tspan y="0" letter-spacing="-0.02em">t</tspan><tspan y="0">o enable the net</tspan><tspan y="0" letter-spacing="-0.01em">w</tspan><tspan y="0">ork n</tspan><tspan y="0" letter-spacing="-0.01em">o</tspan><tspan y="0" letter-spacing="-0.04em">w</tspan><tspan y="0">, check the b</tspan><tspan y="0" letter-spacing="-0.02em">o</tspan><tspan y="0">x bel</tspan><tspan y="0" letter-spacing="-0.01em">o</tspan><tspan y="0" letter-spacing="-0.04em">w</tspan><tspan y="0">. Otherwise </tspan><tspan y="0" letter-spacing="-0.01em">y</tspan><tspan y="0">ou can enable it at a </tspan><tspan x="0" y="17">la</tspan><tspan y="17" letter-spacing="-0.02em">t</tspan><tspan y="17">er time</tspan></text>
      <rect id="Rectangle_9" data-name="Rectangle 9" width="651.68" height="54.02" rx="8" transform="translate(55.24 284.87)" fill="#f4f6fa"/>
      <rect id="Rectangle_10" data-name="Rectangle 10" width="651.68" height="54.15" rx="8" transform="translate(55.24 412.74)" fill="#f4f6fa"/>
      <rect id="Rectangle_11" data-name="Rectangle 11" width="18.47" height="18.63" rx="3" transform="translate(55.24 560.74)" fill="#e6e6e6"/>
      <rect id="Rectangle_12" data-name="Rectangle 12" width="127" height="50.84" rx="8" transform="translate(580.19 583.05)" fill="#3399fe"/>
      <text id="Next" transform="translate(612.19 613.81)" fill="#fff" font-size="16" font-family="PlusJakartaDisplay-Medium, Plus Jakarta Display" font-weight="500"><tspan x="0" y="0">N</tspan><tspan y="0" letter-spacing="-0.01em">e</tspan><tspan y="0">xt</tspan></text>
      <line id="Line_7" data-name="Line 7" x1="13.06" transform="translate(662.88 607.7)" fill="none" stroke="#fff" stroke-miterlimit="10" stroke-width="1.5" opacity="0.3"/>
      <line id="Line_8" data-name="Line 8" x2="6.1" y2="6.1" transform="translate(670.28 601.6)" fill="none" stroke="#fff" stroke-linejoin="bevel" stroke-width="1.5"/>
      <line id="Line_9" data-name="Line 9" x1="6.1" y2="6.1" transform="translate(670.28 607.7)" fill="none" stroke="#fff" stroke-linecap="square" stroke-miterlimit="10" stroke-width="1.5"/>
      <line id="Line_10" data-name="Line 10" x2="761" transform="translate(0.42 68.89)" fill="none" stroke="#e6e6e6" stroke-miterlimit="10" stroke-width="0.75"/>
      <text id="Create_a_Network" data-name="Create a Network" transform="translate(92.35 43.9)" font-size="20" font-family="PlusJakartaDisplay-Medium, Plus Jakarta Display" font-weight="500"><tspan x="0" y="0">Crea</tspan><tspan y="0" letter-spacing="-0.01em">t</tspan><tspan y="0">e a Net</tspan><tspan y="0" letter-spacing="-0.01em">w</tspan><tspan y="0">ork</tspan></text>
      <rect id="Rectangle_13" data-name="Rectangle 13" width="33.41" height="3.51" rx="1" transform="translate(46.36 46.33)" fill="#329afc"/>
      <rect id="Rectangle_14" data-name="Rectangle 14" width="27.44" height="19.67" rx="1" transform="translate(49.01 24.97)" fill="none" stroke="#3399fe" stroke-miterlimit="10" stroke-width="2.5"/>
    </g>
  </g>
</svg>
