<svg xmlns="http://www.w3.org/2000/svg" xmlns:xlink="http://www.w3.org/1999/xlink" width="890" height="760" viewBox="0 0 890 760">
  <defs>
    <filter id="Rectangle_1" x="22.93" y="90" width="843.84" height="594" filterUnits="userSpaceOnUse">
      <feOffset dy="7" input="SourceAlpha"/>
      <feGaussianBlur stdDeviation="9" result="blur"/>
      <feFlood flood-color="#121212" flood-opacity="0.157"/>
      <feComposite operator="in" in2="blur"/>
      <feComposite in="SourceGraphic"/>
    </filter>
  </defs>
  <g id="Add_Device-step-5" transform="translate(-3644 3681)">
    <rect id="Rectangle_42" data-name="Rectangle 42" width="890" height="760" rx="11" transform="translate(3644 -3681)" fill="#f5f5f5"/>
    <g id="Add_Device-step-5-2" data-name="Add_Device-step-5" transform="translate(3693.93 -3571)">
      <g transform="matrix(1, 0, 0, 1, -49.93, -110)" filter="url(#Rectangle_1)">
        <rect id="Rectangle_1-2" data-name="Rectangle 1" width="789.84" height="540" rx="10" transform="translate(49.93 110)" fill="#fff"/>
      </g>
      <text id="Operating_System" data-name="Operating System" transform="translate(352.87 203.56)" fill="#333" font-size="15" font-family="PlusJakartaDisplay-Regular, Plus Jakarta Display"><tspan x="0" y="0">Operating Sys</tspan><tspan y="0" letter-spacing="-0.02em">t</tspan><tspan y="0">em</tspan></text>
      <text id="Device_Details" data-name="Device Details" transform="translate(95.87 182.56)" fill="#333" font-size="15" font-family="PlusJakartaDisplay-Medium, Plus Jakarta Display" font-weight="500"><tspan x="0" y="0">D</tspan><tspan y="0" letter-spacing="-0.01em">e</tspan><tspan y="0">vice Details</tspan></text>
      <text id="Download_Software" data-name="Download Software" transform="translate(95.87 247.56)" fill="#333" font-size="15" font-family="PlusJakartaDisplay-Medium, Plus Jakarta Display" font-weight="500"><tspan x="0" y="0">D</tspan><tspan y="0" letter-spacing="-0.01em">o</tspan><tspan y="0">wnload So</tspan><tspan y="0" letter-spacing="0.02em">f</tspan><tspan y="0">t</tspan><tspan y="0" letter-spacing="-0.02em">w</tspan><tspan y="0">are</tspan></text>
      <text id="Apply_Configuration" data-name="Apply Configuration" transform="translate(95.87 312.56)" fill="#333" font-size="15" font-family="PlusJakartaDisplay-Medium, Plus Jakarta Display" font-weight="500"><tspan x="0" y="0">Apply </tspan><tspan y="0" letter-spacing="-0.01em">C</tspan><tspan y="0">onfiguration</tspan></text>
      <text id="Device_Details-2" data-name="Device Details" transform="translate(351.87 157.68)" font-size="18" font-family="PlusJakartaDisplay-Medium, Plus Jakarta Display" font-weight="500"><tspan x="0" y="0">D</tspan><tspan y="0" letter-spacing="-0.01em">e</tspan><tspan y="0">vice Details</tspan></text>
      <text id="Add_a_Device" data-name="Add a Device" transform="translate(92.87 54.68)" font-size="18" font-family="PlusJakartaDisplay-Medium, Plus Jakarta Display" font-weight="500"><tspan x="0" y="0" letter-spacing="-0.02em">A</tspan><tspan y="0">dd a D</tspan><tspan y="0" letter-spacing="-0.01em">e</tspan><tspan y="0">vice</tspan></text>
      <rect id="Rectangle_2" data-name="Rectangle 2" width="379.62" height="54.14" rx="7.62" transform="translate(352.15 215.96)" fill="#fff"/>
      <path id="Path_1" data-name="Path 1" d="M1289,485.86a7.26,7.26,0,0,1,7.25,7.25V532a7.26,7.26,0,0,1-7.25,7.25H924.63a7.26,7.26,0,0,1-7.25-7.25V493.11a7.26,7.26,0,0,1,7.25-7.25H1289m0-.75H924.63a8,8,0,0,0-8,8V532a8,8,0,0,0,8,8H1289a8,8,0,0,0,8-8V493.11A8,8,0,0,0,1289,485.11Z" transform="translate(-564.86 -269.52)" fill="#e6e6e6"/>
      <text id="Device_Name" data-name="Device Name" transform="translate(352.87 299.56)" fill="#333" font-size="15" font-family="PlusJakartaDisplay-Regular, Plus Jakarta Display"><tspan x="0" y="0">D</tspan><tspan y="0" letter-spacing="-0.01em">e</tspan><tspan y="0">vice Name</tspan></text>
      <rect id="Rectangle_3" data-name="Rectangle 3" width="380.37" height="53.89" rx="8" transform="translate(351.77 311.59)" fill="#f4f6fa"/>
      <text id="Next" transform="translate(624.84 432.4)" fill="#fff" font-size="16" font-family="PlusJakartaDisplay-Medium, Plus Jakarta Display" font-weight="500"><tspan x="0" y="0">N</tspan><tspan y="0" letter-spacing="-0.01em">e</tspan><tspan y="0">xt</tspan></text>
      <line id="Line_1" data-name="Line 1" y2="432.77" transform="translate(300.84 89.21)" fill="#e6e6e6" stroke="#e6e6e6" stroke-miterlimit="10" stroke-width="0.75"/>
      <circle id="Ellipse_1" data-name="Ellipse 1" cx="19.5" cy="19.5" r="19.5" transform="translate(44.34 157.5)" fill="#3399fe"/>
      <text id="_1" data-name="1" transform="translate(60.72 184.6)" fill="#fff" font-size="18" font-family="PlusJakartaDisplay-Regular, Plus Jakarta Display"><tspan x="0" y="0">1</tspan></text>
      <circle id="Ellipse_2" data-name="Ellipse 2" cx="19.5" cy="19.5" r="19.5" transform="translate(44.84 223)" fill="#d4d5d6"/>
      <text id="_2" data-name="2" transform="translate(59.53 249.1)" fill="#fff" font-size="18" font-family="PlusJakartaDisplay-Regular, Plus Jakarta Display"><tspan x="0" y="0">2</tspan></text>
      <circle id="Ellipse_3" data-name="Ellipse 3" cx="19.5" cy="19.5" r="19.5" transform="translate(45.84 287)" fill="#d4d5d6"/>
      <text id="_3" data-name="3" transform="translate(60.46 313.1)" fill="#fff" font-size="18" font-family="PlusJakartaDisplay-Regular, Plus Jakarta Display"><tspan x="0" y="0">3</tspan></text>
      <line id="Line_2" data-name="Line 2" x2="376.56" transform="translate(355.58 388.5)" fill="none" stroke="#e6e6e6" stroke-miterlimit="10" stroke-width="0.75"/>
      <line id="Line_3" data-name="Line 3" x2="790" transform="translate(0.14 89.48)" fill="none" stroke="#e6e6e6" stroke-miterlimit="10" stroke-width="0.75"/>
      <rect id="Rectangle_4" data-name="Rectangle 4" width="33.41" height="3.51" rx="1" transform="translate(46.89 57.85)" fill="#329afc"/>
      <rect id="Rectangle_5" data-name="Rectangle 5" width="27.44" height="19.67" rx="1" transform="translate(49.53 36.49)" fill="none" stroke="#3399fe" stroke-miterlimit="10" stroke-width="2.5"/>
      <rect id="Rectangle_6" data-name="Rectangle 6" width="127" height="50.84" rx="8" transform="translate(605.29 410.13)" fill="#3399fe"/>
      <text id="Next-2" data-name="Next" transform="translate(637.29 440.9)" fill="#fff" font-size="16" font-family="PlusJakartaDisplay-Medium, Plus Jakarta Display" font-weight="500"><tspan x="0" y="0">N</tspan><tspan y="0" letter-spacing="-0.01em">e</tspan><tspan y="0">xt</tspan></text>
      <line id="Line_4" data-name="Line 4" x1="13.06" transform="translate(687.98 434.78)" fill="none" stroke="#fff" stroke-miterlimit="10" stroke-width="1.5" opacity="0.3"/>
      <line id="Line_5" data-name="Line 5" x2="6.1" y2="6.09" transform="translate(695.38 428.69)" fill="none" stroke="#fff" stroke-linejoin="bevel" stroke-width="1.5"/>
      <line id="Line_6" data-name="Line 6" x1="6.1" y2="6.1" transform="translate(695.38 434.78)" fill="none" stroke="#fff" stroke-linecap="square" stroke-miterlimit="10" stroke-width="1.5"/>
    </g>
  </g>
</svg>
