<svg xmlns="http://www.w3.org/2000/svg" xmlns:xlink="http://www.w3.org/1999/xlink" width="890" height="760" viewBox="0 0 890 760">
  <defs>
    <filter id="Rectangle_7" x="68.544" y="52.332" width="752.454" height="669.337" filterUnits="userSpaceOnUse">
      <feOffset dy="7" input="SourceAlpha"/>
      <feGaussianBlur stdDeviation="9" result="blur"/>
      <feFlood flood-color="#121212" flood-opacity="0.157"/>
      <feComposite operator="in" in2="blur"/>
      <feComposite in="SourceGraphic"/>
    </filter>
  </defs>
  <g id="Add_Network-step-2" transform="translate(-776 3681)">
    <rect id="Rectangle_39" data-name="Rectangle 39" width="890" height="760" rx="11" transform="translate(776 -3681)" fill="#f5f5f5"/>
    <g id="Add_Network-step-2-2" data-name="Add_Network-step-2" transform="translate(871.544 -3608.668)">
      <g transform="matrix(1, 0, 0, 1, -95.54, -72.33)" filter="url(#Rectangle_7)">
        <rect id="Rectangle_7-2" data-name="Rectangle 7" width="698.454" height="615.338" rx="10" transform="translate(95.54 72.33)" fill="#fff"/>
      </g>
      <path id="Path_2" data-name="Path 2" d="M629.812,337.06h1.423v10.96h-1.193l-5.939-8.325v8.325H622.68V337.06h1.212l5.93,8.261Z" transform="translate(-570.727 -215.502)" fill="#333"/>
      <path id="Path_3" data-name="Path 3" d="M641.432,344.036a3.523,3.523,0,0,1-.064.716H635.2a2.506,2.506,0,0,0,.8,1.836,2.58,2.58,0,0,0,1.836.707,2.433,2.433,0,0,0,2.286-1.377l1.12.587a3.168,3.168,0,0,1-1.313,1.386,4.049,4.049,0,0,1-2.111.551,3.818,3.818,0,0,1-2.845-1.157,4.351,4.351,0,0,1,0-5.838,3.672,3.672,0,0,1,2.754-1.138,3.5,3.5,0,0,1,2.689,1.092A3.672,3.672,0,0,1,641.432,344.036Zm-6.205-.367H640a2.129,2.129,0,0,0-.7-1.6,2.221,2.221,0,0,0-1.579-.652,2.4,2.4,0,0,0-1.661.615,2.5,2.5,0,0,0-.835,1.661Z" transform="translate(-571.643 -215.768)" fill="#333"/>
      <path id="Path_4" data-name="Path 4" d="M646.889,348.141a2.516,2.516,0,0,1-1.836-.643,2.423,2.423,0,0,1-.652-1.836v-4.2H642.85v-1.184h.4a1.1,1.1,0,0,0,1.147-1.147V337.75h1.285v2.524h1.891v1.2H645.65v4.2a2.1,2.1,0,0,0,.046.441,1.84,1.84,0,0,0,.165.441.918.918,0,0,0,.459.386,1.936,1.936,0,0,0,.789.138,2.754,2.754,0,0,0,.56-.046v1.037A3.285,3.285,0,0,1,646.889,348.141Z" transform="translate(-572.382 -215.558)" fill="#333"/>
      <path id="Path_5" data-name="Path 5" d="M659.391,340.5h1.45l-2.754,7.784h-1.2l-1.946-6.049-1.964,6.067h-1.221L649,340.518h1.46l1.937,5.92,1.836-5.92h1.414l1.836,5.884Z" transform="translate(-572.887 -215.784)" fill="#333"/>
      <path id="Path_6" data-name="Path 6" d="M669.621,347.286a4.277,4.277,0,0,1-5.847,0,3.947,3.947,0,0,1-1.184-2.928,3.892,3.892,0,0,1,1.184-2.91,4.323,4.323,0,0,1,5.847,0,3.919,3.919,0,0,1,1.175,2.91A3.974,3.974,0,0,1,669.621,347.286Zm-4.874-.918a2.754,2.754,0,0,0,3.892,0,3.011,3.011,0,0,0,0-4.066,2.754,2.754,0,0,0-3.892,0,3.011,3.011,0,0,0,0,4.066Z" transform="translate(-574.003 -215.768)" fill="#333"/>
      <path id="Path_7" data-name="Path 7" d="M676.6,340.4h.652v1.2H676.4a1.836,1.836,0,0,0-1.4.542,2.074,2.074,0,0,0-.514,1.487v4.663H673.2v-7.8h1.248v.964A2.3,2.3,0,0,1,676.6,340.4Z" transform="translate(-574.874 -215.775)" fill="#333"/>
      <path id="Path_8" data-name="Path 8" d="M685.618,340.218l-2.937,3.112,2.937,4.69h-1.487l-2.313-3.736-1.414,1.487v2.249H679.11V337.06H680.4v6.976l3.672-3.819Z" transform="translate(-575.359 -215.502)" fill="#333"/>
      <path id="Path_9" data-name="Path 9" d="M697.5,337.06h1.423v10.96h-1.2l-5.93-8.325v8.325H690.36V337.06h1.2l5.939,8.261Z" transform="translate(-576.282 -215.502)" fill="#333"/>
      <path id="Path_10" data-name="Path 10" d="M705.046,340.31a3.3,3.3,0,0,1,2.231.744,2.451,2.451,0,0,1,.863,1.937v5.3h-1.267v-1.092a2.753,2.753,0,0,1-1.074.918,3.048,3.048,0,0,1-1.432.34,3.112,3.112,0,0,1-2.047-.652,2.075,2.075,0,0,1-.789-1.68,1.836,1.836,0,0,1,.661-1.441,4.158,4.158,0,0,1,1.891-.854l2.754-.606V343a1.285,1.285,0,0,0-.5-1.065,1.955,1.955,0,0,0-1.294-.413,2.249,2.249,0,0,0-1.239.34,2.138,2.138,0,0,0-.817.918l-1.157-.587a2.929,2.929,0,0,1,1.239-1.34,3.773,3.773,0,0,1,1.983-.542Zm-.606,7a2.341,2.341,0,0,0,2.4-2.4v-.679l-2.46.56a2.415,2.415,0,0,0-1.092.5,1.038,1.038,0,0,0-.395.817,1.074,1.074,0,0,0,.413.918,1.836,1.836,0,0,0,1.129.285Z" transform="translate(-577.199 -215.768)" fill="#333"/>
      <path id="Path_11" data-name="Path 11" d="M719.082,340.31a2.818,2.818,0,0,1,2.056.8,2.754,2.754,0,0,1,.808,2.029v5.149h-1.285v-4.718a2.066,2.066,0,0,0-.514-1.478,1.964,1.964,0,0,0-2.754,0,2.065,2.065,0,0,0-.523,1.478v4.718h-1.294v-4.718a2.065,2.065,0,0,0-.5-1.478,1.964,1.964,0,0,0-2.754,0,2.065,2.065,0,0,0-.523,1.478v4.718H710.5v-7.8h1.267v.918a2.469,2.469,0,0,1,2.212-1.065,2.928,2.928,0,0,1,1.469.367,2.506,2.506,0,0,1,1.019,1.01,2.663,2.663,0,0,1,1.046-1.019A3.176,3.176,0,0,1,719.082,340.31Z" transform="translate(-577.936 -215.768)" fill="#333"/>
      <path id="Path_12" data-name="Path 12" d="M732.076,344.036a3.514,3.514,0,0,1-.064.716H725.88a2.552,2.552,0,0,0,.808,1.836,2.579,2.579,0,0,0,1.836.707,2.414,2.414,0,0,0,2.276-1.377l1.129.587a3.167,3.167,0,0,1-1.313,1.386,4.048,4.048,0,0,1-2.111.551,3.809,3.809,0,0,1-2.845-1.157,4.36,4.36,0,0,1,0-5.838,3.672,3.672,0,0,1,2.754-1.138A3.516,3.516,0,0,1,731.1,341.4a3.726,3.726,0,0,1,.973,2.634Zm-6.2-.34h4.773a2.13,2.13,0,0,0-.7-1.6,2.24,2.24,0,0,0-1.588-.652,2.4,2.4,0,0,0-1.652.615,2.461,2.461,0,0,0-.835,1.634Z" transform="translate(-579.088 -215.768)" fill="#333"/>
      <text id="Network_Address" data-name="Network Address" transform="translate(51.724 221.694)" fill="#329afc" font-size="15" font-family="PlusJakartaDisplay-Medium, Plus Jakarta Display" font-weight="500"><tspan x="0" y="0">Net</tspan><tspan y="0" letter-spacing="-0.01em">w</tspan><tspan y="0">ork </tspan><tspan y="0" letter-spacing="-0.02em">A</tspan><tspan y="0">ddress</tspan></text>
      <text id="Network_Definition" data-name="Network Definition" transform="translate(51.724 100.53)" fill="#329afc" font-size="15" font-family="PlusJakartaDisplay-Medium, Plus Jakarta Display" font-weight="500"><tspan x="0" y="0">Net</tspan><tspan y="0" letter-spacing="-0.01em">w</tspan><tspan y="0">ork Definition</tspan></text>
      <text id="DNS_Server" data-name="DNS Server" transform="translate(51.724 341.94)" fill="#329afc" font-size="15" font-family="PlusJakartaDisplay-Medium, Plus Jakarta Display" font-weight="500"><tspan x="0" y="0">DNS Ser</tspan><tspan y="0" letter-spacing="-0.01em">v</tspan><tspan y="0">er</tspan></text>
      <text id="Enable_Network" data-name="Enable Network" transform="translate(51.724 459.432)" fill="#329afc" font-size="15" font-family="PlusJakartaDisplay-Medium, Plus Jakarta Display" font-weight="500"><tspan x="0" y="0">Enable Net</tspan><tspan y="0" letter-spacing="-0.01em">w</tspan><tspan y="0">ork</tspan></text>
      <rect id="Rectangle_8" data-name="Rectangle 8" width="598.118" height="49.466" rx="8" transform="translate(50.595 141.358)" fill="#f4f6fa"/>
      <text id="Reported_network_address:_100.000.000.0_10" data-name="Reported network address:    100.000.000.0/10" transform="translate(51.724 247.039)" fill="#333" font-size="12" font-family="PlusJakartaDisplay-Medium, Plus Jakarta Display" font-weight="500"><tspan x="0" y="0" letter-spacing="-0.03em">R</tspan><tspan y="0">epo</tspan><tspan y="0" letter-spacing="0.01em">r</tspan><tspan y="0" letter-spacing="-0.01em">t</tspan><tspan y="0">ed net</tspan><tspan y="0" letter-spacing="-0.01em">w</tspan><tspan y="0" xml:space="preserve">ork address:    </tspan><tspan y="0" fill="#666">100.000.000.0/10</tspan></text>
      <text id="Reported_DNS_server:" data-name="Reported DNS server:" transform="translate(51.724 365.449)" fill="#333" font-size="12" font-family="PlusJakartaDisplay-Medium, Plus Jakarta Display" font-weight="500"><tspan x="0" y="0" letter-spacing="-0.03em">R</tspan><tspan y="0">epo</tspan><tspan y="0" letter-spacing="0.01em">r</tspan><tspan y="0" letter-spacing="-0.01em">t</tspan><tspan y="0">ed DNS ser</tspan><tspan y="0" letter-spacing="-0.01em">v</tspan><tspan y="0">er:</tspan></text>
      <text id="Enable_Network-2" data-name="Enable Network" transform="translate(80.179 526.083)" fill="#999" font-size="12" font-family="PlusJakartaDisplay-Medium, Plus Jakarta Display" font-weight="500"><tspan x="0" y="0">Enable Net</tspan><tspan y="0" letter-spacing="-0.01em">w</tspan><tspan y="0">ork</tspan></text>
      <text id="If_you_would_like_to_enable_the_network_now_check_the_box_below._Otherwise_you_can_enable_it_at_a_later_time" data-name="If you would like to enable the network now, check the box below. Otherwise you can enable it at a 
later time" transform="translate(51.724 481.225)" fill="#999" font-size="11" font-family="PlusJakartaDisplay-Regular, Plus Jakarta Display"><tspan x="0" y="0">If </tspan><tspan y="0" letter-spacing="-0.01em">y</tspan><tspan y="0">ou </tspan><tspan y="0" letter-spacing="-0.01em">w</tspan><tspan y="0">ould li</tspan><tspan y="0" letter-spacing="-0.01em">k</tspan><tspan y="0">e </tspan><tspan y="0" letter-spacing="-0.02em">t</tspan><tspan y="0">o enable the net</tspan><tspan y="0" letter-spacing="-0.01em">w</tspan><tspan y="0">ork n</tspan><tspan y="0" letter-spacing="-0.01em">o</tspan><tspan y="0" letter-spacing="-0.04em">w</tspan><tspan y="0">, check the b</tspan><tspan y="0" letter-spacing="-0.02em">o</tspan><tspan y="0">x bel</tspan><tspan y="0" letter-spacing="-0.01em">o</tspan><tspan y="0" letter-spacing="-0.04em">w</tspan><tspan y="0">. Otherwise </tspan><tspan y="0" letter-spacing="-0.01em">y</tspan><tspan y="0">ou can enable it at a </tspan><tspan x="0" y="14">la</tspan><tspan y="14" letter-spacing="-0.02em">t</tspan><tspan y="14">er time</tspan></text>
      <rect id="Rectangle_9" data-name="Rectangle 9" width="598.182" height="49.585" rx="8" transform="translate(50.705 261.484)" fill="#f4f6fa"/>
      <rect id="Rectangle_10" data-name="Rectangle 10" width="598.182" height="49.705" rx="8" transform="translate(50.705 378.857)" fill="#f4f6fa"/>
      <rect id="Rectangle_11" data-name="Rectangle 11" width="16.954" height="17.101" rx="3" transform="translate(50.705 514.707)" fill="#e6e6e6"/>
      <rect id="Rectangle_12" data-name="Rectangle 12" width="116.574" height="46.666" rx="8" transform="translate(532.561 535.186)" fill="#3399fe"/>
      <text id="Next" transform="translate(561.934 561.816)" fill="#fff" font-size="13" font-family="PlusJakartaDisplay-Medium, Plus Jakarta Display" font-weight="500"><tspan x="0" y="0">N</tspan><tspan y="0" letter-spacing="-0.01em">e</tspan><tspan y="0">xt</tspan></text>
      <line id="Line_7" data-name="Line 7" x1="11.988" transform="translate(608.462 557.812)" fill="none" stroke="#fff" stroke-miterlimit="10" stroke-width="1.5" opacity="0.3"/>
      <line id="Line_8" data-name="Line 8" x2="5.599" y2="5.599" transform="translate(615.255 552.213)" fill="none" stroke="#fff" stroke-linejoin="bevel" stroke-width="1.5"/>
      <line id="Line_9" data-name="Line 9" x1="5.599" y2="5.599" transform="translate(615.255 557.812)" fill="none" stroke="#fff" stroke-linecap="square" stroke-miterlimit="10" stroke-width="1.5"/>
      <line id="Line_10" data-name="Line 10" x2="698.527" transform="translate(0.386 63.235)" fill="none" stroke="#e6e6e6" stroke-miterlimit="10" stroke-width="0.75"/>
      <text id="Create_a_Network" data-name="Create a Network" transform="translate(84.769 39.02)" font-size="17" font-family="PlusJakartaDisplay-Medium, Plus Jakarta Display" font-weight="500"><tspan x="0" y="0">Crea</tspan><tspan y="0" letter-spacing="-0.01em">t</tspan><tspan y="0">e a Net</tspan><tspan y="0" letter-spacing="-0.01em">w</tspan><tspan y="0">ork</tspan></text>
      <rect id="Rectangle_13" data-name="Rectangle 13" width="30.667" height="3.222" rx="1" transform="translate(42.554 42.527)" fill="#329afc"/>
      <rect id="Rectangle_14" data-name="Rectangle 14" width="25.187" height="18.055" rx="1" transform="translate(44.987 22.92)" fill="none" stroke="#3399fe" stroke-miterlimit="10" stroke-width="2.5"/>
    </g>
  </g>
</svg>
