<svg xmlns="http://www.w3.org/2000/svg" xmlns:xlink="http://www.w3.org/1999/xlink" width="890" height="760" viewBox="0 0 890 760"      className="slideshow--item"
      id="slide3"
      active={active}
      previous={previous}>
  <defs>
    <filter id="Rectangle_15" x="123.69" y="39.52" width="643.03" height="694.96" filterUnits="userSpaceOnUse">
      <feOffset dy="7" input="SourceAlpha"/>
      <feGaussianBlur stdDeviation="9" result="blur"/>
      <feFlood flood-color="#121212" flood-opacity="0.157"/>
      <feComposite operator="in" in2="blur"/>
      <feComposite in="SourceGraphic"/>
    </filter>
  </defs>
  <g id="Install_Gateway-step-3" transform="translate(-1732 3681)">
    <rect id="Rectangle_40" data-name="Rectangle 40" width="890" height="760" rx="11" transform="translate(1732 -3681)" fill="#f5f5f5"/>
    <g id="Install_Gateway-step-3-2" data-name="Install_Gateway-step-3" transform="translate(1882.2 -3621.48)">
      <g transform="matrix(1, 0, 0, 1, -150.2, -59.52)" filter="url(#Rectangle_15)">
        <rect id="Rectangle_15-2" data-name="Rectangle 15" width="589.03" height="640.96" rx="10" transform="translate(150.69 59.52)" fill="#eaf1f8"/>
      </g>
      <rect id="Rectangle_16" data-name="Rectangle 16" width="589.15" height="100.74" rx="10" transform="translate(0.44 0.21)" fill="#252939"/>
      <path id="Path_13" data-name="Path 13" d="M930.75,256.9a2.7,2.7,0,0,1-.09-.57c0-.6.42-.9,1.27-.9a1.6,1.6,0,0,1,1,.32l3.8,12.36,4-12.42h1.53l4,12.42L949.63,257a2.579,2.579,0,0,1,.67-1.17,1.62,1.62,0,0,1,1.11-.37,1.45,1.45,0,0,1,1.17.51L947.13,272h-1.55l-4.06-11.94-4,11.94h-1.59Z" transform="translate(-674.4 -217.04)" fill="#fff"/>
      <path id="Path_14" data-name="Path 14" d="M956.21,252.63a1.91,1.91,0,0,1-.56-1.39,1.93,1.93,0,0,1,.56-1.4,2,2,0,0,1,2.75,0,1.93,1.93,0,0,1,.56,1.4,1.91,1.91,0,0,1-.56,1.39A2,2,0,0,1,956.21,252.63Zm.08,19.45V257.45a2.15,2.15,0,0,1,.44-1.43,1.53,1.53,0,0,1,1.27-.52,2.921,2.921,0,0,1,.88.12v14.64a2.17,2.17,0,0,1-.44,1.42,1.58,1.58,0,0,1-1.27.53,3,3,0,0,1-.89-.13Z" transform="translate(-674.4 -217.04)" fill="#fff"/>
      <path id="Path_15" data-name="Path 15" d="M964.27,272.08V257.45a2.2,2.2,0,0,1,.44-1.43,1.54,1.54,0,0,1,1.27-.52,2.88,2.88,0,0,1,.88.12V260a7.469,7.469,0,0,1,1.91-3.45,4.09,4.09,0,0,1,2.85-1.16c1.18,0,1.77.54,1.77,1.61a1.659,1.659,0,0,1-.63,1.4,2.29,2.29,0,0,0-1-.16,4,4,0,0,0-3.68,2.13q-1.26,2.13-1.26,6.9v3a2.129,2.129,0,0,1-.45,1.43,1.54,1.54,0,0,1-1.26.52A3,3,0,0,1,964.27,272.08Z" transform="translate(-674.4 -217.04)" fill="#fff"/>
      <path id="Path_16" data-name="Path 16" d="M978.3,271.38a6.809,6.809,0,0,1-2.6-2.95,11.43,11.43,0,0,1,0-9,7.23,7.23,0,0,1,2.6-3,7,7,0,0,1,3.84-1.07,6,6,0,0,1,4.86,2.13,8.83,8.83,0,0,1,1.76,5.78,2.13,2.13,0,0,1-.24,1.21,1.16,1.16,0,0,1-1,.33h-10.2a6,6,0,0,0,1.28,4,4.29,4.29,0,0,0,3.44,1.51,5.87,5.87,0,0,0,2.87-.71,5.58,5.58,0,0,0,2-1.85,1.38,1.38,0,0,1,1,1.44,2.11,2.11,0,0,1-.85,1.6,6.559,6.559,0,0,1-2.2,1.18,8.549,8.549,0,0,1-2.74.45,7.311,7.311,0,0,1-3.82-1.05Zm7.89-8.78a7,7,0,0,0-1-3.92,3.32,3.32,0,0,0-2.89-1.33,4.12,4.12,0,0,0-3.26,1.41,7.69,7.69,0,0,0-1.59,4.1Z" transform="translate(-674.4 -217.04)" fill="#fff"/>
      <path id="Path_17" data-name="Path 17" d="M990.82,256.9a2.2,2.2,0,0,1-.1-.57c0-.6.43-.9,1.27-.9a1.6,1.6,0,0,1,1,.32l3.81,12.36,4-12.42h1.52l4,12.42L1009.7,257a2.57,2.57,0,0,1,.66-1.17,1.65,1.65,0,0,1,1.11-.37,1.45,1.45,0,0,1,1.17.51L1007.2,272h-1.55l-4.06-11.94L997.53,272h-1.59Z" transform="translate(-674.4 -217.04)" fill="#fff"/>
      <path id="Path_18" data-name="Path 18" d="M1016.27,252.63a1.86,1.86,0,0,1-.55-1.39,1.88,1.88,0,0,1,.55-1.4,1.931,1.931,0,0,1,3.31,1.4,1.941,1.941,0,0,1-.55,1.39,2,2,0,0,1-2.76,0Zm.08,19.45V257.45a2.2,2.2,0,0,1,.44-1.43,1.54,1.54,0,0,1,1.27-.52,3,3,0,0,1,.89.12v14.64a2.12,2.12,0,0,1-.45,1.42,1.55,1.55,0,0,1-1.26.53,3,3,0,0,1-.89-.13Z" transform="translate(-674.4 -217.04)" fill="#fff"/>
      <path id="Path_19" data-name="Path 19" d="M1025.73,272a5.25,5.25,0,0,1-2.05-1.18,2.22,2.22,0,0,1-.74-1.57,1.08,1.08,0,0,1,.88-1.18,8,8,0,0,0,2.14,1.61,5.71,5.71,0,0,0,2.68.66,3.23,3.23,0,0,0,2.18-.68,2.29,2.29,0,0,0,.8-1.85,2.37,2.37,0,0,0-.76-1.77,7.629,7.629,0,0,0-2.67-1.31,10.24,10.24,0,0,1-3.88-2.06,4.2,4.2,0,0,1-1.12-3.09,3.59,3.59,0,0,1,1.48-3.25,6.6,6.6,0,0,1,3.72-1,7,7,0,0,1,3.82.93,2.69,2.69,0,0,1,1.44,2.27,1.1,1.1,0,0,1-.89,1.19,8,8,0,0,0-1.92-1.7,4.37,4.37,0,0,0-2.36-.64,3.45,3.45,0,0,0-2.07.59,1.84,1.84,0,0,0-.81,1.56,2.26,2.26,0,0,0,.83,1.79,9.059,9.059,0,0,0,2.85,1.41,9.591,9.591,0,0,1,3.78,2,4,4,0,0,1,1.1,2.91,4.23,4.23,0,0,1-1.56,3.59,6.419,6.419,0,0,1-4,1.18,8.63,8.63,0,0,1-2.87-.41Z" transform="translate(-674.4 -217.04)" fill="#fff"/>
      <path id="Path_20" data-name="Path 20" d="M1040.46,271.38a6.81,6.81,0,0,1-2.6-2.95,10.3,10.3,0,0,1-.92-4.48,10.473,10.473,0,0,1,.93-4.55,7.3,7.3,0,0,1,2.6-3,7,7,0,0,1,3.85-1.07,6,6,0,0,1,4.86,2.13,8.771,8.771,0,0,1,1.76,5.78,2.129,2.129,0,0,1-.24,1.21,1.13,1.13,0,0,1-1,.32h-10.2a6,6,0,0,0,1.28,4,4.3,4.3,0,0,0,3.44,1.5,5.72,5.72,0,0,0,2.86-.7,5.64,5.64,0,0,0,2.05-1.86,1.4,1.4,0,0,1,.95,1.44,2.11,2.11,0,0,1-.86,1.6,6.47,6.47,0,0,1-2.2,1.19,8.51,8.51,0,0,1-2.74.45A7.3,7.3,0,0,1,1040.46,271.38Zm7.88-8.78a7,7,0,0,0-1-3.92,3.3,3.3,0,0,0-2.88-1.33,4.15,4.15,0,0,0-3.27,1.41,7.61,7.61,0,0,0-1.58,4.1Z" transform="translate(-674.4 -217.04)" fill="#fff"/>
      <path id="Path_21" data-name="Path 21" d="M914.72,263.67l-7.29,12.65a7,7,0,0,1-1,1.33,6.45,6.45,0,0,1-10.13-1.35l-15.48-26.81a8.678,8.678,0,0,1,1.36-1.77,8.59,8.59,0,0,1,12.14,0,8.923,8.923,0,0,1,1.35,1.77l8.06,13.95a6.44,6.44,0,0,0,11,.23Z" transform="translate(-674.4 -217.04)" fill="#27c1bc" fill-rule="evenodd"/>
      <path id="Path_22" data-name="Path 22" d="M874.63,275.25a8.58,8.58,0,0,0,14.85,0L874,248.43a6.43,6.43,0,0,0-8.78-2.37,6.7,6.7,0,0,0-1.35,1h0l-9.4,9.41a6.44,6.44,0,0,1,9.1,0,6.682,6.682,0,0,1,1,1.34Z" transform="translate(-674.4 -217.04)" fill="#139bbf" fill-rule="evenodd"/>
      <path id="Path_23" data-name="Path 23" d="M912.39,245.2a7.51,7.51,0,1,0,5.31,2.2,7.51,7.51,0,0,0-5.31-2.2Z" transform="translate(-674.4 -217.04)" fill="#e55217" fill-rule="evenodd"/>
      <circle id="Ellipse_4" data-name="Ellipse 4" cx="7.67" cy="7.67" r="7.67" transform="translate(14.05 11.19)" fill="#ed1c24" opacity="0.9"/>
      <circle id="Ellipse_5" data-name="Ellipse 5" cx="7.67" cy="7.67" r="7.67" transform="translate(34.1 11.19)" fill="#fbb03b" opacity="0.9"/>
      <circle id="Ellipse_6" data-name="Ellipse 6" cx="7.67" cy="7.67" r="7.67" transform="translate(53.26 11.19)" fill="#22b573" opacity="0.9"/>
      <rect id="Rectangle_17" data-name="Rectangle 17" width="589.6" height="12" transform="translate(0 89.96)" fill="#eaf1f8"/>
      <text id="Gateway_IP" data-name="Gateway IP" transform="translate(105.53 175.56)" fill="#333" font-size="15" font-family="PlusJakartaDisplay-Regular, Plus Jakarta Display"><tspan x="0" y="0">Ga</tspan><tspan y="0" letter-spacing="-0.02em">t</tspan><tspan y="0">e</tspan><tspan y="0" letter-spacing="-0.02em">w</tspan><tspan y="0">ay IP</tspan></text>
      <text id="Install_Locally" data-name="Install Locally" transform="translate(130.53 494.56)" fill="#333" font-size="15" font-family="PlusJakartaDisplay-Regular, Plus Jakarta Display"><tspan x="0" y="0">Install Locally</tspan></text>
      <text id="Enter_Remote_Gateway_Information" data-name="Enter Remote Gateway Information" transform="translate(134.53 132.68)" font-size="18" font-family="PlusJakartaDisplay-Medium, Plus Jakarta Display" font-weight="500"><tspan x="0" y="0">En</tspan><tspan y="0" letter-spacing="-0.01em">t</tspan><tspan y="0">er </tspan><tspan y="0" letter-spacing="-0.03em">R</tspan><tspan y="0">em</tspan><tspan y="0" letter-spacing="-0.01em">ot</tspan><tspan y="0">e Ga</tspan><tspan y="0" letter-spacing="-0.01em">t</tspan><tspan y="0">e</tspan><tspan y="0" letter-spacing="-0.02em">w</tspan><tspan y="0">ay In</tspan><tspan y="0" letter-spacing="-0.02em">f</tspan><tspan y="0">ormation</tspan></text>
      <path id="Path_24" data-name="Path 24" d="M112.43,182H476.79a7.63,7.63,0,0,1,7.63,7.63V220a7.63,7.63,0,0,1-7.62,7.63H112.43A7.63,7.63,0,0,1,104.8,220V189.59a7.62,7.62,0,0,1,7.63-7.59Z" fill="#fff"/>
      <path id="Path_25" data-name="Path 25" d="M1151.2,399.38a7.26,7.26,0,0,1,7.25,7.25V437a7.26,7.26,0,0,1-7.25,7.25H786.83a7.26,7.26,0,0,1-7.25-7.25V406.63a7.26,7.26,0,0,1,7.25-7.25H1151.2m0-.75H786.83a8,8,0,0,0-8,8V437a8,8,0,0,0,8,8H1151.2a8,8,0,0,0,8-8V406.63A8,8,0,0,0,1151.2,398.63Z" transform="translate(-674.4 -217.04)" fill="#e6e6e6"/>
      <path id="Path_26" data-name="Path 26" d="M112.43,260H476.79a7.63,7.63,0,0,1,7.63,7.63V298a7.63,7.63,0,0,1-7.62,7.63H112.43A7.63,7.63,0,0,1,104.8,298V267.59A7.62,7.62,0,0,1,112.43,260Z" fill="#fff"/>
      <path id="Path_27" data-name="Path 27" d="M1151.2,477.38a7.26,7.26,0,0,1,7.25,7.25V515a7.26,7.26,0,0,1-7.25,7.25H786.83a7.26,7.26,0,0,1-7.25-7.25V484.63a7.26,7.26,0,0,1,7.25-7.25H1151.2m0-.75H786.83a8,8,0,0,0-8,8V515a8,8,0,0,0,8,8H1151.2a8,8,0,0,0,8-8V484.63A8,8,0,0,0,1151.2,476.63Z" transform="translate(-674.4 -217.04)" fill="#e6e6e6"/>
      <text id="Username" transform="translate(105.53 254.56)" fill="#333" font-size="15" font-family="PlusJakartaDisplay-Regular, Plus Jakarta Display"><tspan x="0" y="0">Username</tspan></text>
      <text id="Password" transform="translate(105.53 331.56)" fill="#333" font-size="15" font-family="PlusJakartaDisplay-Regular, Plus Jakarta Display"><tspan x="0" y="0" letter-spacing="-0.03em">P</tspan><tspan y="0">ass</tspan><tspan y="0" letter-spacing="-0.01em">w</tspan><tspan y="0">ord</tspan></text>
      <rect id="Rectangle_18" data-name="Rectangle 18" width="379.62" height="45.66" rx="7.63" transform="translate(104.8 337.96)" fill="#fff"/>
      <path id="Path_28" data-name="Path 28" d="M1151.2,555.38a7.26,7.26,0,0,1,7.25,7.25V593a7.26,7.26,0,0,1-7.25,7.25H786.83a7.26,7.26,0,0,1-7.25-7.25V562.63a7.26,7.26,0,0,1,7.25-7.25H1151.2m0-.75H786.83a8,8,0,0,0-8,8V593a8,8,0,0,0,8,8H1151.2a8,8,0,0,0,8-8V562.63A8,8,0,0,0,1151.2,554.63Z" transform="translate(-674.4 -217.04)" fill="#e6e6e6"/>
      <rect id="Rectangle_19" data-name="Rectangle 19" width="379.62" height="45.66" rx="7.63" transform="translate(104.8 415.96)" fill="#fff"/>
      <path id="Path_29" data-name="Path 29" d="M1151.2,633.38a7.26,7.26,0,0,1,7.25,7.25V671a7.26,7.26,0,0,1-7.25,7.25H786.83a7.26,7.26,0,0,1-7.25-7.25V640.63a7.26,7.26,0,0,1,7.25-7.25H1151.2m0-.75H786.83a8,8,0,0,0-8,8V671a8,8,0,0,0,8,8H1151.2a8,8,0,0,0,8-8V640.63A8,8,0,0,0,1151.2,632.63Z" transform="translate(-674.4 -217.04)" fill="#e6e6e6"/>
      <text id="API_Path" data-name="API Path" transform="translate(105.53 410.56)" fill="#333" font-size="15" font-family="PlusJakartaDisplay-Regular, Plus Jakarta Display"><tspan x="0" y="0">API </tspan><tspan y="0" letter-spacing="-0.03em">P</tspan><tspan y="0">ath</tspan></text>
      <rect id="Rectangle_20" data-name="Rectangle 20" width="380.1" height="45.37" rx="8" transform="translate(104.49 535.63)" fill="#252939"/>
      <text id="Install_Gateway" data-name="Install Gateway" transform="translate(235.82 563.4)" fill="#fff" font-size="16" font-family="PlusJakartaDisplay-Medium, Plus Jakarta Display" font-weight="500"><tspan x="0" y="0">Install Ga</tspan><tspan y="0" letter-spacing="-0.01em">t</tspan><tspan y="0">e</tspan><tspan y="0" letter-spacing="-0.02em">w</tspan><tspan y="0">ay</tspan></text>
      <rect id="Rectangle_21" data-name="Rectangle 21" width="17.61" height="17.63" rx="3.63" transform="translate(104.61 480.37)" fill="#fff"/>
      <path id="Path_30" data-name="Path 30" d="M793,697.79a3.26,3.26,0,0,1,3.25,3.25v10.38a3.26,3.26,0,0,1-3.25,3.25H782.64a3.26,3.26,0,0,1-3.25-3.25V701a3.26,3.26,0,0,1,3.25-3.25H793m0-.75H782.64a4,4,0,0,0-4,4v10.38a4,4,0,0,0,4,4H793a4,4,0,0,0,4-4V701A4,4,0,0,0,793,697Z" transform="translate(-674.4 -217.04)" fill="#e6e6e6"/>
    </g>
  </g>
</svg>
