<svg xmlns="http://www.w3.org/2000/svg" xmlns:xlink="http://www.w3.org/1999/xlink" width="890" height="760" viewBox="0 0 890 760">
  <defs>
    <filter id="Rectangle_22" x="23.08" y="49.055" width="843.84" height="675.89" filterUnits="userSpaceOnUse">
      <feOffset dy="7" input="SourceAlpha"/>
      <feGaussianBlur stdDeviation="9" result="blur"/>
      <feFlood flood-color="#121212" flood-opacity="0.161"/>
      <feComposite operator="in" in2="blur"/>
      <feComposite in="SourceGraphic"/>
    </filter>
  </defs>
  <g id="Register-step-1" transform="translate(180 3681)">
    <rect id="Rectangle_38" data-name="Rectangle 38" width="890" height="760" rx="11" transform="translate(-180 -3681)" fill="#f5f5f5"/>
    <g id="Register-step-1-2" data-name="Register-step-1" transform="translate(-129.92 -3611.945)">
      <g transform="matrix(1, 0, 0, 1, -50.08, -69.05)" filter="url(#Rectangle_22)">
        <rect id="Rectangle_22-2" data-name="Rectangle 22" width="789.84" height="621.89" rx="10" transform="translate(50.08 69.05)" fill="#fff"/>
      </g>
      <text id="First_Name" data-name="First Name" transform="translate(55.35 192.34)" fill="#333" font-size="16" font-family="PlusJakartaDisplay-Regular, Plus Jakarta Display"><tspan x="0" y="0">First Name</tspan></text>
      <text id="Please_enter_your_first_name" data-name="Please enter your first name" transform="translate(55.35 274.6)" fill="#b3b3b3" font-size="14" font-family="PlusJakartaDisplay-Regular, Plus Jakarta Display"><tspan x="0" y="0">Please en</tspan><tspan y="0" letter-spacing="-0.02em">t</tspan><tspan y="0">er </tspan><tspan y="0" letter-spacing="-0.01em">y</tspan><tspan y="0">our first name</tspan></text>
      <text id="Please_enter_your_first_name-2" data-name="Please enter your first name" transform="translate(404.35 274.6)" fill="#b3b3b3" font-size="14" font-family="PlusJakartaDisplay-Regular, Plus Jakarta Display"><tspan x="0" y="0">Please en</tspan><tspan y="0" letter-spacing="-0.02em">t</tspan><tspan y="0">er </tspan><tspan y="0" letter-spacing="-0.01em">y</tspan><tspan y="0">our first name</tspan></text>
      <text id="Please_enter_your_company_name" data-name="Please enter your company name" transform="translate(55.35 390.6)" fill="#b3b3b3" font-size="14" font-family="PlusJakartaDisplay-Regular, Plus Jakarta Display"><tspan x="0" y="0">Please en</tspan><tspan y="0" letter-spacing="-0.02em">t</tspan><tspan y="0">er </tspan><tspan y="0" letter-spacing="-0.01em">y</tspan><tspan y="0">our compa</tspan><tspan y="0" letter-spacing="-0.01em">n</tspan><tspan y="0">y name</tspan></text>
      <text id="Please_enter_your_short_name" data-name="Please enter your short name" transform="translate(56.59 507.6)" fill="#b3b3b3" font-size="14" font-family="PlusJakartaDisplay-Regular, Plus Jakarta Display"><tspan x="0" y="0">Please en</tspan><tspan y="0" letter-spacing="-0.02em">t</tspan><tspan y="0">er </tspan><tspan y="0" letter-spacing="-0.01em">y</tspan><tspan y="0">our short name</tspan></text>
      <text id="Set_Up_Your_Workspace" data-name="Set Up Your Workspace" transform="translate(56.35 143.09)" font-size="18" font-family="PlusJakartaDisplay-Medium, Plus Jakarta Display" font-weight="500"><tspan x="0" y="0">Set Up </tspan><tspan y="0" letter-spacing="-0.11em">Y</tspan><tspan y="0">our </tspan><tspan y="0" letter-spacing="-0.03em">W</tspan><tspan y="0">orkspace</tspan></text>
      <rect id="Rectangle_23" data-name="Rectangle 23" width="323.15" height="53.89" rx="6" transform="translate(55.12 204)" fill="#f4f6fa"/>
      <text id="Last_Name" data-name="Last Name" transform="translate(404.35 192.34)" fill="#333" font-size="16" font-family="PlusJakartaDisplay-Regular, Plus Jakarta Display"><tspan x="0" y="0">Last Name</tspan></text>
      <rect id="Rectangle_24" data-name="Rectangle 24" width="323.15" height="53.89" rx="6" transform="translate(403.97 204)" fill="#f4f6fa"/>
      <text id="Workspace_Name" data-name="Workspace Name" transform="translate(56.35 308.34)" fill="#333" font-size="16" font-family="PlusJakartaDisplay-Regular, Plus Jakarta Display"><tspan x="0" y="0" letter-spacing="-0.03em">W</tspan><tspan y="0">orkspace Name</tspan></text>
      <rect id="Rectangle_25" data-name="Rectangle 25" width="671.87" height="54.02" rx="6" transform="translate(55.24 319.87)" fill="#f4f6fa"/>
      <text id="Workspace_URL" data-name="Workspace URL" transform="translate(56.35 425.34)" fill="#333" font-size="16" font-family="PlusJakartaDisplay-Regular, Plus Jakarta Display"><tspan x="0" y="0" letter-spacing="-0.03em">W</tspan><tspan y="0">orkspace URL</tspan></text>
      <rect id="Rectangle_26" data-name="Rectangle 26" width="671.87" height="54.15" rx="6" transform="translate(55.24 436.74)" fill="#f4f6fa"/>
      <rect id="Rectangle_27" data-name="Rectangle 27" width="182" height="43" rx="5" transform="translate(539.12 441.89)" fill="#e3e5e8"/>
      <text id="_.wirewise.com" data-name=".wirewise.com" transform="translate(579.2 468.97)" fill="#333" font-size="15" font-family="PlusJakartaDisplay-Regular, Plus Jakarta Display"><tspan x="0" y="0">.wirewise.com</tspan></text>
      <path id="Path_31" data-name="Path 31" d="M923.71,280a1.9,1.9,0,0,1-.09-.58c0-.59.42-.89,1.26-.89a1.57,1.57,0,0,1,1,.32l3.8,12.36,4-12.43h1.52l4,12.43L942.59,280a2.6,2.6,0,0,1,.67-1.17,1.619,1.619,0,0,1,1.11-.37,1.47,1.47,0,0,1,1.17.51l-5.45,16.08h-1.56l-4-11.94-4.06,11.94h-1.58Z" transform="translate(-565.88 -231.11)"/>
      <path id="Path_32" data-name="Path 32" d="M949.16,275.67a1.959,1.959,0,1,1,2.76,0A2,2,0,0,1,949.16,275.67Zm.08,19.46V280.49a2.169,2.169,0,0,1,.44-1.42,1.55,1.55,0,0,1,1.27-.53,3,3,0,0,1,.89.13V293.3a2.15,2.15,0,0,1-.45,1.43,1.54,1.54,0,0,1-1.26.52,3,3,0,0,1-.89-.12Z" transform="translate(-565.88 -231.11)"/>
      <path id="Path_33" data-name="Path 33" d="M957.22,295.13V280.49a2.12,2.12,0,0,1,.45-1.42,1.53,1.53,0,0,1,1.26-.53,3,3,0,0,1,.89.13v4.39a7.541,7.541,0,0,1,1.9-3.46,4.07,4.07,0,0,1,2.85-1.15c1.19,0,1.78.53,1.78,1.6a1.66,1.66,0,0,1-.63,1.41,2.19,2.19,0,0,0-1-.16,4,4,0,0,0-3.67,2.13c-.84,1.42-1.27,3.72-1.27,6.9v3a2.17,2.17,0,0,1-.44,1.42,1.54,1.54,0,0,1-1.26.52A3,3,0,0,1,957.22,295.13Z" transform="translate(-565.88 -231.11)"/>
      <path id="Path_34" data-name="Path 34" d="M971.26,294.42a6.79,6.79,0,0,1-2.6-2.94,10.34,10.34,0,0,1-.92-4.49,10.5,10.5,0,0,1,.93-4.55,7.211,7.211,0,0,1,2.6-3,6.9,6.9,0,0,1,3.85-1.07,6,6,0,0,1,4.86,2.13,8.851,8.851,0,0,1,1.76,5.77,2.17,2.17,0,0,1-.24,1.22,1.16,1.16,0,0,1-1,.32H970.3a6.06,6.06,0,0,0,1.28,4,4.3,4.3,0,0,0,3.44,1.5,5.86,5.86,0,0,0,2.87-.7,5.69,5.69,0,0,0,2-1.86,1.4,1.4,0,0,1,.95,1.44,2.11,2.11,0,0,1-.86,1.6,6.468,6.468,0,0,1-2.2,1.19,8.789,8.789,0,0,1-2.74.45,7.3,7.3,0,0,1-3.78-1.01Zm7.89-8.77a7.159,7.159,0,0,0-1-3.93,3.28,3.28,0,0,0-2.88-1.32,4.14,4.14,0,0,0-3.26,1.4,7.529,7.529,0,0,0-1.59,4.1Z" transform="translate(-565.88 -231.11)"/>
      <path id="Path_35" data-name="Path 35" d="M983.77,280a2.8,2.8,0,0,1-.09-.58c0-.59.42-.89,1.27-.89a1.54,1.54,0,0,1,1,.32l3.8,12.36,4-12.43h1.52l4,12.43,3.33-11.15a2.59,2.59,0,0,1,.66-1.17,1.65,1.65,0,0,1,1.11-.37,1.45,1.45,0,0,1,1.17.51l-5.45,16.08H998.6l-4.05-11.94-4.06,11.94H988.9Z" transform="translate(-565.88 -231.11)"/>
      <path id="Path_36" data-name="Path 36" d="M1009.23,275.67a1.955,1.955,0,1,1,2.75,0A2,2,0,0,1,1009.23,275.67Zm.08,19.46V280.49a2.12,2.12,0,0,1,.44-1.42,1.55,1.55,0,0,1,1.27-.53,2.891,2.891,0,0,1,.88.13V293.3a2.15,2.15,0,0,1-.44,1.43,1.57,1.57,0,0,1-1.27.52,2.919,2.919,0,0,1-.88-.12Z" transform="translate(-565.88 -231.11)"/>
      <path id="Path_37" data-name="Path 37" d="M1018.68,295a5.419,5.419,0,0,1-2-1.19,2.18,2.18,0,0,1-.75-1.57,1.09,1.09,0,0,1,.89-1.18,7.9,7.9,0,0,0,2.14,1.62,5.64,5.64,0,0,0,2.67.65,3.28,3.28,0,0,0,2.19-.67,2.31,2.31,0,0,0,.79-1.86,2.28,2.28,0,0,0-.76-1.76,7.23,7.23,0,0,0-2.66-1.31,10,10,0,0,1-3.88-2.07,4.2,4.2,0,0,1-1.12-3.09,3.62,3.62,0,0,1,1.47-3.25,6.62,6.62,0,0,1,3.72-1,7,7,0,0,1,3.82.93,2.69,2.69,0,0,1,1.44,2.28,1.09,1.09,0,0,1-.88,1.18,8.651,8.651,0,0,0-1.92-1.7,4.46,4.46,0,0,0-2.36-.64,3.4,3.4,0,0,0-2.08.6,1.84,1.84,0,0,0-.8,1.55,2.25,2.25,0,0,0,.82,1.79,9.3,9.3,0,0,0,2.85,1.41,9.57,9.57,0,0,1,3.79,2,4,4,0,0,1,1.09,2.91,4.23,4.23,0,0,1-1.55,3.59,6.46,6.46,0,0,1-4,1.18,8.681,8.681,0,0,1-2.92-.4Z" transform="translate(-565.88 -231.11)"/>
      <path id="Path_38" data-name="Path 38" d="M1033.41,294.42a6.85,6.85,0,0,1-2.6-2.94,10.339,10.339,0,0,1-.91-4.49,10.5,10.5,0,0,1,.93-4.55,7.139,7.139,0,0,1,2.6-3,6.9,6.9,0,0,1,3.85-1.07,6,6,0,0,1,4.86,2.13,8.8,8.8,0,0,1,1.76,5.77,2.17,2.17,0,0,1-.24,1.22,1.17,1.17,0,0,1-1,.32h-10.2a6,6,0,0,0,1.29,4,4.26,4.26,0,0,0,3.43,1.51,5.87,5.87,0,0,0,2.87-.71,5.669,5.669,0,0,0,2-1.85,1.38,1.38,0,0,1,1,1.44,2.11,2.11,0,0,1-.85,1.6,6.458,6.458,0,0,1-2.2,1.2,8.549,8.549,0,0,1-2.74.45,7.31,7.31,0,0,1-3.85-1.03Zm7.89-8.77a7.081,7.081,0,0,0-1-3.93,3.31,3.31,0,0,0-2.89-1.32,4.16,4.16,0,0,0-3.26,1.4,7.69,7.69,0,0,0-1.59,4.1Z" transform="translate(-565.88 -231.11)"/>
      <path id="Path_39" data-name="Path 39" d="M907.68,286.72l-7.3,12.64a6.315,6.315,0,0,1-1,1.33,6.44,6.44,0,0,1-9.1,0,6.679,6.679,0,0,1-1-1.34L873.8,272.54a8.4,8.4,0,0,1,1.36-1.78,8.58,8.58,0,0,1,12.13,0,8.341,8.341,0,0,1,1.36,1.77l8.06,13.95a6.43,6.43,0,0,0,11,.23Z" transform="translate(-565.88 -231.11)" fill="#27c1bc" fill-rule="evenodd"/>
      <path id="Path_40" data-name="Path 40" d="M867.58,298.29a8.59,8.59,0,0,0,14.86,0L867,271.48a6.44,6.44,0,0,0-8.79-2.38,6.731,6.731,0,0,0-1.34,1h0l-9.4,9.4a6.43,6.43,0,0,1,9.1,0,7,7,0,0,1,1,1.33Z" transform="translate(-565.88 -231.11)" fill="#139bbf" fill-rule="evenodd"/>
      <path id="Path_41" data-name="Path 41" d="M905.35,268.25a7.5,7.5,0,1,0,7.51,7.5,7.59,7.59,0,0,0-2.2-5.31,7.46,7.46,0,0,0-5.31-2.19Z" transform="translate(-565.88 -231.11)" fill="#e55217" fill-rule="evenodd"/>
      <rect id="Rectangle_28" data-name="Rectangle 28" width="127" height="50.84" rx="6" transform="translate(600.19 525.05)" fill="#3399fe"/>
      <text id="Next" transform="translate(632.19 555.81)" fill="#fff" font-size="16" font-family="PlusJakartaDisplay-Medium, Plus Jakarta Display" font-weight="500"><tspan x="0" y="0">N</tspan><tspan y="0" letter-spacing="-0.01em">e</tspan><tspan y="0">xt</tspan></text>
      <line id="Line_11" data-name="Line 11" x1="13.06" transform="translate(682.88 549.7)" fill="none" stroke="#fff" stroke-miterlimit="10" stroke-width="1.5" opacity="0.3"/>
      <line id="Line_12" data-name="Line 12" x2="6.1" y2="6.1" transform="translate(690.28 543.6)" fill="none" stroke="#fff" stroke-linejoin="bevel" stroke-width="1.5"/>
      <line id="Line_13" data-name="Line 13" x1="6.1" y2="6.1" transform="translate(690.28 549.7)" fill="none" stroke="#fff" stroke-linecap="square" stroke-miterlimit="10" stroke-width="1.5"/>
      <line id="Line_14" data-name="Line 14" x2="671" transform="translate(56.12 99.89)" fill="none" stroke="#e6e6e6" stroke-miterlimit="10" stroke-width="1"/>
    </g>
  </g>
</svg>
