<svg
  xmlns="http://www.w3.org/2000/svg"
  xmlns:xlink="http://www.w3.org/1999/xlink"
  viewBox="0 0 889 760"
>
  <defs>
    <style>
      .cls-1 {
        isolation: isolate;
      }
      .cls-2 {
        fill: #f5f5f5;
      }
      .cls-3 {
        mix-blend-mode: multiply;
        opacity: 0.08;
      }
      .cls-22,
      .cls-4 {
        fill: #fff;
      }

      .cls-4 {
          filter: drop-shadow( 0px 0px 25px rgba(0,0,0,.15));
      }
      .cls-22,
      .cls-5 {
        font-size: 16px;
      }
      .cls-17,
      .cls-5 {
        fill: #333;
      }
      .cls-17,
      .cls-5,
      .cls-6 {
        font-family: PlusJakartaDisplay-Regular, Plus Jakarta Display;
      }
      .cls-6 {
        font-size: 14px;
        fill: #b3b3b3;
      }
      .cls-7 {
        letter-spacing: -0.02em;
      }
      .cls-8 {
        letter-spacing: -0.01em;
      }
      .cls-9 {
        letter-spacing: -0.01em;
      }
      .cls-10 {
        letter-spacing: 0em;
      }
      .cls-11 {
        font-size: 18px;
      }
      .cls-11,
      .cls-22 {
        font-family: PlusJakartaDisplay-Medium, Plus Jakarta Display;
        font-weight: 500;
      }
      .cls-12 {
        letter-spacing: -0.11em;
      }
      .cls-13 {
        letter-spacing: -0.03em;
      }
      .cls-14 {
        fill: #f4f6fa;
      }
      .cls-15 {
        letter-spacing: -0.03em;
      }
      .cls-16 {
        fill: #e3e5e8;
      }
      .cls-17 {
        font-size: 15px;
      }
      .cls-18 {
        fill: #27c1bc;
      }
      .cls-18,
      .cls-19,
      .cls-20 {
        fill-rule: evenodd;
      }
      .cls-19 {
        fill: #139bbf;
      }
      .cls-20 {
        fill: #e55217;
      }
      .cls-21 {
        fill: #3399fe;
      }
      .cls-23 {
        letter-spacing: -0.01em;
      }
      .cls-24,
      .cls-25,
      .cls-26,
      .cls-27 {
        fill: none;
      }
      .cls-24,
      .cls-25,
      .cls-26 {
        stroke: #fff;
        stroke-width: 1.5px;
      }
      .cls-24,
      .cls-26,
      .cls-27 {
        stroke-miterlimit: 10;
      }
      .cls-24 {
        opacity: 0.3;
      }
      .cls-25 {
        stroke-linejoin: bevel;
      }
      .cls-26 {
        stroke-linecap: square;
      }
      .cls-27 {
        stroke: #e6e6e6;
      }
    </style>
  </defs>
  <g class="cls-1">
    <g id="Layer_1" data-name="Layer 1">
      <rect class="cls-2" width="889" height="760" rx="10" />
      <rect
        class="cls-4"
        x="50.88"
        y="71.11"
        width="789.84"
        height="621.89"
        rx="10"
      />
      <text class="cls-5" transform="translate(106.23 263.46) scale(1.02 1)">
        First Name
      </text>
      <text class="cls-6" transform="translate(106.23 345.71) scale(1.02 1)">
        Please en
        <tspan class="cls-7" x="59.93" y="0">t</tspan>
        <tspan x="64.99" y="0">er</tspan>
        <tspan class="cls-8" x="80.39" y="0">y</tspan>
        <tspan x="88.03" y="0">our first name</tspan>
      </text>
      <text class="cls-6" transform="translate(455.23 345.71) scale(1.02 1)">
        Please en
        <tspan class="cls-7" x="59.93" y="0">t</tspan>
        <tspan x="64.99" y="0">er</tspan>
        <tspan class="cls-8" x="80.39" y="0">y</tspan>
        <tspan x="88.03" y="0">our first name</tspan>
      </text>
      <text class="cls-6" transform="translate(106.23 461.71) scale(1.02 1)">
        Please en
        <tspan class="cls-7" x="59.93" y="0">t</tspan>
        <tspan x="64.99" y="0">er</tspan>
        <tspan class="cls-8" x="80.39" y="0">y</tspan>
        <tspan x="88.03" y="0">our compa</tspan>
        <tspan class="cls-9" x="156.96" y="0">n</tspan>
        <tspan x="164.62" y="0">y name</tspan>
      </text>
      <text class="cls-6" transform="translate(107.47 578.71) scale(1.02 1)">
        Please en
        <tspan class="cls-7" x="59.93" y="0">t</tspan>
        <tspan x="64.99" y="0">er</tspan>
        <tspan class="cls-8" x="80.39" y="0">y</tspan>
        <tspan x="88.03" y="0">our sho</tspan>
        <tspan class="cls-10" x="135" y="0">r</tspan>
        <tspan x="140.11" y="0">t name</tspan>
      </text>
      <text class="cls-11" transform="translate(107.23 214.2) scale(1.02 1)">
        Set Up
        <tspan class="cls-12" x="59.74" y="0">Y</tspan>
        <tspan x="69.59" y="0">our</tspan>
        <tspan class="cls-13" x="101.2" y="0">W</tspan>
        <tspan x="119.32" y="0">orkspace</tspan>
      </text>
      <rect
        class="cls-14"
        x="106"
        y="275.11"
        width="323.15"
        height="53.89"
        rx="6"
      />
      <text class="cls-5" transform="translate(455.23 263.46) scale(1.02 1)">
        Last Name
      </text>
      <rect
        class="cls-14"
        x="454.85"
        y="275.11"
        width="323.15"
        height="53.89"
        rx="6"
      />
      <text class="cls-5" transform="translate(107.23 379.46) scale(1.02 1)">
        <tspan class="cls-15">W</tspan>
        <tspan x="16.06" y="0">orkspace Name</tspan>
      </text>
      <rect
        class="cls-14"
        x="106.13"
        y="390.98"
        width="671.87"
        height="54.02"
        rx="6"
      />
      <text class="cls-5" transform="translate(107.23 496.46) scale(1.02 1)">
        <tspan class="cls-15">W</tspan>
        <tspan x="16.06" y="0">orkspace URL</tspan>
      </text>
      <rect
        class="cls-14"
        x="106.13"
        y="507.85"
        width="671.87"
        height="54.15"
        rx="6"
      />
      <rect class="cls-16" x="590" y="513" width="182" height="43" rx="5" />
      <text class="cls-17" transform="translate(630.08 540.08) scale(1.02 1)">
        .wirewise.com
      </text>
      <path
        d="M923.71,280a1.9,1.9,0,0,1-.09-.58c0-.59.42-.89,1.26-.89a1.57,1.57,0,0,1,1,.32l3.8,12.36,4-12.43h1.52l4,12.43L942.59,280a2.6,2.6,0,0,1,.67-1.17,1.62,1.62,0,0,1,1.11-.37,1.47,1.47,0,0,1,1.17.51l-5.45,16.08h-1.56l-4-11.94-4.06,11.94h-1.58Z"
        transform="translate(-515 -160)"
      />
      <path
        d="M949.16,275.67a2,2,0,0,1,0-2.78,2,2,0,0,1,2.76,0,2,2,0,0,1,0,2.78A2,2,0,0,1,949.16,275.67Zm.08,19.46V280.49a2.17,2.17,0,0,1,.44-1.42,1.55,1.55,0,0,1,1.27-.53,3,3,0,0,1,.89.13V293.3a2.15,2.15,0,0,1-.45,1.43,1.54,1.54,0,0,1-1.26.52,3,3,0,0,1-.89-.12Z"
        transform="translate(-515 -160)"
      />
      <path
        d="M957.22,295.13V280.49a2.12,2.12,0,0,1,.45-1.42,1.53,1.53,0,0,1,1.26-.53,3,3,0,0,1,.89.13v4.39a7.54,7.54,0,0,1,1.9-3.46,4.07,4.07,0,0,1,2.85-1.15c1.19,0,1.78.53,1.78,1.6a1.66,1.66,0,0,1-.63,1.41,2.19,2.19,0,0,0-1-.16,4,4,0,0,0-3.67,2.13c-.84,1.42-1.27,3.72-1.27,6.9v3a2.17,2.17,0,0,1-.44,1.42,1.54,1.54,0,0,1-1.26.52A3,3,0,0,1,957.22,295.13Z"
        transform="translate(-515 -160)"
      />
      <path
        d="M971.26,294.42a6.79,6.79,0,0,1-2.6-2.94,10.34,10.34,0,0,1-.92-4.49,10.5,10.5,0,0,1,.93-4.55,7.21,7.21,0,0,1,2.6-3,6.9,6.9,0,0,1,3.85-1.07,6,6,0,0,1,4.86,2.13,8.85,8.85,0,0,1,1.76,5.77,2.17,2.17,0,0,1-.24,1.22,1.16,1.16,0,0,1-1,.32h-10.2a6.06,6.06,0,0,0,1.28,4,4.3,4.3,0,0,0,3.44,1.5,5.86,5.86,0,0,0,2.87-.7,5.69,5.69,0,0,0,2-1.86,1.4,1.4,0,0,1,.95,1.44,2.11,2.11,0,0,1-.86,1.6,6.47,6.47,0,0,1-2.2,1.19,8.79,8.79,0,0,1-2.74.45A7.3,7.3,0,0,1,971.26,294.42Zm7.89-8.77a7.16,7.16,0,0,0-1-3.93,3.28,3.28,0,0,0-2.88-1.32,4.14,4.14,0,0,0-3.26,1.4,7.53,7.53,0,0,0-1.59,4.1Z"
        transform="translate(-515 -160)"
      />
      <path
        d="M983.77,280a2.8,2.8,0,0,1-.09-.58c0-.59.42-.89,1.27-.89a1.54,1.54,0,0,1,1,.32l3.8,12.36,4-12.43h1.52l4,12.43,3.33-11.15a2.59,2.59,0,0,1,.66-1.17,1.65,1.65,0,0,1,1.11-.37,1.45,1.45,0,0,1,1.17.51l-5.45,16.08H998.6l-4.05-11.94-4.06,11.94H988.9Z"
        transform="translate(-515 -160)"
      />
      <path
        d="M1009.23,275.67a2,2,0,0,1,0-2.78,2,2,0,0,1,2.75,0,2,2,0,0,1,0,2.78A2,2,0,0,1,1009.23,275.67Zm.08,19.46V280.49a2.12,2.12,0,0,1,.44-1.42,1.55,1.55,0,0,1,1.27-.53,2.89,2.89,0,0,1,.88.13V293.3a2.15,2.15,0,0,1-.44,1.43,1.57,1.57,0,0,1-1.27.52,2.92,2.92,0,0,1-.88-.12Z"
        transform="translate(-515 -160)"
      />
      <path
        d="M1018.68,295a5.42,5.42,0,0,1-2-1.19,2.18,2.18,0,0,1-.75-1.57,1.09,1.09,0,0,1,.89-1.18,7.9,7.9,0,0,0,2.14,1.62,5.64,5.64,0,0,0,2.67.65,3.28,3.28,0,0,0,2.19-.67,2.31,2.31,0,0,0,.79-1.86,2.28,2.28,0,0,0-.76-1.76,7.23,7.23,0,0,0-2.66-1.31,10,10,0,0,1-3.88-2.07,4.2,4.2,0,0,1-1.12-3.09,3.62,3.62,0,0,1,1.47-3.25,6.62,6.62,0,0,1,3.72-1,7,7,0,0,1,3.82.93,2.69,2.69,0,0,1,1.44,2.28,1.09,1.09,0,0,1-.88,1.18,8.65,8.65,0,0,0-1.92-1.7,4.46,4.46,0,0,0-2.36-.64,3.4,3.4,0,0,0-2.08.6,1.84,1.84,0,0,0-.8,1.55,2.25,2.25,0,0,0,.82,1.79,9.3,9.3,0,0,0,2.85,1.41,9.57,9.57,0,0,1,3.79,2,4,4,0,0,1,1.09,2.91,4.23,4.23,0,0,1-1.55,3.59,6.46,6.46,0,0,1-4,1.18A8.68,8.68,0,0,1,1018.68,295Z"
        transform="translate(-515 -160)"
      />
      <path
        d="M1033.41,294.42a6.85,6.85,0,0,1-2.6-2.94,10.34,10.34,0,0,1-.91-4.49,10.5,10.5,0,0,1,.93-4.55,7.14,7.14,0,0,1,2.6-3,6.9,6.9,0,0,1,3.85-1.07,6,6,0,0,1,4.86,2.13,8.8,8.8,0,0,1,1.76,5.77,2.17,2.17,0,0,1-.24,1.22,1.17,1.17,0,0,1-1,.32h-10.2a6,6,0,0,0,1.29,4,4.26,4.26,0,0,0,3.43,1.51,5.87,5.87,0,0,0,2.87-.71,5.67,5.67,0,0,0,2-1.85,1.38,1.38,0,0,1,1,1.44,2.11,2.11,0,0,1-.85,1.6A6.46,6.46,0,0,1,1040,295a8.55,8.55,0,0,1-2.74.45A7.31,7.31,0,0,1,1033.41,294.42Zm7.89-8.77a7.08,7.08,0,0,0-1-3.93,3.31,3.31,0,0,0-2.89-1.32,4.16,4.16,0,0,0-3.26,1.4,7.69,7.69,0,0,0-1.59,4.1Z"
        transform="translate(-515 -160)"
      />
      <path
        class="cls-18"
        d="M907.68,286.72l-7.3,12.64a6.32,6.32,0,0,1-1,1.33,6.44,6.44,0,0,1-9.1,0,6.68,6.68,0,0,1-1-1.34l-15.48-26.81a8.4,8.4,0,0,1,1.36-1.78,8.58,8.58,0,0,1,12.13,0,8.34,8.34,0,0,1,1.36,1.77l8.06,13.95a6.43,6.43,0,0,0,11,.23Z"
        transform="translate(-515 -160)"
      />
      <path
        class="cls-19"
        d="M867.58,298.29a8.59,8.59,0,0,0,14.86,0L867,271.48a6.44,6.44,0,0,0-8.79-2.38,6.73,6.73,0,0,0-1.34,1l0,0-9.4,9.4a6.43,6.43,0,0,1,9.1,0,7,7,0,0,1,1,1.33Z"
        transform="translate(-515 -160)"
      />
      <path
        class="cls-20"
        d="M905.35,268.25a7.5,7.5,0,1,0,7.51,7.5,7.59,7.59,0,0,0-2.2-5.31A7.46,7.46,0,0,0,905.35,268.25Z"
        transform="translate(-515 -160)"
      />
      <rect
        class="cls-21"
        x="651.08"
        y="596.16"
        width="127"
        height="50.84"
        rx="6"
      />
      <text class="cls-22" transform="translate(683.08 626.92) scale(1.02 1)">
        N
        <tspan class="cls-23" x="11.62" y="0">e</tspan>
        <tspan x="20.62" y="0">xt</tspan>
      </text>
      <line class="cls-24" x1="746.83" y1="620.81" x2="733.76" y2="620.81" />
      <line class="cls-25" x1="741.17" y1="614.72" x2="747.26" y2="620.81" />
      <line class="cls-26" x1="747.26" y1="620.81" x2="741.17" y2="626.91" />
      <line class="cls-27" x1="107" y1="171" x2="778" y2="171" />
    </g>
  </g>
</svg>
